  0
SECTION
  2
HEADER
  9
$ANGBASE
  50
0.0
  9
$ANGDIR
  70
1
  9
$MEASUREMENT
  70
1
  0
ENDSEC
  0
SECTION
  2
TABLES
  0
TABLE
  2
LTYPE
  70
4
  0
LTYPE
  5
40F
  2
CONTINUOUS
  70
0
  3
Solid line
  72
65
  73
0
  40
0.0
  0
LTYPE
  5
410
  2
DASHDOT
 70
0
  3
Dash Dot ____ _ ____ _
 72
65
 73
4
 40
2.0
 49
1.25
 49
-0.25
 49
0.25
 49
-0.25
  0
LTYPE
  5
411
  2
DASHED
 70
0
  3
Dashed __ __ __ __ __
 72
65
 73
2
 40
0.75
 49
0.5
 49
-0.25
  0
LTYPE
  5
43B
  2
DOTTED
 70
0
  3
Dotted .  .  .  .
 72
65
 73
2
 40
0.2
 49
0.0
 49
-0.2
  0
ENDTAB
  0
TABLE
  2
STYLE
  70
4
  0
STYLE
  2
KICAD
  70
0
  40
0
  41
1
  42
1
  50
0
  71
0
  3
isocp.shx
  0
STYLE
  2
KICADB
  70
0
  40
0
  41
1
  42
1
  50
0
  71
0
  3
isocp.shx
  0
STYLE
  2
KICADI
  70
0
  40
0
  41
1
  42
1
  50
15
  71
0
  3
isocp.shx
  0
STYLE
  2
KICADBI
  70
0
  40
0
  41
1
  42
1
  50
15
  71
0
  3
isocp.shx
  0
ENDTAB
  0
TABLE
  2
LAYER
  70
1
  0
LAYER
  2
BLACK
  70
0
  62
7
  6
CONTINUOUS
  0
ENDTAB
  0
ENDSEC
  0
SECTION
  2
ENTITIES
0
LINE
8
BLACK
6
CONTINUOUS
10
141.498
20
-77.8641
11
141.499
21
-77.8673
0
LINE
8
BLACK
6
CONTINUOUS
10
141.499
20
-77.8673
11
141.598
21
-78.1405
0
LINE
8
BLACK
6
CONTINUOUS
10
141.598
20
-78.1405
11
141.598
21
-78.1405
0
LINE
8
BLACK
6
CONTINUOUS
10
141.598
20
-78.1405
11
141.6
21
-78.1446
0
LINE
8
BLACK
6
CONTINUOUS
10
141.6
20
-78.1446
11
141.601
21
-78.1474
0
LINE
8
BLACK
6
CONTINUOUS
10
141.601
20
-78.1474
11
141.601
21
-78.1474
0
LINE
8
BLACK
6
CONTINUOUS
10
141.601
20
-78.1474
11
141.601
21
-78.1474
0
LINE
8
BLACK
6
CONTINUOUS
10
141.601
20
-78.1474
11
141.602
21
-78.1506
0
LINE
8
BLACK
6
CONTINUOUS
10
141.602
20
-78.1506
11
141.603
21
-78.1545
0
LINE
8
BLACK
6
CONTINUOUS
10
141.603
20
-78.1545
11
141.603
21
-78.1546
0
LINE
8
BLACK
6
CONTINUOUS
10
141.603
20
-78.1546
11
141.676
21
-78.4399
0
LINE
8
BLACK
6
CONTINUOUS
10
141.676
20
-78.4399
11
141.676
21
-78.4399
0
LINE
8
BLACK
6
CONTINUOUS
10
141.676
20
-78.4399
11
141.677
21
-78.4439
0
LINE
8
BLACK
6
CONTINUOUS
10
141.677
20
-78.4439
11
141.678
21
-78.447
0
LINE
8
BLACK
6
CONTINUOUS
10
141.678
20
-78.447
11
141.678
21
-78.447
0
LINE
8
BLACK
6
CONTINUOUS
10
141.678
20
-78.447
11
141.678
21
-78.4471
0
LINE
8
BLACK
6
CONTINUOUS
10
141.678
20
-78.4471
11
141.678
21
-78.4496
0
LINE
8
BLACK
6
CONTINUOUS
10
141.678
20
-78.4496
11
141.679
21
-78.4543
0
LINE
8
BLACK
6
CONTINUOUS
10
141.679
20
-78.4543
11
141.679
21
-78.4543
0
LINE
8
BLACK
6
CONTINUOUS
10
141.679
20
-78.4543
11
141.724
21
-78.7503
0
LINE
8
BLACK
6
CONTINUOUS
10
141.724
20
-78.7503
11
141.724
21
-78.7503
0
LINE
8
BLACK
6
CONTINUOUS
10
141.724
20
-78.7503
11
141.724
21
-78.7548
0
LINE
8
BLACK
6
CONTINUOUS
10
141.724
20
-78.7548
11
141.725
21
-78.7575
0
LINE
8
BLACK
6
CONTINUOUS
10
141.725
20
-78.7575
11
141.725
21
-78.7576
0
LINE
8
BLACK
6
CONTINUOUS
10
141.725
20
-78.7576
11
141.725
21
-78.7576
0
LINE
8
BLACK
6
CONTINUOUS
10
141.725
20
-78.7576
11
141.725
21
-78.7603
0
LINE
8
BLACK
6
CONTINUOUS
10
141.725
20
-78.7603
11
141.725
21
-78.7649
0
LINE
8
BLACK
6
CONTINUOUS
10
141.725
20
-78.7649
11
141.725
21
-78.7649
0
LINE
8
BLACK
6
CONTINUOUS
10
141.725
20
-78.7649
11
141.741
21
-79.0738
0
LINE
8
BLACK
6
CONTINUOUS
10
141.741
20
-79.0738
11
141.741
21
-79.075
0
LINE
8
BLACK
6
CONTINUOUS
10
141.741
20
-79.075
11
141.741
21
-79.0763
0
LINE
8
BLACK
6
CONTINUOUS
10
141.741
20
-79.0763
11
141.741
21
-79.0774
0
LINE
8
BLACK
6
CONTINUOUS
10
141.741
20
-79.0774
11
141.741
21
-79.0787
0
LINE
8
BLACK
6
CONTINUOUS
10
141.741
20
-79.0787
11
141.741
21
-115.933
0
LINE
8
BLACK
6
CONTINUOUS
10
141.741
20
-115.933
11
141.741
21
-115.935
0
LINE
8
BLACK
6
CONTINUOUS
10
141.741
20
-115.935
11
141.741
21
-115.936
0
LINE
8
BLACK
6
CONTINUOUS
10
141.741
20
-115.936
11
141.741
21
-115.937
0
LINE
8
BLACK
6
CONTINUOUS
10
141.741
20
-115.937
11
141.741
21
-115.938
0
LINE
8
BLACK
6
CONTINUOUS
10
141.741
20
-115.938
11
141.725
21
-116.247
0
LINE
8
BLACK
6
CONTINUOUS
10
141.725
20
-116.247
11
141.725
21
-116.247
0
LINE
8
BLACK
6
CONTINUOUS
10
141.725
20
-116.247
11
141.725
21
-116.252
0
LINE
8
BLACK
6
CONTINUOUS
10
141.725
20
-116.252
11
141.725
21
-116.255
0
LINE
8
BLACK
6
CONTINUOUS
10
141.725
20
-116.255
11
141.725
21
-116.255
0
LINE
8
BLACK
6
CONTINUOUS
10
141.725
20
-116.255
11
141.725
21
-116.255
0
LINE
8
BLACK
6
CONTINUOUS
10
141.725
20
-116.255
11
141.724
21
-116.257
0
LINE
8
BLACK
6
CONTINUOUS
10
141.724
20
-116.257
11
141.724
21
-116.262
0
LINE
8
BLACK
6
CONTINUOUS
10
141.724
20
-116.262
11
141.724
21
-116.262
0
LINE
8
BLACK
6
CONTINUOUS
10
141.724
20
-116.262
11
141.679
21
-116.558
0
LINE
8
BLACK
6
CONTINUOUS
10
141.679
20
-116.558
11
141.679
21
-116.558
0
LINE
8
BLACK
6
CONTINUOUS
10
141.679
20
-116.558
11
141.678
21
-116.563
0
LINE
8
BLACK
6
CONTINUOUS
10
141.678
20
-116.563
11
141.678
21
-116.565
0
LINE
8
BLACK
6
CONTINUOUS
10
141.678
20
-116.565
11
141.678
21
-116.565
0
LINE
8
BLACK
6
CONTINUOUS
10
141.678
20
-116.565
11
141.678
21
-116.565
0
LINE
8
BLACK
6
CONTINUOUS
10
141.678
20
-116.565
11
141.677
21
-116.568
0
LINE
8
BLACK
6
CONTINUOUS
10
141.677
20
-116.568
11
141.676
21
-116.572
0
LINE
8
BLACK
6
CONTINUOUS
10
141.676
20
-116.572
11
141.676
21
-116.572
0
LINE
8
BLACK
6
CONTINUOUS
10
141.676
20
-116.572
11
141.603
21
-116.858
0
LINE
8
BLACK
6
CONTINUOUS
10
141.603
20
-116.858
11
141.603
21
-116.858
0
LINE
8
BLACK
6
CONTINUOUS
10
141.603
20
-116.858
11
141.602
21
-116.862
0
LINE
8
BLACK
6
CONTINUOUS
10
141.602
20
-116.862
11
141.601
21
-116.865
0
LINE
8
BLACK
6
CONTINUOUS
10
141.601
20
-116.865
11
141.601
21
-116.865
0
LINE
8
BLACK
6
CONTINUOUS
10
141.601
20
-116.865
11
141.601
21
-116.865
0
LINE
8
BLACK
6
CONTINUOUS
10
141.601
20
-116.865
11
141.6
21
-116.868
0
LINE
8
BLACK
6
CONTINUOUS
10
141.6
20
-116.868
11
141.598
21
-116.872
0
LINE
8
BLACK
6
CONTINUOUS
10
141.598
20
-116.872
11
141.598
21
-116.872
0
LINE
8
BLACK
6
CONTINUOUS
10
141.598
20
-116.872
11
141.496
21
-117.152
0
LINE
8
BLACK
6
CONTINUOUS
10
141.496
20
-117.152
11
141.496
21
-117.152
0
LINE
8
BLACK
6
CONTINUOUS
10
141.496
20
-117.152
11
141.496
21
-117.152
0
LINE
8
BLACK
6
CONTINUOUS
10
141.496
20
-117.152
11
141.366
21
-117.423
0
LINE
8
BLACK
6
CONTINUOUS
10
141.366
20
-117.423
11
141.365
21
-117.425
0
LINE
8
BLACK
6
CONTINUOUS
10
141.365
20
-117.425
11
141.365
21
-117.425
0
LINE
8
BLACK
6
CONTINUOUS
10
141.365
20
-117.425
11
141.365
21
-117.425
0
LINE
8
BLACK
6
CONTINUOUS
10
141.365
20
-117.425
11
141.364
21
-117.426
0
LINE
8
BLACK
6
CONTINUOUS
10
141.364
20
-117.426
11
141.21
21
-117.68
0
LINE
8
BLACK
6
CONTINUOUS
10
141.21
20
-117.68
11
141.209
21
-117.682
0
LINE
8
BLACK
6
CONTINUOUS
10
141.209
20
-117.682
11
141.209
21
-117.682
0
LINE
8
BLACK
6
CONTINUOUS
10
141.209
20
-117.682
11
141.209
21
-117.682
0
LINE
8
BLACK
6
CONTINUOUS
10
141.209
20
-117.682
11
141.208
21
-117.683
0
LINE
8
BLACK
6
CONTINUOUS
10
141.208
20
-117.683
11
141.031
21
-117.92
0
LINE
8
BLACK
6
CONTINUOUS
10
141.031
20
-117.92
11
141.03
21
-117.922
0
LINE
8
BLACK
6
CONTINUOUS
10
141.03
20
-117.922
11
141.03
21
-117.923
0
LINE
8
BLACK
6
CONTINUOUS
10
141.03
20
-117.923
11
141.03
21
-117.923
0
LINE
8
BLACK
6
CONTINUOUS
10
141.03
20
-117.923
11
141.029
21
-117.924
0
LINE
8
BLACK
6
CONTINUOUS
10
141.029
20
-117.924
11
140.83
21
-118.142
0
LINE
8
BLACK
6
CONTINUOUS
10
140.83
20
-118.142
11
140.829
21
-118.144
0
LINE
8
BLACK
6
CONTINUOUS
10
140.829
20
-118.144
11
140.829
21
-118.144
0
LINE
8
BLACK
6
CONTINUOUS
10
140.829
20
-118.144
11
140.829
21
-118.144
0
LINE
8
BLACK
6
CONTINUOUS
10
140.829
20
-118.144
11
140.827
21
-118.145
0
LINE
8
BLACK
6
CONTINUOUS
10
140.827
20
-118.145
11
140.609
21
-118.344
0
LINE
8
BLACK
6
CONTINUOUS
10
140.609
20
-118.344
11
140.607
21
-118.345
0
LINE
8
BLACK
6
CONTINUOUS
10
140.607
20
-118.345
11
140.607
21
-118.345
0
LINE
8
BLACK
6
CONTINUOUS
10
140.607
20
-118.345
11
140.607
21
-118.345
0
LINE
8
BLACK
6
CONTINUOUS
10
140.607
20
-118.345
11
140.606
21
-118.346
0
LINE
8
BLACK
6
CONTINUOUS
10
140.606
20
-118.346
11
140.369
21
-118.523
0
LINE
8
BLACK
6
CONTINUOUS
10
140.369
20
-118.523
11
140.367
21
-118.525
0
LINE
8
BLACK
6
CONTINUOUS
10
140.367
20
-118.525
11
140.367
21
-118.525
0
LINE
8
BLACK
6
CONTINUOUS
10
140.367
20
-118.525
11
140.367
21
-118.525
0
LINE
8
BLACK
6
CONTINUOUS
10
140.367
20
-118.525
11
140.366
21
-118.525
0
LINE
8
BLACK
6
CONTINUOUS
10
140.366
20
-118.525
11
140.112
21
-118.679
0
LINE
8
BLACK
6
CONTINUOUS
10
140.112
20
-118.679
11
140.11
21
-118.681
0
LINE
8
BLACK
6
CONTINUOUS
10
140.11
20
-118.681
11
140.11
21
-118.681
0
LINE
8
BLACK
6
CONTINUOUS
10
140.11
20
-118.681
11
140.109
21
-118.681
0
LINE
8
BLACK
6
CONTINUOUS
10
140.109
20
-118.681
11
139.843
21
-118.809
0
LINE
8
BLACK
6
CONTINUOUS
10
139.843
20
-118.809
11
139.843
21
-118.809
0
LINE
8
BLACK
6
CONTINUOUS
10
139.843
20
-118.809
11
139.841
21
-118.81
0
LINE
8
BLACK
6
CONTINUOUS
10
139.841
20
-118.81
11
139.837
21
-118.812
0
LINE
8
BLACK
6
CONTINUOUS
10
139.837
20
-118.812
11
139.837
21
-118.812
0
LINE
8
BLACK
6
CONTINUOUS
10
139.837
20
-118.812
11
139.837
21
-118.812
0
LINE
8
BLACK
6
CONTINUOUS
10
139.837
20
-118.812
11
139.557
21
-118.914
0
LINE
8
BLACK
6
CONTINUOUS
10
139.557
20
-118.914
11
139.557
21
-118.914
0
LINE
8
BLACK
6
CONTINUOUS
10
139.557
20
-118.914
11
139.552
21
-118.916
0
LINE
8
BLACK
6
CONTINUOUS
10
139.552
20
-118.916
11
139.55
21
-118.916
0
LINE
8
BLACK
6
CONTINUOUS
10
139.55
20
-118.916
11
139.55
21
-118.916
0
LINE
8
BLACK
6
CONTINUOUS
10
139.55
20
-118.916
11
139.55
21
-118.916
0
LINE
8
BLACK
6
CONTINUOUS
10
139.55
20
-118.916
11
139.545
21
-118.918
0
LINE
8
BLACK
6
CONTINUOUS
10
139.545
20
-118.918
11
139.542
21
-118.918
0
LINE
8
BLACK
6
CONTINUOUS
10
139.542
20
-118.918
11
139.542
21
-118.918
0
LINE
8
BLACK
6
CONTINUOUS
10
139.542
20
-118.918
11
139.257
21
-118.991
0
LINE
8
BLACK
6
CONTINUOUS
10
139.257
20
-118.991
11
139.257
21
-118.991
0
LINE
8
BLACK
6
CONTINUOUS
10
139.257
20
-118.991
11
139.253
21
-118.992
0
LINE
8
BLACK
6
CONTINUOUS
10
139.253
20
-118.992
11
139.25
21
-118.993
0
LINE
8
BLACK
6
CONTINUOUS
10
139.25
20
-118.993
11
139.25
21
-118.993
0
LINE
8
BLACK
6
CONTINUOUS
10
139.25
20
-118.993
11
139.25
21
-118.993
0
LINE
8
BLACK
6
CONTINUOUS
10
139.25
20
-118.993
11
139.247
21
-118.994
0
LINE
8
BLACK
6
CONTINUOUS
10
139.247
20
-118.994
11
139.243
21
-118.994
0
LINE
8
BLACK
6
CONTINUOUS
10
139.243
20
-118.994
11
139.243
21
-118.994
0
LINE
8
BLACK
6
CONTINUOUS
10
139.243
20
-118.994
11
138.947
21
-119.039
0
LINE
8
BLACK
6
CONTINUOUS
10
138.947
20
-119.039
11
138.947
21
-119.039
0
LINE
8
BLACK
6
CONTINUOUS
10
138.947
20
-119.039
11
138.942
21
-119.04
0
LINE
8
BLACK
6
CONTINUOUS
10
138.942
20
-119.04
11
138.94
21
-119.04
0
LINE
8
BLACK
6
CONTINUOUS
10
138.94
20
-119.04
11
138.939
21
-119.04
0
LINE
8
BLACK
6
CONTINUOUS
10
138.939
20
-119.04
11
138.939
21
-119.04
0
LINE
8
BLACK
6
CONTINUOUS
10
138.939
20
-119.04
11
138.937
21
-119.04
0
LINE
8
BLACK
6
CONTINUOUS
10
138.937
20
-119.04
11
138.932
21
-119.041
0
LINE
8
BLACK
6
CONTINUOUS
10
138.932
20
-119.041
11
138.932
21
-119.041
0
LINE
8
BLACK
6
CONTINUOUS
10
138.932
20
-119.041
11
138.623
21
-119.056
0
LINE
8
BLACK
6
CONTINUOUS
10
138.623
20
-119.056
11
138.622
21
-119.056
0
LINE
8
BLACK
6
CONTINUOUS
10
138.622
20
-119.056
11
138.621
21
-119.056
0
LINE
8
BLACK
6
CONTINUOUS
10
138.621
20
-119.056
11
138.62
21
-119.056
0
LINE
8
BLACK
6
CONTINUOUS
10
138.62
20
-119.056
11
138.618
21
-119.056
0
LINE
8
BLACK
6
CONTINUOUS
10
138.618
20
-119.056
11
101.764
21
-119.056
0
LINE
8
BLACK
6
CONTINUOUS
10
101.764
20
-119.056
11
101.762
21
-119.056
0
LINE
8
BLACK
6
CONTINUOUS
10
101.762
20
-119.056
11
101.761
21
-119.056
0
LINE
8
BLACK
6
CONTINUOUS
10
101.761
20
-119.056
11
101.76
21
-119.056
0
LINE
8
BLACK
6
CONTINUOUS
10
101.76
20
-119.056
11
101.759
21
-119.056
0
LINE
8
BLACK
6
CONTINUOUS
10
101.759
20
-119.056
11
101.45
21
-119.041
0
LINE
8
BLACK
6
CONTINUOUS
10
101.45
20
-119.041
11
101.45
21
-119.041
0
LINE
8
BLACK
6
CONTINUOUS
10
101.45
20
-119.041
11
101.445
21
-119.04
0
LINE
8
BLACK
6
CONTINUOUS
10
101.445
20
-119.04
11
101.442
21
-119.04
0
LINE
8
BLACK
6
CONTINUOUS
10
101.442
20
-119.04
11
101.442
21
-119.04
0
LINE
8
BLACK
6
CONTINUOUS
10
101.442
20
-119.04
11
101.442
21
-119.04
0
LINE
8
BLACK
6
CONTINUOUS
10
101.442
20
-119.04
11
101.439
21
-119.04
0
LINE
8
BLACK
6
CONTINUOUS
10
101.439
20
-119.04
11
101.435
21
-119.039
0
LINE
8
BLACK
6
CONTINUOUS
10
101.435
20
-119.039
11
101.435
21
-119.039
0
LINE
8
BLACK
6
CONTINUOUS
10
101.435
20
-119.039
11
101.139
21
-118.994
0
LINE
8
BLACK
6
CONTINUOUS
10
101.139
20
-118.994
11
101.139
21
-118.994
0
LINE
8
BLACK
6
CONTINUOUS
10
101.139
20
-118.994
11
101.135
21
-118.994
0
LINE
8
BLACK
6
CONTINUOUS
10
101.135
20
-118.994
11
101.132
21
-118.993
0
LINE
8
BLACK
6
CONTINUOUS
10
101.132
20
-118.993
11
101.132
21
-118.993
0
LINE
8
BLACK
6
CONTINUOUS
10
101.132
20
-118.993
11
101.132
21
-118.993
0
LINE
8
BLACK
6
CONTINUOUS
10
101.132
20
-118.993
11
101.129
21
-118.992
0
LINE
8
BLACK
6
CONTINUOUS
10
101.129
20
-118.992
11
101.125
21
-118.991
0
LINE
8
BLACK
6
CONTINUOUS
10
101.125
20
-118.991
11
101.125
21
-118.991
0
LINE
8
BLACK
6
CONTINUOUS
10
101.125
20
-118.991
11
100.839
21
-118.918
0
LINE
8
BLACK
6
CONTINUOUS
10
100.839
20
-118.918
11
100.839
21
-118.918
0
LINE
8
BLACK
6
CONTINUOUS
10
100.839
20
-118.918
11
100.835
21
-118.917
0
LINE
8
BLACK
6
CONTINUOUS
10
100.835
20
-118.917
11
100.832
21
-118.916
0
LINE
8
BLACK
6
CONTINUOUS
10
100.832
20
-118.916
11
100.832
21
-118.916
0
LINE
8
BLACK
6
CONTINUOUS
10
100.832
20
-118.916
11
100.832
21
-118.916
0
LINE
8
BLACK
6
CONTINUOUS
10
100.832
20
-118.916
11
100.829
21
-118.915
0
LINE
8
BLACK
6
CONTINUOUS
10
100.829
20
-118.915
11
100.825
21
-118.914
0
LINE
8
BLACK
6
CONTINUOUS
10
100.825
20
-118.914
11
100.825
21
-118.914
0
LINE
8
BLACK
6
CONTINUOUS
10
100.825
20
-118.914
11
100.545
21
-118.812
0
LINE
8
BLACK
6
CONTINUOUS
10
100.545
20
-118.812
11
100.545
21
-118.812
0
LINE
8
BLACK
6
CONTINUOUS
10
100.545
20
-118.812
11
100.274
21
-118.682
0
LINE
8
BLACK
6
CONTINUOUS
10
100.274
20
-118.682
11
100.272
21
-118.681
0
LINE
8
BLACK
6
CONTINUOUS
10
100.272
20
-118.681
11
100.272
21
-118.681
0
LINE
8
BLACK
6
CONTINUOUS
10
100.272
20
-118.681
11
100.272
21
-118.681
0
LINE
8
BLACK
6
CONTINUOUS
10
100.272
20
-118.681
11
100.272
21
-118.68
0
LINE
8
BLACK
6
CONTINUOUS
10
100.272
20
-118.68
11
100.017
21
-118.526
0
LINE
8
BLACK
6
CONTINUOUS
10
100.017
20
-118.526
11
100.015
21
-118.525
0
LINE
8
BLACK
6
CONTINUOUS
10
100.015
20
-118.525
11
100.015
21
-118.525
0
LINE
8
BLACK
6
CONTINUOUS
10
100.015
20
-118.525
11
100.015
21
-118.525
0
LINE
8
BLACK
6
CONTINUOUS
10
100.015
20
-118.525
11
100.013
21
-118.523
0
LINE
8
BLACK
6
CONTINUOUS
10
100.013
20
-118.523
11
99.7764
21
-118.347
0
LINE
8
BLACK
6
CONTINUOUS
10
99.7764
20
-118.347
11
99.7746
21
-118.345
0
LINE
8
BLACK
6
CONTINUOUS
10
99.7746
20
-118.345
11
99.7745
21
-118.345
0
LINE
8
BLACK
6
CONTINUOUS
10
99.7745
20
-118.345
11
99.7745
21
-118.345
0
LINE
8
BLACK
6
CONTINUOUS
10
99.7745
20
-118.345
11
99.773
21
-118.344
0
LINE
8
BLACK
6
CONTINUOUS
10
99.773
20
-118.344
11
99.555
21
-118.146
0
LINE
8
BLACK
6
CONTINUOUS
10
99.555
20
-118.146
11
99.5531
21
-118.144
0
LINE
8
BLACK
6
CONTINUOUS
10
99.5531
20
-118.144
11
99.553
21
-118.144
0
LINE
8
BLACK
6
CONTINUOUS
10
99.553
20
-118.144
11
99.553
21
-118.144
0
LINE
8
BLACK
6
CONTINUOUS
10
99.553
20
-118.144
11
99.552
21
-118.143
0
LINE
8
BLACK
6
CONTINUOUS
10
99.552
20
-118.143
11
99.3534
21
-117.924
0
LINE
8
BLACK
6
CONTINUOUS
10
99.3534
20
-117.924
11
99.3519
21
-117.923
0
LINE
8
BLACK
6
CONTINUOUS
10
99.3519
20
-117.923
11
99.3518
21
-117.922
0
LINE
8
BLACK
6
CONTINUOUS
10
99.3518
20
-117.922
11
99.3518
21
-117.922
0
LINE
8
BLACK
6
CONTINUOUS
10
99.3518
20
-117.922
11
99.3509
21
-117.921
0
LINE
8
BLACK
6
CONTINUOUS
10
99.3509
20
-117.921
11
99.174
21
-117.684
0
LINE
8
BLACK
6
CONTINUOUS
10
99.174
20
-117.684
11
99.1725
21
-117.682
0
LINE
8
BLACK
6
CONTINUOUS
10
99.1725
20
-117.682
11
99.1724
21
-117.682
0
LINE
8
BLACK
6
CONTINUOUS
10
99.1724
20
-117.682
11
99.1724
21
-117.682
0
LINE
8
BLACK
6
CONTINUOUS
10
99.1724
20
-117.682
11
99.1716
21
-117.681
0
LINE
8
BLACK
6
CONTINUOUS
10
99.1716
20
-117.681
11
99.0174
21
-117.427
0
LINE
8
BLACK
6
CONTINUOUS
10
99.0174
20
-117.427
11
99.0164
21
-117.425
0
LINE
8
BLACK
6
CONTINUOUS
10
99.0164
20
-117.425
11
99.0164
21
-117.425
0
LINE
8
BLACK
6
CONTINUOUS
10
99.0164
20
-117.425
11
99.0164
21
-117.425
0
LINE
8
BLACK
6
CONTINUOUS
10
99.0164
20
-117.425
11
99.0159
21
-117.424
0
LINE
8
BLACK
6
CONTINUOUS
10
99.0159
20
-117.424
11
98.8861
21
-117.154
0
LINE
8
BLACK
6
CONTINUOUS
10
98.8861
20
-117.154
11
98.8852
21
-117.152
0
LINE
8
BLACK
6
CONTINUOUS
10
98.8852
20
-117.152
11
98.7831
21
-116.872
0
LINE
8
BLACK
6
CONTINUOUS
10
98.7831
20
-116.872
11
98.7831
21
-116.872
0
LINE
8
BLACK
6
CONTINUOUS
10
98.7831
20
-116.872
11
98.7812
21
-116.866
0
LINE
8
BLACK
6
CONTINUOUS
10
98.7812
20
-116.866
11
98.7806
21
-116.865
0
LINE
8
BLACK
6
CONTINUOUS
10
98.7806
20
-116.865
11
98.7805
21
-116.865
0
LINE
8
BLACK
6
CONTINUOUS
10
98.7805
20
-116.865
11
98.7805
21
-116.865
0
LINE
8
BLACK
6
CONTINUOUS
10
98.7805
20
-116.865
11
98.7795
21
-116.861
0
LINE
8
BLACK
6
CONTINUOUS
10
98.7795
20
-116.861
11
98.7787
21
-116.858
0
LINE
8
BLACK
6
CONTINUOUS
10
98.7787
20
-116.858
11
98.7787
21
-116.858
0
LINE
8
BLACK
6
CONTINUOUS
10
98.7787
20
-116.858
11
98.7057
21
-116.572
0
LINE
8
BLACK
6
CONTINUOUS
10
98.7057
20
-116.572
11
98.7057
21
-116.572
0
LINE
8
BLACK
6
CONTINUOUS
10
98.7057
20
-116.572
11
98.7046
21
-116.568
0
LINE
8
BLACK
6
CONTINUOUS
10
98.7046
20
-116.568
11
98.7039
21
-116.565
0
LINE
8
BLACK
6
CONTINUOUS
10
98.7039
20
-116.565
11
98.7038
21
-116.565
0
LINE
8
BLACK
6
CONTINUOUS
10
98.7038
20
-116.565
11
98.7038
21
-116.565
0
LINE
8
BLACK
6
CONTINUOUS
10
98.7038
20
-116.565
11
98.7034
21
-116.562
0
LINE
8
BLACK
6
CONTINUOUS
10
98.7034
20
-116.562
11
98.7027
21
-116.558
0
LINE
8
BLACK
6
CONTINUOUS
10
98.7027
20
-116.558
11
98.7027
21
-116.558
0
LINE
8
BLACK
6
CONTINUOUS
10
98.7027
20
-116.558
11
98.6578
21
-116.262
0
LINE
8
BLACK
6
CONTINUOUS
10
98.6578
20
-116.262
11
98.6578
21
-116.262
0
LINE
8
BLACK
6
CONTINUOUS
10
98.6578
20
-116.262
11
98.6571
21
-116.258
0
LINE
8
BLACK
6
CONTINUOUS
10
98.6571
20
-116.258
11
98.6567
21
-116.255
0
LINE
8
BLACK
6
CONTINUOUS
10
98.6567
20
-116.255
11
98.6567
21
-116.255
0
LINE
8
BLACK
6
CONTINUOUS
10
98.6567
20
-116.255
11
98.6567
21
-116.255
0
LINE
8
BLACK
6
CONTINUOUS
10
98.6567
20
-116.255
11
98.6566
21
-116.252
0
LINE
8
BLACK
6
CONTINUOUS
10
98.6566
20
-116.252
11
98.6563
21
-116.247
0
LINE
8
BLACK
6
CONTINUOUS
10
98.6563
20
-116.247
11
98.6563
21
-116.247
0
LINE
8
BLACK
6
CONTINUOUS
10
98.6563
20
-116.247
11
98.6408
21
-115.938
0
LINE
8
BLACK
6
CONTINUOUS
10
98.6408
20
-115.938
11
98.6407
21
-115.937
0
LINE
8
BLACK
6
CONTINUOUS
10
98.6407
20
-115.937
11
98.6407
21
-115.936
0
LINE
8
BLACK
6
CONTINUOUS
10
98.6407
20
-115.936
11
98.6406
21
-115.935
0
LINE
8
BLACK
6
CONTINUOUS
10
98.6406
20
-115.935
11
98.6407
21
-115.933
0
LINE
8
BLACK
6
CONTINUOUS
10
98.6407
20
-115.933
11
98.6407
21
-79.0787
0
LINE
8
BLACK
6
CONTINUOUS
10
98.6407
20
-79.0787
11
98.6406
21
-79.0774
0
LINE
8
BLACK
6
CONTINUOUS
10
98.6406
20
-79.0774
11
98.6407
21
-79.0763
0
LINE
8
BLACK
6
CONTINUOUS
10
98.6407
20
-79.0763
11
98.6407
21
-79.075
0
LINE
8
BLACK
6
CONTINUOUS
10
98.6407
20
-79.075
11
98.6408
21
-79.0738
0
LINE
8
BLACK
6
CONTINUOUS
10
98.6408
20
-79.0738
11
98.6563
21
-78.7649
0
LINE
8
BLACK
6
CONTINUOUS
10
98.6563
20
-78.7649
11
98.6563
21
-78.7649
0
LINE
8
BLACK
6
CONTINUOUS
10
98.6563
20
-78.7649
11
98.6566
21
-78.7603
0
LINE
8
BLACK
6
CONTINUOUS
10
98.6566
20
-78.7603
11
98.6567
21
-78.7576
0
LINE
8
BLACK
6
CONTINUOUS
10
98.6567
20
-78.7576
11
98.6567
21
-78.7576
0
LINE
8
BLACK
6
CONTINUOUS
10
98.6567
20
-78.7576
11
98.6567
21
-78.7575
0
LINE
8
BLACK
6
CONTINUOUS
10
98.6567
20
-78.7575
11
98.6572
21
-78.7546
0
LINE
8
BLACK
6
CONTINUOUS
10
98.6572
20
-78.7546
11
98.6578
21
-78.7503
0
LINE
8
BLACK
6
CONTINUOUS
10
98.6578
20
-78.7503
11
98.6578
21
-78.7503
0
LINE
8
BLACK
6
CONTINUOUS
10
98.6578
20
-78.7503
11
98.7027
21
-78.4543
0
LINE
8
BLACK
6
CONTINUOUS
10
98.7027
20
-78.4543
11
98.7027
21
-78.4543
0
LINE
8
BLACK
6
CONTINUOUS
10
98.7027
20
-78.4543
11
98.7034
21
-78.4498
0
LINE
8
BLACK
6
CONTINUOUS
10
98.7034
20
-78.4498
11
98.7038
21
-78.4471
0
LINE
8
BLACK
6
CONTINUOUS
10
98.7038
20
-78.4471
11
98.7038
21
-78.447
0
LINE
8
BLACK
6
CONTINUOUS
10
98.7038
20
-78.447
11
98.7039
21
-78.447
0
LINE
8
BLACK
6
CONTINUOUS
10
98.7039
20
-78.447
11
98.7046
21
-78.4441
0
LINE
8
BLACK
6
CONTINUOUS
10
98.7046
20
-78.4441
11
98.7057
21
-78.4399
0
LINE
8
BLACK
6
CONTINUOUS
10
98.7057
20
-78.4399
11
98.7057
21
-78.4399
0
LINE
8
BLACK
6
CONTINUOUS
10
98.7057
20
-78.4399
11
98.7787
21
-78.1546
0
LINE
8
BLACK
6
CONTINUOUS
10
98.7787
20
-78.1546
11
98.7787
21
-78.1545
0
LINE
8
BLACK
6
CONTINUOUS
10
98.7787
20
-78.1545
11
98.7794
21
-78.1519
0
LINE
8
BLACK
6
CONTINUOUS
10
98.7794
20
-78.1519
11
98.7805
21
-78.1474
0
LINE
8
BLACK
6
CONTINUOUS
10
98.7805
20
-78.1474
11
98.7805
21
-78.1474
0
LINE
8
BLACK
6
CONTINUOUS
10
98.7805
20
-78.1474
11
98.7806
21
-78.1474
0
LINE
8
BLACK
6
CONTINUOUS
10
98.7806
20
-78.1474
11
98.7814
21
-78.1452
0
LINE
8
BLACK
6
CONTINUOUS
10
98.7814
20
-78.1452
11
98.7831
21
-78.1405
0
LINE
8
BLACK
6
CONTINUOUS
10
98.7831
20
-78.1405
11
98.7831
21
-78.1405
0
LINE
8
BLACK
6
CONTINUOUS
10
98.7831
20
-78.1405
11
98.8852
21
-77.8603
0
LINE
8
BLACK
6
CONTINUOUS
10
98.8852
20
-77.8603
11
98.8884
21
-77.8537
0
LINE
8
BLACK
6
CONTINUOUS
10
98.8884
20
-77.8537
11
98.8884
21
-77.8537
0
LINE
8
BLACK
6
CONTINUOUS
10
98.8884
20
-77.8537
11
99.0164
21
-77.5874
0
LINE
8
BLACK
6
CONTINUOUS
10
99.0164
20
-77.5874
11
99.0164
21
-77.5874
0
LINE
8
BLACK
6
CONTINUOUS
10
99.0164
20
-77.5874
11
99.0164
21
-77.5873
0
LINE
8
BLACK
6
CONTINUOUS
10
99.0164
20
-77.5873
11
99.0179
21
-77.5848
0
LINE
8
BLACK
6
CONTINUOUS
10
99.0179
20
-77.5848
11
99.1718
21
-77.331
0
LINE
8
BLACK
6
CONTINUOUS
10
99.1718
20
-77.331
11
99.1724
21
-77.33
0
LINE
8
BLACK
6
CONTINUOUS
10
99.1724
20
-77.33
11
99.1724
21
-77.33
0
LINE
8
BLACK
6
CONTINUOUS
10
99.1724
20
-77.33
11
99.1725
21
-77.33
0
LINE
8
BLACK
6
CONTINUOUS
10
99.1725
20
-77.33
11
99.174
21
-77.328
0
LINE
8
BLACK
6
CONTINUOUS
10
99.174
20
-77.328
11
99.3508
21
-77.0912
0
LINE
8
BLACK
6
CONTINUOUS
10
99.3508
20
-77.0912
11
99.3518
21
-77.0899
0
LINE
8
BLACK
6
CONTINUOUS
10
99.3518
20
-77.0899
11
99.3518
21
-77.0899
0
LINE
8
BLACK
6
CONTINUOUS
10
99.3518
20
-77.0899
11
99.3519
21
-77.0898
0
LINE
8
BLACK
6
CONTINUOUS
10
99.3519
20
-77.0898
11
99.3536
21
-77.0879
0
LINE
8
BLACK
6
CONTINUOUS
10
99.3536
20
-77.0879
11
99.5516
21
-76.87
0
LINE
8
BLACK
6
CONTINUOUS
10
99.5516
20
-76.87
11
99.553
21
-76.8685
0
LINE
8
BLACK
6
CONTINUOUS
10
99.553
20
-76.8685
11
99.5531
21
-76.8684
0
LINE
8
BLACK
6
CONTINUOUS
10
99.5531
20
-76.8684
11
99.5531
21
-76.8684
0
LINE
8
BLACK
6
CONTINUOUS
10
99.5531
20
-76.8684
11
99.5547
21
-76.867
0
LINE
8
BLACK
6
CONTINUOUS
10
99.5547
20
-76.867
11
99.7733
21
-76.6684
0
LINE
8
BLACK
6
CONTINUOUS
10
99.7733
20
-76.6684
11
99.7745
21
-76.6673
0
LINE
8
BLACK
6
CONTINUOUS
10
99.7745
20
-76.6673
11
99.7745
21
-76.6673
0
LINE
8
BLACK
6
CONTINUOUS
10
99.7745
20
-76.6673
11
99.7746
21
-76.6672
0
LINE
8
BLACK
6
CONTINUOUS
10
99.7746
20
-76.6672
11
99.7766
21
-76.6657
0
LINE
8
BLACK
6
CONTINUOUS
10
99.7766
20
-76.6657
11
100.014
21
-76.4888
0
LINE
8
BLACK
6
CONTINUOUS
10
100.014
20
-76.4888
11
100.015
21
-76.4879
0
LINE
8
BLACK
6
CONTINUOUS
10
100.015
20
-76.4879
11
100.015
21
-76.4879
0
LINE
8
BLACK
6
CONTINUOUS
10
100.015
20
-76.4879
11
100.015
21
-76.4879
0
LINE
8
BLACK
6
CONTINUOUS
10
100.015
20
-76.4879
11
100.017
21
-76.4866
0
LINE
8
BLACK
6
CONTINUOUS
10
100.017
20
-76.4866
11
100.271
21
-76.3326
0
LINE
8
BLACK
6
CONTINUOUS
10
100.271
20
-76.3326
11
100.272
21
-76.3319
0
LINE
8
BLACK
6
CONTINUOUS
10
100.272
20
-76.3319
11
100.272
21
-76.3319
0
LINE
8
BLACK
6
CONTINUOUS
10
100.272
20
-76.3319
11
100.272
21
-76.3319
0
LINE
8
BLACK
6
CONTINUOUS
10
100.272
20
-76.3319
11
100.274
21
-76.331
0
LINE
8
BLACK
6
CONTINUOUS
10
100.274
20
-76.331
11
100.545
21
-76.2008
0
LINE
8
BLACK
6
CONTINUOUS
10
100.545
20
-76.2008
11
100.545
21
-76.2008
0
LINE
8
BLACK
6
CONTINUOUS
10
100.545
20
-76.2008
11
100.825
21
-76.0987
0
LINE
8
BLACK
6
CONTINUOUS
10
100.825
20
-76.0987
11
100.825
21
-76.0987
0
LINE
8
BLACK
6
CONTINUOUS
10
100.825
20
-76.0987
11
100.829
21
-76.0974
0
LINE
8
BLACK
6
CONTINUOUS
10
100.829
20
-76.0974
11
100.832
21
-76.0962
0
LINE
8
BLACK
6
CONTINUOUS
10
100.832
20
-76.0962
11
100.832
21
-76.0961
0
LINE
8
BLACK
6
CONTINUOUS
10
100.832
20
-76.0961
11
100.832
21
-76.0961
0
LINE
8
BLACK
6
CONTINUOUS
10
100.832
20
-76.0961
11
100.835
21
-76.0954
0
LINE
8
BLACK
6
CONTINUOUS
10
100.835
20
-76.0954
11
100.839
21
-76.0943
0
LINE
8
BLACK
6
CONTINUOUS
10
100.839
20
-76.0943
11
100.839
21
-76.0943
0
LINE
8
BLACK
6
CONTINUOUS
10
100.839
20
-76.0943
11
101.125
21
-76.0213
0
LINE
8
BLACK
6
CONTINUOUS
10
101.125
20
-76.0213
11
101.125
21
-76.0213
0
LINE
8
BLACK
6
CONTINUOUS
10
101.125
20
-76.0213
11
101.129
21
-76.0203
0
LINE
8
BLACK
6
CONTINUOUS
10
101.129
20
-76.0203
11
101.132
21
-76.0195
0
LINE
8
BLACK
6
CONTINUOUS
10
101.132
20
-76.0195
11
101.132
21
-76.0195
0
LINE
8
BLACK
6
CONTINUOUS
10
101.132
20
-76.0195
11
101.132
21
-76.0195
0
LINE
8
BLACK
6
CONTINUOUS
10
101.132
20
-76.0195
11
101.134
21
-76.0191
0
LINE
8
BLACK
6
CONTINUOUS
10
101.134
20
-76.0191
11
101.139
21
-76.0184
0
LINE
8
BLACK
6
CONTINUOUS
10
101.139
20
-76.0184
11
101.139
21
-76.0184
0
LINE
8
BLACK
6
CONTINUOUS
10
101.139
20
-76.0184
11
101.435
21
-75.9734
0
LINE
8
BLACK
6
CONTINUOUS
10
101.435
20
-75.9734
11
101.435
21
-75.9734
0
LINE
8
BLACK
6
CONTINUOUS
10
101.435
20
-75.9734
11
101.44
21
-75.9728
0
LINE
8
BLACK
6
CONTINUOUS
10
101.44
20
-75.9728
11
101.442
21
-75.9724
0
LINE
8
BLACK
6
CONTINUOUS
10
101.442
20
-75.9724
11
101.442
21
-75.9723
0
LINE
8
BLACK
6
CONTINUOUS
10
101.442
20
-75.9723
11
101.442
21
-75.9723
0
LINE
8
BLACK
6
CONTINUOUS
10
101.442
20
-75.9723
11
101.445
21
-75.9722
0
LINE
8
BLACK
6
CONTINUOUS
10
101.445
20
-75.9722
11
101.45
21
-75.972
0
LINE
8
BLACK
6
CONTINUOUS
10
101.45
20
-75.972
11
101.45
21
-75.972
0
LINE
8
BLACK
6
CONTINUOUS
10
101.45
20
-75.972
11
101.759
21
-75.9565
0
LINE
8
BLACK
6
CONTINUOUS
10
101.759
20
-75.9565
11
101.76
21
-75.9564
0
LINE
8
BLACK
6
CONTINUOUS
10
101.76
20
-75.9564
11
101.761
21
-75.9564
0
LINE
8
BLACK
6
CONTINUOUS
10
101.761
20
-75.9564
11
101.762
21
-75.9563
0
LINE
8
BLACK
6
CONTINUOUS
10
101.762
20
-75.9563
11
101.764
21
-75.9564
0
LINE
8
BLACK
6
CONTINUOUS
10
101.764
20
-75.9564
11
138.618
21
-75.9564
0
LINE
8
BLACK
6
CONTINUOUS
10
138.618
20
-75.9564
11
138.62
21
-75.9563
0
LINE
8
BLACK
6
CONTINUOUS
10
138.62
20
-75.9563
11
138.621
21
-75.9564
0
LINE
8
BLACK
6
CONTINUOUS
10
138.621
20
-75.9564
11
138.622
21
-75.9564
0
LINE
8
BLACK
6
CONTINUOUS
10
138.622
20
-75.9564
11
138.623
21
-75.9565
0
LINE
8
BLACK
6
CONTINUOUS
10
138.623
20
-75.9565
11
138.932
21
-75.972
0
LINE
8
BLACK
6
CONTINUOUS
10
138.932
20
-75.972
11
138.932
21
-75.972
0
LINE
8
BLACK
6
CONTINUOUS
10
138.932
20
-75.972
11
138.937
21
-75.9722
0
LINE
8
BLACK
6
CONTINUOUS
10
138.937
20
-75.9722
11
138.939
21
-75.9723
0
LINE
8
BLACK
6
CONTINUOUS
10
138.939
20
-75.9723
11
138.939
21
-75.9723
0
LINE
8
BLACK
6
CONTINUOUS
10
138.939
20
-75.9723
11
138.94
21
-75.9724
0
LINE
8
BLACK
6
CONTINUOUS
10
138.94
20
-75.9724
11
138.942
21
-75.9728
0
LINE
8
BLACK
6
CONTINUOUS
10
138.942
20
-75.9728
11
138.947
21
-75.9734
0
LINE
8
BLACK
6
CONTINUOUS
10
138.947
20
-75.9734
11
138.947
21
-75.9734
0
LINE
8
BLACK
6
CONTINUOUS
10
138.947
20
-75.9734
11
139.243
21
-76.0184
0
LINE
8
BLACK
6
CONTINUOUS
10
139.243
20
-76.0184
11
139.243
21
-76.0184
0
LINE
8
BLACK
6
CONTINUOUS
10
139.243
20
-76.0184
11
139.247
21
-76.0191
0
LINE
8
BLACK
6
CONTINUOUS
10
139.247
20
-76.0191
11
139.25
21
-76.0195
0
LINE
8
BLACK
6
CONTINUOUS
10
139.25
20
-76.0195
11
139.25
21
-76.0195
0
LINE
8
BLACK
6
CONTINUOUS
10
139.25
20
-76.0195
11
139.25
21
-76.0195
0
LINE
8
BLACK
6
CONTINUOUS
10
139.25
20
-76.0195
11
139.253
21
-76.0203
0
LINE
8
BLACK
6
CONTINUOUS
10
139.253
20
-76.0203
11
139.257
21
-76.0213
0
LINE
8
BLACK
6
CONTINUOUS
10
139.257
20
-76.0213
11
139.257
21
-76.0213
0
LINE
8
BLACK
6
CONTINUOUS
10
139.257
20
-76.0213
11
139.542
21
-76.0943
0
LINE
8
BLACK
6
CONTINUOUS
10
139.542
20
-76.0943
11
139.542
21
-76.0943
0
LINE
8
BLACK
6
CONTINUOUS
10
139.542
20
-76.0943
11
139.545
21
-76.095
0
LINE
8
BLACK
6
CONTINUOUS
10
139.545
20
-76.095
11
139.55
21
-76.0961
0
LINE
8
BLACK
6
CONTINUOUS
10
139.55
20
-76.0961
11
139.55
21
-76.0961
0
LINE
8
BLACK
6
CONTINUOUS
10
139.55
20
-76.0961
11
139.55
21
-76.0961
0
LINE
8
BLACK
6
CONTINUOUS
10
139.55
20
-76.0961
11
139.551
21
-76.0967
0
LINE
8
BLACK
6
CONTINUOUS
10
139.551
20
-76.0967
11
139.557
21
-76.0987
0
LINE
8
BLACK
6
CONTINUOUS
10
139.557
20
-76.0987
11
139.557
21
-76.0987
0
LINE
8
BLACK
6
CONTINUOUS
10
139.557
20
-76.0987
11
139.837
21
-76.2008
0
LINE
8
BLACK
6
CONTINUOUS
10
139.837
20
-76.2008
11
139.843
21
-76.204
0
LINE
8
BLACK
6
CONTINUOUS
10
139.843
20
-76.204
11
139.843
21
-76.204
0
LINE
8
BLACK
6
CONTINUOUS
10
139.843
20
-76.204
11
140.11
21
-76.3319
0
LINE
8
BLACK
6
CONTINUOUS
10
140.11
20
-76.3319
11
140.112
21
-76.3335
0
LINE
8
BLACK
6
CONTINUOUS
10
140.112
20
-76.3335
11
140.366
21
-76.4871
0
LINE
8
BLACK
6
CONTINUOUS
10
140.366
20
-76.4871
11
140.367
21
-76.4879
0
LINE
8
BLACK
6
CONTINUOUS
10
140.367
20
-76.4879
11
140.367
21
-76.4879
0
LINE
8
BLACK
6
CONTINUOUS
10
140.367
20
-76.4879
11
140.367
21
-76.4879
0
LINE
8
BLACK
6
CONTINUOUS
10
140.367
20
-76.4879
11
140.369
21
-76.4894
0
LINE
8
BLACK
6
CONTINUOUS
10
140.369
20
-76.4894
11
140.606
21
-76.6661
0
LINE
8
BLACK
6
CONTINUOUS
10
140.606
20
-76.6661
11
140.607
21
-76.6672
0
LINE
8
BLACK
6
CONTINUOUS
10
140.607
20
-76.6672
11
140.607
21
-76.6673
0
LINE
8
BLACK
6
CONTINUOUS
10
140.607
20
-76.6673
11
140.607
21
-76.6673
0
LINE
8
BLACK
6
CONTINUOUS
10
140.607
20
-76.6673
11
140.609
21
-76.6689
0
LINE
8
BLACK
6
CONTINUOUS
10
140.609
20
-76.6689
11
140.827
21
-76.8672
0
LINE
8
BLACK
6
CONTINUOUS
10
140.827
20
-76.8672
11
140.829
21
-76.8684
0
LINE
8
BLACK
6
CONTINUOUS
10
140.829
20
-76.8684
11
140.829
21
-76.8684
0
LINE
8
BLACK
6
CONTINUOUS
10
140.829
20
-76.8684
11
140.829
21
-76.8685
0
LINE
8
BLACK
6
CONTINUOUS
10
140.829
20
-76.8685
11
140.83
21
-76.8702
0
LINE
8
BLACK
6
CONTINUOUS
10
140.83
20
-76.8702
11
141.029
21
-77.0886
0
LINE
8
BLACK
6
CONTINUOUS
10
141.029
20
-77.0886
11
141.03
21
-77.0898
0
LINE
8
BLACK
6
CONTINUOUS
10
141.03
20
-77.0898
11
141.03
21
-77.0899
0
LINE
8
BLACK
6
CONTINUOUS
10
141.03
20
-77.0899
11
141.03
21
-77.0899
0
LINE
8
BLACK
6
CONTINUOUS
10
141.03
20
-77.0899
11
141.031
21
-77.0919
0
LINE
8
BLACK
6
CONTINUOUS
10
141.031
20
-77.0919
11
141.208
21
-77.3287
0
LINE
8
BLACK
6
CONTINUOUS
10
141.208
20
-77.3287
11
141.209
21
-77.33
0
LINE
8
BLACK
6
CONTINUOUS
10
141.209
20
-77.33
11
141.209
21
-77.33
0
LINE
8
BLACK
6
CONTINUOUS
10
141.209
20
-77.33
11
141.209
21
-77.33
0
LINE
8
BLACK
6
CONTINUOUS
10
141.209
20
-77.33
11
141.21
21
-77.3321
0
LINE
8
BLACK
6
CONTINUOUS
10
141.21
20
-77.3321
11
141.364
21
-77.586
0
LINE
8
BLACK
6
CONTINUOUS
10
141.364
20
-77.586
11
141.365
21
-77.5873
0
LINE
8
BLACK
6
CONTINUOUS
10
141.365
20
-77.5873
11
141.365
21
-77.5874
0
LINE
8
BLACK
6
CONTINUOUS
10
141.365
20
-77.5874
11
141.365
21
-77.5874
0
LINE
8
BLACK
6
CONTINUOUS
10
141.365
20
-77.5874
11
141.366
21
-77.5889
0
LINE
8
BLACK
6
CONTINUOUS
10
141.366
20
-77.5889
11
141.496
21
-77.8603
0
LINE
8
BLACK
6
CONTINUOUS
10
141.496
20
-77.8603
11
141.496
21
-77.8603
0
LINE
8
BLACK
6
CONTINUOUS
10
141.496
20
-77.8603
11
141.498
21
-77.8641
0
LINE
8
BLACK
6
CONTINUOUS
10
101.764
20
-76.0564
11
101.452
21
-76.072
0
LINE
8
BLACK
6
CONTINUOUS
10
101.452
20
-76.072
11
101.152
21
-76.1176
0
LINE
8
BLACK
6
CONTINUOUS
10
101.152
20
-76.1176
11
100.862
21
-76.1918
0
LINE
8
BLACK
6
CONTINUOUS
10
100.862
20
-76.1918
11
100.584
21
-76.2931
0
LINE
8
BLACK
6
CONTINUOUS
10
100.584
20
-76.2931
11
100.32
21
-76.42
0
LINE
8
BLACK
6
CONTINUOUS
10
100.32
20
-76.42
11
100.071
21
-76.5709
0
LINE
8
BLACK
6
CONTINUOUS
10
100.071
20
-76.5709
11
99.8382
21
-76.7445
0
LINE
8
BLACK
6
CONTINUOUS
10
99.8382
20
-76.7445
11
99.6238
21
-76.9392
0
LINE
8
BLACK
6
CONTINUOUS
10
99.6238
20
-76.9392
11
99.4291
21
-77.1535
0
LINE
8
BLACK
6
CONTINUOUS
10
99.4291
20
-77.1535
11
99.2554
21
-77.386
0
LINE
8
BLACK
6
CONTINUOUS
10
99.2554
20
-77.386
11
99.1044
21
-77.635
0
LINE
8
BLACK
6
CONTINUOUS
10
99.1044
20
-77.635
11
98.9775
21
-77.8992
0
LINE
8
BLACK
6
CONTINUOUS
10
98.9775
20
-77.8992
11
98.8762
21
-78.177
0
LINE
8
BLACK
6
CONTINUOUS
10
98.8762
20
-78.177
11
98.802
21
-78.467
0
LINE
8
BLACK
6
CONTINUOUS
10
98.802
20
-78.467
11
98.7563
21
-78.7676
0
LINE
8
BLACK
6
CONTINUOUS
10
98.7563
20
-78.7676
11
98.7407
21
-79.0787
0
LINE
8
BLACK
6
CONTINUOUS
10
98.7407
20
-79.0787
11
98.7407
21
-115.933
0
LINE
8
BLACK
6
CONTINUOUS
10
98.7407
20
-115.933
11
98.7563
21
-116.245
0
LINE
8
BLACK
6
CONTINUOUS
10
98.7563
20
-116.245
11
98.802
21
-116.545
0
LINE
8
BLACK
6
CONTINUOUS
10
98.802
20
-116.545
11
98.8762
21
-116.835
0
LINE
8
BLACK
6
CONTINUOUS
10
98.8762
20
-116.835
11
98.9775
21
-117.113
0
LINE
8
BLACK
6
CONTINUOUS
10
98.9775
20
-117.113
11
99.1044
21
-117.377
0
LINE
8
BLACK
6
CONTINUOUS
10
99.1044
20
-117.377
11
99.2554
21
-117.626
0
LINE
8
BLACK
6
CONTINUOUS
10
99.2554
20
-117.626
11
99.4291
21
-117.859
0
LINE
8
BLACK
6
CONTINUOUS
10
99.4291
20
-117.859
11
99.6238
21
-118.073
0
LINE
8
BLACK
6
CONTINUOUS
10
99.6238
20
-118.073
11
99.8382
21
-118.268
0
LINE
8
BLACK
6
CONTINUOUS
10
99.8382
20
-118.268
11
100.071
21
-118.442
0
LINE
8
BLACK
6
CONTINUOUS
10
100.071
20
-118.442
11
100.32
21
-118.593
0
LINE
8
BLACK
6
CONTINUOUS
10
100.32
20
-118.593
11
100.584
21
-118.72
0
LINE
8
BLACK
6
CONTINUOUS
10
100.584
20
-118.72
11
100.862
21
-118.821
0
LINE
8
BLACK
6
CONTINUOUS
10
100.862
20
-118.821
11
101.152
21
-118.895
0
LINE
8
BLACK
6
CONTINUOUS
10
101.152
20
-118.895
11
101.452
21
-118.941
0
LINE
8
BLACK
6
CONTINUOUS
10
101.452
20
-118.941
11
101.764
21
-118.956
0
LINE
8
BLACK
6
CONTINUOUS
10
101.764
20
-118.956
11
138.618
21
-118.956
0
LINE
8
BLACK
6
CONTINUOUS
10
138.618
20
-118.956
11
138.929
21
-118.941
0
LINE
8
BLACK
6
CONTINUOUS
10
138.929
20
-118.941
11
139.23
21
-118.895
0
LINE
8
BLACK
6
CONTINUOUS
10
139.23
20
-118.895
11
139.52
21
-118.821
0
LINE
8
BLACK
6
CONTINUOUS
10
139.52
20
-118.821
11
139.798
21
-118.72
0
LINE
8
BLACK
6
CONTINUOUS
10
139.798
20
-118.72
11
140.062
21
-118.593
0
LINE
8
BLACK
6
CONTINUOUS
10
140.062
20
-118.593
11
140.311
21
-118.442
0
LINE
8
BLACK
6
CONTINUOUS
10
140.311
20
-118.442
11
140.543
21
-118.268
0
LINE
8
BLACK
6
CONTINUOUS
10
140.543
20
-118.268
11
140.758
21
-118.073
0
LINE
8
BLACK
6
CONTINUOUS
10
140.758
20
-118.073
11
140.953
21
-117.859
0
LINE
8
BLACK
6
CONTINUOUS
10
140.953
20
-117.859
11
141.126
21
-117.626
0
LINE
8
BLACK
6
CONTINUOUS
10
141.126
20
-117.626
11
141.277
21
-117.377
0
LINE
8
BLACK
6
CONTINUOUS
10
141.277
20
-117.377
11
141.404
21
-117.113
0
LINE
8
BLACK
6
CONTINUOUS
10
141.404
20
-117.113
11
141.505
21
-116.835
0
LINE
8
BLACK
6
CONTINUOUS
10
141.505
20
-116.835
11
141.579
21
-116.545
0
LINE
8
BLACK
6
CONTINUOUS
10
141.579
20
-116.545
11
141.625
21
-116.245
0
LINE
8
BLACK
6
CONTINUOUS
10
141.625
20
-116.245
11
141.641
21
-115.933
0
LINE
8
BLACK
6
CONTINUOUS
10
141.641
20
-115.933
11
141.641
21
-79.0787
0
LINE
8
BLACK
6
CONTINUOUS
10
141.641
20
-79.0787
11
141.625
21
-78.7676
0
LINE
8
BLACK
6
CONTINUOUS
10
141.625
20
-78.7676
11
141.579
21
-78.467
0
LINE
8
BLACK
6
CONTINUOUS
10
141.579
20
-78.467
11
141.505
21
-78.177
0
LINE
8
BLACK
6
CONTINUOUS
10
141.505
20
-78.177
11
141.404
21
-77.8992
0
LINE
8
BLACK
6
CONTINUOUS
10
141.404
20
-77.8992
11
141.277
21
-77.635
0
LINE
8
BLACK
6
CONTINUOUS
10
141.277
20
-77.635
11
141.126
21
-77.386
0
LINE
8
BLACK
6
CONTINUOUS
10
141.126
20
-77.386
11
140.953
21
-77.1536
0
LINE
8
BLACK
6
CONTINUOUS
10
140.953
20
-77.1536
11
140.758
21
-76.9392
0
LINE
8
BLACK
6
CONTINUOUS
10
140.758
20
-76.9392
11
140.543
21
-76.7445
0
LINE
8
BLACK
6
CONTINUOUS
10
140.543
20
-76.7445
11
140.311
21
-76.5709
0
LINE
8
BLACK
6
CONTINUOUS
10
140.311
20
-76.5709
11
140.062
21
-76.42
0
LINE
8
BLACK
6
CONTINUOUS
10
140.062
20
-76.42
11
139.798
21
-76.2931
0
LINE
8
BLACK
6
CONTINUOUS
10
139.798
20
-76.2931
11
139.52
21
-76.1918
0
LINE
8
BLACK
6
CONTINUOUS
10
139.52
20
-76.1918
11
139.23
21
-76.1176
0
LINE
8
BLACK
6
CONTINUOUS
10
139.23
20
-76.1176
11
138.929
21
-76.072
0
LINE
8
BLACK
6
CONTINUOUS
10
138.929
20
-76.072
11
138.618
21
-76.0564
0
LINE
8
BLACK
6
CONTINUOUS
10
138.618
20
-76.0564
11
101.764
21
-76.0564
0
LINE
8
BLACK
6
CONTINUOUS
10
138.948
20
-114.706
11
138.951
21
-114.707
0
LINE
8
BLACK
6
CONTINUOUS
10
138.951
20
-114.707
11
138.951
21
-114.707
0
LINE
8
BLACK
6
CONTINUOUS
10
138.951
20
-114.707
11
139.237
21
-114.735
0
LINE
8
BLACK
6
CONTINUOUS
10
139.237
20
-114.735
11
139.24
21
-114.735
0
LINE
8
BLACK
6
CONTINUOUS
10
139.24
20
-114.735
11
139.247
21
-114.736
0
LINE
8
BLACK
6
CONTINUOUS
10
139.247
20
-114.736
11
139.25
21
-114.737
0
LINE
8
BLACK
6
CONTINUOUS
10
139.25
20
-114.737
11
139.252
21
-114.738
0
LINE
8
BLACK
6
CONTINUOUS
10
139.252
20
-114.738
11
139.527
21
-114.822
0
LINE
8
BLACK
6
CONTINUOUS
10
139.527
20
-114.822
11
139.53
21
-114.822
0
LINE
8
BLACK
6
CONTINUOUS
10
139.53
20
-114.822
11
139.532
21
-114.823
0
LINE
8
BLACK
6
CONTINUOUS
10
139.532
20
-114.823
11
139.532
21
-114.823
0
LINE
8
BLACK
6
CONTINUOUS
10
139.532
20
-114.823
11
139.535
21
-114.824
0
LINE
8
BLACK
6
CONTINUOUS
10
139.535
20
-114.824
11
139.536
21
-114.825
0
LINE
8
BLACK
6
CONTINUOUS
10
139.536
20
-114.825
11
139.536
21
-114.825
0
LINE
8
BLACK
6
CONTINUOUS
10
139.536
20
-114.825
11
139.539
21
-114.826
0
LINE
8
BLACK
6
CONTINUOUS
10
139.539
20
-114.826
11
139.541
21
-114.827
0
LINE
8
BLACK
6
CONTINUOUS
10
139.541
20
-114.827
11
139.795
21
-114.963
0
LINE
8
BLACK
6
CONTINUOUS
10
139.795
20
-114.963
11
139.797
21
-114.964
0
LINE
8
BLACK
6
CONTINUOUS
10
139.797
20
-114.964
11
139.799
21
-114.965
0
LINE
8
BLACK
6
CONTINUOUS
10
139.799
20
-114.965
11
139.799
21
-114.965
0
LINE
8
BLACK
6
CONTINUOUS
10
139.799
20
-114.965
11
139.805
21
-114.969
0
LINE
8
BLACK
6
CONTINUOUS
10
139.805
20
-114.969
11
139.807
21
-114.971
0
LINE
8
BLACK
6
CONTINUOUS
10
139.807
20
-114.971
11
140.032
21
-115.155
0
LINE
8
BLACK
6
CONTINUOUS
10
140.032
20
-115.155
11
140.034
21
-115.156
0
LINE
8
BLACK
6
CONTINUOUS
10
140.034
20
-115.156
11
140.037
21
-115.159
0
LINE
8
BLACK
6
CONTINUOUS
10
140.037
20
-115.159
11
140.041
21
-115.163
0
LINE
8
BLACK
6
CONTINUOUS
10
140.041
20
-115.163
11
140.042
21
-115.165
0
LINE
8
BLACK
6
CONTINUOUS
10
140.042
20
-115.165
11
140.226
21
-115.39
0
LINE
8
BLACK
6
CONTINUOUS
10
140.226
20
-115.39
11
140.228
21
-115.392
0
LINE
8
BLACK
6
CONTINUOUS
10
140.228
20
-115.392
11
140.229
21
-115.394
0
LINE
8
BLACK
6
CONTINUOUS
10
140.229
20
-115.394
11
140.229
21
-115.394
0
LINE
8
BLACK
6
CONTINUOUS
10
140.229
20
-115.394
11
140.233
21
-115.4
0
LINE
8
BLACK
6
CONTINUOUS
10
140.233
20
-115.4
11
140.234
21
-115.402
0
LINE
8
BLACK
6
CONTINUOUS
10
140.234
20
-115.402
11
140.37
21
-115.656
0
LINE
8
BLACK
6
CONTINUOUS
10
140.37
20
-115.656
11
140.371
21
-115.658
0
LINE
8
BLACK
6
CONTINUOUS
10
140.371
20
-115.658
11
140.372
21
-115.661
0
LINE
8
BLACK
6
CONTINUOUS
10
140.372
20
-115.661
11
140.372
21
-115.661
0
LINE
8
BLACK
6
CONTINUOUS
10
140.372
20
-115.661
11
140.373
21
-115.663
0
LINE
8
BLACK
6
CONTINUOUS
10
140.373
20
-115.663
11
140.374
21
-115.665
0
LINE
8
BLACK
6
CONTINUOUS
10
140.374
20
-115.665
11
140.374
21
-115.665
0
LINE
8
BLACK
6
CONTINUOUS
10
140.374
20
-115.665
11
140.375
21
-115.667
0
LINE
8
BLACK
6
CONTINUOUS
10
140.375
20
-115.667
11
140.376
21
-115.67
0
LINE
8
BLACK
6
CONTINUOUS
10
140.376
20
-115.67
11
140.459
21
-115.945
0
LINE
8
BLACK
6
CONTINUOUS
10
140.459
20
-115.945
11
140.46
21
-115.947
0
LINE
8
BLACK
6
CONTINUOUS
10
140.46
20
-115.947
11
140.461
21
-115.95
0
LINE
8
BLACK
6
CONTINUOUS
10
140.461
20
-115.95
11
140.462
21
-115.957
0
LINE
8
BLACK
6
CONTINUOUS
10
140.462
20
-115.957
11
140.462
21
-115.96
0
LINE
8
BLACK
6
CONTINUOUS
10
140.462
20
-115.96
11
140.491
21
-116.249
0
LINE
8
BLACK
6
CONTINUOUS
10
140.491
20
-116.249
11
140.491
21
-116.251
0
LINE
8
BLACK
6
CONTINUOUS
10
140.491
20
-116.251
11
140.491
21
-116.256
0
LINE
8
BLACK
6
CONTINUOUS
10
140.491
20
-116.256
11
140.491
21
-116.261
0
LINE
8
BLACK
6
CONTINUOUS
10
140.491
20
-116.261
11
140.491
21
-116.263
0
LINE
8
BLACK
6
CONTINUOUS
10
140.491
20
-116.263
11
140.462
21
-116.553
0
LINE
8
BLACK
6
CONTINUOUS
10
140.462
20
-116.553
11
140.462
21
-116.555
0
LINE
8
BLACK
6
CONTINUOUS
10
140.462
20
-116.555
11
140.461
21
-116.558
0
LINE
8
BLACK
6
CONTINUOUS
10
140.461
20
-116.558
11
140.46
21
-116.565
0
LINE
8
BLACK
6
CONTINUOUS
10
140.46
20
-116.565
11
140.459
21
-116.567
0
LINE
8
BLACK
6
CONTINUOUS
10
140.459
20
-116.567
11
140.376
21
-116.842
0
LINE
8
BLACK
6
CONTINUOUS
10
140.376
20
-116.842
11
140.375
21
-116.845
0
LINE
8
BLACK
6
CONTINUOUS
10
140.375
20
-116.845
11
140.374
21
-116.847
0
LINE
8
BLACK
6
CONTINUOUS
10
140.374
20
-116.847
11
140.374
21
-116.847
0
LINE
8
BLACK
6
CONTINUOUS
10
140.374
20
-116.847
11
140.373
21
-116.849
0
LINE
8
BLACK
6
CONTINUOUS
10
140.373
20
-116.849
11
140.372
21
-116.852
0
LINE
8
BLACK
6
CONTINUOUS
10
140.372
20
-116.852
11
140.372
21
-116.852
0
LINE
8
BLACK
6
CONTINUOUS
10
140.372
20
-116.852
11
140.371
21
-116.854
0
LINE
8
BLACK
6
CONTINUOUS
10
140.371
20
-116.854
11
140.37
21
-116.856
0
LINE
8
BLACK
6
CONTINUOUS
10
140.37
20
-116.856
11
140.234
21
-117.11
0
LINE
8
BLACK
6
CONTINUOUS
10
140.234
20
-117.11
11
140.233
21
-117.112
0
LINE
8
BLACK
6
CONTINUOUS
10
140.233
20
-117.112
11
140.229
21
-117.118
0
LINE
8
BLACK
6
CONTINUOUS
10
140.229
20
-117.118
11
140.228
21
-117.12
0
LINE
8
BLACK
6
CONTINUOUS
10
140.228
20
-117.12
11
140.226
21
-117.122
0
LINE
8
BLACK
6
CONTINUOUS
10
140.226
20
-117.122
11
140.042
21
-117.347
0
LINE
8
BLACK
6
CONTINUOUS
10
140.042
20
-117.347
11
140.041
21
-117.349
0
LINE
8
BLACK
6
CONTINUOUS
10
140.041
20
-117.349
11
140.037
21
-117.353
0
LINE
8
BLACK
6
CONTINUOUS
10
140.037
20
-117.353
11
140.034
21
-117.356
0
LINE
8
BLACK
6
CONTINUOUS
10
140.034
20
-117.356
11
140.032
21
-117.357
0
LINE
8
BLACK
6
CONTINUOUS
10
140.032
20
-117.357
11
139.807
21
-117.541
0
LINE
8
BLACK
6
CONTINUOUS
10
139.807
20
-117.541
11
139.805
21
-117.543
0
LINE
8
BLACK
6
CONTINUOUS
10
139.805
20
-117.543
11
139.799
21
-117.547
0
LINE
8
BLACK
6
CONTINUOUS
10
139.799
20
-117.547
11
139.799
21
-117.547
0
LINE
8
BLACK
6
CONTINUOUS
10
139.799
20
-117.547
11
139.797
21
-117.549
0
LINE
8
BLACK
6
CONTINUOUS
10
139.797
20
-117.549
11
139.795
21
-117.55
0
LINE
8
BLACK
6
CONTINUOUS
10
139.795
20
-117.55
11
139.541
21
-117.685
0
LINE
8
BLACK
6
CONTINUOUS
10
139.541
20
-117.685
11
139.539
21
-117.686
0
LINE
8
BLACK
6
CONTINUOUS
10
139.539
20
-117.686
11
139.536
21
-117.687
0
LINE
8
BLACK
6
CONTINUOUS
10
139.536
20
-117.687
11
139.536
21
-117.687
0
LINE
8
BLACK
6
CONTINUOUS
10
139.536
20
-117.687
11
139.535
21
-117.688
0
LINE
8
BLACK
6
CONTINUOUS
10
139.535
20
-117.688
11
139.532
21
-117.689
0
LINE
8
BLACK
6
CONTINUOUS
10
139.532
20
-117.689
11
139.532
21
-117.689
0
LINE
8
BLACK
6
CONTINUOUS
10
139.532
20
-117.689
11
139.53
21
-117.69
0
LINE
8
BLACK
6
CONTINUOUS
10
139.53
20
-117.69
11
139.527
21
-117.691
0
LINE
8
BLACK
6
CONTINUOUS
10
139.527
20
-117.691
11
139.252
21
-117.774
0
LINE
8
BLACK
6
CONTINUOUS
10
139.252
20
-117.774
11
139.25
21
-117.775
0
LINE
8
BLACK
6
CONTINUOUS
10
139.25
20
-117.775
11
139.247
21
-117.776
0
LINE
8
BLACK
6
CONTINUOUS
10
139.247
20
-117.776
11
139.24
21
-117.777
0
LINE
8
BLACK
6
CONTINUOUS
10
139.24
20
-117.777
11
139.237
21
-117.777
0
LINE
8
BLACK
6
CONTINUOUS
10
139.237
20
-117.777
11
138.948
21
-117.806
0
LINE
8
BLACK
6
CONTINUOUS
10
138.948
20
-117.806
11
138.946
21
-117.806
0
LINE
8
BLACK
6
CONTINUOUS
10
138.946
20
-117.806
11
138.941
21
-117.806
0
LINE
8
BLACK
6
CONTINUOUS
10
138.941
20
-117.806
11
138.936
21
-117.806
0
LINE
8
BLACK
6
CONTINUOUS
10
138.936
20
-117.806
11
138.934
21
-117.806
0
LINE
8
BLACK
6
CONTINUOUS
10
138.934
20
-117.806
11
138.644
21
-117.777
0
LINE
8
BLACK
6
CONTINUOUS
10
138.644
20
-117.777
11
138.642
21
-117.777
0
LINE
8
BLACK
6
CONTINUOUS
10
138.642
20
-117.777
11
138.635
21
-117.776
0
LINE
8
BLACK
6
CONTINUOUS
10
138.635
20
-117.776
11
138.635
21
-117.776
0
LINE
8
BLACK
6
CONTINUOUS
10
138.635
20
-117.776
11
138.632
21
-117.775
0
LINE
8
BLACK
6
CONTINUOUS
10
138.632
20
-117.775
11
138.63
21
-117.774
0
LINE
8
BLACK
6
CONTINUOUS
10
138.63
20
-117.774
11
138.355
21
-117.691
0
LINE
8
BLACK
6
CONTINUOUS
10
138.355
20
-117.691
11
138.352
21
-117.69
0
LINE
8
BLACK
6
CONTINUOUS
10
138.352
20
-117.69
11
138.35
21
-117.689
0
LINE
8
BLACK
6
CONTINUOUS
10
138.35
20
-117.689
11
138.35
21
-117.689
0
LINE
8
BLACK
6
CONTINUOUS
10
138.35
20
-117.689
11
138.348
21
-117.689
0
LINE
8
BLACK
6
CONTINUOUS
10
138.348
20
-117.689
11
138.345
21
-117.687
0
LINE
8
BLACK
6
CONTINUOUS
10
138.345
20
-117.687
11
138.345
21
-117.687
0
LINE
8
BLACK
6
CONTINUOUS
10
138.345
20
-117.687
11
138.343
21
-117.686
0
LINE
8
BLACK
6
CONTINUOUS
10
138.343
20
-117.686
11
138.341
21
-117.685
0
LINE
8
BLACK
6
CONTINUOUS
10
138.341
20
-117.685
11
138.087
21
-117.55
0
LINE
8
BLACK
6
CONTINUOUS
10
138.087
20
-117.55
11
138.085
21
-117.549
0
LINE
8
BLACK
6
CONTINUOUS
10
138.085
20
-117.549
11
138.079
21
-117.544
0
LINE
8
BLACK
6
CONTINUOUS
10
138.079
20
-117.544
11
138.079
21
-117.544
0
LINE
8
BLACK
6
CONTINUOUS
10
138.079
20
-117.544
11
138.077
21
-117.543
0
LINE
8
BLACK
6
CONTINUOUS
10
138.077
20
-117.543
11
138.075
21
-117.541
0
LINE
8
BLACK
6
CONTINUOUS
10
138.075
20
-117.541
11
137.85
21
-117.357
0
LINE
8
BLACK
6
CONTINUOUS
10
137.85
20
-117.357
11
137.848
21
-117.356
0
LINE
8
BLACK
6
CONTINUOUS
10
137.848
20
-117.356
11
137.844
21
-117.352
0
LINE
8
BLACK
6
CONTINUOUS
10
137.844
20
-117.352
11
137.841
21
-117.349
0
LINE
8
BLACK
6
CONTINUOUS
10
137.841
20
-117.349
11
137.84
21
-117.347
0
LINE
8
BLACK
6
CONTINUOUS
10
137.84
20
-117.347
11
137.656
21
-117.122
0
LINE
8
BLACK
6
CONTINUOUS
10
137.656
20
-117.122
11
137.654
21
-117.12
0
LINE
8
BLACK
6
CONTINUOUS
10
137.654
20
-117.12
11
137.65
21
-117.114
0
LINE
8
BLACK
6
CONTINUOUS
10
137.65
20
-117.114
11
137.65
21
-117.114
0
LINE
8
BLACK
6
CONTINUOUS
10
137.65
20
-117.114
11
137.648
21
-117.112
0
LINE
8
BLACK
6
CONTINUOUS
10
137.648
20
-117.112
11
137.648
21
-117.11
0
LINE
8
BLACK
6
CONTINUOUS
10
137.648
20
-117.11
11
137.512
21
-116.856
0
LINE
8
BLACK
6
CONTINUOUS
10
137.512
20
-116.856
11
137.511
21
-116.854
0
LINE
8
BLACK
6
CONTINUOUS
10
137.511
20
-116.854
11
137.51
21
-116.852
0
LINE
8
BLACK
6
CONTINUOUS
10
137.51
20
-116.852
11
137.51
21
-116.852
0
LINE
8
BLACK
6
CONTINUOUS
10
137.51
20
-116.852
11
137.509
21
-116.85
0
LINE
8
BLACK
6
CONTINUOUS
10
137.509
20
-116.85
11
137.508
21
-116.847
0
LINE
8
BLACK
6
CONTINUOUS
10
137.508
20
-116.847
11
137.508
21
-116.847
0
LINE
8
BLACK
6
CONTINUOUS
10
137.508
20
-116.847
11
137.507
21
-116.845
0
LINE
8
BLACK
6
CONTINUOUS
10
137.507
20
-116.845
11
137.506
21
-116.842
0
LINE
8
BLACK
6
CONTINUOUS
10
137.506
20
-116.842
11
137.423
21
-116.567
0
LINE
8
BLACK
6
CONTINUOUS
10
137.423
20
-116.567
11
137.422
21
-116.565
0
LINE
8
BLACK
6
CONTINUOUS
10
137.422
20
-116.565
11
137.42
21
-116.557
0
LINE
8
BLACK
6
CONTINUOUS
10
137.42
20
-116.557
11
137.42
21
-116.555
0
LINE
8
BLACK
6
CONTINUOUS
10
137.42
20
-116.555
11
137.42
21
-116.553
0
LINE
8
BLACK
6
CONTINUOUS
10
137.42
20
-116.553
11
137.391
21
-116.263
0
LINE
8
BLACK
6
CONTINUOUS
10
137.391
20
-116.263
11
137.391
21
-116.261
0
LINE
8
BLACK
6
CONTINUOUS
10
137.391
20
-116.261
11
137.391
21
-116.256
0
LINE
8
BLACK
6
CONTINUOUS
10
137.391
20
-116.256
11
137.391
21
-116.251
0
LINE
8
BLACK
6
CONTINUOUS
10
137.391
20
-116.251
11
137.391
21
-116.249
0
LINE
8
BLACK
6
CONTINUOUS
10
137.391
20
-116.249
11
137.42
21
-115.96
0
LINE
8
BLACK
6
CONTINUOUS
10
137.42
20
-115.96
11
137.42
21
-115.957
0
LINE
8
BLACK
6
CONTINUOUS
10
137.42
20
-115.957
11
137.421
21
-115.95
0
LINE
8
BLACK
6
CONTINUOUS
10
137.421
20
-115.95
11
137.422
21
-115.947
0
LINE
8
BLACK
6
CONTINUOUS
10
137.422
20
-115.947
11
137.423
21
-115.945
0
LINE
8
BLACK
6
CONTINUOUS
10
137.423
20
-115.945
11
137.506
21
-115.67
0
LINE
8
BLACK
6
CONTINUOUS
10
137.506
20
-115.67
11
137.507
21
-115.667
0
LINE
8
BLACK
6
CONTINUOUS
10
137.507
20
-115.667
11
137.508
21
-115.665
0
LINE
8
BLACK
6
CONTINUOUS
10
137.508
20
-115.665
11
137.508
21
-115.665
0
LINE
8
BLACK
6
CONTINUOUS
10
137.508
20
-115.665
11
137.509
21
-115.662
0
LINE
8
BLACK
6
CONTINUOUS
10
137.509
20
-115.662
11
137.51
21
-115.661
0
LINE
8
BLACK
6
CONTINUOUS
10
137.51
20
-115.661
11
137.51
21
-115.661
0
LINE
8
BLACK
6
CONTINUOUS
10
137.51
20
-115.661
11
137.511
21
-115.658
0
LINE
8
BLACK
6
CONTINUOUS
10
137.511
20
-115.658
11
137.512
21
-115.656
0
LINE
8
BLACK
6
CONTINUOUS
10
137.512
20
-115.656
11
137.648
21
-115.402
0
LINE
8
BLACK
6
CONTINUOUS
10
137.648
20
-115.402
11
137.648
21
-115.4
0
LINE
8
BLACK
6
CONTINUOUS
10
137.648
20
-115.4
11
137.65
21
-115.398
0
LINE
8
BLACK
6
CONTINUOUS
10
137.65
20
-115.398
11
137.654
21
-115.392
0
LINE
8
BLACK
6
CONTINUOUS
10
137.654
20
-115.392
11
137.656
21
-115.39
0
LINE
8
BLACK
6
CONTINUOUS
10
137.656
20
-115.39
11
137.84
21
-115.165
0
LINE
8
BLACK
6
CONTINUOUS
10
137.84
20
-115.165
11
137.841
21
-115.163
0
LINE
8
BLACK
6
CONTINUOUS
10
137.841
20
-115.163
11
137.845
21
-115.16
0
LINE
8
BLACK
6
CONTINUOUS
10
137.845
20
-115.16
11
137.848
21
-115.156
0
LINE
8
BLACK
6
CONTINUOUS
10
137.848
20
-115.156
11
137.85
21
-115.155
0
LINE
8
BLACK
6
CONTINUOUS
10
137.85
20
-115.155
11
138.075
21
-114.971
0
LINE
8
BLACK
6
CONTINUOUS
10
138.075
20
-114.971
11
138.077
21
-114.969
0
LINE
8
BLACK
6
CONTINUOUS
10
138.077
20
-114.969
11
138.079
21
-114.968
0
LINE
8
BLACK
6
CONTINUOUS
10
138.079
20
-114.968
11
138.079
21
-114.968
0
LINE
8
BLACK
6
CONTINUOUS
10
138.079
20
-114.968
11
138.085
21
-114.964
0
LINE
8
BLACK
6
CONTINUOUS
10
138.085
20
-114.964
11
138.087
21
-114.963
0
LINE
8
BLACK
6
CONTINUOUS
10
138.087
20
-114.963
11
138.341
21
-114.827
0
LINE
8
BLACK
6
CONTINUOUS
10
138.341
20
-114.827
11
138.343
21
-114.826
0
LINE
8
BLACK
6
CONTINUOUS
10
138.343
20
-114.826
11
138.345
21
-114.825
0
LINE
8
BLACK
6
CONTINUOUS
10
138.345
20
-114.825
11
138.345
21
-114.825
0
LINE
8
BLACK
6
CONTINUOUS
10
138.345
20
-114.825
11
138.348
21
-114.824
0
LINE
8
BLACK
6
CONTINUOUS
10
138.348
20
-114.824
11
138.35
21
-114.823
0
LINE
8
BLACK
6
CONTINUOUS
10
138.35
20
-114.823
11
138.35
21
-114.823
0
LINE
8
BLACK
6
CONTINUOUS
10
138.35
20
-114.823
11
138.352
21
-114.822
0
LINE
8
BLACK
6
CONTINUOUS
10
138.352
20
-114.822
11
138.355
21
-114.822
0
LINE
8
BLACK
6
CONTINUOUS
10
138.355
20
-114.822
11
138.63
21
-114.738
0
LINE
8
BLACK
6
CONTINUOUS
10
138.63
20
-114.738
11
138.632
21
-114.737
0
LINE
8
BLACK
6
CONTINUOUS
10
138.632
20
-114.737
11
138.635
21
-114.736
0
LINE
8
BLACK
6
CONTINUOUS
10
138.635
20
-114.736
11
138.635
21
-114.736
0
LINE
8
BLACK
6
CONTINUOUS
10
138.635
20
-114.736
11
138.642
21
-114.735
0
LINE
8
BLACK
6
CONTINUOUS
10
138.642
20
-114.735
11
138.644
21
-114.735
0
LINE
8
BLACK
6
CONTINUOUS
10
138.644
20
-114.735
11
138.931
21
-114.707
0
LINE
8
BLACK
6
CONTINUOUS
10
138.931
20
-114.707
11
138.931
21
-114.707
0
LINE
8
BLACK
6
CONTINUOUS
10
138.931
20
-114.707
11
138.934
21
-114.706
0
LINE
8
BLACK
6
CONTINUOUS
10
138.934
20
-114.706
11
138.936
21
-114.706
0
LINE
8
BLACK
6
CONTINUOUS
10
138.936
20
-114.706
11
138.939
21
-114.706
0
LINE
8
BLACK
6
CONTINUOUS
10
138.939
20
-114.706
11
138.943
21
-114.706
0
LINE
8
BLACK
6
CONTINUOUS
10
138.943
20
-114.706
11
138.946
21
-114.706
0
LINE
8
BLACK
6
CONTINUOUS
10
138.946
20
-114.706
11
138.948
21
-114.706
0
LINE
8
BLACK
6
CONTINUOUS
10
138.657
20
-114.834
11
138.386
21
-114.916
0
LINE
8
BLACK
6
CONTINUOUS
10
138.386
20
-114.916
11
138.137
21
-115.05
0
LINE
8
BLACK
6
CONTINUOUS
10
138.137
20
-115.05
11
137.916
21
-115.231
0
LINE
8
BLACK
6
CONTINUOUS
10
137.916
20
-115.231
11
137.735
21
-115.452
0
LINE
8
BLACK
6
CONTINUOUS
10
137.735
20
-115.452
11
137.601
21
-115.701
0
LINE
8
BLACK
6
CONTINUOUS
10
137.601
20
-115.701
11
137.519
21
-115.972
0
LINE
8
BLACK
6
CONTINUOUS
10
137.519
20
-115.972
11
137.491
21
-116.256
0
LINE
8
BLACK
6
CONTINUOUS
10
137.491
20
-116.256
11
137.519
21
-116.54
0
LINE
8
BLACK
6
CONTINUOUS
10
137.519
20
-116.54
11
137.601
21
-116.811
0
LINE
8
BLACK
6
CONTINUOUS
10
137.601
20
-116.811
11
137.735
21
-117.061
0
LINE
8
BLACK
6
CONTINUOUS
10
137.735
20
-117.061
11
137.916
21
-117.281
0
LINE
8
BLACK
6
CONTINUOUS
10
137.916
20
-117.281
11
138.137
21
-117.462
0
LINE
8
BLACK
6
CONTINUOUS
10
138.137
20
-117.462
11
138.386
21
-117.596
0
LINE
8
BLACK
6
CONTINUOUS
10
138.386
20
-117.596
11
138.657
21
-117.678
0
LINE
8
BLACK
6
CONTINUOUS
10
138.657
20
-117.678
11
138.941
21
-117.706
0
LINE
8
BLACK
6
CONTINUOUS
10
138.941
20
-117.706
11
139.225
21
-117.678
0
LINE
8
BLACK
6
CONTINUOUS
10
139.225
20
-117.678
11
139.496
21
-117.596
0
LINE
8
BLACK
6
CONTINUOUS
10
139.496
20
-117.596
11
139.745
21
-117.462
0
LINE
8
BLACK
6
CONTINUOUS
10
139.745
20
-117.462
11
139.966
21
-117.281
0
LINE
8
BLACK
6
CONTINUOUS
10
139.966
20
-117.281
11
140.147
21
-117.061
0
LINE
8
BLACK
6
CONTINUOUS
10
140.147
20
-117.061
11
140.281
21
-116.811
0
LINE
8
BLACK
6
CONTINUOUS
10
140.281
20
-116.811
11
140.363
21
-116.54
0
LINE
8
BLACK
6
CONTINUOUS
10
140.363
20
-116.54
11
140.391
21
-116.256
0
LINE
8
BLACK
6
CONTINUOUS
10
140.391
20
-116.256
11
140.363
21
-115.972
0
LINE
8
BLACK
6
CONTINUOUS
10
140.363
20
-115.972
11
140.281
21
-115.701
0
LINE
8
BLACK
6
CONTINUOUS
10
140.281
20
-115.701
11
140.147
21
-115.452
0
LINE
8
BLACK
6
CONTINUOUS
10
140.147
20
-115.452
11
139.966
21
-115.231
0
LINE
8
BLACK
6
CONTINUOUS
10
139.966
20
-115.231
11
139.745
21
-115.05
0
LINE
8
BLACK
6
CONTINUOUS
10
139.745
20
-115.05
11
139.496
21
-114.916
0
LINE
8
BLACK
6
CONTINUOUS
10
139.496
20
-114.916
11
139.225
21
-114.834
0
LINE
8
BLACK
6
CONTINUOUS
10
139.225
20
-114.834
11
138.941
21
-114.806
0
LINE
8
BLACK
6
CONTINUOUS
10
138.941
20
-114.806
11
138.657
21
-114.834
0
LINE
8
BLACK
6
CONTINUOUS
10
101.448
20
-114.706
11
101.451
21
-114.707
0
LINE
8
BLACK
6
CONTINUOUS
10
101.451
20
-114.707
11
101.451
21
-114.707
0
LINE
8
BLACK
6
CONTINUOUS
10
101.451
20
-114.707
11
101.737
21
-114.735
0
LINE
8
BLACK
6
CONTINUOUS
10
101.737
20
-114.735
11
101.74
21
-114.735
0
LINE
8
BLACK
6
CONTINUOUS
10
101.74
20
-114.735
11
101.746
21
-114.736
0
LINE
8
BLACK
6
CONTINUOUS
10
101.746
20
-114.736
11
101.75
21
-114.737
0
LINE
8
BLACK
6
CONTINUOUS
10
101.75
20
-114.737
11
101.752
21
-114.738
0
LINE
8
BLACK
6
CONTINUOUS
10
101.752
20
-114.738
11
102.027
21
-114.822
0
LINE
8
BLACK
6
CONTINUOUS
10
102.027
20
-114.822
11
102.03
21
-114.822
0
LINE
8
BLACK
6
CONTINUOUS
10
102.03
20
-114.822
11
102.032
21
-114.823
0
LINE
8
BLACK
6
CONTINUOUS
10
102.032
20
-114.823
11
102.032
21
-114.823
0
LINE
8
BLACK
6
CONTINUOUS
10
102.032
20
-114.823
11
102.035
21
-114.824
0
LINE
8
BLACK
6
CONTINUOUS
10
102.035
20
-114.824
11
102.036
21
-114.825
0
LINE
8
BLACK
6
CONTINUOUS
10
102.036
20
-114.825
11
102.036
21
-114.825
0
LINE
8
BLACK
6
CONTINUOUS
10
102.036
20
-114.825
11
102.039
21
-114.826
0
LINE
8
BLACK
6
CONTINUOUS
10
102.039
20
-114.826
11
102.041
21
-114.827
0
LINE
8
BLACK
6
CONTINUOUS
10
102.041
20
-114.827
11
102.295
21
-114.963
0
LINE
8
BLACK
6
CONTINUOUS
10
102.295
20
-114.963
11
102.297
21
-114.964
0
LINE
8
BLACK
6
CONTINUOUS
10
102.297
20
-114.964
11
102.299
21
-114.965
0
LINE
8
BLACK
6
CONTINUOUS
10
102.299
20
-114.965
11
102.299
21
-114.965
0
LINE
8
BLACK
6
CONTINUOUS
10
102.299
20
-114.965
11
102.305
21
-114.969
0
LINE
8
BLACK
6
CONTINUOUS
10
102.305
20
-114.969
11
102.307
21
-114.971
0
LINE
8
BLACK
6
CONTINUOUS
10
102.307
20
-114.971
11
102.532
21
-115.155
0
LINE
8
BLACK
6
CONTINUOUS
10
102.532
20
-115.155
11
102.534
21
-115.156
0
LINE
8
BLACK
6
CONTINUOUS
10
102.534
20
-115.156
11
102.537
21
-115.16
0
LINE
8
BLACK
6
CONTINUOUS
10
102.537
20
-115.16
11
102.541
21
-115.163
0
LINE
8
BLACK
6
CONTINUOUS
10
102.541
20
-115.163
11
102.542
21
-115.165
0
LINE
8
BLACK
6
CONTINUOUS
10
102.542
20
-115.165
11
102.726
21
-115.39
0
LINE
8
BLACK
6
CONTINUOUS
10
102.726
20
-115.39
11
102.728
21
-115.392
0
LINE
8
BLACK
6
CONTINUOUS
10
102.728
20
-115.392
11
102.729
21
-115.394
0
LINE
8
BLACK
6
CONTINUOUS
10
102.729
20
-115.394
11
102.729
21
-115.394
0
LINE
8
BLACK
6
CONTINUOUS
10
102.729
20
-115.394
11
102.733
21
-115.4
0
LINE
8
BLACK
6
CONTINUOUS
10
102.733
20
-115.4
11
102.734
21
-115.402
0
LINE
8
BLACK
6
CONTINUOUS
10
102.734
20
-115.402
11
102.87
21
-115.656
0
LINE
8
BLACK
6
CONTINUOUS
10
102.87
20
-115.656
11
102.871
21
-115.658
0
LINE
8
BLACK
6
CONTINUOUS
10
102.871
20
-115.658
11
102.872
21
-115.661
0
LINE
8
BLACK
6
CONTINUOUS
10
102.872
20
-115.661
11
102.872
21
-115.661
0
LINE
8
BLACK
6
CONTINUOUS
10
102.872
20
-115.661
11
102.873
21
-115.663
0
LINE
8
BLACK
6
CONTINUOUS
10
102.873
20
-115.663
11
102.874
21
-115.665
0
LINE
8
BLACK
6
CONTINUOUS
10
102.874
20
-115.665
11
102.874
21
-115.665
0
LINE
8
BLACK
6
CONTINUOUS
10
102.874
20
-115.665
11
102.875
21
-115.667
0
LINE
8
BLACK
6
CONTINUOUS
10
102.875
20
-115.667
11
102.876
21
-115.67
0
LINE
8
BLACK
6
CONTINUOUS
10
102.876
20
-115.67
11
102.959
21
-115.945
0
LINE
8
BLACK
6
CONTINUOUS
10
102.959
20
-115.945
11
102.96
21
-115.947
0
LINE
8
BLACK
6
CONTINUOUS
10
102.96
20
-115.947
11
102.961
21
-115.95
0
LINE
8
BLACK
6
CONTINUOUS
10
102.961
20
-115.95
11
102.961
21
-115.95
0
LINE
8
BLACK
6
CONTINUOUS
10
102.961
20
-115.95
11
102.962
21
-115.957
0
LINE
8
BLACK
6
CONTINUOUS
10
102.962
20
-115.957
11
102.962
21
-115.96
0
LINE
8
BLACK
6
CONTINUOUS
10
102.962
20
-115.96
11
102.991
21
-116.249
0
LINE
8
BLACK
6
CONTINUOUS
10
102.991
20
-116.249
11
102.991
21
-116.251
0
LINE
8
BLACK
6
CONTINUOUS
10
102.991
20
-116.251
11
102.991
21
-116.256
0
LINE
8
BLACK
6
CONTINUOUS
10
102.991
20
-116.256
11
102.991
21
-116.261
0
LINE
8
BLACK
6
CONTINUOUS
10
102.991
20
-116.261
11
102.991
21
-116.263
0
LINE
8
BLACK
6
CONTINUOUS
10
102.991
20
-116.263
11
102.962
21
-116.553
0
LINE
8
BLACK
6
CONTINUOUS
10
102.962
20
-116.553
11
102.962
21
-116.555
0
LINE
8
BLACK
6
CONTINUOUS
10
102.962
20
-116.555
11
102.961
21
-116.562
0
LINE
8
BLACK
6
CONTINUOUS
10
102.961
20
-116.562
11
102.96
21
-116.565
0
LINE
8
BLACK
6
CONTINUOUS
10
102.96
20
-116.565
11
102.959
21
-116.567
0
LINE
8
BLACK
6
CONTINUOUS
10
102.959
20
-116.567
11
102.876
21
-116.842
0
LINE
8
BLACK
6
CONTINUOUS
10
102.876
20
-116.842
11
102.875
21
-116.845
0
LINE
8
BLACK
6
CONTINUOUS
10
102.875
20
-116.845
11
102.874
21
-116.847
0
LINE
8
BLACK
6
CONTINUOUS
10
102.874
20
-116.847
11
102.874
21
-116.847
0
LINE
8
BLACK
6
CONTINUOUS
10
102.874
20
-116.847
11
102.873
21
-116.849
0
LINE
8
BLACK
6
CONTINUOUS
10
102.873
20
-116.849
11
102.872
21
-116.852
0
LINE
8
BLACK
6
CONTINUOUS
10
102.872
20
-116.852
11
102.872
21
-116.852
0
LINE
8
BLACK
6
CONTINUOUS
10
102.872
20
-116.852
11
102.871
21
-116.854
0
LINE
8
BLACK
6
CONTINUOUS
10
102.871
20
-116.854
11
102.87
21
-116.856
0
LINE
8
BLACK
6
CONTINUOUS
10
102.87
20
-116.856
11
102.734
21
-117.11
0
LINE
8
BLACK
6
CONTINUOUS
10
102.734
20
-117.11
11
102.733
21
-117.112
0
LINE
8
BLACK
6
CONTINUOUS
10
102.733
20
-117.112
11
102.729
21
-117.118
0
LINE
8
BLACK
6
CONTINUOUS
10
102.729
20
-117.118
11
102.729
21
-117.118
0
LINE
8
BLACK
6
CONTINUOUS
10
102.729
20
-117.118
11
102.728
21
-117.12
0
LINE
8
BLACK
6
CONTINUOUS
10
102.728
20
-117.12
11
102.726
21
-117.122
0
LINE
8
BLACK
6
CONTINUOUS
10
102.726
20
-117.122
11
102.542
21
-117.347
0
LINE
8
BLACK
6
CONTINUOUS
10
102.542
20
-117.347
11
102.541
21
-117.349
0
LINE
8
BLACK
6
CONTINUOUS
10
102.541
20
-117.349
11
102.537
21
-117.353
0
LINE
8
BLACK
6
CONTINUOUS
10
102.537
20
-117.353
11
102.534
21
-117.356
0
LINE
8
BLACK
6
CONTINUOUS
10
102.534
20
-117.356
11
102.532
21
-117.357
0
LINE
8
BLACK
6
CONTINUOUS
10
102.532
20
-117.357
11
102.307
21
-117.541
0
LINE
8
BLACK
6
CONTINUOUS
10
102.307
20
-117.541
11
102.305
21
-117.543
0
LINE
8
BLACK
6
CONTINUOUS
10
102.305
20
-117.543
11
102.299
21
-117.547
0
LINE
8
BLACK
6
CONTINUOUS
10
102.299
20
-117.547
11
102.299
21
-117.547
0
LINE
8
BLACK
6
CONTINUOUS
10
102.299
20
-117.547
11
102.297
21
-117.549
0
LINE
8
BLACK
6
CONTINUOUS
10
102.297
20
-117.549
11
102.295
21
-117.55
0
LINE
8
BLACK
6
CONTINUOUS
10
102.295
20
-117.55
11
102.041
21
-117.685
0
LINE
8
BLACK
6
CONTINUOUS
10
102.041
20
-117.685
11
102.039
21
-117.686
0
LINE
8
BLACK
6
CONTINUOUS
10
102.039
20
-117.686
11
102.036
21
-117.687
0
LINE
8
BLACK
6
CONTINUOUS
10
102.036
20
-117.687
11
102.036
21
-117.687
0
LINE
8
BLACK
6
CONTINUOUS
10
102.036
20
-117.687
11
102.035
21
-117.688
0
LINE
8
BLACK
6
CONTINUOUS
10
102.035
20
-117.688
11
102.032
21
-117.689
0
LINE
8
BLACK
6
CONTINUOUS
10
102.032
20
-117.689
11
102.032
21
-117.689
0
LINE
8
BLACK
6
CONTINUOUS
10
102.032
20
-117.689
11
102.03
21
-117.69
0
LINE
8
BLACK
6
CONTINUOUS
10
102.03
20
-117.69
11
102.027
21
-117.691
0
LINE
8
BLACK
6
CONTINUOUS
10
102.027
20
-117.691
11
101.752
21
-117.774
0
LINE
8
BLACK
6
CONTINUOUS
10
101.752
20
-117.774
11
101.75
21
-117.775
0
LINE
8
BLACK
6
CONTINUOUS
10
101.75
20
-117.775
11
101.746
21
-117.776
0
LINE
8
BLACK
6
CONTINUOUS
10
101.746
20
-117.776
11
101.74
21
-117.777
0
LINE
8
BLACK
6
CONTINUOUS
10
101.74
20
-117.777
11
101.737
21
-117.777
0
LINE
8
BLACK
6
CONTINUOUS
10
101.737
20
-117.777
11
101.448
21
-117.806
0
LINE
8
BLACK
6
CONTINUOUS
10
101.448
20
-117.806
11
101.446
21
-117.806
0
LINE
8
BLACK
6
CONTINUOUS
10
101.446
20
-117.806
11
101.441
21
-117.806
0
LINE
8
BLACK
6
CONTINUOUS
10
101.441
20
-117.806
11
101.436
21
-117.806
0
LINE
8
BLACK
6
CONTINUOUS
10
101.436
20
-117.806
11
101.434
21
-117.806
0
LINE
8
BLACK
6
CONTINUOUS
10
101.434
20
-117.806
11
101.144
21
-117.777
0
LINE
8
BLACK
6
CONTINUOUS
10
101.144
20
-117.777
11
101.142
21
-117.777
0
LINE
8
BLACK
6
CONTINUOUS
10
101.142
20
-117.777
11
101.135
21
-117.776
0
LINE
8
BLACK
6
CONTINUOUS
10
101.135
20
-117.776
11
101.135
21
-117.776
0
LINE
8
BLACK
6
CONTINUOUS
10
101.135
20
-117.776
11
101.132
21
-117.775
0
LINE
8
BLACK
6
CONTINUOUS
10
101.132
20
-117.775
11
101.13
21
-117.774
0
LINE
8
BLACK
6
CONTINUOUS
10
101.13
20
-117.774
11
100.855
21
-117.691
0
LINE
8
BLACK
6
CONTINUOUS
10
100.855
20
-117.691
11
100.852
21
-117.69
0
LINE
8
BLACK
6
CONTINUOUS
10
100.852
20
-117.69
11
100.85
21
-117.689
0
LINE
8
BLACK
6
CONTINUOUS
10
100.85
20
-117.689
11
100.85
21
-117.689
0
LINE
8
BLACK
6
CONTINUOUS
10
100.85
20
-117.689
11
100.848
21
-117.689
0
LINE
8
BLACK
6
CONTINUOUS
10
100.848
20
-117.689
11
100.845
21
-117.687
0
LINE
8
BLACK
6
CONTINUOUS
10
100.845
20
-117.687
11
100.845
21
-117.687
0
LINE
8
BLACK
6
CONTINUOUS
10
100.845
20
-117.687
11
100.843
21
-117.686
0
LINE
8
BLACK
6
CONTINUOUS
10
100.843
20
-117.686
11
100.841
21
-117.685
0
LINE
8
BLACK
6
CONTINUOUS
10
100.841
20
-117.685
11
100.587
21
-117.55
0
LINE
8
BLACK
6
CONTINUOUS
10
100.587
20
-117.55
11
100.585
21
-117.549
0
LINE
8
BLACK
6
CONTINUOUS
10
100.585
20
-117.549
11
100.579
21
-117.544
0
LINE
8
BLACK
6
CONTINUOUS
10
100.579
20
-117.544
11
100.579
21
-117.544
0
LINE
8
BLACK
6
CONTINUOUS
10
100.579
20
-117.544
11
100.577
21
-117.543
0
LINE
8
BLACK
6
CONTINUOUS
10
100.577
20
-117.543
11
100.575
21
-117.541
0
LINE
8
BLACK
6
CONTINUOUS
10
100.575
20
-117.541
11
100.35
21
-117.357
0
LINE
8
BLACK
6
CONTINUOUS
10
100.35
20
-117.357
11
100.348
21
-117.356
0
LINE
8
BLACK
6
CONTINUOUS
10
100.348
20
-117.356
11
100.345
21
-117.352
0
LINE
8
BLACK
6
CONTINUOUS
10
100.345
20
-117.352
11
100.341
21
-117.349
0
LINE
8
BLACK
6
CONTINUOUS
10
100.341
20
-117.349
11
100.34
21
-117.347
0
LINE
8
BLACK
6
CONTINUOUS
10
100.34
20
-117.347
11
100.156
21
-117.122
0
LINE
8
BLACK
6
CONTINUOUS
10
100.156
20
-117.122
11
100.154
21
-117.12
0
LINE
8
BLACK
6
CONTINUOUS
10
100.154
20
-117.12
11
100.15
21
-117.114
0
LINE
8
BLACK
6
CONTINUOUS
10
100.15
20
-117.114
11
100.15
21
-117.114
0
LINE
8
BLACK
6
CONTINUOUS
10
100.15
20
-117.114
11
100.148
21
-117.112
0
LINE
8
BLACK
6
CONTINUOUS
10
100.148
20
-117.112
11
100.147
21
-117.11
0
LINE
8
BLACK
6
CONTINUOUS
10
100.147
20
-117.11
11
100.012
21
-116.856
0
LINE
8
BLACK
6
CONTINUOUS
10
100.012
20
-116.856
11
100.011
21
-116.854
0
LINE
8
BLACK
6
CONTINUOUS
10
100.011
20
-116.854
11
100.01
21
-116.852
0
LINE
8
BLACK
6
CONTINUOUS
10
100.01
20
-116.852
11
100.01
21
-116.852
0
LINE
8
BLACK
6
CONTINUOUS
10
100.01
20
-116.852
11
100.009
21
-116.851
0
LINE
8
BLACK
6
CONTINUOUS
10
100.009
20
-116.851
11
100.008
21
-116.847
0
LINE
8
BLACK
6
CONTINUOUS
10
100.008
20
-116.847
11
100.008
21
-116.847
0
LINE
8
BLACK
6
CONTINUOUS
10
100.008
20
-116.847
11
100.007
21
-116.845
0
LINE
8
BLACK
6
CONTINUOUS
10
100.007
20
-116.845
11
100.006
21
-116.842
0
LINE
8
BLACK
6
CONTINUOUS
10
100.006
20
-116.842
11
99.9227
21
-116.567
0
LINE
8
BLACK
6
CONTINUOUS
10
99.9227
20
-116.567
11
99.9218
21
-116.565
0
LINE
8
BLACK
6
CONTINUOUS
10
99.9218
20
-116.565
11
99.9203
21
-116.557
0
LINE
8
BLACK
6
CONTINUOUS
10
99.9203
20
-116.557
11
99.9198
21
-116.555
0
LINE
8
BLACK
6
CONTINUOUS
10
99.9198
20
-116.555
11
99.9198
21
-116.553
0
LINE
8
BLACK
6
CONTINUOUS
10
99.9198
20
-116.553
11
99.8912
21
-116.263
0
LINE
8
BLACK
6
CONTINUOUS
10
99.8912
20
-116.263
11
99.8908
21
-116.261
0
LINE
8
BLACK
6
CONTINUOUS
10
99.8908
20
-116.261
11
99.8908
21
-116.256
0
LINE
8
BLACK
6
CONTINUOUS
10
99.8908
20
-116.256
11
99.8908
21
-116.251
0
LINE
8
BLACK
6
CONTINUOUS
10
99.8908
20
-116.251
11
99.8912
21
-116.249
0
LINE
8
BLACK
6
CONTINUOUS
10
99.8912
20
-116.249
11
99.9198
21
-115.96
0
LINE
8
BLACK
6
CONTINUOUS
10
99.9198
20
-115.96
11
99.9198
21
-115.957
0
LINE
8
BLACK
6
CONTINUOUS
10
99.9198
20
-115.957
11
99.9213
21
-115.95
0
LINE
8
BLACK
6
CONTINUOUS
10
99.9213
20
-115.95
11
99.9218
21
-115.947
0
LINE
8
BLACK
6
CONTINUOUS
10
99.9218
20
-115.947
11
99.9227
21
-115.945
0
LINE
8
BLACK
6
CONTINUOUS
10
99.9227
20
-115.945
11
100.006
21
-115.67
0
LINE
8
BLACK
6
CONTINUOUS
10
100.006
20
-115.67
11
100.007
21
-115.667
0
LINE
8
BLACK
6
CONTINUOUS
10
100.007
20
-115.667
11
100.008
21
-115.665
0
LINE
8
BLACK
6
CONTINUOUS
10
100.008
20
-115.665
11
100.008
21
-115.665
0
LINE
8
BLACK
6
CONTINUOUS
10
100.008
20
-115.665
11
100.009
21
-115.662
0
LINE
8
BLACK
6
CONTINUOUS
10
100.009
20
-115.662
11
100.01
21
-115.661
0
LINE
8
BLACK
6
CONTINUOUS
10
100.01
20
-115.661
11
100.01
21
-115.661
0
LINE
8
BLACK
6
CONTINUOUS
10
100.01
20
-115.661
11
100.011
21
-115.658
0
LINE
8
BLACK
6
CONTINUOUS
10
100.011
20
-115.658
11
100.012
21
-115.656
0
LINE
8
BLACK
6
CONTINUOUS
10
100.012
20
-115.656
11
100.147
21
-115.402
0
LINE
8
BLACK
6
CONTINUOUS
10
100.147
20
-115.402
11
100.148
21
-115.4
0
LINE
8
BLACK
6
CONTINUOUS
10
100.148
20
-115.4
11
100.15
21
-115.398
0
LINE
8
BLACK
6
CONTINUOUS
10
100.15
20
-115.398
11
100.15
21
-115.398
0
LINE
8
BLACK
6
CONTINUOUS
10
100.15
20
-115.398
11
100.154
21
-115.392
0
LINE
8
BLACK
6
CONTINUOUS
10
100.154
20
-115.392
11
100.156
21
-115.39
0
LINE
8
BLACK
6
CONTINUOUS
10
100.156
20
-115.39
11
100.34
21
-115.165
0
LINE
8
BLACK
6
CONTINUOUS
10
100.34
20
-115.165
11
100.341
21
-115.163
0
LINE
8
BLACK
6
CONTINUOUS
10
100.341
20
-115.163
11
100.344
21
-115.16
0
LINE
8
BLACK
6
CONTINUOUS
10
100.344
20
-115.16
11
100.348
21
-115.156
0
LINE
8
BLACK
6
CONTINUOUS
10
100.348
20
-115.156
11
100.35
21
-115.155
0
LINE
8
BLACK
6
CONTINUOUS
10
100.35
20
-115.155
11
100.575
21
-114.971
0
LINE
8
BLACK
6
CONTINUOUS
10
100.575
20
-114.971
11
100.577
21
-114.969
0
LINE
8
BLACK
6
CONTINUOUS
10
100.577
20
-114.969
11
100.579
21
-114.968
0
LINE
8
BLACK
6
CONTINUOUS
10
100.579
20
-114.968
11
100.579
21
-114.968
0
LINE
8
BLACK
6
CONTINUOUS
10
100.579
20
-114.968
11
100.585
21
-114.964
0
LINE
8
BLACK
6
CONTINUOUS
10
100.585
20
-114.964
11
100.587
21
-114.963
0
LINE
8
BLACK
6
CONTINUOUS
10
100.587
20
-114.963
11
100.841
21
-114.827
0
LINE
8
BLACK
6
CONTINUOUS
10
100.841
20
-114.827
11
100.843
21
-114.826
0
LINE
8
BLACK
6
CONTINUOUS
10
100.843
20
-114.826
11
100.845
21
-114.825
0
LINE
8
BLACK
6
CONTINUOUS
10
100.845
20
-114.825
11
100.845
21
-114.825
0
LINE
8
BLACK
6
CONTINUOUS
10
100.845
20
-114.825
11
100.848
21
-114.824
0
LINE
8
BLACK
6
CONTINUOUS
10
100.848
20
-114.824
11
100.85
21
-114.823
0
LINE
8
BLACK
6
CONTINUOUS
10
100.85
20
-114.823
11
100.85
21
-114.823
0
LINE
8
BLACK
6
CONTINUOUS
10
100.85
20
-114.823
11
100.852
21
-114.822
0
LINE
8
BLACK
6
CONTINUOUS
10
100.852
20
-114.822
11
100.855
21
-114.822
0
LINE
8
BLACK
6
CONTINUOUS
10
100.855
20
-114.822
11
101.13
21
-114.738
0
LINE
8
BLACK
6
CONTINUOUS
10
101.13
20
-114.738
11
101.132
21
-114.737
0
LINE
8
BLACK
6
CONTINUOUS
10
101.132
20
-114.737
11
101.135
21
-114.736
0
LINE
8
BLACK
6
CONTINUOUS
10
101.135
20
-114.736
11
101.135
21
-114.736
0
LINE
8
BLACK
6
CONTINUOUS
10
101.135
20
-114.736
11
101.142
21
-114.735
0
LINE
8
BLACK
6
CONTINUOUS
10
101.142
20
-114.735
11
101.144
21
-114.735
0
LINE
8
BLACK
6
CONTINUOUS
10
101.144
20
-114.735
11
101.431
21
-114.707
0
LINE
8
BLACK
6
CONTINUOUS
10
101.431
20
-114.707
11
101.431
21
-114.707
0
LINE
8
BLACK
6
CONTINUOUS
10
101.431
20
-114.707
11
101.434
21
-114.706
0
LINE
8
BLACK
6
CONTINUOUS
10
101.434
20
-114.706
11
101.436
21
-114.706
0
LINE
8
BLACK
6
CONTINUOUS
10
101.436
20
-114.706
11
101.438
21
-114.706
0
LINE
8
BLACK
6
CONTINUOUS
10
101.438
20
-114.706
11
101.443
21
-114.706
0
LINE
8
BLACK
6
CONTINUOUS
10
101.443
20
-114.706
11
101.446
21
-114.706
0
LINE
8
BLACK
6
CONTINUOUS
10
101.446
20
-114.706
11
101.448
21
-114.706
0
LINE
8
BLACK
6
CONTINUOUS
10
101.157
20
-114.834
11
100.886
21
-114.916
0
LINE
8
BLACK
6
CONTINUOUS
10
100.886
20
-114.916
11
100.636
21
-115.05
0
LINE
8
BLACK
6
CONTINUOUS
10
100.636
20
-115.05
11
100.416
21
-115.231
0
LINE
8
BLACK
6
CONTINUOUS
10
100.416
20
-115.231
11
100.235
21
-115.452
0
LINE
8
BLACK
6
CONTINUOUS
10
100.235
20
-115.452
11
100.101
21
-115.701
0
LINE
8
BLACK
6
CONTINUOUS
10
100.101
20
-115.701
11
100.019
21
-115.972
0
LINE
8
BLACK
6
CONTINUOUS
10
100.019
20
-115.972
11
99.991
21
-116.256
0
LINE
8
BLACK
6
CONTINUOUS
10
99.991
20
-116.256
11
100.019
21
-116.54
0
LINE
8
BLACK
6
CONTINUOUS
10
100.019
20
-116.54
11
100.101
21
-116.811
0
LINE
8
BLACK
6
CONTINUOUS
10
100.101
20
-116.811
11
100.235
21
-117.061
0
LINE
8
BLACK
6
CONTINUOUS
10
100.235
20
-117.061
11
100.416
21
-117.281
0
LINE
8
BLACK
6
CONTINUOUS
10
100.416
20
-117.281
11
100.636
21
-117.462
0
LINE
8
BLACK
6
CONTINUOUS
10
100.636
20
-117.462
11
100.886
21
-117.596
0
LINE
8
BLACK
6
CONTINUOUS
10
100.886
20
-117.596
11
101.157
21
-117.678
0
LINE
8
BLACK
6
CONTINUOUS
10
101.157
20
-117.678
11
101.441
21
-117.706
0
LINE
8
BLACK
6
CONTINUOUS
10
101.441
20
-117.706
11
101.725
21
-117.678
0
LINE
8
BLACK
6
CONTINUOUS
10
101.725
20
-117.678
11
101.996
21
-117.596
0
LINE
8
BLACK
6
CONTINUOUS
10
101.996
20
-117.596
11
102.245
21
-117.462
0
LINE
8
BLACK
6
CONTINUOUS
10
102.245
20
-117.462
11
102.466
21
-117.281
0
LINE
8
BLACK
6
CONTINUOUS
10
102.466
20
-117.281
11
102.647
21
-117.061
0
LINE
8
BLACK
6
CONTINUOUS
10
102.647
20
-117.061
11
102.781
21
-116.811
0
LINE
8
BLACK
6
CONTINUOUS
10
102.781
20
-116.811
11
102.863
21
-116.54
0
LINE
8
BLACK
6
CONTINUOUS
10
102.863
20
-116.54
11
102.891
21
-116.256
0
LINE
8
BLACK
6
CONTINUOUS
10
102.891
20
-116.256
11
102.863
21
-115.972
0
LINE
8
BLACK
6
CONTINUOUS
10
102.863
20
-115.972
11
102.781
21
-115.701
0
LINE
8
BLACK
6
CONTINUOUS
10
102.781
20
-115.701
11
102.647
21
-115.452
0
LINE
8
BLACK
6
CONTINUOUS
10
102.647
20
-115.452
11
102.466
21
-115.231
0
LINE
8
BLACK
6
CONTINUOUS
10
102.466
20
-115.231
11
102.245
21
-115.05
0
LINE
8
BLACK
6
CONTINUOUS
10
102.245
20
-115.05
11
101.996
21
-114.916
0
LINE
8
BLACK
6
CONTINUOUS
10
101.996
20
-114.916
11
101.725
21
-114.834
0
LINE
8
BLACK
6
CONTINUOUS
10
101.725
20
-114.834
11
101.441
21
-114.806
0
LINE
8
BLACK
6
CONTINUOUS
10
101.441
20
-114.806
11
101.157
21
-114.834
0
LINE
8
BLACK
6
CONTINUOUS
10
110.843
20
-86.9908
11
110.846
21
-86.9908
0
LINE
8
BLACK
6
CONTINUOUS
10
110.846
20
-86.9908
11
110.846
21
-86.9908
0
LINE
8
BLACK
6
CONTINUOUS
10
110.846
20
-86.9908
11
110.846
21
-86.9908
0
LINE
8
BLACK
6
CONTINUOUS
10
110.846
20
-86.9908
11
110.848
21
-86.9911
0
LINE
8
BLACK
6
CONTINUOUS
10
110.848
20
-86.9911
11
110.853
21
-86.9915
0
LINE
8
BLACK
6
CONTINUOUS
10
110.853
20
-86.9915
11
110.853
21
-86.9916
0
LINE
8
BLACK
6
CONTINUOUS
10
110.853
20
-86.9916
11
110.98
21
-87.0042
0
LINE
8
BLACK
6
CONTINUOUS
10
110.98
20
-87.0042
11
110.982
21
-87.0042
0
LINE
8
BLACK
6
CONTINUOUS
10
110.982
20
-87.0042
11
110.987
21
-87.0052
0
LINE
8
BLACK
6
CONTINUOUS
10
110.987
20
-87.0052
11
110.992
21
-87.0062
0
LINE
8
BLACK
6
CONTINUOUS
10
110.992
20
-87.0062
11
110.994
21
-87.0071
0
LINE
8
BLACK
6
CONTINUOUS
10
110.994
20
-87.0071
11
111.114
21
-87.0442
0
LINE
8
BLACK
6
CONTINUOUS
10
111.114
20
-87.0442
11
111.116
21
-87.0446
0
LINE
8
BLACK
6
CONTINUOUS
10
111.116
20
-87.0446
11
111.123
21
-87.0474
0
LINE
8
BLACK
6
CONTINUOUS
10
111.123
20
-87.0474
11
111.125
21
-87.0485
0
LINE
8
BLACK
6
CONTINUOUS
10
111.125
20
-87.0485
11
111.127
21
-87.0498
0
LINE
8
BLACK
6
CONTINUOUS
10
111.127
20
-87.0498
11
111.235
21
-87.1083
0
LINE
8
BLACK
6
CONTINUOUS
10
111.235
20
-87.1083
11
111.238
21
-87.1092
0
LINE
8
BLACK
6
CONTINUOUS
10
111.238
20
-87.1092
11
111.24
21
-87.1106
0
LINE
8
BLACK
6
CONTINUOUS
10
111.24
20
-87.1106
11
111.24
21
-87.1107
0
LINE
8
BLACK
6
CONTINUOUS
10
111.24
20
-87.1107
11
111.242
21
-87.1122
0
LINE
8
BLACK
6
CONTINUOUS
10
111.242
20
-87.1122
11
111.244
21
-87.1134
0
LINE
8
BLACK
6
CONTINUOUS
10
111.244
20
-87.1134
11
111.244
21
-87.1134
0
LINE
8
BLACK
6
CONTINUOUS
10
111.244
20
-87.1134
11
111.246
21
-87.1148
0
LINE
8
BLACK
6
CONTINUOUS
10
111.246
20
-87.1148
11
111.248
21
-87.1165
0
LINE
8
BLACK
6
CONTINUOUS
10
111.248
20
-87.1165
11
111.341
21
-87.1939
0
LINE
8
BLACK
6
CONTINUOUS
10
111.341
20
-87.1939
11
111.343
21
-87.1952
0
LINE
8
BLACK
6
CONTINUOUS
10
111.343
20
-87.1952
11
111.345
21
-87.197
0
LINE
8
BLACK
6
CONTINUOUS
10
111.345
20
-87.197
11
111.345
21
-87.1971
0
LINE
8
BLACK
6
CONTINUOUS
10
111.345
20
-87.1971
11
111.347
21
-87.1989
0
LINE
8
BLACK
6
CONTINUOUS
10
111.347
20
-87.1989
11
111.349
21
-87.2004
0
LINE
8
BLACK
6
CONTINUOUS
10
111.349
20
-87.2004
11
111.349
21
-87.2005
0
LINE
8
BLACK
6
CONTINUOUS
10
111.349
20
-87.2005
11
111.351
21
-87.2023
0
LINE
8
BLACK
6
CONTINUOUS
10
111.351
20
-87.2023
11
111.352
21
-87.2043
0
LINE
8
BLACK
6
CONTINUOUS
10
111.352
20
-87.2043
11
111.429
21
-87.2982
0
LINE
8
BLACK
6
CONTINUOUS
10
111.429
20
-87.2982
11
111.431
21
-87.2999
0
LINE
8
BLACK
6
CONTINUOUS
10
111.431
20
-87.2999
11
111.432
21
-87.302
0
LINE
8
BLACK
6
CONTINUOUS
10
111.432
20
-87.302
11
111.432
21
-87.302
0
LINE
8
BLACK
6
CONTINUOUS
10
111.432
20
-87.302
11
111.434
21
-87.3041
0
LINE
8
BLACK
6
CONTINUOUS
10
111.434
20
-87.3041
11
111.435
21
-87.306
0
LINE
8
BLACK
6
CONTINUOUS
10
111.435
20
-87.306
11
111.435
21
-87.3061
0
LINE
8
BLACK
6
CONTINUOUS
10
111.435
20
-87.3061
11
111.437
21
-87.3082
0
LINE
8
BLACK
6
CONTINUOUS
10
111.437
20
-87.3082
11
111.437
21
-87.3104
0
LINE
8
BLACK
6
CONTINUOUS
10
111.437
20
-87.3104
11
111.496
21
-87.4184
0
LINE
8
BLACK
6
CONTINUOUS
10
111.496
20
-87.4184
11
111.497
21
-87.4204
0
LINE
8
BLACK
6
CONTINUOUS
10
111.497
20
-87.4204
11
111.498
21
-87.423
0
LINE
8
BLACK
6
CONTINUOUS
10
111.498
20
-87.423
11
111.501
21
-87.4295
0
LINE
8
BLACK
6
CONTINUOUS
10
111.501
20
-87.4295
11
111.502
21
-87.4319
0
LINE
8
BLACK
6
CONTINUOUS
10
111.502
20
-87.4319
11
111.539
21
-87.5516
0
LINE
8
BLACK
6
CONTINUOUS
10
111.539
20
-87.5516
11
111.54
21
-87.554
0
LINE
8
BLACK
6
CONTINUOUS
10
111.54
20
-87.554
11
111.541
21
-87.5586
0
LINE
8
BLACK
6
CONTINUOUS
10
111.541
20
-87.5586
11
111.541
21
-87.5635
0
LINE
8
BLACK
6
CONTINUOUS
10
111.541
20
-87.5635
11
111.542
21
-87.566
0
LINE
8
BLACK
6
CONTINUOUS
10
111.542
20
-87.566
11
111.554
21
-87.6924
0
LINE
8
BLACK
6
CONTINUOUS
10
111.554
20
-87.6924
11
111.554
21
-87.6925
0
LINE
8
BLACK
6
CONTINUOUS
10
111.554
20
-87.6925
11
111.555
21
-87.6974
0
LINE
8
BLACK
6
CONTINUOUS
10
111.555
20
-87.6974
11
111.555
21
-87.6997
0
LINE
8
BLACK
6
CONTINUOUS
10
111.555
20
-87.6997
11
111.555
21
-87.6998
0
LINE
8
BLACK
6
CONTINUOUS
10
111.555
20
-87.6998
11
111.555
21
-87.6998
0
LINE
8
BLACK
6
CONTINUOUS
10
111.555
20
-87.6998
11
111.555
21
-87.7031
0
LINE
8
BLACK
6
CONTINUOUS
10
111.555
20
-87.7031
11
111.555
21
-87.7071
0
LINE
8
BLACK
6
CONTINUOUS
10
111.555
20
-87.7071
11
111.555
21
-87.7072
0
LINE
8
BLACK
6
CONTINUOUS
10
111.555
20
-87.7072
11
111.555
21
-107.305
0
LINE
8
BLACK
6
CONTINUOUS
10
111.555
20
-107.305
11
111.555
21
-107.305
0
LINE
8
BLACK
6
CONTINUOUS
10
111.555
20
-107.305
11
111.555
21
-107.309
0
LINE
8
BLACK
6
CONTINUOUS
10
111.555
20
-107.309
11
111.555
21
-107.312
0
LINE
8
BLACK
6
CONTINUOUS
10
111.555
20
-107.312
11
111.555
21
-107.312
0
LINE
8
BLACK
6
CONTINUOUS
10
111.555
20
-107.312
11
111.555
21
-107.312
0
LINE
8
BLACK
6
CONTINUOUS
10
111.555
20
-107.312
11
111.555
21
-107.315
0
LINE
8
BLACK
6
CONTINUOUS
10
111.555
20
-107.315
11
111.554
21
-107.32
0
LINE
8
BLACK
6
CONTINUOUS
10
111.554
20
-107.32
11
111.554
21
-107.32
0
LINE
8
BLACK
6
CONTINUOUS
10
111.554
20
-107.32
11
111.542
21
-107.446
0
LINE
8
BLACK
6
CONTINUOUS
10
111.542
20
-107.446
11
111.541
21
-107.449
0
LINE
8
BLACK
6
CONTINUOUS
10
111.541
20
-107.449
11
111.541
21
-107.454
0
LINE
8
BLACK
6
CONTINUOUS
10
111.541
20
-107.454
11
111.54
21
-107.458
0
LINE
8
BLACK
6
CONTINUOUS
10
111.54
20
-107.458
11
111.539
21
-107.461
0
LINE
8
BLACK
6
CONTINUOUS
10
111.539
20
-107.461
11
111.502
21
-107.58
0
LINE
8
BLACK
6
CONTINUOUS
10
111.502
20
-107.58
11
111.501
21
-107.583
0
LINE
8
BLACK
6
CONTINUOUS
10
111.501
20
-107.583
11
111.498
21
-107.589
0
LINE
8
BLACK
6
CONTINUOUS
10
111.498
20
-107.589
11
111.497
21
-107.592
0
LINE
8
BLACK
6
CONTINUOUS
10
111.497
20
-107.592
11
111.496
21
-107.594
0
LINE
8
BLACK
6
CONTINUOUS
10
111.496
20
-107.594
11
111.437
21
-107.702
0
LINE
8
BLACK
6
CONTINUOUS
10
111.437
20
-107.702
11
111.437
21
-107.704
0
LINE
8
BLACK
6
CONTINUOUS
10
111.437
20
-107.704
11
111.435
21
-107.706
0
LINE
8
BLACK
6
CONTINUOUS
10
111.435
20
-107.706
11
111.435
21
-107.706
0
LINE
8
BLACK
6
CONTINUOUS
10
111.435
20
-107.706
11
111.434
21
-107.708
0
LINE
8
BLACK
6
CONTINUOUS
10
111.434
20
-107.708
11
111.432
21
-107.71
0
LINE
8
BLACK
6
CONTINUOUS
10
111.432
20
-107.71
11
111.432
21
-107.71
0
LINE
8
BLACK
6
CONTINUOUS
10
111.432
20
-107.71
11
111.431
21
-107.712
0
LINE
8
BLACK
6
CONTINUOUS
10
111.431
20
-107.712
11
111.429
21
-107.714
0
LINE
8
BLACK
6
CONTINUOUS
10
111.429
20
-107.714
11
111.352
21
-107.808
0
LINE
8
BLACK
6
CONTINUOUS
10
111.352
20
-107.808
11
111.351
21
-107.81
0
LINE
8
BLACK
6
CONTINUOUS
10
111.351
20
-107.81
11
111.349
21
-107.812
0
LINE
8
BLACK
6
CONTINUOUS
10
111.349
20
-107.812
11
111.349
21
-107.812
0
LINE
8
BLACK
6
CONTINUOUS
10
111.349
20
-107.812
11
111.347
21
-107.813
0
LINE
8
BLACK
6
CONTINUOUS
10
111.347
20
-107.813
11
111.345
21
-107.815
0
LINE
8
BLACK
6
CONTINUOUS
10
111.345
20
-107.815
11
111.345
21
-107.815
0
LINE
8
BLACK
6
CONTINUOUS
10
111.345
20
-107.815
11
111.343
21
-107.817
0
LINE
8
BLACK
6
CONTINUOUS
10
111.343
20
-107.817
11
111.341
21
-107.818
0
LINE
8
BLACK
6
CONTINUOUS
10
111.341
20
-107.818
11
111.248
21
-107.896
0
LINE
8
BLACK
6
CONTINUOUS
10
111.248
20
-107.896
11
111.246
21
-107.897
0
LINE
8
BLACK
6
CONTINUOUS
10
111.246
20
-107.897
11
111.244
21
-107.899
0
LINE
8
BLACK
6
CONTINUOUS
10
111.244
20
-107.899
11
111.244
21
-107.899
0
LINE
8
BLACK
6
CONTINUOUS
10
111.244
20
-107.899
11
111.242
21
-107.9
0
LINE
8
BLACK
6
CONTINUOUS
10
111.242
20
-107.9
11
111.24
21
-107.901
0
LINE
8
BLACK
6
CONTINUOUS
10
111.24
20
-107.901
11
111.24
21
-107.902
0
LINE
8
BLACK
6
CONTINUOUS
10
111.24
20
-107.902
11
111.238
21
-107.903
0
LINE
8
BLACK
6
CONTINUOUS
10
111.238
20
-107.903
11
111.235
21
-107.904
0
LINE
8
BLACK
6
CONTINUOUS
10
111.235
20
-107.904
11
111.127
21
-107.962
0
LINE
8
BLACK
6
CONTINUOUS
10
111.127
20
-107.962
11
111.125
21
-107.964
0
LINE
8
BLACK
6
CONTINUOUS
10
111.125
20
-107.964
11
111.122
21
-107.965
0
LINE
8
BLACK
6
CONTINUOUS
10
111.122
20
-107.965
11
111.116
21
-107.968
0
LINE
8
BLACK
6
CONTINUOUS
10
111.116
20
-107.968
11
111.114
21
-107.968
0
LINE
8
BLACK
6
CONTINUOUS
10
111.114
20
-107.968
11
110.994
21
-108.005
0
LINE
8
BLACK
6
CONTINUOUS
10
110.994
20
-108.005
11
110.992
21
-108.006
0
LINE
8
BLACK
6
CONTINUOUS
10
110.992
20
-108.006
11
110.987
21
-108.007
0
LINE
8
BLACK
6
CONTINUOUS
10
110.987
20
-108.007
11
110.982
21
-108.008
0
LINE
8
BLACK
6
CONTINUOUS
10
110.982
20
-108.008
11
110.98
21
-108.008
0
LINE
8
BLACK
6
CONTINUOUS
10
110.98
20
-108.008
11
110.853
21
-108.021
0
LINE
8
BLACK
6
CONTINUOUS
10
110.853
20
-108.021
11
110.853
21
-108.021
0
LINE
8
BLACK
6
CONTINUOUS
10
110.853
20
-108.021
11
110.848
21
-108.021
0
LINE
8
BLACK
6
CONTINUOUS
10
110.848
20
-108.021
11
110.846
21
-108.021
0
LINE
8
BLACK
6
CONTINUOUS
10
110.846
20
-108.021
11
110.846
21
-108.021
0
LINE
8
BLACK
6
CONTINUOUS
10
110.846
20
-108.021
11
110.846
21
-108.021
0
LINE
8
BLACK
6
CONTINUOUS
10
110.846
20
-108.021
11
110.843
21
-108.021
0
LINE
8
BLACK
6
CONTINUOUS
10
110.843
20
-108.021
11
110.839
21
-108.021
0
LINE
8
BLACK
6
CONTINUOUS
10
110.839
20
-108.021
11
110.839
21
-108.021
0
LINE
8
BLACK
6
CONTINUOUS
10
110.839
20
-108.021
11
107.62
21
-108.021
0
LINE
8
BLACK
6
CONTINUOUS
10
107.62
20
-108.021
11
107.62
21
-108.021
0
LINE
8
BLACK
6
CONTINUOUS
10
107.62
20
-108.021
11
107.616
21
-108.021
0
LINE
8
BLACK
6
CONTINUOUS
10
107.616
20
-108.021
11
107.612
21
-108.021
0
LINE
8
BLACK
6
CONTINUOUS
10
107.612
20
-108.021
11
107.612
21
-108.021
0
LINE
8
BLACK
6
CONTINUOUS
10
107.612
20
-108.021
11
107.612
21
-108.021
0
LINE
8
BLACK
6
CONTINUOUS
10
107.612
20
-108.021
11
107.61
21
-108.021
0
LINE
8
BLACK
6
CONTINUOUS
10
107.61
20
-108.021
11
107.605
21
-108.021
0
LINE
8
BLACK
6
CONTINUOUS
10
107.605
20
-108.021
11
107.605
21
-108.021
0
LINE
8
BLACK
6
CONTINUOUS
10
107.605
20
-108.021
11
107.478
21
-108.008
0
LINE
8
BLACK
6
CONTINUOUS
10
107.478
20
-108.008
11
107.476
21
-108.008
0
LINE
8
BLACK
6
CONTINUOUS
10
107.476
20
-108.008
11
107.471
21
-108.007
0
LINE
8
BLACK
6
CONTINUOUS
10
107.471
20
-108.007
11
107.466
21
-108.006
0
LINE
8
BLACK
6
CONTINUOUS
10
107.466
20
-108.006
11
107.464
21
-108.005
0
LINE
8
BLACK
6
CONTINUOUS
10
107.464
20
-108.005
11
107.344
21
-107.968
0
LINE
8
BLACK
6
CONTINUOUS
10
107.344
20
-107.968
11
107.342
21
-107.968
0
LINE
8
BLACK
6
CONTINUOUS
10
107.342
20
-107.968
11
107.335
21
-107.965
0
LINE
8
BLACK
6
CONTINUOUS
10
107.335
20
-107.965
11
107.335
21
-107.965
0
LINE
8
BLACK
6
CONTINUOUS
10
107.335
20
-107.965
11
107.333
21
-107.964
0
LINE
8
BLACK
6
CONTINUOUS
10
107.333
20
-107.964
11
107.331
21
-107.962
0
LINE
8
BLACK
6
CONTINUOUS
10
107.331
20
-107.962
11
107.223
21
-107.904
0
LINE
8
BLACK
6
CONTINUOUS
10
107.223
20
-107.904
11
107.221
21
-107.903
0
LINE
8
BLACK
6
CONTINUOUS
10
107.221
20
-107.903
11
107.218
21
-107.902
0
LINE
8
BLACK
6
CONTINUOUS
10
107.218
20
-107.902
11
107.218
21
-107.901
0
LINE
8
BLACK
6
CONTINUOUS
10
107.218
20
-107.901
11
107.217
21
-107.9
0
LINE
8
BLACK
6
CONTINUOUS
10
107.217
20
-107.9
11
107.214
21
-107.899
0
LINE
8
BLACK
6
CONTINUOUS
10
107.214
20
-107.899
11
107.214
21
-107.899
0
LINE
8
BLACK
6
CONTINUOUS
10
107.214
20
-107.899
11
107.212
21
-107.897
0
LINE
8
BLACK
6
CONTINUOUS
10
107.212
20
-107.897
11
107.211
21
-107.896
0
LINE
8
BLACK
6
CONTINUOUS
10
107.211
20
-107.896
11
107.117
21
-107.818
0
LINE
8
BLACK
6
CONTINUOUS
10
107.117
20
-107.818
11
107.115
21
-107.817
0
LINE
8
BLACK
6
CONTINUOUS
10
107.115
20
-107.817
11
107.113
21
-107.815
0
LINE
8
BLACK
6
CONTINUOUS
10
107.113
20
-107.815
11
107.113
21
-107.815
0
LINE
8
BLACK
6
CONTINUOUS
10
107.113
20
-107.815
11
107.111
21
-107.813
0
LINE
8
BLACK
6
CONTINUOUS
10
107.111
20
-107.813
11
107.11
21
-107.812
0
LINE
8
BLACK
6
CONTINUOUS
10
107.11
20
-107.812
11
107.109
21
-107.812
0
LINE
8
BLACK
6
CONTINUOUS
10
107.109
20
-107.812
11
107.108
21
-107.81
0
LINE
8
BLACK
6
CONTINUOUS
10
107.108
20
-107.81
11
107.106
21
-107.808
0
LINE
8
BLACK
6
CONTINUOUS
10
107.106
20
-107.808
11
107.029
21
-107.714
0
LINE
8
BLACK
6
CONTINUOUS
10
107.029
20
-107.714
11
107.027
21
-107.712
0
LINE
8
BLACK
6
CONTINUOUS
10
107.027
20
-107.712
11
107.026
21
-107.71
0
LINE
8
BLACK
6
CONTINUOUS
10
107.026
20
-107.71
11
107.026
21
-107.71
0
LINE
8
BLACK
6
CONTINUOUS
10
107.026
20
-107.71
11
107.025
21
-107.708
0
LINE
8
BLACK
6
CONTINUOUS
10
107.025
20
-107.708
11
107.023
21
-107.706
0
LINE
8
BLACK
6
CONTINUOUS
10
107.023
20
-107.706
11
107.023
21
-107.706
0
LINE
8
BLACK
6
CONTINUOUS
10
107.023
20
-107.706
11
107.022
21
-107.704
0
LINE
8
BLACK
6
CONTINUOUS
10
107.022
20
-107.704
11
107.021
21
-107.702
0
LINE
8
BLACK
6
CONTINUOUS
10
107.021
20
-107.702
11
106.962
21
-107.594
0
LINE
8
BLACK
6
CONTINUOUS
10
106.962
20
-107.594
11
106.961
21
-107.592
0
LINE
8
BLACK
6
CONTINUOUS
10
106.961
20
-107.592
11
106.959
21
-107.588
0
LINE
8
BLACK
6
CONTINUOUS
10
106.959
20
-107.588
11
106.957
21
-107.583
0
LINE
8
BLACK
6
CONTINUOUS
10
106.957
20
-107.583
11
106.957
21
-107.58
0
LINE
8
BLACK
6
CONTINUOUS
10
106.957
20
-107.58
11
106.92
21
-107.461
0
LINE
8
BLACK
6
CONTINUOUS
10
106.92
20
-107.461
11
106.919
21
-107.458
0
LINE
8
BLACK
6
CONTINUOUS
10
106.919
20
-107.458
11
106.918
21
-107.453
0
LINE
8
BLACK
6
CONTINUOUS
10
106.918
20
-107.453
11
106.917
21
-107.449
0
LINE
8
BLACK
6
CONTINUOUS
10
106.917
20
-107.449
11
106.917
21
-107.446
0
LINE
8
BLACK
6
CONTINUOUS
10
106.917
20
-107.446
11
106.904
21
-107.32
0
LINE
8
BLACK
6
CONTINUOUS
10
106.904
20
-107.32
11
106.904
21
-107.32
0
LINE
8
BLACK
6
CONTINUOUS
10
106.904
20
-107.32
11
106.903
21
-107.315
0
LINE
8
BLACK
6
CONTINUOUS
10
106.903
20
-107.315
11
106.903
21
-107.312
0
LINE
8
BLACK
6
CONTINUOUS
10
106.903
20
-107.312
11
106.903
21
-107.312
0
LINE
8
BLACK
6
CONTINUOUS
10
106.903
20
-107.312
11
106.903
21
-107.312
0
LINE
8
BLACK
6
CONTINUOUS
10
106.903
20
-107.312
11
106.903
21
-107.309
0
LINE
8
BLACK
6
CONTINUOUS
10
106.903
20
-107.309
11
106.903
21
-107.305
0
LINE
8
BLACK
6
CONTINUOUS
10
106.903
20
-107.305
11
106.903
21
-107.305
0
LINE
8
BLACK
6
CONTINUOUS
10
106.903
20
-107.305
11
106.903
21
-87.7072
0
LINE
8
BLACK
6
CONTINUOUS
10
106.903
20
-87.7072
11
106.903
21
-87.7071
0
LINE
8
BLACK
6
CONTINUOUS
10
106.903
20
-87.7071
11
106.903
21
-87.7026
0
LINE
8
BLACK
6
CONTINUOUS
10
106.903
20
-87.7026
11
106.903
21
-87.6998
0
LINE
8
BLACK
6
CONTINUOUS
10
106.903
20
-87.6998
11
106.903
21
-87.6998
0
LINE
8
BLACK
6
CONTINUOUS
10
106.903
20
-87.6998
11
106.903
21
-87.6997
0
LINE
8
BLACK
6
CONTINUOUS
10
106.903
20
-87.6997
11
106.904
21
-87.6969
0
LINE
8
BLACK
6
CONTINUOUS
10
106.904
20
-87.6969
11
106.904
21
-87.6925
0
LINE
8
BLACK
6
CONTINUOUS
10
106.904
20
-87.6925
11
106.904
21
-87.6924
0
LINE
8
BLACK
6
CONTINUOUS
10
106.904
20
-87.6924
11
106.917
21
-87.566
0
LINE
8
BLACK
6
CONTINUOUS
10
106.917
20
-87.566
11
106.917
21
-87.5635
0
LINE
8
BLACK
6
CONTINUOUS
10
106.917
20
-87.5635
11
106.918
21
-87.5588
0
LINE
8
BLACK
6
CONTINUOUS
10
106.918
20
-87.5588
11
106.919
21
-87.554
0
LINE
8
BLACK
6
CONTINUOUS
10
106.919
20
-87.554
11
106.92
21
-87.5516
0
LINE
8
BLACK
6
CONTINUOUS
10
106.92
20
-87.5516
11
106.957
21
-87.4319
0
LINE
8
BLACK
6
CONTINUOUS
10
106.957
20
-87.4319
11
106.957
21
-87.4295
0
LINE
8
BLACK
6
CONTINUOUS
10
106.957
20
-87.4295
11
106.959
21
-87.4242
0
LINE
8
BLACK
6
CONTINUOUS
10
106.959
20
-87.4242
11
106.961
21
-87.4204
0
LINE
8
BLACK
6
CONTINUOUS
10
106.961
20
-87.4204
11
106.962
21
-87.4184
0
LINE
8
BLACK
6
CONTINUOUS
10
106.962
20
-87.4184
11
107.021
21
-87.3104
0
LINE
8
BLACK
6
CONTINUOUS
10
107.021
20
-87.3104
11
107.022
21
-87.3082
0
LINE
8
BLACK
6
CONTINUOUS
10
107.022
20
-87.3082
11
107.023
21
-87.3061
0
LINE
8
BLACK
6
CONTINUOUS
10
107.023
20
-87.3061
11
107.023
21
-87.306
0
LINE
8
BLACK
6
CONTINUOUS
10
107.023
20
-87.306
11
107.025
21
-87.3037
0
LINE
8
BLACK
6
CONTINUOUS
10
107.025
20
-87.3037
11
107.026
21
-87.302
0
LINE
8
BLACK
6
CONTINUOUS
10
107.026
20
-87.302
11
107.026
21
-87.302
0
LINE
8
BLACK
6
CONTINUOUS
10
107.026
20
-87.302
11
107.027
21
-87.2999
0
LINE
8
BLACK
6
CONTINUOUS
10
107.027
20
-87.2999
11
107.029
21
-87.2982
0
LINE
8
BLACK
6
CONTINUOUS
10
107.029
20
-87.2982
11
107.106
21
-87.2043
0
LINE
8
BLACK
6
CONTINUOUS
10
107.106
20
-87.2043
11
107.108
21
-87.2024
0
LINE
8
BLACK
6
CONTINUOUS
10
107.108
20
-87.2024
11
107.109
21
-87.2005
0
LINE
8
BLACK
6
CONTINUOUS
10
107.109
20
-87.2005
11
107.11
21
-87.2004
0
LINE
8
BLACK
6
CONTINUOUS
10
107.11
20
-87.2004
11
107.111
21
-87.1986
0
LINE
8
BLACK
6
CONTINUOUS
10
107.111
20
-87.1986
11
107.113
21
-87.1971
0
LINE
8
BLACK
6
CONTINUOUS
10
107.113
20
-87.1971
11
107.113
21
-87.1971
0
LINE
8
BLACK
6
CONTINUOUS
10
107.113
20
-87.1971
11
107.115
21
-87.1952
0
LINE
8
BLACK
6
CONTINUOUS
10
107.115
20
-87.1952
11
107.117
21
-87.1939
0
LINE
8
BLACK
6
CONTINUOUS
10
107.117
20
-87.1939
11
107.211
21
-87.1165
0
LINE
8
BLACK
6
CONTINUOUS
10
107.211
20
-87.1165
11
107.212
21
-87.1148
0
LINE
8
BLACK
6
CONTINUOUS
10
107.212
20
-87.1148
11
107.214
21
-87.1134
0
LINE
8
BLACK
6
CONTINUOUS
10
107.214
20
-87.1134
11
107.214
21
-87.1134
0
LINE
8
BLACK
6
CONTINUOUS
10
107.214
20
-87.1134
11
107.217
21
-87.1119
0
LINE
8
BLACK
6
CONTINUOUS
10
107.217
20
-87.1119
11
107.218
21
-87.1107
0
LINE
8
BLACK
6
CONTINUOUS
10
107.218
20
-87.1107
11
107.218
21
-87.1107
0
LINE
8
BLACK
6
CONTINUOUS
10
107.218
20
-87.1107
11
107.221
21
-87.1092
0
LINE
8
BLACK
6
CONTINUOUS
10
107.221
20
-87.1092
11
107.223
21
-87.1083
0
LINE
8
BLACK
6
CONTINUOUS
10
107.223
20
-87.1083
11
107.331
21
-87.0498
0
LINE
8
BLACK
6
CONTINUOUS
10
107.331
20
-87.0498
11
107.333
21
-87.0485
0
LINE
8
BLACK
6
CONTINUOUS
10
107.333
20
-87.0485
11
107.337
21
-87.0465
0
LINE
8
BLACK
6
CONTINUOUS
10
107.337
20
-87.0465
11
107.342
21
-87.0446
0
LINE
8
BLACK
6
CONTINUOUS
10
107.342
20
-87.0446
11
107.344
21
-87.0442
0
LINE
8
BLACK
6
CONTINUOUS
10
107.344
20
-87.0442
11
107.464
21
-87.0071
0
LINE
8
BLACK
6
CONTINUOUS
10
107.464
20
-87.0071
11
107.466
21
-87.0062
0
LINE
8
BLACK
6
CONTINUOUS
10
107.466
20
-87.0062
11
107.471
21
-87.0052
0
LINE
8
BLACK
6
CONTINUOUS
10
107.471
20
-87.0052
11
107.476
21
-87.0042
0
LINE
8
BLACK
6
CONTINUOUS
10
107.476
20
-87.0042
11
107.478
21
-87.0042
0
LINE
8
BLACK
6
CONTINUOUS
10
107.478
20
-87.0042
11
107.605
21
-86.9916
0
LINE
8
BLACK
6
CONTINUOUS
10
107.605
20
-86.9916
11
107.605
21
-86.9915
0
LINE
8
BLACK
6
CONTINUOUS
10
107.605
20
-86.9915
11
107.61
21
-86.9911
0
LINE
8
BLACK
6
CONTINUOUS
10
107.61
20
-86.9911
11
107.612
21
-86.9908
0
LINE
8
BLACK
6
CONTINUOUS
10
107.612
20
-86.9908
11
107.612
21
-86.9908
0
LINE
8
BLACK
6
CONTINUOUS
10
107.612
20
-86.9908
11
107.612
21
-86.9908
0
LINE
8
BLACK
6
CONTINUOUS
10
107.612
20
-86.9908
11
107.616
21
-86.9908
0
LINE
8
BLACK
6
CONTINUOUS
10
107.616
20
-86.9908
11
107.62
21
-86.9908
0
LINE
8
BLACK
6
CONTINUOUS
10
107.62
20
-86.9908
11
107.62
21
-86.9908
0
LINE
8
BLACK
6
CONTINUOUS
10
107.62
20
-86.9908
11
110.839
21
-86.9908
0
LINE
8
BLACK
6
CONTINUOUS
10
110.839
20
-86.9908
11
110.839
21
-86.9908
0
LINE
8
BLACK
6
CONTINUOUS
10
110.839
20
-86.9908
11
110.843
21
-86.9908
0
LINE
8
BLACK
6
CONTINUOUS
10
107.617
20
-87.0908
11
107.491
21
-87.1035
0
LINE
8
BLACK
6
CONTINUOUS
10
107.491
20
-87.1035
11
107.376
21
-87.139
0
LINE
8
BLACK
6
CONTINUOUS
10
107.376
20
-87.139
11
107.272
21
-87.1952
0
LINE
8
BLACK
6
CONTINUOUS
10
107.272
20
-87.1952
11
107.182
21
-87.2697
0
LINE
8
BLACK
6
CONTINUOUS
10
107.182
20
-87.2697
11
107.108
21
-87.36
0
LINE
8
BLACK
6
CONTINUOUS
10
107.108
20
-87.36
11
107.051
21
-87.4638
0
LINE
8
BLACK
6
CONTINUOUS
10
107.051
20
-87.4638
11
107.016
21
-87.5786
0
LINE
8
BLACK
6
CONTINUOUS
10
107.016
20
-87.5786
11
107.003
21
-87.7048
0
LINE
8
BLACK
6
CONTINUOUS
10
107.003
20
-87.7048
11
107.003
21
-107.307
0
LINE
8
BLACK
6
CONTINUOUS
10
107.003
20
-107.307
11
107.016
21
-107.434
0
LINE
8
BLACK
6
CONTINUOUS
10
107.016
20
-107.434
11
107.051
21
-107.548
0
LINE
8
BLACK
6
CONTINUOUS
10
107.051
20
-107.548
11
107.108
21
-107.652
0
LINE
8
BLACK
6
CONTINUOUS
10
107.108
20
-107.652
11
107.182
21
-107.743
0
LINE
8
BLACK
6
CONTINUOUS
10
107.182
20
-107.743
11
107.272
21
-107.817
0
LINE
8
BLACK
6
CONTINUOUS
10
107.272
20
-107.817
11
107.376
21
-107.873
0
LINE
8
BLACK
6
CONTINUOUS
10
107.376
20
-107.873
11
107.491
21
-107.909
0
LINE
8
BLACK
6
CONTINUOUS
10
107.491
20
-107.909
11
107.617
21
-107.921
0
LINE
8
BLACK
6
CONTINUOUS
10
107.617
20
-107.921
11
110.841
21
-107.921
0
LINE
8
BLACK
6
CONTINUOUS
10
110.841
20
-107.921
11
110.967
21
-107.909
0
LINE
8
BLACK
6
CONTINUOUS
10
110.967
20
-107.909
11
111.082
21
-107.873
0
LINE
8
BLACK
6
CONTINUOUS
10
111.082
20
-107.873
11
111.186
21
-107.817
0
LINE
8
BLACK
6
CONTINUOUS
10
111.186
20
-107.817
11
111.276
21
-107.742
0
LINE
8
BLACK
6
CONTINUOUS
10
111.276
20
-107.742
11
111.351
21
-107.652
0
LINE
8
BLACK
6
CONTINUOUS
10
111.351
20
-107.652
11
111.407
21
-107.548
0
LINE
8
BLACK
6
CONTINUOUS
10
111.407
20
-107.548
11
111.442
21
-107.434
0
LINE
8
BLACK
6
CONTINUOUS
10
111.442
20
-107.434
11
111.455
21
-107.307
0
LINE
8
BLACK
6
CONTINUOUS
10
111.455
20
-107.307
11
111.455
21
-87.7048
0
LINE
8
BLACK
6
CONTINUOUS
10
111.455
20
-87.7048
11
111.442
21
-87.5786
0
LINE
8
BLACK
6
CONTINUOUS
10
111.442
20
-87.5786
11
111.407
21
-87.4638
0
LINE
8
BLACK
6
CONTINUOUS
10
111.407
20
-87.4638
11
111.351
21
-87.36
0
LINE
8
BLACK
6
CONTINUOUS
10
111.351
20
-87.36
11
111.276
21
-87.2697
0
LINE
8
BLACK
6
CONTINUOUS
10
111.276
20
-87.2697
11
111.186
21
-87.1952
0
LINE
8
BLACK
6
CONTINUOUS
10
111.186
20
-87.1952
11
111.082
21
-87.139
0
LINE
8
BLACK
6
CONTINUOUS
10
111.082
20
-87.139
11
110.967
21
-87.1035
0
LINE
8
BLACK
6
CONTINUOUS
10
110.967
20
-87.1035
11
110.841
21
-87.0908
0
LINE
8
BLACK
6
CONTINUOUS
10
110.841
20
-87.0908
11
107.617
21
-87.0908
0
LINE
8
BLACK
6
CONTINUOUS
10
138.942
20
-77.2064
11
138.943
21
-77.2064
0
LINE
8
BLACK
6
CONTINUOUS
10
138.943
20
-77.2064
11
138.945
21
-77.2065
0
LINE
8
BLACK
6
CONTINUOUS
10
138.945
20
-77.2065
11
138.948
21
-77.2067
0
LINE
8
BLACK
6
CONTINUOUS
10
138.948
20
-77.2067
11
138.948
21
-77.2067
0
LINE
8
BLACK
6
CONTINUOUS
10
138.948
20
-77.2067
11
139.092
21
-77.214
0
LINE
8
BLACK
6
CONTINUOUS
10
139.092
20
-77.214
11
139.092
21
-77.2139
0
LINE
8
BLACK
6
CONTINUOUS
10
139.092
20
-77.2139
11
139.097
21
-77.2142
0
LINE
8
BLACK
6
CONTINUOUS
10
139.097
20
-77.2142
11
139.099
21
-77.2143
0
LINE
8
BLACK
6
CONTINUOUS
10
139.099
20
-77.2143
11
139.099
21
-77.2143
0
LINE
8
BLACK
6
CONTINUOUS
10
139.099
20
-77.2143
11
139.099
21
-77.2143
0
LINE
8
BLACK
6
CONTINUOUS
10
139.099
20
-77.2143
11
139.102
21
-77.2147
0
LINE
8
BLACK
6
CONTINUOUS
10
139.102
20
-77.2147
11
139.107
21
-77.2154
0
LINE
8
BLACK
6
CONTINUOUS
10
139.107
20
-77.2154
11
139.107
21
-77.2154
0
LINE
8
BLACK
6
CONTINUOUS
10
139.107
20
-77.2154
11
139.247
21
-77.2369
0
LINE
8
BLACK
6
CONTINUOUS
10
139.247
20
-77.2369
11
139.248
21
-77.2369
0
LINE
8
BLACK
6
CONTINUOUS
10
139.248
20
-77.2369
11
139.252
21
-77.2376
0
LINE
8
BLACK
6
CONTINUOUS
10
139.252
20
-77.2376
11
139.253
21
-77.2378
0
LINE
8
BLACK
6
CONTINUOUS
10
139.253
20
-77.2378
11
139.254
21
-77.2381
0
LINE
8
BLACK
6
CONTINUOUS
10
139.254
20
-77.2381
11
139.256
21
-77.2384
0
LINE
8
BLACK
6
CONTINUOUS
10
139.256
20
-77.2384
11
139.257
21
-77.2387
0
LINE
8
BLACK
6
CONTINUOUS
10
139.257
20
-77.2387
11
139.26
21
-77.2396
0
LINE
8
BLACK
6
CONTINUOUS
10
139.26
20
-77.2396
11
139.262
21
-77.2402
0
LINE
8
BLACK
6
CONTINUOUS
10
139.262
20
-77.2402
11
139.537
21
-77.3257
0
LINE
8
BLACK
6
CONTINUOUS
10
139.537
20
-77.3257
11
139.54
21
-77.3262
0
LINE
8
BLACK
6
CONTINUOUS
10
139.54
20
-77.3262
11
139.542
21
-77.3272
0
LINE
8
BLACK
6
CONTINUOUS
10
139.542
20
-77.3272
11
139.542
21
-77.3272
0
LINE
8
BLACK
6
CONTINUOUS
10
139.542
20
-77.3272
11
139.549
21
-77.33
0
LINE
8
BLACK
6
CONTINUOUS
10
139.549
20
-77.33
11
139.551
21
-77.3314
0
LINE
8
BLACK
6
CONTINUOUS
10
139.551
20
-77.3314
11
139.801
21
-77.4673
0
LINE
8
BLACK
6
CONTINUOUS
10
139.801
20
-77.4673
11
139.803
21
-77.4682
0
LINE
8
BLACK
6
CONTINUOUS
10
139.803
20
-77.4682
11
139.806
21
-77.4696
0
LINE
8
BLACK
6
CONTINUOUS
10
139.806
20
-77.4696
11
139.806
21
-77.4697
0
LINE
8
BLACK
6
CONTINUOUS
10
139.806
20
-77.4697
11
139.808
21
-77.4711
0
LINE
8
BLACK
6
CONTINUOUS
10
139.808
20
-77.4711
11
139.81
21
-77.4723
0
LINE
8
BLACK
6
CONTINUOUS
10
139.81
20
-77.4723
11
139.81
21
-77.4724
0
LINE
8
BLACK
6
CONTINUOUS
10
139.81
20
-77.4724
11
139.812
21
-77.4738
0
LINE
8
BLACK
6
CONTINUOUS
10
139.812
20
-77.4738
11
139.813
21
-77.4755
0
LINE
8
BLACK
6
CONTINUOUS
10
139.813
20
-77.4755
11
140.031
21
-77.6554
0
LINE
8
BLACK
6
CONTINUOUS
10
140.031
20
-77.6554
11
140.033
21
-77.6566
0
LINE
8
BLACK
6
CONTINUOUS
10
140.033
20
-77.6566
11
140.035
21
-77.6585
0
LINE
8
BLACK
6
CONTINUOUS
10
140.035
20
-77.6585
11
140.035
21
-77.6586
0
LINE
8
BLACK
6
CONTINUOUS
10
140.035
20
-77.6586
11
140.037
21
-77.6603
0
LINE
8
BLACK
6
CONTINUOUS
10
140.037
20
-77.6603
11
140.039
21
-77.6619
0
LINE
8
BLACK
6
CONTINUOUS
10
140.039
20
-77.6619
11
140.039
21
-77.6619
0
LINE
8
BLACK
6
CONTINUOUS
10
140.039
20
-77.6619
11
140.041
21
-77.6638
0
LINE
8
BLACK
6
CONTINUOUS
10
140.041
20
-77.6638
11
140.042
21
-77.6657
0
LINE
8
BLACK
6
CONTINUOUS
10
140.042
20
-77.6657
11
140.222
21
-77.8837
0
LINE
8
BLACK
6
CONTINUOUS
10
140.222
20
-77.8837
11
140.223
21
-77.8854
0
LINE
8
BLACK
6
CONTINUOUS
10
140.223
20
-77.8854
11
140.225
21
-77.8875
0
LINE
8
BLACK
6
CONTINUOUS
10
140.225
20
-77.8875
11
140.225
21
-77.8876
0
LINE
8
BLACK
6
CONTINUOUS
10
140.225
20
-77.8876
11
140.226
21
-77.8896
0
LINE
8
BLACK
6
CONTINUOUS
10
140.226
20
-77.8896
11
140.228
21
-77.8915
0
LINE
8
BLACK
6
CONTINUOUS
10
140.228
20
-77.8915
11
140.228
21
-77.8916
0
LINE
8
BLACK
6
CONTINUOUS
10
140.228
20
-77.8916
11
140.229
21
-77.8937
0
LINE
8
BLACK
6
CONTINUOUS
10
140.229
20
-77.8937
11
140.23
21
-77.8959
0
LINE
8
BLACK
6
CONTINUOUS
10
140.23
20
-77.8959
11
140.366
21
-78.1463
0
LINE
8
BLACK
6
CONTINUOUS
10
140.366
20
-78.1463
11
140.367
21
-78.1483
0
LINE
8
BLACK
6
CONTINUOUS
10
140.367
20
-78.1483
11
140.368
21
-78.1505
0
LINE
8
BLACK
6
CONTINUOUS
10
140.368
20
-78.1505
11
140.368
21
-78.1506
0
LINE
8
BLACK
6
CONTINUOUS
10
140.368
20
-78.1506
11
140.371
21
-78.1574
0
LINE
8
BLACK
6
CONTINUOUS
10
140.371
20
-78.1574
11
140.372
21
-78.1598
0
LINE
8
BLACK
6
CONTINUOUS
10
140.372
20
-78.1598
11
140.457
21
-78.4355
0
LINE
8
BLACK
6
CONTINUOUS
10
140.457
20
-78.4355
11
140.458
21
-78.4367
0
LINE
8
BLACK
6
CONTINUOUS
10
140.458
20
-78.4367
11
140.459
21
-78.4402
0
LINE
8
BLACK
6
CONTINUOUS
10
140.459
20
-78.4402
11
140.459
21
-78.4413
0
LINE
8
BLACK
6
CONTINUOUS
10
140.459
20
-78.4413
11
140.459
21
-78.4426
0
LINE
8
BLACK
6
CONTINUOUS
10
140.459
20
-78.4426
11
140.46
21
-78.4438
0
LINE
8
BLACK
6
CONTINUOUS
10
140.46
20
-78.4438
11
140.46
21
-78.445
0
LINE
8
BLACK
6
CONTINUOUS
10
140.46
20
-78.445
11
140.461
21
-78.4485
0
LINE
8
BLACK
6
CONTINUOUS
10
140.461
20
-78.4485
11
140.461
21
-78.4498
0
LINE
8
BLACK
6
CONTINUOUS
10
140.461
20
-78.4498
11
140.482
21
-78.5904
0
LINE
8
BLACK
6
CONTINUOUS
10
140.482
20
-78.5904
11
140.482
21
-78.5904
0
LINE
8
BLACK
6
CONTINUOUS
10
140.482
20
-78.5904
11
140.483
21
-78.595
0
LINE
8
BLACK
6
CONTINUOUS
10
140.483
20
-78.595
11
140.483
21
-78.5976
0
LINE
8
BLACK
6
CONTINUOUS
10
140.483
20
-78.5976
11
140.483
21
-78.5977
0
LINE
8
BLACK
6
CONTINUOUS
10
140.483
20
-78.5977
11
140.483
21
-78.5977
0
LINE
8
BLACK
6
CONTINUOUS
10
140.483
20
-78.5977
11
140.483
21
-78.6003
0
LINE
8
BLACK
6
CONTINUOUS
10
140.483
20
-78.6003
11
140.484
21
-78.605
0
LINE
8
BLACK
6
CONTINUOUS
10
140.484
20
-78.605
11
140.484
21
-78.605
0
LINE
8
BLACK
6
CONTINUOUS
10
140.484
20
-78.605
11
140.491
21
-78.7499
0
LINE
8
BLACK
6
CONTINUOUS
10
140.491
20
-78.7499
11
140.491
21
-78.7512
0
LINE
8
BLACK
6
CONTINUOUS
10
140.491
20
-78.7512
11
140.491
21
-78.7548
0
LINE
8
BLACK
6
CONTINUOUS
10
140.491
20
-78.7548
11
140.491
21
-78.756
0
LINE
8
BLACK
6
CONTINUOUS
10
140.491
20
-78.756
11
140.491
21
-78.7572
0
LINE
8
BLACK
6
CONTINUOUS
10
140.491
20
-78.7572
11
140.491
21
-78.7585
0
LINE
8
BLACK
6
CONTINUOUS
10
140.491
20
-78.7585
11
140.491
21
-78.7597
0
LINE
8
BLACK
6
CONTINUOUS
10
140.491
20
-78.7597
11
140.491
21
-78.7634
0
LINE
8
BLACK
6
CONTINUOUS
10
140.491
20
-78.7634
11
140.491
21
-78.7646
0
LINE
8
BLACK
6
CONTINUOUS
10
140.491
20
-78.7646
11
140.462
21
-79.0526
0
LINE
8
BLACK
6
CONTINUOUS
10
140.462
20
-79.0526
11
140.462
21
-79.0551
0
LINE
8
BLACK
6
CONTINUOUS
10
140.462
20
-79.0551
11
140.461
21
-79.0583
0
LINE
8
BLACK
6
CONTINUOUS
10
140.461
20
-79.0583
11
140.46
21
-79.0647
0
LINE
8
BLACK
6
CONTINUOUS
10
140.46
20
-79.0647
11
140.459
21
-79.067
0
LINE
8
BLACK
6
CONTINUOUS
10
140.459
20
-79.067
11
140.376
21
-79.3423
0
LINE
8
BLACK
6
CONTINUOUS
10
140.376
20
-79.3423
11
140.375
21
-79.3447
0
LINE
8
BLACK
6
CONTINUOUS
10
140.375
20
-79.3447
11
140.374
21
-79.347
0
LINE
8
BLACK
6
CONTINUOUS
10
140.374
20
-79.347
11
140.374
21
-79.347
0
LINE
8
BLACK
6
CONTINUOUS
10
140.374
20
-79.347
11
140.373
21
-79.3493
0
LINE
8
BLACK
6
CONTINUOUS
10
140.373
20
-79.3493
11
140.372
21
-79.3516
0
LINE
8
BLACK
6
CONTINUOUS
10
140.372
20
-79.3516
11
140.372
21
-79.3516
0
LINE
8
BLACK
6
CONTINUOUS
10
140.372
20
-79.3516
11
140.371
21
-79.3539
0
LINE
8
BLACK
6
CONTINUOUS
10
140.371
20
-79.3539
11
140.37
21
-79.3559
0
LINE
8
BLACK
6
CONTINUOUS
10
140.37
20
-79.3559
11
140.234
21
-79.6098
0
LINE
8
BLACK
6
CONTINUOUS
10
140.234
20
-79.6098
11
140.233
21
-79.6121
0
LINE
8
BLACK
6
CONTINUOUS
10
140.233
20
-79.6121
11
140.229
21
-79.6182
0
LINE
8
BLACK
6
CONTINUOUS
10
140.229
20
-79.6182
11
140.228
21
-79.6202
0
LINE
8
BLACK
6
CONTINUOUS
10
140.228
20
-79.6202
11
140.226
21
-79.622
0
LINE
8
BLACK
6
CONTINUOUS
10
140.226
20
-79.622
11
140.042
21
-79.8467
0
LINE
8
BLACK
6
CONTINUOUS
10
140.042
20
-79.8467
11
140.041
21
-79.8488
0
LINE
8
BLACK
6
CONTINUOUS
10
140.041
20
-79.8488
11
140.037
21
-79.8529
0
LINE
8
BLACK
6
CONTINUOUS
10
140.037
20
-79.8529
11
140.034
21
-79.8557
0
LINE
8
BLACK
6
CONTINUOUS
10
140.034
20
-79.8557
11
140.032
21
-79.8571
0
LINE
8
BLACK
6
CONTINUOUS
10
140.032
20
-79.8571
11
139.807
21
-80.0413
0
LINE
8
BLACK
6
CONTINUOUS
10
139.807
20
-80.0413
11
139.805
21
-80.0431
0
LINE
8
BLACK
6
CONTINUOUS
10
139.805
20
-80.0431
11
139.799
21
-80.0472
0
LINE
8
BLACK
6
CONTINUOUS
10
139.799
20
-80.0472
11
139.797
21
-80.0485
0
LINE
8
BLACK
6
CONTINUOUS
10
139.797
20
-80.0485
11
139.795
21
-80.0495
0
LINE
8
BLACK
6
CONTINUOUS
10
139.795
20
-80.0495
11
139.541
21
-80.185
0
LINE
8
BLACK
6
CONTINUOUS
10
139.541
20
-80.185
11
139.539
21
-80.1864
0
LINE
8
BLACK
6
CONTINUOUS
10
139.539
20
-80.1864
11
139.536
21
-80.1873
0
LINE
8
BLACK
6
CONTINUOUS
10
139.536
20
-80.1873
11
139.536
21
-80.1873
0
LINE
8
BLACK
6
CONTINUOUS
10
139.536
20
-80.1873
11
139.535
21
-80.1878
0
LINE
8
BLACK
6
CONTINUOUS
10
139.535
20
-80.1878
11
139.532
21
-80.1892
0
LINE
8
BLACK
6
CONTINUOUS
10
139.532
20
-80.1892
11
139.532
21
-80.1892
0
LINE
8
BLACK
6
CONTINUOUS
10
139.532
20
-80.1892
11
139.53
21
-80.1902
0
LINE
8
BLACK
6
CONTINUOUS
10
139.53
20
-80.1902
11
139.527
21
-80.1906
0
LINE
8
BLACK
6
CONTINUOUS
10
139.527
20
-80.1906
11
139.252
21
-80.2743
0
LINE
8
BLACK
6
CONTINUOUS
10
139.252
20
-80.2743
11
139.25
21
-80.2752
0
LINE
8
BLACK
6
CONTINUOUS
10
139.25
20
-80.2752
11
139.247
21
-80.2757
0
LINE
8
BLACK
6
CONTINUOUS
10
139.247
20
-80.2757
11
139.24
21
-80.2772
0
LINE
8
BLACK
6
CONTINUOUS
10
139.24
20
-80.2772
11
139.237
21
-80.2772
0
LINE
8
BLACK
6
CONTINUOUS
10
139.237
20
-80.2772
11
138.948
21
-80.3057
0
LINE
8
BLACK
6
CONTINUOUS
10
138.948
20
-80.3057
11
138.946
21
-80.3062
0
LINE
8
BLACK
6
CONTINUOUS
10
138.946
20
-80.3062
11
138.941
21
-80.3062
0
LINE
8
BLACK
6
CONTINUOUS
10
138.941
20
-80.3062
11
138.936
21
-80.3062
0
LINE
8
BLACK
6
CONTINUOUS
10
138.936
20
-80.3062
11
138.934
21
-80.3057
0
LINE
8
BLACK
6
CONTINUOUS
10
138.934
20
-80.3057
11
138.644
21
-80.2772
0
LINE
8
BLACK
6
CONTINUOUS
10
138.644
20
-80.2772
11
138.642
21
-80.2772
0
LINE
8
BLACK
6
CONTINUOUS
10
138.642
20
-80.2772
11
138.635
21
-80.2757
0
LINE
8
BLACK
6
CONTINUOUS
10
138.635
20
-80.2757
11
138.635
21
-80.2757
0
LINE
8
BLACK
6
CONTINUOUS
10
138.635
20
-80.2757
11
138.632
21
-80.2752
0
LINE
8
BLACK
6
CONTINUOUS
10
138.632
20
-80.2752
11
138.63
21
-80.2743
0
LINE
8
BLACK
6
CONTINUOUS
10
138.63
20
-80.2743
11
138.355
21
-80.1906
0
LINE
8
BLACK
6
CONTINUOUS
10
138.355
20
-80.1906
11
138.352
21
-80.1902
0
LINE
8
BLACK
6
CONTINUOUS
10
138.352
20
-80.1902
11
138.35
21
-80.1892
0
LINE
8
BLACK
6
CONTINUOUS
10
138.35
20
-80.1892
11
138.35
21
-80.1892
0
LINE
8
BLACK
6
CONTINUOUS
10
138.35
20
-80.1892
11
138.348
21
-80.1885
0
LINE
8
BLACK
6
CONTINUOUS
10
138.348
20
-80.1885
11
138.345
21
-80.1873
0
LINE
8
BLACK
6
CONTINUOUS
10
138.345
20
-80.1873
11
138.345
21
-80.1873
0
LINE
8
BLACK
6
CONTINUOUS
10
138.345
20
-80.1873
11
138.343
21
-80.1864
0
LINE
8
BLACK
6
CONTINUOUS
10
138.343
20
-80.1864
11
138.341
21
-80.185
0
LINE
8
BLACK
6
CONTINUOUS
10
138.341
20
-80.185
11
138.087
21
-80.0495
0
LINE
8
BLACK
6
CONTINUOUS
10
138.087
20
-80.0495
11
138.085
21
-80.0486
0
LINE
8
BLACK
6
CONTINUOUS
10
138.085
20
-80.0486
11
138.079
21
-80.0445
0
LINE
8
BLACK
6
CONTINUOUS
10
138.079
20
-80.0445
11
138.079
21
-80.0444
0
LINE
8
BLACK
6
CONTINUOUS
10
138.079
20
-80.0444
11
138.077
21
-80.0431
0
LINE
8
BLACK
6
CONTINUOUS
10
138.077
20
-80.0431
11
138.075
21
-80.0414
0
LINE
8
BLACK
6
CONTINUOUS
10
138.075
20
-80.0414
11
137.85
21
-79.8571
0
LINE
8
BLACK
6
CONTINUOUS
10
137.85
20
-79.8571
11
137.848
21
-79.8557
0
LINE
8
BLACK
6
CONTINUOUS
10
137.848
20
-79.8557
11
137.845
21
-79.8521
0
LINE
8
BLACK
6
CONTINUOUS
10
137.845
20
-79.8521
11
137.841
21
-79.8488
0
LINE
8
BLACK
6
CONTINUOUS
10
137.841
20
-79.8488
11
137.84
21
-79.8467
0
LINE
8
BLACK
6
CONTINUOUS
10
137.84
20
-79.8467
11
137.656
21
-79.622
0
LINE
8
BLACK
6
CONTINUOUS
10
137.656
20
-79.622
11
137.654
21
-79.6202
0
LINE
8
BLACK
6
CONTINUOUS
10
137.654
20
-79.6202
11
137.65
21
-79.6141
0
LINE
8
BLACK
6
CONTINUOUS
10
137.65
20
-79.6141
11
137.65
21
-79.6141
0
LINE
8
BLACK
6
CONTINUOUS
10
137.65
20
-79.6141
11
137.648
21
-79.6121
0
LINE
8
BLACK
6
CONTINUOUS
10
137.648
20
-79.6121
11
137.648
21
-79.6098
0
LINE
8
BLACK
6
CONTINUOUS
10
137.648
20
-79.6098
11
137.512
21
-79.3559
0
LINE
8
BLACK
6
CONTINUOUS
10
137.512
20
-79.3559
11
137.511
21
-79.3539
0
LINE
8
BLACK
6
CONTINUOUS
10
137.511
20
-79.3539
11
137.51
21
-79.3516
0
LINE
8
BLACK
6
CONTINUOUS
10
137.51
20
-79.3516
11
137.51
21
-79.3516
0
LINE
8
BLACK
6
CONTINUOUS
10
137.51
20
-79.3516
11
137.509
21
-79.3504
0
LINE
8
BLACK
6
CONTINUOUS
10
137.509
20
-79.3504
11
137.508
21
-79.3471
0
LINE
8
BLACK
6
CONTINUOUS
10
137.508
20
-79.3471
11
137.508
21
-79.347
0
LINE
8
BLACK
6
CONTINUOUS
10
137.508
20
-79.347
11
137.507
21
-79.3447
0
LINE
8
BLACK
6
CONTINUOUS
10
137.507
20
-79.3447
11
137.506
21
-79.3424
0
LINE
8
BLACK
6
CONTINUOUS
10
137.506
20
-79.3424
11
137.423
21
-79.067
0
LINE
8
BLACK
6
CONTINUOUS
10
137.423
20
-79.067
11
137.422
21
-79.0647
0
LINE
8
BLACK
6
CONTINUOUS
10
137.422
20
-79.0647
11
137.421
21
-79.0583
0
LINE
8
BLACK
6
CONTINUOUS
10
137.421
20
-79.0583
11
137.42
21
-79.0551
0
LINE
8
BLACK
6
CONTINUOUS
10
137.42
20
-79.0551
11
137.42
21
-79.0526
0
LINE
8
BLACK
6
CONTINUOUS
10
137.42
20
-79.0526
11
137.391
21
-78.7646
0
LINE
8
BLACK
6
CONTINUOUS
10
137.391
20
-78.7646
11
137.391
21
-78.7634
0
LINE
8
BLACK
6
CONTINUOUS
10
137.391
20
-78.7634
11
137.391
21
-78.7597
0
LINE
8
BLACK
6
CONTINUOUS
10
137.391
20
-78.7597
11
137.391
21
-78.7585
0
LINE
8
BLACK
6
CONTINUOUS
10
137.391
20
-78.7585
11
137.391
21
-78.7572
0
LINE
8
BLACK
6
CONTINUOUS
10
137.391
20
-78.7572
11
137.391
21
-78.756
0
LINE
8
BLACK
6
CONTINUOUS
10
137.391
20
-78.756
11
137.391
21
-78.7548
0
LINE
8
BLACK
6
CONTINUOUS
10
137.391
20
-78.7548
11
137.391
21
-78.7512
0
LINE
8
BLACK
6
CONTINUOUS
10
137.391
20
-78.7512
11
137.391
21
-78.7499
0
LINE
8
BLACK
6
CONTINUOUS
10
137.391
20
-78.7499
11
137.398
21
-78.605
0
LINE
8
BLACK
6
CONTINUOUS
10
137.398
20
-78.605
11
137.398
21
-78.605
0
LINE
8
BLACK
6
CONTINUOUS
10
137.398
20
-78.605
11
137.399
21
-78.6003
0
LINE
8
BLACK
6
CONTINUOUS
10
137.399
20
-78.6003
11
137.399
21
-78.5977
0
LINE
8
BLACK
6
CONTINUOUS
10
137.399
20
-78.5977
11
137.399
21
-78.5977
0
LINE
8
BLACK
6
CONTINUOUS
10
137.399
20
-78.5977
11
137.399
21
-78.5976
0
LINE
8
BLACK
6
CONTINUOUS
10
137.399
20
-78.5976
11
137.399
21
-78.5951
0
LINE
8
BLACK
6
CONTINUOUS
10
137.399
20
-78.5951
11
137.4
21
-78.5904
0
LINE
8
BLACK
6
CONTINUOUS
10
137.4
20
-78.5904
11
137.4
21
-78.5904
0
LINE
8
BLACK
6
CONTINUOUS
10
137.4
20
-78.5904
11
137.421
21
-78.4498
0
LINE
8
BLACK
6
CONTINUOUS
10
137.421
20
-78.4498
11
137.421
21
-78.4485
0
LINE
8
BLACK
6
CONTINUOUS
10
137.421
20
-78.4485
11
137.422
21
-78.445
0
LINE
8
BLACK
6
CONTINUOUS
10
137.422
20
-78.445
11
137.422
21
-78.4438
0
LINE
8
BLACK
6
CONTINUOUS
10
137.422
20
-78.4438
11
137.423
21
-78.4426
0
LINE
8
BLACK
6
CONTINUOUS
10
137.423
20
-78.4426
11
137.423
21
-78.4413
0
LINE
8
BLACK
6
CONTINUOUS
10
137.423
20
-78.4413
11
137.423
21
-78.4402
0
LINE
8
BLACK
6
CONTINUOUS
10
137.423
20
-78.4402
11
137.424
21
-78.4367
0
LINE
8
BLACK
6
CONTINUOUS
10
137.424
20
-78.4367
11
137.425
21
-78.4355
0
LINE
8
BLACK
6
CONTINUOUS
10
137.425
20
-78.4355
11
137.51
21
-78.1598
0
LINE
8
BLACK
6
CONTINUOUS
10
137.51
20
-78.1598
11
137.511
21
-78.1574
0
LINE
8
BLACK
6
CONTINUOUS
10
137.511
20
-78.1574
11
137.512
21
-78.1551
0
LINE
8
BLACK
6
CONTINUOUS
10
137.512
20
-78.1551
11
137.512
21
-78.1551
0
LINE
8
BLACK
6
CONTINUOUS
10
137.512
20
-78.1551
11
137.515
21
-78.1483
0
LINE
8
BLACK
6
CONTINUOUS
10
137.515
20
-78.1483
11
137.516
21
-78.1462
0
LINE
8
BLACK
6
CONTINUOUS
10
137.516
20
-78.1462
11
137.652
21
-77.8959
0
LINE
8
BLACK
6
CONTINUOUS
10
137.652
20
-77.8959
11
137.653
21
-77.8937
0
LINE
8
BLACK
6
CONTINUOUS
10
137.653
20
-77.8937
11
137.654
21
-77.8916
0
LINE
8
BLACK
6
CONTINUOUS
10
137.654
20
-77.8916
11
137.654
21
-77.8915
0
LINE
8
BLACK
6
CONTINUOUS
10
137.654
20
-77.8915
11
137.656
21
-77.8893
0
LINE
8
BLACK
6
CONTINUOUS
10
137.656
20
-77.8893
11
137.657
21
-77.8876
0
LINE
8
BLACK
6
CONTINUOUS
10
137.657
20
-77.8876
11
137.657
21
-77.8875
0
LINE
8
BLACK
6
CONTINUOUS
10
137.657
20
-77.8875
11
137.659
21
-77.8854
0
LINE
8
BLACK
6
CONTINUOUS
10
137.659
20
-77.8854
11
137.66
21
-77.8837
0
LINE
8
BLACK
6
CONTINUOUS
10
137.66
20
-77.8837
11
137.84
21
-77.6657
0
LINE
8
BLACK
6
CONTINUOUS
10
137.84
20
-77.6657
11
137.841
21
-77.6638
0
LINE
8
BLACK
6
CONTINUOUS
10
137.841
20
-77.6638
11
137.843
21
-77.662
0
LINE
8
BLACK
6
CONTINUOUS
10
137.843
20
-77.662
11
137.843
21
-77.6619
0
LINE
8
BLACK
6
CONTINUOUS
10
137.843
20
-77.6619
11
137.845
21
-77.66
0
LINE
8
BLACK
6
CONTINUOUS
10
137.845
20
-77.66
11
137.847
21
-77.6586
0
LINE
8
BLACK
6
CONTINUOUS
10
137.847
20
-77.6586
11
137.847
21
-77.6585
0
LINE
8
BLACK
6
CONTINUOUS
10
137.847
20
-77.6585
11
137.849
21
-77.6566
0
LINE
8
BLACK
6
CONTINUOUS
10
137.849
20
-77.6566
11
137.851
21
-77.6553
0
LINE
8
BLACK
6
CONTINUOUS
10
137.851
20
-77.6553
11
138.069
21
-77.4755
0
LINE
8
BLACK
6
CONTINUOUS
10
138.069
20
-77.4755
11
138.07
21
-77.4738
0
LINE
8
BLACK
6
CONTINUOUS
10
138.07
20
-77.4738
11
138.072
21
-77.4724
0
LINE
8
BLACK
6
CONTINUOUS
10
138.072
20
-77.4724
11
138.072
21
-77.4723
0
LINE
8
BLACK
6
CONTINUOUS
10
138.072
20
-77.4723
11
138.074
21
-77.4709
0
LINE
8
BLACK
6
CONTINUOUS
10
138.074
20
-77.4709
11
138.076
21
-77.4697
0
LINE
8
BLACK
6
CONTINUOUS
10
138.076
20
-77.4697
11
138.076
21
-77.4696
0
LINE
8
BLACK
6
CONTINUOUS
10
138.076
20
-77.4696
11
138.079
21
-77.4682
0
LINE
8
BLACK
6
CONTINUOUS
10
138.079
20
-77.4682
11
138.081
21
-77.4673
0
LINE
8
BLACK
6
CONTINUOUS
10
138.081
20
-77.4673
11
138.331
21
-77.3314
0
LINE
8
BLACK
6
CONTINUOUS
10
138.331
20
-77.3314
11
138.333
21
-77.33
0
LINE
8
BLACK
6
CONTINUOUS
10
138.333
20
-77.33
11
138.335
21
-77.3291
0
LINE
8
BLACK
6
CONTINUOUS
10
138.335
20
-77.3291
11
138.335
21
-77.3291
0
LINE
8
BLACK
6
CONTINUOUS
10
138.335
20
-77.3291
11
138.342
21
-77.3262
0
LINE
8
BLACK
6
CONTINUOUS
10
138.342
20
-77.3262
11
138.345
21
-77.3257
0
LINE
8
BLACK
6
CONTINUOUS
10
138.345
20
-77.3257
11
138.62
21
-77.2402
0
LINE
8
BLACK
6
CONTINUOUS
10
138.62
20
-77.2402
11
138.622
21
-77.2396
0
LINE
8
BLACK
6
CONTINUOUS
10
138.622
20
-77.2396
11
138.625
21
-77.2387
0
LINE
8
BLACK
6
CONTINUOUS
10
138.625
20
-77.2387
11
138.626
21
-77.2384
0
LINE
8
BLACK
6
CONTINUOUS
10
138.626
20
-77.2384
11
138.627
21
-77.2381
0
LINE
8
BLACK
6
CONTINUOUS
10
138.627
20
-77.2381
11
138.629
21
-77.2378
0
LINE
8
BLACK
6
CONTINUOUS
10
138.629
20
-77.2378
11
138.63
21
-77.2376
0
LINE
8
BLACK
6
CONTINUOUS
10
138.63
20
-77.2376
11
138.633
21
-77.2369
0
LINE
8
BLACK
6
CONTINUOUS
10
138.633
20
-77.2369
11
138.635
21
-77.2369
0
LINE
8
BLACK
6
CONTINUOUS
10
138.635
20
-77.2369
11
138.775
21
-77.2154
0
LINE
8
BLACK
6
CONTINUOUS
10
138.775
20
-77.2154
11
138.775
21
-77.2154
0
LINE
8
BLACK
6
CONTINUOUS
10
138.775
20
-77.2154
11
138.78
21
-77.2147
0
LINE
8
BLACK
6
CONTINUOUS
10
138.78
20
-77.2147
11
138.782
21
-77.2143
0
LINE
8
BLACK
6
CONTINUOUS
10
138.782
20
-77.2143
11
138.783
21
-77.2143
0
LINE
8
BLACK
6
CONTINUOUS
10
138.783
20
-77.2143
11
138.783
21
-77.2143
0
LINE
8
BLACK
6
CONTINUOUS
10
138.783
20
-77.2143
11
138.785
21
-77.2142
0
LINE
8
BLACK
6
CONTINUOUS
10
138.785
20
-77.2142
11
138.79
21
-77.2139
0
LINE
8
BLACK
6
CONTINUOUS
10
138.79
20
-77.2139
11
138.79
21
-77.214
0
LINE
8
BLACK
6
CONTINUOUS
10
138.79
20
-77.214
11
138.934
21
-77.2067
0
LINE
8
BLACK
6
CONTINUOUS
10
138.934
20
-77.2067
11
138.934
21
-77.2067
0
LINE
8
BLACK
6
CONTINUOUS
10
138.934
20
-77.2067
11
138.937
21
-77.2065
0
LINE
8
BLACK
6
CONTINUOUS
10
138.937
20
-77.2065
11
138.939
21
-77.2064
0
LINE
8
BLACK
6
CONTINUOUS
10
138.939
20
-77.2064
11
138.94
21
-77.2064
0
LINE
8
BLACK
6
CONTINUOUS
10
138.94
20
-77.2064
11
138.941
21
-77.2064
0
LINE
8
BLACK
6
CONTINUOUS
10
138.941
20
-77.2064
11
138.941
21
-77.2064
0
LINE
8
BLACK
6
CONTINUOUS
10
138.941
20
-77.2064
11
138.941
21
-77.2064
0
LINE
8
BLACK
6
CONTINUOUS
10
138.941
20
-77.2064
11
138.942
21
-77.2064
0
LINE
8
BLACK
6
CONTINUOUS
10
138.793
20
-77.3139
11
138.65
21
-77.3357
0
LINE
8
BLACK
6
CONTINUOUS
10
138.65
20
-77.3357
11
138.377
21
-77.4205
0
LINE
8
BLACK
6
CONTINUOUS
10
138.377
20
-77.4205
11
138.13
21
-77.5541
0
LINE
8
BLACK
6
CONTINUOUS
10
138.13
20
-77.5541
11
137.916
21
-77.7311
0
LINE
8
BLACK
6
CONTINUOUS
10
137.916
20
-77.7311
11
137.739
21
-77.9456
0
LINE
8
BLACK
6
CONTINUOUS
10
137.739
20
-77.9456
11
137.605
21
-78.1918
0
LINE
8
BLACK
6
CONTINUOUS
10
137.605
20
-78.1918
11
137.52
21
-78.465
0
LINE
8
BLACK
6
CONTINUOUS
10
137.52
20
-78.465
11
137.498
21
-78.6078
0
LINE
8
BLACK
6
CONTINUOUS
10
137.498
20
-78.6078
11
137.491
21
-78.7549
0
LINE
8
BLACK
6
CONTINUOUS
10
137.491
20
-78.7549
11
137.519
21
-79.0403
0
LINE
8
BLACK
6
CONTINUOUS
10
137.519
20
-79.0403
11
137.601
21
-79.311
0
LINE
8
BLACK
6
CONTINUOUS
10
137.601
20
-79.311
11
137.735
21
-79.5605
0
LINE
8
BLACK
6
CONTINUOUS
10
137.735
20
-79.5605
11
137.916
21
-79.7814
0
LINE
8
BLACK
6
CONTINUOUS
10
137.916
20
-79.7814
11
138.137
21
-79.9624
0
LINE
8
BLACK
6
CONTINUOUS
10
138.137
20
-79.9624
11
138.386
21
-80.0957
0
LINE
8
BLACK
6
CONTINUOUS
10
138.386
20
-80.0957
11
138.657
21
-80.1779
0
LINE
8
BLACK
6
CONTINUOUS
10
138.657
20
-80.1779
11
138.941
21
-80.206
0
LINE
8
BLACK
6
CONTINUOUS
10
138.941
20
-80.206
11
139.225
21
-80.1779
0
LINE
8
BLACK
6
CONTINUOUS
10
139.225
20
-80.1779
11
139.496
21
-80.0957
0
LINE
8
BLACK
6
CONTINUOUS
10
139.496
20
-80.0957
11
139.745
21
-79.9624
0
LINE
8
BLACK
6
CONTINUOUS
10
139.745
20
-79.9624
11
139.966
21
-79.7814
0
LINE
8
BLACK
6
CONTINUOUS
10
139.966
20
-79.7814
11
140.147
21
-79.5605
0
LINE
8
BLACK
6
CONTINUOUS
10
140.147
20
-79.5605
11
140.281
21
-79.3109
0
LINE
8
BLACK
6
CONTINUOUS
10
140.281
20
-79.3109
11
140.363
21
-79.0403
0
LINE
8
BLACK
6
CONTINUOUS
10
140.363
20
-79.0403
11
140.391
21
-78.7549
0
LINE
8
BLACK
6
CONTINUOUS
10
140.391
20
-78.7549
11
140.384
21
-78.6078
0
LINE
8
BLACK
6
CONTINUOUS
10
140.384
20
-78.6078
11
140.362
21
-78.4651
0
LINE
8
BLACK
6
CONTINUOUS
10
140.362
20
-78.4651
11
140.277
21
-78.1918
0
LINE
8
BLACK
6
CONTINUOUS
10
140.277
20
-78.1918
11
140.143
21
-77.9456
0
LINE
8
BLACK
6
CONTINUOUS
10
140.143
20
-77.9456
11
139.966
21
-77.7311
0
LINE
8
BLACK
6
CONTINUOUS
10
139.966
20
-77.7311
11
139.752
21
-77.5541
0
LINE
8
BLACK
6
CONTINUOUS
10
139.752
20
-77.5541
11
139.505
21
-77.4205
0
LINE
8
BLACK
6
CONTINUOUS
10
139.505
20
-77.4205
11
139.232
21
-77.3357
0
LINE
8
BLACK
6
CONTINUOUS
10
139.232
20
-77.3357
11
139.089
21
-77.3139
0
LINE
8
BLACK
6
CONTINUOUS
10
139.089
20
-77.3139
11
138.941
21
-77.3065
0
LINE
8
BLACK
6
CONTINUOUS
10
138.941
20
-77.3065
11
138.793
21
-77.3139
0
LINE
8
BLACK
6
CONTINUOUS
10
101.442
20
-77.2064
11
101.443
21
-77.2064
0
LINE
8
BLACK
6
CONTINUOUS
10
101.443
20
-77.2064
11
101.445
21
-77.2065
0
LINE
8
BLACK
6
CONTINUOUS
10
101.445
20
-77.2065
11
101.448
21
-77.2067
0
LINE
8
BLACK
6
CONTINUOUS
10
101.448
20
-77.2067
11
101.448
21
-77.2067
0
LINE
8
BLACK
6
CONTINUOUS
10
101.448
20
-77.2067
11
101.592
21
-77.214
0
LINE
8
BLACK
6
CONTINUOUS
10
101.592
20
-77.214
11
101.592
21
-77.2139
0
LINE
8
BLACK
6
CONTINUOUS
10
101.592
20
-77.2139
11
101.597
21
-77.2142
0
LINE
8
BLACK
6
CONTINUOUS
10
101.597
20
-77.2142
11
101.599
21
-77.2143
0
LINE
8
BLACK
6
CONTINUOUS
10
101.599
20
-77.2143
11
101.599
21
-77.2143
0
LINE
8
BLACK
6
CONTINUOUS
10
101.599
20
-77.2143
11
101.599
21
-77.2143
0
LINE
8
BLACK
6
CONTINUOUS
10
101.599
20
-77.2143
11
101.602
21
-77.2147
0
LINE
8
BLACK
6
CONTINUOUS
10
101.602
20
-77.2147
11
101.607
21
-77.2154
0
LINE
8
BLACK
6
CONTINUOUS
10
101.607
20
-77.2154
11
101.607
21
-77.2154
0
LINE
8
BLACK
6
CONTINUOUS
10
101.607
20
-77.2154
11
101.747
21
-77.2369
0
LINE
8
BLACK
6
CONTINUOUS
10
101.747
20
-77.2369
11
101.748
21
-77.2369
0
LINE
8
BLACK
6
CONTINUOUS
10
101.748
20
-77.2369
11
101.752
21
-77.2376
0
LINE
8
BLACK
6
CONTINUOUS
10
101.752
20
-77.2376
11
101.753
21
-77.2378
0
LINE
8
BLACK
6
CONTINUOUS
10
101.753
20
-77.2378
11
101.754
21
-77.2381
0
LINE
8
BLACK
6
CONTINUOUS
10
101.754
20
-77.2381
11
101.756
21
-77.2384
0
LINE
8
BLACK
6
CONTINUOUS
10
101.756
20
-77.2384
11
101.757
21
-77.2387
0
LINE
8
BLACK
6
CONTINUOUS
10
101.757
20
-77.2387
11
101.76
21
-77.2396
0
LINE
8
BLACK
6
CONTINUOUS
10
101.76
20
-77.2396
11
101.761
21
-77.2402
0
LINE
8
BLACK
6
CONTINUOUS
10
101.761
20
-77.2402
11
102.037
21
-77.3257
0
LINE
8
BLACK
6
CONTINUOUS
10
102.037
20
-77.3257
11
102.04
21
-77.3262
0
LINE
8
BLACK
6
CONTINUOUS
10
102.04
20
-77.3262
11
102.042
21
-77.3272
0
LINE
8
BLACK
6
CONTINUOUS
10
102.042
20
-77.3272
11
102.042
21
-77.3272
0
LINE
8
BLACK
6
CONTINUOUS
10
102.042
20
-77.3272
11
102.049
21
-77.33
0
LINE
8
BLACK
6
CONTINUOUS
10
102.049
20
-77.33
11
102.051
21
-77.3314
0
LINE
8
BLACK
6
CONTINUOUS
10
102.051
20
-77.3314
11
102.301
21
-77.4673
0
LINE
8
BLACK
6
CONTINUOUS
10
102.301
20
-77.4673
11
102.303
21
-77.4682
0
LINE
8
BLACK
6
CONTINUOUS
10
102.303
20
-77.4682
11
102.305
21
-77.4696
0
LINE
8
BLACK
6
CONTINUOUS
10
102.305
20
-77.4696
11
102.306
21
-77.4697
0
LINE
8
BLACK
6
CONTINUOUS
10
102.306
20
-77.4697
11
102.308
21
-77.4712
0
LINE
8
BLACK
6
CONTINUOUS
10
102.308
20
-77.4712
11
102.309
21
-77.4723
0
LINE
8
BLACK
6
CONTINUOUS
10
102.309
20
-77.4723
11
102.31
21
-77.4724
0
LINE
8
BLACK
6
CONTINUOUS
10
102.31
20
-77.4724
11
102.312
21
-77.4738
0
LINE
8
BLACK
6
CONTINUOUS
10
102.312
20
-77.4738
11
102.313
21
-77.4755
0
LINE
8
BLACK
6
CONTINUOUS
10
102.313
20
-77.4755
11
102.531
21
-77.6554
0
LINE
8
BLACK
6
CONTINUOUS
10
102.531
20
-77.6554
11
102.533
21
-77.6566
0
LINE
8
BLACK
6
CONTINUOUS
10
102.533
20
-77.6566
11
102.535
21
-77.6585
0
LINE
8
BLACK
6
CONTINUOUS
10
102.535
20
-77.6585
11
102.535
21
-77.6586
0
LINE
8
BLACK
6
CONTINUOUS
10
102.535
20
-77.6586
11
102.537
21
-77.6603
0
LINE
8
BLACK
6
CONTINUOUS
10
102.537
20
-77.6603
11
102.539
21
-77.6619
0
LINE
8
BLACK
6
CONTINUOUS
10
102.539
20
-77.6619
11
102.539
21
-77.6619
0
LINE
8
BLACK
6
CONTINUOUS
10
102.539
20
-77.6619
11
102.54
21
-77.6638
0
LINE
8
BLACK
6
CONTINUOUS
10
102.54
20
-77.6638
11
102.542
21
-77.6657
0
LINE
8
BLACK
6
CONTINUOUS
10
102.542
20
-77.6657
11
102.722
21
-77.8837
0
LINE
8
BLACK
6
CONTINUOUS
10
102.722
20
-77.8837
11
102.723
21
-77.8854
0
LINE
8
BLACK
6
CONTINUOUS
10
102.723
20
-77.8854
11
102.725
21
-77.8875
0
LINE
8
BLACK
6
CONTINUOUS
10
102.725
20
-77.8875
11
102.725
21
-77.8876
0
LINE
8
BLACK
6
CONTINUOUS
10
102.725
20
-77.8876
11
102.726
21
-77.8896
0
LINE
8
BLACK
6
CONTINUOUS
10
102.726
20
-77.8896
11
102.728
21
-77.8915
0
LINE
8
BLACK
6
CONTINUOUS
10
102.728
20
-77.8915
11
102.728
21
-77.8916
0
LINE
8
BLACK
6
CONTINUOUS
10
102.728
20
-77.8916
11
102.729
21
-77.8937
0
LINE
8
BLACK
6
CONTINUOUS
10
102.729
20
-77.8937
11
102.73
21
-77.8959
0
LINE
8
BLACK
6
CONTINUOUS
10
102.73
20
-77.8959
11
102.866
21
-78.1463
0
LINE
8
BLACK
6
CONTINUOUS
10
102.866
20
-78.1463
11
102.867
21
-78.1483
0
LINE
8
BLACK
6
CONTINUOUS
10
102.867
20
-78.1483
11
102.868
21
-78.1505
0
LINE
8
BLACK
6
CONTINUOUS
10
102.868
20
-78.1505
11
102.868
21
-78.1506
0
LINE
8
BLACK
6
CONTINUOUS
10
102.868
20
-78.1506
11
102.871
21
-78.1574
0
LINE
8
BLACK
6
CONTINUOUS
10
102.871
20
-78.1574
11
102.872
21
-78.1598
0
LINE
8
BLACK
6
CONTINUOUS
10
102.872
20
-78.1598
11
102.957
21
-78.4355
0
LINE
8
BLACK
6
CONTINUOUS
10
102.957
20
-78.4355
11
102.958
21
-78.4367
0
LINE
8
BLACK
6
CONTINUOUS
10
102.958
20
-78.4367
11
102.959
21
-78.4402
0
LINE
8
BLACK
6
CONTINUOUS
10
102.959
20
-78.4402
11
102.959
21
-78.4413
0
LINE
8
BLACK
6
CONTINUOUS
10
102.959
20
-78.4413
11
102.959
21
-78.4426
0
LINE
8
BLACK
6
CONTINUOUS
10
102.959
20
-78.4426
11
102.96
21
-78.4438
0
LINE
8
BLACK
6
CONTINUOUS
10
102.96
20
-78.4438
11
102.96
21
-78.445
0
LINE
8
BLACK
6
CONTINUOUS
10
102.96
20
-78.445
11
102.961
21
-78.4485
0
LINE
8
BLACK
6
CONTINUOUS
10
102.961
20
-78.4485
11
102.961
21
-78.4498
0
LINE
8
BLACK
6
CONTINUOUS
10
102.961
20
-78.4498
11
102.982
21
-78.5904
0
LINE
8
BLACK
6
CONTINUOUS
10
102.982
20
-78.5904
11
102.982
21
-78.5904
0
LINE
8
BLACK
6
CONTINUOUS
10
102.982
20
-78.5904
11
102.983
21
-78.595
0
LINE
8
BLACK
6
CONTINUOUS
10
102.983
20
-78.595
11
102.983
21
-78.5976
0
LINE
8
BLACK
6
CONTINUOUS
10
102.983
20
-78.5976
11
102.983
21
-78.5977
0
LINE
8
BLACK
6
CONTINUOUS
10
102.983
20
-78.5977
11
102.983
21
-78.5977
0
LINE
8
BLACK
6
CONTINUOUS
10
102.983
20
-78.5977
11
102.983
21
-78.6003
0
LINE
8
BLACK
6
CONTINUOUS
10
102.983
20
-78.6003
11
102.984
21
-78.605
0
LINE
8
BLACK
6
CONTINUOUS
10
102.984
20
-78.605
11
102.983
21
-78.605
0
LINE
8
BLACK
6
CONTINUOUS
10
102.983
20
-78.605
11
102.991
21
-78.7499
0
LINE
8
BLACK
6
CONTINUOUS
10
102.991
20
-78.7499
11
102.991
21
-78.7512
0
LINE
8
BLACK
6
CONTINUOUS
10
102.991
20
-78.7512
11
102.991
21
-78.7548
0
LINE
8
BLACK
6
CONTINUOUS
10
102.991
20
-78.7548
11
102.991
21
-78.756
0
LINE
8
BLACK
6
CONTINUOUS
10
102.991
20
-78.756
11
102.991
21
-78.7572
0
LINE
8
BLACK
6
CONTINUOUS
10
102.991
20
-78.7572
11
102.991
21
-78.7585
0
LINE
8
BLACK
6
CONTINUOUS
10
102.991
20
-78.7585
11
102.991
21
-78.7597
0
LINE
8
BLACK
6
CONTINUOUS
10
102.991
20
-78.7597
11
102.991
21
-78.7634
0
LINE
8
BLACK
6
CONTINUOUS
10
102.991
20
-78.7634
11
102.99
21
-78.7646
0
LINE
8
BLACK
6
CONTINUOUS
10
102.99
20
-78.7646
11
102.962
21
-79.0526
0
LINE
8
BLACK
6
CONTINUOUS
10
102.962
20
-79.0526
11
102.962
21
-79.0551
0
LINE
8
BLACK
6
CONTINUOUS
10
102.962
20
-79.0551
11
102.961
21
-79.0623
0
LINE
8
BLACK
6
CONTINUOUS
10
102.961
20
-79.0623
11
102.96
21
-79.0647
0
LINE
8
BLACK
6
CONTINUOUS
10
102.96
20
-79.0647
11
102.959
21
-79.067
0
LINE
8
BLACK
6
CONTINUOUS
10
102.959
20
-79.067
11
102.876
21
-79.3423
0
LINE
8
BLACK
6
CONTINUOUS
10
102.876
20
-79.3423
11
102.875
21
-79.3447
0
LINE
8
BLACK
6
CONTINUOUS
10
102.875
20
-79.3447
11
102.874
21
-79.347
0
LINE
8
BLACK
6
CONTINUOUS
10
102.874
20
-79.347
11
102.874
21
-79.3471
0
LINE
8
BLACK
6
CONTINUOUS
10
102.874
20
-79.3471
11
102.873
21
-79.349
0
LINE
8
BLACK
6
CONTINUOUS
10
102.873
20
-79.349
11
102.872
21
-79.3516
0
LINE
8
BLACK
6
CONTINUOUS
10
102.872
20
-79.3516
11
102.872
21
-79.3516
0
LINE
8
BLACK
6
CONTINUOUS
10
102.872
20
-79.3516
11
102.871
21
-79.3539
0
LINE
8
BLACK
6
CONTINUOUS
10
102.871
20
-79.3539
11
102.87
21
-79.3559
0
LINE
8
BLACK
6
CONTINUOUS
10
102.87
20
-79.3559
11
102.734
21
-79.6098
0
LINE
8
BLACK
6
CONTINUOUS
10
102.734
20
-79.6098
11
102.733
21
-79.6121
0
LINE
8
BLACK
6
CONTINUOUS
10
102.733
20
-79.6121
11
102.729
21
-79.6182
0
LINE
8
BLACK
6
CONTINUOUS
10
102.729
20
-79.6182
11
102.728
21
-79.6202
0
LINE
8
BLACK
6
CONTINUOUS
10
102.728
20
-79.6202
11
102.726
21
-79.622
0
LINE
8
BLACK
6
CONTINUOUS
10
102.726
20
-79.622
11
102.542
21
-79.8467
0
LINE
8
BLACK
6
CONTINUOUS
10
102.542
20
-79.8467
11
102.541
21
-79.8488
0
LINE
8
BLACK
6
CONTINUOUS
10
102.541
20
-79.8488
11
102.537
21
-79.8524
0
LINE
8
BLACK
6
CONTINUOUS
10
102.537
20
-79.8524
11
102.534
21
-79.8557
0
LINE
8
BLACK
6
CONTINUOUS
10
102.534
20
-79.8557
11
102.532
21
-79.8571
0
LINE
8
BLACK
6
CONTINUOUS
10
102.532
20
-79.8571
11
102.307
21
-80.0413
0
LINE
8
BLACK
6
CONTINUOUS
10
102.307
20
-80.0413
11
102.305
21
-80.0431
0
LINE
8
BLACK
6
CONTINUOUS
10
102.305
20
-80.0431
11
102.299
21
-80.0472
0
LINE
8
BLACK
6
CONTINUOUS
10
102.299
20
-80.0472
11
102.297
21
-80.0486
0
LINE
8
BLACK
6
CONTINUOUS
10
102.297
20
-80.0486
11
102.295
21
-80.0495
0
LINE
8
BLACK
6
CONTINUOUS
10
102.295
20
-80.0495
11
102.041
21
-80.185
0
LINE
8
BLACK
6
CONTINUOUS
10
102.041
20
-80.185
11
102.039
21
-80.1864
0
LINE
8
BLACK
6
CONTINUOUS
10
102.039
20
-80.1864
11
102.036
21
-80.1873
0
LINE
8
BLACK
6
CONTINUOUS
10
102.036
20
-80.1873
11
102.036
21
-80.1873
0
LINE
8
BLACK
6
CONTINUOUS
10
102.036
20
-80.1873
11
102.035
21
-80.1878
0
LINE
8
BLACK
6
CONTINUOUS
10
102.035
20
-80.1878
11
102.032
21
-80.1892
0
LINE
8
BLACK
6
CONTINUOUS
10
102.032
20
-80.1892
11
102.032
21
-80.1892
0
LINE
8
BLACK
6
CONTINUOUS
10
102.032
20
-80.1892
11
102.03
21
-80.1902
0
LINE
8
BLACK
6
CONTINUOUS
10
102.03
20
-80.1902
11
102.027
21
-80.1906
0
LINE
8
BLACK
6
CONTINUOUS
10
102.027
20
-80.1906
11
101.752
21
-80.2743
0
LINE
8
BLACK
6
CONTINUOUS
10
101.752
20
-80.2743
11
101.75
21
-80.2752
0
LINE
8
BLACK
6
CONTINUOUS
10
101.75
20
-80.2752
11
101.746
21
-80.276
0
LINE
8
BLACK
6
CONTINUOUS
10
101.746
20
-80.276
11
101.74
21
-80.2772
0
LINE
8
BLACK
6
CONTINUOUS
10
101.74
20
-80.2772
11
101.737
21
-80.2772
0
LINE
8
BLACK
6
CONTINUOUS
10
101.737
20
-80.2772
11
101.448
21
-80.3057
0
LINE
8
BLACK
6
CONTINUOUS
10
101.448
20
-80.3057
11
101.446
21
-80.3062
0
LINE
8
BLACK
6
CONTINUOUS
10
101.446
20
-80.3062
11
101.441
21
-80.3062
0
LINE
8
BLACK
6
CONTINUOUS
10
101.441
20
-80.3062
11
101.436
21
-80.3062
0
LINE
8
BLACK
6
CONTINUOUS
10
101.436
20
-80.3062
11
101.434
21
-80.3057
0
LINE
8
BLACK
6
CONTINUOUS
10
101.434
20
-80.3057
11
101.144
21
-80.2772
0
LINE
8
BLACK
6
CONTINUOUS
10
101.144
20
-80.2772
11
101.142
21
-80.2772
0
LINE
8
BLACK
6
CONTINUOUS
10
101.142
20
-80.2772
11
101.135
21
-80.2757
0
LINE
8
BLACK
6
CONTINUOUS
10
101.135
20
-80.2757
11
101.135
21
-80.2757
0
LINE
8
BLACK
6
CONTINUOUS
10
101.135
20
-80.2757
11
101.132
21
-80.2752
0
LINE
8
BLACK
6
CONTINUOUS
10
101.132
20
-80.2752
11
101.13
21
-80.2743
0
LINE
8
BLACK
6
CONTINUOUS
10
101.13
20
-80.2743
11
100.855
21
-80.1906
0
LINE
8
BLACK
6
CONTINUOUS
10
100.855
20
-80.1906
11
100.852
21
-80.1902
0
LINE
8
BLACK
6
CONTINUOUS
10
100.852
20
-80.1902
11
100.85
21
-80.1892
0
LINE
8
BLACK
6
CONTINUOUS
10
100.85
20
-80.1892
11
100.85
21
-80.1892
0
LINE
8
BLACK
6
CONTINUOUS
10
100.85
20
-80.1892
11
100.848
21
-80.1883
0
LINE
8
BLACK
6
CONTINUOUS
10
100.848
20
-80.1883
11
100.845
21
-80.1873
0
LINE
8
BLACK
6
CONTINUOUS
10
100.845
20
-80.1873
11
100.845
21
-80.1873
0
LINE
8
BLACK
6
CONTINUOUS
10
100.845
20
-80.1873
11
100.843
21
-80.1864
0
LINE
8
BLACK
6
CONTINUOUS
10
100.843
20
-80.1864
11
100.841
21
-80.185
0
LINE
8
BLACK
6
CONTINUOUS
10
100.841
20
-80.185
11
100.587
21
-80.0495
0
LINE
8
BLACK
6
CONTINUOUS
10
100.587
20
-80.0495
11
100.585
21
-80.0486
0
LINE
8
BLACK
6
CONTINUOUS
10
100.585
20
-80.0486
11
100.579
21
-80.0444
0
LINE
8
BLACK
6
CONTINUOUS
10
100.579
20
-80.0444
11
100.579
21
-80.0444
0
LINE
8
BLACK
6
CONTINUOUS
10
100.579
20
-80.0444
11
100.577
21
-80.0431
0
LINE
8
BLACK
6
CONTINUOUS
10
100.577
20
-80.0431
11
100.575
21
-80.0414
0
LINE
8
BLACK
6
CONTINUOUS
10
100.575
20
-80.0414
11
100.35
21
-79.8571
0
LINE
8
BLACK
6
CONTINUOUS
10
100.35
20
-79.8571
11
100.348
21
-79.8557
0
LINE
8
BLACK
6
CONTINUOUS
10
100.348
20
-79.8557
11
100.344
21
-79.8517
0
LINE
8
BLACK
6
CONTINUOUS
10
100.344
20
-79.8517
11
100.341
21
-79.8488
0
LINE
8
BLACK
6
CONTINUOUS
10
100.341
20
-79.8488
11
100.34
21
-79.8467
0
LINE
8
BLACK
6
CONTINUOUS
10
100.34
20
-79.8467
11
100.156
21
-79.622
0
LINE
8
BLACK
6
CONTINUOUS
10
100.156
20
-79.622
11
100.154
21
-79.6202
0
LINE
8
BLACK
6
CONTINUOUS
10
100.154
20
-79.6202
11
100.15
21
-79.6141
0
LINE
8
BLACK
6
CONTINUOUS
10
100.15
20
-79.6141
11
100.15
21
-79.6141
0
LINE
8
BLACK
6
CONTINUOUS
10
100.15
20
-79.6141
11
100.148
21
-79.6121
0
LINE
8
BLACK
6
CONTINUOUS
10
100.148
20
-79.6121
11
100.147
21
-79.6098
0
LINE
8
BLACK
6
CONTINUOUS
10
100.147
20
-79.6098
11
100.012
21
-79.3559
0
LINE
8
BLACK
6
CONTINUOUS
10
100.012
20
-79.3559
11
100.011
21
-79.3539
0
LINE
8
BLACK
6
CONTINUOUS
10
100.011
20
-79.3539
11
100.01
21
-79.3516
0
LINE
8
BLACK
6
CONTINUOUS
10
100.01
20
-79.3516
11
100.01
21
-79.3516
0
LINE
8
BLACK
6
CONTINUOUS
10
100.01
20
-79.3516
11
100.009
21
-79.3504
0
LINE
8
BLACK
6
CONTINUOUS
10
100.009
20
-79.3504
11
100.008
21
-79.3471
0
LINE
8
BLACK
6
CONTINUOUS
10
100.008
20
-79.3471
11
100.008
21
-79.347
0
LINE
8
BLACK
6
CONTINUOUS
10
100.008
20
-79.347
11
100.007
21
-79.3447
0
LINE
8
BLACK
6
CONTINUOUS
10
100.007
20
-79.3447
11
100.006
21
-79.3424
0
LINE
8
BLACK
6
CONTINUOUS
10
100.006
20
-79.3424
11
99.9227
21
-79.067
0
LINE
8
BLACK
6
CONTINUOUS
10
99.9227
20
-79.067
11
99.9218
21
-79.0647
0
LINE
8
BLACK
6
CONTINUOUS
10
99.9218
20
-79.0647
11
99.9205
21
-79.0583
0
LINE
8
BLACK
6
CONTINUOUS
10
99.9205
20
-79.0583
11
99.9198
21
-79.0551
0
LINE
8
BLACK
6
CONTINUOUS
10
99.9198
20
-79.0551
11
99.9198
21
-79.0526
0
LINE
8
BLACK
6
CONTINUOUS
10
99.9198
20
-79.0526
11
99.8914
21
-78.7646
0
LINE
8
BLACK
6
CONTINUOUS
10
99.8914
20
-78.7646
11
99.8911
21
-78.7634
0
LINE
8
BLACK
6
CONTINUOUS
10
99.8911
20
-78.7634
11
99.8909
21
-78.7597
0
LINE
8
BLACK
6
CONTINUOUS
10
99.8909
20
-78.7597
11
99.8908
21
-78.7585
0
LINE
8
BLACK
6
CONTINUOUS
10
99.8908
20
-78.7585
11
99.8908
21
-78.7572
0
LINE
8
BLACK
6
CONTINUOUS
10
99.8908
20
-78.7572
11
99.8907
21
-78.756
0
LINE
8
BLACK
6
CONTINUOUS
10
99.8907
20
-78.756
11
99.8908
21
-78.7548
0
LINE
8
BLACK
6
CONTINUOUS
10
99.8908
20
-78.7548
11
99.8908
21
-78.7512
0
LINE
8
BLACK
6
CONTINUOUS
10
99.8908
20
-78.7512
11
99.891
21
-78.7499
0
LINE
8
BLACK
6
CONTINUOUS
10
99.891
20
-78.7499
11
99.8984
21
-78.605
0
LINE
8
BLACK
6
CONTINUOUS
10
99.8984
20
-78.605
11
99.8983
21
-78.605
0
LINE
8
BLACK
6
CONTINUOUS
10
99.8983
20
-78.605
11
99.8986
21
-78.6003
0
LINE
8
BLACK
6
CONTINUOUS
10
99.8986
20
-78.6003
11
99.8987
21
-78.5977
0
LINE
8
BLACK
6
CONTINUOUS
10
99.8987
20
-78.5977
11
99.8987
21
-78.5977
0
LINE
8
BLACK
6
CONTINUOUS
10
99.8987
20
-78.5977
11
99.8987
21
-78.5976
0
LINE
8
BLACK
6
CONTINUOUS
10
99.8987
20
-78.5976
11
99.8991
21
-78.5951
0
LINE
8
BLACK
6
CONTINUOUS
10
99.8991
20
-78.5951
11
99.8998
21
-78.5904
0
LINE
8
BLACK
6
CONTINUOUS
10
99.8998
20
-78.5904
11
99.8998
21
-78.5904
0
LINE
8
BLACK
6
CONTINUOUS
10
99.8998
20
-78.5904
11
99.9213
21
-78.4498
0
LINE
8
BLACK
6
CONTINUOUS
10
99.9213
20
-78.4498
11
99.9213
21
-78.4485
0
LINE
8
BLACK
6
CONTINUOUS
10
99.9213
20
-78.4485
11
99.9221
21
-78.445
0
LINE
8
BLACK
6
CONTINUOUS
10
99.9221
20
-78.445
11
99.9222
21
-78.4438
0
LINE
8
BLACK
6
CONTINUOUS
10
99.9222
20
-78.4438
11
99.9226
21
-78.4426
0
LINE
8
BLACK
6
CONTINUOUS
10
99.9226
20
-78.4426
11
99.9228
21
-78.4413
0
LINE
8
BLACK
6
CONTINUOUS
10
99.9228
20
-78.4413
11
99.9232
21
-78.4402
0
LINE
8
BLACK
6
CONTINUOUS
10
99.9232
20
-78.4402
11
99.9241
21
-78.4367
0
LINE
8
BLACK
6
CONTINUOUS
10
99.9241
20
-78.4367
11
99.9246
21
-78.4355
0
LINE
8
BLACK
6
CONTINUOUS
10
99.9246
20
-78.4355
11
100.01
21
-78.1598
0
LINE
8
BLACK
6
CONTINUOUS
10
100.01
20
-78.1598
11
100.011
21
-78.1574
0
LINE
8
BLACK
6
CONTINUOUS
10
100.011
20
-78.1574
11
100.012
21
-78.1551
0
LINE
8
BLACK
6
CONTINUOUS
10
100.012
20
-78.1551
11
100.012
21
-78.1551
0
LINE
8
BLACK
6
CONTINUOUS
10
100.012
20
-78.1551
11
100.015
21
-78.1483
0
LINE
8
BLACK
6
CONTINUOUS
10
100.015
20
-78.1483
11
100.016
21
-78.1462
0
LINE
8
BLACK
6
CONTINUOUS
10
100.016
20
-78.1462
11
100.152
21
-77.8959
0
LINE
8
BLACK
6
CONTINUOUS
10
100.152
20
-77.8959
11
100.153
21
-77.8937
0
LINE
8
BLACK
6
CONTINUOUS
10
100.153
20
-77.8937
11
100.154
21
-77.8916
0
LINE
8
BLACK
6
CONTINUOUS
10
100.154
20
-77.8916
11
100.154
21
-77.8915
0
LINE
8
BLACK
6
CONTINUOUS
10
100.154
20
-77.8915
11
100.156
21
-77.8892
0
LINE
8
BLACK
6
CONTINUOUS
10
100.156
20
-77.8892
11
100.157
21
-77.8876
0
LINE
8
BLACK
6
CONTINUOUS
10
100.157
20
-77.8876
11
100.157
21
-77.8875
0
LINE
8
BLACK
6
CONTINUOUS
10
100.157
20
-77.8875
11
100.158
21
-77.8854
0
LINE
8
BLACK
6
CONTINUOUS
10
100.158
20
-77.8854
11
100.16
21
-77.8837
0
LINE
8
BLACK
6
CONTINUOUS
10
100.16
20
-77.8837
11
100.34
21
-77.6657
0
LINE
8
BLACK
6
CONTINUOUS
10
100.34
20
-77.6657
11
100.341
21
-77.6638
0
LINE
8
BLACK
6
CONTINUOUS
10
100.341
20
-77.6638
11
100.343
21
-77.662
0
LINE
8
BLACK
6
CONTINUOUS
10
100.343
20
-77.662
11
100.343
21
-77.6619
0
LINE
8
BLACK
6
CONTINUOUS
10
100.343
20
-77.6619
11
100.345
21
-77.66
0
LINE
8
BLACK
6
CONTINUOUS
10
100.345
20
-77.66
11
100.347
21
-77.6586
0
LINE
8
BLACK
6
CONTINUOUS
10
100.347
20
-77.6586
11
100.347
21
-77.6585
0
LINE
8
BLACK
6
CONTINUOUS
10
100.347
20
-77.6585
11
100.349
21
-77.6566
0
LINE
8
BLACK
6
CONTINUOUS
10
100.349
20
-77.6566
11
100.35
21
-77.6553
0
LINE
8
BLACK
6
CONTINUOUS
10
100.35
20
-77.6553
11
100.569
21
-77.4755
0
LINE
8
BLACK
6
CONTINUOUS
10
100.569
20
-77.4755
11
100.57
21
-77.4738
0
LINE
8
BLACK
6
CONTINUOUS
10
100.57
20
-77.4738
11
100.572
21
-77.4724
0
LINE
8
BLACK
6
CONTINUOUS
10
100.572
20
-77.4724
11
100.572
21
-77.4723
0
LINE
8
BLACK
6
CONTINUOUS
10
100.572
20
-77.4723
11
100.574
21
-77.4709
0
LINE
8
BLACK
6
CONTINUOUS
10
100.574
20
-77.4709
11
100.576
21
-77.4697
0
LINE
8
BLACK
6
CONTINUOUS
10
100.576
20
-77.4697
11
100.576
21
-77.4696
0
LINE
8
BLACK
6
CONTINUOUS
10
100.576
20
-77.4696
11
100.579
21
-77.4682
0
LINE
8
BLACK
6
CONTINUOUS
10
100.579
20
-77.4682
11
100.581
21
-77.4673
0
LINE
8
BLACK
6
CONTINUOUS
10
100.581
20
-77.4673
11
100.831
21
-77.3314
0
LINE
8
BLACK
6
CONTINUOUS
10
100.831
20
-77.3314
11
100.833
21
-77.33
0
LINE
8
BLACK
6
CONTINUOUS
10
100.833
20
-77.33
11
100.835
21
-77.3291
0
LINE
8
BLACK
6
CONTINUOUS
10
100.835
20
-77.3291
11
100.835
21
-77.3291
0
LINE
8
BLACK
6
CONTINUOUS
10
100.835
20
-77.3291
11
100.842
21
-77.3262
0
LINE
8
BLACK
6
CONTINUOUS
10
100.842
20
-77.3262
11
100.845
21
-77.3257
0
LINE
8
BLACK
6
CONTINUOUS
10
100.845
20
-77.3257
11
101.12
21
-77.2402
0
LINE
8
BLACK
6
CONTINUOUS
10
101.12
20
-77.2402
11
101.122
21
-77.2396
0
LINE
8
BLACK
6
CONTINUOUS
10
101.122
20
-77.2396
11
101.125
21
-77.2387
0
LINE
8
BLACK
6
CONTINUOUS
10
101.125
20
-77.2387
11
101.126
21
-77.2384
0
LINE
8
BLACK
6
CONTINUOUS
10
101.126
20
-77.2384
11
101.127
21
-77.2381
0
LINE
8
BLACK
6
CONTINUOUS
10
101.127
20
-77.2381
11
101.129
21
-77.2378
0
LINE
8
BLACK
6
CONTINUOUS
10
101.129
20
-77.2378
11
101.13
21
-77.2376
0
LINE
8
BLACK
6
CONTINUOUS
10
101.13
20
-77.2376
11
101.133
21
-77.2369
0
LINE
8
BLACK
6
CONTINUOUS
10
101.133
20
-77.2369
11
101.135
21
-77.2369
0
LINE
8
BLACK
6
CONTINUOUS
10
101.135
20
-77.2369
11
101.275
21
-77.2154
0
LINE
8
BLACK
6
CONTINUOUS
10
101.275
20
-77.2154
11
101.275
21
-77.2154
0
LINE
8
BLACK
6
CONTINUOUS
10
101.275
20
-77.2154
11
101.28
21
-77.2147
0
LINE
8
BLACK
6
CONTINUOUS
10
101.28
20
-77.2147
11
101.282
21
-77.2143
0
LINE
8
BLACK
6
CONTINUOUS
10
101.282
20
-77.2143
11
101.283
21
-77.2143
0
LINE
8
BLACK
6
CONTINUOUS
10
101.283
20
-77.2143
11
101.283
21
-77.2143
0
LINE
8
BLACK
6
CONTINUOUS
10
101.283
20
-77.2143
11
101.285
21
-77.2142
0
LINE
8
BLACK
6
CONTINUOUS
10
101.285
20
-77.2142
11
101.29
21
-77.2139
0
LINE
8
BLACK
6
CONTINUOUS
10
101.29
20
-77.2139
11
101.29
21
-77.214
0
LINE
8
BLACK
6
CONTINUOUS
10
101.29
20
-77.214
11
101.434
21
-77.2067
0
LINE
8
BLACK
6
CONTINUOUS
10
101.434
20
-77.2067
11
101.434
21
-77.2067
0
LINE
8
BLACK
6
CONTINUOUS
10
101.434
20
-77.2067
11
101.437
21
-77.2065
0
LINE
8
BLACK
6
CONTINUOUS
10
101.437
20
-77.2065
11
101.438
21
-77.2064
0
LINE
8
BLACK
6
CONTINUOUS
10
101.438
20
-77.2064
11
101.44
21
-77.2064
0
LINE
8
BLACK
6
CONTINUOUS
10
101.44
20
-77.2064
11
101.441
21
-77.2064
0
LINE
8
BLACK
6
CONTINUOUS
10
101.441
20
-77.2064
11
101.441
21
-77.2064
0
LINE
8
BLACK
6
CONTINUOUS
10
101.441
20
-77.2064
11
101.441
21
-77.2064
0
LINE
8
BLACK
6
CONTINUOUS
10
101.441
20
-77.2064
11
101.442
21
-77.2064
0
LINE
8
BLACK
6
CONTINUOUS
10
101.293
20
-77.3139
11
101.15
21
-77.3357
0
LINE
8
BLACK
6
CONTINUOUS
10
101.15
20
-77.3357
11
100.877
21
-77.4205
0
LINE
8
BLACK
6
CONTINUOUS
10
100.877
20
-77.4205
11
100.63
21
-77.5541
0
LINE
8
BLACK
6
CONTINUOUS
10
100.63
20
-77.5541
11
100.416
21
-77.7311
0
LINE
8
BLACK
6
CONTINUOUS
10
100.416
20
-77.7311
11
100.239
21
-77.9456
0
LINE
8
BLACK
6
CONTINUOUS
10
100.239
20
-77.9456
11
100.105
21
-78.1918
0
LINE
8
BLACK
6
CONTINUOUS
10
100.105
20
-78.1918
11
100.02
21
-78.465
0
LINE
8
BLACK
6
CONTINUOUS
10
100.02
20
-78.465
11
99.9983
21
-78.6078
0
LINE
8
BLACK
6
CONTINUOUS
10
99.9983
20
-78.6078
11
99.9909
21
-78.7549
0
LINE
8
BLACK
6
CONTINUOUS
10
99.9909
20
-78.7549
11
100.019
21
-79.0403
0
LINE
8
BLACK
6
CONTINUOUS
10
100.019
20
-79.0403
11
100.101
21
-79.311
0
LINE
8
BLACK
6
CONTINUOUS
10
100.101
20
-79.311
11
100.235
21
-79.5605
0
LINE
8
BLACK
6
CONTINUOUS
10
100.235
20
-79.5605
11
100.416
21
-79.7814
0
LINE
8
BLACK
6
CONTINUOUS
10
100.416
20
-79.7814
11
100.636
21
-79.9624
0
LINE
8
BLACK
6
CONTINUOUS
10
100.636
20
-79.9624
11
100.886
21
-80.0957
0
LINE
8
BLACK
6
CONTINUOUS
10
100.886
20
-80.0957
11
101.157
21
-80.1779
0
LINE
8
BLACK
6
CONTINUOUS
10
101.157
20
-80.1779
11
101.441
21
-80.206
0
LINE
8
BLACK
6
CONTINUOUS
10
101.441
20
-80.206
11
101.725
21
-80.1779
0
LINE
8
BLACK
6
CONTINUOUS
10
101.725
20
-80.1779
11
101.996
21
-80.0957
0
LINE
8
BLACK
6
CONTINUOUS
10
101.996
20
-80.0957
11
102.245
21
-79.9624
0
LINE
8
BLACK
6
CONTINUOUS
10
102.245
20
-79.9624
11
102.466
21
-79.7814
0
LINE
8
BLACK
6
CONTINUOUS
10
102.466
20
-79.7814
11
102.647
21
-79.5605
0
LINE
8
BLACK
6
CONTINUOUS
10
102.647
20
-79.5605
11
102.781
21
-79.3109
0
LINE
8
BLACK
6
CONTINUOUS
10
102.781
20
-79.3109
11
102.863
21
-79.0403
0
LINE
8
BLACK
6
CONTINUOUS
10
102.863
20
-79.0403
11
102.891
21
-78.7549
0
LINE
8
BLACK
6
CONTINUOUS
10
102.891
20
-78.7549
11
102.884
21
-78.6078
0
LINE
8
BLACK
6
CONTINUOUS
10
102.884
20
-78.6078
11
102.862
21
-78.4651
0
LINE
8
BLACK
6
CONTINUOUS
10
102.862
20
-78.4651
11
102.777
21
-78.1918
0
LINE
8
BLACK
6
CONTINUOUS
10
102.777
20
-78.1918
11
102.643
21
-77.9456
0
LINE
8
BLACK
6
CONTINUOUS
10
102.643
20
-77.9456
11
102.466
21
-77.7311
0
LINE
8
BLACK
6
CONTINUOUS
10
102.466
20
-77.7311
11
102.251
21
-77.5541
0
LINE
8
BLACK
6
CONTINUOUS
10
102.251
20
-77.5541
11
102.005
21
-77.4205
0
LINE
8
BLACK
6
CONTINUOUS
10
102.005
20
-77.4205
11
101.732
21
-77.3357
0
LINE
8
BLACK
6
CONTINUOUS
10
101.732
20
-77.3357
11
101.589
21
-77.3139
0
LINE
8
BLACK
6
CONTINUOUS
10
101.589
20
-77.3139
11
101.441
21
-77.3065
0
LINE
8
BLACK
6
CONTINUOUS
10
101.441
20
-77.3065
11
101.293
21
-77.3139
  0
ENDSEC
  0
EOF
