G04 #@! TF.GenerationSoftware,KiCad,Pcbnew,5.1.5-52549c5~84~ubuntu19.04.1*
G04 #@! TF.CreationDate,2020-01-17T15:01:35+01:00*
G04 #@! TF.ProjectId,badge,62616467-652e-46b6-9963-61645f706362,rev?*
G04 #@! TF.SameCoordinates,Original*
G04 #@! TF.FileFunction,Soldermask,Bot*
G04 #@! TF.FilePolarity,Negative*
%FSLAX46Y46*%
G04 Gerber Fmt 4.6, Leading zero omitted, Abs format (unit mm)*
G04 Created by KiCad (PCBNEW 5.1.5-52549c5~84~ubuntu19.04.1) date 2020-01-17 15:01:35*
%MOMM*%
%LPD*%
G04 APERTURE LIST*
%ADD10C,0.010000*%
%ADD11R,1.600800X0.650800*%
%ADD12R,1.850800X1.250800*%
%ADD13C,1.050800*%
%ADD14R,0.570800X0.350800*%
%ADD15R,0.650800X1.250800*%
%ADD16R,4.050800X2.350800*%
%ADD17R,0.470800X1.110800*%
%ADD18R,1.250800X1.850800*%
%ADD19R,0.650800X1.600800*%
%ADD20R,1.110800X0.700800*%
%ADD21R,0.572800X0.650800*%
%ADD22C,0.375800*%
%ADD23C,0.350800*%
%ADD24R,0.950800X0.850800*%
%ADD25R,0.850800X0.950800*%
%ADD26R,0.550800X0.650800*%
%ADD27R,0.650800X0.550800*%
%ADD28R,0.650800X0.450800*%
%ADD29R,0.450800X0.650800*%
%ADD30R,0.550800X0.550800*%
%ADD31R,0.850800X0.350800*%
%ADD32R,1.800800X1.600800*%
%ADD33R,1.050800X0.350800*%
%ADD34R,1.350800X1.700800*%
%ADD35C,0.100000*%
%ADD36R,0.500800X0.650800*%
%ADD37R,1.250800X1.950800*%
%ADD38O,1.250800X1.950800*%
%ADD39R,1.550800X1.950800*%
%ADD40C,1.500800*%
%ADD41R,0.450800X1.400800*%
G04 APERTURE END LIST*
D10*
G36*
X99295498Y-93958906D02*
G01*
X99315605Y-93992234D01*
X99363949Y-93984075D01*
X99485016Y-93960201D01*
X99668752Y-93922693D01*
X99905105Y-93873633D01*
X100184023Y-93815102D01*
X100495451Y-93749180D01*
X100695894Y-93706484D01*
X102041622Y-93419167D01*
X102029394Y-93295038D01*
X102019850Y-93237115D01*
X101994295Y-93195907D01*
X101936948Y-93163198D01*
X101832027Y-93130770D01*
X101663751Y-93090406D01*
X101615000Y-93079266D01*
X101212833Y-92987623D01*
X101625583Y-92891260D01*
X101812956Y-92846508D01*
X101932829Y-92812539D01*
X102000267Y-92781391D01*
X102030335Y-92745102D01*
X102038098Y-92695709D01*
X102038333Y-92673115D01*
X102028749Y-92585855D01*
X102006583Y-92550430D01*
X101955955Y-92543975D01*
X101836465Y-92526718D01*
X101662913Y-92500855D01*
X101450102Y-92468583D01*
X101297500Y-92445174D01*
X101013695Y-92401526D01*
X100803016Y-92370479D01*
X100654841Y-92352175D01*
X100558552Y-92346755D01*
X100503528Y-92354362D01*
X100479149Y-92375136D01*
X100474796Y-92409220D01*
X100479771Y-92456084D01*
X100493167Y-92572500D01*
X101043500Y-92637154D01*
X101269780Y-92664714D01*
X101413835Y-92686780D01*
X101477624Y-92706898D01*
X101463105Y-92728615D01*
X101372235Y-92755476D01*
X101206972Y-92791030D01*
X101136329Y-92805298D01*
X100999734Y-92834970D01*
X100927639Y-92863424D01*
X100901377Y-92905301D01*
X100902282Y-92975243D01*
X100903496Y-92987922D01*
X100914400Y-93057037D01*
X100942808Y-93101755D01*
X101007163Y-93133325D01*
X101125912Y-93162999D01*
X101223417Y-93183057D01*
X101371292Y-93216205D01*
X101480118Y-93246946D01*
X101529356Y-93269350D01*
X101530333Y-93271683D01*
X101490622Y-93286965D01*
X101378648Y-93316483D01*
X101205147Y-93357757D01*
X100980858Y-93408312D01*
X100716516Y-93465668D01*
X100422859Y-93527348D01*
X100419083Y-93528128D01*
X99307833Y-93757834D01*
X99294438Y-93874250D01*
X99295498Y-93958906D01*
G37*
X99295498Y-93958906D02*
X99315605Y-93992234D01*
X99363949Y-93984075D01*
X99485016Y-93960201D01*
X99668752Y-93922693D01*
X99905105Y-93873633D01*
X100184023Y-93815102D01*
X100495451Y-93749180D01*
X100695894Y-93706484D01*
X102041622Y-93419167D01*
X102029394Y-93295038D01*
X102019850Y-93237115D01*
X101994295Y-93195907D01*
X101936948Y-93163198D01*
X101832027Y-93130770D01*
X101663751Y-93090406D01*
X101615000Y-93079266D01*
X101212833Y-92987623D01*
X101625583Y-92891260D01*
X101812956Y-92846508D01*
X101932829Y-92812539D01*
X102000267Y-92781391D01*
X102030335Y-92745102D01*
X102038098Y-92695709D01*
X102038333Y-92673115D01*
X102028749Y-92585855D01*
X102006583Y-92550430D01*
X101955955Y-92543975D01*
X101836465Y-92526718D01*
X101662913Y-92500855D01*
X101450102Y-92468583D01*
X101297500Y-92445174D01*
X101013695Y-92401526D01*
X100803016Y-92370479D01*
X100654841Y-92352175D01*
X100558552Y-92346755D01*
X100503528Y-92354362D01*
X100479149Y-92375136D01*
X100474796Y-92409220D01*
X100479771Y-92456084D01*
X100493167Y-92572500D01*
X101043500Y-92637154D01*
X101269780Y-92664714D01*
X101413835Y-92686780D01*
X101477624Y-92706898D01*
X101463105Y-92728615D01*
X101372235Y-92755476D01*
X101206972Y-92791030D01*
X101136329Y-92805298D01*
X100999734Y-92834970D01*
X100927639Y-92863424D01*
X100901377Y-92905301D01*
X100902282Y-92975243D01*
X100903496Y-92987922D01*
X100914400Y-93057037D01*
X100942808Y-93101755D01*
X101007163Y-93133325D01*
X101125912Y-93162999D01*
X101223417Y-93183057D01*
X101371292Y-93216205D01*
X101480118Y-93246946D01*
X101529356Y-93269350D01*
X101530333Y-93271683D01*
X101490622Y-93286965D01*
X101378648Y-93316483D01*
X101205147Y-93357757D01*
X100980858Y-93408312D01*
X100716516Y-93465668D01*
X100422859Y-93527348D01*
X100419083Y-93528128D01*
X99307833Y-93757834D01*
X99294438Y-93874250D01*
X99295498Y-93958906D01*
G36*
X114899800Y-109684650D02*
G01*
X114899800Y-110058200D01*
X115507867Y-110058200D01*
X115507867Y-109684650D01*
X114899800Y-109684650D01*
G37*
X114899800Y-109684650D02*
X114899800Y-110058200D01*
X115507867Y-110058200D01*
X115507867Y-109684650D01*
X114899800Y-109684650D01*
G36*
X115479800Y-109714820D02*
G01*
X115479800Y-110088200D01*
X116089107Y-110088200D01*
X116089107Y-109714820D01*
X115479800Y-109714820D01*
G37*
X115479800Y-109714820D02*
X115479800Y-110088200D01*
X116089107Y-110088200D01*
X116089107Y-109714820D01*
X115479800Y-109714820D01*
G36*
X117349800Y-109683030D02*
G01*
X117349800Y-110058200D01*
X117964480Y-110058200D01*
X117964480Y-109683030D01*
X117349800Y-109683030D01*
G37*
X117349800Y-109683030D02*
X117349800Y-110058200D01*
X117964480Y-110058200D01*
X117964480Y-109683030D01*
X117349800Y-109683030D01*
G36*
X115479800Y-112660870D02*
G01*
X115479800Y-113028200D01*
X116089091Y-113028200D01*
X116089091Y-112660870D01*
X115479800Y-112660870D01*
G37*
X115479800Y-112660870D02*
X115479800Y-113028200D01*
X116089091Y-113028200D01*
X116089091Y-112660870D01*
X115479800Y-112660870D01*
G36*
X114899800Y-110115870D02*
G01*
X114899800Y-110488200D01*
X115508094Y-110488200D01*
X115508094Y-110115870D01*
X114899800Y-110115870D01*
G37*
X114899800Y-110115870D02*
X114899800Y-110488200D01*
X115508094Y-110488200D01*
X115508094Y-110115870D01*
X114899800Y-110115870D01*
G36*
X114899800Y-110546070D02*
G01*
X114899800Y-110918200D01*
X115507440Y-110918200D01*
X115507440Y-110546070D01*
X114899800Y-110546070D01*
G37*
X114899800Y-110546070D02*
X114899800Y-110918200D01*
X115507440Y-110918200D01*
X115507440Y-110546070D01*
X114899800Y-110546070D01*
G36*
X114899800Y-110976986D02*
G01*
X114899800Y-111348200D01*
X115507010Y-111348200D01*
X115507010Y-110976986D01*
X114899800Y-110976986D01*
G37*
X114899800Y-110976986D02*
X114899800Y-111348200D01*
X115507010Y-111348200D01*
X115507010Y-110976986D01*
X114899800Y-110976986D01*
G36*
X114899800Y-111839737D02*
G01*
X114899800Y-112208200D01*
X115506725Y-112208200D01*
X115506725Y-111839737D01*
X114899800Y-111839737D01*
G37*
X114899800Y-111839737D02*
X114899800Y-112208200D01*
X115506725Y-112208200D01*
X115506725Y-111839737D01*
X114899800Y-111839737D01*
G36*
X114899800Y-111408297D02*
G01*
X114899800Y-111778200D01*
X115506841Y-111778200D01*
X115506841Y-111408297D01*
X114899800Y-111408297D01*
G37*
X114899800Y-111408297D02*
X114899800Y-111778200D01*
X115506841Y-111778200D01*
X115506841Y-111408297D01*
X114899800Y-111408297D01*
G36*
X114899800Y-112701190D02*
G01*
X114899800Y-113068200D01*
X115507721Y-113068200D01*
X115507721Y-112701190D01*
X114899800Y-112701190D01*
G37*
X114899800Y-112701190D02*
X114899800Y-113068200D01*
X115507721Y-113068200D01*
X115507721Y-112701190D01*
X114899800Y-112701190D01*
G36*
X114899800Y-112270417D02*
G01*
X114899800Y-112638200D01*
X115507508Y-112638200D01*
X115507508Y-112270417D01*
X114899800Y-112270417D01*
G37*
X114899800Y-112270417D02*
X114899800Y-112638200D01*
X115507508Y-112638200D01*
X115507508Y-112270417D01*
X114899800Y-112270417D01*
G36*
X115909800Y-112661330D02*
G01*
X115909800Y-113028200D01*
X116520020Y-113028200D01*
X116520020Y-112661330D01*
X115909800Y-112661330D01*
G37*
X115909800Y-112661330D02*
X115909800Y-113028200D01*
X116520020Y-113028200D01*
X116520020Y-112661330D01*
X115909800Y-112661330D01*
G36*
X116339800Y-112660120D02*
G01*
X116339800Y-113028200D01*
X116950579Y-113028200D01*
X116950579Y-112660120D01*
X116339800Y-112660120D01*
G37*
X116339800Y-112660120D02*
X116339800Y-113028200D01*
X116950579Y-113028200D01*
X116950579Y-112660120D01*
X116339800Y-112660120D01*
G36*
X116769800Y-112662040D02*
G01*
X116769800Y-113028200D01*
X117382654Y-113028200D01*
X117382654Y-112662040D01*
X116769800Y-112662040D01*
G37*
X116769800Y-112662040D02*
X116769800Y-113028200D01*
X117382654Y-113028200D01*
X117382654Y-112662040D01*
X116769800Y-112662040D01*
G36*
X115909800Y-109714490D02*
G01*
X115909800Y-110088200D01*
X116520001Y-110088200D01*
X116520001Y-109714490D01*
X115909800Y-109714490D01*
G37*
X115909800Y-109714490D02*
X115909800Y-110088200D01*
X116520001Y-110088200D01*
X116520001Y-109714490D01*
X115909800Y-109714490D01*
G36*
X116339800Y-109716360D02*
G01*
X116339800Y-110088200D01*
X116950375Y-110088200D01*
X116950375Y-109716360D01*
X116339800Y-109716360D01*
G37*
X116339800Y-109716360D02*
X116339800Y-110088200D01*
X116950375Y-110088200D01*
X116950375Y-109716360D01*
X116339800Y-109716360D01*
G36*
X116769800Y-109714010D02*
G01*
X116769800Y-110088200D01*
X117382197Y-110088200D01*
X117382197Y-109714010D01*
X116769800Y-109714010D01*
G37*
X116769800Y-109714010D02*
X116769800Y-110088200D01*
X117382197Y-110088200D01*
X117382197Y-109714010D01*
X116769800Y-109714010D01*
G36*
X117349800Y-110116760D02*
G01*
X117349800Y-110488200D01*
X117961550Y-110488200D01*
X117961550Y-110116760D01*
X117349800Y-110116760D01*
G37*
X117349800Y-110116760D02*
X117349800Y-110488200D01*
X117961550Y-110488200D01*
X117961550Y-110116760D01*
X117349800Y-110116760D01*
G36*
X117349800Y-110547198D02*
G01*
X117349800Y-110918200D01*
X117961650Y-110918200D01*
X117961650Y-110547198D01*
X117349800Y-110547198D01*
G37*
X117349800Y-110547198D02*
X117349800Y-110918200D01*
X117961650Y-110918200D01*
X117961650Y-110547198D01*
X117349800Y-110547198D01*
G36*
X117349800Y-110977643D02*
G01*
X117349800Y-111348200D01*
X117961930Y-111348200D01*
X117961930Y-110977643D01*
X117349800Y-110977643D01*
G37*
X117349800Y-110977643D02*
X117349800Y-111348200D01*
X117961930Y-111348200D01*
X117961930Y-110977643D01*
X117349800Y-110977643D01*
G36*
X117349800Y-111838927D02*
G01*
X117349800Y-112208200D01*
X117962220Y-112208200D01*
X117962220Y-111838927D01*
X117349800Y-111838927D01*
G37*
X117349800Y-111838927D02*
X117349800Y-112208200D01*
X117962220Y-112208200D01*
X117962220Y-111838927D01*
X117349800Y-111838927D01*
G36*
X117349800Y-111408224D02*
G01*
X117349800Y-111778200D01*
X117961000Y-111778200D01*
X117961000Y-111408224D01*
X117349800Y-111408224D01*
G37*
X117349800Y-111408224D02*
X117349800Y-111778200D01*
X117961000Y-111778200D01*
X117961000Y-111408224D01*
X117349800Y-111408224D01*
G36*
X117349800Y-112699410D02*
G01*
X117349800Y-113068200D01*
X117961210Y-113068200D01*
X117961210Y-112699410D01*
X117349800Y-112699410D01*
G37*
X117349800Y-112699410D02*
X117349800Y-113068200D01*
X117961210Y-113068200D01*
X117961210Y-112699410D01*
X117349800Y-112699410D01*
G36*
X117349800Y-112269513D02*
G01*
X117349800Y-112638200D01*
X117962060Y-112638200D01*
X117962060Y-112269513D01*
X117349800Y-112269513D01*
G37*
X117349800Y-112269513D02*
X117349800Y-112638200D01*
X117962060Y-112638200D01*
X117962060Y-112269513D01*
X117349800Y-112269513D01*
D11*
X103825000Y-107975000D03*
X103825000Y-108975000D03*
X103825000Y-109975000D03*
X103825000Y-110975000D03*
D12*
X99950000Y-112275000D03*
X99950000Y-106675000D03*
D13*
X115795000Y-78340000D03*
D14*
X114109000Y-87002000D03*
X114109000Y-87652000D03*
X115789000Y-87652000D03*
X115789000Y-87002000D03*
D15*
X130544000Y-103029000D03*
X129344000Y-103029000D03*
D16*
X134170400Y-85546800D03*
D17*
X136075400Y-83211800D03*
X134805400Y-83211800D03*
X133535400Y-83211800D03*
X132265400Y-83211800D03*
X132265400Y-87881800D03*
X133535400Y-87881800D03*
X134805400Y-87881800D03*
X136075400Y-87881800D03*
D18*
X101865000Y-86145000D03*
X105465000Y-86145000D03*
D19*
X103165000Y-82270000D03*
X104165000Y-82270000D03*
D13*
X134165000Y-111410000D03*
X140241000Y-84226000D03*
X140241000Y-86766000D03*
X127033000Y-86512000D03*
X124493000Y-86512000D03*
X108541800Y-84353000D03*
X121953000Y-86512000D03*
X140241000Y-89306000D03*
X131198600Y-111440578D03*
X138615000Y-90480000D03*
D20*
X113859000Y-83877000D03*
X113859000Y-85777000D03*
X116059000Y-85777000D03*
X116059000Y-84827000D03*
X116059000Y-83877000D03*
D21*
X137176400Y-104825400D03*
X137176400Y-105725400D03*
X137998400Y-105725400D03*
X137998400Y-103925400D03*
D22*
X139250400Y-104825400D03*
D21*
X137176400Y-103925400D03*
D23*
X139250400Y-105487400D03*
X139250400Y-104163400D03*
X138588400Y-104825400D03*
X139912400Y-104825400D03*
D24*
X119556000Y-83337000D03*
X121556000Y-84287000D03*
X121556000Y-82387000D03*
D25*
X127400000Y-105950000D03*
X126450000Y-107950000D03*
X128350000Y-107950000D03*
D26*
X110241000Y-84620000D03*
X110241000Y-83520000D03*
D27*
X112379800Y-111378200D03*
X113479800Y-111378200D03*
X112379800Y-109378200D03*
X113479800Y-109378200D03*
X124281000Y-118008000D03*
X123181000Y-118008000D03*
X115979278Y-116888676D03*
X117079278Y-116888676D03*
X113459800Y-112798200D03*
X112359800Y-112798200D03*
X113479800Y-110378200D03*
X112379800Y-110378200D03*
D26*
X112241000Y-84620000D03*
X112241000Y-83520000D03*
D27*
X111080000Y-81041000D03*
X112180000Y-81041000D03*
D26*
X129344400Y-105516400D03*
X129344400Y-104416400D03*
D27*
X111080000Y-77041000D03*
X112180000Y-77041000D03*
D26*
X117635000Y-84877000D03*
X117635000Y-83777000D03*
X130538200Y-105516400D03*
X130538200Y-104416400D03*
X111241000Y-84620000D03*
X111241000Y-83520000D03*
D28*
X117429800Y-108328200D03*
X117429800Y-107428200D03*
D29*
X118979800Y-109878200D03*
X119879800Y-109878200D03*
X118979800Y-108878200D03*
X119879800Y-108878200D03*
D28*
X140647400Y-109245000D03*
X140647400Y-108345000D03*
X138082000Y-110885000D03*
X138082000Y-111785000D03*
D29*
X116979278Y-118158676D03*
X116079278Y-118158676D03*
D28*
X132087600Y-109720400D03*
X132087600Y-108820400D03*
X133357600Y-109720400D03*
X133357600Y-108820400D03*
D29*
X112405000Y-114560000D03*
X111505000Y-114560000D03*
X126650000Y-109425000D03*
X127550000Y-109425000D03*
X134735000Y-114560000D03*
X133835000Y-114560000D03*
X114400000Y-77050000D03*
X113500000Y-77050000D03*
D28*
X126138920Y-103895340D03*
X126138920Y-104795340D03*
D29*
X109580000Y-77041000D03*
X108680000Y-77041000D03*
X108680000Y-81041000D03*
X109580000Y-81041000D03*
X118979800Y-110878200D03*
X119879800Y-110878200D03*
D30*
X127150000Y-93000000D03*
X127150000Y-94100000D03*
X127150000Y-95200000D03*
X127150000Y-96300000D03*
X127150000Y-97400000D03*
X127150000Y-98500000D03*
X127150000Y-99600000D03*
X127150000Y-100700000D03*
X135750000Y-94250000D03*
X134650000Y-94250000D03*
X133550000Y-94250000D03*
X132450000Y-94250000D03*
X131350000Y-94250000D03*
X129850000Y-95750000D03*
X129850000Y-96850000D03*
X129850000Y-97950000D03*
X131350000Y-99450000D03*
X132450000Y-99450000D03*
X133550000Y-99450000D03*
X134650000Y-99450000D03*
X135750000Y-99450000D03*
X136850000Y-98500000D03*
X136850000Y-95200000D03*
X136850000Y-92450000D03*
X136300000Y-93350000D03*
X135750000Y-92450000D03*
X135200000Y-93350000D03*
X134650000Y-92450000D03*
X134100000Y-93350000D03*
X133550000Y-92450000D03*
X133000000Y-93350000D03*
X132450000Y-92450000D03*
X131900000Y-93350000D03*
X131350000Y-92450000D03*
X130800000Y-93350000D03*
X130250000Y-92450000D03*
X129700000Y-93350000D03*
X129150000Y-92450000D03*
X128050000Y-92450000D03*
X128050000Y-93550000D03*
X128950000Y-94100000D03*
X128050000Y-94650000D03*
X128950000Y-95200000D03*
X128050000Y-95750000D03*
X128950000Y-96300000D03*
X128050000Y-96850000D03*
X128950000Y-97400000D03*
X128050000Y-97950000D03*
X128950000Y-98500000D03*
X128050000Y-99050000D03*
X128950000Y-99600000D03*
X128050000Y-100150000D03*
X128050000Y-101250000D03*
X129150000Y-101250000D03*
X129700000Y-100350000D03*
X130250000Y-101250000D03*
X130800000Y-100350000D03*
X131350000Y-101250000D03*
X131900000Y-100350000D03*
X132450000Y-101250000D03*
X133000000Y-100350000D03*
X133550000Y-101250000D03*
X134100000Y-100350000D03*
X134650000Y-101250000D03*
X135200000Y-100350000D03*
X135750000Y-101250000D03*
X136300000Y-100350000D03*
X136850000Y-101250000D03*
D31*
X112130000Y-78291000D03*
X112130000Y-78791000D03*
X112130000Y-79291000D03*
X112130000Y-79791000D03*
X109130000Y-79791000D03*
X109130000Y-79291000D03*
X109130000Y-78791000D03*
X109130000Y-78291000D03*
D32*
X110630000Y-79041000D03*
D33*
X123743700Y-102739440D03*
X123743700Y-102239440D03*
X123743700Y-101739440D03*
X123743700Y-101239440D03*
X123743700Y-100739440D03*
X123743700Y-100239440D03*
X123743700Y-99739440D03*
X123743700Y-99239440D03*
X123743700Y-98739440D03*
X123743700Y-98239440D03*
X123743700Y-97739440D03*
X123743700Y-97239440D03*
X123743700Y-96739440D03*
X123743700Y-96239440D03*
X123743700Y-95739440D03*
X123743700Y-95239440D03*
X123743700Y-94739440D03*
X123743700Y-94239440D03*
X123743700Y-93739440D03*
X123743700Y-93239440D03*
X123743700Y-92739440D03*
X123743700Y-92239440D03*
D34*
X121843700Y-105014440D03*
X121843700Y-89964440D03*
D35*
G36*
X125398620Y-113387654D02*
G01*
X125423515Y-113391347D01*
X125447928Y-113397462D01*
X125471623Y-113405940D01*
X125494374Y-113416700D01*
X125515960Y-113429639D01*
X125536174Y-113444630D01*
X125554822Y-113461531D01*
X125571723Y-113480179D01*
X125586714Y-113500393D01*
X125599653Y-113521979D01*
X125610413Y-113544730D01*
X125618891Y-113568425D01*
X125625006Y-113592838D01*
X125628699Y-113617733D01*
X125629934Y-113642869D01*
X125629934Y-114580769D01*
X125628699Y-114605905D01*
X125625006Y-114630800D01*
X125618891Y-114655213D01*
X125610413Y-114678908D01*
X125599653Y-114701659D01*
X125586714Y-114723245D01*
X125571723Y-114743459D01*
X125554822Y-114762107D01*
X125536174Y-114779008D01*
X125515960Y-114793999D01*
X125494374Y-114806938D01*
X125471623Y-114817698D01*
X125447928Y-114826176D01*
X125423515Y-114832291D01*
X125398620Y-114835984D01*
X125373484Y-114837219D01*
X124860584Y-114837219D01*
X124835448Y-114835984D01*
X124810553Y-114832291D01*
X124786140Y-114826176D01*
X124762445Y-114817698D01*
X124739694Y-114806938D01*
X124718108Y-114793999D01*
X124697894Y-114779008D01*
X124679246Y-114762107D01*
X124662345Y-114743459D01*
X124647354Y-114723245D01*
X124634415Y-114701659D01*
X124623655Y-114678908D01*
X124615177Y-114655213D01*
X124609062Y-114630800D01*
X124605369Y-114605905D01*
X124604134Y-114580769D01*
X124604134Y-113642869D01*
X124605369Y-113617733D01*
X124609062Y-113592838D01*
X124615177Y-113568425D01*
X124623655Y-113544730D01*
X124634415Y-113521979D01*
X124647354Y-113500393D01*
X124662345Y-113480179D01*
X124679246Y-113461531D01*
X124697894Y-113444630D01*
X124718108Y-113429639D01*
X124739694Y-113416700D01*
X124762445Y-113405940D01*
X124786140Y-113397462D01*
X124810553Y-113391347D01*
X124835448Y-113387654D01*
X124860584Y-113386419D01*
X125373484Y-113386419D01*
X125398620Y-113387654D01*
G37*
G36*
X123523620Y-113387654D02*
G01*
X123548515Y-113391347D01*
X123572928Y-113397462D01*
X123596623Y-113405940D01*
X123619374Y-113416700D01*
X123640960Y-113429639D01*
X123661174Y-113444630D01*
X123679822Y-113461531D01*
X123696723Y-113480179D01*
X123711714Y-113500393D01*
X123724653Y-113521979D01*
X123735413Y-113544730D01*
X123743891Y-113568425D01*
X123750006Y-113592838D01*
X123753699Y-113617733D01*
X123754934Y-113642869D01*
X123754934Y-114580769D01*
X123753699Y-114605905D01*
X123750006Y-114630800D01*
X123743891Y-114655213D01*
X123735413Y-114678908D01*
X123724653Y-114701659D01*
X123711714Y-114723245D01*
X123696723Y-114743459D01*
X123679822Y-114762107D01*
X123661174Y-114779008D01*
X123640960Y-114793999D01*
X123619374Y-114806938D01*
X123596623Y-114817698D01*
X123572928Y-114826176D01*
X123548515Y-114832291D01*
X123523620Y-114835984D01*
X123498484Y-114837219D01*
X122985584Y-114837219D01*
X122960448Y-114835984D01*
X122935553Y-114832291D01*
X122911140Y-114826176D01*
X122887445Y-114817698D01*
X122864694Y-114806938D01*
X122843108Y-114793999D01*
X122822894Y-114779008D01*
X122804246Y-114762107D01*
X122787345Y-114743459D01*
X122772354Y-114723245D01*
X122759415Y-114701659D01*
X122748655Y-114678908D01*
X122740177Y-114655213D01*
X122734062Y-114630800D01*
X122730369Y-114605905D01*
X122729134Y-114580769D01*
X122729134Y-113642869D01*
X122730369Y-113617733D01*
X122734062Y-113592838D01*
X122740177Y-113568425D01*
X122748655Y-113544730D01*
X122759415Y-113521979D01*
X122772354Y-113500393D01*
X122787345Y-113480179D01*
X122804246Y-113461531D01*
X122822894Y-113444630D01*
X122843108Y-113429639D01*
X122864694Y-113416700D01*
X122887445Y-113405940D01*
X122911140Y-113397462D01*
X122935553Y-113391347D01*
X122960448Y-113387654D01*
X122985584Y-113386419D01*
X123498484Y-113386419D01*
X123523620Y-113387654D01*
G37*
G36*
X123523620Y-115546654D02*
G01*
X123548515Y-115550347D01*
X123572928Y-115556462D01*
X123596623Y-115564940D01*
X123619374Y-115575700D01*
X123640960Y-115588639D01*
X123661174Y-115603630D01*
X123679822Y-115620531D01*
X123696723Y-115639179D01*
X123711714Y-115659393D01*
X123724653Y-115680979D01*
X123735413Y-115703730D01*
X123743891Y-115727425D01*
X123750006Y-115751838D01*
X123753699Y-115776733D01*
X123754934Y-115801869D01*
X123754934Y-116739769D01*
X123753699Y-116764905D01*
X123750006Y-116789800D01*
X123743891Y-116814213D01*
X123735413Y-116837908D01*
X123724653Y-116860659D01*
X123711714Y-116882245D01*
X123696723Y-116902459D01*
X123679822Y-116921107D01*
X123661174Y-116938008D01*
X123640960Y-116952999D01*
X123619374Y-116965938D01*
X123596623Y-116976698D01*
X123572928Y-116985176D01*
X123548515Y-116991291D01*
X123523620Y-116994984D01*
X123498484Y-116996219D01*
X122985584Y-116996219D01*
X122960448Y-116994984D01*
X122935553Y-116991291D01*
X122911140Y-116985176D01*
X122887445Y-116976698D01*
X122864694Y-116965938D01*
X122843108Y-116952999D01*
X122822894Y-116938008D01*
X122804246Y-116921107D01*
X122787345Y-116902459D01*
X122772354Y-116882245D01*
X122759415Y-116860659D01*
X122748655Y-116837908D01*
X122740177Y-116814213D01*
X122734062Y-116789800D01*
X122730369Y-116764905D01*
X122729134Y-116739769D01*
X122729134Y-115801869D01*
X122730369Y-115776733D01*
X122734062Y-115751838D01*
X122740177Y-115727425D01*
X122748655Y-115703730D01*
X122759415Y-115680979D01*
X122772354Y-115659393D01*
X122787345Y-115639179D01*
X122804246Y-115620531D01*
X122822894Y-115603630D01*
X122843108Y-115588639D01*
X122864694Y-115575700D01*
X122887445Y-115564940D01*
X122911140Y-115556462D01*
X122935553Y-115550347D01*
X122960448Y-115546654D01*
X122985584Y-115545419D01*
X123498484Y-115545419D01*
X123523620Y-115546654D01*
G37*
G36*
X125398620Y-115546654D02*
G01*
X125423515Y-115550347D01*
X125447928Y-115556462D01*
X125471623Y-115564940D01*
X125494374Y-115575700D01*
X125515960Y-115588639D01*
X125536174Y-115603630D01*
X125554822Y-115620531D01*
X125571723Y-115639179D01*
X125586714Y-115659393D01*
X125599653Y-115680979D01*
X125610413Y-115703730D01*
X125618891Y-115727425D01*
X125625006Y-115751838D01*
X125628699Y-115776733D01*
X125629934Y-115801869D01*
X125629934Y-116739769D01*
X125628699Y-116764905D01*
X125625006Y-116789800D01*
X125618891Y-116814213D01*
X125610413Y-116837908D01*
X125599653Y-116860659D01*
X125586714Y-116882245D01*
X125571723Y-116902459D01*
X125554822Y-116921107D01*
X125536174Y-116938008D01*
X125515960Y-116952999D01*
X125494374Y-116965938D01*
X125471623Y-116976698D01*
X125447928Y-116985176D01*
X125423515Y-116991291D01*
X125398620Y-116994984D01*
X125373484Y-116996219D01*
X124860584Y-116996219D01*
X124835448Y-116994984D01*
X124810553Y-116991291D01*
X124786140Y-116985176D01*
X124762445Y-116976698D01*
X124739694Y-116965938D01*
X124718108Y-116952999D01*
X124697894Y-116938008D01*
X124679246Y-116921107D01*
X124662345Y-116902459D01*
X124647354Y-116882245D01*
X124634415Y-116860659D01*
X124623655Y-116837908D01*
X124615177Y-116814213D01*
X124609062Y-116789800D01*
X124605369Y-116764905D01*
X124604134Y-116739769D01*
X124604134Y-115801869D01*
X124605369Y-115776733D01*
X124609062Y-115751838D01*
X124615177Y-115727425D01*
X124623655Y-115703730D01*
X124634415Y-115680979D01*
X124647354Y-115659393D01*
X124662345Y-115639179D01*
X124679246Y-115620531D01*
X124697894Y-115603630D01*
X124718108Y-115588639D01*
X124739694Y-115575700D01*
X124762445Y-115564940D01*
X124786140Y-115556462D01*
X124810553Y-115550347D01*
X124835448Y-115546654D01*
X124860584Y-115545419D01*
X125373484Y-115545419D01*
X125398620Y-115546654D01*
G37*
D36*
X123604000Y-82300000D03*
X123604000Y-84400000D03*
D37*
X119175000Y-77437500D03*
X124975000Y-77437500D03*
D38*
X125575000Y-77437500D03*
X118575000Y-77437500D03*
D39*
X121075000Y-77437500D03*
D40*
X124575000Y-80137500D03*
D41*
X122075000Y-80137500D03*
X122725000Y-80137500D03*
X123375000Y-80137500D03*
X120775000Y-80137500D03*
X121425000Y-80137500D03*
D40*
X119575000Y-80137500D03*
D39*
X123075000Y-77437500D03*
D28*
X107075000Y-78725000D03*
X107075000Y-77825000D03*
D29*
X135235000Y-77060000D03*
X134335000Y-77060000D03*
M02*
