M48
; DRILL file {KiCad 5.1.5-52549c5~84~ubuntu19.04.1} date Mon 13 Jan 2020 11:43:32 AM CET
; FORMAT={-:-/ absolute / inch / decimal}
; #@! TF.CreationDate,2020-01-13T11:43:32+01:00
; #@! TF.GenerationSoftware,Kicad,Pcbnew,5.1.5-52549c5~84~ubuntu19.04.1
; #@! TF.FileFunction,Plated,1,2,PTH
FMAT,2
INCH
T1C0.0100
T2C0.0236
T3C0.0335
%
G90
G05
T1
X4.0266Y-3.2228
X4.0616Y-3.1661
X4.0616Y-3.274
X4.1337Y-3.0744
X4.1955Y-3.1827
X4.34Y-3.3669
X4.3537Y-3.111
X4.3781Y-3.3669
X4.3829Y-3.0346
X4.3959Y-4.3063
X4.3959Y-4.3453
X4.3959Y-4.3846
X4.3959Y-4.4244
X4.4179Y-3.3661
X4.4211Y-3.1213
X4.4262Y-4.4807
X4.499Y-3.0957
X4.4994Y-3.126
X4.4998Y-4.4268
X4.5002Y-4.452
X4.5022Y-3.0319
X4.5333Y-3.0953
X4.5333Y-3.1256
X4.5333Y-4.6024
X4.5333Y-3.161
X4.5388Y-4.2843
X4.5586Y-4.474
X4.5695Y-3.2724
X4.5848Y-3.4508
X4.5923Y-4.2827
X4.6061Y-3.3394
X4.6093Y-4.474
X4.6356Y-4.6165
X4.6746Y-4.428
X4.6919Y-4.4039
X4.7089Y-4.5276
X4.7463Y-3.1831
X4.8167Y-3.9075
X4.8171Y-3.8677
X4.8177Y-3.7495
X4.8179Y-3.7102
X4.8179Y-3.789
X4.8179Y-3.8283
X4.8181Y-3.6316
X4.8183Y-4.0256
X4.8183Y-3.6708
X4.823Y-4.6157
X4.8333Y-3.8878
X4.8337Y-3.848
X4.8341Y-3.9272
X4.8345Y-3.7693
X4.8348Y-4.0051
X4.8349Y-3.7299
X4.8352Y-3.6905
X4.8352Y-3.8083
X4.8353Y-3.6511
X4.9207Y-4.6457
X4.9293Y-3.8992
X4.953Y-3.8772
X4.9616Y-4.4925
X4.9616Y-4.5772
X4.9623Y-3.715
X4.9726Y-3.2067
X4.977Y-3.835
X5.0411Y-3.613
X5.0415Y-4.0142
X5.0643Y-3.525
X5.0843Y-3.551
X5.0919Y-4.2169
X5.1033Y-3.9209
X5.1073Y-3.594
X5.1283Y-3.574
X5.1388Y-3.7697
X5.1392Y-4.2165
X5.1502Y-3.4945
X5.1563Y-3.792
X5.1715Y-3.7374
X5.1837Y-3.0354
X5.1923Y-3.5008
X5.1998Y-4.3492
X5.2077Y-3.2362
X5.2104Y-3.1079
X5.2144Y-3.737
X5.2144Y-3.8894
X5.2506Y-4.3496
X5.2577Y-3.2366
X5.2581Y-3.737
X5.2581Y-3.8894
X5.2805Y-3.5307
X5.3014Y-4.0134
X5.3045Y-4.4776
X5.3077Y-3.2366
X5.3305Y-3.072
X5.3443Y-4.0134
X5.362Y-3.748
X5.3624Y-3.878
X5.3876Y-3.6102
X5.3876Y-4.013
X5.4085Y-4.3657
X5.4085Y-4.4008
X5.412Y-4.2693
X5.4124Y-4.3323
X5.4341Y-4.1268
X5.4821Y-4.0787
X5.4821Y-4.1755
X5.4856Y-3.252
X5.5096Y-4.3012
X5.5215Y-3.5571
X5.5305Y-4.1272
X5.536Y-4.2343
T3
X4.8228Y-3.1619
X5.0197Y-3.1619
T2
G00X4.7835Y-3.0694
M15
G01X4.7835Y-3.0418
M16
G05
G00X5.0591Y-3.0418
M15
G01X5.0591Y-3.0694
M16
G05
T0
M30
