G04 #@! TF.GenerationSoftware,KiCad,Pcbnew,5.1.5-52549c5~84~ubuntu19.04.1*
G04 #@! TF.CreationDate,2020-01-13T11:43:28+01:00*
G04 #@! TF.ProjectId,badge,62616467-652e-46b6-9963-61645f706362,rev?*
G04 #@! TF.SameCoordinates,Original*
G04 #@! TF.FileFunction,Copper,L1,Top*
G04 #@! TF.FilePolarity,Positive*
%FSLAX46Y46*%
G04 Gerber Fmt 4.6, Leading zero omitted, Abs format (unit mm)*
G04 Created by KiCad (PCBNEW 5.1.5-52549c5~84~ubuntu19.04.1) date 2020-01-13 11:43:28*
%MOMM*%
%LPD*%
G04 APERTURE LIST*
%ADD10R,1.600000X1.400000*%
%ADD11R,0.718820X0.599440*%
%ADD12R,0.500000X0.500000*%
%ADD13R,1.500000X1.000000*%
%ADD14C,1.450000*%
%ADD15O,1.200000X1.900000*%
%ADD16C,0.508000*%
%ADD17C,0.152400*%
%ADD18C,0.254000*%
G04 APERTURE END LIST*
D10*
X134722400Y-114958600D03*
X127522400Y-114958600D03*
X134722400Y-117958600D03*
X127522400Y-117958600D03*
X112446600Y-114984000D03*
X105246600Y-114984000D03*
X112446600Y-117984000D03*
X105246600Y-117984000D03*
D11*
X118645920Y-115861700D03*
X119616200Y-115861700D03*
X120581400Y-115861700D03*
X121551680Y-115861700D03*
X121551680Y-117258700D03*
X120581400Y-117258700D03*
X119616200Y-117258700D03*
X118645920Y-117258700D03*
D12*
X140602800Y-108451400D03*
X140602800Y-109251400D03*
X140602800Y-110051400D03*
X140602800Y-110851400D03*
X138202800Y-110871400D03*
X138202800Y-110051400D03*
X138202800Y-109251400D03*
X138202800Y-108451400D03*
D13*
X135401200Y-80314200D03*
X135401200Y-77114200D03*
X130501200Y-80314200D03*
X130501200Y-77114200D03*
X109899600Y-80339600D03*
X109899600Y-77139600D03*
X104999600Y-80339600D03*
X104999600Y-77139600D03*
D14*
X122500000Y-80312500D03*
X127500000Y-80312500D03*
D15*
X121500000Y-77612500D03*
X128500000Y-77612500D03*
D16*
X138025000Y-104820000D03*
X140475000Y-104830000D03*
X139245000Y-103600000D03*
X139245000Y-106057400D03*
X137375000Y-111780000D03*
X115145000Y-116900000D03*
X117075000Y-113640000D03*
X115787600Y-113640000D03*
X114305000Y-113080000D03*
X114295000Y-112440000D03*
X111655000Y-109380000D03*
X111655000Y-110370000D03*
X111655000Y-111370000D03*
X111655000Y-112380000D03*
X126305000Y-81450000D03*
X132345000Y-78940000D03*
X124985000Y-118000000D03*
X126025000Y-116260000D03*
X126025000Y-114110000D03*
X130535000Y-107100000D03*
X129335000Y-107110000D03*
X140615000Y-107550000D03*
X140245000Y-90350000D03*
X122385000Y-102250000D03*
X122805000Y-101730000D03*
X122785000Y-99750000D03*
X122345000Y-99250000D03*
X122765000Y-98750000D03*
X122355000Y-98240000D03*
X122775000Y-97740000D03*
X122375000Y-97240000D03*
X122815000Y-96730000D03*
X122375000Y-96240000D03*
X122795879Y-95741043D03*
X122379524Y-92242470D03*
X136845000Y-91700000D03*
X136195000Y-95200000D03*
X136205000Y-98500000D03*
X136845000Y-101930000D03*
X135745000Y-101940000D03*
X134655000Y-101940000D03*
X128055000Y-101960000D03*
X129625000Y-99590000D03*
X130525000Y-95750000D03*
X128045000Y-91769800D03*
X131885000Y-88920000D03*
X116455000Y-87650000D03*
X116995000Y-84820000D03*
X120555000Y-80850000D03*
X115145000Y-79390000D03*
X114285000Y-79400000D03*
X115145000Y-78620000D03*
X114275000Y-78630000D03*
X114355000Y-77010000D03*
X112295000Y-79280000D03*
X103165000Y-80420000D03*
X103165000Y-83160000D03*
X102275000Y-81860000D03*
X112215000Y-85500000D03*
X111205000Y-85520000D03*
X110235000Y-85520000D03*
X115145800Y-80289000D03*
X110585000Y-79020000D03*
X116065000Y-83120000D03*
X125205000Y-99040000D03*
X112425000Y-113810000D03*
X134735000Y-113730000D03*
X137475000Y-110040000D03*
X137465000Y-108440000D03*
X122505000Y-117240000D03*
X122370238Y-95236107D03*
X130970000Y-96316400D03*
X122805344Y-94739304D03*
X126042400Y-94360600D03*
X122816600Y-92737540D03*
X128633200Y-89534600D03*
X122385234Y-93237595D03*
X129141200Y-90195000D03*
X122374640Y-94238680D03*
X129725400Y-91287200D03*
X122814589Y-93739377D03*
X130258800Y-90779200D03*
X132275000Y-82200000D03*
X131355000Y-94930000D03*
X133545000Y-82210000D03*
X132445000Y-94920000D03*
X134125000Y-89680000D03*
X139335000Y-82600000D03*
X134815000Y-82210000D03*
X133555000Y-94920000D03*
X135395000Y-78030000D03*
X106565000Y-80840000D03*
X130815000Y-88760000D03*
X132445000Y-98790000D03*
X119175000Y-111860000D03*
X119605000Y-115000000D03*
X118735000Y-112470000D03*
X133555000Y-98790000D03*
X125805000Y-98480000D03*
X132075000Y-110470000D03*
X115285000Y-108820000D03*
X126415000Y-97410000D03*
X133365000Y-110480000D03*
X116645000Y-108780000D03*
X117745000Y-117260000D03*
X137375000Y-110890000D03*
X139945000Y-109250000D03*
X111325000Y-77080000D03*
X131665000Y-77100000D03*
X104995000Y-78090000D03*
D17*
X140602800Y-107562200D02*
X140615000Y-107550000D01*
X140602800Y-108451400D02*
X140602800Y-107562200D01*
D18*
X111585000Y-80020000D02*
X111585000Y-82760000D01*
X110585000Y-79020000D02*
X111585000Y-80020000D01*
X111585000Y-82760000D02*
X111945000Y-83120000D01*
X111945000Y-83120000D02*
X114655000Y-83120000D01*
X114655000Y-83120000D02*
X116065000Y-83120000D01*
D17*
X125205000Y-99040000D02*
X125195000Y-99050000D01*
X125195000Y-99050000D02*
X125195000Y-102650000D01*
X125195000Y-102650000D02*
X124775000Y-103070000D01*
X124775000Y-103070000D02*
X113835000Y-103070000D01*
X113835000Y-103070000D02*
X112425000Y-104480000D01*
X112425000Y-104480000D02*
X112425000Y-113810000D01*
X112446600Y-113831600D02*
X112425000Y-113810000D01*
X112446600Y-114984000D02*
X112446600Y-113831600D01*
X105246600Y-114984000D02*
X112446600Y-114984000D01*
X134722400Y-114958600D02*
X133770000Y-114958600D01*
X133770000Y-114958600D02*
X127522400Y-114958600D01*
X134735000Y-113730000D02*
X134735000Y-114946000D01*
X134735000Y-114946000D02*
X134722400Y-114958600D01*
X137486400Y-110051400D02*
X137475000Y-110040000D01*
X138202800Y-110051400D02*
X137486400Y-110051400D01*
X137476400Y-108451400D02*
X137465000Y-108440000D01*
X138202800Y-108451400D02*
X137476400Y-108451400D01*
X122486300Y-117258700D02*
X122505000Y-117240000D01*
X121551680Y-117258700D02*
X122486300Y-117258700D01*
X122371031Y-95236900D02*
X127147300Y-95236900D01*
X122370238Y-95236107D02*
X122371031Y-95236900D01*
X127147300Y-95236900D02*
X128226800Y-96316400D01*
X128226800Y-96316400D02*
X130970000Y-96316400D01*
X124901696Y-94739304D02*
X125280400Y-94360600D01*
X122805344Y-94739304D02*
X124901696Y-94739304D01*
X125280400Y-94360600D02*
X126042400Y-94360600D01*
X124407460Y-92737540D02*
X127610400Y-89534600D01*
X122816600Y-92737540D02*
X124407460Y-92737540D01*
X127610400Y-89534600D02*
X128273990Y-89534600D01*
X128273990Y-89534600D02*
X128633200Y-89534600D01*
X124587405Y-93237595D02*
X127630000Y-90195000D01*
X122385234Y-93237595D02*
X124587405Y-93237595D01*
X127630000Y-90195000D02*
X129141200Y-90195000D01*
X124741920Y-94238680D02*
X127693400Y-91287200D01*
X122374640Y-94238680D02*
X124741920Y-94238680D01*
X127693400Y-91287200D02*
X129366190Y-91287200D01*
X129366190Y-91287200D02*
X129725400Y-91287200D01*
X124705623Y-93739377D02*
X127665800Y-90779200D01*
X122814589Y-93739377D02*
X124705623Y-93739377D01*
X127665800Y-90779200D02*
X130258800Y-90779200D01*
X132275000Y-83530000D02*
X132275000Y-82200000D01*
X131355000Y-84450000D02*
X132275000Y-83530000D01*
X131355000Y-94930000D02*
X131355000Y-84450000D01*
X132445000Y-84830000D02*
X133545000Y-83730000D01*
X132445000Y-94920000D02*
X132445000Y-84830000D01*
X133545000Y-83730000D02*
X133545000Y-82210000D01*
X139335000Y-82600000D02*
X139335000Y-84470000D01*
X134378999Y-89426001D02*
X134125000Y-89680000D01*
X139335000Y-84470000D02*
X134378999Y-89426001D01*
X134815000Y-83980000D02*
X134815000Y-82210000D01*
X133555000Y-85240000D02*
X134815000Y-83980000D01*
X133555000Y-94920000D02*
X133555000Y-85240000D01*
X135395000Y-78030000D02*
X135395000Y-77120400D01*
X135395000Y-77120400D02*
X135401200Y-77114200D01*
X106565000Y-83410000D02*
X107085000Y-83930000D01*
X106565000Y-80840000D02*
X106565000Y-83410000D01*
X107085000Y-83930000D02*
X129955000Y-83930000D01*
X129955000Y-83930000D02*
X130405000Y-84380000D01*
X130405000Y-84380000D02*
X130405000Y-88350000D01*
X130405000Y-88350000D02*
X130815000Y-88760000D01*
X132145000Y-107900000D02*
X132445000Y-107600000D01*
X122225000Y-111590000D02*
X122225000Y-108710000D01*
X123035000Y-107900000D02*
X132145000Y-107900000D01*
X121955000Y-111860000D02*
X122225000Y-111590000D01*
X122225000Y-108710000D02*
X123035000Y-107900000D01*
X132445000Y-107600000D02*
X132445000Y-105800000D01*
X119175000Y-111860000D02*
X121955000Y-111860000D01*
X132445000Y-105800000D02*
X132445000Y-98790000D01*
X119616200Y-115011200D02*
X119605000Y-115000000D01*
X119616200Y-115861700D02*
X119616200Y-115011200D01*
X122745000Y-112030000D02*
X122305000Y-112470000D01*
X122745000Y-108960000D02*
X122745000Y-112030000D01*
X123385000Y-108320000D02*
X122745000Y-108960000D01*
X132505000Y-108320000D02*
X123385000Y-108320000D01*
X119094210Y-112470000D02*
X118735000Y-112470000D01*
X133555000Y-98790000D02*
X133555000Y-107270000D01*
X133555000Y-107270000D02*
X132505000Y-108320000D01*
X122305000Y-112470000D02*
X119094210Y-112470000D01*
X123715000Y-109700000D02*
X124215000Y-109200000D01*
X123715000Y-115470000D02*
X123715000Y-109700000D01*
X131635000Y-109200000D02*
X132075000Y-109640000D01*
X122625000Y-116560000D02*
X123715000Y-115470000D01*
X119862780Y-116560000D02*
X122625000Y-116560000D01*
X119616200Y-117258700D02*
X119616200Y-116806580D01*
X119616200Y-116806580D02*
X119862780Y-116560000D01*
X124215000Y-109200000D02*
X131635000Y-109200000D01*
X132075000Y-109640000D02*
X132075000Y-110470000D01*
X140602800Y-112262200D02*
X140075000Y-112790000D01*
X140602800Y-110851400D02*
X140602800Y-112262200D01*
X140075000Y-112790000D02*
X133585000Y-112790000D01*
X133585000Y-112790000D02*
X132945000Y-112150000D01*
X132945000Y-112150000D02*
X132945000Y-111340000D01*
X132945000Y-111340000D02*
X132075000Y-110470000D01*
X125805000Y-103070000D02*
X125805000Y-98839210D01*
X116275000Y-104610000D02*
X117295000Y-103590000D01*
X125285000Y-103590000D02*
X125805000Y-103070000D01*
X117295000Y-103590000D02*
X125285000Y-103590000D01*
X115285000Y-108820000D02*
X116275000Y-107830000D01*
X116275000Y-107830000D02*
X116275000Y-104610000D01*
X125805000Y-98839210D02*
X125805000Y-98480000D01*
X114985000Y-109120000D02*
X114985000Y-115490000D01*
X115285000Y-108820000D02*
X114985000Y-109120000D01*
X114985000Y-115490000D02*
X117675000Y-118180000D01*
X117675000Y-118180000D02*
X119385000Y-118180000D01*
X119385000Y-118180000D02*
X119616200Y-117948800D01*
X119616200Y-117948800D02*
X119616200Y-117258700D01*
X123295000Y-109450000D02*
X123925000Y-108820000D01*
X123925000Y-108820000D02*
X132475000Y-108820000D01*
X123295000Y-113950000D02*
X123295000Y-109450000D01*
X118645920Y-115861700D02*
X118645920Y-114769080D01*
X122795000Y-114450000D02*
X123295000Y-113950000D01*
X118965000Y-114450000D02*
X122795000Y-114450000D01*
X118645920Y-114769080D02*
X118965000Y-114450000D01*
X132475000Y-108820000D02*
X133365000Y-109710000D01*
X133365000Y-109710000D02*
X133365000Y-110480000D01*
X139925000Y-110180000D02*
X140053600Y-110051400D01*
X139925000Y-112060000D02*
X139925000Y-110180000D01*
X139585000Y-112400000D02*
X139925000Y-112060000D01*
X133915000Y-112400000D02*
X139585000Y-112400000D01*
X133365000Y-110480000D02*
X133365000Y-111850000D01*
X133365000Y-111850000D02*
X133915000Y-112400000D01*
X140053600Y-110051400D02*
X140602800Y-110051400D01*
X116645000Y-104830000D02*
X117495000Y-103980000D01*
X116645000Y-108780000D02*
X116645000Y-104830000D01*
X117495000Y-103980000D02*
X125575000Y-103980000D01*
X125575000Y-103980000D02*
X126415000Y-103140000D01*
X126415000Y-103140000D02*
X126415000Y-97769210D01*
X126415000Y-97769210D02*
X126415000Y-97410000D01*
X116076700Y-115861700D02*
X115304999Y-115089999D01*
X118645920Y-115861700D02*
X116076700Y-115861700D01*
X115304999Y-115089999D02*
X115304999Y-113709999D01*
X115304999Y-113709999D02*
X115289810Y-113694810D01*
X115289810Y-113694810D02*
X115289810Y-110135190D01*
X115289810Y-110135190D02*
X116645000Y-108780000D01*
X117746300Y-117258700D02*
X117745000Y-117260000D01*
X118645920Y-117258700D02*
X117746300Y-117258700D01*
X137393600Y-110871400D02*
X137375000Y-110890000D01*
X138202800Y-110871400D02*
X137393600Y-110871400D01*
X139945000Y-109250000D02*
X140601400Y-109250000D01*
X140601400Y-109250000D02*
X140602800Y-109251400D01*
X130501200Y-78443800D02*
X130075000Y-78870000D01*
X130501200Y-77114200D02*
X130501200Y-78443800D01*
X130075000Y-78870000D02*
X119905000Y-78870000D01*
X119905000Y-78870000D02*
X118527601Y-77492601D01*
X118527601Y-77492601D02*
X111737601Y-77492601D01*
X111737601Y-77492601D02*
X111325000Y-77080000D01*
X131650800Y-77114200D02*
X131665000Y-77100000D01*
X130501200Y-77114200D02*
X131650800Y-77114200D01*
X104999600Y-78085400D02*
X104995000Y-78090000D01*
X104999600Y-77139600D02*
X104999600Y-78085400D01*
X130501200Y-77114200D02*
X130219200Y-77114200D01*
X105265400Y-77139600D02*
X104999600Y-77139600D01*
D18*
X120581400Y-115233600D02*
X120715000Y-115100000D01*
X120581400Y-115861700D02*
X120581400Y-115233600D01*
X120715000Y-115100000D02*
X121415000Y-115100000D01*
X121415000Y-115100000D02*
X121551680Y-115236680D01*
X121551680Y-115236680D02*
X121551680Y-115861700D01*
D17*
X110875000Y-77890000D02*
X110124600Y-77139600D01*
X118045000Y-77890000D02*
X110875000Y-77890000D01*
X119395000Y-79240000D02*
X118045000Y-77890000D01*
X130205000Y-79240000D02*
X119395000Y-79240000D01*
X110124600Y-77139600D02*
X109899600Y-77139600D01*
X130501200Y-80314200D02*
X130501200Y-79536200D01*
X130501200Y-79536200D02*
X130205000Y-79240000D01*
D18*
G36*
X120543693Y-76470775D02*
G01*
X120407610Y-76672554D01*
X120313507Y-76897004D01*
X120265000Y-77135500D01*
X120265000Y-77485500D01*
X121373000Y-77485500D01*
X121373000Y-77465500D01*
X121627000Y-77465500D01*
X121627000Y-77485500D01*
X122735000Y-77485500D01*
X122735000Y-77135500D01*
X122686493Y-76897004D01*
X122592390Y-76672554D01*
X122456307Y-76470775D01*
X122320123Y-76335757D01*
X127679877Y-76335757D01*
X127543693Y-76470775D01*
X127407610Y-76672554D01*
X127313507Y-76897004D01*
X127265000Y-77135500D01*
X127265000Y-77485500D01*
X128373000Y-77485500D01*
X128373000Y-77465500D01*
X128627000Y-77465500D01*
X128627000Y-77485500D01*
X128647000Y-77485500D01*
X128647000Y-77739500D01*
X128627000Y-77739500D01*
X128627000Y-77759500D01*
X128373000Y-77759500D01*
X128373000Y-77739500D01*
X127265000Y-77739500D01*
X127265000Y-78089500D01*
X127313507Y-78327996D01*
X127391659Y-78514400D01*
X122608341Y-78514400D01*
X122686493Y-78327996D01*
X122735000Y-78089500D01*
X122735000Y-77739500D01*
X121627000Y-77739500D01*
X121627000Y-77759500D01*
X121373000Y-77759500D01*
X121373000Y-77739500D01*
X120265000Y-77739500D01*
X120265000Y-78089500D01*
X120313507Y-78327996D01*
X120391659Y-78514400D01*
X120052295Y-78514400D01*
X118791400Y-77253507D01*
X118780264Y-77239938D01*
X118726117Y-77195500D01*
X118664341Y-77162480D01*
X118597311Y-77142147D01*
X118545064Y-77137001D01*
X118545056Y-77137001D01*
X118527601Y-77135282D01*
X118510146Y-77137001D01*
X111884895Y-77137001D01*
X111858400Y-77110506D01*
X111858400Y-77027465D01*
X111837902Y-76924413D01*
X111797693Y-76827340D01*
X111739319Y-76739977D01*
X111665023Y-76665681D01*
X111577660Y-76607307D01*
X111480587Y-76567098D01*
X111377535Y-76546600D01*
X111272465Y-76546600D01*
X111169413Y-76567098D01*
X111072340Y-76607307D01*
X110984977Y-76665681D01*
X110930351Y-76720307D01*
X110930351Y-76639600D01*
X110924956Y-76584828D01*
X110908980Y-76532161D01*
X110883036Y-76483623D01*
X110848121Y-76441079D01*
X110805577Y-76406164D01*
X110757039Y-76380220D01*
X110704372Y-76364244D01*
X110649600Y-76358849D01*
X109149600Y-76358849D01*
X109094828Y-76364244D01*
X109042161Y-76380220D01*
X108993623Y-76406164D01*
X108951079Y-76441079D01*
X108916164Y-76483623D01*
X108890220Y-76532161D01*
X108874244Y-76584828D01*
X108868849Y-76639600D01*
X108868849Y-77639600D01*
X108874244Y-77694372D01*
X108890220Y-77747039D01*
X108916164Y-77795577D01*
X108951079Y-77838121D01*
X108993623Y-77873036D01*
X109042161Y-77898980D01*
X109094828Y-77914956D01*
X109149600Y-77920351D01*
X110402457Y-77920351D01*
X110611204Y-78129098D01*
X110622337Y-78142663D01*
X110676484Y-78187101D01*
X110738260Y-78220121D01*
X110783608Y-78233877D01*
X110805289Y-78240454D01*
X110811566Y-78241072D01*
X110857537Y-78245600D01*
X110857544Y-78245600D01*
X110875000Y-78247319D01*
X110892455Y-78245600D01*
X117897707Y-78245600D01*
X119131210Y-79479105D01*
X119142337Y-79492663D01*
X119155895Y-79503790D01*
X119155900Y-79503795D01*
X119181626Y-79524907D01*
X119196484Y-79537101D01*
X119258260Y-79570121D01*
X119325290Y-79590454D01*
X119377537Y-79595600D01*
X119377546Y-79595600D01*
X119394999Y-79597319D01*
X119412452Y-79595600D01*
X121399669Y-79595600D01*
X121324550Y-79615465D01*
X121211150Y-79858178D01*
X121147281Y-80118349D01*
X121135396Y-80385982D01*
X121175952Y-80650791D01*
X121267391Y-80902600D01*
X121324550Y-81009535D01*
X121560867Y-81072028D01*
X122320395Y-80312500D01*
X122306253Y-80298358D01*
X122485858Y-80118753D01*
X122500000Y-80132895D01*
X122514143Y-80118753D01*
X122693748Y-80298358D01*
X122679605Y-80312500D01*
X123439133Y-81072028D01*
X123675450Y-81009535D01*
X123788850Y-80766822D01*
X123852719Y-80506651D01*
X123864604Y-80239018D01*
X123824048Y-79974209D01*
X123732609Y-79722400D01*
X123675450Y-79615465D01*
X123600331Y-79595600D01*
X126399669Y-79595600D01*
X126324550Y-79615465D01*
X126211150Y-79858178D01*
X126147281Y-80118349D01*
X126135396Y-80385982D01*
X126175952Y-80650791D01*
X126267391Y-80902600D01*
X126324550Y-81009535D01*
X126560867Y-81072028D01*
X127320395Y-80312500D01*
X127306253Y-80298358D01*
X127485858Y-80118753D01*
X127500000Y-80132895D01*
X127514143Y-80118753D01*
X127693748Y-80298358D01*
X127679605Y-80312500D01*
X128439133Y-81072028D01*
X128675450Y-81009535D01*
X128788850Y-80766822D01*
X128852719Y-80506651D01*
X128864604Y-80239018D01*
X128824048Y-79974209D01*
X128732609Y-79722400D01*
X128675450Y-79615465D01*
X128600331Y-79595600D01*
X129577145Y-79595600D01*
X129552679Y-79615679D01*
X129517764Y-79658223D01*
X129491820Y-79706761D01*
X129475844Y-79759428D01*
X129470449Y-79814200D01*
X129470449Y-80814200D01*
X129475844Y-80868972D01*
X129491820Y-80921639D01*
X129517764Y-80970177D01*
X129552679Y-81012721D01*
X129595223Y-81047636D01*
X129643761Y-81073580D01*
X129696428Y-81089556D01*
X129751200Y-81094951D01*
X131251200Y-81094951D01*
X131305972Y-81089556D01*
X131358639Y-81073580D01*
X131407177Y-81047636D01*
X131449721Y-81012721D01*
X131484636Y-80970177D01*
X131510580Y-80921639D01*
X131526556Y-80868972D01*
X131531951Y-80814200D01*
X131531951Y-79814200D01*
X131526556Y-79759428D01*
X131510580Y-79706761D01*
X131484636Y-79658223D01*
X131449721Y-79615679D01*
X131407177Y-79580764D01*
X131358639Y-79554820D01*
X131305972Y-79538844D01*
X131251200Y-79533449D01*
X130858248Y-79533449D01*
X130856800Y-79518744D01*
X130856800Y-79518737D01*
X130851654Y-79466490D01*
X130845905Y-79447536D01*
X130839410Y-79426126D01*
X130831321Y-79399460D01*
X130798301Y-79337684D01*
X130786223Y-79322967D01*
X130764995Y-79297100D01*
X130764990Y-79297095D01*
X130753863Y-79283537D01*
X130740304Y-79272410D01*
X130468798Y-79000905D01*
X130458967Y-78988926D01*
X130692367Y-78755526D01*
X137111002Y-78755526D01*
X137111402Y-78763943D01*
X137111405Y-78772364D01*
X137112170Y-78780108D01*
X137113311Y-78804104D01*
X137115354Y-78812316D01*
X137140470Y-79066420D01*
X137140477Y-79082686D01*
X137145951Y-79110145D01*
X137153155Y-79146299D01*
X137159386Y-79161328D01*
X137235022Y-79410294D01*
X137238156Y-79426091D01*
X137244430Y-79441260D01*
X137244473Y-79441402D01*
X137250361Y-79455599D01*
X137256744Y-79471033D01*
X137256820Y-79471176D01*
X137263103Y-79486326D01*
X137272050Y-79499705D01*
X137394594Y-79729257D01*
X137400812Y-79744287D01*
X137424315Y-79779497D01*
X137436823Y-79798238D01*
X137448312Y-79809739D01*
X137615253Y-80013347D01*
X137624374Y-80026984D01*
X137647219Y-80049808D01*
X137670043Y-80072653D01*
X137683681Y-80081775D01*
X137887291Y-80248718D01*
X137898790Y-80260205D01*
X137912288Y-80269214D01*
X137952738Y-80296215D01*
X137967773Y-80302435D01*
X138197325Y-80424977D01*
X138210702Y-80433923D01*
X138225852Y-80440206D01*
X138225995Y-80440282D01*
X138241429Y-80446665D01*
X138255626Y-80452553D01*
X138255768Y-80452596D01*
X138270937Y-80458870D01*
X138286733Y-80462003D01*
X138535704Y-80537641D01*
X138550730Y-80543871D01*
X138580140Y-80549731D01*
X138614341Y-80556549D01*
X138630611Y-80556556D01*
X138892585Y-80582449D01*
X138908640Y-80585637D01*
X138940969Y-80585626D01*
X138973298Y-80585637D01*
X138989353Y-80582449D01*
X139251329Y-80556554D01*
X139267595Y-80556547D01*
X139300578Y-80549972D01*
X139331207Y-80543868D01*
X139346230Y-80537639D01*
X139595212Y-80461997D01*
X139610997Y-80458866D01*
X139626154Y-80452597D01*
X139626309Y-80452550D01*
X139641484Y-80446257D01*
X139655939Y-80440278D01*
X139656075Y-80440205D01*
X139671233Y-80433919D01*
X139684613Y-80424970D01*
X139914166Y-80302427D01*
X139929191Y-80296211D01*
X139954280Y-80279464D01*
X139983143Y-80260200D01*
X139994647Y-80248708D01*
X140198254Y-80081768D01*
X140211888Y-80072649D01*
X140234349Y-80050167D01*
X140257556Y-80026981D01*
X140266679Y-80013341D01*
X140433615Y-79809738D01*
X140445106Y-79798235D01*
X140458347Y-79778395D01*
X140481117Y-79744284D01*
X140487337Y-79729248D01*
X140609877Y-79499701D01*
X140618824Y-79486323D01*
X140625108Y-79471171D01*
X140625183Y-79471030D01*
X140631418Y-79455956D01*
X140637455Y-79441398D01*
X140637500Y-79441250D01*
X140643771Y-79426088D01*
X140646903Y-79410298D01*
X140722543Y-79161318D01*
X140728771Y-79146298D01*
X140735974Y-79110151D01*
X140741449Y-79082685D01*
X140741456Y-79066419D01*
X140766572Y-78812315D01*
X140768615Y-78804104D01*
X140769755Y-78780110D01*
X140770521Y-78772365D01*
X140770524Y-78763942D01*
X140770924Y-78755525D01*
X140770530Y-78747750D01*
X140770538Y-78723731D01*
X140768890Y-78715431D01*
X140763945Y-78617951D01*
X140764011Y-78617493D01*
X140762313Y-78585775D01*
X140761506Y-78569868D01*
X140761437Y-78569405D01*
X140761411Y-78568928D01*
X140758967Y-78552940D01*
X140754293Y-78521772D01*
X140754137Y-78521338D01*
X140739820Y-78427667D01*
X140739763Y-78419151D01*
X140734929Y-78395667D01*
X140733762Y-78388034D01*
X140731668Y-78379826D01*
X140729957Y-78371516D01*
X140727663Y-78364133D01*
X140721738Y-78340910D01*
X140718063Y-78333227D01*
X140642506Y-78090000D01*
X140639233Y-78074094D01*
X140632909Y-78059106D01*
X140632907Y-78059101D01*
X140630032Y-78052290D01*
X140620325Y-78029285D01*
X140620316Y-78029269D01*
X140613996Y-78014294D01*
X140604886Y-78000855D01*
X140482289Y-77775092D01*
X140476268Y-77760671D01*
X140466849Y-77746660D01*
X140466550Y-77746109D01*
X140457838Y-77733255D01*
X140449135Y-77720309D01*
X140448734Y-77719823D01*
X140439264Y-77705851D01*
X140428143Y-77694876D01*
X140266499Y-77499032D01*
X140257984Y-77486221D01*
X140245910Y-77474087D01*
X140245356Y-77473416D01*
X140234513Y-77462633D01*
X140223680Y-77451747D01*
X140223006Y-77451191D01*
X140210870Y-77439123D01*
X140198058Y-77430614D01*
X140002155Y-77269032D01*
X139991176Y-77257915D01*
X139977201Y-77248450D01*
X139976716Y-77248050D01*
X139963789Y-77239367D01*
X139950909Y-77230643D01*
X139950357Y-77230344D01*
X139936345Y-77220931D01*
X139921923Y-77214916D01*
X139696121Y-77092398D01*
X139682676Y-77083291D01*
X139667691Y-77076973D01*
X139667679Y-77076966D01*
X139650894Y-77069890D01*
X139637862Y-77064395D01*
X139637851Y-77064392D01*
X139622865Y-77058074D01*
X139606955Y-77054805D01*
X139363704Y-76979330D01*
X139356022Y-76975659D01*
X139332799Y-76969741D01*
X139325414Y-76967450D01*
X139317108Y-76965743D01*
X139308894Y-76963650D01*
X139301253Y-76962485D01*
X139277775Y-76957660D01*
X139269259Y-76957606D01*
X139175590Y-76943323D01*
X139175151Y-76943165D01*
X139143673Y-76938456D01*
X139127989Y-76936064D01*
X139127520Y-76936039D01*
X139127052Y-76935969D01*
X139111048Y-76935163D01*
X139079425Y-76933480D01*
X139078966Y-76933546D01*
X138989524Y-76929039D01*
X138989125Y-76928940D01*
X138965018Y-76927786D01*
X138957142Y-76927010D01*
X138949249Y-76927010D01*
X138941390Y-76926614D01*
X138940968Y-76926634D01*
X138940546Y-76926614D01*
X138932686Y-76927010D01*
X138924794Y-76927010D01*
X138916927Y-76927785D01*
X138892813Y-76928939D01*
X138892411Y-76929039D01*
X138802972Y-76933545D01*
X138802512Y-76933479D01*
X138770815Y-76935166D01*
X138754887Y-76935968D01*
X138754420Y-76936038D01*
X138753947Y-76936063D01*
X138738102Y-76938479D01*
X138706788Y-76943164D01*
X138706352Y-76943321D01*
X138612677Y-76957605D01*
X138604161Y-76957659D01*
X138580676Y-76962485D01*
X138573041Y-76963649D01*
X138564839Y-76965739D01*
X138556522Y-76967448D01*
X138549122Y-76969744D01*
X138525913Y-76975658D01*
X138518237Y-76979327D01*
X138274983Y-77054800D01*
X138259068Y-77058070D01*
X138244079Y-77064389D01*
X138244073Y-77064391D01*
X138233659Y-77068782D01*
X138214254Y-77076963D01*
X138214243Y-77076969D01*
X138199259Y-77083287D01*
X138185812Y-77092395D01*
X137960017Y-77214908D01*
X137945587Y-77220927D01*
X137931567Y-77230345D01*
X137931023Y-77230640D01*
X137918285Y-77239267D01*
X137905216Y-77248046D01*
X137904727Y-77248449D01*
X137890755Y-77257912D01*
X137879778Y-77269027D01*
X137683875Y-77430607D01*
X137671061Y-77439118D01*
X137658925Y-77451186D01*
X137658251Y-77451742D01*
X137647388Y-77462658D01*
X137636575Y-77473411D01*
X137636024Y-77474078D01*
X137623946Y-77486216D01*
X137615428Y-77499032D01*
X137453790Y-77694868D01*
X137442665Y-77705847D01*
X137433190Y-77719826D01*
X137432794Y-77720306D01*
X137424200Y-77733090D01*
X137415378Y-77746106D01*
X137415075Y-77746665D01*
X137405661Y-77760668D01*
X137399643Y-77775081D01*
X137277047Y-78000843D01*
X137267931Y-78014290D01*
X137261606Y-78029277D01*
X137261603Y-78029282D01*
X137261602Y-78029285D01*
X137249020Y-78059097D01*
X137249014Y-78059115D01*
X137242695Y-78074091D01*
X137239422Y-78089994D01*
X137163863Y-78333226D01*
X137160188Y-78340909D01*
X137154260Y-78364138D01*
X137151969Y-78371515D01*
X137150261Y-78379812D01*
X137148163Y-78388034D01*
X137146994Y-78395682D01*
X137142163Y-78419150D01*
X137142106Y-78427662D01*
X137127789Y-78521337D01*
X137127633Y-78521771D01*
X137122953Y-78552977D01*
X137120515Y-78568929D01*
X137120490Y-78569404D01*
X137120420Y-78569868D01*
X137119613Y-78585779D01*
X137117915Y-78617492D01*
X137117981Y-78617950D01*
X137113036Y-78715431D01*
X137111388Y-78723731D01*
X137111396Y-78747751D01*
X137111002Y-78755526D01*
X130692367Y-78755526D01*
X130740299Y-78707594D01*
X130753863Y-78696463D01*
X130765876Y-78681826D01*
X130774364Y-78671483D01*
X130798301Y-78642316D01*
X130831321Y-78580540D01*
X130851654Y-78513510D01*
X130856800Y-78461263D01*
X130856800Y-78461255D01*
X130858519Y-78443800D01*
X130856800Y-78426345D01*
X130856800Y-77894951D01*
X131251200Y-77894951D01*
X131305972Y-77889556D01*
X131358639Y-77873580D01*
X131407177Y-77847636D01*
X131449721Y-77812721D01*
X131484636Y-77770177D01*
X131510580Y-77721639D01*
X131526556Y-77668972D01*
X131531643Y-77617324D01*
X131612465Y-77633400D01*
X131717535Y-77633400D01*
X131820587Y-77612902D01*
X131917660Y-77572693D01*
X132005023Y-77514319D01*
X132079319Y-77440023D01*
X132137693Y-77352660D01*
X132177902Y-77255587D01*
X132198400Y-77152535D01*
X132198400Y-77047465D01*
X132177902Y-76944413D01*
X132137693Y-76847340D01*
X132079319Y-76759977D01*
X132005023Y-76685681D01*
X131917660Y-76627307D01*
X131820587Y-76587098D01*
X131717535Y-76566600D01*
X131612465Y-76566600D01*
X131528900Y-76583222D01*
X131526556Y-76559428D01*
X131510580Y-76506761D01*
X131484636Y-76458223D01*
X131449721Y-76415679D01*
X131407177Y-76380764D01*
X131358639Y-76354820D01*
X131305972Y-76338844D01*
X131274632Y-76335757D01*
X134627768Y-76335757D01*
X134596428Y-76338844D01*
X134543761Y-76354820D01*
X134495223Y-76380764D01*
X134452679Y-76415679D01*
X134417764Y-76458223D01*
X134391820Y-76506761D01*
X134375844Y-76559428D01*
X134370449Y-76614200D01*
X134370449Y-77614200D01*
X134375844Y-77668972D01*
X134391820Y-77721639D01*
X134417764Y-77770177D01*
X134452679Y-77812721D01*
X134495223Y-77847636D01*
X134543761Y-77873580D01*
X134596428Y-77889556D01*
X134651200Y-77894951D01*
X134878013Y-77894951D01*
X134861600Y-77977465D01*
X134861600Y-78082535D01*
X134882098Y-78185587D01*
X134922307Y-78282660D01*
X134980681Y-78370023D01*
X135054977Y-78444319D01*
X135142340Y-78502693D01*
X135239413Y-78542902D01*
X135342465Y-78563400D01*
X135447535Y-78563400D01*
X135550587Y-78542902D01*
X135647660Y-78502693D01*
X135735023Y-78444319D01*
X135809319Y-78370023D01*
X135867693Y-78282660D01*
X135907902Y-78185587D01*
X135928400Y-78082535D01*
X135928400Y-77977465D01*
X135911987Y-77894951D01*
X136151200Y-77894951D01*
X136205972Y-77889556D01*
X136258639Y-77873580D01*
X136307177Y-77847636D01*
X136349721Y-77812721D01*
X136384636Y-77770177D01*
X136410580Y-77721639D01*
X136426556Y-77668972D01*
X136431951Y-77614200D01*
X136431951Y-76614200D01*
X136426556Y-76559428D01*
X136410580Y-76506761D01*
X136384636Y-76458223D01*
X136349721Y-76415679D01*
X136307177Y-76380764D01*
X136258639Y-76354820D01*
X136205972Y-76338844D01*
X136174632Y-76335757D01*
X138611284Y-76335757D01*
X138901393Y-76350309D01*
X139174334Y-76391730D01*
X139437330Y-76459030D01*
X139689227Y-76550871D01*
X139928770Y-76665921D01*
X140154664Y-76802865D01*
X140365539Y-76960355D01*
X140560008Y-77137026D01*
X140736678Y-77331494D01*
X140894163Y-77542366D01*
X141031106Y-77768259D01*
X141146155Y-78007801D01*
X141237996Y-78259701D01*
X141305296Y-78522693D01*
X141346716Y-78795634D01*
X141361269Y-79085763D01*
X141361269Y-91613000D01*
X137095000Y-91613000D01*
X137070224Y-91615440D01*
X137046399Y-91622667D01*
X137024443Y-91634403D01*
X137005197Y-91650197D01*
X136989403Y-91669443D01*
X136977667Y-91691399D01*
X136970440Y-91715224D01*
X136968000Y-91740000D01*
X136968000Y-101970000D01*
X136970440Y-101994776D01*
X136977667Y-102018601D01*
X136989403Y-102040557D01*
X137005197Y-102059803D01*
X137024443Y-102075597D01*
X137046399Y-102087333D01*
X137070224Y-102094560D01*
X137095000Y-102097000D01*
X141361268Y-102097000D01*
X141361268Y-115926416D01*
X141346716Y-116216529D01*
X141305295Y-116489491D01*
X141237992Y-116752520D01*
X141146151Y-117004449D01*
X141031091Y-117244048D01*
X140894146Y-117469983D01*
X140736656Y-117680902D01*
X140559982Y-117875417D01*
X140365511Y-118052136D01*
X140154630Y-118209671D01*
X139928731Y-118346656D01*
X139689193Y-118461739D01*
X139437308Y-118553604D01*
X139174310Y-118620929D01*
X138901378Y-118662362D01*
X138611288Y-118676919D01*
X101770603Y-118676919D01*
X101480501Y-118662362D01*
X101207558Y-118620929D01*
X100944539Y-118553605D01*
X100692607Y-118461735D01*
X100453018Y-118346643D01*
X100227075Y-118209655D01*
X100016157Y-118052124D01*
X99821636Y-117875401D01*
X99644911Y-117680878D01*
X99487370Y-117469948D01*
X99350382Y-117244006D01*
X99235292Y-117004416D01*
X99143425Y-116752492D01*
X99076099Y-116489468D01*
X99035766Y-116223768D01*
X99611352Y-116223768D01*
X99611363Y-116256097D01*
X99611352Y-116288426D01*
X99614540Y-116304483D01*
X99640434Y-116566457D01*
X99640441Y-116582722D01*
X99647247Y-116616866D01*
X99653119Y-116646336D01*
X99659347Y-116661358D01*
X99734987Y-116910339D01*
X99738119Y-116926126D01*
X99744389Y-116941286D01*
X99744435Y-116941437D01*
X99750699Y-116956543D01*
X99756707Y-116971068D01*
X99756779Y-116971202D01*
X99763065Y-116986361D01*
X99772015Y-116999744D01*
X99894556Y-117229293D01*
X99900774Y-117244324D01*
X99919358Y-117272165D01*
X99936784Y-117298275D01*
X99948277Y-117309780D01*
X100115217Y-117513387D01*
X100124336Y-117527020D01*
X100146997Y-117549661D01*
X100170005Y-117572690D01*
X100183643Y-117581812D01*
X100387246Y-117748750D01*
X100398750Y-117760242D01*
X100417719Y-117772902D01*
X100452699Y-117796251D01*
X100467728Y-117802468D01*
X100697290Y-117925018D01*
X100710663Y-117933961D01*
X100725809Y-117940242D01*
X100725955Y-117940320D01*
X100741766Y-117946859D01*
X100755587Y-117952591D01*
X100755726Y-117952633D01*
X100770897Y-117958908D01*
X100786695Y-117962042D01*
X101035663Y-118037679D01*
X101050689Y-118043909D01*
X101083941Y-118050535D01*
X101114301Y-118056587D01*
X101130568Y-118056594D01*
X101392543Y-118082488D01*
X101408599Y-118085676D01*
X101440928Y-118085665D01*
X101473257Y-118085676D01*
X101489314Y-118082488D01*
X101751288Y-118056594D01*
X101767554Y-118056587D01*
X101795538Y-118051009D01*
X101831167Y-118043909D01*
X101846196Y-118037678D01*
X102095162Y-117962041D01*
X102110958Y-117958908D01*
X102126127Y-117952634D01*
X102126269Y-117952591D01*
X102140466Y-117946703D01*
X102155900Y-117940320D01*
X102156043Y-117940244D01*
X102171193Y-117933961D01*
X102184569Y-117925015D01*
X102414124Y-117802470D01*
X102429156Y-117796252D01*
X102454351Y-117779433D01*
X102483106Y-117760242D01*
X102494618Y-117748743D01*
X102698219Y-117581808D01*
X102711851Y-117572690D01*
X102734313Y-117550207D01*
X102757520Y-117527021D01*
X102766642Y-117513383D01*
X102933585Y-117309773D01*
X102945072Y-117298274D01*
X102959830Y-117276163D01*
X102981082Y-117244326D01*
X102987302Y-117229291D01*
X103109844Y-116999740D01*
X103118791Y-116986361D01*
X103125076Y-116971207D01*
X103125149Y-116971069D01*
X103131313Y-116956167D01*
X103137421Y-116941437D01*
X103137466Y-116941289D01*
X103143737Y-116926127D01*
X103146869Y-116910337D01*
X103222510Y-116661355D01*
X103228737Y-116646336D01*
X103233978Y-116620035D01*
X103241415Y-116582723D01*
X103241422Y-116566457D01*
X103267316Y-116304482D01*
X103270504Y-116288426D01*
X103270493Y-116256097D01*
X103270504Y-116223768D01*
X103267316Y-116207712D01*
X103241422Y-115945737D01*
X103241415Y-115929470D01*
X103235363Y-115899110D01*
X103228737Y-115865858D01*
X103222507Y-115850832D01*
X103146869Y-115601863D01*
X103143736Y-115586067D01*
X103137462Y-115570898D01*
X103137419Y-115570756D01*
X103131531Y-115556559D01*
X103125148Y-115541125D01*
X103125072Y-115540982D01*
X103118789Y-115525832D01*
X103109843Y-115512456D01*
X102987300Y-115282904D01*
X102981081Y-115267870D01*
X102960249Y-115236662D01*
X102945071Y-115213920D01*
X102933578Y-115202415D01*
X102766642Y-114998813D01*
X102757520Y-114985174D01*
X102734675Y-114962350D01*
X102711852Y-114939506D01*
X102698214Y-114930384D01*
X102494612Y-114763447D01*
X102483105Y-114751953D01*
X102454228Y-114732680D01*
X102429154Y-114715943D01*
X102414123Y-114709725D01*
X102184573Y-114587183D01*
X102171193Y-114578235D01*
X102156038Y-114571950D01*
X102155899Y-114571876D01*
X102140842Y-114565648D01*
X102126269Y-114559605D01*
X102126123Y-114559561D01*
X102110957Y-114553288D01*
X102095164Y-114550155D01*
X101846196Y-114474518D01*
X101831167Y-114468287D01*
X101795538Y-114461187D01*
X101767554Y-114455609D01*
X101751288Y-114455602D01*
X101505556Y-114431313D01*
X101505502Y-114431297D01*
X101489260Y-114429697D01*
X101473257Y-114426520D01*
X101444649Y-114426530D01*
X101437207Y-114426530D01*
X101408599Y-114426520D01*
X101392596Y-114429697D01*
X101376354Y-114431297D01*
X101376300Y-114431313D01*
X101130568Y-114455602D01*
X101114301Y-114455609D01*
X101083941Y-114461661D01*
X101050689Y-114468287D01*
X101035663Y-114474517D01*
X100786694Y-114550155D01*
X100770898Y-114553288D01*
X100755729Y-114559562D01*
X100755587Y-114559605D01*
X100741390Y-114565493D01*
X100725956Y-114571876D01*
X100725813Y-114571952D01*
X100710663Y-114578235D01*
X100697287Y-114587181D01*
X100467739Y-114709722D01*
X100452700Y-114715943D01*
X100417342Y-114739545D01*
X100398751Y-114751953D01*
X100387250Y-114763442D01*
X100183642Y-114930384D01*
X100170004Y-114939506D01*
X100147181Y-114962351D01*
X100124336Y-114985174D01*
X100115215Y-114998811D01*
X99948283Y-115202410D01*
X99936785Y-115213920D01*
X99919981Y-115239098D01*
X99900775Y-115267871D01*
X99894557Y-115282901D01*
X99772015Y-115512452D01*
X99763067Y-115525832D01*
X99756782Y-115540987D01*
X99756708Y-115541126D01*
X99750480Y-115556183D01*
X99744437Y-115570756D01*
X99744393Y-115570902D01*
X99738120Y-115586068D01*
X99734987Y-115601861D01*
X99659350Y-115850829D01*
X99653119Y-115865858D01*
X99646019Y-115901487D01*
X99640441Y-115929471D01*
X99640434Y-115945737D01*
X99614540Y-116207711D01*
X99611352Y-116223768D01*
X99035766Y-116223768D01*
X99034666Y-116216523D01*
X99020109Y-115926420D01*
X99020109Y-114284000D01*
X104165849Y-114284000D01*
X104165849Y-115684000D01*
X104171244Y-115738772D01*
X104187220Y-115791439D01*
X104213164Y-115839977D01*
X104248079Y-115882521D01*
X104290623Y-115917436D01*
X104339161Y-115943380D01*
X104391828Y-115959356D01*
X104446600Y-115964751D01*
X106046600Y-115964751D01*
X106101372Y-115959356D01*
X106154039Y-115943380D01*
X106202577Y-115917436D01*
X106245121Y-115882521D01*
X106280036Y-115839977D01*
X106305980Y-115791439D01*
X106321956Y-115738772D01*
X106327351Y-115684000D01*
X106327351Y-115339600D01*
X111365849Y-115339600D01*
X111365849Y-115684000D01*
X111371244Y-115738772D01*
X111387220Y-115791439D01*
X111413164Y-115839977D01*
X111448079Y-115882521D01*
X111490623Y-115917436D01*
X111539161Y-115943380D01*
X111591828Y-115959356D01*
X111646600Y-115964751D01*
X113246600Y-115964751D01*
X113301372Y-115959356D01*
X113354039Y-115943380D01*
X113402577Y-115917436D01*
X113445121Y-115882521D01*
X113480036Y-115839977D01*
X113505980Y-115791439D01*
X113521956Y-115738772D01*
X113527351Y-115684000D01*
X113527351Y-114284000D01*
X113521956Y-114229228D01*
X113505980Y-114176561D01*
X113480036Y-114128023D01*
X113445121Y-114085479D01*
X113402577Y-114050564D01*
X113354039Y-114024620D01*
X113301372Y-114008644D01*
X113246600Y-114003249D01*
X112922302Y-114003249D01*
X112937902Y-113965587D01*
X112958400Y-113862535D01*
X112958400Y-113757465D01*
X112937902Y-113654413D01*
X112897693Y-113557340D01*
X112839319Y-113469977D01*
X112780600Y-113411258D01*
X112780600Y-104627293D01*
X113982295Y-103425600D01*
X116956506Y-103425600D01*
X116035901Y-104346206D01*
X116022338Y-104357337D01*
X115977900Y-104411484D01*
X115965976Y-104433793D01*
X115944880Y-104473259D01*
X115924546Y-104540290D01*
X115917681Y-104610000D01*
X115919401Y-104627465D01*
X115919400Y-107682705D01*
X115315506Y-108286600D01*
X115232465Y-108286600D01*
X115129413Y-108307098D01*
X115032340Y-108347307D01*
X114944977Y-108405681D01*
X114870681Y-108479977D01*
X114812307Y-108567340D01*
X114772098Y-108664413D01*
X114751600Y-108767465D01*
X114751600Y-108850507D01*
X114745901Y-108856206D01*
X114732337Y-108867338D01*
X114687899Y-108921485D01*
X114665889Y-108962663D01*
X114654880Y-108983259D01*
X114634546Y-109050290D01*
X114633867Y-109057188D01*
X114629400Y-109102538D01*
X114629400Y-109102545D01*
X114627681Y-109120000D01*
X114629400Y-109137455D01*
X114629401Y-115472534D01*
X114627681Y-115490000D01*
X114634546Y-115559710D01*
X114654880Y-115626741D01*
X114667630Y-115650593D01*
X114687900Y-115688516D01*
X114707701Y-115712643D01*
X114717808Y-115724958D01*
X114732338Y-115742663D01*
X114745901Y-115753794D01*
X117411210Y-118419105D01*
X117422337Y-118432663D01*
X117435895Y-118443790D01*
X117435900Y-118443795D01*
X117462454Y-118465587D01*
X117476484Y-118477101D01*
X117538260Y-118510121D01*
X117605290Y-118530454D01*
X117657537Y-118535600D01*
X117657546Y-118535600D01*
X117674999Y-118537319D01*
X117692452Y-118535600D01*
X119367545Y-118535600D01*
X119385000Y-118537319D01*
X119402455Y-118535600D01*
X119402463Y-118535600D01*
X119454710Y-118530454D01*
X119521740Y-118510121D01*
X119583516Y-118477101D01*
X119637663Y-118432663D01*
X119648798Y-118419095D01*
X119855304Y-118212590D01*
X119868862Y-118201463D01*
X119879990Y-118187904D01*
X119879995Y-118187899D01*
X119913300Y-118147317D01*
X119913302Y-118147315D01*
X119946321Y-118085540D01*
X119966452Y-118019176D01*
X119966654Y-118018511D01*
X119968367Y-118001119D01*
X119971800Y-117966263D01*
X119971800Y-117966256D01*
X119973519Y-117948801D01*
X119971800Y-117931346D01*
X119971800Y-117839171D01*
X119975610Y-117839171D01*
X120030382Y-117833776D01*
X120083049Y-117817800D01*
X120131587Y-117791856D01*
X120174131Y-117756941D01*
X120209046Y-117714397D01*
X120234990Y-117665859D01*
X120250966Y-117613192D01*
X120256361Y-117558420D01*
X120256361Y-116958980D01*
X120252088Y-116915600D01*
X120915792Y-116915600D01*
X120911519Y-116958980D01*
X120911519Y-117558420D01*
X120916914Y-117613192D01*
X120932890Y-117665859D01*
X120958834Y-117714397D01*
X120993749Y-117756941D01*
X121036293Y-117791856D01*
X121084831Y-117817800D01*
X121137498Y-117833776D01*
X121192270Y-117839171D01*
X121911090Y-117839171D01*
X121965862Y-117833776D01*
X122018529Y-117817800D01*
X122067067Y-117791856D01*
X122109611Y-117756941D01*
X122144526Y-117714397D01*
X122170470Y-117665859D01*
X122172455Y-117659316D01*
X122252340Y-117712693D01*
X122349413Y-117752902D01*
X122452465Y-117773400D01*
X122557535Y-117773400D01*
X122660587Y-117752902D01*
X122757660Y-117712693D01*
X122845023Y-117654319D01*
X122919319Y-117580023D01*
X122977693Y-117492660D01*
X123017902Y-117395587D01*
X123038400Y-117292535D01*
X123038400Y-117187465D01*
X123017902Y-117084413D01*
X122977693Y-116987340D01*
X122919319Y-116899977D01*
X122852586Y-116833244D01*
X122877663Y-116812663D01*
X122888799Y-116799094D01*
X123464125Y-116223768D01*
X137111388Y-116223768D01*
X137111399Y-116256097D01*
X137111388Y-116288426D01*
X137114576Y-116304483D01*
X137140470Y-116566460D01*
X137140477Y-116582722D01*
X137145529Y-116608065D01*
X137153155Y-116646336D01*
X137159384Y-116661360D01*
X137235023Y-116910337D01*
X137238155Y-116926128D01*
X137244426Y-116941290D01*
X137244471Y-116941438D01*
X137250579Y-116956168D01*
X137256743Y-116971070D01*
X137256816Y-116971208D01*
X137263101Y-116986362D01*
X137272049Y-116999742D01*
X137394594Y-117229296D01*
X137400811Y-117244325D01*
X137411999Y-117261085D01*
X137436821Y-117298276D01*
X137448319Y-117309786D01*
X137615251Y-117513385D01*
X137624373Y-117527023D01*
X137647402Y-117550030D01*
X137670042Y-117572691D01*
X137683676Y-117581810D01*
X137887286Y-117748754D01*
X137898789Y-117760245D01*
X137918500Y-117773400D01*
X137952737Y-117796254D01*
X137967773Y-117802474D01*
X138197328Y-117925018D01*
X138210702Y-117933962D01*
X138225848Y-117940243D01*
X138225996Y-117940322D01*
X138241645Y-117946794D01*
X138255626Y-117952592D01*
X138255769Y-117952635D01*
X138270938Y-117958909D01*
X138286733Y-117962042D01*
X138535704Y-118037680D01*
X138550730Y-118043910D01*
X138580140Y-118049770D01*
X138614341Y-118056588D01*
X138630611Y-118056595D01*
X138892585Y-118082488D01*
X138908640Y-118085676D01*
X138940969Y-118085665D01*
X138973298Y-118085676D01*
X138989353Y-118082488D01*
X139251329Y-118056593D01*
X139267595Y-118056586D01*
X139300578Y-118050011D01*
X139331207Y-118043907D01*
X139346230Y-118037678D01*
X139595206Y-117962038D01*
X139610996Y-117958906D01*
X139626159Y-117952635D01*
X139626309Y-117952589D01*
X139640961Y-117946512D01*
X139655938Y-117940318D01*
X139656079Y-117940243D01*
X139671233Y-117933958D01*
X139684610Y-117925012D01*
X139914165Y-117802466D01*
X139929194Y-117796249D01*
X139964170Y-117772902D01*
X139983143Y-117760239D01*
X139994645Y-117748749D01*
X140198255Y-117581805D01*
X140211888Y-117572687D01*
X140234349Y-117550205D01*
X140257557Y-117527018D01*
X140266680Y-117513378D01*
X140433614Y-117309778D01*
X140445107Y-117298273D01*
X140462532Y-117272165D01*
X140481117Y-117244323D01*
X140487336Y-117229289D01*
X140609878Y-116999740D01*
X140618826Y-116986360D01*
X140625111Y-116971206D01*
X140625184Y-116971068D01*
X140631348Y-116956166D01*
X140637456Y-116941436D01*
X140637501Y-116941288D01*
X140643772Y-116926126D01*
X140646904Y-116910336D01*
X140722545Y-116661353D01*
X140728772Y-116646334D01*
X140733779Y-116621205D01*
X140741450Y-116582722D01*
X140741457Y-116566454D01*
X140767350Y-116304482D01*
X140770538Y-116288426D01*
X140770527Y-116256097D01*
X140770538Y-116223767D01*
X140767350Y-116207712D01*
X140741456Y-115945738D01*
X140741449Y-115929472D01*
X140732872Y-115886441D01*
X140728771Y-115865859D01*
X140722543Y-115850839D01*
X140646903Y-115601859D01*
X140643771Y-115586069D01*
X140637500Y-115570907D01*
X140637455Y-115570759D01*
X140631418Y-115556201D01*
X140625183Y-115541127D01*
X140625108Y-115540986D01*
X140618824Y-115525834D01*
X140609877Y-115512456D01*
X140487337Y-115282909D01*
X140481117Y-115267873D01*
X140458239Y-115233600D01*
X140445106Y-115213922D01*
X140433615Y-115202419D01*
X140266679Y-114998816D01*
X140257556Y-114985176D01*
X140234349Y-114961990D01*
X140211888Y-114939508D01*
X140198254Y-114930389D01*
X139994647Y-114763449D01*
X139983143Y-114751957D01*
X139952249Y-114731337D01*
X139929191Y-114715946D01*
X139914166Y-114709730D01*
X139684613Y-114587187D01*
X139671233Y-114578238D01*
X139656075Y-114571952D01*
X139655939Y-114571879D01*
X139641484Y-114565900D01*
X139626309Y-114559607D01*
X139626154Y-114559560D01*
X139610997Y-114553291D01*
X139595212Y-114550160D01*
X139346230Y-114474518D01*
X139331207Y-114468289D01*
X139300578Y-114462185D01*
X139267595Y-114455610D01*
X139251329Y-114455603D01*
X139005596Y-114431313D01*
X139005542Y-114431297D01*
X138989300Y-114429697D01*
X138973298Y-114426520D01*
X138944690Y-114426530D01*
X138937248Y-114426530D01*
X138908640Y-114426520D01*
X138892638Y-114429697D01*
X138876394Y-114431297D01*
X138876340Y-114431313D01*
X138630611Y-114455601D01*
X138614341Y-114455608D01*
X138580140Y-114462426D01*
X138550730Y-114468286D01*
X138535704Y-114474516D01*
X138286733Y-114550154D01*
X138270937Y-114553287D01*
X138255768Y-114559561D01*
X138255626Y-114559604D01*
X138241429Y-114565492D01*
X138225995Y-114571875D01*
X138225852Y-114571951D01*
X138210702Y-114578234D01*
X138197325Y-114587180D01*
X137967773Y-114709722D01*
X137952738Y-114715942D01*
X137917379Y-114739545D01*
X137898790Y-114751952D01*
X137887291Y-114763439D01*
X137683681Y-114930382D01*
X137670043Y-114939504D01*
X137647219Y-114962349D01*
X137624374Y-114985173D01*
X137615253Y-114998810D01*
X137448312Y-115202418D01*
X137436823Y-115213919D01*
X137427716Y-115227564D01*
X137400812Y-115267870D01*
X137394594Y-115282900D01*
X137272050Y-115512452D01*
X137263103Y-115525831D01*
X137256820Y-115540981D01*
X137256744Y-115541124D01*
X137250361Y-115556558D01*
X137244473Y-115570755D01*
X137244430Y-115570897D01*
X137238156Y-115586066D01*
X137235022Y-115601863D01*
X137159386Y-115850829D01*
X137153155Y-115865858D01*
X137146055Y-115901487D01*
X137140477Y-115929471D01*
X137140470Y-115945737D01*
X137114576Y-116207711D01*
X137111388Y-116223768D01*
X123464125Y-116223768D01*
X123954104Y-115733790D01*
X123967662Y-115722663D01*
X123978790Y-115709104D01*
X123978795Y-115709099D01*
X123999393Y-115684000D01*
X124012101Y-115668516D01*
X124045121Y-115606740D01*
X124065454Y-115539710D01*
X124070600Y-115487463D01*
X124070600Y-115487455D01*
X124072319Y-115470000D01*
X124070600Y-115452545D01*
X124070600Y-114258600D01*
X126441649Y-114258600D01*
X126441649Y-115658600D01*
X126447044Y-115713372D01*
X126463020Y-115766039D01*
X126488964Y-115814577D01*
X126523879Y-115857121D01*
X126566423Y-115892036D01*
X126614961Y-115917980D01*
X126667628Y-115933956D01*
X126722400Y-115939351D01*
X128322400Y-115939351D01*
X128377172Y-115933956D01*
X128429839Y-115917980D01*
X128478377Y-115892036D01*
X128520921Y-115857121D01*
X128555836Y-115814577D01*
X128581780Y-115766039D01*
X128597756Y-115713372D01*
X128603151Y-115658600D01*
X128603151Y-115314200D01*
X133641649Y-115314200D01*
X133641649Y-115658600D01*
X133647044Y-115713372D01*
X133663020Y-115766039D01*
X133688964Y-115814577D01*
X133723879Y-115857121D01*
X133766423Y-115892036D01*
X133814961Y-115917980D01*
X133867628Y-115933956D01*
X133922400Y-115939351D01*
X135522400Y-115939351D01*
X135577172Y-115933956D01*
X135629839Y-115917980D01*
X135678377Y-115892036D01*
X135720921Y-115857121D01*
X135755836Y-115814577D01*
X135781780Y-115766039D01*
X135797756Y-115713372D01*
X135803151Y-115658600D01*
X135803151Y-114258600D01*
X135797756Y-114203828D01*
X135781780Y-114151161D01*
X135755836Y-114102623D01*
X135720921Y-114060079D01*
X135678377Y-114025164D01*
X135629839Y-113999220D01*
X135577172Y-113983244D01*
X135522400Y-113977849D01*
X135209686Y-113977849D01*
X135247902Y-113885587D01*
X135268400Y-113782535D01*
X135268400Y-113677465D01*
X135247902Y-113574413D01*
X135207693Y-113477340D01*
X135149319Y-113389977D01*
X135075023Y-113315681D01*
X134987660Y-113257307D01*
X134890587Y-113217098D01*
X134787535Y-113196600D01*
X134682465Y-113196600D01*
X134579413Y-113217098D01*
X134482340Y-113257307D01*
X134394977Y-113315681D01*
X134320681Y-113389977D01*
X134262307Y-113477340D01*
X134222098Y-113574413D01*
X134201600Y-113677465D01*
X134201600Y-113782535D01*
X134222098Y-113885587D01*
X134260314Y-113977849D01*
X133922400Y-113977849D01*
X133867628Y-113983244D01*
X133814961Y-113999220D01*
X133766423Y-114025164D01*
X133723879Y-114060079D01*
X133688964Y-114102623D01*
X133663020Y-114151161D01*
X133647044Y-114203828D01*
X133641649Y-114258600D01*
X133641649Y-114603000D01*
X128603151Y-114603000D01*
X128603151Y-114258600D01*
X128597756Y-114203828D01*
X128581780Y-114151161D01*
X128555836Y-114102623D01*
X128520921Y-114060079D01*
X128478377Y-114025164D01*
X128429839Y-113999220D01*
X128377172Y-113983244D01*
X128322400Y-113977849D01*
X126722400Y-113977849D01*
X126667628Y-113983244D01*
X126614961Y-113999220D01*
X126566423Y-114025164D01*
X126523879Y-114060079D01*
X126488964Y-114102623D01*
X126463020Y-114151161D01*
X126447044Y-114203828D01*
X126441649Y-114258600D01*
X124070600Y-114258600D01*
X124070600Y-109847293D01*
X124362294Y-109555600D01*
X131487707Y-109555600D01*
X131719400Y-109787294D01*
X131719401Y-110071257D01*
X131660681Y-110129977D01*
X131602307Y-110217340D01*
X131562098Y-110314413D01*
X131541600Y-110417465D01*
X131541600Y-110522535D01*
X131562098Y-110625587D01*
X131602307Y-110722660D01*
X131660681Y-110810023D01*
X131734977Y-110884319D01*
X131822340Y-110942693D01*
X131919413Y-110982902D01*
X132022465Y-111003400D01*
X132105507Y-111003400D01*
X132589401Y-111487295D01*
X132589400Y-112132544D01*
X132587681Y-112150000D01*
X132589400Y-112167455D01*
X132589400Y-112167462D01*
X132589936Y-112172899D01*
X132594546Y-112219710D01*
X132597941Y-112230902D01*
X132614879Y-112286739D01*
X132647899Y-112348515D01*
X132692337Y-112402662D01*
X132705901Y-112413794D01*
X133321206Y-113029100D01*
X133332337Y-113042663D01*
X133386484Y-113087101D01*
X133448260Y-113120121D01*
X133515290Y-113140454D01*
X133567537Y-113145600D01*
X133567545Y-113145600D01*
X133585000Y-113147319D01*
X133602455Y-113145600D01*
X140057545Y-113145600D01*
X140075000Y-113147319D01*
X140092455Y-113145600D01*
X140092463Y-113145600D01*
X140144710Y-113140454D01*
X140211740Y-113120121D01*
X140273516Y-113087101D01*
X140327663Y-113042663D01*
X140338799Y-113029094D01*
X140841900Y-112525994D01*
X140855463Y-112514863D01*
X140899901Y-112460716D01*
X140932921Y-112398940D01*
X140948217Y-112348515D01*
X140953254Y-112331911D01*
X140955150Y-112312662D01*
X140958400Y-112279663D01*
X140958400Y-112279656D01*
X140960119Y-112262200D01*
X140958400Y-112244745D01*
X140958400Y-111361338D01*
X140960239Y-111360780D01*
X141008777Y-111334836D01*
X141051321Y-111299921D01*
X141086236Y-111257377D01*
X141112180Y-111208839D01*
X141128156Y-111156172D01*
X141133551Y-111101400D01*
X141133551Y-110601400D01*
X141128156Y-110546628D01*
X141112180Y-110493961D01*
X141089431Y-110451400D01*
X141112180Y-110408839D01*
X141128156Y-110356172D01*
X141133551Y-110301400D01*
X141133551Y-109801400D01*
X141128156Y-109746628D01*
X141112180Y-109693961D01*
X141089431Y-109651400D01*
X141112180Y-109608839D01*
X141128156Y-109556172D01*
X141133551Y-109501400D01*
X141133551Y-109001400D01*
X141128156Y-108946628D01*
X141112180Y-108893961D01*
X141086236Y-108845423D01*
X141051321Y-108802879D01*
X141008777Y-108767964D01*
X140960239Y-108742020D01*
X140907572Y-108726044D01*
X140852800Y-108720649D01*
X140352800Y-108720649D01*
X140298028Y-108726044D01*
X140245361Y-108742020D01*
X140196823Y-108767964D01*
X140189538Y-108773943D01*
X140100587Y-108737098D01*
X139997535Y-108716600D01*
X139892465Y-108716600D01*
X139789413Y-108737098D01*
X139692340Y-108777307D01*
X139604977Y-108835681D01*
X139530681Y-108909977D01*
X139472307Y-108997340D01*
X139432098Y-109094413D01*
X139411600Y-109197465D01*
X139411600Y-109302535D01*
X139432098Y-109405587D01*
X139472307Y-109502660D01*
X139530681Y-109590023D01*
X139604977Y-109664319D01*
X139692340Y-109722693D01*
X139789413Y-109762902D01*
X139833835Y-109771738D01*
X139800937Y-109798737D01*
X139789801Y-109812306D01*
X139685901Y-109916206D01*
X139672338Y-109927337D01*
X139627900Y-109981484D01*
X139614208Y-110007100D01*
X139594880Y-110043259D01*
X139574546Y-110110290D01*
X139567681Y-110180000D01*
X139569401Y-110197465D01*
X139569400Y-111912706D01*
X139437707Y-112044400D01*
X134062295Y-112044400D01*
X133720600Y-111702707D01*
X133720600Y-110878742D01*
X133761877Y-110837465D01*
X136841600Y-110837465D01*
X136841600Y-110942535D01*
X136862098Y-111045587D01*
X136902307Y-111142660D01*
X136960681Y-111230023D01*
X137034977Y-111304319D01*
X137122340Y-111362693D01*
X137219413Y-111402902D01*
X137322465Y-111423400D01*
X137427535Y-111423400D01*
X137530587Y-111402902D01*
X137627660Y-111362693D01*
X137715023Y-111304319D01*
X137729552Y-111289790D01*
X137754279Y-111319921D01*
X137796823Y-111354836D01*
X137845361Y-111380780D01*
X137898028Y-111396756D01*
X137952800Y-111402151D01*
X138452800Y-111402151D01*
X138507572Y-111396756D01*
X138560239Y-111380780D01*
X138608777Y-111354836D01*
X138651321Y-111319921D01*
X138686236Y-111277377D01*
X138712180Y-111228839D01*
X138728156Y-111176172D01*
X138733551Y-111121400D01*
X138733551Y-110621400D01*
X138728156Y-110566628D01*
X138712180Y-110513961D01*
X138686236Y-110465423D01*
X138682934Y-110461400D01*
X138686236Y-110457377D01*
X138712180Y-110408839D01*
X138728156Y-110356172D01*
X138733551Y-110301400D01*
X138733551Y-109801400D01*
X138728156Y-109746628D01*
X138712180Y-109693961D01*
X138686236Y-109645423D01*
X138651321Y-109602879D01*
X138608777Y-109567964D01*
X138560239Y-109542020D01*
X138507572Y-109526044D01*
X138452800Y-109520649D01*
X137952800Y-109520649D01*
X137898028Y-109526044D01*
X137845361Y-109542020D01*
X137796823Y-109567964D01*
X137766225Y-109593075D01*
X137727660Y-109567307D01*
X137630587Y-109527098D01*
X137527535Y-109506600D01*
X137422465Y-109506600D01*
X137319413Y-109527098D01*
X137222340Y-109567307D01*
X137134977Y-109625681D01*
X137060681Y-109699977D01*
X137002307Y-109787340D01*
X136962098Y-109884413D01*
X136941600Y-109987465D01*
X136941600Y-110092535D01*
X136962098Y-110195587D01*
X137002307Y-110292660D01*
X137060681Y-110380023D01*
X137107728Y-110427070D01*
X137034977Y-110475681D01*
X136960681Y-110549977D01*
X136902307Y-110637340D01*
X136862098Y-110734413D01*
X136841600Y-110837465D01*
X133761877Y-110837465D01*
X133779319Y-110820023D01*
X133837693Y-110732660D01*
X133877902Y-110635587D01*
X133898400Y-110532535D01*
X133898400Y-110427465D01*
X133877902Y-110324413D01*
X133837693Y-110227340D01*
X133779319Y-110139977D01*
X133720600Y-110081258D01*
X133720600Y-109727455D01*
X133722319Y-109709999D01*
X133720600Y-109692544D01*
X133720600Y-109692537D01*
X133715454Y-109640290D01*
X133711023Y-109625681D01*
X133699210Y-109586741D01*
X133695121Y-109573260D01*
X133693534Y-109570290D01*
X133685987Y-109556172D01*
X133662101Y-109511484D01*
X133656011Y-109504063D01*
X133628795Y-109470900D01*
X133628785Y-109470890D01*
X133617662Y-109457337D01*
X133604110Y-109446215D01*
X132742775Y-108584882D01*
X132757663Y-108572663D01*
X132768799Y-108559094D01*
X132940428Y-108387465D01*
X136931600Y-108387465D01*
X136931600Y-108492535D01*
X136952098Y-108595587D01*
X136992307Y-108692660D01*
X137050681Y-108780023D01*
X137124977Y-108854319D01*
X137212340Y-108912693D01*
X137309413Y-108952902D01*
X137412465Y-108973400D01*
X137517535Y-108973400D01*
X137620587Y-108952902D01*
X137717660Y-108912693D01*
X137748080Y-108892367D01*
X137754279Y-108899921D01*
X137796823Y-108934836D01*
X137845361Y-108960780D01*
X137898028Y-108976756D01*
X137952800Y-108982151D01*
X138452800Y-108982151D01*
X138507572Y-108976756D01*
X138560239Y-108960780D01*
X138608777Y-108934836D01*
X138651321Y-108899921D01*
X138686236Y-108857377D01*
X138712180Y-108808839D01*
X138728156Y-108756172D01*
X138733551Y-108701400D01*
X138733551Y-108201400D01*
X138728156Y-108146628D01*
X138712180Y-108093961D01*
X138686236Y-108045423D01*
X138651321Y-108002879D01*
X138608777Y-107967964D01*
X138560239Y-107942020D01*
X138507572Y-107926044D01*
X138452800Y-107920649D01*
X137952800Y-107920649D01*
X137898028Y-107926044D01*
X137845361Y-107942020D01*
X137796823Y-107967964D01*
X137761737Y-107996758D01*
X137717660Y-107967307D01*
X137620587Y-107927098D01*
X137517535Y-107906600D01*
X137412465Y-107906600D01*
X137309413Y-107927098D01*
X137212340Y-107967307D01*
X137124977Y-108025681D01*
X137050681Y-108099977D01*
X136992307Y-108187340D01*
X136952098Y-108284413D01*
X136931600Y-108387465D01*
X132940428Y-108387465D01*
X133794105Y-107533790D01*
X133807663Y-107522663D01*
X133818790Y-107509105D01*
X133818795Y-107509100D01*
X133848683Y-107472681D01*
X133852101Y-107468516D01*
X133885121Y-107406740D01*
X133905454Y-107339710D01*
X133910600Y-107287463D01*
X133910600Y-107287454D01*
X133912319Y-107270001D01*
X133910600Y-107252548D01*
X133910600Y-104781877D01*
X138808500Y-104781877D01*
X138808500Y-104868923D01*
X138825482Y-104954297D01*
X138858793Y-105034718D01*
X138907154Y-105107095D01*
X138968705Y-105168646D01*
X139041082Y-105217007D01*
X139121503Y-105250318D01*
X139206877Y-105267300D01*
X139293923Y-105267300D01*
X139379297Y-105250318D01*
X139459718Y-105217007D01*
X139532095Y-105168646D01*
X139593646Y-105107095D01*
X139642007Y-105034718D01*
X139675318Y-104954297D01*
X139692300Y-104868923D01*
X139692300Y-104781877D01*
X139675318Y-104696503D01*
X139642007Y-104616082D01*
X139593646Y-104543705D01*
X139532095Y-104482154D01*
X139459718Y-104433793D01*
X139379297Y-104400482D01*
X139293923Y-104383500D01*
X139206877Y-104383500D01*
X139121503Y-104400482D01*
X139041082Y-104433793D01*
X138968705Y-104482154D01*
X138907154Y-104543705D01*
X138858793Y-104616082D01*
X138825482Y-104696503D01*
X138808500Y-104781877D01*
X133910600Y-104781877D01*
X133910600Y-99188742D01*
X133969319Y-99130023D01*
X134027693Y-99042660D01*
X134067902Y-98945587D01*
X134088400Y-98842535D01*
X134088400Y-98737465D01*
X134067902Y-98634413D01*
X134027693Y-98537340D01*
X133969319Y-98449977D01*
X133895023Y-98375681D01*
X133807660Y-98317307D01*
X133710587Y-98277098D01*
X133607535Y-98256600D01*
X133502465Y-98256600D01*
X133399413Y-98277098D01*
X133302340Y-98317307D01*
X133214977Y-98375681D01*
X133140681Y-98449977D01*
X133082307Y-98537340D01*
X133042098Y-98634413D01*
X133021600Y-98737465D01*
X133021600Y-98842535D01*
X133042098Y-98945587D01*
X133082307Y-99042660D01*
X133140681Y-99130023D01*
X133199400Y-99188742D01*
X133199401Y-107122704D01*
X132800600Y-107521506D01*
X132800600Y-99188742D01*
X132859319Y-99130023D01*
X132917693Y-99042660D01*
X132957902Y-98945587D01*
X132978400Y-98842535D01*
X132978400Y-98737465D01*
X132957902Y-98634413D01*
X132917693Y-98537340D01*
X132859319Y-98449977D01*
X132785023Y-98375681D01*
X132697660Y-98317307D01*
X132600587Y-98277098D01*
X132497535Y-98256600D01*
X132392465Y-98256600D01*
X132289413Y-98277098D01*
X132192340Y-98317307D01*
X132104977Y-98375681D01*
X132030681Y-98449977D01*
X131972307Y-98537340D01*
X131932098Y-98634413D01*
X131911600Y-98737465D01*
X131911600Y-98842535D01*
X131932098Y-98945587D01*
X131972307Y-99042660D01*
X132030681Y-99130023D01*
X132089401Y-99188743D01*
X132089400Y-105817462D01*
X132089401Y-105817472D01*
X132089400Y-107452706D01*
X131997706Y-107544400D01*
X123052455Y-107544400D01*
X123035000Y-107542681D01*
X123017544Y-107544400D01*
X123017537Y-107544400D01*
X122971566Y-107548928D01*
X122965289Y-107549546D01*
X122936102Y-107558400D01*
X122898260Y-107569879D01*
X122836484Y-107602899D01*
X122782337Y-107647337D01*
X122771206Y-107660900D01*
X121985901Y-108446206D01*
X121972338Y-108457337D01*
X121961207Y-108470900D01*
X121961205Y-108470902D01*
X121951958Y-108482170D01*
X121927900Y-108511484D01*
X121919425Y-108527340D01*
X121894880Y-108573259D01*
X121874546Y-108640290D01*
X121867681Y-108710000D01*
X121869401Y-108727465D01*
X121869400Y-111442706D01*
X121807707Y-111504400D01*
X119573742Y-111504400D01*
X119515023Y-111445681D01*
X119427660Y-111387307D01*
X119330587Y-111347098D01*
X119227535Y-111326600D01*
X119122465Y-111326600D01*
X119019413Y-111347098D01*
X118922340Y-111387307D01*
X118834977Y-111445681D01*
X118760681Y-111519977D01*
X118702307Y-111607340D01*
X118662098Y-111704413D01*
X118641600Y-111807465D01*
X118641600Y-111912535D01*
X118647760Y-111943503D01*
X118579413Y-111957098D01*
X118482340Y-111997307D01*
X118394977Y-112055681D01*
X118320681Y-112129977D01*
X118262307Y-112217340D01*
X118222098Y-112314413D01*
X118201600Y-112417465D01*
X118201600Y-112522535D01*
X118222098Y-112625587D01*
X118262307Y-112722660D01*
X118320681Y-112810023D01*
X118394977Y-112884319D01*
X118482340Y-112942693D01*
X118579413Y-112982902D01*
X118682465Y-113003400D01*
X118787535Y-113003400D01*
X118890587Y-112982902D01*
X118987660Y-112942693D01*
X119075023Y-112884319D01*
X119133742Y-112825600D01*
X122287545Y-112825600D01*
X122305000Y-112827319D01*
X122322455Y-112825600D01*
X122322463Y-112825600D01*
X122374710Y-112820454D01*
X122441740Y-112800121D01*
X122503516Y-112767101D01*
X122557663Y-112722663D01*
X122568799Y-112709094D01*
X122939400Y-112338493D01*
X122939400Y-113802706D01*
X122647707Y-114094400D01*
X118982452Y-114094400D01*
X118964999Y-114092681D01*
X118947546Y-114094400D01*
X118947537Y-114094400D01*
X118895290Y-114099546D01*
X118828260Y-114119879D01*
X118766484Y-114152899D01*
X118766482Y-114152900D01*
X118766483Y-114152900D01*
X118725900Y-114186205D01*
X118725895Y-114186210D01*
X118712337Y-114197337D01*
X118701210Y-114210895D01*
X118406820Y-114505286D01*
X118393258Y-114516417D01*
X118382127Y-114529980D01*
X118382125Y-114529982D01*
X118373358Y-114540665D01*
X118348820Y-114570564D01*
X118332310Y-114601452D01*
X118315800Y-114632339D01*
X118295466Y-114699370D01*
X118288601Y-114769080D01*
X118290321Y-114786545D01*
X118290321Y-115281229D01*
X118286510Y-115281229D01*
X118231738Y-115286624D01*
X118179071Y-115302600D01*
X118130533Y-115328544D01*
X118087989Y-115363459D01*
X118053074Y-115406003D01*
X118027130Y-115454541D01*
X118011490Y-115506100D01*
X116223994Y-115506100D01*
X115660599Y-114942706D01*
X115660599Y-113727451D01*
X115662318Y-113709998D01*
X115660599Y-113692545D01*
X115660599Y-113692536D01*
X115655453Y-113640289D01*
X115645410Y-113607181D01*
X115645410Y-110282483D01*
X116614495Y-109313400D01*
X116697535Y-109313400D01*
X116800587Y-109292902D01*
X116897660Y-109252693D01*
X116985023Y-109194319D01*
X117059319Y-109120023D01*
X117117693Y-109032660D01*
X117157902Y-108935587D01*
X117178400Y-108832535D01*
X117178400Y-108727465D01*
X117157902Y-108624413D01*
X117117693Y-108527340D01*
X117059319Y-108439977D01*
X117000600Y-108381258D01*
X117000600Y-104977293D01*
X117642294Y-104335600D01*
X125557545Y-104335600D01*
X125575000Y-104337319D01*
X125592455Y-104335600D01*
X125592463Y-104335600D01*
X125644710Y-104330454D01*
X125711740Y-104310121D01*
X125773516Y-104277101D01*
X125827663Y-104232663D01*
X125838799Y-104219095D01*
X126654110Y-103403785D01*
X126667662Y-103392663D01*
X126678785Y-103379110D01*
X126678795Y-103379100D01*
X126712100Y-103338517D01*
X126712102Y-103338515D01*
X126745121Y-103276740D01*
X126765454Y-103209710D01*
X126770600Y-103157463D01*
X126770600Y-103157454D01*
X126772319Y-103140001D01*
X126770600Y-103122548D01*
X126770600Y-97808742D01*
X126829319Y-97750023D01*
X126887693Y-97662660D01*
X126927902Y-97565587D01*
X126948400Y-97462535D01*
X126948400Y-97357465D01*
X126927902Y-97254413D01*
X126887693Y-97157340D01*
X126829319Y-97069977D01*
X126755023Y-96995681D01*
X126667660Y-96937307D01*
X126570587Y-96897098D01*
X126467535Y-96876600D01*
X126362465Y-96876600D01*
X126259413Y-96897098D01*
X126162340Y-96937307D01*
X126074977Y-96995681D01*
X126000681Y-97069977D01*
X125942307Y-97157340D01*
X125902098Y-97254413D01*
X125881600Y-97357465D01*
X125881600Y-97462535D01*
X125902098Y-97565587D01*
X125942307Y-97662660D01*
X126000681Y-97750023D01*
X126059401Y-97808743D01*
X126059401Y-98008470D01*
X126057660Y-98007307D01*
X125960587Y-97967098D01*
X125857535Y-97946600D01*
X125752465Y-97946600D01*
X125649413Y-97967098D01*
X125552340Y-98007307D01*
X125464977Y-98065681D01*
X125390681Y-98139977D01*
X125332307Y-98227340D01*
X125292098Y-98324413D01*
X125271600Y-98427465D01*
X125271600Y-98509398D01*
X125257535Y-98506600D01*
X125152465Y-98506600D01*
X125049413Y-98527098D01*
X124952340Y-98567307D01*
X124864977Y-98625681D01*
X124790681Y-98699977D01*
X124732307Y-98787340D01*
X124692098Y-98884413D01*
X124671600Y-98987465D01*
X124671600Y-99092535D01*
X124692098Y-99195587D01*
X124732307Y-99292660D01*
X124790681Y-99380023D01*
X124839400Y-99428742D01*
X124839401Y-102502705D01*
X124627707Y-102714400D01*
X113852455Y-102714400D01*
X113834999Y-102712681D01*
X113817544Y-102714400D01*
X113817537Y-102714400D01*
X113772187Y-102718867D01*
X113765289Y-102719546D01*
X113736102Y-102728400D01*
X113698260Y-102739879D01*
X113636484Y-102772899D01*
X113636482Y-102772900D01*
X113636483Y-102772900D01*
X113595900Y-102806205D01*
X113595895Y-102806210D01*
X113582337Y-102817337D01*
X113571210Y-102830895D01*
X112185901Y-104216206D01*
X112172337Y-104227338D01*
X112127899Y-104281485D01*
X112094879Y-104343261D01*
X112074546Y-104410291D01*
X112069400Y-104462538D01*
X112069400Y-104462545D01*
X112067681Y-104480000D01*
X112069400Y-104497455D01*
X112069401Y-113411257D01*
X112010681Y-113469977D01*
X111952307Y-113557340D01*
X111912098Y-113654413D01*
X111891600Y-113757465D01*
X111891600Y-113862535D01*
X111912098Y-113965587D01*
X111927698Y-114003249D01*
X111646600Y-114003249D01*
X111591828Y-114008644D01*
X111539161Y-114024620D01*
X111490623Y-114050564D01*
X111448079Y-114085479D01*
X111413164Y-114128023D01*
X111387220Y-114176561D01*
X111371244Y-114229228D01*
X111365849Y-114284000D01*
X111365849Y-114628400D01*
X106327351Y-114628400D01*
X106327351Y-114284000D01*
X106321956Y-114229228D01*
X106305980Y-114176561D01*
X106280036Y-114128023D01*
X106245121Y-114085479D01*
X106202577Y-114050564D01*
X106154039Y-114024620D01*
X106101372Y-114008644D01*
X106046600Y-114003249D01*
X104446600Y-114003249D01*
X104391828Y-114008644D01*
X104339161Y-114024620D01*
X104290623Y-114050564D01*
X104248079Y-114085479D01*
X104213164Y-114128023D01*
X104187220Y-114176561D01*
X104171244Y-114229228D01*
X104165849Y-114284000D01*
X99020109Y-114284000D01*
X99020109Y-87734165D01*
X106623798Y-87734165D01*
X106623853Y-87734444D01*
X106623852Y-107277718D01*
X106623798Y-107277992D01*
X106623852Y-107309633D01*
X106623852Y-107326046D01*
X106623881Y-107326335D01*
X106623881Y-107326625D01*
X106625509Y-107342869D01*
X106628619Y-107374446D01*
X106628700Y-107374714D01*
X106637332Y-107460843D01*
X106637421Y-107477688D01*
X106643806Y-107508925D01*
X106650068Y-107540128D01*
X106656541Y-107555680D01*
X106685595Y-107649666D01*
X106688854Y-107665603D01*
X106700484Y-107693260D01*
X106713992Y-107725390D01*
X106723103Y-107738870D01*
X106768306Y-107822359D01*
X106774357Y-107836875D01*
X106783703Y-107850796D01*
X106783954Y-107851259D01*
X106792772Y-107864304D01*
X106801466Y-107877253D01*
X106801798Y-107877655D01*
X106811191Y-107891551D01*
X106822374Y-107902615D01*
X106881642Y-107974507D01*
X106890236Y-107987430D01*
X106902220Y-107999467D01*
X106902687Y-108000034D01*
X106913642Y-108010941D01*
X106924549Y-108021896D01*
X106925116Y-108022363D01*
X106937153Y-108034347D01*
X106950076Y-108042941D01*
X107021968Y-108102209D01*
X107033032Y-108113392D01*
X107046928Y-108122785D01*
X107047330Y-108123117D01*
X107060279Y-108131811D01*
X107073324Y-108140629D01*
X107073787Y-108140880D01*
X107087708Y-108150226D01*
X107102225Y-108156277D01*
X107185713Y-108201480D01*
X107199193Y-108210591D01*
X107227539Y-108222508D01*
X107258979Y-108235729D01*
X107274919Y-108238989D01*
X107368902Y-108268042D01*
X107384454Y-108274515D01*
X107415622Y-108280770D01*
X107446894Y-108287162D01*
X107463740Y-108287251D01*
X107549868Y-108295883D01*
X107550136Y-108295964D01*
X107581666Y-108299069D01*
X107597956Y-108300702D01*
X107598247Y-108300702D01*
X107598536Y-108300731D01*
X107614949Y-108300731D01*
X107646590Y-108300785D01*
X107646864Y-108300731D01*
X110811300Y-108300731D01*
X110811574Y-108300785D01*
X110843215Y-108300731D01*
X110859629Y-108300731D01*
X110859918Y-108300702D01*
X110860207Y-108300702D01*
X110876394Y-108299080D01*
X110908029Y-108295964D01*
X110908298Y-108295882D01*
X110994425Y-108287251D01*
X111011270Y-108287162D01*
X111042507Y-108280777D01*
X111073710Y-108274515D01*
X111089262Y-108268042D01*
X111183248Y-108238988D01*
X111199185Y-108235729D01*
X111229463Y-108222997D01*
X111258972Y-108210591D01*
X111272452Y-108201480D01*
X111355941Y-108156277D01*
X111370457Y-108150226D01*
X111384378Y-108140880D01*
X111384841Y-108140629D01*
X111397886Y-108131811D01*
X111410835Y-108123117D01*
X111411237Y-108122785D01*
X111425133Y-108113392D01*
X111436197Y-108102209D01*
X111508089Y-108042941D01*
X111521012Y-108034347D01*
X111533049Y-108022363D01*
X111533616Y-108021896D01*
X111544523Y-108010941D01*
X111555478Y-108000034D01*
X111555945Y-107999467D01*
X111567929Y-107987430D01*
X111576523Y-107974507D01*
X111635791Y-107902615D01*
X111646974Y-107891551D01*
X111656367Y-107877655D01*
X111656699Y-107877253D01*
X111665393Y-107864304D01*
X111674211Y-107851259D01*
X111674462Y-107850796D01*
X111683808Y-107836875D01*
X111689859Y-107822358D01*
X111735062Y-107738870D01*
X111744173Y-107725390D01*
X111757681Y-107693260D01*
X111769311Y-107665604D01*
X111772571Y-107649664D01*
X111801624Y-107555681D01*
X111808097Y-107540129D01*
X111814352Y-107508961D01*
X111820744Y-107477689D01*
X111820833Y-107460843D01*
X111829465Y-107374715D01*
X111829546Y-107374447D01*
X111832651Y-107342917D01*
X111834284Y-107326627D01*
X111834284Y-107326336D01*
X111834313Y-107326047D01*
X111834313Y-107309634D01*
X111834367Y-107277993D01*
X111834313Y-107277719D01*
X111834313Y-95183572D01*
X121836838Y-95183572D01*
X121836838Y-95288642D01*
X121857336Y-95391694D01*
X121897545Y-95488767D01*
X121955919Y-95576130D01*
X122030215Y-95650426D01*
X122117578Y-95708800D01*
X122214651Y-95749009D01*
X122317703Y-95769507D01*
X122422773Y-95769507D01*
X122525825Y-95749009D01*
X122622898Y-95708800D01*
X122710261Y-95650426D01*
X122768187Y-95592500D01*
X127000007Y-95592500D01*
X127963006Y-96555500D01*
X127974137Y-96569063D01*
X128028284Y-96613501D01*
X128090060Y-96646521D01*
X128157090Y-96666854D01*
X128209337Y-96672000D01*
X128209345Y-96672000D01*
X128226800Y-96673719D01*
X128244255Y-96672000D01*
X130571258Y-96672000D01*
X130629977Y-96730719D01*
X130717340Y-96789093D01*
X130814413Y-96829302D01*
X130917465Y-96849800D01*
X131022535Y-96849800D01*
X131125587Y-96829302D01*
X131222660Y-96789093D01*
X131310023Y-96730719D01*
X131384319Y-96656423D01*
X131442693Y-96569060D01*
X131482902Y-96471987D01*
X131503400Y-96368935D01*
X131503400Y-96263865D01*
X131482902Y-96160813D01*
X131442693Y-96063740D01*
X131384319Y-95976377D01*
X131310023Y-95902081D01*
X131222660Y-95843707D01*
X131125587Y-95803498D01*
X131022535Y-95783000D01*
X130917465Y-95783000D01*
X130814413Y-95803498D01*
X130717340Y-95843707D01*
X130629977Y-95902081D01*
X130571258Y-95960800D01*
X128374094Y-95960800D01*
X127411099Y-94997806D01*
X127399963Y-94984237D01*
X127345816Y-94939799D01*
X127284040Y-94906779D01*
X127217010Y-94886446D01*
X127164763Y-94881300D01*
X127164755Y-94881300D01*
X127147300Y-94879581D01*
X127129845Y-94881300D01*
X126158783Y-94881300D01*
X126197987Y-94873502D01*
X126295060Y-94833293D01*
X126382423Y-94774919D01*
X126456719Y-94700623D01*
X126515093Y-94613260D01*
X126555302Y-94516187D01*
X126575800Y-94413135D01*
X126575800Y-94308065D01*
X126555302Y-94205013D01*
X126515093Y-94107940D01*
X126456719Y-94020577D01*
X126382423Y-93946281D01*
X126295060Y-93887907D01*
X126197987Y-93847698D01*
X126094935Y-93827200D01*
X125989865Y-93827200D01*
X125886813Y-93847698D01*
X125789740Y-93887907D01*
X125702377Y-93946281D01*
X125643658Y-94005000D01*
X125478493Y-94005000D01*
X127840694Y-91642800D01*
X129326658Y-91642800D01*
X129385377Y-91701519D01*
X129472740Y-91759893D01*
X129569813Y-91800102D01*
X129672865Y-91820600D01*
X129777935Y-91820600D01*
X129880987Y-91800102D01*
X129978060Y-91759893D01*
X130065423Y-91701519D01*
X130139719Y-91627223D01*
X130198093Y-91539860D01*
X130238302Y-91442787D01*
X130258800Y-91339735D01*
X130258800Y-91312600D01*
X130311335Y-91312600D01*
X130414387Y-91292102D01*
X130511460Y-91251893D01*
X130598823Y-91193519D01*
X130673119Y-91119223D01*
X130731493Y-91031860D01*
X130771702Y-90934787D01*
X130792200Y-90831735D01*
X130792200Y-90726665D01*
X130771702Y-90623613D01*
X130731493Y-90526540D01*
X130673119Y-90439177D01*
X130598823Y-90364881D01*
X130511460Y-90306507D01*
X130414387Y-90266298D01*
X130311335Y-90245800D01*
X130206265Y-90245800D01*
X130103213Y-90266298D01*
X130006140Y-90306507D01*
X129918777Y-90364881D01*
X129860058Y-90423600D01*
X129623859Y-90423600D01*
X129654102Y-90350587D01*
X129674600Y-90247535D01*
X129674600Y-90142465D01*
X129654102Y-90039413D01*
X129613893Y-89942340D01*
X129555519Y-89854977D01*
X129481223Y-89780681D01*
X129393860Y-89722307D01*
X129296787Y-89682098D01*
X129193735Y-89661600D01*
X129151788Y-89661600D01*
X129166600Y-89587135D01*
X129166600Y-89482065D01*
X129146102Y-89379013D01*
X129105893Y-89281940D01*
X129047519Y-89194577D01*
X128973223Y-89120281D01*
X128885860Y-89061907D01*
X128788787Y-89021698D01*
X128685735Y-89001200D01*
X128580665Y-89001200D01*
X128477613Y-89021698D01*
X128380540Y-89061907D01*
X128293177Y-89120281D01*
X128234458Y-89179000D01*
X127627854Y-89179000D01*
X127610399Y-89177281D01*
X127592944Y-89179000D01*
X127592937Y-89179000D01*
X127547587Y-89183467D01*
X127540689Y-89184146D01*
X127531601Y-89186903D01*
X127473660Y-89204479D01*
X127411884Y-89237499D01*
X127411882Y-89237500D01*
X127411883Y-89237500D01*
X127371300Y-89270805D01*
X127371295Y-89270810D01*
X127357737Y-89281937D01*
X127346610Y-89295495D01*
X124260167Y-92381940D01*
X123215342Y-92381940D01*
X123156623Y-92323221D01*
X123069260Y-92264847D01*
X122972187Y-92224638D01*
X122869135Y-92204140D01*
X122764065Y-92204140D01*
X122661013Y-92224638D01*
X122563940Y-92264847D01*
X122476577Y-92323221D01*
X122402281Y-92397517D01*
X122343907Y-92484880D01*
X122303698Y-92581953D01*
X122283200Y-92685005D01*
X122283200Y-92714041D01*
X122229647Y-92724693D01*
X122132574Y-92764902D01*
X122045211Y-92823276D01*
X121970915Y-92897572D01*
X121912541Y-92984935D01*
X121872332Y-93082008D01*
X121851834Y-93185060D01*
X121851834Y-93290130D01*
X121872332Y-93393182D01*
X121912541Y-93490255D01*
X121970915Y-93577618D01*
X122045211Y-93651914D01*
X122132574Y-93710288D01*
X122194512Y-93735943D01*
X122121980Y-93765987D01*
X122034617Y-93824361D01*
X121960321Y-93898657D01*
X121901947Y-93986020D01*
X121861738Y-94083093D01*
X121841240Y-94186145D01*
X121841240Y-94291215D01*
X121861738Y-94394267D01*
X121901947Y-94491340D01*
X121960321Y-94578703D01*
X122034617Y-94652999D01*
X122121980Y-94711373D01*
X122182598Y-94736482D01*
X122117578Y-94763414D01*
X122030215Y-94821788D01*
X121955919Y-94896084D01*
X121897545Y-94983447D01*
X121857336Y-95080520D01*
X121836838Y-95183572D01*
X111834313Y-95183572D01*
X111834313Y-87734438D01*
X111834367Y-87734164D01*
X111834313Y-87702523D01*
X111834313Y-87686110D01*
X111834284Y-87685821D01*
X111834284Y-87685530D01*
X111832652Y-87669246D01*
X111829546Y-87637710D01*
X111829465Y-87637442D01*
X111820833Y-87551314D01*
X111820744Y-87534470D01*
X111814344Y-87503159D01*
X111808096Y-87472029D01*
X111801625Y-87456482D01*
X111772572Y-87362496D01*
X111769311Y-87346553D01*
X111754583Y-87311530D01*
X111744173Y-87286768D01*
X111735065Y-87273292D01*
X111689859Y-87189799D01*
X111683808Y-87175282D01*
X111674462Y-87161361D01*
X111674211Y-87160898D01*
X111665393Y-87147853D01*
X111656699Y-87134904D01*
X111656367Y-87134502D01*
X111646974Y-87120606D01*
X111635791Y-87109542D01*
X111576520Y-87037648D01*
X111567927Y-87024725D01*
X111555947Y-87012692D01*
X111555478Y-87012123D01*
X111544445Y-87001139D01*
X111533614Y-86990260D01*
X111533053Y-86989797D01*
X111521012Y-86977810D01*
X111508083Y-86969213D01*
X111436199Y-86909952D01*
X111425134Y-86898767D01*
X111411235Y-86889371D01*
X111410833Y-86889040D01*
X111397844Y-86880319D01*
X111384842Y-86871530D01*
X111384382Y-86871281D01*
X111370456Y-86861931D01*
X111355936Y-86855879D01*
X111272451Y-86810675D01*
X111258972Y-86801566D01*
X111233183Y-86790724D01*
X111199187Y-86776428D01*
X111183244Y-86773167D01*
X111089262Y-86744115D01*
X111073710Y-86737642D01*
X111042507Y-86731380D01*
X111011270Y-86724995D01*
X110994425Y-86724906D01*
X110908298Y-86716275D01*
X110908029Y-86716193D01*
X110876394Y-86713077D01*
X110860207Y-86711455D01*
X110859918Y-86711455D01*
X110859629Y-86711426D01*
X110843215Y-86711426D01*
X110811574Y-86711372D01*
X110811300Y-86711426D01*
X107646864Y-86711426D01*
X107646590Y-86711372D01*
X107614949Y-86711426D01*
X107598536Y-86711426D01*
X107598247Y-86711455D01*
X107597956Y-86711455D01*
X107581666Y-86713088D01*
X107550136Y-86716193D01*
X107549868Y-86716274D01*
X107463740Y-86724906D01*
X107446894Y-86724995D01*
X107415622Y-86731387D01*
X107384454Y-86737642D01*
X107368902Y-86744115D01*
X107274918Y-86773168D01*
X107258976Y-86776429D01*
X107230687Y-86788326D01*
X107199193Y-86801566D01*
X107185708Y-86810680D01*
X107102231Y-86855878D01*
X107087709Y-86861931D01*
X107073781Y-86871282D01*
X107073323Y-86871530D01*
X107060420Y-86880252D01*
X107047331Y-86889040D01*
X107046924Y-86889375D01*
X107033031Y-86898767D01*
X107021969Y-86909948D01*
X106950081Y-86969213D01*
X106937153Y-86977810D01*
X106925112Y-86989797D01*
X106924551Y-86990260D01*
X106913756Y-87001103D01*
X106902687Y-87012123D01*
X106902215Y-87012696D01*
X106890238Y-87024726D01*
X106881648Y-87037643D01*
X106822374Y-87109542D01*
X106811191Y-87120606D01*
X106801798Y-87134502D01*
X106801466Y-87134904D01*
X106792772Y-87147853D01*
X106783954Y-87160898D01*
X106783703Y-87161361D01*
X106774357Y-87175282D01*
X106768306Y-87189798D01*
X106723100Y-87273292D01*
X106713992Y-87286768D01*
X106701687Y-87316037D01*
X106688854Y-87346554D01*
X106685595Y-87362487D01*
X106656539Y-87456484D01*
X106650069Y-87472030D01*
X106643814Y-87503195D01*
X106637421Y-87534471D01*
X106637332Y-87551314D01*
X106628700Y-87637446D01*
X106628620Y-87637710D01*
X106625566Y-87668719D01*
X106623881Y-87685531D01*
X106623880Y-87685831D01*
X106623853Y-87686110D01*
X106623853Y-87701938D01*
X106623798Y-87734165D01*
X99020109Y-87734165D01*
X99020109Y-79085739D01*
X99034666Y-78795648D01*
X99040756Y-78755526D01*
X99610966Y-78755526D01*
X99611366Y-78763943D01*
X99611369Y-78772364D01*
X99612134Y-78780108D01*
X99613275Y-78804104D01*
X99615318Y-78812316D01*
X99640434Y-79066420D01*
X99640441Y-79082686D01*
X99645915Y-79110145D01*
X99653119Y-79146299D01*
X99659350Y-79161328D01*
X99734987Y-79410296D01*
X99738120Y-79426089D01*
X99744393Y-79441255D01*
X99744437Y-79441401D01*
X99750480Y-79455974D01*
X99756708Y-79471031D01*
X99756782Y-79471170D01*
X99763067Y-79486325D01*
X99772015Y-79499705D01*
X99894557Y-79729256D01*
X99900775Y-79744286D01*
X99917316Y-79769066D01*
X99936785Y-79798237D01*
X99948283Y-79809747D01*
X100115215Y-80013346D01*
X100124336Y-80026983D01*
X100147181Y-80049806D01*
X100170004Y-80072651D01*
X100183642Y-80081773D01*
X100387250Y-80248715D01*
X100398751Y-80260204D01*
X100412251Y-80269214D01*
X100452700Y-80296214D01*
X100467739Y-80302435D01*
X100697287Y-80424976D01*
X100710663Y-80433922D01*
X100725813Y-80440205D01*
X100725956Y-80440281D01*
X100741390Y-80446664D01*
X100755587Y-80452552D01*
X100755729Y-80452595D01*
X100770898Y-80458869D01*
X100786694Y-80462002D01*
X101035663Y-80537640D01*
X101050689Y-80543870D01*
X101083941Y-80550496D01*
X101114301Y-80556548D01*
X101130568Y-80556555D01*
X101392543Y-80582449D01*
X101408599Y-80585637D01*
X101440928Y-80585626D01*
X101473257Y-80585637D01*
X101489314Y-80582449D01*
X101751288Y-80556555D01*
X101767554Y-80556548D01*
X101795538Y-80550970D01*
X101831167Y-80543870D01*
X101846196Y-80537639D01*
X102095164Y-80462002D01*
X102110957Y-80458869D01*
X102126123Y-80452596D01*
X102126269Y-80452552D01*
X102140842Y-80446509D01*
X102155899Y-80440281D01*
X102156038Y-80440207D01*
X102171193Y-80433922D01*
X102184573Y-80424974D01*
X102414123Y-80302432D01*
X102429154Y-80296214D01*
X102458444Y-80276663D01*
X102483105Y-80260204D01*
X102494612Y-80248710D01*
X102698214Y-80081773D01*
X102711852Y-80072651D01*
X102734675Y-80049807D01*
X102757520Y-80026983D01*
X102766642Y-80013344D01*
X102909097Y-79839600D01*
X103968849Y-79839600D01*
X103968849Y-80839600D01*
X103974244Y-80894372D01*
X103990220Y-80947039D01*
X104016164Y-80995577D01*
X104051079Y-81038121D01*
X104093623Y-81073036D01*
X104142161Y-81098980D01*
X104194828Y-81114956D01*
X104249600Y-81120351D01*
X105749600Y-81120351D01*
X105804372Y-81114956D01*
X105857039Y-81098980D01*
X105905577Y-81073036D01*
X105948121Y-81038121D01*
X105983036Y-80995577D01*
X106008980Y-80947039D01*
X106024956Y-80894372D01*
X106030351Y-80839600D01*
X106030351Y-80787465D01*
X106031600Y-80787465D01*
X106031600Y-80892535D01*
X106052098Y-80995587D01*
X106092307Y-81092660D01*
X106150681Y-81180023D01*
X106209400Y-81238742D01*
X106209401Y-83392535D01*
X106207681Y-83410000D01*
X106214546Y-83479710D01*
X106234880Y-83546741D01*
X106235266Y-83547463D01*
X106267900Y-83608516D01*
X106312338Y-83662663D01*
X106325901Y-83673794D01*
X106821210Y-84169105D01*
X106832337Y-84182663D01*
X106845895Y-84193790D01*
X106845900Y-84193795D01*
X106874587Y-84217337D01*
X106886484Y-84227101D01*
X106948260Y-84260121D01*
X106985719Y-84271484D01*
X107015289Y-84280454D01*
X107022187Y-84281133D01*
X107067537Y-84285600D01*
X107067544Y-84285600D01*
X107084999Y-84287319D01*
X107102455Y-84285600D01*
X129807707Y-84285600D01*
X130049400Y-84527295D01*
X130049401Y-88332535D01*
X130047681Y-88350000D01*
X130054546Y-88419710D01*
X130074880Y-88486741D01*
X130085891Y-88507340D01*
X130107900Y-88548516D01*
X130152338Y-88602663D01*
X130165901Y-88613794D01*
X130281600Y-88729493D01*
X130281600Y-88812535D01*
X130302098Y-88915587D01*
X130342307Y-89012660D01*
X130400681Y-89100023D01*
X130474977Y-89174319D01*
X130562340Y-89232693D01*
X130659413Y-89272902D01*
X130762465Y-89293400D01*
X130867535Y-89293400D01*
X130970587Y-89272902D01*
X130999401Y-89260967D01*
X130999400Y-94531258D01*
X130940681Y-94589977D01*
X130882307Y-94677340D01*
X130842098Y-94774413D01*
X130821600Y-94877465D01*
X130821600Y-94982535D01*
X130842098Y-95085587D01*
X130882307Y-95182660D01*
X130940681Y-95270023D01*
X131014977Y-95344319D01*
X131102340Y-95402693D01*
X131199413Y-95442902D01*
X131302465Y-95463400D01*
X131407535Y-95463400D01*
X131510587Y-95442902D01*
X131607660Y-95402693D01*
X131695023Y-95344319D01*
X131769319Y-95270023D01*
X131827693Y-95182660D01*
X131867902Y-95085587D01*
X131888400Y-94982535D01*
X131888400Y-94877465D01*
X131886411Y-94867465D01*
X131911600Y-94867465D01*
X131911600Y-94972535D01*
X131932098Y-95075587D01*
X131972307Y-95172660D01*
X132030681Y-95260023D01*
X132104977Y-95334319D01*
X132192340Y-95392693D01*
X132289413Y-95432902D01*
X132392465Y-95453400D01*
X132497535Y-95453400D01*
X132600587Y-95432902D01*
X132697660Y-95392693D01*
X132785023Y-95334319D01*
X132859319Y-95260023D01*
X132917693Y-95172660D01*
X132957902Y-95075587D01*
X132978400Y-94972535D01*
X132978400Y-94867465D01*
X133021600Y-94867465D01*
X133021600Y-94972535D01*
X133042098Y-95075587D01*
X133082307Y-95172660D01*
X133140681Y-95260023D01*
X133214977Y-95334319D01*
X133302340Y-95392693D01*
X133399413Y-95432902D01*
X133502465Y-95453400D01*
X133607535Y-95453400D01*
X133710587Y-95432902D01*
X133807660Y-95392693D01*
X133895023Y-95334319D01*
X133969319Y-95260023D01*
X134027693Y-95172660D01*
X134067902Y-95075587D01*
X134088400Y-94972535D01*
X134088400Y-94867465D01*
X134067902Y-94764413D01*
X134027693Y-94667340D01*
X133969319Y-94579977D01*
X133910600Y-94521258D01*
X133910600Y-90168541D01*
X133969413Y-90192902D01*
X134072465Y-90213400D01*
X134177535Y-90213400D01*
X134280587Y-90192902D01*
X134377660Y-90152693D01*
X134465023Y-90094319D01*
X134539319Y-90020023D01*
X134597693Y-89932660D01*
X134637902Y-89835587D01*
X134658400Y-89732535D01*
X134658400Y-89649493D01*
X139574100Y-84733794D01*
X139587663Y-84722663D01*
X139632101Y-84668516D01*
X139665121Y-84606740D01*
X139685454Y-84539710D01*
X139690600Y-84487463D01*
X139690600Y-84487456D01*
X139692319Y-84470000D01*
X139690600Y-84452545D01*
X139690600Y-82998742D01*
X139749319Y-82940023D01*
X139807693Y-82852660D01*
X139847902Y-82755587D01*
X139868400Y-82652535D01*
X139868400Y-82547465D01*
X139847902Y-82444413D01*
X139807693Y-82347340D01*
X139749319Y-82259977D01*
X139675023Y-82185681D01*
X139587660Y-82127307D01*
X139490587Y-82087098D01*
X139387535Y-82066600D01*
X139282465Y-82066600D01*
X139179413Y-82087098D01*
X139082340Y-82127307D01*
X138994977Y-82185681D01*
X138920681Y-82259977D01*
X138862307Y-82347340D01*
X138822098Y-82444413D01*
X138801600Y-82547465D01*
X138801600Y-82652535D01*
X138822098Y-82755587D01*
X138862307Y-82852660D01*
X138920681Y-82940023D01*
X138979400Y-82998742D01*
X138979401Y-84322705D01*
X134155507Y-89146600D01*
X134072465Y-89146600D01*
X133969413Y-89167098D01*
X133910600Y-89191459D01*
X133910600Y-85387293D01*
X135054110Y-84243785D01*
X135067662Y-84232663D01*
X135078785Y-84219110D01*
X135078795Y-84219100D01*
X135112100Y-84178517D01*
X135112102Y-84178515D01*
X135145121Y-84116740D01*
X135165454Y-84049710D01*
X135170600Y-83997463D01*
X135170600Y-83997456D01*
X135172319Y-83980001D01*
X135170600Y-83962545D01*
X135170600Y-82608742D01*
X135229319Y-82550023D01*
X135287693Y-82462660D01*
X135327902Y-82365587D01*
X135348400Y-82262535D01*
X135348400Y-82157465D01*
X135327902Y-82054413D01*
X135287693Y-81957340D01*
X135229319Y-81869977D01*
X135155023Y-81795681D01*
X135067660Y-81737307D01*
X134970587Y-81697098D01*
X134867535Y-81676600D01*
X134762465Y-81676600D01*
X134659413Y-81697098D01*
X134562340Y-81737307D01*
X134474977Y-81795681D01*
X134400681Y-81869977D01*
X134342307Y-81957340D01*
X134302098Y-82054413D01*
X134281600Y-82157465D01*
X134281600Y-82262535D01*
X134302098Y-82365587D01*
X134342307Y-82462660D01*
X134400681Y-82550023D01*
X134459401Y-82608743D01*
X134459400Y-83832705D01*
X133315901Y-84976206D01*
X133302338Y-84987337D01*
X133257900Y-85041484D01*
X133241390Y-85072372D01*
X133224880Y-85103259D01*
X133204546Y-85170290D01*
X133197681Y-85240000D01*
X133199401Y-85257466D01*
X133199400Y-94521258D01*
X133140681Y-94579977D01*
X133082307Y-94667340D01*
X133042098Y-94764413D01*
X133021600Y-94867465D01*
X132978400Y-94867465D01*
X132957902Y-94764413D01*
X132917693Y-94667340D01*
X132859319Y-94579977D01*
X132800600Y-94521258D01*
X132800600Y-84977293D01*
X133784104Y-83993790D01*
X133797662Y-83982663D01*
X133808790Y-83969104D01*
X133808795Y-83969099D01*
X133824438Y-83950038D01*
X133842101Y-83928516D01*
X133875121Y-83866740D01*
X133895454Y-83799710D01*
X133900600Y-83747463D01*
X133900600Y-83747456D01*
X133902319Y-83730000D01*
X133900600Y-83712545D01*
X133900600Y-82608742D01*
X133959319Y-82550023D01*
X134017693Y-82462660D01*
X134057902Y-82365587D01*
X134078400Y-82262535D01*
X134078400Y-82157465D01*
X134057902Y-82054413D01*
X134017693Y-81957340D01*
X133959319Y-81869977D01*
X133885023Y-81795681D01*
X133797660Y-81737307D01*
X133700587Y-81697098D01*
X133597535Y-81676600D01*
X133492465Y-81676600D01*
X133389413Y-81697098D01*
X133292340Y-81737307D01*
X133204977Y-81795681D01*
X133130681Y-81869977D01*
X133072307Y-81957340D01*
X133032098Y-82054413D01*
X133011600Y-82157465D01*
X133011600Y-82262535D01*
X133032098Y-82365587D01*
X133072307Y-82462660D01*
X133130681Y-82550023D01*
X133189401Y-82608743D01*
X133189400Y-83582706D01*
X132205901Y-84566206D01*
X132192338Y-84577337D01*
X132147900Y-84631484D01*
X132147270Y-84632663D01*
X132114880Y-84693259D01*
X132094546Y-84760290D01*
X132087681Y-84830000D01*
X132089401Y-84847466D01*
X132089400Y-94521258D01*
X132030681Y-94579977D01*
X131972307Y-94667340D01*
X131932098Y-94764413D01*
X131911600Y-94867465D01*
X131886411Y-94867465D01*
X131867902Y-94774413D01*
X131827693Y-94677340D01*
X131769319Y-94589977D01*
X131710600Y-94531258D01*
X131710600Y-84597293D01*
X132514110Y-83793785D01*
X132527662Y-83782663D01*
X132538785Y-83769110D01*
X132538795Y-83769100D01*
X132572100Y-83728517D01*
X132572102Y-83728515D01*
X132605121Y-83666740D01*
X132625454Y-83599710D01*
X132630600Y-83547463D01*
X132630600Y-83547454D01*
X132632319Y-83530001D01*
X132630600Y-83512548D01*
X132630600Y-82598742D01*
X132689319Y-82540023D01*
X132747693Y-82452660D01*
X132787902Y-82355587D01*
X132808400Y-82252535D01*
X132808400Y-82147465D01*
X132787902Y-82044413D01*
X132747693Y-81947340D01*
X132689319Y-81859977D01*
X132615023Y-81785681D01*
X132527660Y-81727307D01*
X132430587Y-81687098D01*
X132327535Y-81666600D01*
X132222465Y-81666600D01*
X132119413Y-81687098D01*
X132022340Y-81727307D01*
X131934977Y-81785681D01*
X131860681Y-81859977D01*
X131802307Y-81947340D01*
X131762098Y-82044413D01*
X131741600Y-82147465D01*
X131741600Y-82252535D01*
X131762098Y-82355587D01*
X131802307Y-82452660D01*
X131860681Y-82540023D01*
X131919401Y-82598743D01*
X131919400Y-83382705D01*
X131115901Y-84186206D01*
X131102338Y-84197337D01*
X131057900Y-84251484D01*
X131042415Y-84280454D01*
X131024880Y-84313259D01*
X131004546Y-84380290D01*
X130997681Y-84450000D01*
X130999401Y-84467466D01*
X130999401Y-88259033D01*
X130970587Y-88247098D01*
X130867535Y-88226600D01*
X130784493Y-88226600D01*
X130760600Y-88202707D01*
X130760600Y-84397455D01*
X130762319Y-84379999D01*
X130760600Y-84362544D01*
X130760600Y-84362537D01*
X130755454Y-84310290D01*
X130747965Y-84285600D01*
X130745386Y-84277101D01*
X130735121Y-84243260D01*
X130702101Y-84181484D01*
X130691936Y-84169098D01*
X130668795Y-84140900D01*
X130668785Y-84140890D01*
X130657662Y-84127337D01*
X130644109Y-84116214D01*
X130218798Y-83690905D01*
X130207663Y-83677337D01*
X130153516Y-83632899D01*
X130091740Y-83599879D01*
X130024710Y-83579546D01*
X129972463Y-83574400D01*
X129972455Y-83574400D01*
X129955000Y-83572681D01*
X129937545Y-83574400D01*
X116345037Y-83574400D01*
X116405023Y-83534319D01*
X116479319Y-83460023D01*
X116537693Y-83372660D01*
X116577902Y-83275587D01*
X116598400Y-83172535D01*
X116598400Y-83067465D01*
X116577902Y-82964413D01*
X116537693Y-82867340D01*
X116479319Y-82779977D01*
X116405023Y-82705681D01*
X116317660Y-82647307D01*
X116220587Y-82607098D01*
X116117535Y-82586600D01*
X116012465Y-82586600D01*
X115909413Y-82607098D01*
X115812340Y-82647307D01*
X115724977Y-82705681D01*
X115717058Y-82713600D01*
X112113337Y-82713600D01*
X111991400Y-82591664D01*
X111991400Y-81251633D01*
X121740472Y-81251633D01*
X121802965Y-81487950D01*
X122045678Y-81601350D01*
X122305849Y-81665219D01*
X122573482Y-81677104D01*
X122838291Y-81636548D01*
X123090100Y-81545109D01*
X123197035Y-81487950D01*
X123259528Y-81251633D01*
X126740472Y-81251633D01*
X126802965Y-81487950D01*
X127045678Y-81601350D01*
X127305849Y-81665219D01*
X127573482Y-81677104D01*
X127838291Y-81636548D01*
X128090100Y-81545109D01*
X128197035Y-81487950D01*
X128259528Y-81251633D01*
X127500000Y-80492105D01*
X126740472Y-81251633D01*
X123259528Y-81251633D01*
X122500000Y-80492105D01*
X121740472Y-81251633D01*
X111991400Y-81251633D01*
X111991400Y-80039953D01*
X111993365Y-80020000D01*
X111991400Y-80000047D01*
X111991400Y-80000040D01*
X111985519Y-79940332D01*
X111962281Y-79863725D01*
X111924544Y-79793124D01*
X111897165Y-79759763D01*
X111886482Y-79746745D01*
X111886477Y-79746740D01*
X111873758Y-79731242D01*
X111858261Y-79718524D01*
X111118400Y-78978664D01*
X111118400Y-78967465D01*
X111097902Y-78864413D01*
X111057693Y-78767340D01*
X110999319Y-78679977D01*
X110925023Y-78605681D01*
X110837660Y-78547307D01*
X110740587Y-78507098D01*
X110637535Y-78486600D01*
X110532465Y-78486600D01*
X110429413Y-78507098D01*
X110332340Y-78547307D01*
X110244977Y-78605681D01*
X110170681Y-78679977D01*
X110112307Y-78767340D01*
X110072098Y-78864413D01*
X110051600Y-78967465D01*
X110051600Y-79072535D01*
X110072098Y-79175587D01*
X110112307Y-79272660D01*
X110170681Y-79360023D01*
X110244977Y-79434319D01*
X110332340Y-79492693D01*
X110429413Y-79532902D01*
X110532465Y-79553400D01*
X110543664Y-79553400D01*
X111178600Y-80188337D01*
X111178601Y-82740037D01*
X111176635Y-82760000D01*
X111184481Y-82839668D01*
X111207719Y-82916274D01*
X111225286Y-82949138D01*
X111245457Y-82986876D01*
X111262549Y-83007702D01*
X111283518Y-83033254D01*
X111283524Y-83033260D01*
X111296243Y-83048758D01*
X111311741Y-83061477D01*
X111643522Y-83393259D01*
X111656242Y-83408758D01*
X111671740Y-83421477D01*
X111671745Y-83421482D01*
X111692746Y-83438717D01*
X111718124Y-83459544D01*
X111788725Y-83497281D01*
X111865331Y-83520519D01*
X111872604Y-83521235D01*
X111925040Y-83526400D01*
X111925047Y-83526400D01*
X111945000Y-83528365D01*
X111964953Y-83526400D01*
X115717058Y-83526400D01*
X115724977Y-83534319D01*
X115784963Y-83574400D01*
X107232295Y-83574400D01*
X106920600Y-83262707D01*
X106920600Y-81238742D01*
X106979319Y-81180023D01*
X107037693Y-81092660D01*
X107077902Y-80995587D01*
X107098400Y-80892535D01*
X107098400Y-80787465D01*
X107077902Y-80684413D01*
X107037693Y-80587340D01*
X106979319Y-80499977D01*
X106905023Y-80425681D01*
X106817660Y-80367307D01*
X106720587Y-80327098D01*
X106617535Y-80306600D01*
X106512465Y-80306600D01*
X106409413Y-80327098D01*
X106312340Y-80367307D01*
X106224977Y-80425681D01*
X106150681Y-80499977D01*
X106092307Y-80587340D01*
X106052098Y-80684413D01*
X106031600Y-80787465D01*
X106030351Y-80787465D01*
X106030351Y-79839600D01*
X106024956Y-79784828D01*
X106008980Y-79732161D01*
X105983036Y-79683623D01*
X105948121Y-79641079D01*
X105905577Y-79606164D01*
X105857039Y-79580220D01*
X105804372Y-79564244D01*
X105749600Y-79558849D01*
X104249600Y-79558849D01*
X104194828Y-79564244D01*
X104142161Y-79580220D01*
X104093623Y-79606164D01*
X104051079Y-79641079D01*
X104016164Y-79683623D01*
X103990220Y-79732161D01*
X103974244Y-79784828D01*
X103968849Y-79839600D01*
X102909097Y-79839600D01*
X102933578Y-79809742D01*
X102945071Y-79798237D01*
X102960383Y-79775295D01*
X102981081Y-79744287D01*
X102987300Y-79729253D01*
X103109843Y-79499701D01*
X103118789Y-79486325D01*
X103125072Y-79471175D01*
X103125148Y-79471032D01*
X103131531Y-79455598D01*
X103137419Y-79441401D01*
X103137462Y-79441259D01*
X103143736Y-79426090D01*
X103146869Y-79410294D01*
X103222507Y-79161325D01*
X103228737Y-79146299D01*
X103235941Y-79110145D01*
X103241415Y-79082687D01*
X103241422Y-79066420D01*
X103266538Y-78812315D01*
X103268581Y-78804104D01*
X103269721Y-78780110D01*
X103270487Y-78772365D01*
X103270490Y-78763942D01*
X103270890Y-78755525D01*
X103270496Y-78747750D01*
X103270504Y-78723731D01*
X103268856Y-78715431D01*
X103263911Y-78617950D01*
X103263977Y-78617492D01*
X103262279Y-78585773D01*
X103261472Y-78569867D01*
X103261403Y-78569404D01*
X103261377Y-78568927D01*
X103258934Y-78552944D01*
X103254259Y-78521771D01*
X103254103Y-78521337D01*
X103239786Y-78427667D01*
X103239729Y-78419150D01*
X103234894Y-78395664D01*
X103233728Y-78388034D01*
X103231635Y-78379834D01*
X103229923Y-78371515D01*
X103227625Y-78364118D01*
X103221703Y-78340910D01*
X103218031Y-78333234D01*
X103142472Y-78090000D01*
X103139198Y-78074092D01*
X103132875Y-78059107D01*
X103132872Y-78059098D01*
X103127951Y-78047439D01*
X103120290Y-78029283D01*
X103120283Y-78029270D01*
X103113961Y-78014291D01*
X103104850Y-78000851D01*
X102982255Y-77775092D01*
X102976233Y-77760668D01*
X102966811Y-77746653D01*
X102966515Y-77746107D01*
X102957885Y-77733374D01*
X102949100Y-77720306D01*
X102948695Y-77719816D01*
X102939229Y-77705849D01*
X102928112Y-77694878D01*
X102766466Y-77499032D01*
X102757948Y-77486217D01*
X102745871Y-77474080D01*
X102745320Y-77473413D01*
X102734506Y-77462660D01*
X102723643Y-77451743D01*
X102722969Y-77451187D01*
X102710834Y-77439120D01*
X102698022Y-77430611D01*
X102502117Y-77269029D01*
X102491139Y-77257913D01*
X102477167Y-77248450D01*
X102476678Y-77248047D01*
X102463649Y-77239295D01*
X102450871Y-77230641D01*
X102450323Y-77230344D01*
X102436306Y-77220928D01*
X102421881Y-77214911D01*
X102196087Y-77092398D01*
X102182637Y-77083288D01*
X102167651Y-77076969D01*
X102167641Y-77076964D01*
X102145211Y-77067508D01*
X102137823Y-77064393D01*
X102137817Y-77064391D01*
X102122826Y-77058071D01*
X102106907Y-77054801D01*
X101863667Y-76979331D01*
X101855983Y-76975658D01*
X101832750Y-76969738D01*
X101825373Y-76967449D01*
X101817077Y-76965744D01*
X101808855Y-76963649D01*
X101801209Y-76962483D01*
X101777735Y-76957659D01*
X101769219Y-76957605D01*
X101675544Y-76943321D01*
X101675108Y-76943164D01*
X101643794Y-76938479D01*
X101627949Y-76936063D01*
X101627476Y-76936038D01*
X101627009Y-76935968D01*
X101611084Y-76935166D01*
X101579384Y-76933479D01*
X101578924Y-76933545D01*
X101489483Y-76929039D01*
X101489085Y-76928940D01*
X101464978Y-76927786D01*
X101457102Y-76927010D01*
X101449208Y-76927010D01*
X101441348Y-76926614D01*
X101440927Y-76926634D01*
X101440506Y-76926614D01*
X101432646Y-76927010D01*
X101424754Y-76927010D01*
X101416879Y-76927786D01*
X101392771Y-76928940D01*
X101392373Y-76929039D01*
X101302932Y-76933545D01*
X101302472Y-76933479D01*
X101270775Y-76935166D01*
X101254847Y-76935968D01*
X101254380Y-76936038D01*
X101253907Y-76936063D01*
X101238067Y-76938478D01*
X101206748Y-76943164D01*
X101206312Y-76943321D01*
X101112637Y-76957605D01*
X101104120Y-76957659D01*
X101080641Y-76962484D01*
X101073002Y-76963649D01*
X101064788Y-76965742D01*
X101056482Y-76967449D01*
X101049096Y-76969741D01*
X101025874Y-76975658D01*
X101018193Y-76979329D01*
X100774951Y-77054800D01*
X100759029Y-77058071D01*
X100714214Y-77076964D01*
X100714200Y-77076971D01*
X100699219Y-77083288D01*
X100685773Y-77092396D01*
X100459978Y-77214910D01*
X100445549Y-77220928D01*
X100431529Y-77230346D01*
X100430985Y-77230641D01*
X100418247Y-77239268D01*
X100405178Y-77248047D01*
X100404689Y-77248450D01*
X100390717Y-77257913D01*
X100379739Y-77269029D01*
X100183835Y-77430610D01*
X100171022Y-77439120D01*
X100158887Y-77451187D01*
X100158213Y-77451743D01*
X100147350Y-77462660D01*
X100136536Y-77473413D01*
X100135985Y-77474080D01*
X100123908Y-77486217D01*
X100115390Y-77499032D01*
X99953752Y-77694870D01*
X99942627Y-77705849D01*
X99933153Y-77719827D01*
X99932756Y-77720308D01*
X99924136Y-77733131D01*
X99915341Y-77746107D01*
X99915039Y-77746663D01*
X99905623Y-77760670D01*
X99899604Y-77775086D01*
X99777008Y-78000848D01*
X99767895Y-78014291D01*
X99761571Y-78029275D01*
X99761566Y-78029284D01*
X99758311Y-78036999D01*
X99748984Y-78059098D01*
X99748980Y-78059111D01*
X99742658Y-78074093D01*
X99739384Y-78090000D01*
X99663827Y-78333228D01*
X99660152Y-78340910D01*
X99654227Y-78364133D01*
X99651933Y-78371516D01*
X99650222Y-78379826D01*
X99648128Y-78388034D01*
X99646961Y-78395667D01*
X99642127Y-78419151D01*
X99642070Y-78427667D01*
X99627753Y-78521337D01*
X99627597Y-78521771D01*
X99622920Y-78552959D01*
X99620479Y-78568928D01*
X99620453Y-78569405D01*
X99620384Y-78569868D01*
X99619577Y-78585767D01*
X99617879Y-78617492D01*
X99617945Y-78617950D01*
X99613000Y-78715431D01*
X99611352Y-78723731D01*
X99611360Y-78747751D01*
X99610966Y-78755526D01*
X99040756Y-78755526D01*
X99076099Y-78522716D01*
X99143424Y-78259718D01*
X99235286Y-78007840D01*
X99350374Y-77768290D01*
X99487357Y-77542397D01*
X99644887Y-77331523D01*
X99821607Y-77137047D01*
X100016125Y-76960371D01*
X100227046Y-76802878D01*
X100452987Y-76665930D01*
X100507816Y-76639600D01*
X103968849Y-76639600D01*
X103968849Y-77639600D01*
X103974244Y-77694372D01*
X103990220Y-77747039D01*
X104016164Y-77795577D01*
X104051079Y-77838121D01*
X104093623Y-77873036D01*
X104142161Y-77898980D01*
X104194828Y-77914956D01*
X104249600Y-77920351D01*
X104487923Y-77920351D01*
X104482098Y-77934413D01*
X104461600Y-78037465D01*
X104461600Y-78142535D01*
X104482098Y-78245587D01*
X104522307Y-78342660D01*
X104580681Y-78430023D01*
X104654977Y-78504319D01*
X104742340Y-78562693D01*
X104839413Y-78602902D01*
X104942465Y-78623400D01*
X105047535Y-78623400D01*
X105150587Y-78602902D01*
X105247660Y-78562693D01*
X105335023Y-78504319D01*
X105409319Y-78430023D01*
X105467693Y-78342660D01*
X105507902Y-78245587D01*
X105528400Y-78142535D01*
X105528400Y-78037465D01*
X105507902Y-77934413D01*
X105502077Y-77920351D01*
X105749600Y-77920351D01*
X105804372Y-77914956D01*
X105857039Y-77898980D01*
X105905577Y-77873036D01*
X105948121Y-77838121D01*
X105983036Y-77795577D01*
X106008980Y-77747039D01*
X106024956Y-77694372D01*
X106030351Y-77639600D01*
X106030351Y-76639600D01*
X106024956Y-76584828D01*
X106008980Y-76532161D01*
X105983036Y-76483623D01*
X105948121Y-76441079D01*
X105905577Y-76406164D01*
X105857039Y-76380220D01*
X105804372Y-76364244D01*
X105749600Y-76358849D01*
X104249600Y-76358849D01*
X104194828Y-76364244D01*
X104142161Y-76380220D01*
X104093623Y-76406164D01*
X104051079Y-76441079D01*
X104016164Y-76483623D01*
X103990220Y-76532161D01*
X103974244Y-76584828D01*
X103968849Y-76639600D01*
X100507816Y-76639600D01*
X100692575Y-76550876D01*
X100944510Y-76459034D01*
X101207528Y-76391732D01*
X101480497Y-76350310D01*
X101770592Y-76335757D01*
X120679877Y-76335757D01*
X120543693Y-76470775D01*
G37*
X120543693Y-76470775D02*
X120407610Y-76672554D01*
X120313507Y-76897004D01*
X120265000Y-77135500D01*
X120265000Y-77485500D01*
X121373000Y-77485500D01*
X121373000Y-77465500D01*
X121627000Y-77465500D01*
X121627000Y-77485500D01*
X122735000Y-77485500D01*
X122735000Y-77135500D01*
X122686493Y-76897004D01*
X122592390Y-76672554D01*
X122456307Y-76470775D01*
X122320123Y-76335757D01*
X127679877Y-76335757D01*
X127543693Y-76470775D01*
X127407610Y-76672554D01*
X127313507Y-76897004D01*
X127265000Y-77135500D01*
X127265000Y-77485500D01*
X128373000Y-77485500D01*
X128373000Y-77465500D01*
X128627000Y-77465500D01*
X128627000Y-77485500D01*
X128647000Y-77485500D01*
X128647000Y-77739500D01*
X128627000Y-77739500D01*
X128627000Y-77759500D01*
X128373000Y-77759500D01*
X128373000Y-77739500D01*
X127265000Y-77739500D01*
X127265000Y-78089500D01*
X127313507Y-78327996D01*
X127391659Y-78514400D01*
X122608341Y-78514400D01*
X122686493Y-78327996D01*
X122735000Y-78089500D01*
X122735000Y-77739500D01*
X121627000Y-77739500D01*
X121627000Y-77759500D01*
X121373000Y-77759500D01*
X121373000Y-77739500D01*
X120265000Y-77739500D01*
X120265000Y-78089500D01*
X120313507Y-78327996D01*
X120391659Y-78514400D01*
X120052295Y-78514400D01*
X118791400Y-77253507D01*
X118780264Y-77239938D01*
X118726117Y-77195500D01*
X118664341Y-77162480D01*
X118597311Y-77142147D01*
X118545064Y-77137001D01*
X118545056Y-77137001D01*
X118527601Y-77135282D01*
X118510146Y-77137001D01*
X111884895Y-77137001D01*
X111858400Y-77110506D01*
X111858400Y-77027465D01*
X111837902Y-76924413D01*
X111797693Y-76827340D01*
X111739319Y-76739977D01*
X111665023Y-76665681D01*
X111577660Y-76607307D01*
X111480587Y-76567098D01*
X111377535Y-76546600D01*
X111272465Y-76546600D01*
X111169413Y-76567098D01*
X111072340Y-76607307D01*
X110984977Y-76665681D01*
X110930351Y-76720307D01*
X110930351Y-76639600D01*
X110924956Y-76584828D01*
X110908980Y-76532161D01*
X110883036Y-76483623D01*
X110848121Y-76441079D01*
X110805577Y-76406164D01*
X110757039Y-76380220D01*
X110704372Y-76364244D01*
X110649600Y-76358849D01*
X109149600Y-76358849D01*
X109094828Y-76364244D01*
X109042161Y-76380220D01*
X108993623Y-76406164D01*
X108951079Y-76441079D01*
X108916164Y-76483623D01*
X108890220Y-76532161D01*
X108874244Y-76584828D01*
X108868849Y-76639600D01*
X108868849Y-77639600D01*
X108874244Y-77694372D01*
X108890220Y-77747039D01*
X108916164Y-77795577D01*
X108951079Y-77838121D01*
X108993623Y-77873036D01*
X109042161Y-77898980D01*
X109094828Y-77914956D01*
X109149600Y-77920351D01*
X110402457Y-77920351D01*
X110611204Y-78129098D01*
X110622337Y-78142663D01*
X110676484Y-78187101D01*
X110738260Y-78220121D01*
X110783608Y-78233877D01*
X110805289Y-78240454D01*
X110811566Y-78241072D01*
X110857537Y-78245600D01*
X110857544Y-78245600D01*
X110875000Y-78247319D01*
X110892455Y-78245600D01*
X117897707Y-78245600D01*
X119131210Y-79479105D01*
X119142337Y-79492663D01*
X119155895Y-79503790D01*
X119155900Y-79503795D01*
X119181626Y-79524907D01*
X119196484Y-79537101D01*
X119258260Y-79570121D01*
X119325290Y-79590454D01*
X119377537Y-79595600D01*
X119377546Y-79595600D01*
X119394999Y-79597319D01*
X119412452Y-79595600D01*
X121399669Y-79595600D01*
X121324550Y-79615465D01*
X121211150Y-79858178D01*
X121147281Y-80118349D01*
X121135396Y-80385982D01*
X121175952Y-80650791D01*
X121267391Y-80902600D01*
X121324550Y-81009535D01*
X121560867Y-81072028D01*
X122320395Y-80312500D01*
X122306253Y-80298358D01*
X122485858Y-80118753D01*
X122500000Y-80132895D01*
X122514143Y-80118753D01*
X122693748Y-80298358D01*
X122679605Y-80312500D01*
X123439133Y-81072028D01*
X123675450Y-81009535D01*
X123788850Y-80766822D01*
X123852719Y-80506651D01*
X123864604Y-80239018D01*
X123824048Y-79974209D01*
X123732609Y-79722400D01*
X123675450Y-79615465D01*
X123600331Y-79595600D01*
X126399669Y-79595600D01*
X126324550Y-79615465D01*
X126211150Y-79858178D01*
X126147281Y-80118349D01*
X126135396Y-80385982D01*
X126175952Y-80650791D01*
X126267391Y-80902600D01*
X126324550Y-81009535D01*
X126560867Y-81072028D01*
X127320395Y-80312500D01*
X127306253Y-80298358D01*
X127485858Y-80118753D01*
X127500000Y-80132895D01*
X127514143Y-80118753D01*
X127693748Y-80298358D01*
X127679605Y-80312500D01*
X128439133Y-81072028D01*
X128675450Y-81009535D01*
X128788850Y-80766822D01*
X128852719Y-80506651D01*
X128864604Y-80239018D01*
X128824048Y-79974209D01*
X128732609Y-79722400D01*
X128675450Y-79615465D01*
X128600331Y-79595600D01*
X129577145Y-79595600D01*
X129552679Y-79615679D01*
X129517764Y-79658223D01*
X129491820Y-79706761D01*
X129475844Y-79759428D01*
X129470449Y-79814200D01*
X129470449Y-80814200D01*
X129475844Y-80868972D01*
X129491820Y-80921639D01*
X129517764Y-80970177D01*
X129552679Y-81012721D01*
X129595223Y-81047636D01*
X129643761Y-81073580D01*
X129696428Y-81089556D01*
X129751200Y-81094951D01*
X131251200Y-81094951D01*
X131305972Y-81089556D01*
X131358639Y-81073580D01*
X131407177Y-81047636D01*
X131449721Y-81012721D01*
X131484636Y-80970177D01*
X131510580Y-80921639D01*
X131526556Y-80868972D01*
X131531951Y-80814200D01*
X131531951Y-79814200D01*
X131526556Y-79759428D01*
X131510580Y-79706761D01*
X131484636Y-79658223D01*
X131449721Y-79615679D01*
X131407177Y-79580764D01*
X131358639Y-79554820D01*
X131305972Y-79538844D01*
X131251200Y-79533449D01*
X130858248Y-79533449D01*
X130856800Y-79518744D01*
X130856800Y-79518737D01*
X130851654Y-79466490D01*
X130845905Y-79447536D01*
X130839410Y-79426126D01*
X130831321Y-79399460D01*
X130798301Y-79337684D01*
X130786223Y-79322967D01*
X130764995Y-79297100D01*
X130764990Y-79297095D01*
X130753863Y-79283537D01*
X130740304Y-79272410D01*
X130468798Y-79000905D01*
X130458967Y-78988926D01*
X130692367Y-78755526D01*
X137111002Y-78755526D01*
X137111402Y-78763943D01*
X137111405Y-78772364D01*
X137112170Y-78780108D01*
X137113311Y-78804104D01*
X137115354Y-78812316D01*
X137140470Y-79066420D01*
X137140477Y-79082686D01*
X137145951Y-79110145D01*
X137153155Y-79146299D01*
X137159386Y-79161328D01*
X137235022Y-79410294D01*
X137238156Y-79426091D01*
X137244430Y-79441260D01*
X137244473Y-79441402D01*
X137250361Y-79455599D01*
X137256744Y-79471033D01*
X137256820Y-79471176D01*
X137263103Y-79486326D01*
X137272050Y-79499705D01*
X137394594Y-79729257D01*
X137400812Y-79744287D01*
X137424315Y-79779497D01*
X137436823Y-79798238D01*
X137448312Y-79809739D01*
X137615253Y-80013347D01*
X137624374Y-80026984D01*
X137647219Y-80049808D01*
X137670043Y-80072653D01*
X137683681Y-80081775D01*
X137887291Y-80248718D01*
X137898790Y-80260205D01*
X137912288Y-80269214D01*
X137952738Y-80296215D01*
X137967773Y-80302435D01*
X138197325Y-80424977D01*
X138210702Y-80433923D01*
X138225852Y-80440206D01*
X138225995Y-80440282D01*
X138241429Y-80446665D01*
X138255626Y-80452553D01*
X138255768Y-80452596D01*
X138270937Y-80458870D01*
X138286733Y-80462003D01*
X138535704Y-80537641D01*
X138550730Y-80543871D01*
X138580140Y-80549731D01*
X138614341Y-80556549D01*
X138630611Y-80556556D01*
X138892585Y-80582449D01*
X138908640Y-80585637D01*
X138940969Y-80585626D01*
X138973298Y-80585637D01*
X138989353Y-80582449D01*
X139251329Y-80556554D01*
X139267595Y-80556547D01*
X139300578Y-80549972D01*
X139331207Y-80543868D01*
X139346230Y-80537639D01*
X139595212Y-80461997D01*
X139610997Y-80458866D01*
X139626154Y-80452597D01*
X139626309Y-80452550D01*
X139641484Y-80446257D01*
X139655939Y-80440278D01*
X139656075Y-80440205D01*
X139671233Y-80433919D01*
X139684613Y-80424970D01*
X139914166Y-80302427D01*
X139929191Y-80296211D01*
X139954280Y-80279464D01*
X139983143Y-80260200D01*
X139994647Y-80248708D01*
X140198254Y-80081768D01*
X140211888Y-80072649D01*
X140234349Y-80050167D01*
X140257556Y-80026981D01*
X140266679Y-80013341D01*
X140433615Y-79809738D01*
X140445106Y-79798235D01*
X140458347Y-79778395D01*
X140481117Y-79744284D01*
X140487337Y-79729248D01*
X140609877Y-79499701D01*
X140618824Y-79486323D01*
X140625108Y-79471171D01*
X140625183Y-79471030D01*
X140631418Y-79455956D01*
X140637455Y-79441398D01*
X140637500Y-79441250D01*
X140643771Y-79426088D01*
X140646903Y-79410298D01*
X140722543Y-79161318D01*
X140728771Y-79146298D01*
X140735974Y-79110151D01*
X140741449Y-79082685D01*
X140741456Y-79066419D01*
X140766572Y-78812315D01*
X140768615Y-78804104D01*
X140769755Y-78780110D01*
X140770521Y-78772365D01*
X140770524Y-78763942D01*
X140770924Y-78755525D01*
X140770530Y-78747750D01*
X140770538Y-78723731D01*
X140768890Y-78715431D01*
X140763945Y-78617951D01*
X140764011Y-78617493D01*
X140762313Y-78585775D01*
X140761506Y-78569868D01*
X140761437Y-78569405D01*
X140761411Y-78568928D01*
X140758967Y-78552940D01*
X140754293Y-78521772D01*
X140754137Y-78521338D01*
X140739820Y-78427667D01*
X140739763Y-78419151D01*
X140734929Y-78395667D01*
X140733762Y-78388034D01*
X140731668Y-78379826D01*
X140729957Y-78371516D01*
X140727663Y-78364133D01*
X140721738Y-78340910D01*
X140718063Y-78333227D01*
X140642506Y-78090000D01*
X140639233Y-78074094D01*
X140632909Y-78059106D01*
X140632907Y-78059101D01*
X140630032Y-78052290D01*
X140620325Y-78029285D01*
X140620316Y-78029269D01*
X140613996Y-78014294D01*
X140604886Y-78000855D01*
X140482289Y-77775092D01*
X140476268Y-77760671D01*
X140466849Y-77746660D01*
X140466550Y-77746109D01*
X140457838Y-77733255D01*
X140449135Y-77720309D01*
X140448734Y-77719823D01*
X140439264Y-77705851D01*
X140428143Y-77694876D01*
X140266499Y-77499032D01*
X140257984Y-77486221D01*
X140245910Y-77474087D01*
X140245356Y-77473416D01*
X140234513Y-77462633D01*
X140223680Y-77451747D01*
X140223006Y-77451191D01*
X140210870Y-77439123D01*
X140198058Y-77430614D01*
X140002155Y-77269032D01*
X139991176Y-77257915D01*
X139977201Y-77248450D01*
X139976716Y-77248050D01*
X139963789Y-77239367D01*
X139950909Y-77230643D01*
X139950357Y-77230344D01*
X139936345Y-77220931D01*
X139921923Y-77214916D01*
X139696121Y-77092398D01*
X139682676Y-77083291D01*
X139667691Y-77076973D01*
X139667679Y-77076966D01*
X139650894Y-77069890D01*
X139637862Y-77064395D01*
X139637851Y-77064392D01*
X139622865Y-77058074D01*
X139606955Y-77054805D01*
X139363704Y-76979330D01*
X139356022Y-76975659D01*
X139332799Y-76969741D01*
X139325414Y-76967450D01*
X139317108Y-76965743D01*
X139308894Y-76963650D01*
X139301253Y-76962485D01*
X139277775Y-76957660D01*
X139269259Y-76957606D01*
X139175590Y-76943323D01*
X139175151Y-76943165D01*
X139143673Y-76938456D01*
X139127989Y-76936064D01*
X139127520Y-76936039D01*
X139127052Y-76935969D01*
X139111048Y-76935163D01*
X139079425Y-76933480D01*
X139078966Y-76933546D01*
X138989524Y-76929039D01*
X138989125Y-76928940D01*
X138965018Y-76927786D01*
X138957142Y-76927010D01*
X138949249Y-76927010D01*
X138941390Y-76926614D01*
X138940968Y-76926634D01*
X138940546Y-76926614D01*
X138932686Y-76927010D01*
X138924794Y-76927010D01*
X138916927Y-76927785D01*
X138892813Y-76928939D01*
X138892411Y-76929039D01*
X138802972Y-76933545D01*
X138802512Y-76933479D01*
X138770815Y-76935166D01*
X138754887Y-76935968D01*
X138754420Y-76936038D01*
X138753947Y-76936063D01*
X138738102Y-76938479D01*
X138706788Y-76943164D01*
X138706352Y-76943321D01*
X138612677Y-76957605D01*
X138604161Y-76957659D01*
X138580676Y-76962485D01*
X138573041Y-76963649D01*
X138564839Y-76965739D01*
X138556522Y-76967448D01*
X138549122Y-76969744D01*
X138525913Y-76975658D01*
X138518237Y-76979327D01*
X138274983Y-77054800D01*
X138259068Y-77058070D01*
X138244079Y-77064389D01*
X138244073Y-77064391D01*
X138233659Y-77068782D01*
X138214254Y-77076963D01*
X138214243Y-77076969D01*
X138199259Y-77083287D01*
X138185812Y-77092395D01*
X137960017Y-77214908D01*
X137945587Y-77220927D01*
X137931567Y-77230345D01*
X137931023Y-77230640D01*
X137918285Y-77239267D01*
X137905216Y-77248046D01*
X137904727Y-77248449D01*
X137890755Y-77257912D01*
X137879778Y-77269027D01*
X137683875Y-77430607D01*
X137671061Y-77439118D01*
X137658925Y-77451186D01*
X137658251Y-77451742D01*
X137647388Y-77462658D01*
X137636575Y-77473411D01*
X137636024Y-77474078D01*
X137623946Y-77486216D01*
X137615428Y-77499032D01*
X137453790Y-77694868D01*
X137442665Y-77705847D01*
X137433190Y-77719826D01*
X137432794Y-77720306D01*
X137424200Y-77733090D01*
X137415378Y-77746106D01*
X137415075Y-77746665D01*
X137405661Y-77760668D01*
X137399643Y-77775081D01*
X137277047Y-78000843D01*
X137267931Y-78014290D01*
X137261606Y-78029277D01*
X137261603Y-78029282D01*
X137261602Y-78029285D01*
X137249020Y-78059097D01*
X137249014Y-78059115D01*
X137242695Y-78074091D01*
X137239422Y-78089994D01*
X137163863Y-78333226D01*
X137160188Y-78340909D01*
X137154260Y-78364138D01*
X137151969Y-78371515D01*
X137150261Y-78379812D01*
X137148163Y-78388034D01*
X137146994Y-78395682D01*
X137142163Y-78419150D01*
X137142106Y-78427662D01*
X137127789Y-78521337D01*
X137127633Y-78521771D01*
X137122953Y-78552977D01*
X137120515Y-78568929D01*
X137120490Y-78569404D01*
X137120420Y-78569868D01*
X137119613Y-78585779D01*
X137117915Y-78617492D01*
X137117981Y-78617950D01*
X137113036Y-78715431D01*
X137111388Y-78723731D01*
X137111396Y-78747751D01*
X137111002Y-78755526D01*
X130692367Y-78755526D01*
X130740299Y-78707594D01*
X130753863Y-78696463D01*
X130765876Y-78681826D01*
X130774364Y-78671483D01*
X130798301Y-78642316D01*
X130831321Y-78580540D01*
X130851654Y-78513510D01*
X130856800Y-78461263D01*
X130856800Y-78461255D01*
X130858519Y-78443800D01*
X130856800Y-78426345D01*
X130856800Y-77894951D01*
X131251200Y-77894951D01*
X131305972Y-77889556D01*
X131358639Y-77873580D01*
X131407177Y-77847636D01*
X131449721Y-77812721D01*
X131484636Y-77770177D01*
X131510580Y-77721639D01*
X131526556Y-77668972D01*
X131531643Y-77617324D01*
X131612465Y-77633400D01*
X131717535Y-77633400D01*
X131820587Y-77612902D01*
X131917660Y-77572693D01*
X132005023Y-77514319D01*
X132079319Y-77440023D01*
X132137693Y-77352660D01*
X132177902Y-77255587D01*
X132198400Y-77152535D01*
X132198400Y-77047465D01*
X132177902Y-76944413D01*
X132137693Y-76847340D01*
X132079319Y-76759977D01*
X132005023Y-76685681D01*
X131917660Y-76627307D01*
X131820587Y-76587098D01*
X131717535Y-76566600D01*
X131612465Y-76566600D01*
X131528900Y-76583222D01*
X131526556Y-76559428D01*
X131510580Y-76506761D01*
X131484636Y-76458223D01*
X131449721Y-76415679D01*
X131407177Y-76380764D01*
X131358639Y-76354820D01*
X131305972Y-76338844D01*
X131274632Y-76335757D01*
X134627768Y-76335757D01*
X134596428Y-76338844D01*
X134543761Y-76354820D01*
X134495223Y-76380764D01*
X134452679Y-76415679D01*
X134417764Y-76458223D01*
X134391820Y-76506761D01*
X134375844Y-76559428D01*
X134370449Y-76614200D01*
X134370449Y-77614200D01*
X134375844Y-77668972D01*
X134391820Y-77721639D01*
X134417764Y-77770177D01*
X134452679Y-77812721D01*
X134495223Y-77847636D01*
X134543761Y-77873580D01*
X134596428Y-77889556D01*
X134651200Y-77894951D01*
X134878013Y-77894951D01*
X134861600Y-77977465D01*
X134861600Y-78082535D01*
X134882098Y-78185587D01*
X134922307Y-78282660D01*
X134980681Y-78370023D01*
X135054977Y-78444319D01*
X135142340Y-78502693D01*
X135239413Y-78542902D01*
X135342465Y-78563400D01*
X135447535Y-78563400D01*
X135550587Y-78542902D01*
X135647660Y-78502693D01*
X135735023Y-78444319D01*
X135809319Y-78370023D01*
X135867693Y-78282660D01*
X135907902Y-78185587D01*
X135928400Y-78082535D01*
X135928400Y-77977465D01*
X135911987Y-77894951D01*
X136151200Y-77894951D01*
X136205972Y-77889556D01*
X136258639Y-77873580D01*
X136307177Y-77847636D01*
X136349721Y-77812721D01*
X136384636Y-77770177D01*
X136410580Y-77721639D01*
X136426556Y-77668972D01*
X136431951Y-77614200D01*
X136431951Y-76614200D01*
X136426556Y-76559428D01*
X136410580Y-76506761D01*
X136384636Y-76458223D01*
X136349721Y-76415679D01*
X136307177Y-76380764D01*
X136258639Y-76354820D01*
X136205972Y-76338844D01*
X136174632Y-76335757D01*
X138611284Y-76335757D01*
X138901393Y-76350309D01*
X139174334Y-76391730D01*
X139437330Y-76459030D01*
X139689227Y-76550871D01*
X139928770Y-76665921D01*
X140154664Y-76802865D01*
X140365539Y-76960355D01*
X140560008Y-77137026D01*
X140736678Y-77331494D01*
X140894163Y-77542366D01*
X141031106Y-77768259D01*
X141146155Y-78007801D01*
X141237996Y-78259701D01*
X141305296Y-78522693D01*
X141346716Y-78795634D01*
X141361269Y-79085763D01*
X141361269Y-91613000D01*
X137095000Y-91613000D01*
X137070224Y-91615440D01*
X137046399Y-91622667D01*
X137024443Y-91634403D01*
X137005197Y-91650197D01*
X136989403Y-91669443D01*
X136977667Y-91691399D01*
X136970440Y-91715224D01*
X136968000Y-91740000D01*
X136968000Y-101970000D01*
X136970440Y-101994776D01*
X136977667Y-102018601D01*
X136989403Y-102040557D01*
X137005197Y-102059803D01*
X137024443Y-102075597D01*
X137046399Y-102087333D01*
X137070224Y-102094560D01*
X137095000Y-102097000D01*
X141361268Y-102097000D01*
X141361268Y-115926416D01*
X141346716Y-116216529D01*
X141305295Y-116489491D01*
X141237992Y-116752520D01*
X141146151Y-117004449D01*
X141031091Y-117244048D01*
X140894146Y-117469983D01*
X140736656Y-117680902D01*
X140559982Y-117875417D01*
X140365511Y-118052136D01*
X140154630Y-118209671D01*
X139928731Y-118346656D01*
X139689193Y-118461739D01*
X139437308Y-118553604D01*
X139174310Y-118620929D01*
X138901378Y-118662362D01*
X138611288Y-118676919D01*
X101770603Y-118676919D01*
X101480501Y-118662362D01*
X101207558Y-118620929D01*
X100944539Y-118553605D01*
X100692607Y-118461735D01*
X100453018Y-118346643D01*
X100227075Y-118209655D01*
X100016157Y-118052124D01*
X99821636Y-117875401D01*
X99644911Y-117680878D01*
X99487370Y-117469948D01*
X99350382Y-117244006D01*
X99235292Y-117004416D01*
X99143425Y-116752492D01*
X99076099Y-116489468D01*
X99035766Y-116223768D01*
X99611352Y-116223768D01*
X99611363Y-116256097D01*
X99611352Y-116288426D01*
X99614540Y-116304483D01*
X99640434Y-116566457D01*
X99640441Y-116582722D01*
X99647247Y-116616866D01*
X99653119Y-116646336D01*
X99659347Y-116661358D01*
X99734987Y-116910339D01*
X99738119Y-116926126D01*
X99744389Y-116941286D01*
X99744435Y-116941437D01*
X99750699Y-116956543D01*
X99756707Y-116971068D01*
X99756779Y-116971202D01*
X99763065Y-116986361D01*
X99772015Y-116999744D01*
X99894556Y-117229293D01*
X99900774Y-117244324D01*
X99919358Y-117272165D01*
X99936784Y-117298275D01*
X99948277Y-117309780D01*
X100115217Y-117513387D01*
X100124336Y-117527020D01*
X100146997Y-117549661D01*
X100170005Y-117572690D01*
X100183643Y-117581812D01*
X100387246Y-117748750D01*
X100398750Y-117760242D01*
X100417719Y-117772902D01*
X100452699Y-117796251D01*
X100467728Y-117802468D01*
X100697290Y-117925018D01*
X100710663Y-117933961D01*
X100725809Y-117940242D01*
X100725955Y-117940320D01*
X100741766Y-117946859D01*
X100755587Y-117952591D01*
X100755726Y-117952633D01*
X100770897Y-117958908D01*
X100786695Y-117962042D01*
X101035663Y-118037679D01*
X101050689Y-118043909D01*
X101083941Y-118050535D01*
X101114301Y-118056587D01*
X101130568Y-118056594D01*
X101392543Y-118082488D01*
X101408599Y-118085676D01*
X101440928Y-118085665D01*
X101473257Y-118085676D01*
X101489314Y-118082488D01*
X101751288Y-118056594D01*
X101767554Y-118056587D01*
X101795538Y-118051009D01*
X101831167Y-118043909D01*
X101846196Y-118037678D01*
X102095162Y-117962041D01*
X102110958Y-117958908D01*
X102126127Y-117952634D01*
X102126269Y-117952591D01*
X102140466Y-117946703D01*
X102155900Y-117940320D01*
X102156043Y-117940244D01*
X102171193Y-117933961D01*
X102184569Y-117925015D01*
X102414124Y-117802470D01*
X102429156Y-117796252D01*
X102454351Y-117779433D01*
X102483106Y-117760242D01*
X102494618Y-117748743D01*
X102698219Y-117581808D01*
X102711851Y-117572690D01*
X102734313Y-117550207D01*
X102757520Y-117527021D01*
X102766642Y-117513383D01*
X102933585Y-117309773D01*
X102945072Y-117298274D01*
X102959830Y-117276163D01*
X102981082Y-117244326D01*
X102987302Y-117229291D01*
X103109844Y-116999740D01*
X103118791Y-116986361D01*
X103125076Y-116971207D01*
X103125149Y-116971069D01*
X103131313Y-116956167D01*
X103137421Y-116941437D01*
X103137466Y-116941289D01*
X103143737Y-116926127D01*
X103146869Y-116910337D01*
X103222510Y-116661355D01*
X103228737Y-116646336D01*
X103233978Y-116620035D01*
X103241415Y-116582723D01*
X103241422Y-116566457D01*
X103267316Y-116304482D01*
X103270504Y-116288426D01*
X103270493Y-116256097D01*
X103270504Y-116223768D01*
X103267316Y-116207712D01*
X103241422Y-115945737D01*
X103241415Y-115929470D01*
X103235363Y-115899110D01*
X103228737Y-115865858D01*
X103222507Y-115850832D01*
X103146869Y-115601863D01*
X103143736Y-115586067D01*
X103137462Y-115570898D01*
X103137419Y-115570756D01*
X103131531Y-115556559D01*
X103125148Y-115541125D01*
X103125072Y-115540982D01*
X103118789Y-115525832D01*
X103109843Y-115512456D01*
X102987300Y-115282904D01*
X102981081Y-115267870D01*
X102960249Y-115236662D01*
X102945071Y-115213920D01*
X102933578Y-115202415D01*
X102766642Y-114998813D01*
X102757520Y-114985174D01*
X102734675Y-114962350D01*
X102711852Y-114939506D01*
X102698214Y-114930384D01*
X102494612Y-114763447D01*
X102483105Y-114751953D01*
X102454228Y-114732680D01*
X102429154Y-114715943D01*
X102414123Y-114709725D01*
X102184573Y-114587183D01*
X102171193Y-114578235D01*
X102156038Y-114571950D01*
X102155899Y-114571876D01*
X102140842Y-114565648D01*
X102126269Y-114559605D01*
X102126123Y-114559561D01*
X102110957Y-114553288D01*
X102095164Y-114550155D01*
X101846196Y-114474518D01*
X101831167Y-114468287D01*
X101795538Y-114461187D01*
X101767554Y-114455609D01*
X101751288Y-114455602D01*
X101505556Y-114431313D01*
X101505502Y-114431297D01*
X101489260Y-114429697D01*
X101473257Y-114426520D01*
X101444649Y-114426530D01*
X101437207Y-114426530D01*
X101408599Y-114426520D01*
X101392596Y-114429697D01*
X101376354Y-114431297D01*
X101376300Y-114431313D01*
X101130568Y-114455602D01*
X101114301Y-114455609D01*
X101083941Y-114461661D01*
X101050689Y-114468287D01*
X101035663Y-114474517D01*
X100786694Y-114550155D01*
X100770898Y-114553288D01*
X100755729Y-114559562D01*
X100755587Y-114559605D01*
X100741390Y-114565493D01*
X100725956Y-114571876D01*
X100725813Y-114571952D01*
X100710663Y-114578235D01*
X100697287Y-114587181D01*
X100467739Y-114709722D01*
X100452700Y-114715943D01*
X100417342Y-114739545D01*
X100398751Y-114751953D01*
X100387250Y-114763442D01*
X100183642Y-114930384D01*
X100170004Y-114939506D01*
X100147181Y-114962351D01*
X100124336Y-114985174D01*
X100115215Y-114998811D01*
X99948283Y-115202410D01*
X99936785Y-115213920D01*
X99919981Y-115239098D01*
X99900775Y-115267871D01*
X99894557Y-115282901D01*
X99772015Y-115512452D01*
X99763067Y-115525832D01*
X99756782Y-115540987D01*
X99756708Y-115541126D01*
X99750480Y-115556183D01*
X99744437Y-115570756D01*
X99744393Y-115570902D01*
X99738120Y-115586068D01*
X99734987Y-115601861D01*
X99659350Y-115850829D01*
X99653119Y-115865858D01*
X99646019Y-115901487D01*
X99640441Y-115929471D01*
X99640434Y-115945737D01*
X99614540Y-116207711D01*
X99611352Y-116223768D01*
X99035766Y-116223768D01*
X99034666Y-116216523D01*
X99020109Y-115926420D01*
X99020109Y-114284000D01*
X104165849Y-114284000D01*
X104165849Y-115684000D01*
X104171244Y-115738772D01*
X104187220Y-115791439D01*
X104213164Y-115839977D01*
X104248079Y-115882521D01*
X104290623Y-115917436D01*
X104339161Y-115943380D01*
X104391828Y-115959356D01*
X104446600Y-115964751D01*
X106046600Y-115964751D01*
X106101372Y-115959356D01*
X106154039Y-115943380D01*
X106202577Y-115917436D01*
X106245121Y-115882521D01*
X106280036Y-115839977D01*
X106305980Y-115791439D01*
X106321956Y-115738772D01*
X106327351Y-115684000D01*
X106327351Y-115339600D01*
X111365849Y-115339600D01*
X111365849Y-115684000D01*
X111371244Y-115738772D01*
X111387220Y-115791439D01*
X111413164Y-115839977D01*
X111448079Y-115882521D01*
X111490623Y-115917436D01*
X111539161Y-115943380D01*
X111591828Y-115959356D01*
X111646600Y-115964751D01*
X113246600Y-115964751D01*
X113301372Y-115959356D01*
X113354039Y-115943380D01*
X113402577Y-115917436D01*
X113445121Y-115882521D01*
X113480036Y-115839977D01*
X113505980Y-115791439D01*
X113521956Y-115738772D01*
X113527351Y-115684000D01*
X113527351Y-114284000D01*
X113521956Y-114229228D01*
X113505980Y-114176561D01*
X113480036Y-114128023D01*
X113445121Y-114085479D01*
X113402577Y-114050564D01*
X113354039Y-114024620D01*
X113301372Y-114008644D01*
X113246600Y-114003249D01*
X112922302Y-114003249D01*
X112937902Y-113965587D01*
X112958400Y-113862535D01*
X112958400Y-113757465D01*
X112937902Y-113654413D01*
X112897693Y-113557340D01*
X112839319Y-113469977D01*
X112780600Y-113411258D01*
X112780600Y-104627293D01*
X113982295Y-103425600D01*
X116956506Y-103425600D01*
X116035901Y-104346206D01*
X116022338Y-104357337D01*
X115977900Y-104411484D01*
X115965976Y-104433793D01*
X115944880Y-104473259D01*
X115924546Y-104540290D01*
X115917681Y-104610000D01*
X115919401Y-104627465D01*
X115919400Y-107682705D01*
X115315506Y-108286600D01*
X115232465Y-108286600D01*
X115129413Y-108307098D01*
X115032340Y-108347307D01*
X114944977Y-108405681D01*
X114870681Y-108479977D01*
X114812307Y-108567340D01*
X114772098Y-108664413D01*
X114751600Y-108767465D01*
X114751600Y-108850507D01*
X114745901Y-108856206D01*
X114732337Y-108867338D01*
X114687899Y-108921485D01*
X114665889Y-108962663D01*
X114654880Y-108983259D01*
X114634546Y-109050290D01*
X114633867Y-109057188D01*
X114629400Y-109102538D01*
X114629400Y-109102545D01*
X114627681Y-109120000D01*
X114629400Y-109137455D01*
X114629401Y-115472534D01*
X114627681Y-115490000D01*
X114634546Y-115559710D01*
X114654880Y-115626741D01*
X114667630Y-115650593D01*
X114687900Y-115688516D01*
X114707701Y-115712643D01*
X114717808Y-115724958D01*
X114732338Y-115742663D01*
X114745901Y-115753794D01*
X117411210Y-118419105D01*
X117422337Y-118432663D01*
X117435895Y-118443790D01*
X117435900Y-118443795D01*
X117462454Y-118465587D01*
X117476484Y-118477101D01*
X117538260Y-118510121D01*
X117605290Y-118530454D01*
X117657537Y-118535600D01*
X117657546Y-118535600D01*
X117674999Y-118537319D01*
X117692452Y-118535600D01*
X119367545Y-118535600D01*
X119385000Y-118537319D01*
X119402455Y-118535600D01*
X119402463Y-118535600D01*
X119454710Y-118530454D01*
X119521740Y-118510121D01*
X119583516Y-118477101D01*
X119637663Y-118432663D01*
X119648798Y-118419095D01*
X119855304Y-118212590D01*
X119868862Y-118201463D01*
X119879990Y-118187904D01*
X119879995Y-118187899D01*
X119913300Y-118147317D01*
X119913302Y-118147315D01*
X119946321Y-118085540D01*
X119966452Y-118019176D01*
X119966654Y-118018511D01*
X119968367Y-118001119D01*
X119971800Y-117966263D01*
X119971800Y-117966256D01*
X119973519Y-117948801D01*
X119971800Y-117931346D01*
X119971800Y-117839171D01*
X119975610Y-117839171D01*
X120030382Y-117833776D01*
X120083049Y-117817800D01*
X120131587Y-117791856D01*
X120174131Y-117756941D01*
X120209046Y-117714397D01*
X120234990Y-117665859D01*
X120250966Y-117613192D01*
X120256361Y-117558420D01*
X120256361Y-116958980D01*
X120252088Y-116915600D01*
X120915792Y-116915600D01*
X120911519Y-116958980D01*
X120911519Y-117558420D01*
X120916914Y-117613192D01*
X120932890Y-117665859D01*
X120958834Y-117714397D01*
X120993749Y-117756941D01*
X121036293Y-117791856D01*
X121084831Y-117817800D01*
X121137498Y-117833776D01*
X121192270Y-117839171D01*
X121911090Y-117839171D01*
X121965862Y-117833776D01*
X122018529Y-117817800D01*
X122067067Y-117791856D01*
X122109611Y-117756941D01*
X122144526Y-117714397D01*
X122170470Y-117665859D01*
X122172455Y-117659316D01*
X122252340Y-117712693D01*
X122349413Y-117752902D01*
X122452465Y-117773400D01*
X122557535Y-117773400D01*
X122660587Y-117752902D01*
X122757660Y-117712693D01*
X122845023Y-117654319D01*
X122919319Y-117580023D01*
X122977693Y-117492660D01*
X123017902Y-117395587D01*
X123038400Y-117292535D01*
X123038400Y-117187465D01*
X123017902Y-117084413D01*
X122977693Y-116987340D01*
X122919319Y-116899977D01*
X122852586Y-116833244D01*
X122877663Y-116812663D01*
X122888799Y-116799094D01*
X123464125Y-116223768D01*
X137111388Y-116223768D01*
X137111399Y-116256097D01*
X137111388Y-116288426D01*
X137114576Y-116304483D01*
X137140470Y-116566460D01*
X137140477Y-116582722D01*
X137145529Y-116608065D01*
X137153155Y-116646336D01*
X137159384Y-116661360D01*
X137235023Y-116910337D01*
X137238155Y-116926128D01*
X137244426Y-116941290D01*
X137244471Y-116941438D01*
X137250579Y-116956168D01*
X137256743Y-116971070D01*
X137256816Y-116971208D01*
X137263101Y-116986362D01*
X137272049Y-116999742D01*
X137394594Y-117229296D01*
X137400811Y-117244325D01*
X137411999Y-117261085D01*
X137436821Y-117298276D01*
X137448319Y-117309786D01*
X137615251Y-117513385D01*
X137624373Y-117527023D01*
X137647402Y-117550030D01*
X137670042Y-117572691D01*
X137683676Y-117581810D01*
X137887286Y-117748754D01*
X137898789Y-117760245D01*
X137918500Y-117773400D01*
X137952737Y-117796254D01*
X137967773Y-117802474D01*
X138197328Y-117925018D01*
X138210702Y-117933962D01*
X138225848Y-117940243D01*
X138225996Y-117940322D01*
X138241645Y-117946794D01*
X138255626Y-117952592D01*
X138255769Y-117952635D01*
X138270938Y-117958909D01*
X138286733Y-117962042D01*
X138535704Y-118037680D01*
X138550730Y-118043910D01*
X138580140Y-118049770D01*
X138614341Y-118056588D01*
X138630611Y-118056595D01*
X138892585Y-118082488D01*
X138908640Y-118085676D01*
X138940969Y-118085665D01*
X138973298Y-118085676D01*
X138989353Y-118082488D01*
X139251329Y-118056593D01*
X139267595Y-118056586D01*
X139300578Y-118050011D01*
X139331207Y-118043907D01*
X139346230Y-118037678D01*
X139595206Y-117962038D01*
X139610996Y-117958906D01*
X139626159Y-117952635D01*
X139626309Y-117952589D01*
X139640961Y-117946512D01*
X139655938Y-117940318D01*
X139656079Y-117940243D01*
X139671233Y-117933958D01*
X139684610Y-117925012D01*
X139914165Y-117802466D01*
X139929194Y-117796249D01*
X139964170Y-117772902D01*
X139983143Y-117760239D01*
X139994645Y-117748749D01*
X140198255Y-117581805D01*
X140211888Y-117572687D01*
X140234349Y-117550205D01*
X140257557Y-117527018D01*
X140266680Y-117513378D01*
X140433614Y-117309778D01*
X140445107Y-117298273D01*
X140462532Y-117272165D01*
X140481117Y-117244323D01*
X140487336Y-117229289D01*
X140609878Y-116999740D01*
X140618826Y-116986360D01*
X140625111Y-116971206D01*
X140625184Y-116971068D01*
X140631348Y-116956166D01*
X140637456Y-116941436D01*
X140637501Y-116941288D01*
X140643772Y-116926126D01*
X140646904Y-116910336D01*
X140722545Y-116661353D01*
X140728772Y-116646334D01*
X140733779Y-116621205D01*
X140741450Y-116582722D01*
X140741457Y-116566454D01*
X140767350Y-116304482D01*
X140770538Y-116288426D01*
X140770527Y-116256097D01*
X140770538Y-116223767D01*
X140767350Y-116207712D01*
X140741456Y-115945738D01*
X140741449Y-115929472D01*
X140732872Y-115886441D01*
X140728771Y-115865859D01*
X140722543Y-115850839D01*
X140646903Y-115601859D01*
X140643771Y-115586069D01*
X140637500Y-115570907D01*
X140637455Y-115570759D01*
X140631418Y-115556201D01*
X140625183Y-115541127D01*
X140625108Y-115540986D01*
X140618824Y-115525834D01*
X140609877Y-115512456D01*
X140487337Y-115282909D01*
X140481117Y-115267873D01*
X140458239Y-115233600D01*
X140445106Y-115213922D01*
X140433615Y-115202419D01*
X140266679Y-114998816D01*
X140257556Y-114985176D01*
X140234349Y-114961990D01*
X140211888Y-114939508D01*
X140198254Y-114930389D01*
X139994647Y-114763449D01*
X139983143Y-114751957D01*
X139952249Y-114731337D01*
X139929191Y-114715946D01*
X139914166Y-114709730D01*
X139684613Y-114587187D01*
X139671233Y-114578238D01*
X139656075Y-114571952D01*
X139655939Y-114571879D01*
X139641484Y-114565900D01*
X139626309Y-114559607D01*
X139626154Y-114559560D01*
X139610997Y-114553291D01*
X139595212Y-114550160D01*
X139346230Y-114474518D01*
X139331207Y-114468289D01*
X139300578Y-114462185D01*
X139267595Y-114455610D01*
X139251329Y-114455603D01*
X139005596Y-114431313D01*
X139005542Y-114431297D01*
X138989300Y-114429697D01*
X138973298Y-114426520D01*
X138944690Y-114426530D01*
X138937248Y-114426530D01*
X138908640Y-114426520D01*
X138892638Y-114429697D01*
X138876394Y-114431297D01*
X138876340Y-114431313D01*
X138630611Y-114455601D01*
X138614341Y-114455608D01*
X138580140Y-114462426D01*
X138550730Y-114468286D01*
X138535704Y-114474516D01*
X138286733Y-114550154D01*
X138270937Y-114553287D01*
X138255768Y-114559561D01*
X138255626Y-114559604D01*
X138241429Y-114565492D01*
X138225995Y-114571875D01*
X138225852Y-114571951D01*
X138210702Y-114578234D01*
X138197325Y-114587180D01*
X137967773Y-114709722D01*
X137952738Y-114715942D01*
X137917379Y-114739545D01*
X137898790Y-114751952D01*
X137887291Y-114763439D01*
X137683681Y-114930382D01*
X137670043Y-114939504D01*
X137647219Y-114962349D01*
X137624374Y-114985173D01*
X137615253Y-114998810D01*
X137448312Y-115202418D01*
X137436823Y-115213919D01*
X137427716Y-115227564D01*
X137400812Y-115267870D01*
X137394594Y-115282900D01*
X137272050Y-115512452D01*
X137263103Y-115525831D01*
X137256820Y-115540981D01*
X137256744Y-115541124D01*
X137250361Y-115556558D01*
X137244473Y-115570755D01*
X137244430Y-115570897D01*
X137238156Y-115586066D01*
X137235022Y-115601863D01*
X137159386Y-115850829D01*
X137153155Y-115865858D01*
X137146055Y-115901487D01*
X137140477Y-115929471D01*
X137140470Y-115945737D01*
X137114576Y-116207711D01*
X137111388Y-116223768D01*
X123464125Y-116223768D01*
X123954104Y-115733790D01*
X123967662Y-115722663D01*
X123978790Y-115709104D01*
X123978795Y-115709099D01*
X123999393Y-115684000D01*
X124012101Y-115668516D01*
X124045121Y-115606740D01*
X124065454Y-115539710D01*
X124070600Y-115487463D01*
X124070600Y-115487455D01*
X124072319Y-115470000D01*
X124070600Y-115452545D01*
X124070600Y-114258600D01*
X126441649Y-114258600D01*
X126441649Y-115658600D01*
X126447044Y-115713372D01*
X126463020Y-115766039D01*
X126488964Y-115814577D01*
X126523879Y-115857121D01*
X126566423Y-115892036D01*
X126614961Y-115917980D01*
X126667628Y-115933956D01*
X126722400Y-115939351D01*
X128322400Y-115939351D01*
X128377172Y-115933956D01*
X128429839Y-115917980D01*
X128478377Y-115892036D01*
X128520921Y-115857121D01*
X128555836Y-115814577D01*
X128581780Y-115766039D01*
X128597756Y-115713372D01*
X128603151Y-115658600D01*
X128603151Y-115314200D01*
X133641649Y-115314200D01*
X133641649Y-115658600D01*
X133647044Y-115713372D01*
X133663020Y-115766039D01*
X133688964Y-115814577D01*
X133723879Y-115857121D01*
X133766423Y-115892036D01*
X133814961Y-115917980D01*
X133867628Y-115933956D01*
X133922400Y-115939351D01*
X135522400Y-115939351D01*
X135577172Y-115933956D01*
X135629839Y-115917980D01*
X135678377Y-115892036D01*
X135720921Y-115857121D01*
X135755836Y-115814577D01*
X135781780Y-115766039D01*
X135797756Y-115713372D01*
X135803151Y-115658600D01*
X135803151Y-114258600D01*
X135797756Y-114203828D01*
X135781780Y-114151161D01*
X135755836Y-114102623D01*
X135720921Y-114060079D01*
X135678377Y-114025164D01*
X135629839Y-113999220D01*
X135577172Y-113983244D01*
X135522400Y-113977849D01*
X135209686Y-113977849D01*
X135247902Y-113885587D01*
X135268400Y-113782535D01*
X135268400Y-113677465D01*
X135247902Y-113574413D01*
X135207693Y-113477340D01*
X135149319Y-113389977D01*
X135075023Y-113315681D01*
X134987660Y-113257307D01*
X134890587Y-113217098D01*
X134787535Y-113196600D01*
X134682465Y-113196600D01*
X134579413Y-113217098D01*
X134482340Y-113257307D01*
X134394977Y-113315681D01*
X134320681Y-113389977D01*
X134262307Y-113477340D01*
X134222098Y-113574413D01*
X134201600Y-113677465D01*
X134201600Y-113782535D01*
X134222098Y-113885587D01*
X134260314Y-113977849D01*
X133922400Y-113977849D01*
X133867628Y-113983244D01*
X133814961Y-113999220D01*
X133766423Y-114025164D01*
X133723879Y-114060079D01*
X133688964Y-114102623D01*
X133663020Y-114151161D01*
X133647044Y-114203828D01*
X133641649Y-114258600D01*
X133641649Y-114603000D01*
X128603151Y-114603000D01*
X128603151Y-114258600D01*
X128597756Y-114203828D01*
X128581780Y-114151161D01*
X128555836Y-114102623D01*
X128520921Y-114060079D01*
X128478377Y-114025164D01*
X128429839Y-113999220D01*
X128377172Y-113983244D01*
X128322400Y-113977849D01*
X126722400Y-113977849D01*
X126667628Y-113983244D01*
X126614961Y-113999220D01*
X126566423Y-114025164D01*
X126523879Y-114060079D01*
X126488964Y-114102623D01*
X126463020Y-114151161D01*
X126447044Y-114203828D01*
X126441649Y-114258600D01*
X124070600Y-114258600D01*
X124070600Y-109847293D01*
X124362294Y-109555600D01*
X131487707Y-109555600D01*
X131719400Y-109787294D01*
X131719401Y-110071257D01*
X131660681Y-110129977D01*
X131602307Y-110217340D01*
X131562098Y-110314413D01*
X131541600Y-110417465D01*
X131541600Y-110522535D01*
X131562098Y-110625587D01*
X131602307Y-110722660D01*
X131660681Y-110810023D01*
X131734977Y-110884319D01*
X131822340Y-110942693D01*
X131919413Y-110982902D01*
X132022465Y-111003400D01*
X132105507Y-111003400D01*
X132589401Y-111487295D01*
X132589400Y-112132544D01*
X132587681Y-112150000D01*
X132589400Y-112167455D01*
X132589400Y-112167462D01*
X132589936Y-112172899D01*
X132594546Y-112219710D01*
X132597941Y-112230902D01*
X132614879Y-112286739D01*
X132647899Y-112348515D01*
X132692337Y-112402662D01*
X132705901Y-112413794D01*
X133321206Y-113029100D01*
X133332337Y-113042663D01*
X133386484Y-113087101D01*
X133448260Y-113120121D01*
X133515290Y-113140454D01*
X133567537Y-113145600D01*
X133567545Y-113145600D01*
X133585000Y-113147319D01*
X133602455Y-113145600D01*
X140057545Y-113145600D01*
X140075000Y-113147319D01*
X140092455Y-113145600D01*
X140092463Y-113145600D01*
X140144710Y-113140454D01*
X140211740Y-113120121D01*
X140273516Y-113087101D01*
X140327663Y-113042663D01*
X140338799Y-113029094D01*
X140841900Y-112525994D01*
X140855463Y-112514863D01*
X140899901Y-112460716D01*
X140932921Y-112398940D01*
X140948217Y-112348515D01*
X140953254Y-112331911D01*
X140955150Y-112312662D01*
X140958400Y-112279663D01*
X140958400Y-112279656D01*
X140960119Y-112262200D01*
X140958400Y-112244745D01*
X140958400Y-111361338D01*
X140960239Y-111360780D01*
X141008777Y-111334836D01*
X141051321Y-111299921D01*
X141086236Y-111257377D01*
X141112180Y-111208839D01*
X141128156Y-111156172D01*
X141133551Y-111101400D01*
X141133551Y-110601400D01*
X141128156Y-110546628D01*
X141112180Y-110493961D01*
X141089431Y-110451400D01*
X141112180Y-110408839D01*
X141128156Y-110356172D01*
X141133551Y-110301400D01*
X141133551Y-109801400D01*
X141128156Y-109746628D01*
X141112180Y-109693961D01*
X141089431Y-109651400D01*
X141112180Y-109608839D01*
X141128156Y-109556172D01*
X141133551Y-109501400D01*
X141133551Y-109001400D01*
X141128156Y-108946628D01*
X141112180Y-108893961D01*
X141086236Y-108845423D01*
X141051321Y-108802879D01*
X141008777Y-108767964D01*
X140960239Y-108742020D01*
X140907572Y-108726044D01*
X140852800Y-108720649D01*
X140352800Y-108720649D01*
X140298028Y-108726044D01*
X140245361Y-108742020D01*
X140196823Y-108767964D01*
X140189538Y-108773943D01*
X140100587Y-108737098D01*
X139997535Y-108716600D01*
X139892465Y-108716600D01*
X139789413Y-108737098D01*
X139692340Y-108777307D01*
X139604977Y-108835681D01*
X139530681Y-108909977D01*
X139472307Y-108997340D01*
X139432098Y-109094413D01*
X139411600Y-109197465D01*
X139411600Y-109302535D01*
X139432098Y-109405587D01*
X139472307Y-109502660D01*
X139530681Y-109590023D01*
X139604977Y-109664319D01*
X139692340Y-109722693D01*
X139789413Y-109762902D01*
X139833835Y-109771738D01*
X139800937Y-109798737D01*
X139789801Y-109812306D01*
X139685901Y-109916206D01*
X139672338Y-109927337D01*
X139627900Y-109981484D01*
X139614208Y-110007100D01*
X139594880Y-110043259D01*
X139574546Y-110110290D01*
X139567681Y-110180000D01*
X139569401Y-110197465D01*
X139569400Y-111912706D01*
X139437707Y-112044400D01*
X134062295Y-112044400D01*
X133720600Y-111702707D01*
X133720600Y-110878742D01*
X133761877Y-110837465D01*
X136841600Y-110837465D01*
X136841600Y-110942535D01*
X136862098Y-111045587D01*
X136902307Y-111142660D01*
X136960681Y-111230023D01*
X137034977Y-111304319D01*
X137122340Y-111362693D01*
X137219413Y-111402902D01*
X137322465Y-111423400D01*
X137427535Y-111423400D01*
X137530587Y-111402902D01*
X137627660Y-111362693D01*
X137715023Y-111304319D01*
X137729552Y-111289790D01*
X137754279Y-111319921D01*
X137796823Y-111354836D01*
X137845361Y-111380780D01*
X137898028Y-111396756D01*
X137952800Y-111402151D01*
X138452800Y-111402151D01*
X138507572Y-111396756D01*
X138560239Y-111380780D01*
X138608777Y-111354836D01*
X138651321Y-111319921D01*
X138686236Y-111277377D01*
X138712180Y-111228839D01*
X138728156Y-111176172D01*
X138733551Y-111121400D01*
X138733551Y-110621400D01*
X138728156Y-110566628D01*
X138712180Y-110513961D01*
X138686236Y-110465423D01*
X138682934Y-110461400D01*
X138686236Y-110457377D01*
X138712180Y-110408839D01*
X138728156Y-110356172D01*
X138733551Y-110301400D01*
X138733551Y-109801400D01*
X138728156Y-109746628D01*
X138712180Y-109693961D01*
X138686236Y-109645423D01*
X138651321Y-109602879D01*
X138608777Y-109567964D01*
X138560239Y-109542020D01*
X138507572Y-109526044D01*
X138452800Y-109520649D01*
X137952800Y-109520649D01*
X137898028Y-109526044D01*
X137845361Y-109542020D01*
X137796823Y-109567964D01*
X137766225Y-109593075D01*
X137727660Y-109567307D01*
X137630587Y-109527098D01*
X137527535Y-109506600D01*
X137422465Y-109506600D01*
X137319413Y-109527098D01*
X137222340Y-109567307D01*
X137134977Y-109625681D01*
X137060681Y-109699977D01*
X137002307Y-109787340D01*
X136962098Y-109884413D01*
X136941600Y-109987465D01*
X136941600Y-110092535D01*
X136962098Y-110195587D01*
X137002307Y-110292660D01*
X137060681Y-110380023D01*
X137107728Y-110427070D01*
X137034977Y-110475681D01*
X136960681Y-110549977D01*
X136902307Y-110637340D01*
X136862098Y-110734413D01*
X136841600Y-110837465D01*
X133761877Y-110837465D01*
X133779319Y-110820023D01*
X133837693Y-110732660D01*
X133877902Y-110635587D01*
X133898400Y-110532535D01*
X133898400Y-110427465D01*
X133877902Y-110324413D01*
X133837693Y-110227340D01*
X133779319Y-110139977D01*
X133720600Y-110081258D01*
X133720600Y-109727455D01*
X133722319Y-109709999D01*
X133720600Y-109692544D01*
X133720600Y-109692537D01*
X133715454Y-109640290D01*
X133711023Y-109625681D01*
X133699210Y-109586741D01*
X133695121Y-109573260D01*
X133693534Y-109570290D01*
X133685987Y-109556172D01*
X133662101Y-109511484D01*
X133656011Y-109504063D01*
X133628795Y-109470900D01*
X133628785Y-109470890D01*
X133617662Y-109457337D01*
X133604110Y-109446215D01*
X132742775Y-108584882D01*
X132757663Y-108572663D01*
X132768799Y-108559094D01*
X132940428Y-108387465D01*
X136931600Y-108387465D01*
X136931600Y-108492535D01*
X136952098Y-108595587D01*
X136992307Y-108692660D01*
X137050681Y-108780023D01*
X137124977Y-108854319D01*
X137212340Y-108912693D01*
X137309413Y-108952902D01*
X137412465Y-108973400D01*
X137517535Y-108973400D01*
X137620587Y-108952902D01*
X137717660Y-108912693D01*
X137748080Y-108892367D01*
X137754279Y-108899921D01*
X137796823Y-108934836D01*
X137845361Y-108960780D01*
X137898028Y-108976756D01*
X137952800Y-108982151D01*
X138452800Y-108982151D01*
X138507572Y-108976756D01*
X138560239Y-108960780D01*
X138608777Y-108934836D01*
X138651321Y-108899921D01*
X138686236Y-108857377D01*
X138712180Y-108808839D01*
X138728156Y-108756172D01*
X138733551Y-108701400D01*
X138733551Y-108201400D01*
X138728156Y-108146628D01*
X138712180Y-108093961D01*
X138686236Y-108045423D01*
X138651321Y-108002879D01*
X138608777Y-107967964D01*
X138560239Y-107942020D01*
X138507572Y-107926044D01*
X138452800Y-107920649D01*
X137952800Y-107920649D01*
X137898028Y-107926044D01*
X137845361Y-107942020D01*
X137796823Y-107967964D01*
X137761737Y-107996758D01*
X137717660Y-107967307D01*
X137620587Y-107927098D01*
X137517535Y-107906600D01*
X137412465Y-107906600D01*
X137309413Y-107927098D01*
X137212340Y-107967307D01*
X137124977Y-108025681D01*
X137050681Y-108099977D01*
X136992307Y-108187340D01*
X136952098Y-108284413D01*
X136931600Y-108387465D01*
X132940428Y-108387465D01*
X133794105Y-107533790D01*
X133807663Y-107522663D01*
X133818790Y-107509105D01*
X133818795Y-107509100D01*
X133848683Y-107472681D01*
X133852101Y-107468516D01*
X133885121Y-107406740D01*
X133905454Y-107339710D01*
X133910600Y-107287463D01*
X133910600Y-107287454D01*
X133912319Y-107270001D01*
X133910600Y-107252548D01*
X133910600Y-104781877D01*
X138808500Y-104781877D01*
X138808500Y-104868923D01*
X138825482Y-104954297D01*
X138858793Y-105034718D01*
X138907154Y-105107095D01*
X138968705Y-105168646D01*
X139041082Y-105217007D01*
X139121503Y-105250318D01*
X139206877Y-105267300D01*
X139293923Y-105267300D01*
X139379297Y-105250318D01*
X139459718Y-105217007D01*
X139532095Y-105168646D01*
X139593646Y-105107095D01*
X139642007Y-105034718D01*
X139675318Y-104954297D01*
X139692300Y-104868923D01*
X139692300Y-104781877D01*
X139675318Y-104696503D01*
X139642007Y-104616082D01*
X139593646Y-104543705D01*
X139532095Y-104482154D01*
X139459718Y-104433793D01*
X139379297Y-104400482D01*
X139293923Y-104383500D01*
X139206877Y-104383500D01*
X139121503Y-104400482D01*
X139041082Y-104433793D01*
X138968705Y-104482154D01*
X138907154Y-104543705D01*
X138858793Y-104616082D01*
X138825482Y-104696503D01*
X138808500Y-104781877D01*
X133910600Y-104781877D01*
X133910600Y-99188742D01*
X133969319Y-99130023D01*
X134027693Y-99042660D01*
X134067902Y-98945587D01*
X134088400Y-98842535D01*
X134088400Y-98737465D01*
X134067902Y-98634413D01*
X134027693Y-98537340D01*
X133969319Y-98449977D01*
X133895023Y-98375681D01*
X133807660Y-98317307D01*
X133710587Y-98277098D01*
X133607535Y-98256600D01*
X133502465Y-98256600D01*
X133399413Y-98277098D01*
X133302340Y-98317307D01*
X133214977Y-98375681D01*
X133140681Y-98449977D01*
X133082307Y-98537340D01*
X133042098Y-98634413D01*
X133021600Y-98737465D01*
X133021600Y-98842535D01*
X133042098Y-98945587D01*
X133082307Y-99042660D01*
X133140681Y-99130023D01*
X133199400Y-99188742D01*
X133199401Y-107122704D01*
X132800600Y-107521506D01*
X132800600Y-99188742D01*
X132859319Y-99130023D01*
X132917693Y-99042660D01*
X132957902Y-98945587D01*
X132978400Y-98842535D01*
X132978400Y-98737465D01*
X132957902Y-98634413D01*
X132917693Y-98537340D01*
X132859319Y-98449977D01*
X132785023Y-98375681D01*
X132697660Y-98317307D01*
X132600587Y-98277098D01*
X132497535Y-98256600D01*
X132392465Y-98256600D01*
X132289413Y-98277098D01*
X132192340Y-98317307D01*
X132104977Y-98375681D01*
X132030681Y-98449977D01*
X131972307Y-98537340D01*
X131932098Y-98634413D01*
X131911600Y-98737465D01*
X131911600Y-98842535D01*
X131932098Y-98945587D01*
X131972307Y-99042660D01*
X132030681Y-99130023D01*
X132089401Y-99188743D01*
X132089400Y-105817462D01*
X132089401Y-105817472D01*
X132089400Y-107452706D01*
X131997706Y-107544400D01*
X123052455Y-107544400D01*
X123035000Y-107542681D01*
X123017544Y-107544400D01*
X123017537Y-107544400D01*
X122971566Y-107548928D01*
X122965289Y-107549546D01*
X122936102Y-107558400D01*
X122898260Y-107569879D01*
X122836484Y-107602899D01*
X122782337Y-107647337D01*
X122771206Y-107660900D01*
X121985901Y-108446206D01*
X121972338Y-108457337D01*
X121961207Y-108470900D01*
X121961205Y-108470902D01*
X121951958Y-108482170D01*
X121927900Y-108511484D01*
X121919425Y-108527340D01*
X121894880Y-108573259D01*
X121874546Y-108640290D01*
X121867681Y-108710000D01*
X121869401Y-108727465D01*
X121869400Y-111442706D01*
X121807707Y-111504400D01*
X119573742Y-111504400D01*
X119515023Y-111445681D01*
X119427660Y-111387307D01*
X119330587Y-111347098D01*
X119227535Y-111326600D01*
X119122465Y-111326600D01*
X119019413Y-111347098D01*
X118922340Y-111387307D01*
X118834977Y-111445681D01*
X118760681Y-111519977D01*
X118702307Y-111607340D01*
X118662098Y-111704413D01*
X118641600Y-111807465D01*
X118641600Y-111912535D01*
X118647760Y-111943503D01*
X118579413Y-111957098D01*
X118482340Y-111997307D01*
X118394977Y-112055681D01*
X118320681Y-112129977D01*
X118262307Y-112217340D01*
X118222098Y-112314413D01*
X118201600Y-112417465D01*
X118201600Y-112522535D01*
X118222098Y-112625587D01*
X118262307Y-112722660D01*
X118320681Y-112810023D01*
X118394977Y-112884319D01*
X118482340Y-112942693D01*
X118579413Y-112982902D01*
X118682465Y-113003400D01*
X118787535Y-113003400D01*
X118890587Y-112982902D01*
X118987660Y-112942693D01*
X119075023Y-112884319D01*
X119133742Y-112825600D01*
X122287545Y-112825600D01*
X122305000Y-112827319D01*
X122322455Y-112825600D01*
X122322463Y-112825600D01*
X122374710Y-112820454D01*
X122441740Y-112800121D01*
X122503516Y-112767101D01*
X122557663Y-112722663D01*
X122568799Y-112709094D01*
X122939400Y-112338493D01*
X122939400Y-113802706D01*
X122647707Y-114094400D01*
X118982452Y-114094400D01*
X118964999Y-114092681D01*
X118947546Y-114094400D01*
X118947537Y-114094400D01*
X118895290Y-114099546D01*
X118828260Y-114119879D01*
X118766484Y-114152899D01*
X118766482Y-114152900D01*
X118766483Y-114152900D01*
X118725900Y-114186205D01*
X118725895Y-114186210D01*
X118712337Y-114197337D01*
X118701210Y-114210895D01*
X118406820Y-114505286D01*
X118393258Y-114516417D01*
X118382127Y-114529980D01*
X118382125Y-114529982D01*
X118373358Y-114540665D01*
X118348820Y-114570564D01*
X118332310Y-114601452D01*
X118315800Y-114632339D01*
X118295466Y-114699370D01*
X118288601Y-114769080D01*
X118290321Y-114786545D01*
X118290321Y-115281229D01*
X118286510Y-115281229D01*
X118231738Y-115286624D01*
X118179071Y-115302600D01*
X118130533Y-115328544D01*
X118087989Y-115363459D01*
X118053074Y-115406003D01*
X118027130Y-115454541D01*
X118011490Y-115506100D01*
X116223994Y-115506100D01*
X115660599Y-114942706D01*
X115660599Y-113727451D01*
X115662318Y-113709998D01*
X115660599Y-113692545D01*
X115660599Y-113692536D01*
X115655453Y-113640289D01*
X115645410Y-113607181D01*
X115645410Y-110282483D01*
X116614495Y-109313400D01*
X116697535Y-109313400D01*
X116800587Y-109292902D01*
X116897660Y-109252693D01*
X116985023Y-109194319D01*
X117059319Y-109120023D01*
X117117693Y-109032660D01*
X117157902Y-108935587D01*
X117178400Y-108832535D01*
X117178400Y-108727465D01*
X117157902Y-108624413D01*
X117117693Y-108527340D01*
X117059319Y-108439977D01*
X117000600Y-108381258D01*
X117000600Y-104977293D01*
X117642294Y-104335600D01*
X125557545Y-104335600D01*
X125575000Y-104337319D01*
X125592455Y-104335600D01*
X125592463Y-104335600D01*
X125644710Y-104330454D01*
X125711740Y-104310121D01*
X125773516Y-104277101D01*
X125827663Y-104232663D01*
X125838799Y-104219095D01*
X126654110Y-103403785D01*
X126667662Y-103392663D01*
X126678785Y-103379110D01*
X126678795Y-103379100D01*
X126712100Y-103338517D01*
X126712102Y-103338515D01*
X126745121Y-103276740D01*
X126765454Y-103209710D01*
X126770600Y-103157463D01*
X126770600Y-103157454D01*
X126772319Y-103140001D01*
X126770600Y-103122548D01*
X126770600Y-97808742D01*
X126829319Y-97750023D01*
X126887693Y-97662660D01*
X126927902Y-97565587D01*
X126948400Y-97462535D01*
X126948400Y-97357465D01*
X126927902Y-97254413D01*
X126887693Y-97157340D01*
X126829319Y-97069977D01*
X126755023Y-96995681D01*
X126667660Y-96937307D01*
X126570587Y-96897098D01*
X126467535Y-96876600D01*
X126362465Y-96876600D01*
X126259413Y-96897098D01*
X126162340Y-96937307D01*
X126074977Y-96995681D01*
X126000681Y-97069977D01*
X125942307Y-97157340D01*
X125902098Y-97254413D01*
X125881600Y-97357465D01*
X125881600Y-97462535D01*
X125902098Y-97565587D01*
X125942307Y-97662660D01*
X126000681Y-97750023D01*
X126059401Y-97808743D01*
X126059401Y-98008470D01*
X126057660Y-98007307D01*
X125960587Y-97967098D01*
X125857535Y-97946600D01*
X125752465Y-97946600D01*
X125649413Y-97967098D01*
X125552340Y-98007307D01*
X125464977Y-98065681D01*
X125390681Y-98139977D01*
X125332307Y-98227340D01*
X125292098Y-98324413D01*
X125271600Y-98427465D01*
X125271600Y-98509398D01*
X125257535Y-98506600D01*
X125152465Y-98506600D01*
X125049413Y-98527098D01*
X124952340Y-98567307D01*
X124864977Y-98625681D01*
X124790681Y-98699977D01*
X124732307Y-98787340D01*
X124692098Y-98884413D01*
X124671600Y-98987465D01*
X124671600Y-99092535D01*
X124692098Y-99195587D01*
X124732307Y-99292660D01*
X124790681Y-99380023D01*
X124839400Y-99428742D01*
X124839401Y-102502705D01*
X124627707Y-102714400D01*
X113852455Y-102714400D01*
X113834999Y-102712681D01*
X113817544Y-102714400D01*
X113817537Y-102714400D01*
X113772187Y-102718867D01*
X113765289Y-102719546D01*
X113736102Y-102728400D01*
X113698260Y-102739879D01*
X113636484Y-102772899D01*
X113636482Y-102772900D01*
X113636483Y-102772900D01*
X113595900Y-102806205D01*
X113595895Y-102806210D01*
X113582337Y-102817337D01*
X113571210Y-102830895D01*
X112185901Y-104216206D01*
X112172337Y-104227338D01*
X112127899Y-104281485D01*
X112094879Y-104343261D01*
X112074546Y-104410291D01*
X112069400Y-104462538D01*
X112069400Y-104462545D01*
X112067681Y-104480000D01*
X112069400Y-104497455D01*
X112069401Y-113411257D01*
X112010681Y-113469977D01*
X111952307Y-113557340D01*
X111912098Y-113654413D01*
X111891600Y-113757465D01*
X111891600Y-113862535D01*
X111912098Y-113965587D01*
X111927698Y-114003249D01*
X111646600Y-114003249D01*
X111591828Y-114008644D01*
X111539161Y-114024620D01*
X111490623Y-114050564D01*
X111448079Y-114085479D01*
X111413164Y-114128023D01*
X111387220Y-114176561D01*
X111371244Y-114229228D01*
X111365849Y-114284000D01*
X111365849Y-114628400D01*
X106327351Y-114628400D01*
X106327351Y-114284000D01*
X106321956Y-114229228D01*
X106305980Y-114176561D01*
X106280036Y-114128023D01*
X106245121Y-114085479D01*
X106202577Y-114050564D01*
X106154039Y-114024620D01*
X106101372Y-114008644D01*
X106046600Y-114003249D01*
X104446600Y-114003249D01*
X104391828Y-114008644D01*
X104339161Y-114024620D01*
X104290623Y-114050564D01*
X104248079Y-114085479D01*
X104213164Y-114128023D01*
X104187220Y-114176561D01*
X104171244Y-114229228D01*
X104165849Y-114284000D01*
X99020109Y-114284000D01*
X99020109Y-87734165D01*
X106623798Y-87734165D01*
X106623853Y-87734444D01*
X106623852Y-107277718D01*
X106623798Y-107277992D01*
X106623852Y-107309633D01*
X106623852Y-107326046D01*
X106623881Y-107326335D01*
X106623881Y-107326625D01*
X106625509Y-107342869D01*
X106628619Y-107374446D01*
X106628700Y-107374714D01*
X106637332Y-107460843D01*
X106637421Y-107477688D01*
X106643806Y-107508925D01*
X106650068Y-107540128D01*
X106656541Y-107555680D01*
X106685595Y-107649666D01*
X106688854Y-107665603D01*
X106700484Y-107693260D01*
X106713992Y-107725390D01*
X106723103Y-107738870D01*
X106768306Y-107822359D01*
X106774357Y-107836875D01*
X106783703Y-107850796D01*
X106783954Y-107851259D01*
X106792772Y-107864304D01*
X106801466Y-107877253D01*
X106801798Y-107877655D01*
X106811191Y-107891551D01*
X106822374Y-107902615D01*
X106881642Y-107974507D01*
X106890236Y-107987430D01*
X106902220Y-107999467D01*
X106902687Y-108000034D01*
X106913642Y-108010941D01*
X106924549Y-108021896D01*
X106925116Y-108022363D01*
X106937153Y-108034347D01*
X106950076Y-108042941D01*
X107021968Y-108102209D01*
X107033032Y-108113392D01*
X107046928Y-108122785D01*
X107047330Y-108123117D01*
X107060279Y-108131811D01*
X107073324Y-108140629D01*
X107073787Y-108140880D01*
X107087708Y-108150226D01*
X107102225Y-108156277D01*
X107185713Y-108201480D01*
X107199193Y-108210591D01*
X107227539Y-108222508D01*
X107258979Y-108235729D01*
X107274919Y-108238989D01*
X107368902Y-108268042D01*
X107384454Y-108274515D01*
X107415622Y-108280770D01*
X107446894Y-108287162D01*
X107463740Y-108287251D01*
X107549868Y-108295883D01*
X107550136Y-108295964D01*
X107581666Y-108299069D01*
X107597956Y-108300702D01*
X107598247Y-108300702D01*
X107598536Y-108300731D01*
X107614949Y-108300731D01*
X107646590Y-108300785D01*
X107646864Y-108300731D01*
X110811300Y-108300731D01*
X110811574Y-108300785D01*
X110843215Y-108300731D01*
X110859629Y-108300731D01*
X110859918Y-108300702D01*
X110860207Y-108300702D01*
X110876394Y-108299080D01*
X110908029Y-108295964D01*
X110908298Y-108295882D01*
X110994425Y-108287251D01*
X111011270Y-108287162D01*
X111042507Y-108280777D01*
X111073710Y-108274515D01*
X111089262Y-108268042D01*
X111183248Y-108238988D01*
X111199185Y-108235729D01*
X111229463Y-108222997D01*
X111258972Y-108210591D01*
X111272452Y-108201480D01*
X111355941Y-108156277D01*
X111370457Y-108150226D01*
X111384378Y-108140880D01*
X111384841Y-108140629D01*
X111397886Y-108131811D01*
X111410835Y-108123117D01*
X111411237Y-108122785D01*
X111425133Y-108113392D01*
X111436197Y-108102209D01*
X111508089Y-108042941D01*
X111521012Y-108034347D01*
X111533049Y-108022363D01*
X111533616Y-108021896D01*
X111544523Y-108010941D01*
X111555478Y-108000034D01*
X111555945Y-107999467D01*
X111567929Y-107987430D01*
X111576523Y-107974507D01*
X111635791Y-107902615D01*
X111646974Y-107891551D01*
X111656367Y-107877655D01*
X111656699Y-107877253D01*
X111665393Y-107864304D01*
X111674211Y-107851259D01*
X111674462Y-107850796D01*
X111683808Y-107836875D01*
X111689859Y-107822358D01*
X111735062Y-107738870D01*
X111744173Y-107725390D01*
X111757681Y-107693260D01*
X111769311Y-107665604D01*
X111772571Y-107649664D01*
X111801624Y-107555681D01*
X111808097Y-107540129D01*
X111814352Y-107508961D01*
X111820744Y-107477689D01*
X111820833Y-107460843D01*
X111829465Y-107374715D01*
X111829546Y-107374447D01*
X111832651Y-107342917D01*
X111834284Y-107326627D01*
X111834284Y-107326336D01*
X111834313Y-107326047D01*
X111834313Y-107309634D01*
X111834367Y-107277993D01*
X111834313Y-107277719D01*
X111834313Y-95183572D01*
X121836838Y-95183572D01*
X121836838Y-95288642D01*
X121857336Y-95391694D01*
X121897545Y-95488767D01*
X121955919Y-95576130D01*
X122030215Y-95650426D01*
X122117578Y-95708800D01*
X122214651Y-95749009D01*
X122317703Y-95769507D01*
X122422773Y-95769507D01*
X122525825Y-95749009D01*
X122622898Y-95708800D01*
X122710261Y-95650426D01*
X122768187Y-95592500D01*
X127000007Y-95592500D01*
X127963006Y-96555500D01*
X127974137Y-96569063D01*
X128028284Y-96613501D01*
X128090060Y-96646521D01*
X128157090Y-96666854D01*
X128209337Y-96672000D01*
X128209345Y-96672000D01*
X128226800Y-96673719D01*
X128244255Y-96672000D01*
X130571258Y-96672000D01*
X130629977Y-96730719D01*
X130717340Y-96789093D01*
X130814413Y-96829302D01*
X130917465Y-96849800D01*
X131022535Y-96849800D01*
X131125587Y-96829302D01*
X131222660Y-96789093D01*
X131310023Y-96730719D01*
X131384319Y-96656423D01*
X131442693Y-96569060D01*
X131482902Y-96471987D01*
X131503400Y-96368935D01*
X131503400Y-96263865D01*
X131482902Y-96160813D01*
X131442693Y-96063740D01*
X131384319Y-95976377D01*
X131310023Y-95902081D01*
X131222660Y-95843707D01*
X131125587Y-95803498D01*
X131022535Y-95783000D01*
X130917465Y-95783000D01*
X130814413Y-95803498D01*
X130717340Y-95843707D01*
X130629977Y-95902081D01*
X130571258Y-95960800D01*
X128374094Y-95960800D01*
X127411099Y-94997806D01*
X127399963Y-94984237D01*
X127345816Y-94939799D01*
X127284040Y-94906779D01*
X127217010Y-94886446D01*
X127164763Y-94881300D01*
X127164755Y-94881300D01*
X127147300Y-94879581D01*
X127129845Y-94881300D01*
X126158783Y-94881300D01*
X126197987Y-94873502D01*
X126295060Y-94833293D01*
X126382423Y-94774919D01*
X126456719Y-94700623D01*
X126515093Y-94613260D01*
X126555302Y-94516187D01*
X126575800Y-94413135D01*
X126575800Y-94308065D01*
X126555302Y-94205013D01*
X126515093Y-94107940D01*
X126456719Y-94020577D01*
X126382423Y-93946281D01*
X126295060Y-93887907D01*
X126197987Y-93847698D01*
X126094935Y-93827200D01*
X125989865Y-93827200D01*
X125886813Y-93847698D01*
X125789740Y-93887907D01*
X125702377Y-93946281D01*
X125643658Y-94005000D01*
X125478493Y-94005000D01*
X127840694Y-91642800D01*
X129326658Y-91642800D01*
X129385377Y-91701519D01*
X129472740Y-91759893D01*
X129569813Y-91800102D01*
X129672865Y-91820600D01*
X129777935Y-91820600D01*
X129880987Y-91800102D01*
X129978060Y-91759893D01*
X130065423Y-91701519D01*
X130139719Y-91627223D01*
X130198093Y-91539860D01*
X130238302Y-91442787D01*
X130258800Y-91339735D01*
X130258800Y-91312600D01*
X130311335Y-91312600D01*
X130414387Y-91292102D01*
X130511460Y-91251893D01*
X130598823Y-91193519D01*
X130673119Y-91119223D01*
X130731493Y-91031860D01*
X130771702Y-90934787D01*
X130792200Y-90831735D01*
X130792200Y-90726665D01*
X130771702Y-90623613D01*
X130731493Y-90526540D01*
X130673119Y-90439177D01*
X130598823Y-90364881D01*
X130511460Y-90306507D01*
X130414387Y-90266298D01*
X130311335Y-90245800D01*
X130206265Y-90245800D01*
X130103213Y-90266298D01*
X130006140Y-90306507D01*
X129918777Y-90364881D01*
X129860058Y-90423600D01*
X129623859Y-90423600D01*
X129654102Y-90350587D01*
X129674600Y-90247535D01*
X129674600Y-90142465D01*
X129654102Y-90039413D01*
X129613893Y-89942340D01*
X129555519Y-89854977D01*
X129481223Y-89780681D01*
X129393860Y-89722307D01*
X129296787Y-89682098D01*
X129193735Y-89661600D01*
X129151788Y-89661600D01*
X129166600Y-89587135D01*
X129166600Y-89482065D01*
X129146102Y-89379013D01*
X129105893Y-89281940D01*
X129047519Y-89194577D01*
X128973223Y-89120281D01*
X128885860Y-89061907D01*
X128788787Y-89021698D01*
X128685735Y-89001200D01*
X128580665Y-89001200D01*
X128477613Y-89021698D01*
X128380540Y-89061907D01*
X128293177Y-89120281D01*
X128234458Y-89179000D01*
X127627854Y-89179000D01*
X127610399Y-89177281D01*
X127592944Y-89179000D01*
X127592937Y-89179000D01*
X127547587Y-89183467D01*
X127540689Y-89184146D01*
X127531601Y-89186903D01*
X127473660Y-89204479D01*
X127411884Y-89237499D01*
X127411882Y-89237500D01*
X127411883Y-89237500D01*
X127371300Y-89270805D01*
X127371295Y-89270810D01*
X127357737Y-89281937D01*
X127346610Y-89295495D01*
X124260167Y-92381940D01*
X123215342Y-92381940D01*
X123156623Y-92323221D01*
X123069260Y-92264847D01*
X122972187Y-92224638D01*
X122869135Y-92204140D01*
X122764065Y-92204140D01*
X122661013Y-92224638D01*
X122563940Y-92264847D01*
X122476577Y-92323221D01*
X122402281Y-92397517D01*
X122343907Y-92484880D01*
X122303698Y-92581953D01*
X122283200Y-92685005D01*
X122283200Y-92714041D01*
X122229647Y-92724693D01*
X122132574Y-92764902D01*
X122045211Y-92823276D01*
X121970915Y-92897572D01*
X121912541Y-92984935D01*
X121872332Y-93082008D01*
X121851834Y-93185060D01*
X121851834Y-93290130D01*
X121872332Y-93393182D01*
X121912541Y-93490255D01*
X121970915Y-93577618D01*
X122045211Y-93651914D01*
X122132574Y-93710288D01*
X122194512Y-93735943D01*
X122121980Y-93765987D01*
X122034617Y-93824361D01*
X121960321Y-93898657D01*
X121901947Y-93986020D01*
X121861738Y-94083093D01*
X121841240Y-94186145D01*
X121841240Y-94291215D01*
X121861738Y-94394267D01*
X121901947Y-94491340D01*
X121960321Y-94578703D01*
X122034617Y-94652999D01*
X122121980Y-94711373D01*
X122182598Y-94736482D01*
X122117578Y-94763414D01*
X122030215Y-94821788D01*
X121955919Y-94896084D01*
X121897545Y-94983447D01*
X121857336Y-95080520D01*
X121836838Y-95183572D01*
X111834313Y-95183572D01*
X111834313Y-87734438D01*
X111834367Y-87734164D01*
X111834313Y-87702523D01*
X111834313Y-87686110D01*
X111834284Y-87685821D01*
X111834284Y-87685530D01*
X111832652Y-87669246D01*
X111829546Y-87637710D01*
X111829465Y-87637442D01*
X111820833Y-87551314D01*
X111820744Y-87534470D01*
X111814344Y-87503159D01*
X111808096Y-87472029D01*
X111801625Y-87456482D01*
X111772572Y-87362496D01*
X111769311Y-87346553D01*
X111754583Y-87311530D01*
X111744173Y-87286768D01*
X111735065Y-87273292D01*
X111689859Y-87189799D01*
X111683808Y-87175282D01*
X111674462Y-87161361D01*
X111674211Y-87160898D01*
X111665393Y-87147853D01*
X111656699Y-87134904D01*
X111656367Y-87134502D01*
X111646974Y-87120606D01*
X111635791Y-87109542D01*
X111576520Y-87037648D01*
X111567927Y-87024725D01*
X111555947Y-87012692D01*
X111555478Y-87012123D01*
X111544445Y-87001139D01*
X111533614Y-86990260D01*
X111533053Y-86989797D01*
X111521012Y-86977810D01*
X111508083Y-86969213D01*
X111436199Y-86909952D01*
X111425134Y-86898767D01*
X111411235Y-86889371D01*
X111410833Y-86889040D01*
X111397844Y-86880319D01*
X111384842Y-86871530D01*
X111384382Y-86871281D01*
X111370456Y-86861931D01*
X111355936Y-86855879D01*
X111272451Y-86810675D01*
X111258972Y-86801566D01*
X111233183Y-86790724D01*
X111199187Y-86776428D01*
X111183244Y-86773167D01*
X111089262Y-86744115D01*
X111073710Y-86737642D01*
X111042507Y-86731380D01*
X111011270Y-86724995D01*
X110994425Y-86724906D01*
X110908298Y-86716275D01*
X110908029Y-86716193D01*
X110876394Y-86713077D01*
X110860207Y-86711455D01*
X110859918Y-86711455D01*
X110859629Y-86711426D01*
X110843215Y-86711426D01*
X110811574Y-86711372D01*
X110811300Y-86711426D01*
X107646864Y-86711426D01*
X107646590Y-86711372D01*
X107614949Y-86711426D01*
X107598536Y-86711426D01*
X107598247Y-86711455D01*
X107597956Y-86711455D01*
X107581666Y-86713088D01*
X107550136Y-86716193D01*
X107549868Y-86716274D01*
X107463740Y-86724906D01*
X107446894Y-86724995D01*
X107415622Y-86731387D01*
X107384454Y-86737642D01*
X107368902Y-86744115D01*
X107274918Y-86773168D01*
X107258976Y-86776429D01*
X107230687Y-86788326D01*
X107199193Y-86801566D01*
X107185708Y-86810680D01*
X107102231Y-86855878D01*
X107087709Y-86861931D01*
X107073781Y-86871282D01*
X107073323Y-86871530D01*
X107060420Y-86880252D01*
X107047331Y-86889040D01*
X107046924Y-86889375D01*
X107033031Y-86898767D01*
X107021969Y-86909948D01*
X106950081Y-86969213D01*
X106937153Y-86977810D01*
X106925112Y-86989797D01*
X106924551Y-86990260D01*
X106913756Y-87001103D01*
X106902687Y-87012123D01*
X106902215Y-87012696D01*
X106890238Y-87024726D01*
X106881648Y-87037643D01*
X106822374Y-87109542D01*
X106811191Y-87120606D01*
X106801798Y-87134502D01*
X106801466Y-87134904D01*
X106792772Y-87147853D01*
X106783954Y-87160898D01*
X106783703Y-87161361D01*
X106774357Y-87175282D01*
X106768306Y-87189798D01*
X106723100Y-87273292D01*
X106713992Y-87286768D01*
X106701687Y-87316037D01*
X106688854Y-87346554D01*
X106685595Y-87362487D01*
X106656539Y-87456484D01*
X106650069Y-87472030D01*
X106643814Y-87503195D01*
X106637421Y-87534471D01*
X106637332Y-87551314D01*
X106628700Y-87637446D01*
X106628620Y-87637710D01*
X106625566Y-87668719D01*
X106623881Y-87685531D01*
X106623880Y-87685831D01*
X106623853Y-87686110D01*
X106623853Y-87701938D01*
X106623798Y-87734165D01*
X99020109Y-87734165D01*
X99020109Y-79085739D01*
X99034666Y-78795648D01*
X99040756Y-78755526D01*
X99610966Y-78755526D01*
X99611366Y-78763943D01*
X99611369Y-78772364D01*
X99612134Y-78780108D01*
X99613275Y-78804104D01*
X99615318Y-78812316D01*
X99640434Y-79066420D01*
X99640441Y-79082686D01*
X99645915Y-79110145D01*
X99653119Y-79146299D01*
X99659350Y-79161328D01*
X99734987Y-79410296D01*
X99738120Y-79426089D01*
X99744393Y-79441255D01*
X99744437Y-79441401D01*
X99750480Y-79455974D01*
X99756708Y-79471031D01*
X99756782Y-79471170D01*
X99763067Y-79486325D01*
X99772015Y-79499705D01*
X99894557Y-79729256D01*
X99900775Y-79744286D01*
X99917316Y-79769066D01*
X99936785Y-79798237D01*
X99948283Y-79809747D01*
X100115215Y-80013346D01*
X100124336Y-80026983D01*
X100147181Y-80049806D01*
X100170004Y-80072651D01*
X100183642Y-80081773D01*
X100387250Y-80248715D01*
X100398751Y-80260204D01*
X100412251Y-80269214D01*
X100452700Y-80296214D01*
X100467739Y-80302435D01*
X100697287Y-80424976D01*
X100710663Y-80433922D01*
X100725813Y-80440205D01*
X100725956Y-80440281D01*
X100741390Y-80446664D01*
X100755587Y-80452552D01*
X100755729Y-80452595D01*
X100770898Y-80458869D01*
X100786694Y-80462002D01*
X101035663Y-80537640D01*
X101050689Y-80543870D01*
X101083941Y-80550496D01*
X101114301Y-80556548D01*
X101130568Y-80556555D01*
X101392543Y-80582449D01*
X101408599Y-80585637D01*
X101440928Y-80585626D01*
X101473257Y-80585637D01*
X101489314Y-80582449D01*
X101751288Y-80556555D01*
X101767554Y-80556548D01*
X101795538Y-80550970D01*
X101831167Y-80543870D01*
X101846196Y-80537639D01*
X102095164Y-80462002D01*
X102110957Y-80458869D01*
X102126123Y-80452596D01*
X102126269Y-80452552D01*
X102140842Y-80446509D01*
X102155899Y-80440281D01*
X102156038Y-80440207D01*
X102171193Y-80433922D01*
X102184573Y-80424974D01*
X102414123Y-80302432D01*
X102429154Y-80296214D01*
X102458444Y-80276663D01*
X102483105Y-80260204D01*
X102494612Y-80248710D01*
X102698214Y-80081773D01*
X102711852Y-80072651D01*
X102734675Y-80049807D01*
X102757520Y-80026983D01*
X102766642Y-80013344D01*
X102909097Y-79839600D01*
X103968849Y-79839600D01*
X103968849Y-80839600D01*
X103974244Y-80894372D01*
X103990220Y-80947039D01*
X104016164Y-80995577D01*
X104051079Y-81038121D01*
X104093623Y-81073036D01*
X104142161Y-81098980D01*
X104194828Y-81114956D01*
X104249600Y-81120351D01*
X105749600Y-81120351D01*
X105804372Y-81114956D01*
X105857039Y-81098980D01*
X105905577Y-81073036D01*
X105948121Y-81038121D01*
X105983036Y-80995577D01*
X106008980Y-80947039D01*
X106024956Y-80894372D01*
X106030351Y-80839600D01*
X106030351Y-80787465D01*
X106031600Y-80787465D01*
X106031600Y-80892535D01*
X106052098Y-80995587D01*
X106092307Y-81092660D01*
X106150681Y-81180023D01*
X106209400Y-81238742D01*
X106209401Y-83392535D01*
X106207681Y-83410000D01*
X106214546Y-83479710D01*
X106234880Y-83546741D01*
X106235266Y-83547463D01*
X106267900Y-83608516D01*
X106312338Y-83662663D01*
X106325901Y-83673794D01*
X106821210Y-84169105D01*
X106832337Y-84182663D01*
X106845895Y-84193790D01*
X106845900Y-84193795D01*
X106874587Y-84217337D01*
X106886484Y-84227101D01*
X106948260Y-84260121D01*
X106985719Y-84271484D01*
X107015289Y-84280454D01*
X107022187Y-84281133D01*
X107067537Y-84285600D01*
X107067544Y-84285600D01*
X107084999Y-84287319D01*
X107102455Y-84285600D01*
X129807707Y-84285600D01*
X130049400Y-84527295D01*
X130049401Y-88332535D01*
X130047681Y-88350000D01*
X130054546Y-88419710D01*
X130074880Y-88486741D01*
X130085891Y-88507340D01*
X130107900Y-88548516D01*
X130152338Y-88602663D01*
X130165901Y-88613794D01*
X130281600Y-88729493D01*
X130281600Y-88812535D01*
X130302098Y-88915587D01*
X130342307Y-89012660D01*
X130400681Y-89100023D01*
X130474977Y-89174319D01*
X130562340Y-89232693D01*
X130659413Y-89272902D01*
X130762465Y-89293400D01*
X130867535Y-89293400D01*
X130970587Y-89272902D01*
X130999401Y-89260967D01*
X130999400Y-94531258D01*
X130940681Y-94589977D01*
X130882307Y-94677340D01*
X130842098Y-94774413D01*
X130821600Y-94877465D01*
X130821600Y-94982535D01*
X130842098Y-95085587D01*
X130882307Y-95182660D01*
X130940681Y-95270023D01*
X131014977Y-95344319D01*
X131102340Y-95402693D01*
X131199413Y-95442902D01*
X131302465Y-95463400D01*
X131407535Y-95463400D01*
X131510587Y-95442902D01*
X131607660Y-95402693D01*
X131695023Y-95344319D01*
X131769319Y-95270023D01*
X131827693Y-95182660D01*
X131867902Y-95085587D01*
X131888400Y-94982535D01*
X131888400Y-94877465D01*
X131886411Y-94867465D01*
X131911600Y-94867465D01*
X131911600Y-94972535D01*
X131932098Y-95075587D01*
X131972307Y-95172660D01*
X132030681Y-95260023D01*
X132104977Y-95334319D01*
X132192340Y-95392693D01*
X132289413Y-95432902D01*
X132392465Y-95453400D01*
X132497535Y-95453400D01*
X132600587Y-95432902D01*
X132697660Y-95392693D01*
X132785023Y-95334319D01*
X132859319Y-95260023D01*
X132917693Y-95172660D01*
X132957902Y-95075587D01*
X132978400Y-94972535D01*
X132978400Y-94867465D01*
X133021600Y-94867465D01*
X133021600Y-94972535D01*
X133042098Y-95075587D01*
X133082307Y-95172660D01*
X133140681Y-95260023D01*
X133214977Y-95334319D01*
X133302340Y-95392693D01*
X133399413Y-95432902D01*
X133502465Y-95453400D01*
X133607535Y-95453400D01*
X133710587Y-95432902D01*
X133807660Y-95392693D01*
X133895023Y-95334319D01*
X133969319Y-95260023D01*
X134027693Y-95172660D01*
X134067902Y-95075587D01*
X134088400Y-94972535D01*
X134088400Y-94867465D01*
X134067902Y-94764413D01*
X134027693Y-94667340D01*
X133969319Y-94579977D01*
X133910600Y-94521258D01*
X133910600Y-90168541D01*
X133969413Y-90192902D01*
X134072465Y-90213400D01*
X134177535Y-90213400D01*
X134280587Y-90192902D01*
X134377660Y-90152693D01*
X134465023Y-90094319D01*
X134539319Y-90020023D01*
X134597693Y-89932660D01*
X134637902Y-89835587D01*
X134658400Y-89732535D01*
X134658400Y-89649493D01*
X139574100Y-84733794D01*
X139587663Y-84722663D01*
X139632101Y-84668516D01*
X139665121Y-84606740D01*
X139685454Y-84539710D01*
X139690600Y-84487463D01*
X139690600Y-84487456D01*
X139692319Y-84470000D01*
X139690600Y-84452545D01*
X139690600Y-82998742D01*
X139749319Y-82940023D01*
X139807693Y-82852660D01*
X139847902Y-82755587D01*
X139868400Y-82652535D01*
X139868400Y-82547465D01*
X139847902Y-82444413D01*
X139807693Y-82347340D01*
X139749319Y-82259977D01*
X139675023Y-82185681D01*
X139587660Y-82127307D01*
X139490587Y-82087098D01*
X139387535Y-82066600D01*
X139282465Y-82066600D01*
X139179413Y-82087098D01*
X139082340Y-82127307D01*
X138994977Y-82185681D01*
X138920681Y-82259977D01*
X138862307Y-82347340D01*
X138822098Y-82444413D01*
X138801600Y-82547465D01*
X138801600Y-82652535D01*
X138822098Y-82755587D01*
X138862307Y-82852660D01*
X138920681Y-82940023D01*
X138979400Y-82998742D01*
X138979401Y-84322705D01*
X134155507Y-89146600D01*
X134072465Y-89146600D01*
X133969413Y-89167098D01*
X133910600Y-89191459D01*
X133910600Y-85387293D01*
X135054110Y-84243785D01*
X135067662Y-84232663D01*
X135078785Y-84219110D01*
X135078795Y-84219100D01*
X135112100Y-84178517D01*
X135112102Y-84178515D01*
X135145121Y-84116740D01*
X135165454Y-84049710D01*
X135170600Y-83997463D01*
X135170600Y-83997456D01*
X135172319Y-83980001D01*
X135170600Y-83962545D01*
X135170600Y-82608742D01*
X135229319Y-82550023D01*
X135287693Y-82462660D01*
X135327902Y-82365587D01*
X135348400Y-82262535D01*
X135348400Y-82157465D01*
X135327902Y-82054413D01*
X135287693Y-81957340D01*
X135229319Y-81869977D01*
X135155023Y-81795681D01*
X135067660Y-81737307D01*
X134970587Y-81697098D01*
X134867535Y-81676600D01*
X134762465Y-81676600D01*
X134659413Y-81697098D01*
X134562340Y-81737307D01*
X134474977Y-81795681D01*
X134400681Y-81869977D01*
X134342307Y-81957340D01*
X134302098Y-82054413D01*
X134281600Y-82157465D01*
X134281600Y-82262535D01*
X134302098Y-82365587D01*
X134342307Y-82462660D01*
X134400681Y-82550023D01*
X134459401Y-82608743D01*
X134459400Y-83832705D01*
X133315901Y-84976206D01*
X133302338Y-84987337D01*
X133257900Y-85041484D01*
X133241390Y-85072372D01*
X133224880Y-85103259D01*
X133204546Y-85170290D01*
X133197681Y-85240000D01*
X133199401Y-85257466D01*
X133199400Y-94521258D01*
X133140681Y-94579977D01*
X133082307Y-94667340D01*
X133042098Y-94764413D01*
X133021600Y-94867465D01*
X132978400Y-94867465D01*
X132957902Y-94764413D01*
X132917693Y-94667340D01*
X132859319Y-94579977D01*
X132800600Y-94521258D01*
X132800600Y-84977293D01*
X133784104Y-83993790D01*
X133797662Y-83982663D01*
X133808790Y-83969104D01*
X133808795Y-83969099D01*
X133824438Y-83950038D01*
X133842101Y-83928516D01*
X133875121Y-83866740D01*
X133895454Y-83799710D01*
X133900600Y-83747463D01*
X133900600Y-83747456D01*
X133902319Y-83730000D01*
X133900600Y-83712545D01*
X133900600Y-82608742D01*
X133959319Y-82550023D01*
X134017693Y-82462660D01*
X134057902Y-82365587D01*
X134078400Y-82262535D01*
X134078400Y-82157465D01*
X134057902Y-82054413D01*
X134017693Y-81957340D01*
X133959319Y-81869977D01*
X133885023Y-81795681D01*
X133797660Y-81737307D01*
X133700587Y-81697098D01*
X133597535Y-81676600D01*
X133492465Y-81676600D01*
X133389413Y-81697098D01*
X133292340Y-81737307D01*
X133204977Y-81795681D01*
X133130681Y-81869977D01*
X133072307Y-81957340D01*
X133032098Y-82054413D01*
X133011600Y-82157465D01*
X133011600Y-82262535D01*
X133032098Y-82365587D01*
X133072307Y-82462660D01*
X133130681Y-82550023D01*
X133189401Y-82608743D01*
X133189400Y-83582706D01*
X132205901Y-84566206D01*
X132192338Y-84577337D01*
X132147900Y-84631484D01*
X132147270Y-84632663D01*
X132114880Y-84693259D01*
X132094546Y-84760290D01*
X132087681Y-84830000D01*
X132089401Y-84847466D01*
X132089400Y-94521258D01*
X132030681Y-94579977D01*
X131972307Y-94667340D01*
X131932098Y-94764413D01*
X131911600Y-94867465D01*
X131886411Y-94867465D01*
X131867902Y-94774413D01*
X131827693Y-94677340D01*
X131769319Y-94589977D01*
X131710600Y-94531258D01*
X131710600Y-84597293D01*
X132514110Y-83793785D01*
X132527662Y-83782663D01*
X132538785Y-83769110D01*
X132538795Y-83769100D01*
X132572100Y-83728517D01*
X132572102Y-83728515D01*
X132605121Y-83666740D01*
X132625454Y-83599710D01*
X132630600Y-83547463D01*
X132630600Y-83547454D01*
X132632319Y-83530001D01*
X132630600Y-83512548D01*
X132630600Y-82598742D01*
X132689319Y-82540023D01*
X132747693Y-82452660D01*
X132787902Y-82355587D01*
X132808400Y-82252535D01*
X132808400Y-82147465D01*
X132787902Y-82044413D01*
X132747693Y-81947340D01*
X132689319Y-81859977D01*
X132615023Y-81785681D01*
X132527660Y-81727307D01*
X132430587Y-81687098D01*
X132327535Y-81666600D01*
X132222465Y-81666600D01*
X132119413Y-81687098D01*
X132022340Y-81727307D01*
X131934977Y-81785681D01*
X131860681Y-81859977D01*
X131802307Y-81947340D01*
X131762098Y-82044413D01*
X131741600Y-82147465D01*
X131741600Y-82252535D01*
X131762098Y-82355587D01*
X131802307Y-82452660D01*
X131860681Y-82540023D01*
X131919401Y-82598743D01*
X131919400Y-83382705D01*
X131115901Y-84186206D01*
X131102338Y-84197337D01*
X131057900Y-84251484D01*
X131042415Y-84280454D01*
X131024880Y-84313259D01*
X131004546Y-84380290D01*
X130997681Y-84450000D01*
X130999401Y-84467466D01*
X130999401Y-88259033D01*
X130970587Y-88247098D01*
X130867535Y-88226600D01*
X130784493Y-88226600D01*
X130760600Y-88202707D01*
X130760600Y-84397455D01*
X130762319Y-84379999D01*
X130760600Y-84362544D01*
X130760600Y-84362537D01*
X130755454Y-84310290D01*
X130747965Y-84285600D01*
X130745386Y-84277101D01*
X130735121Y-84243260D01*
X130702101Y-84181484D01*
X130691936Y-84169098D01*
X130668795Y-84140900D01*
X130668785Y-84140890D01*
X130657662Y-84127337D01*
X130644109Y-84116214D01*
X130218798Y-83690905D01*
X130207663Y-83677337D01*
X130153516Y-83632899D01*
X130091740Y-83599879D01*
X130024710Y-83579546D01*
X129972463Y-83574400D01*
X129972455Y-83574400D01*
X129955000Y-83572681D01*
X129937545Y-83574400D01*
X116345037Y-83574400D01*
X116405023Y-83534319D01*
X116479319Y-83460023D01*
X116537693Y-83372660D01*
X116577902Y-83275587D01*
X116598400Y-83172535D01*
X116598400Y-83067465D01*
X116577902Y-82964413D01*
X116537693Y-82867340D01*
X116479319Y-82779977D01*
X116405023Y-82705681D01*
X116317660Y-82647307D01*
X116220587Y-82607098D01*
X116117535Y-82586600D01*
X116012465Y-82586600D01*
X115909413Y-82607098D01*
X115812340Y-82647307D01*
X115724977Y-82705681D01*
X115717058Y-82713600D01*
X112113337Y-82713600D01*
X111991400Y-82591664D01*
X111991400Y-81251633D01*
X121740472Y-81251633D01*
X121802965Y-81487950D01*
X122045678Y-81601350D01*
X122305849Y-81665219D01*
X122573482Y-81677104D01*
X122838291Y-81636548D01*
X123090100Y-81545109D01*
X123197035Y-81487950D01*
X123259528Y-81251633D01*
X126740472Y-81251633D01*
X126802965Y-81487950D01*
X127045678Y-81601350D01*
X127305849Y-81665219D01*
X127573482Y-81677104D01*
X127838291Y-81636548D01*
X128090100Y-81545109D01*
X128197035Y-81487950D01*
X128259528Y-81251633D01*
X127500000Y-80492105D01*
X126740472Y-81251633D01*
X123259528Y-81251633D01*
X122500000Y-80492105D01*
X121740472Y-81251633D01*
X111991400Y-81251633D01*
X111991400Y-80039953D01*
X111993365Y-80020000D01*
X111991400Y-80000047D01*
X111991400Y-80000040D01*
X111985519Y-79940332D01*
X111962281Y-79863725D01*
X111924544Y-79793124D01*
X111897165Y-79759763D01*
X111886482Y-79746745D01*
X111886477Y-79746740D01*
X111873758Y-79731242D01*
X111858261Y-79718524D01*
X111118400Y-78978664D01*
X111118400Y-78967465D01*
X111097902Y-78864413D01*
X111057693Y-78767340D01*
X110999319Y-78679977D01*
X110925023Y-78605681D01*
X110837660Y-78547307D01*
X110740587Y-78507098D01*
X110637535Y-78486600D01*
X110532465Y-78486600D01*
X110429413Y-78507098D01*
X110332340Y-78547307D01*
X110244977Y-78605681D01*
X110170681Y-78679977D01*
X110112307Y-78767340D01*
X110072098Y-78864413D01*
X110051600Y-78967465D01*
X110051600Y-79072535D01*
X110072098Y-79175587D01*
X110112307Y-79272660D01*
X110170681Y-79360023D01*
X110244977Y-79434319D01*
X110332340Y-79492693D01*
X110429413Y-79532902D01*
X110532465Y-79553400D01*
X110543664Y-79553400D01*
X111178600Y-80188337D01*
X111178601Y-82740037D01*
X111176635Y-82760000D01*
X111184481Y-82839668D01*
X111207719Y-82916274D01*
X111225286Y-82949138D01*
X111245457Y-82986876D01*
X111262549Y-83007702D01*
X111283518Y-83033254D01*
X111283524Y-83033260D01*
X111296243Y-83048758D01*
X111311741Y-83061477D01*
X111643522Y-83393259D01*
X111656242Y-83408758D01*
X111671740Y-83421477D01*
X111671745Y-83421482D01*
X111692746Y-83438717D01*
X111718124Y-83459544D01*
X111788725Y-83497281D01*
X111865331Y-83520519D01*
X111872604Y-83521235D01*
X111925040Y-83526400D01*
X111925047Y-83526400D01*
X111945000Y-83528365D01*
X111964953Y-83526400D01*
X115717058Y-83526400D01*
X115724977Y-83534319D01*
X115784963Y-83574400D01*
X107232295Y-83574400D01*
X106920600Y-83262707D01*
X106920600Y-81238742D01*
X106979319Y-81180023D01*
X107037693Y-81092660D01*
X107077902Y-80995587D01*
X107098400Y-80892535D01*
X107098400Y-80787465D01*
X107077902Y-80684413D01*
X107037693Y-80587340D01*
X106979319Y-80499977D01*
X106905023Y-80425681D01*
X106817660Y-80367307D01*
X106720587Y-80327098D01*
X106617535Y-80306600D01*
X106512465Y-80306600D01*
X106409413Y-80327098D01*
X106312340Y-80367307D01*
X106224977Y-80425681D01*
X106150681Y-80499977D01*
X106092307Y-80587340D01*
X106052098Y-80684413D01*
X106031600Y-80787465D01*
X106030351Y-80787465D01*
X106030351Y-79839600D01*
X106024956Y-79784828D01*
X106008980Y-79732161D01*
X105983036Y-79683623D01*
X105948121Y-79641079D01*
X105905577Y-79606164D01*
X105857039Y-79580220D01*
X105804372Y-79564244D01*
X105749600Y-79558849D01*
X104249600Y-79558849D01*
X104194828Y-79564244D01*
X104142161Y-79580220D01*
X104093623Y-79606164D01*
X104051079Y-79641079D01*
X104016164Y-79683623D01*
X103990220Y-79732161D01*
X103974244Y-79784828D01*
X103968849Y-79839600D01*
X102909097Y-79839600D01*
X102933578Y-79809742D01*
X102945071Y-79798237D01*
X102960383Y-79775295D01*
X102981081Y-79744287D01*
X102987300Y-79729253D01*
X103109843Y-79499701D01*
X103118789Y-79486325D01*
X103125072Y-79471175D01*
X103125148Y-79471032D01*
X103131531Y-79455598D01*
X103137419Y-79441401D01*
X103137462Y-79441259D01*
X103143736Y-79426090D01*
X103146869Y-79410294D01*
X103222507Y-79161325D01*
X103228737Y-79146299D01*
X103235941Y-79110145D01*
X103241415Y-79082687D01*
X103241422Y-79066420D01*
X103266538Y-78812315D01*
X103268581Y-78804104D01*
X103269721Y-78780110D01*
X103270487Y-78772365D01*
X103270490Y-78763942D01*
X103270890Y-78755525D01*
X103270496Y-78747750D01*
X103270504Y-78723731D01*
X103268856Y-78715431D01*
X103263911Y-78617950D01*
X103263977Y-78617492D01*
X103262279Y-78585773D01*
X103261472Y-78569867D01*
X103261403Y-78569404D01*
X103261377Y-78568927D01*
X103258934Y-78552944D01*
X103254259Y-78521771D01*
X103254103Y-78521337D01*
X103239786Y-78427667D01*
X103239729Y-78419150D01*
X103234894Y-78395664D01*
X103233728Y-78388034D01*
X103231635Y-78379834D01*
X103229923Y-78371515D01*
X103227625Y-78364118D01*
X103221703Y-78340910D01*
X103218031Y-78333234D01*
X103142472Y-78090000D01*
X103139198Y-78074092D01*
X103132875Y-78059107D01*
X103132872Y-78059098D01*
X103127951Y-78047439D01*
X103120290Y-78029283D01*
X103120283Y-78029270D01*
X103113961Y-78014291D01*
X103104850Y-78000851D01*
X102982255Y-77775092D01*
X102976233Y-77760668D01*
X102966811Y-77746653D01*
X102966515Y-77746107D01*
X102957885Y-77733374D01*
X102949100Y-77720306D01*
X102948695Y-77719816D01*
X102939229Y-77705849D01*
X102928112Y-77694878D01*
X102766466Y-77499032D01*
X102757948Y-77486217D01*
X102745871Y-77474080D01*
X102745320Y-77473413D01*
X102734506Y-77462660D01*
X102723643Y-77451743D01*
X102722969Y-77451187D01*
X102710834Y-77439120D01*
X102698022Y-77430611D01*
X102502117Y-77269029D01*
X102491139Y-77257913D01*
X102477167Y-77248450D01*
X102476678Y-77248047D01*
X102463649Y-77239295D01*
X102450871Y-77230641D01*
X102450323Y-77230344D01*
X102436306Y-77220928D01*
X102421881Y-77214911D01*
X102196087Y-77092398D01*
X102182637Y-77083288D01*
X102167651Y-77076969D01*
X102167641Y-77076964D01*
X102145211Y-77067508D01*
X102137823Y-77064393D01*
X102137817Y-77064391D01*
X102122826Y-77058071D01*
X102106907Y-77054801D01*
X101863667Y-76979331D01*
X101855983Y-76975658D01*
X101832750Y-76969738D01*
X101825373Y-76967449D01*
X101817077Y-76965744D01*
X101808855Y-76963649D01*
X101801209Y-76962483D01*
X101777735Y-76957659D01*
X101769219Y-76957605D01*
X101675544Y-76943321D01*
X101675108Y-76943164D01*
X101643794Y-76938479D01*
X101627949Y-76936063D01*
X101627476Y-76936038D01*
X101627009Y-76935968D01*
X101611084Y-76935166D01*
X101579384Y-76933479D01*
X101578924Y-76933545D01*
X101489483Y-76929039D01*
X101489085Y-76928940D01*
X101464978Y-76927786D01*
X101457102Y-76927010D01*
X101449208Y-76927010D01*
X101441348Y-76926614D01*
X101440927Y-76926634D01*
X101440506Y-76926614D01*
X101432646Y-76927010D01*
X101424754Y-76927010D01*
X101416879Y-76927786D01*
X101392771Y-76928940D01*
X101392373Y-76929039D01*
X101302932Y-76933545D01*
X101302472Y-76933479D01*
X101270775Y-76935166D01*
X101254847Y-76935968D01*
X101254380Y-76936038D01*
X101253907Y-76936063D01*
X101238067Y-76938478D01*
X101206748Y-76943164D01*
X101206312Y-76943321D01*
X101112637Y-76957605D01*
X101104120Y-76957659D01*
X101080641Y-76962484D01*
X101073002Y-76963649D01*
X101064788Y-76965742D01*
X101056482Y-76967449D01*
X101049096Y-76969741D01*
X101025874Y-76975658D01*
X101018193Y-76979329D01*
X100774951Y-77054800D01*
X100759029Y-77058071D01*
X100714214Y-77076964D01*
X100714200Y-77076971D01*
X100699219Y-77083288D01*
X100685773Y-77092396D01*
X100459978Y-77214910D01*
X100445549Y-77220928D01*
X100431529Y-77230346D01*
X100430985Y-77230641D01*
X100418247Y-77239268D01*
X100405178Y-77248047D01*
X100404689Y-77248450D01*
X100390717Y-77257913D01*
X100379739Y-77269029D01*
X100183835Y-77430610D01*
X100171022Y-77439120D01*
X100158887Y-77451187D01*
X100158213Y-77451743D01*
X100147350Y-77462660D01*
X100136536Y-77473413D01*
X100135985Y-77474080D01*
X100123908Y-77486217D01*
X100115390Y-77499032D01*
X99953752Y-77694870D01*
X99942627Y-77705849D01*
X99933153Y-77719827D01*
X99932756Y-77720308D01*
X99924136Y-77733131D01*
X99915341Y-77746107D01*
X99915039Y-77746663D01*
X99905623Y-77760670D01*
X99899604Y-77775086D01*
X99777008Y-78000848D01*
X99767895Y-78014291D01*
X99761571Y-78029275D01*
X99761566Y-78029284D01*
X99758311Y-78036999D01*
X99748984Y-78059098D01*
X99748980Y-78059111D01*
X99742658Y-78074093D01*
X99739384Y-78090000D01*
X99663827Y-78333228D01*
X99660152Y-78340910D01*
X99654227Y-78364133D01*
X99651933Y-78371516D01*
X99650222Y-78379826D01*
X99648128Y-78388034D01*
X99646961Y-78395667D01*
X99642127Y-78419151D01*
X99642070Y-78427667D01*
X99627753Y-78521337D01*
X99627597Y-78521771D01*
X99622920Y-78552959D01*
X99620479Y-78568928D01*
X99620453Y-78569405D01*
X99620384Y-78569868D01*
X99619577Y-78585767D01*
X99617879Y-78617492D01*
X99617945Y-78617950D01*
X99613000Y-78715431D01*
X99611352Y-78723731D01*
X99611360Y-78747751D01*
X99610966Y-78755526D01*
X99040756Y-78755526D01*
X99076099Y-78522716D01*
X99143424Y-78259718D01*
X99235286Y-78007840D01*
X99350374Y-77768290D01*
X99487357Y-77542397D01*
X99644887Y-77331523D01*
X99821607Y-77137047D01*
X100016125Y-76960371D01*
X100227046Y-76802878D01*
X100452987Y-76665930D01*
X100507816Y-76639600D01*
X103968849Y-76639600D01*
X103968849Y-77639600D01*
X103974244Y-77694372D01*
X103990220Y-77747039D01*
X104016164Y-77795577D01*
X104051079Y-77838121D01*
X104093623Y-77873036D01*
X104142161Y-77898980D01*
X104194828Y-77914956D01*
X104249600Y-77920351D01*
X104487923Y-77920351D01*
X104482098Y-77934413D01*
X104461600Y-78037465D01*
X104461600Y-78142535D01*
X104482098Y-78245587D01*
X104522307Y-78342660D01*
X104580681Y-78430023D01*
X104654977Y-78504319D01*
X104742340Y-78562693D01*
X104839413Y-78602902D01*
X104942465Y-78623400D01*
X105047535Y-78623400D01*
X105150587Y-78602902D01*
X105247660Y-78562693D01*
X105335023Y-78504319D01*
X105409319Y-78430023D01*
X105467693Y-78342660D01*
X105507902Y-78245587D01*
X105528400Y-78142535D01*
X105528400Y-78037465D01*
X105507902Y-77934413D01*
X105502077Y-77920351D01*
X105749600Y-77920351D01*
X105804372Y-77914956D01*
X105857039Y-77898980D01*
X105905577Y-77873036D01*
X105948121Y-77838121D01*
X105983036Y-77795577D01*
X106008980Y-77747039D01*
X106024956Y-77694372D01*
X106030351Y-77639600D01*
X106030351Y-76639600D01*
X106024956Y-76584828D01*
X106008980Y-76532161D01*
X105983036Y-76483623D01*
X105948121Y-76441079D01*
X105905577Y-76406164D01*
X105857039Y-76380220D01*
X105804372Y-76364244D01*
X105749600Y-76358849D01*
X104249600Y-76358849D01*
X104194828Y-76364244D01*
X104142161Y-76380220D01*
X104093623Y-76406164D01*
X104051079Y-76441079D01*
X104016164Y-76483623D01*
X103990220Y-76532161D01*
X103974244Y-76584828D01*
X103968849Y-76639600D01*
X100507816Y-76639600D01*
X100692575Y-76550876D01*
X100944510Y-76459034D01*
X101207528Y-76391732D01*
X101480497Y-76350310D01*
X101770592Y-76335757D01*
X120679877Y-76335757D01*
X120543693Y-76470775D01*
M02*
