G04 #@! TF.GenerationSoftware,KiCad,Pcbnew,(2018-02-05 revision d1a45d147)-makepkg*
G04 #@! TF.CreationDate,2020-01-13T12:48:58-08:00*
G04 #@! TF.ProjectId,badge,62616467652E6B696361645F70636200,rev?*
G04 #@! TF.SameCoordinates,Original*
G04 #@! TF.FileFunction,Copper,L1,Top,Signal*
G04 #@! TF.FilePolarity,Positive*
%FSLAX46Y46*%
G04 Gerber Fmt 4.6, Leading zero omitted, Abs format (unit mm)*
G04 Created by KiCad (PCBNEW (2018-02-05 revision d1a45d147)-makepkg) date 01/13/20 12:48:58*
%MOMM*%
%LPD*%
G01*
G04 APERTURE LIST*
%ADD10R,1.600000X1.400000*%
%ADD11R,0.718820X0.599440*%
%ADD12R,0.500000X0.500000*%
%ADD13R,1.500000X1.000000*%
%ADD14C,1.450000*%
%ADD15O,1.200000X1.900000*%
%ADD16C,0.508000*%
%ADD17C,0.152400*%
%ADD18C,0.254000*%
G04 APERTURE END LIST*
D10*
X134722400Y-114958600D03*
X127522400Y-114958600D03*
X134722400Y-117958600D03*
X127522400Y-117958600D03*
X112446600Y-114984000D03*
X105246600Y-114984000D03*
X112446600Y-117984000D03*
X105246600Y-117984000D03*
D11*
X118645920Y-115861700D03*
X119616200Y-115861700D03*
X120581400Y-115861700D03*
X121551680Y-115861700D03*
X121551680Y-117258700D03*
X120581400Y-117258700D03*
X119616200Y-117258700D03*
X118645920Y-117258700D03*
D12*
X140602800Y-108451400D03*
X140602800Y-109251400D03*
X140602800Y-110051400D03*
X140602800Y-110851400D03*
X138202800Y-110871400D03*
X138202800Y-110051400D03*
X138202800Y-109251400D03*
X138202800Y-108451400D03*
D13*
X135401200Y-80314200D03*
X135401200Y-77114200D03*
X130501200Y-80314200D03*
X130501200Y-77114200D03*
X109899600Y-80339600D03*
X109899600Y-77139600D03*
X104999600Y-80339600D03*
X104999600Y-77139600D03*
D14*
X122500000Y-80312500D03*
X127500000Y-80312500D03*
D15*
X121500000Y-77612500D03*
X128500000Y-77612500D03*
D16*
X122285000Y-100740000D03*
X138025000Y-104820000D03*
X140475000Y-104830000D03*
X139245000Y-103600000D03*
X139245000Y-106057400D03*
X137375000Y-111780000D03*
X115145000Y-116900000D03*
X117075000Y-113640000D03*
X115787600Y-113640000D03*
X114305000Y-113080000D03*
X114295000Y-112440000D03*
X111655000Y-109380000D03*
X111655000Y-110370000D03*
X111655000Y-111370000D03*
X111655000Y-112380000D03*
X126305000Y-81450000D03*
X132345000Y-78940000D03*
X124985000Y-118000000D03*
X126025000Y-116260000D03*
X126025000Y-114110000D03*
X130535000Y-107100000D03*
X129335000Y-107110000D03*
X140615000Y-107550000D03*
X140245000Y-90350000D03*
X122385000Y-102250000D03*
X122785000Y-99750000D03*
X122345000Y-99250000D03*
X122765000Y-98750000D03*
X122355000Y-98240000D03*
X122775000Y-97740000D03*
X122375000Y-97240000D03*
X122815000Y-96730000D03*
X122375000Y-96240000D03*
X122795879Y-95741043D03*
X122379524Y-92242470D03*
X136845000Y-91700000D03*
X136195000Y-95200000D03*
X136205000Y-98500000D03*
X136845000Y-101930000D03*
X135745000Y-101940000D03*
X134655000Y-101940000D03*
X128055000Y-101960000D03*
X129625000Y-99590000D03*
X130525000Y-95750000D03*
X128045000Y-91769800D03*
X131885000Y-88920000D03*
X116455000Y-87650000D03*
X116995000Y-84820000D03*
X120555000Y-80850000D03*
X115145000Y-79390000D03*
X114285000Y-79400000D03*
X115145000Y-78620000D03*
X114275000Y-78630000D03*
X114355000Y-77010000D03*
X112295000Y-79280000D03*
X103165000Y-80420000D03*
X103165000Y-83160000D03*
X102275000Y-81860000D03*
X112215000Y-85500000D03*
X111205000Y-85520000D03*
X110235000Y-85520000D03*
X115145800Y-80289000D03*
X110585000Y-79020000D03*
X116065000Y-83120000D03*
X125205000Y-99040000D03*
X112425000Y-113810000D03*
X134735000Y-113730000D03*
X137475000Y-110040000D03*
X137465000Y-108440000D03*
X122505000Y-117240000D03*
X122370238Y-95236107D03*
X130970000Y-96316400D03*
X122805344Y-94739304D03*
X126042400Y-94360600D03*
X122816600Y-92737540D03*
X128633200Y-89534600D03*
X122385234Y-93237595D03*
X129141200Y-90195000D03*
X122374640Y-94238680D03*
X129725400Y-91287200D03*
X122814589Y-93739377D03*
X130258800Y-90779200D03*
X132275000Y-82200000D03*
X131355000Y-94930000D03*
X133545000Y-82210000D03*
X132445000Y-94920000D03*
X134125000Y-89680000D03*
X139335000Y-82600000D03*
X134815000Y-82210000D03*
X133555000Y-94920000D03*
X135395000Y-78030000D03*
X106565000Y-80840000D03*
X130815000Y-88760000D03*
X132445000Y-98790000D03*
X119175000Y-111860000D03*
X119605000Y-115000000D03*
X118735000Y-112470000D03*
X133555000Y-98790000D03*
X125805000Y-98480000D03*
X132075000Y-110470000D03*
X115285000Y-108820000D03*
X126415000Y-97410000D03*
X133365000Y-110480000D03*
X116645000Y-108780000D03*
X117745000Y-117260000D03*
X137375000Y-110890000D03*
X139945000Y-109250000D03*
X111325000Y-77080000D03*
X131665000Y-77100000D03*
X104995000Y-78090000D03*
D17*
X140602800Y-107562200D02*
X140615000Y-107550000D01*
X140602800Y-108451400D02*
X140602800Y-107562200D01*
D18*
X111585000Y-80020000D02*
X111585000Y-82760000D01*
X110585000Y-79020000D02*
X111585000Y-80020000D01*
X111585000Y-82760000D02*
X111945000Y-83120000D01*
X111945000Y-83120000D02*
X114655000Y-83120000D01*
X114655000Y-83120000D02*
X116065000Y-83120000D01*
D17*
X125205000Y-99040000D02*
X125195000Y-99050000D01*
X125195000Y-99050000D02*
X125195000Y-102650000D01*
X125195000Y-102650000D02*
X124775000Y-103070000D01*
X124775000Y-103070000D02*
X113835000Y-103070000D01*
X113835000Y-103070000D02*
X112425000Y-104480000D01*
X112425000Y-104480000D02*
X112425000Y-113810000D01*
X112446600Y-113831600D02*
X112425000Y-113810000D01*
X112446600Y-114984000D02*
X112446600Y-113831600D01*
X105246600Y-114984000D02*
X112446600Y-114984000D01*
X134722400Y-114958600D02*
X133770000Y-114958600D01*
X133770000Y-114958600D02*
X127522400Y-114958600D01*
X134735000Y-113730000D02*
X134735000Y-114946000D01*
X134735000Y-114946000D02*
X134722400Y-114958600D01*
X137486400Y-110051400D02*
X137475000Y-110040000D01*
X138202800Y-110051400D02*
X137486400Y-110051400D01*
X137476400Y-108451400D02*
X137465000Y-108440000D01*
X138202800Y-108451400D02*
X137476400Y-108451400D01*
X122486300Y-117258700D02*
X122505000Y-117240000D01*
X121551680Y-117258700D02*
X122486300Y-117258700D01*
X122371031Y-95236900D02*
X127147300Y-95236900D01*
X122370238Y-95236107D02*
X122371031Y-95236900D01*
X127147300Y-95236900D02*
X128226800Y-96316400D01*
X128226800Y-96316400D02*
X130970000Y-96316400D01*
X124901696Y-94739304D02*
X125280400Y-94360600D01*
X122805344Y-94739304D02*
X124901696Y-94739304D01*
X125280400Y-94360600D02*
X126042400Y-94360600D01*
X124407460Y-92737540D02*
X127610400Y-89534600D01*
X122816600Y-92737540D02*
X124407460Y-92737540D01*
X127610400Y-89534600D02*
X128273990Y-89534600D01*
X128273990Y-89534600D02*
X128633200Y-89534600D01*
X124587405Y-93237595D02*
X127630000Y-90195000D01*
X122385234Y-93237595D02*
X124587405Y-93237595D01*
X127630000Y-90195000D02*
X129141200Y-90195000D01*
X124741920Y-94238680D02*
X127693400Y-91287200D01*
X122374640Y-94238680D02*
X124741920Y-94238680D01*
X127693400Y-91287200D02*
X129366190Y-91287200D01*
X129366190Y-91287200D02*
X129725400Y-91287200D01*
X124705623Y-93739377D02*
X127665800Y-90779200D01*
X122814589Y-93739377D02*
X124705623Y-93739377D01*
X127665800Y-90779200D02*
X130258800Y-90779200D01*
X132275000Y-83530000D02*
X132275000Y-82200000D01*
X131355000Y-84450000D02*
X132275000Y-83530000D01*
X131355000Y-94930000D02*
X131355000Y-84450000D01*
X132445000Y-84830000D02*
X133545000Y-83730000D01*
X132445000Y-94920000D02*
X132445000Y-84830000D01*
X133545000Y-83730000D02*
X133545000Y-82210000D01*
X139335000Y-82600000D02*
X139335000Y-84470000D01*
X134378999Y-89426001D02*
X134125000Y-89680000D01*
X139335000Y-84470000D02*
X134378999Y-89426001D01*
X134815000Y-83980000D02*
X134815000Y-82210000D01*
X133555000Y-85240000D02*
X134815000Y-83980000D01*
X133555000Y-94920000D02*
X133555000Y-85240000D01*
X135395000Y-78030000D02*
X135395000Y-77120400D01*
X135395000Y-77120400D02*
X135401200Y-77114200D01*
X106565000Y-83410000D02*
X107085000Y-83930000D01*
X106565000Y-80840000D02*
X106565000Y-83410000D01*
X107085000Y-83930000D02*
X129955000Y-83930000D01*
X129955000Y-83930000D02*
X130405000Y-84380000D01*
X130405000Y-84380000D02*
X130405000Y-88350000D01*
X130405000Y-88350000D02*
X130815000Y-88760000D01*
X132145000Y-107900000D02*
X132445000Y-107600000D01*
X122225000Y-111590000D02*
X122225000Y-108710000D01*
X123035000Y-107900000D02*
X132145000Y-107900000D01*
X121955000Y-111860000D02*
X122225000Y-111590000D01*
X122225000Y-108710000D02*
X123035000Y-107900000D01*
X132445000Y-107600000D02*
X132445000Y-105800000D01*
X119175000Y-111860000D02*
X121955000Y-111860000D01*
X132445000Y-105800000D02*
X132445000Y-98790000D01*
X119616200Y-115011200D02*
X119605000Y-115000000D01*
X119616200Y-115861700D02*
X119616200Y-115011200D01*
X122745000Y-112030000D02*
X122305000Y-112470000D01*
X122745000Y-108960000D02*
X122745000Y-112030000D01*
X123385000Y-108320000D02*
X122745000Y-108960000D01*
X132505000Y-108320000D02*
X123385000Y-108320000D01*
X119094210Y-112470000D02*
X118735000Y-112470000D01*
X133555000Y-98790000D02*
X133555000Y-107270000D01*
X133555000Y-107270000D02*
X132505000Y-108320000D01*
X122305000Y-112470000D02*
X119094210Y-112470000D01*
X123715000Y-109700000D02*
X124215000Y-109200000D01*
X123715000Y-115470000D02*
X123715000Y-109700000D01*
X131635000Y-109200000D02*
X132075000Y-109640000D01*
X122625000Y-116560000D02*
X123715000Y-115470000D01*
X119862780Y-116560000D02*
X122625000Y-116560000D01*
X119616200Y-117258700D02*
X119616200Y-116806580D01*
X119616200Y-116806580D02*
X119862780Y-116560000D01*
X124215000Y-109200000D02*
X131635000Y-109200000D01*
X132075000Y-109640000D02*
X132075000Y-110470000D01*
X140602800Y-112262200D02*
X140075000Y-112790000D01*
X140602800Y-110851400D02*
X140602800Y-112262200D01*
X140075000Y-112790000D02*
X133585000Y-112790000D01*
X133585000Y-112790000D02*
X132945000Y-112150000D01*
X132945000Y-112150000D02*
X132945000Y-111340000D01*
X132945000Y-111340000D02*
X132075000Y-110470000D01*
X125805000Y-103070000D02*
X125805000Y-98839210D01*
X116275000Y-104610000D02*
X117295000Y-103590000D01*
X125285000Y-103590000D02*
X125805000Y-103070000D01*
X117295000Y-103590000D02*
X125285000Y-103590000D01*
X115285000Y-108820000D02*
X116275000Y-107830000D01*
X116275000Y-107830000D02*
X116275000Y-104610000D01*
X125805000Y-98839210D02*
X125805000Y-98480000D01*
X114985000Y-109120000D02*
X114985000Y-115490000D01*
X115285000Y-108820000D02*
X114985000Y-109120000D01*
X114985000Y-115490000D02*
X117675000Y-118180000D01*
X117675000Y-118180000D02*
X119385000Y-118180000D01*
X119385000Y-118180000D02*
X119616200Y-117948800D01*
X119616200Y-117948800D02*
X119616200Y-117258700D01*
X123295000Y-109450000D02*
X123925000Y-108820000D01*
X123925000Y-108820000D02*
X132475000Y-108820000D01*
X123295000Y-113950000D02*
X123295000Y-109450000D01*
X118645920Y-115861700D02*
X118645920Y-114769080D01*
X122795000Y-114450000D02*
X123295000Y-113950000D01*
X118965000Y-114450000D02*
X122795000Y-114450000D01*
X118645920Y-114769080D02*
X118965000Y-114450000D01*
X132475000Y-108820000D02*
X133365000Y-109710000D01*
X133365000Y-109710000D02*
X133365000Y-110480000D01*
X139925000Y-110180000D02*
X140053600Y-110051400D01*
X139925000Y-112060000D02*
X139925000Y-110180000D01*
X139585000Y-112400000D02*
X139925000Y-112060000D01*
X133915000Y-112400000D02*
X139585000Y-112400000D01*
X133365000Y-110480000D02*
X133365000Y-111850000D01*
X133365000Y-111850000D02*
X133915000Y-112400000D01*
X140053600Y-110051400D02*
X140602800Y-110051400D01*
X116645000Y-104830000D02*
X117495000Y-103980000D01*
X116645000Y-108780000D02*
X116645000Y-104830000D01*
X117495000Y-103980000D02*
X125575000Y-103980000D01*
X125575000Y-103980000D02*
X126415000Y-103140000D01*
X126415000Y-103140000D02*
X126415000Y-97769210D01*
X126415000Y-97769210D02*
X126415000Y-97410000D01*
X116076700Y-115861700D02*
X115304999Y-115089999D01*
X118645920Y-115861700D02*
X116076700Y-115861700D01*
X115304999Y-115089999D02*
X115304999Y-113709999D01*
X115304999Y-113709999D02*
X115289810Y-113694810D01*
X115289810Y-113694810D02*
X115289810Y-110135190D01*
X115289810Y-110135190D02*
X116645000Y-108780000D01*
X117746300Y-117258700D02*
X117745000Y-117260000D01*
X118645920Y-117258700D02*
X117746300Y-117258700D01*
X137393600Y-110871400D02*
X137375000Y-110890000D01*
X138202800Y-110871400D02*
X137393600Y-110871400D01*
X139945000Y-109250000D02*
X140601400Y-109250000D01*
X140601400Y-109250000D02*
X140602800Y-109251400D01*
X130501200Y-78443800D02*
X130075000Y-78870000D01*
X130501200Y-77114200D02*
X130501200Y-78443800D01*
X130075000Y-78870000D02*
X119905000Y-78870000D01*
X119905000Y-78870000D02*
X118527601Y-77492601D01*
X118527601Y-77492601D02*
X111737601Y-77492601D01*
X111737601Y-77492601D02*
X111325000Y-77080000D01*
X131650800Y-77114200D02*
X131665000Y-77100000D01*
X130501200Y-77114200D02*
X131650800Y-77114200D01*
X104999600Y-78085400D02*
X104995000Y-78090000D01*
X104999600Y-77139600D02*
X104999600Y-78085400D01*
X130501200Y-77114200D02*
X130219200Y-77114200D01*
X105265400Y-77139600D02*
X104999600Y-77139600D01*
D18*
X120581400Y-115233600D02*
X120715000Y-115100000D01*
X120581400Y-115861700D02*
X120581400Y-115233600D01*
X120715000Y-115100000D02*
X121415000Y-115100000D01*
X121415000Y-115100000D02*
X121551680Y-115236680D01*
X121551680Y-115236680D02*
X121551680Y-115861700D01*
D17*
X110875000Y-77890000D02*
X110124600Y-77139600D01*
X118045000Y-77890000D02*
X110875000Y-77890000D01*
X119395000Y-79240000D02*
X118045000Y-77890000D01*
X130205000Y-79240000D02*
X119395000Y-79240000D01*
X110124600Y-77139600D02*
X109899600Y-77139600D01*
X130501200Y-80314200D02*
X130501200Y-79536200D01*
X130501200Y-79536200D02*
X130205000Y-79240000D01*
D18*
G36*
X120407610Y-76672553D02*
X120265000Y-77135500D01*
X120265000Y-77485500D01*
X121373000Y-77485500D01*
X121373000Y-77465500D01*
X121627000Y-77465500D01*
X121627000Y-77485500D01*
X122735000Y-77485500D01*
X122735000Y-77135500D01*
X122592390Y-76672553D01*
X122313557Y-76335757D01*
X127686443Y-76335757D01*
X127407610Y-76672553D01*
X127265000Y-77135500D01*
X127265000Y-77485500D01*
X128373000Y-77485500D01*
X128373000Y-77465500D01*
X128627000Y-77465500D01*
X128627000Y-77485500D01*
X128647000Y-77485500D01*
X128647000Y-77739500D01*
X128627000Y-77739500D01*
X128627000Y-77759500D01*
X128373000Y-77759500D01*
X128373000Y-77739500D01*
X127265000Y-77739500D01*
X127265000Y-78089500D01*
X127395890Y-78514400D01*
X122604110Y-78514400D01*
X122735000Y-78089500D01*
X122735000Y-77739500D01*
X121627000Y-77739500D01*
X121627000Y-77759500D01*
X121373000Y-77759500D01*
X121373000Y-77739500D01*
X120265000Y-77739500D01*
X120265000Y-78089500D01*
X120395890Y-78514400D01*
X120052294Y-78514400D01*
X118803812Y-77265918D01*
X118783974Y-77236228D01*
X118666349Y-77157634D01*
X118562621Y-77137001D01*
X118527601Y-77130035D01*
X118492581Y-77137001D01*
X111884896Y-77137001D01*
X111858400Y-77110505D01*
X111858400Y-76973900D01*
X111777195Y-76777853D01*
X111627147Y-76627805D01*
X111431100Y-76546600D01*
X111218900Y-76546600D01*
X111022853Y-76627805D01*
X110934473Y-76716185D01*
X110934473Y-76639600D01*
X110912788Y-76530584D01*
X110851036Y-76438164D01*
X110758616Y-76376412D01*
X110649600Y-76354727D01*
X109149600Y-76354727D01*
X109040584Y-76376412D01*
X108948164Y-76438164D01*
X108886412Y-76530584D01*
X108864727Y-76639600D01*
X108864727Y-77639600D01*
X108886412Y-77748616D01*
X108948164Y-77841036D01*
X109040584Y-77902788D01*
X109149600Y-77924473D01*
X110406578Y-77924473D01*
X110598791Y-78116686D01*
X110618627Y-78146373D01*
X110648314Y-78166209D01*
X110648315Y-78166210D01*
X110736252Y-78224967D01*
X110875000Y-78252566D01*
X110910020Y-78245600D01*
X117897706Y-78245600D01*
X119118789Y-79466683D01*
X119138627Y-79496373D01*
X119256252Y-79574967D01*
X119359980Y-79595600D01*
X119359984Y-79595600D01*
X119394999Y-79602565D01*
X119430014Y-79595600D01*
X121337702Y-79595600D01*
X121308247Y-79603622D01*
X121127688Y-80113646D01*
X121156051Y-80653944D01*
X121308247Y-81021378D01*
X121546602Y-81086293D01*
X122320395Y-80312500D01*
X122306253Y-80298358D01*
X122485858Y-80118753D01*
X122500000Y-80132895D01*
X122514143Y-80118753D01*
X122693748Y-80298358D01*
X122679605Y-80312500D01*
X123453398Y-81086293D01*
X123691753Y-81021378D01*
X123872312Y-80511354D01*
X123843949Y-79971056D01*
X123691753Y-79603622D01*
X123662298Y-79595600D01*
X126337702Y-79595600D01*
X126308247Y-79603622D01*
X126127688Y-80113646D01*
X126156051Y-80653944D01*
X126308247Y-81021378D01*
X126546602Y-81086293D01*
X127320395Y-80312500D01*
X127306253Y-80298358D01*
X127485858Y-80118753D01*
X127500000Y-80132895D01*
X127514143Y-80118753D01*
X127693748Y-80298358D01*
X127679605Y-80312500D01*
X128453398Y-81086293D01*
X128691753Y-81021378D01*
X128872312Y-80511354D01*
X128843949Y-79971056D01*
X128691753Y-79603622D01*
X128662298Y-79595600D01*
X129575452Y-79595600D01*
X129549764Y-79612764D01*
X129488012Y-79705184D01*
X129466327Y-79814200D01*
X129466327Y-80814200D01*
X129488012Y-80923216D01*
X129549764Y-81015636D01*
X129642184Y-81077388D01*
X129751200Y-81099073D01*
X131251200Y-81099073D01*
X131360216Y-81077388D01*
X131452636Y-81015636D01*
X131514388Y-80923216D01*
X131536073Y-80814200D01*
X131536073Y-79814200D01*
X131514388Y-79705184D01*
X131452636Y-79612764D01*
X131360216Y-79551012D01*
X131251200Y-79529327D01*
X130862399Y-79529327D01*
X130836167Y-79397452D01*
X130777410Y-79309515D01*
X130777409Y-79309514D01*
X130757573Y-79279827D01*
X130727885Y-79259990D01*
X130481211Y-79013317D01*
X130462532Y-78985362D01*
X130691719Y-78756175D01*
X137109805Y-78756175D01*
X137110574Y-78763959D01*
X137110178Y-78771772D01*
X137113760Y-78796186D01*
X137135616Y-79017316D01*
X137135613Y-79017327D01*
X137141690Y-79078769D01*
X137145251Y-79114792D01*
X137145255Y-79114805D01*
X137145256Y-79114816D01*
X137154348Y-79144742D01*
X137173721Y-79208529D01*
X137173729Y-79208538D01*
X137239770Y-79425922D01*
X137249083Y-79456682D01*
X137249156Y-79456819D01*
X137249201Y-79456967D01*
X137264292Y-79485171D01*
X137371357Y-79685729D01*
X137371358Y-79685739D01*
X137395302Y-79730584D01*
X137417485Y-79772137D01*
X137417493Y-79772147D01*
X137417499Y-79772158D01*
X137440702Y-79800457D01*
X137479594Y-79847898D01*
X137479604Y-79847903D01*
X137583970Y-79975192D01*
X137584016Y-79975344D01*
X137625566Y-80025924D01*
X137645984Y-80050827D01*
X137646103Y-80050924D01*
X137646200Y-80051043D01*
X137670975Y-80071356D01*
X137721682Y-80113011D01*
X137721835Y-80113057D01*
X137849123Y-80217424D01*
X137849129Y-80217434D01*
X137890338Y-80251217D01*
X137924868Y-80279528D01*
X137924885Y-80279537D01*
X137924891Y-80279542D01*
X137943097Y-80289261D01*
X138011287Y-80325669D01*
X138011301Y-80325670D01*
X138211532Y-80432560D01*
X138240061Y-80447825D01*
X138240212Y-80447871D01*
X138240347Y-80447943D01*
X138270783Y-80457158D01*
X138488492Y-80523298D01*
X138488500Y-80523305D01*
X138544779Y-80540398D01*
X138582211Y-80551770D01*
X138582225Y-80551771D01*
X138582237Y-80551775D01*
X138614437Y-80554958D01*
X138679700Y-80561413D01*
X138679712Y-80561409D01*
X138843485Y-80577596D01*
X138843589Y-80577652D01*
X138908465Y-80584019D01*
X138940853Y-80587220D01*
X138940968Y-80587209D01*
X138941084Y-80587220D01*
X138973599Y-80584006D01*
X139038350Y-80577651D01*
X139038454Y-80577596D01*
X139202225Y-80561408D01*
X139202236Y-80561411D01*
X139263512Y-80555350D01*
X139299700Y-80551773D01*
X139299712Y-80551769D01*
X139299725Y-80551768D01*
X139335031Y-80541042D01*
X139393437Y-80523302D01*
X139393445Y-80523295D01*
X139610701Y-80457291D01*
X139641588Y-80447940D01*
X139641728Y-80447865D01*
X139641874Y-80447821D01*
X139669806Y-80432876D01*
X139870633Y-80325666D01*
X139870643Y-80325665D01*
X139923382Y-80297506D01*
X139957042Y-80279537D01*
X139957052Y-80279529D01*
X139957061Y-80279524D01*
X139978473Y-80261968D01*
X140032803Y-80217429D01*
X140032809Y-80217417D01*
X140160097Y-80113053D01*
X140160248Y-80113007D01*
X140210641Y-80071611D01*
X140235731Y-80051040D01*
X140235829Y-80050921D01*
X140235948Y-80050823D01*
X140256350Y-80025940D01*
X140297914Y-79975342D01*
X140297960Y-79975189D01*
X140402325Y-79847900D01*
X140402335Y-79847895D01*
X140440443Y-79801410D01*
X140464430Y-79772154D01*
X140464436Y-79772142D01*
X140464443Y-79772134D01*
X140479075Y-79744724D01*
X140510571Y-79685735D01*
X140510572Y-79685723D01*
X140617531Y-79485365D01*
X140632726Y-79456964D01*
X140632771Y-79456816D01*
X140632844Y-79456679D01*
X140642160Y-79425911D01*
X140708198Y-79208537D01*
X140708205Y-79208528D01*
X140727066Y-79146429D01*
X140736670Y-79114816D01*
X140736671Y-79114803D01*
X140736675Y-79114791D01*
X140740177Y-79079363D01*
X140746313Y-79017326D01*
X140746310Y-79017315D01*
X140768166Y-78796185D01*
X140771748Y-78771772D01*
X140771352Y-78763959D01*
X140772121Y-78756176D01*
X140769711Y-78731622D01*
X140763122Y-78601719D01*
X140763869Y-78585010D01*
X140761482Y-78569393D01*
X140760682Y-78553621D01*
X140756594Y-78537409D01*
X140737370Y-78411637D01*
X140734783Y-78387051D01*
X140732479Y-78379634D01*
X140731305Y-78371953D01*
X140722871Y-78348706D01*
X140634746Y-78065019D01*
X140628088Y-78043582D01*
X140628084Y-78043575D01*
X140628081Y-78043565D01*
X140613068Y-78015923D01*
X140474603Y-77760938D01*
X140459491Y-77732855D01*
X140459087Y-77732366D01*
X140458787Y-77731813D01*
X140438585Y-77707526D01*
X140256178Y-77486527D01*
X140236229Y-77462098D01*
X140235557Y-77461543D01*
X140235000Y-77460869D01*
X140210518Y-77440892D01*
X139989646Y-77258715D01*
X139965207Y-77238401D01*
X139964652Y-77238100D01*
X139964166Y-77237699D01*
X139936230Y-77222678D01*
X139679707Y-77083492D01*
X139653400Y-77069216D01*
X139653390Y-77069213D01*
X139653381Y-77069208D01*
X139623202Y-77059846D01*
X139348214Y-76974524D01*
X139324976Y-76966103D01*
X139317300Y-76964932D01*
X139309876Y-76962629D01*
X139285273Y-76960048D01*
X139159520Y-76940872D01*
X139143299Y-76936787D01*
X139127520Y-76935992D01*
X139111907Y-76933611D01*
X139095202Y-76934364D01*
X138981603Y-76928640D01*
X138973410Y-76927010D01*
X138965056Y-76927010D01*
X138956794Y-76925795D01*
X138940968Y-76926592D01*
X138925144Y-76925795D01*
X138916882Y-76927010D01*
X138908526Y-76927010D01*
X138900334Y-76928640D01*
X138786735Y-76934363D01*
X138770029Y-76933610D01*
X138754413Y-76935991D01*
X138738639Y-76936786D01*
X138722423Y-76940869D01*
X138596645Y-76960049D01*
X138572059Y-76962628D01*
X138564641Y-76964930D01*
X138556959Y-76966101D01*
X138533708Y-76974527D01*
X138264885Y-77057934D01*
X138228552Y-77069204D01*
X138228540Y-77069210D01*
X138228535Y-77069212D01*
X138213563Y-77077337D01*
X137945871Y-77222583D01*
X137917765Y-77237695D01*
X137917275Y-77238099D01*
X137916724Y-77238398D01*
X137892417Y-77258602D01*
X137671354Y-77440934D01*
X137646930Y-77460865D01*
X137646376Y-77461536D01*
X137645701Y-77462093D01*
X137625732Y-77486548D01*
X137443388Y-77707470D01*
X137423142Y-77731810D01*
X137422842Y-77732363D01*
X137422438Y-77732852D01*
X137407347Y-77760897D01*
X137268426Y-78016718D01*
X137253847Y-78043562D01*
X137253845Y-78043567D01*
X137253839Y-78043579D01*
X137242940Y-78078674D01*
X137159057Y-78348699D01*
X137150621Y-78371952D01*
X137149447Y-78379635D01*
X137147143Y-78387051D01*
X137144556Y-78411635D01*
X137125332Y-78537408D01*
X137121244Y-78553621D01*
X137120444Y-78569393D01*
X137118057Y-78585010D01*
X137118804Y-78601719D01*
X137112215Y-78731620D01*
X137109805Y-78756175D01*
X130691719Y-78756175D01*
X130727885Y-78720009D01*
X130757573Y-78700173D01*
X130778684Y-78668579D01*
X130836167Y-78582548D01*
X130863766Y-78443800D01*
X130856800Y-78408780D01*
X130856800Y-77899073D01*
X131251200Y-77899073D01*
X131360216Y-77877388D01*
X131452636Y-77815636D01*
X131514388Y-77723216D01*
X131534282Y-77623203D01*
X131558900Y-77633400D01*
X131771100Y-77633400D01*
X131967147Y-77552195D01*
X132117195Y-77402147D01*
X132198400Y-77206100D01*
X132198400Y-76993900D01*
X132117195Y-76797853D01*
X131967147Y-76647805D01*
X131771100Y-76566600D01*
X131558900Y-76566600D01*
X131529063Y-76578959D01*
X131514388Y-76505184D01*
X131452636Y-76412764D01*
X131360216Y-76351012D01*
X131283525Y-76335757D01*
X134618875Y-76335757D01*
X134542184Y-76351012D01*
X134449764Y-76412764D01*
X134388012Y-76505184D01*
X134366327Y-76614200D01*
X134366327Y-77614200D01*
X134388012Y-77723216D01*
X134449764Y-77815636D01*
X134542184Y-77877388D01*
X134651200Y-77899073D01*
X134871884Y-77899073D01*
X134861600Y-77923900D01*
X134861600Y-78136100D01*
X134942805Y-78332147D01*
X135092853Y-78482195D01*
X135288900Y-78563400D01*
X135501100Y-78563400D01*
X135697147Y-78482195D01*
X135847195Y-78332147D01*
X135928400Y-78136100D01*
X135928400Y-77923900D01*
X135918116Y-77899073D01*
X136151200Y-77899073D01*
X136260216Y-77877388D01*
X136352636Y-77815636D01*
X136414388Y-77723216D01*
X136436073Y-77614200D01*
X136436073Y-76614200D01*
X136414388Y-76505184D01*
X136352636Y-76412764D01*
X136260216Y-76351012D01*
X136183525Y-76335757D01*
X138611284Y-76335757D01*
X138901396Y-76350309D01*
X139174327Y-76391728D01*
X139437332Y-76459031D01*
X139689227Y-76550871D01*
X139928768Y-76665920D01*
X140154663Y-76802864D01*
X140365537Y-76960354D01*
X140560008Y-77137026D01*
X140736673Y-77331490D01*
X140894164Y-77542367D01*
X141031106Y-77768260D01*
X141146155Y-78007801D01*
X141237994Y-78259694D01*
X141305297Y-78522700D01*
X141346716Y-78795630D01*
X141361269Y-79085762D01*
X141361269Y-91613000D01*
X137095000Y-91613000D01*
X137046399Y-91622667D01*
X137005197Y-91650197D01*
X136977667Y-91691399D01*
X136968000Y-91740000D01*
X136968000Y-101970000D01*
X136977667Y-102018601D01*
X137005197Y-102059803D01*
X137046399Y-102087333D01*
X137095000Y-102097000D01*
X141361268Y-102097000D01*
X141361268Y-115926417D01*
X141346716Y-116216533D01*
X141305297Y-116489487D01*
X141237993Y-116752516D01*
X141146148Y-117004455D01*
X141031094Y-117244042D01*
X140894148Y-117469980D01*
X140736649Y-117680911D01*
X140559982Y-117875418D01*
X140365505Y-118052140D01*
X140154634Y-118209668D01*
X139928733Y-118346655D01*
X139689193Y-118461739D01*
X139437303Y-118553606D01*
X139174309Y-118620930D01*
X138901380Y-118662362D01*
X138611283Y-118676919D01*
X101770608Y-118676919D01*
X101480508Y-118662362D01*
X101207554Y-118620928D01*
X100944533Y-118553603D01*
X100692605Y-118461734D01*
X100453020Y-118346644D01*
X100227082Y-118209659D01*
X100016157Y-118052124D01*
X99821635Y-117875400D01*
X99644910Y-117680877D01*
X99487370Y-117469948D01*
X99350384Y-117244008D01*
X99235295Y-117004422D01*
X99143423Y-116752487D01*
X99076100Y-116489472D01*
X99040657Y-116255982D01*
X99609769Y-116255982D01*
X99609780Y-116256097D01*
X99609769Y-116256212D01*
X99612940Y-116288298D01*
X99619337Y-116353478D01*
X99619393Y-116353583D01*
X99635580Y-116517353D01*
X99635577Y-116517364D01*
X99640854Y-116570708D01*
X99645215Y-116614829D01*
X99645219Y-116614842D01*
X99645220Y-116614852D01*
X99651557Y-116635710D01*
X99673685Y-116708566D01*
X99673693Y-116708575D01*
X99739796Y-116926166D01*
X99749046Y-116956717D01*
X99749118Y-116956852D01*
X99749164Y-116957003D01*
X99764475Y-116985619D01*
X99871319Y-117185765D01*
X99871320Y-117185776D01*
X99900271Y-117240000D01*
X99917447Y-117272174D01*
X99917455Y-117272184D01*
X99917461Y-117272195D01*
X99935109Y-117293719D01*
X99979555Y-117347935D01*
X99979566Y-117347941D01*
X100083932Y-117475230D01*
X100083978Y-117475380D01*
X100125741Y-117526221D01*
X100145946Y-117550864D01*
X100146062Y-117550959D01*
X100146161Y-117551080D01*
X100171464Y-117571826D01*
X100221644Y-117613048D01*
X100221795Y-117613094D01*
X100349085Y-117717461D01*
X100349090Y-117717470D01*
X100390212Y-117751182D01*
X100424829Y-117779565D01*
X100424843Y-117779573D01*
X100424851Y-117779579D01*
X100449051Y-117792498D01*
X100511247Y-117825706D01*
X100511260Y-117825707D01*
X100712521Y-117933148D01*
X100740021Y-117947862D01*
X100740165Y-117947906D01*
X100740306Y-117947981D01*
X100771898Y-117957546D01*
X100988450Y-118023336D01*
X100988459Y-118023343D01*
X101046494Y-118040970D01*
X101082170Y-118051808D01*
X101082184Y-118051809D01*
X101082196Y-118051813D01*
X101116106Y-118055165D01*
X101179660Y-118061451D01*
X101179671Y-118061448D01*
X101343442Y-118077635D01*
X101343547Y-118077691D01*
X101408599Y-118084075D01*
X101440812Y-118087259D01*
X101440928Y-118087248D01*
X101441043Y-118087259D01*
X101473222Y-118084078D01*
X101538309Y-118077691D01*
X101538414Y-118077635D01*
X101702185Y-118061448D01*
X101702196Y-118061451D01*
X101764131Y-118055325D01*
X101799660Y-118051813D01*
X101799673Y-118051809D01*
X101799684Y-118051808D01*
X101829267Y-118042821D01*
X101893397Y-118023343D01*
X101893407Y-118023335D01*
X102110816Y-117957286D01*
X102141549Y-117947981D01*
X102141686Y-117947908D01*
X102141834Y-117947863D01*
X102169998Y-117932794D01*
X102370597Y-117825707D01*
X102370607Y-117825706D01*
X102424289Y-117797044D01*
X102457005Y-117779579D01*
X102457015Y-117779571D01*
X102457026Y-117779565D01*
X102485325Y-117756362D01*
X102532766Y-117717470D01*
X102532771Y-117717460D01*
X102660061Y-117613094D01*
X102660211Y-117613048D01*
X102710262Y-117571933D01*
X102735695Y-117551080D01*
X102735794Y-117550959D01*
X102735910Y-117550864D01*
X102756010Y-117526349D01*
X102797878Y-117475381D01*
X102797924Y-117475230D01*
X102902291Y-117347941D01*
X102902301Y-117347935D01*
X102936084Y-117306726D01*
X102964395Y-117272196D01*
X102964404Y-117272179D01*
X102964409Y-117272173D01*
X102978461Y-117245851D01*
X103010536Y-117185777D01*
X103010537Y-117185763D01*
X103117360Y-116985659D01*
X103132692Y-116957003D01*
X103132738Y-116956852D01*
X103132810Y-116956717D01*
X103142052Y-116926193D01*
X103208164Y-116708575D01*
X103208171Y-116708566D01*
X103230003Y-116636686D01*
X103236636Y-116614853D01*
X103236637Y-116614842D01*
X103236641Y-116614829D01*
X103240215Y-116578669D01*
X103246279Y-116517364D01*
X103246276Y-116517353D01*
X103262463Y-116353583D01*
X103262519Y-116353478D01*
X103268894Y-116288519D01*
X103272087Y-116256213D01*
X103272076Y-116256097D01*
X103272087Y-116255981D01*
X103268894Y-116223675D01*
X103262519Y-116158716D01*
X103262463Y-116158611D01*
X103246276Y-115994840D01*
X103246279Y-115994829D01*
X103239226Y-115923519D01*
X103236641Y-115897365D01*
X103236637Y-115897353D01*
X103236636Y-115897339D01*
X103225303Y-115860036D01*
X103208171Y-115803628D01*
X103208164Y-115803619D01*
X103142285Y-115586772D01*
X103132809Y-115555476D01*
X103132734Y-115555336D01*
X103132690Y-115555190D01*
X103117779Y-115527321D01*
X103010536Y-115326430D01*
X103010535Y-115326419D01*
X102981575Y-115272179D01*
X102964408Y-115240021D01*
X102964400Y-115240011D01*
X102964394Y-115240000D01*
X102940260Y-115210565D01*
X102902300Y-115164260D01*
X102902290Y-115164254D01*
X102797924Y-115036965D01*
X102797878Y-115036813D01*
X102756616Y-114986584D01*
X102735911Y-114961331D01*
X102735789Y-114961231D01*
X102735694Y-114961115D01*
X102710677Y-114940603D01*
X102660211Y-114899148D01*
X102660061Y-114899102D01*
X102532770Y-114794735D01*
X102532765Y-114794725D01*
X102484097Y-114754827D01*
X102457025Y-114732630D01*
X102457014Y-114732624D01*
X102457004Y-114732616D01*
X102425461Y-114715777D01*
X102370606Y-114686489D01*
X102370595Y-114686488D01*
X102170363Y-114579598D01*
X102141834Y-114564333D01*
X102141683Y-114564287D01*
X102141548Y-114564215D01*
X102111112Y-114555000D01*
X101893407Y-114488861D01*
X101893397Y-114488853D01*
X101829267Y-114469375D01*
X101799684Y-114460388D01*
X101799673Y-114460387D01*
X101799660Y-114460383D01*
X101764131Y-114456871D01*
X101702196Y-114450745D01*
X101702185Y-114450748D01*
X101538414Y-114434561D01*
X101538309Y-114434505D01*
X101489268Y-114429692D01*
X101473370Y-114426530D01*
X101457160Y-114426530D01*
X101441043Y-114424937D01*
X101440928Y-114424948D01*
X101440812Y-114424937D01*
X101424695Y-114426530D01*
X101408486Y-114426530D01*
X101392588Y-114429692D01*
X101343547Y-114434505D01*
X101343442Y-114434561D01*
X101179671Y-114450748D01*
X101179660Y-114450745D01*
X101116106Y-114457031D01*
X101082196Y-114460383D01*
X101082184Y-114460387D01*
X101082170Y-114460388D01*
X101046494Y-114471226D01*
X100988459Y-114488853D01*
X100988450Y-114488860D01*
X100771603Y-114554739D01*
X100740307Y-114564215D01*
X100740167Y-114564290D01*
X100740021Y-114564334D01*
X100712152Y-114579245D01*
X100511261Y-114686488D01*
X100511249Y-114686489D01*
X100453767Y-114717180D01*
X100424852Y-114732616D01*
X100424844Y-114732622D01*
X100424830Y-114732630D01*
X100397758Y-114754827D01*
X100349091Y-114794724D01*
X100349085Y-114794734D01*
X100221796Y-114899102D01*
X100221643Y-114899148D01*
X100170618Y-114941063D01*
X100146162Y-114961115D01*
X100146067Y-114961231D01*
X100145945Y-114961331D01*
X100125085Y-114986772D01*
X100083978Y-115036814D01*
X100083932Y-115036965D01*
X99979565Y-115164256D01*
X99979557Y-115164260D01*
X99946708Y-115204330D01*
X99917461Y-115240001D01*
X99917455Y-115240013D01*
X99917448Y-115240021D01*
X99903425Y-115266290D01*
X99871320Y-115326420D01*
X99871319Y-115326432D01*
X99764464Y-115526597D01*
X99749165Y-115555191D01*
X99749119Y-115555342D01*
X99749047Y-115555477D01*
X99739832Y-115585913D01*
X99673693Y-115803618D01*
X99673685Y-115803628D01*
X99654824Y-115865728D01*
X99645220Y-115897341D01*
X99645219Y-115897352D01*
X99645215Y-115897365D01*
X99641703Y-115932894D01*
X99635577Y-115994829D01*
X99635580Y-115994840D01*
X99619393Y-116158611D01*
X99619337Y-116158716D01*
X99612940Y-116223896D01*
X99609769Y-116255982D01*
X99040657Y-116255982D01*
X99034666Y-116216517D01*
X99020109Y-115926416D01*
X99020109Y-114284000D01*
X104161727Y-114284000D01*
X104161727Y-115684000D01*
X104183412Y-115793016D01*
X104245164Y-115885436D01*
X104337584Y-115947188D01*
X104446600Y-115968873D01*
X106046600Y-115968873D01*
X106155616Y-115947188D01*
X106248036Y-115885436D01*
X106309788Y-115793016D01*
X106331473Y-115684000D01*
X106331473Y-115339600D01*
X111361727Y-115339600D01*
X111361727Y-115684000D01*
X111383412Y-115793016D01*
X111445164Y-115885436D01*
X111537584Y-115947188D01*
X111646600Y-115968873D01*
X113246600Y-115968873D01*
X113355616Y-115947188D01*
X113448036Y-115885436D01*
X113509788Y-115793016D01*
X113531473Y-115684000D01*
X113531473Y-114284000D01*
X113509788Y-114174984D01*
X113448036Y-114082564D01*
X113355616Y-114020812D01*
X113246600Y-113999127D01*
X112924009Y-113999127D01*
X112958400Y-113916100D01*
X112958400Y-113703900D01*
X112877195Y-113507853D01*
X112780600Y-113411258D01*
X112780600Y-104627294D01*
X113982294Y-103425600D01*
X116956505Y-103425600D01*
X116048315Y-104333791D01*
X116018628Y-104353627D01*
X115998792Y-104383314D01*
X115998790Y-104383316D01*
X115940033Y-104471253D01*
X115912434Y-104610000D01*
X115919401Y-104645025D01*
X115919400Y-107682706D01*
X115315506Y-108286600D01*
X115178900Y-108286600D01*
X114982853Y-108367805D01*
X114832805Y-108517853D01*
X114751600Y-108713900D01*
X114751600Y-108848278D01*
X114728627Y-108863628D01*
X114708791Y-108893315D01*
X114708790Y-108893316D01*
X114650033Y-108981253D01*
X114622434Y-109120000D01*
X114629400Y-109155020D01*
X114629401Y-115454975D01*
X114622434Y-115490000D01*
X114650033Y-115628747D01*
X114708790Y-115716684D01*
X114708792Y-115716686D01*
X114728628Y-115746373D01*
X114758315Y-115766209D01*
X117398789Y-118406683D01*
X117418627Y-118436373D01*
X117536252Y-118514967D01*
X117639980Y-118535600D01*
X117639984Y-118535600D01*
X117674999Y-118542565D01*
X117710014Y-118535600D01*
X119349980Y-118535600D01*
X119385000Y-118542566D01*
X119420020Y-118535600D01*
X119523748Y-118514967D01*
X119641373Y-118436373D01*
X119661211Y-118406683D01*
X119842885Y-118225009D01*
X119872572Y-118205173D01*
X119951167Y-118087548D01*
X119971800Y-117983820D01*
X119971800Y-117983819D01*
X119978766Y-117948801D01*
X119971800Y-117913782D01*
X119971800Y-117843293D01*
X119975610Y-117843293D01*
X120084626Y-117821608D01*
X120177046Y-117759856D01*
X120238798Y-117667436D01*
X120260483Y-117558420D01*
X120260483Y-116958980D01*
X120251854Y-116915600D01*
X120916026Y-116915600D01*
X120907397Y-116958980D01*
X120907397Y-117558420D01*
X120929082Y-117667436D01*
X120990834Y-117759856D01*
X121083254Y-117821608D01*
X121192270Y-117843293D01*
X121911090Y-117843293D01*
X122020106Y-117821608D01*
X122112526Y-117759856D01*
X122174278Y-117667436D01*
X122174911Y-117664253D01*
X122202853Y-117692195D01*
X122398900Y-117773400D01*
X122611100Y-117773400D01*
X122807147Y-117692195D01*
X122957195Y-117542147D01*
X123038400Y-117346100D01*
X123038400Y-117133900D01*
X122957195Y-116937853D01*
X122854003Y-116834661D01*
X122881373Y-116816373D01*
X122901211Y-116786683D01*
X123431912Y-116255982D01*
X137109805Y-116255982D01*
X137109816Y-116256097D01*
X137109805Y-116256212D01*
X137112976Y-116288298D01*
X137119373Y-116353478D01*
X137119429Y-116353583D01*
X137135616Y-116517352D01*
X137135613Y-116517363D01*
X137140890Y-116570708D01*
X137145251Y-116614829D01*
X137145255Y-116614842D01*
X137145256Y-116614852D01*
X137151593Y-116635710D01*
X137173721Y-116708566D01*
X137173729Y-116708575D01*
X137239651Y-116925572D01*
X137249082Y-116956719D01*
X137249156Y-116956857D01*
X137249200Y-116957003D01*
X137264176Y-116984994D01*
X137371355Y-117185764D01*
X137371356Y-117185776D01*
X137402851Y-117244764D01*
X137417484Y-117272175D01*
X137417491Y-117272183D01*
X137417497Y-117272195D01*
X137441631Y-117301630D01*
X137479593Y-117347936D01*
X137479601Y-117347941D01*
X137583969Y-117475232D01*
X137584015Y-117475383D01*
X137625114Y-117525414D01*
X137645982Y-117550866D01*
X137646104Y-117550966D01*
X137646199Y-117551082D01*
X137670618Y-117571103D01*
X137721681Y-117613050D01*
X137721834Y-117613096D01*
X137849124Y-117717464D01*
X137849129Y-117717473D01*
X137891796Y-117752452D01*
X137924867Y-117779567D01*
X137924880Y-117779574D01*
X137924890Y-117779582D01*
X137950775Y-117793400D01*
X138011286Y-117825708D01*
X138011298Y-117825709D01*
X138212393Y-117933060D01*
X138240061Y-117947864D01*
X138240207Y-117947908D01*
X138240347Y-117947983D01*
X138271437Y-117957396D01*
X138488492Y-118023337D01*
X138488500Y-118023344D01*
X138544779Y-118040437D01*
X138582211Y-118051809D01*
X138582225Y-118051810D01*
X138582237Y-118051814D01*
X138614437Y-118054997D01*
X138679700Y-118061452D01*
X138679712Y-118061448D01*
X138843485Y-118077635D01*
X138843589Y-118077691D01*
X138908465Y-118084058D01*
X138940853Y-118087259D01*
X138940968Y-118087248D01*
X138941084Y-118087259D01*
X138973599Y-118084045D01*
X139038350Y-118077690D01*
X139038454Y-118077635D01*
X139202225Y-118061447D01*
X139202236Y-118061450D01*
X139263512Y-118055389D01*
X139299700Y-118051812D01*
X139299712Y-118051808D01*
X139299725Y-118051807D01*
X139335031Y-118041081D01*
X139393437Y-118023341D01*
X139393445Y-118023334D01*
X139610676Y-117957338D01*
X139641587Y-117947979D01*
X139641725Y-117947905D01*
X139641874Y-117947860D01*
X139670134Y-117932740D01*
X139870634Y-117825705D01*
X139870645Y-117825704D01*
X139931148Y-117793400D01*
X139957042Y-117779577D01*
X139957050Y-117779571D01*
X139957064Y-117779563D01*
X139990647Y-117752028D01*
X140032803Y-117717468D01*
X140032808Y-117717459D01*
X140160099Y-117613090D01*
X140160247Y-117613045D01*
X140210442Y-117571813D01*
X140235732Y-117551077D01*
X140235829Y-117550959D01*
X140235947Y-117550862D01*
X140256351Y-117525976D01*
X140297915Y-117475378D01*
X140297961Y-117475227D01*
X140402326Y-117347939D01*
X140402336Y-117347933D01*
X140442397Y-117299065D01*
X140464430Y-117272193D01*
X140464436Y-117272182D01*
X140464444Y-117272172D01*
X140481619Y-117240000D01*
X140510571Y-117185774D01*
X140510572Y-117185763D01*
X140617609Y-116985257D01*
X140632727Y-116957002D01*
X140632772Y-116956854D01*
X140632845Y-116956717D01*
X140642177Y-116925895D01*
X140708199Y-116708572D01*
X140708206Y-116708564D01*
X140727066Y-116646467D01*
X140736671Y-116614852D01*
X140736672Y-116614839D01*
X140736676Y-116614827D01*
X140741037Y-116570708D01*
X140746314Y-116517363D01*
X140746310Y-116517351D01*
X140762497Y-116353583D01*
X140762553Y-116353478D01*
X140768930Y-116288494D01*
X140772121Y-116256212D01*
X140772110Y-116256096D01*
X140772121Y-116255981D01*
X140768943Y-116223827D01*
X140762553Y-116158715D01*
X140762497Y-116158610D01*
X140746310Y-115994842D01*
X140746313Y-115994831D01*
X140740177Y-115932794D01*
X140736675Y-115897366D01*
X140736671Y-115897354D01*
X140736670Y-115897341D01*
X140725337Y-115860036D01*
X140708205Y-115803629D01*
X140708198Y-115803620D01*
X140642160Y-115586246D01*
X140632844Y-115555478D01*
X140632771Y-115555341D01*
X140632726Y-115555193D01*
X140617426Y-115526597D01*
X140510572Y-115326434D01*
X140510571Y-115326422D01*
X140478740Y-115266805D01*
X140464443Y-115240023D01*
X140464436Y-115240015D01*
X140464430Y-115240003D01*
X140435182Y-115204330D01*
X140402335Y-115164262D01*
X140402325Y-115164257D01*
X140297960Y-115036968D01*
X140297914Y-115036815D01*
X140256350Y-114986217D01*
X140235948Y-114961334D01*
X140235829Y-114961236D01*
X140235731Y-114961117D01*
X140210641Y-114940546D01*
X140160248Y-114899150D01*
X140160097Y-114899104D01*
X140032809Y-114794740D01*
X140032803Y-114794728D01*
X139978473Y-114750189D01*
X139957061Y-114732633D01*
X139957052Y-114732628D01*
X139957042Y-114732620D01*
X139923382Y-114714651D01*
X139870643Y-114686492D01*
X139870633Y-114686491D01*
X139669806Y-114579281D01*
X139641874Y-114564336D01*
X139641728Y-114564292D01*
X139641588Y-114564217D01*
X139610701Y-114554866D01*
X139393445Y-114488862D01*
X139393437Y-114488855D01*
X139335031Y-114471115D01*
X139299725Y-114460389D01*
X139299712Y-114460388D01*
X139299700Y-114460384D01*
X139263512Y-114456807D01*
X139202236Y-114450746D01*
X139202225Y-114450749D01*
X139038454Y-114434561D01*
X139038350Y-114434506D01*
X138989312Y-114429693D01*
X138973410Y-114426530D01*
X138957200Y-114426530D01*
X138941084Y-114424937D01*
X138940968Y-114424948D01*
X138940853Y-114424937D01*
X138924736Y-114426530D01*
X138908526Y-114426530D01*
X138892627Y-114429692D01*
X138843589Y-114434505D01*
X138843485Y-114434561D01*
X138679712Y-114450748D01*
X138679700Y-114450744D01*
X138614437Y-114457199D01*
X138582237Y-114460382D01*
X138582225Y-114460386D01*
X138582211Y-114460387D01*
X138544779Y-114471759D01*
X138488500Y-114488852D01*
X138488492Y-114488859D01*
X138270783Y-114554999D01*
X138240347Y-114564214D01*
X138240212Y-114564286D01*
X138240061Y-114564332D01*
X138211532Y-114579597D01*
X138011301Y-114686487D01*
X138011287Y-114686488D01*
X137944351Y-114722227D01*
X137924891Y-114732615D01*
X137924885Y-114732620D01*
X137924868Y-114732629D01*
X137890338Y-114760940D01*
X137849129Y-114794723D01*
X137849123Y-114794733D01*
X137721835Y-114899100D01*
X137721682Y-114899146D01*
X137670975Y-114940801D01*
X137646200Y-114961114D01*
X137646103Y-114961233D01*
X137645984Y-114961330D01*
X137625566Y-114986233D01*
X137584016Y-115036813D01*
X137583970Y-115036965D01*
X137479604Y-115164254D01*
X137479594Y-115164259D01*
X137441632Y-115210565D01*
X137417499Y-115239999D01*
X137417493Y-115240010D01*
X137417485Y-115240020D01*
X137402851Y-115267433D01*
X137371358Y-115326418D01*
X137371357Y-115326428D01*
X137264427Y-115526733D01*
X137249201Y-115555190D01*
X137249156Y-115555338D01*
X137249083Y-115555475D01*
X137239770Y-115586235D01*
X137173729Y-115803619D01*
X137173721Y-115803628D01*
X137154860Y-115865728D01*
X137145256Y-115897341D01*
X137145255Y-115897352D01*
X137145251Y-115897365D01*
X137141690Y-115933388D01*
X137135613Y-115994830D01*
X137135616Y-115994841D01*
X137119429Y-116158611D01*
X137119373Y-116158716D01*
X137112976Y-116223896D01*
X137109805Y-116255982D01*
X123431912Y-116255982D01*
X123941688Y-115746207D01*
X123971372Y-115726373D01*
X123991207Y-115696688D01*
X123991210Y-115696685D01*
X124049967Y-115608748D01*
X124077566Y-115470000D01*
X124070600Y-115434980D01*
X124070600Y-114258600D01*
X126437527Y-114258600D01*
X126437527Y-115658600D01*
X126459212Y-115767616D01*
X126520964Y-115860036D01*
X126613384Y-115921788D01*
X126722400Y-115943473D01*
X128322400Y-115943473D01*
X128431416Y-115921788D01*
X128523836Y-115860036D01*
X128585588Y-115767616D01*
X128607273Y-115658600D01*
X128607273Y-115314200D01*
X133637527Y-115314200D01*
X133637527Y-115658600D01*
X133659212Y-115767616D01*
X133720964Y-115860036D01*
X133813384Y-115921788D01*
X133922400Y-115943473D01*
X135522400Y-115943473D01*
X135631416Y-115921788D01*
X135723836Y-115860036D01*
X135785588Y-115767616D01*
X135807273Y-115658600D01*
X135807273Y-114258600D01*
X135785588Y-114149584D01*
X135723836Y-114057164D01*
X135631416Y-113995412D01*
X135522400Y-113973727D01*
X135211393Y-113973727D01*
X135268400Y-113836100D01*
X135268400Y-113623900D01*
X135187195Y-113427853D01*
X135037147Y-113277805D01*
X134841100Y-113196600D01*
X134628900Y-113196600D01*
X134432853Y-113277805D01*
X134282805Y-113427853D01*
X134201600Y-113623900D01*
X134201600Y-113836100D01*
X134258607Y-113973727D01*
X133922400Y-113973727D01*
X133813384Y-113995412D01*
X133720964Y-114057164D01*
X133659212Y-114149584D01*
X133637527Y-114258600D01*
X133637527Y-114603000D01*
X128607273Y-114603000D01*
X128607273Y-114258600D01*
X128585588Y-114149584D01*
X128523836Y-114057164D01*
X128431416Y-113995412D01*
X128322400Y-113973727D01*
X126722400Y-113973727D01*
X126613384Y-113995412D01*
X126520964Y-114057164D01*
X126459212Y-114149584D01*
X126437527Y-114258600D01*
X124070600Y-114258600D01*
X124070600Y-109847294D01*
X124362295Y-109555600D01*
X131487706Y-109555600D01*
X131719400Y-109787295D01*
X131719401Y-110071257D01*
X131622805Y-110167853D01*
X131541600Y-110363900D01*
X131541600Y-110576100D01*
X131622805Y-110772147D01*
X131772853Y-110922195D01*
X131968900Y-111003400D01*
X132105506Y-111003400D01*
X132589401Y-111487296D01*
X132589400Y-112114980D01*
X132582434Y-112150000D01*
X132595483Y-112215600D01*
X132610033Y-112288747D01*
X132688627Y-112406372D01*
X132718315Y-112426209D01*
X133308791Y-113016686D01*
X133328627Y-113046373D01*
X133358314Y-113066209D01*
X133358315Y-113066210D01*
X133446252Y-113124967D01*
X133585000Y-113152566D01*
X133620020Y-113145600D01*
X140039980Y-113145600D01*
X140075000Y-113152566D01*
X140110020Y-113145600D01*
X140213748Y-113124967D01*
X140331373Y-113046373D01*
X140351211Y-113016683D01*
X140829485Y-112538409D01*
X140859173Y-112518573D01*
X140937767Y-112400948D01*
X140958400Y-112297220D01*
X140965366Y-112262200D01*
X140958400Y-112227180D01*
X140958400Y-111365267D01*
X140961816Y-111364588D01*
X141054236Y-111302836D01*
X141115988Y-111210416D01*
X141137673Y-111101400D01*
X141137673Y-110601400D01*
X141115988Y-110492384D01*
X141088604Y-110451400D01*
X141115988Y-110410416D01*
X141137673Y-110301400D01*
X141137673Y-109801400D01*
X141115988Y-109692384D01*
X141088604Y-109651400D01*
X141115988Y-109610416D01*
X141137673Y-109501400D01*
X141137673Y-109001400D01*
X141115988Y-108892384D01*
X141054236Y-108799964D01*
X140961816Y-108738212D01*
X140852800Y-108716527D01*
X140352800Y-108716527D01*
X140243784Y-108738212D01*
X140190014Y-108774140D01*
X140051100Y-108716600D01*
X139838900Y-108716600D01*
X139642853Y-108797805D01*
X139492805Y-108947853D01*
X139411600Y-109143900D01*
X139411600Y-109356100D01*
X139492805Y-109552147D01*
X139642853Y-109702195D01*
X139823917Y-109777194D01*
X139797227Y-109795027D01*
X139777390Y-109824716D01*
X139698315Y-109903791D01*
X139668628Y-109923627D01*
X139648792Y-109953314D01*
X139648790Y-109953316D01*
X139590033Y-110041253D01*
X139562434Y-110180000D01*
X139569401Y-110215025D01*
X139569400Y-111912705D01*
X139437706Y-112044400D01*
X134062294Y-112044400D01*
X133720600Y-111702706D01*
X133720600Y-110878742D01*
X133815442Y-110783900D01*
X136841600Y-110783900D01*
X136841600Y-110996100D01*
X136922805Y-111192147D01*
X137072853Y-111342195D01*
X137268900Y-111423400D01*
X137481100Y-111423400D01*
X137677147Y-111342195D01*
X137729391Y-111289951D01*
X137751364Y-111322836D01*
X137843784Y-111384588D01*
X137952800Y-111406273D01*
X138452800Y-111406273D01*
X138561816Y-111384588D01*
X138654236Y-111322836D01*
X138715988Y-111230416D01*
X138737673Y-111121400D01*
X138737673Y-110621400D01*
X138715988Y-110512384D01*
X138681922Y-110461400D01*
X138715988Y-110410416D01*
X138737673Y-110301400D01*
X138737673Y-109801400D01*
X138715988Y-109692384D01*
X138654236Y-109599964D01*
X138561816Y-109538212D01*
X138452800Y-109516527D01*
X137952800Y-109516527D01*
X137843784Y-109538212D01*
X137772464Y-109585865D01*
X137581100Y-109506600D01*
X137368900Y-109506600D01*
X137172853Y-109587805D01*
X137022805Y-109737853D01*
X136941600Y-109933900D01*
X136941600Y-110146100D01*
X137022805Y-110342147D01*
X137105104Y-110424446D01*
X137072853Y-110437805D01*
X136922805Y-110587853D01*
X136841600Y-110783900D01*
X133815442Y-110783900D01*
X133817195Y-110782147D01*
X133898400Y-110586100D01*
X133898400Y-110373900D01*
X133817195Y-110177853D01*
X133720600Y-110081258D01*
X133720600Y-109745019D01*
X133727566Y-109709999D01*
X133699967Y-109571252D01*
X133641210Y-109483315D01*
X133641207Y-109483312D01*
X133621372Y-109453627D01*
X133591688Y-109433793D01*
X132751210Y-108593316D01*
X132746521Y-108586297D01*
X132761373Y-108576373D01*
X132781211Y-108546683D01*
X132993994Y-108333900D01*
X136931600Y-108333900D01*
X136931600Y-108546100D01*
X137012805Y-108742147D01*
X137162853Y-108892195D01*
X137358900Y-108973400D01*
X137571100Y-108973400D01*
X137749217Y-108899622D01*
X137751364Y-108902836D01*
X137843784Y-108964588D01*
X137952800Y-108986273D01*
X138452800Y-108986273D01*
X138561816Y-108964588D01*
X138654236Y-108902836D01*
X138715988Y-108810416D01*
X138737673Y-108701400D01*
X138737673Y-108201400D01*
X138715988Y-108092384D01*
X138654236Y-107999964D01*
X138561816Y-107938212D01*
X138452800Y-107916527D01*
X137952800Y-107916527D01*
X137843784Y-107938212D01*
X137768114Y-107988772D01*
X137767147Y-107987805D01*
X137571100Y-107906600D01*
X137358900Y-107906600D01*
X137162853Y-107987805D01*
X137012805Y-108137853D01*
X136931600Y-108333900D01*
X132993994Y-108333900D01*
X133781683Y-107546211D01*
X133811373Y-107526373D01*
X133889967Y-107408748D01*
X133910600Y-107305020D01*
X133917566Y-107270001D01*
X133910600Y-107234982D01*
X133910600Y-104737501D01*
X138808500Y-104737501D01*
X138808500Y-104913299D01*
X138875776Y-105075716D01*
X139000084Y-105200024D01*
X139162501Y-105267300D01*
X139338299Y-105267300D01*
X139500716Y-105200024D01*
X139625024Y-105075716D01*
X139692300Y-104913299D01*
X139692300Y-104737501D01*
X139625024Y-104575084D01*
X139500716Y-104450776D01*
X139338299Y-104383500D01*
X139162501Y-104383500D01*
X139000084Y-104450776D01*
X138875776Y-104575084D01*
X138808500Y-104737501D01*
X133910600Y-104737501D01*
X133910600Y-99188742D01*
X134007195Y-99092147D01*
X134088400Y-98896100D01*
X134088400Y-98683900D01*
X134007195Y-98487853D01*
X133857147Y-98337805D01*
X133661100Y-98256600D01*
X133448900Y-98256600D01*
X133252853Y-98337805D01*
X133102805Y-98487853D01*
X133021600Y-98683900D01*
X133021600Y-98896100D01*
X133102805Y-99092147D01*
X133199400Y-99188742D01*
X133199401Y-107122705D01*
X132800600Y-107521506D01*
X132800600Y-99188742D01*
X132897195Y-99092147D01*
X132978400Y-98896100D01*
X132978400Y-98683900D01*
X132897195Y-98487853D01*
X132747147Y-98337805D01*
X132551100Y-98256600D01*
X132338900Y-98256600D01*
X132142853Y-98337805D01*
X131992805Y-98487853D01*
X131911600Y-98683900D01*
X131911600Y-98896100D01*
X131992805Y-99092147D01*
X132089401Y-99188743D01*
X132089400Y-105835019D01*
X132089401Y-105835024D01*
X132089400Y-107452705D01*
X131997706Y-107544400D01*
X123070020Y-107544400D01*
X123035000Y-107537434D01*
X122896252Y-107565033D01*
X122813747Y-107620161D01*
X122778627Y-107643627D01*
X122758791Y-107673314D01*
X121998315Y-108433791D01*
X121968628Y-108453627D01*
X121948792Y-108483314D01*
X121948790Y-108483316D01*
X121890033Y-108571253D01*
X121862434Y-108710000D01*
X121869401Y-108745025D01*
X121869400Y-111442705D01*
X121807706Y-111504400D01*
X119573742Y-111504400D01*
X119477147Y-111407805D01*
X119281100Y-111326600D01*
X119068900Y-111326600D01*
X118872853Y-111407805D01*
X118722805Y-111557853D01*
X118641600Y-111753900D01*
X118641600Y-111936600D01*
X118628900Y-111936600D01*
X118432853Y-112017805D01*
X118282805Y-112167853D01*
X118201600Y-112363900D01*
X118201600Y-112576100D01*
X118282805Y-112772147D01*
X118432853Y-112922195D01*
X118628900Y-113003400D01*
X118841100Y-113003400D01*
X119037147Y-112922195D01*
X119133742Y-112825600D01*
X122269980Y-112825600D01*
X122305000Y-112832566D01*
X122340020Y-112825600D01*
X122443748Y-112804967D01*
X122561373Y-112726373D01*
X122581211Y-112696683D01*
X122939400Y-112338494D01*
X122939400Y-113802705D01*
X122647706Y-114094400D01*
X119000014Y-114094400D01*
X118964999Y-114087435D01*
X118929984Y-114094400D01*
X118929980Y-114094400D01*
X118826252Y-114115033D01*
X118708627Y-114193627D01*
X118688790Y-114223316D01*
X118419235Y-114492871D01*
X118389548Y-114512707D01*
X118369712Y-114542394D01*
X118369710Y-114542396D01*
X118310953Y-114630333D01*
X118283354Y-114769080D01*
X118290321Y-114804105D01*
X118290321Y-115277107D01*
X118286510Y-115277107D01*
X118177494Y-115298792D01*
X118085074Y-115360544D01*
X118023322Y-115452964D01*
X118012752Y-115506100D01*
X116223995Y-115506100D01*
X115660599Y-114942705D01*
X115660599Y-113745013D01*
X115667564Y-113709998D01*
X115660599Y-113674983D01*
X115660599Y-113674979D01*
X115645410Y-113598620D01*
X115645410Y-110282484D01*
X116614494Y-109313400D01*
X116751100Y-109313400D01*
X116947147Y-109232195D01*
X117097195Y-109082147D01*
X117178400Y-108886100D01*
X117178400Y-108673900D01*
X117097195Y-108477853D01*
X117000600Y-108381258D01*
X117000600Y-104977294D01*
X117642294Y-104335600D01*
X125539980Y-104335600D01*
X125575000Y-104342566D01*
X125610020Y-104335600D01*
X125713748Y-104314967D01*
X125831373Y-104236373D01*
X125851211Y-104206683D01*
X126641685Y-103416209D01*
X126671372Y-103396373D01*
X126749967Y-103278748D01*
X126770600Y-103175020D01*
X126770600Y-103175016D01*
X126777565Y-103140001D01*
X126770600Y-103104986D01*
X126770600Y-97808742D01*
X126867195Y-97712147D01*
X126948400Y-97516100D01*
X126948400Y-97303900D01*
X126867195Y-97107853D01*
X126717147Y-96957805D01*
X126521100Y-96876600D01*
X126308900Y-96876600D01*
X126112853Y-96957805D01*
X125962805Y-97107853D01*
X125881600Y-97303900D01*
X125881600Y-97516100D01*
X125962805Y-97712147D01*
X126059401Y-97808743D01*
X126059401Y-98008028D01*
X125911100Y-97946600D01*
X125698900Y-97946600D01*
X125502853Y-98027805D01*
X125352805Y-98177853D01*
X125271600Y-98373900D01*
X125271600Y-98506600D01*
X125098900Y-98506600D01*
X124902853Y-98587805D01*
X124752805Y-98737853D01*
X124671600Y-98933900D01*
X124671600Y-99146100D01*
X124752805Y-99342147D01*
X124839400Y-99428742D01*
X124839401Y-102502704D01*
X124627706Y-102714400D01*
X113870019Y-102714400D01*
X113834999Y-102707434D01*
X113696252Y-102735033D01*
X113578627Y-102813627D01*
X113558790Y-102843316D01*
X112198315Y-104203791D01*
X112168627Y-104223628D01*
X112148791Y-104253315D01*
X112148790Y-104253316D01*
X112090033Y-104341253D01*
X112062434Y-104480000D01*
X112069400Y-104515020D01*
X112069401Y-113411257D01*
X111972805Y-113507853D01*
X111891600Y-113703900D01*
X111891600Y-113916100D01*
X111925991Y-113999127D01*
X111646600Y-113999127D01*
X111537584Y-114020812D01*
X111445164Y-114082564D01*
X111383412Y-114174984D01*
X111361727Y-114284000D01*
X111361727Y-114628400D01*
X106331473Y-114628400D01*
X106331473Y-114284000D01*
X106309788Y-114174984D01*
X106248036Y-114082564D01*
X106155616Y-114020812D01*
X106046600Y-113999127D01*
X104446600Y-113999127D01*
X104337584Y-114020812D01*
X104245164Y-114082564D01*
X104183412Y-114174984D01*
X104161727Y-114284000D01*
X99020109Y-114284000D01*
X99020109Y-87701718D01*
X106622259Y-87701718D01*
X106623853Y-87718190D01*
X106623852Y-107293977D01*
X106622259Y-107310438D01*
X106623852Y-107326334D01*
X106623852Y-107342314D01*
X106627080Y-107358540D01*
X106632414Y-107411767D01*
X106632239Y-107412354D01*
X106638933Y-107476818D01*
X106642121Y-107508632D01*
X106642296Y-107509204D01*
X106642357Y-107509795D01*
X106651764Y-107540227D01*
X106670719Y-107602330D01*
X106671097Y-107602789D01*
X106689111Y-107661043D01*
X106699948Y-107696099D01*
X106699957Y-107696115D01*
X106699961Y-107696129D01*
X106715362Y-107724573D01*
X106746585Y-107782252D01*
X106746597Y-107782261D01*
X106775987Y-107836542D01*
X106791118Y-107864701D01*
X106791452Y-107865106D01*
X106791700Y-107865564D01*
X106811961Y-107889983D01*
X106891975Y-107987041D01*
X106911997Y-108011548D01*
X106912566Y-108012017D01*
X106913035Y-108012586D01*
X106937507Y-108032578D01*
X107034600Y-108112622D01*
X107059019Y-108132883D01*
X107059477Y-108133131D01*
X107059882Y-108133465D01*
X107088041Y-108148596D01*
X107142322Y-108177986D01*
X107142331Y-108177998D01*
X107199260Y-108208815D01*
X107228454Y-108224622D01*
X107228468Y-108224626D01*
X107228484Y-108224635D01*
X107261907Y-108234967D01*
X107321794Y-108253486D01*
X107322253Y-108253864D01*
X107384290Y-108272799D01*
X107414787Y-108282226D01*
X107415379Y-108282287D01*
X107415951Y-108282462D01*
X107447755Y-108285649D01*
X107512229Y-108292344D01*
X107512816Y-108292169D01*
X107566042Y-108297504D01*
X107582268Y-108300731D01*
X107598247Y-108300731D01*
X107614143Y-108302324D01*
X107630605Y-108300731D01*
X110827559Y-108300731D01*
X110844020Y-108302324D01*
X110859916Y-108300731D01*
X110875897Y-108300731D01*
X110892124Y-108297503D01*
X110945349Y-108292169D01*
X110945936Y-108292344D01*
X111010400Y-108285650D01*
X111042214Y-108282462D01*
X111042786Y-108282287D01*
X111043377Y-108282226D01*
X111073809Y-108272819D01*
X111135912Y-108253864D01*
X111136371Y-108253486D01*
X111196257Y-108234967D01*
X111229681Y-108224635D01*
X111229697Y-108224626D01*
X111229711Y-108224622D01*
X111258905Y-108208815D01*
X111315834Y-108177998D01*
X111315843Y-108177986D01*
X111370124Y-108148596D01*
X111398283Y-108133465D01*
X111398688Y-108133131D01*
X111399146Y-108132883D01*
X111423565Y-108112622D01*
X111520623Y-108032608D01*
X111545130Y-108012586D01*
X111545599Y-108012017D01*
X111546168Y-108011548D01*
X111566160Y-107987076D01*
X111646204Y-107889983D01*
X111666465Y-107865564D01*
X111666713Y-107865106D01*
X111667047Y-107864701D01*
X111682178Y-107836542D01*
X111711568Y-107782261D01*
X111711580Y-107782252D01*
X111742803Y-107724573D01*
X111758204Y-107696129D01*
X111758208Y-107696115D01*
X111758217Y-107696099D01*
X111769054Y-107661043D01*
X111787068Y-107602789D01*
X111787446Y-107602330D01*
X111806381Y-107540293D01*
X111815808Y-107509796D01*
X111815869Y-107509204D01*
X111816044Y-107508632D01*
X111819231Y-107476828D01*
X111825926Y-107412354D01*
X111825751Y-107411767D01*
X111831086Y-107358541D01*
X111834313Y-107342315D01*
X111834313Y-107326336D01*
X111835906Y-107310440D01*
X111834313Y-107293978D01*
X111834313Y-95130007D01*
X121836838Y-95130007D01*
X121836838Y-95342207D01*
X121918043Y-95538254D01*
X122068091Y-95688302D01*
X122264138Y-95769507D01*
X122476338Y-95769507D01*
X122672385Y-95688302D01*
X122768187Y-95592500D01*
X127000006Y-95592500D01*
X127950589Y-96543083D01*
X127970427Y-96572773D01*
X128038933Y-96618547D01*
X128088052Y-96651367D01*
X128226800Y-96678966D01*
X128261820Y-96672000D01*
X130571258Y-96672000D01*
X130667853Y-96768595D01*
X130863900Y-96849800D01*
X131076100Y-96849800D01*
X131272147Y-96768595D01*
X131422195Y-96618547D01*
X131503400Y-96422500D01*
X131503400Y-96210300D01*
X131422195Y-96014253D01*
X131272147Y-95864205D01*
X131076100Y-95783000D01*
X130863900Y-95783000D01*
X130667853Y-95864205D01*
X130571258Y-95960800D01*
X128374094Y-95960800D01*
X127423510Y-95010216D01*
X127403673Y-94980527D01*
X127286048Y-94901933D01*
X127182320Y-94881300D01*
X127147300Y-94874334D01*
X127112280Y-94881300D01*
X126179161Y-94881300D01*
X126344547Y-94812795D01*
X126494595Y-94662747D01*
X126575800Y-94466700D01*
X126575800Y-94254500D01*
X126494595Y-94058453D01*
X126344547Y-93908405D01*
X126148500Y-93827200D01*
X125936300Y-93827200D01*
X125740253Y-93908405D01*
X125643658Y-94005000D01*
X125478494Y-94005000D01*
X127840695Y-91642800D01*
X129326658Y-91642800D01*
X129423253Y-91739395D01*
X129619300Y-91820600D01*
X129831500Y-91820600D01*
X130027547Y-91739395D01*
X130177595Y-91589347D01*
X130258800Y-91393300D01*
X130258800Y-91312600D01*
X130364900Y-91312600D01*
X130560947Y-91231395D01*
X130710995Y-91081347D01*
X130792200Y-90885300D01*
X130792200Y-90673100D01*
X130710995Y-90477053D01*
X130560947Y-90327005D01*
X130364900Y-90245800D01*
X130152700Y-90245800D01*
X129956653Y-90327005D01*
X129860058Y-90423600D01*
X129623859Y-90423600D01*
X129674600Y-90301100D01*
X129674600Y-90088900D01*
X129593395Y-89892853D01*
X129443347Y-89742805D01*
X129247300Y-89661600D01*
X129157943Y-89661600D01*
X129166600Y-89640700D01*
X129166600Y-89428500D01*
X129085395Y-89232453D01*
X128935347Y-89082405D01*
X128739300Y-89001200D01*
X128527100Y-89001200D01*
X128331053Y-89082405D01*
X128234458Y-89179000D01*
X127645418Y-89179000D01*
X127610399Y-89172034D01*
X127575380Y-89179000D01*
X127471652Y-89199633D01*
X127354027Y-89278227D01*
X127334189Y-89307917D01*
X124260166Y-92381940D01*
X123215342Y-92381940D01*
X123118747Y-92285345D01*
X122922700Y-92204140D01*
X122710500Y-92204140D01*
X122514453Y-92285345D01*
X122364405Y-92435393D01*
X122283200Y-92631440D01*
X122283200Y-92704195D01*
X122279134Y-92704195D01*
X122083087Y-92785400D01*
X121933039Y-92935448D01*
X121851834Y-93131495D01*
X121851834Y-93343695D01*
X121933039Y-93539742D01*
X122083087Y-93689790D01*
X122194512Y-93735943D01*
X122072493Y-93786485D01*
X121922445Y-93936533D01*
X121841240Y-94132580D01*
X121841240Y-94344780D01*
X121922445Y-94540827D01*
X122072493Y-94690875D01*
X122182598Y-94736482D01*
X122068091Y-94783912D01*
X121918043Y-94933960D01*
X121836838Y-95130007D01*
X111834313Y-95130007D01*
X111834313Y-87718179D01*
X111835906Y-87701717D01*
X111834313Y-87685821D01*
X111834313Y-87669842D01*
X111831086Y-87653616D01*
X111825752Y-87600391D01*
X111825926Y-87599805D01*
X111819235Y-87535363D01*
X111816044Y-87503526D01*
X111815869Y-87502954D01*
X111815808Y-87502363D01*
X111806405Y-87471944D01*
X111787446Y-87409827D01*
X111787068Y-87409368D01*
X111768339Y-87348803D01*
X111758217Y-87316058D01*
X111758208Y-87316042D01*
X111758204Y-87316028D01*
X111742803Y-87287583D01*
X111711581Y-87229906D01*
X111711569Y-87229896D01*
X111682178Y-87175615D01*
X111667047Y-87147456D01*
X111666713Y-87147051D01*
X111666465Y-87146593D01*
X111646204Y-87122174D01*
X111566123Y-87025036D01*
X111546166Y-87000608D01*
X111545601Y-87000142D01*
X111545130Y-86999571D01*
X111520512Y-86979459D01*
X111423667Y-86899620D01*
X111399148Y-86879276D01*
X111398686Y-86879026D01*
X111398281Y-86878692D01*
X111370205Y-86863605D01*
X111315844Y-86834171D01*
X111315834Y-86834159D01*
X111257648Y-86802662D01*
X111229713Y-86787536D01*
X111229699Y-86787532D01*
X111229681Y-86787522D01*
X111191931Y-86775853D01*
X111136372Y-86758672D01*
X111135912Y-86758293D01*
X111073809Y-86739338D01*
X111043377Y-86729931D01*
X111042786Y-86729870D01*
X111042214Y-86729695D01*
X111010400Y-86726507D01*
X110945936Y-86719813D01*
X110945349Y-86719988D01*
X110892124Y-86714654D01*
X110875897Y-86711426D01*
X110859916Y-86711426D01*
X110844020Y-86709833D01*
X110827559Y-86711426D01*
X107630605Y-86711426D01*
X107614143Y-86709833D01*
X107598247Y-86711426D01*
X107582268Y-86711426D01*
X107566042Y-86714653D01*
X107512816Y-86719988D01*
X107512229Y-86719813D01*
X107447755Y-86726508D01*
X107415951Y-86729695D01*
X107415379Y-86729870D01*
X107414787Y-86729931D01*
X107384290Y-86739358D01*
X107322253Y-86758293D01*
X107321794Y-86758671D01*
X107264589Y-86776361D01*
X107228484Y-86787522D01*
X107228466Y-86787532D01*
X107228452Y-86787536D01*
X107200517Y-86802662D01*
X107142331Y-86834159D01*
X107142321Y-86834171D01*
X107087960Y-86863605D01*
X107059884Y-86878692D01*
X107059479Y-86879026D01*
X107059017Y-86879276D01*
X107034473Y-86899640D01*
X106937525Y-86979563D01*
X106913035Y-86999571D01*
X106912566Y-87000139D01*
X106911998Y-87000608D01*
X106891996Y-87025092D01*
X106811961Y-87122174D01*
X106791700Y-87146593D01*
X106791452Y-87147051D01*
X106791118Y-87147456D01*
X106775987Y-87175615D01*
X106746596Y-87229896D01*
X106746584Y-87229906D01*
X106716385Y-87285694D01*
X106699961Y-87316028D01*
X106699956Y-87316044D01*
X106699948Y-87316059D01*
X106690388Y-87346984D01*
X106671097Y-87409369D01*
X106670719Y-87409828D01*
X106651744Y-87471997D01*
X106642357Y-87502364D01*
X106642296Y-87502953D01*
X106642121Y-87503526D01*
X106638929Y-87535377D01*
X106632239Y-87599805D01*
X106632414Y-87600391D01*
X106627079Y-87653626D01*
X106623853Y-87669842D01*
X106623853Y-87685812D01*
X106622259Y-87701718D01*
X99020109Y-87701718D01*
X99020109Y-79085744D01*
X99034666Y-78795646D01*
X99040657Y-78756175D01*
X99609769Y-78756175D01*
X99610538Y-78763959D01*
X99610142Y-78771772D01*
X99613724Y-78796186D01*
X99635580Y-79017317D01*
X99635577Y-79017328D01*
X99641703Y-79079263D01*
X99645215Y-79114792D01*
X99645219Y-79114805D01*
X99645220Y-79114816D01*
X99654207Y-79144399D01*
X99673685Y-79208529D01*
X99673693Y-79208539D01*
X99739832Y-79426244D01*
X99749047Y-79456680D01*
X99749119Y-79456815D01*
X99749165Y-79456966D01*
X99764430Y-79485495D01*
X99871319Y-79685725D01*
X99871320Y-79685737D01*
X99902817Y-79744728D01*
X99917448Y-79772136D01*
X99917455Y-79772144D01*
X99917461Y-79772156D01*
X99941594Y-79801590D01*
X99979557Y-79847897D01*
X99979565Y-79847901D01*
X100083932Y-79975192D01*
X100083978Y-79975343D01*
X100125085Y-80025385D01*
X100145945Y-80050826D01*
X100146067Y-80050926D01*
X100146162Y-80051042D01*
X100170618Y-80071094D01*
X100221643Y-80113009D01*
X100221796Y-80113055D01*
X100349085Y-80217423D01*
X100349091Y-80217433D01*
X100393736Y-80254033D01*
X100424830Y-80279527D01*
X100424844Y-80279535D01*
X100424852Y-80279541D01*
X100450851Y-80293420D01*
X100511249Y-80325668D01*
X100511261Y-80325669D01*
X100712152Y-80432912D01*
X100740021Y-80447823D01*
X100740167Y-80447867D01*
X100740307Y-80447942D01*
X100771603Y-80457418D01*
X100988450Y-80523297D01*
X100988459Y-80523304D01*
X101046494Y-80540931D01*
X101082170Y-80551769D01*
X101082184Y-80551770D01*
X101082196Y-80551774D01*
X101116106Y-80555126D01*
X101179660Y-80561412D01*
X101179671Y-80561409D01*
X101343442Y-80577596D01*
X101343547Y-80577652D01*
X101408599Y-80584036D01*
X101440812Y-80587220D01*
X101440928Y-80587209D01*
X101441043Y-80587220D01*
X101473222Y-80584039D01*
X101538309Y-80577652D01*
X101538414Y-80577596D01*
X101702185Y-80561409D01*
X101702196Y-80561412D01*
X101764131Y-80555286D01*
X101799660Y-80551774D01*
X101799673Y-80551770D01*
X101799684Y-80551769D01*
X101829267Y-80542782D01*
X101893397Y-80523304D01*
X101893407Y-80523296D01*
X102111112Y-80457157D01*
X102141548Y-80447942D01*
X102141683Y-80447870D01*
X102141834Y-80447824D01*
X102170363Y-80432559D01*
X102370595Y-80325669D01*
X102370606Y-80325668D01*
X102425461Y-80296380D01*
X102457004Y-80279541D01*
X102457014Y-80279533D01*
X102457025Y-80279527D01*
X102485324Y-80256324D01*
X102532765Y-80217432D01*
X102532770Y-80217422D01*
X102660061Y-80113055D01*
X102660211Y-80113009D01*
X102710934Y-80071343D01*
X102735694Y-80051042D01*
X102735789Y-80050926D01*
X102735911Y-80050826D01*
X102756616Y-80025573D01*
X102797878Y-79975344D01*
X102797924Y-79975192D01*
X102902290Y-79847903D01*
X102902300Y-79847897D01*
X102909101Y-79839600D01*
X103964727Y-79839600D01*
X103964727Y-80839600D01*
X103986412Y-80948616D01*
X104048164Y-81041036D01*
X104140584Y-81102788D01*
X104249600Y-81124473D01*
X105749600Y-81124473D01*
X105858616Y-81102788D01*
X105951036Y-81041036D01*
X106012788Y-80948616D01*
X106031600Y-80854043D01*
X106031600Y-80946100D01*
X106112805Y-81142147D01*
X106209400Y-81238742D01*
X106209401Y-83374975D01*
X106202434Y-83410000D01*
X106230033Y-83548747D01*
X106288790Y-83636684D01*
X106288792Y-83636686D01*
X106308628Y-83666373D01*
X106338315Y-83686209D01*
X106808791Y-84156685D01*
X106828627Y-84186373D01*
X106858314Y-84206209D01*
X106858315Y-84206210D01*
X106946252Y-84264967D01*
X107084999Y-84292566D01*
X107120019Y-84285600D01*
X129807706Y-84285600D01*
X130049400Y-84527294D01*
X130049401Y-88314975D01*
X130042434Y-88350000D01*
X130070033Y-88488747D01*
X130128790Y-88576684D01*
X130128792Y-88576686D01*
X130148628Y-88606373D01*
X130178315Y-88626209D01*
X130281600Y-88729494D01*
X130281600Y-88866100D01*
X130362805Y-89062147D01*
X130512853Y-89212195D01*
X130708900Y-89293400D01*
X130921100Y-89293400D01*
X130999401Y-89260967D01*
X130999400Y-94531258D01*
X130902805Y-94627853D01*
X130821600Y-94823900D01*
X130821600Y-95036100D01*
X130902805Y-95232147D01*
X131052853Y-95382195D01*
X131248900Y-95463400D01*
X131461100Y-95463400D01*
X131657147Y-95382195D01*
X131807195Y-95232147D01*
X131888400Y-95036100D01*
X131888400Y-94823900D01*
X131884258Y-94813900D01*
X131911600Y-94813900D01*
X131911600Y-95026100D01*
X131992805Y-95222147D01*
X132142853Y-95372195D01*
X132338900Y-95453400D01*
X132551100Y-95453400D01*
X132747147Y-95372195D01*
X132897195Y-95222147D01*
X132978400Y-95026100D01*
X132978400Y-94813900D01*
X133021600Y-94813900D01*
X133021600Y-95026100D01*
X133102805Y-95222147D01*
X133252853Y-95372195D01*
X133448900Y-95453400D01*
X133661100Y-95453400D01*
X133857147Y-95372195D01*
X134007195Y-95222147D01*
X134088400Y-95026100D01*
X134088400Y-94813900D01*
X134007195Y-94617853D01*
X133910600Y-94521258D01*
X133910600Y-90168541D01*
X134018900Y-90213400D01*
X134231100Y-90213400D01*
X134427147Y-90132195D01*
X134577195Y-89982147D01*
X134658400Y-89786100D01*
X134658400Y-89649494D01*
X139561686Y-84746209D01*
X139591373Y-84726373D01*
X139614840Y-84691253D01*
X139669967Y-84608748D01*
X139697566Y-84470000D01*
X139690600Y-84434980D01*
X139690600Y-82998742D01*
X139787195Y-82902147D01*
X139868400Y-82706100D01*
X139868400Y-82493900D01*
X139787195Y-82297853D01*
X139637147Y-82147805D01*
X139441100Y-82066600D01*
X139228900Y-82066600D01*
X139032853Y-82147805D01*
X138882805Y-82297853D01*
X138801600Y-82493900D01*
X138801600Y-82706100D01*
X138882805Y-82902147D01*
X138979400Y-82998742D01*
X138979401Y-84322704D01*
X134155506Y-89146600D01*
X134018900Y-89146600D01*
X133910600Y-89191459D01*
X133910600Y-85387294D01*
X135041685Y-84256209D01*
X135071372Y-84236373D01*
X135149967Y-84118748D01*
X135170600Y-84015020D01*
X135170600Y-84015019D01*
X135177566Y-83980001D01*
X135170600Y-83944981D01*
X135170600Y-82608742D01*
X135267195Y-82512147D01*
X135348400Y-82316100D01*
X135348400Y-82103900D01*
X135267195Y-81907853D01*
X135117147Y-81757805D01*
X134921100Y-81676600D01*
X134708900Y-81676600D01*
X134512853Y-81757805D01*
X134362805Y-81907853D01*
X134281600Y-82103900D01*
X134281600Y-82316100D01*
X134362805Y-82512147D01*
X134459401Y-82608743D01*
X134459400Y-83832706D01*
X133328315Y-84963791D01*
X133298628Y-84983627D01*
X133278792Y-85013314D01*
X133278790Y-85013316D01*
X133220033Y-85101253D01*
X133192434Y-85240000D01*
X133199401Y-85275025D01*
X133199400Y-94521258D01*
X133102805Y-94617853D01*
X133021600Y-94813900D01*
X132978400Y-94813900D01*
X132897195Y-94617853D01*
X132800600Y-94521258D01*
X132800600Y-84977294D01*
X133771688Y-84006207D01*
X133801372Y-83986373D01*
X133821207Y-83956688D01*
X133821210Y-83956685D01*
X133879967Y-83868748D01*
X133907566Y-83730000D01*
X133900600Y-83694980D01*
X133900600Y-82608742D01*
X133997195Y-82512147D01*
X134078400Y-82316100D01*
X134078400Y-82103900D01*
X133997195Y-81907853D01*
X133847147Y-81757805D01*
X133651100Y-81676600D01*
X133438900Y-81676600D01*
X133242853Y-81757805D01*
X133092805Y-81907853D01*
X133011600Y-82103900D01*
X133011600Y-82316100D01*
X133092805Y-82512147D01*
X133189401Y-82608743D01*
X133189400Y-83582705D01*
X132218315Y-84553791D01*
X132188628Y-84573627D01*
X132168792Y-84603314D01*
X132168790Y-84603316D01*
X132110033Y-84691253D01*
X132082434Y-84830000D01*
X132089401Y-84865025D01*
X132089400Y-94521258D01*
X131992805Y-94617853D01*
X131911600Y-94813900D01*
X131884258Y-94813900D01*
X131807195Y-94627853D01*
X131710600Y-94531258D01*
X131710600Y-84597294D01*
X132501685Y-83806209D01*
X132531372Y-83786373D01*
X132609967Y-83668748D01*
X132630600Y-83565020D01*
X132630600Y-83565016D01*
X132637565Y-83530001D01*
X132630600Y-83494986D01*
X132630600Y-82598742D01*
X132727195Y-82502147D01*
X132808400Y-82306100D01*
X132808400Y-82093900D01*
X132727195Y-81897853D01*
X132577147Y-81747805D01*
X132381100Y-81666600D01*
X132168900Y-81666600D01*
X131972853Y-81747805D01*
X131822805Y-81897853D01*
X131741600Y-82093900D01*
X131741600Y-82306100D01*
X131822805Y-82502147D01*
X131919401Y-82598743D01*
X131919400Y-83382706D01*
X131128315Y-84173791D01*
X131098628Y-84193627D01*
X131078792Y-84223314D01*
X131078790Y-84223316D01*
X131020033Y-84311253D01*
X130992434Y-84450000D01*
X130999401Y-84485025D01*
X130999401Y-88259033D01*
X130921100Y-88226600D01*
X130784494Y-88226600D01*
X130760600Y-88202706D01*
X130760600Y-84415019D01*
X130767566Y-84379999D01*
X130739967Y-84241252D01*
X130681209Y-84153315D01*
X130661372Y-84123627D01*
X130631685Y-84103791D01*
X130231211Y-83703317D01*
X130211373Y-83673627D01*
X130093748Y-83595033D01*
X129990020Y-83574400D01*
X129955000Y-83567434D01*
X129919980Y-83574400D01*
X116361824Y-83574400D01*
X116367147Y-83572195D01*
X116517195Y-83422147D01*
X116598400Y-83226100D01*
X116598400Y-83013900D01*
X116517195Y-82817853D01*
X116367147Y-82667805D01*
X116171100Y-82586600D01*
X115958900Y-82586600D01*
X115762853Y-82667805D01*
X115717058Y-82713600D01*
X112113336Y-82713600D01*
X111991400Y-82591665D01*
X111991400Y-81265898D01*
X121726207Y-81265898D01*
X121791122Y-81504253D01*
X122301146Y-81684812D01*
X122841444Y-81656449D01*
X123208878Y-81504253D01*
X123273793Y-81265898D01*
X126726207Y-81265898D01*
X126791122Y-81504253D01*
X127301146Y-81684812D01*
X127841444Y-81656449D01*
X128208878Y-81504253D01*
X128273793Y-81265898D01*
X127500000Y-80492105D01*
X126726207Y-81265898D01*
X123273793Y-81265898D01*
X122500000Y-80492105D01*
X121726207Y-81265898D01*
X111991400Y-81265898D01*
X111991400Y-80060019D01*
X111999360Y-80020000D01*
X111991400Y-79979978D01*
X111991400Y-79979977D01*
X111967820Y-79861431D01*
X111967820Y-79861430D01*
X111900669Y-79760932D01*
X111900666Y-79760929D01*
X111877997Y-79727003D01*
X111844071Y-79704335D01*
X111118400Y-78978664D01*
X111118400Y-78913900D01*
X111037195Y-78717853D01*
X110887147Y-78567805D01*
X110691100Y-78486600D01*
X110478900Y-78486600D01*
X110282853Y-78567805D01*
X110132805Y-78717853D01*
X110051600Y-78913900D01*
X110051600Y-79126100D01*
X110132805Y-79322147D01*
X110282853Y-79472195D01*
X110478900Y-79553400D01*
X110543664Y-79553400D01*
X111178600Y-80188337D01*
X111178601Y-82719977D01*
X111170640Y-82760000D01*
X111178601Y-82800023D01*
X111202181Y-82918569D01*
X111292004Y-83052997D01*
X111325932Y-83075667D01*
X111629332Y-83379068D01*
X111652003Y-83412997D01*
X111786431Y-83502820D01*
X111904977Y-83526400D01*
X111904982Y-83526400D01*
X111945000Y-83534360D01*
X111985018Y-83526400D01*
X115717058Y-83526400D01*
X115762853Y-83572195D01*
X115768176Y-83574400D01*
X107232295Y-83574400D01*
X106920600Y-83262706D01*
X106920600Y-81238742D01*
X107017195Y-81142147D01*
X107098400Y-80946100D01*
X107098400Y-80733900D01*
X107017195Y-80537853D01*
X106867147Y-80387805D01*
X106671100Y-80306600D01*
X106458900Y-80306600D01*
X106262853Y-80387805D01*
X106112805Y-80537853D01*
X106034473Y-80726964D01*
X106034473Y-79839600D01*
X106012788Y-79730584D01*
X105951036Y-79638164D01*
X105858616Y-79576412D01*
X105749600Y-79554727D01*
X104249600Y-79554727D01*
X104140584Y-79576412D01*
X104048164Y-79638164D01*
X103986412Y-79730584D01*
X103964727Y-79839600D01*
X102909101Y-79839600D01*
X102942361Y-79799029D01*
X102964394Y-79772157D01*
X102964400Y-79772146D01*
X102964408Y-79772136D01*
X102981575Y-79739978D01*
X103010535Y-79685738D01*
X103010536Y-79685727D01*
X103117779Y-79484836D01*
X103132690Y-79456967D01*
X103132734Y-79456821D01*
X103132809Y-79456681D01*
X103142285Y-79425385D01*
X103208164Y-79208538D01*
X103208171Y-79208529D01*
X103227099Y-79146209D01*
X103236636Y-79114818D01*
X103236637Y-79114804D01*
X103236641Y-79114792D01*
X103239993Y-79080882D01*
X103246279Y-79017328D01*
X103246276Y-79017317D01*
X103268133Y-78796185D01*
X103271714Y-78771772D01*
X103271318Y-78763959D01*
X103272087Y-78756176D01*
X103269677Y-78731622D01*
X103263088Y-78601718D01*
X103263835Y-78585008D01*
X103261448Y-78569391D01*
X103260648Y-78553620D01*
X103256560Y-78537408D01*
X103237336Y-78411636D01*
X103234749Y-78387051D01*
X103232445Y-78379634D01*
X103231271Y-78371953D01*
X103222836Y-78348703D01*
X103140528Y-78083747D01*
X103128053Y-78043580D01*
X103128047Y-78043568D01*
X103128045Y-78043563D01*
X103118956Y-78026827D01*
X102974457Y-77760733D01*
X102959455Y-77732853D01*
X102959054Y-77732367D01*
X102958752Y-77731811D01*
X102938431Y-77707380D01*
X102756195Y-77486589D01*
X102736193Y-77462094D01*
X102735518Y-77461537D01*
X102734964Y-77460866D01*
X102710598Y-77440983D01*
X102489543Y-77258658D01*
X102465170Y-77238399D01*
X102464616Y-77238098D01*
X102464128Y-77237696D01*
X102436163Y-77222660D01*
X102178094Y-77082635D01*
X102153361Y-77069213D01*
X102153351Y-77069210D01*
X102153342Y-77069205D01*
X102124784Y-77060346D01*
X101848195Y-76974530D01*
X101824937Y-76966101D01*
X101817253Y-76964929D01*
X101809836Y-76962628D01*
X101785253Y-76960050D01*
X101659471Y-76940869D01*
X101643256Y-76936786D01*
X101627483Y-76935991D01*
X101611867Y-76933610D01*
X101595160Y-76934363D01*
X101481563Y-76928640D01*
X101473370Y-76927010D01*
X101465016Y-76927010D01*
X101456754Y-76925795D01*
X101440928Y-76926592D01*
X101425102Y-76925795D01*
X101416840Y-76927010D01*
X101408486Y-76927010D01*
X101400294Y-76928640D01*
X101286697Y-76934363D01*
X101269989Y-76933610D01*
X101254373Y-76935991D01*
X101238599Y-76936786D01*
X101222382Y-76940870D01*
X101096607Y-76960049D01*
X101072019Y-76962628D01*
X101064600Y-76964930D01*
X101056920Y-76966101D01*
X101033673Y-76974526D01*
X100750652Y-77062338D01*
X100728513Y-77069206D01*
X100728507Y-77069209D01*
X100728495Y-77069213D01*
X100699321Y-77085045D01*
X100445842Y-77222580D01*
X100417727Y-77237696D01*
X100417237Y-77238100D01*
X100416686Y-77238399D01*
X100392430Y-77258561D01*
X100171295Y-77440953D01*
X100146891Y-77460867D01*
X100146337Y-77461538D01*
X100145663Y-77462094D01*
X100125693Y-77486550D01*
X99943520Y-77707267D01*
X99923104Y-77731811D01*
X99922800Y-77732370D01*
X99922401Y-77732854D01*
X99907422Y-77760689D01*
X99762900Y-78026827D01*
X99753811Y-78043563D01*
X99753809Y-78043568D01*
X99753803Y-78043580D01*
X99742546Y-78079827D01*
X99659021Y-78348700D01*
X99650585Y-78371953D01*
X99649411Y-78379636D01*
X99647107Y-78387052D01*
X99644520Y-78411635D01*
X99625297Y-78537408D01*
X99621208Y-78553621D01*
X99620408Y-78569393D01*
X99618021Y-78585010D01*
X99618768Y-78601719D01*
X99612179Y-78731620D01*
X99609769Y-78756175D01*
X99040657Y-78756175D01*
X99076098Y-78522717D01*
X99143422Y-78259723D01*
X99235287Y-78007836D01*
X99350376Y-77768286D01*
X99487355Y-77542399D01*
X99644892Y-77331517D01*
X99821611Y-77137044D01*
X100016122Y-76960373D01*
X100227044Y-76802881D01*
X100452979Y-76665934D01*
X100507816Y-76639600D01*
X103964727Y-76639600D01*
X103964727Y-77639600D01*
X103986412Y-77748616D01*
X104048164Y-77841036D01*
X104140584Y-77902788D01*
X104249600Y-77924473D01*
X104486215Y-77924473D01*
X104461600Y-77983900D01*
X104461600Y-78196100D01*
X104542805Y-78392147D01*
X104692853Y-78542195D01*
X104888900Y-78623400D01*
X105101100Y-78623400D01*
X105297147Y-78542195D01*
X105447195Y-78392147D01*
X105528400Y-78196100D01*
X105528400Y-77983900D01*
X105503785Y-77924473D01*
X105749600Y-77924473D01*
X105858616Y-77902788D01*
X105951036Y-77841036D01*
X106012788Y-77748616D01*
X106034473Y-77639600D01*
X106034473Y-76639600D01*
X106012788Y-76530584D01*
X105951036Y-76438164D01*
X105858616Y-76376412D01*
X105749600Y-76354727D01*
X104249600Y-76354727D01*
X104140584Y-76376412D01*
X104048164Y-76438164D01*
X103986412Y-76530584D01*
X103964727Y-76639600D01*
X100507816Y-76639600D01*
X100692574Y-76550876D01*
X100944505Y-76459035D01*
X101207542Y-76391729D01*
X101480494Y-76350310D01*
X101770592Y-76335757D01*
X120686443Y-76335757D01*
X120407610Y-76672553D01*
X120407610Y-76672553D01*
G37*
X120407610Y-76672553D02*
X120265000Y-77135500D01*
X120265000Y-77485500D01*
X121373000Y-77485500D01*
X121373000Y-77465500D01*
X121627000Y-77465500D01*
X121627000Y-77485500D01*
X122735000Y-77485500D01*
X122735000Y-77135500D01*
X122592390Y-76672553D01*
X122313557Y-76335757D01*
X127686443Y-76335757D01*
X127407610Y-76672553D01*
X127265000Y-77135500D01*
X127265000Y-77485500D01*
X128373000Y-77485500D01*
X128373000Y-77465500D01*
X128627000Y-77465500D01*
X128627000Y-77485500D01*
X128647000Y-77485500D01*
X128647000Y-77739500D01*
X128627000Y-77739500D01*
X128627000Y-77759500D01*
X128373000Y-77759500D01*
X128373000Y-77739500D01*
X127265000Y-77739500D01*
X127265000Y-78089500D01*
X127395890Y-78514400D01*
X122604110Y-78514400D01*
X122735000Y-78089500D01*
X122735000Y-77739500D01*
X121627000Y-77739500D01*
X121627000Y-77759500D01*
X121373000Y-77759500D01*
X121373000Y-77739500D01*
X120265000Y-77739500D01*
X120265000Y-78089500D01*
X120395890Y-78514400D01*
X120052294Y-78514400D01*
X118803812Y-77265918D01*
X118783974Y-77236228D01*
X118666349Y-77157634D01*
X118562621Y-77137001D01*
X118527601Y-77130035D01*
X118492581Y-77137001D01*
X111884896Y-77137001D01*
X111858400Y-77110505D01*
X111858400Y-76973900D01*
X111777195Y-76777853D01*
X111627147Y-76627805D01*
X111431100Y-76546600D01*
X111218900Y-76546600D01*
X111022853Y-76627805D01*
X110934473Y-76716185D01*
X110934473Y-76639600D01*
X110912788Y-76530584D01*
X110851036Y-76438164D01*
X110758616Y-76376412D01*
X110649600Y-76354727D01*
X109149600Y-76354727D01*
X109040584Y-76376412D01*
X108948164Y-76438164D01*
X108886412Y-76530584D01*
X108864727Y-76639600D01*
X108864727Y-77639600D01*
X108886412Y-77748616D01*
X108948164Y-77841036D01*
X109040584Y-77902788D01*
X109149600Y-77924473D01*
X110406578Y-77924473D01*
X110598791Y-78116686D01*
X110618627Y-78146373D01*
X110648314Y-78166209D01*
X110648315Y-78166210D01*
X110736252Y-78224967D01*
X110875000Y-78252566D01*
X110910020Y-78245600D01*
X117897706Y-78245600D01*
X119118789Y-79466683D01*
X119138627Y-79496373D01*
X119256252Y-79574967D01*
X119359980Y-79595600D01*
X119359984Y-79595600D01*
X119394999Y-79602565D01*
X119430014Y-79595600D01*
X121337702Y-79595600D01*
X121308247Y-79603622D01*
X121127688Y-80113646D01*
X121156051Y-80653944D01*
X121308247Y-81021378D01*
X121546602Y-81086293D01*
X122320395Y-80312500D01*
X122306253Y-80298358D01*
X122485858Y-80118753D01*
X122500000Y-80132895D01*
X122514143Y-80118753D01*
X122693748Y-80298358D01*
X122679605Y-80312500D01*
X123453398Y-81086293D01*
X123691753Y-81021378D01*
X123872312Y-80511354D01*
X123843949Y-79971056D01*
X123691753Y-79603622D01*
X123662298Y-79595600D01*
X126337702Y-79595600D01*
X126308247Y-79603622D01*
X126127688Y-80113646D01*
X126156051Y-80653944D01*
X126308247Y-81021378D01*
X126546602Y-81086293D01*
X127320395Y-80312500D01*
X127306253Y-80298358D01*
X127485858Y-80118753D01*
X127500000Y-80132895D01*
X127514143Y-80118753D01*
X127693748Y-80298358D01*
X127679605Y-80312500D01*
X128453398Y-81086293D01*
X128691753Y-81021378D01*
X128872312Y-80511354D01*
X128843949Y-79971056D01*
X128691753Y-79603622D01*
X128662298Y-79595600D01*
X129575452Y-79595600D01*
X129549764Y-79612764D01*
X129488012Y-79705184D01*
X129466327Y-79814200D01*
X129466327Y-80814200D01*
X129488012Y-80923216D01*
X129549764Y-81015636D01*
X129642184Y-81077388D01*
X129751200Y-81099073D01*
X131251200Y-81099073D01*
X131360216Y-81077388D01*
X131452636Y-81015636D01*
X131514388Y-80923216D01*
X131536073Y-80814200D01*
X131536073Y-79814200D01*
X131514388Y-79705184D01*
X131452636Y-79612764D01*
X131360216Y-79551012D01*
X131251200Y-79529327D01*
X130862399Y-79529327D01*
X130836167Y-79397452D01*
X130777410Y-79309515D01*
X130777409Y-79309514D01*
X130757573Y-79279827D01*
X130727885Y-79259990D01*
X130481211Y-79013317D01*
X130462532Y-78985362D01*
X130691719Y-78756175D01*
X137109805Y-78756175D01*
X137110574Y-78763959D01*
X137110178Y-78771772D01*
X137113760Y-78796186D01*
X137135616Y-79017316D01*
X137135613Y-79017327D01*
X137141690Y-79078769D01*
X137145251Y-79114792D01*
X137145255Y-79114805D01*
X137145256Y-79114816D01*
X137154348Y-79144742D01*
X137173721Y-79208529D01*
X137173729Y-79208538D01*
X137239770Y-79425922D01*
X137249083Y-79456682D01*
X137249156Y-79456819D01*
X137249201Y-79456967D01*
X137264292Y-79485171D01*
X137371357Y-79685729D01*
X137371358Y-79685739D01*
X137395302Y-79730584D01*
X137417485Y-79772137D01*
X137417493Y-79772147D01*
X137417499Y-79772158D01*
X137440702Y-79800457D01*
X137479594Y-79847898D01*
X137479604Y-79847903D01*
X137583970Y-79975192D01*
X137584016Y-79975344D01*
X137625566Y-80025924D01*
X137645984Y-80050827D01*
X137646103Y-80050924D01*
X137646200Y-80051043D01*
X137670975Y-80071356D01*
X137721682Y-80113011D01*
X137721835Y-80113057D01*
X137849123Y-80217424D01*
X137849129Y-80217434D01*
X137890338Y-80251217D01*
X137924868Y-80279528D01*
X137924885Y-80279537D01*
X137924891Y-80279542D01*
X137943097Y-80289261D01*
X138011287Y-80325669D01*
X138011301Y-80325670D01*
X138211532Y-80432560D01*
X138240061Y-80447825D01*
X138240212Y-80447871D01*
X138240347Y-80447943D01*
X138270783Y-80457158D01*
X138488492Y-80523298D01*
X138488500Y-80523305D01*
X138544779Y-80540398D01*
X138582211Y-80551770D01*
X138582225Y-80551771D01*
X138582237Y-80551775D01*
X138614437Y-80554958D01*
X138679700Y-80561413D01*
X138679712Y-80561409D01*
X138843485Y-80577596D01*
X138843589Y-80577652D01*
X138908465Y-80584019D01*
X138940853Y-80587220D01*
X138940968Y-80587209D01*
X138941084Y-80587220D01*
X138973599Y-80584006D01*
X139038350Y-80577651D01*
X139038454Y-80577596D01*
X139202225Y-80561408D01*
X139202236Y-80561411D01*
X139263512Y-80555350D01*
X139299700Y-80551773D01*
X139299712Y-80551769D01*
X139299725Y-80551768D01*
X139335031Y-80541042D01*
X139393437Y-80523302D01*
X139393445Y-80523295D01*
X139610701Y-80457291D01*
X139641588Y-80447940D01*
X139641728Y-80447865D01*
X139641874Y-80447821D01*
X139669806Y-80432876D01*
X139870633Y-80325666D01*
X139870643Y-80325665D01*
X139923382Y-80297506D01*
X139957042Y-80279537D01*
X139957052Y-80279529D01*
X139957061Y-80279524D01*
X139978473Y-80261968D01*
X140032803Y-80217429D01*
X140032809Y-80217417D01*
X140160097Y-80113053D01*
X140160248Y-80113007D01*
X140210641Y-80071611D01*
X140235731Y-80051040D01*
X140235829Y-80050921D01*
X140235948Y-80050823D01*
X140256350Y-80025940D01*
X140297914Y-79975342D01*
X140297960Y-79975189D01*
X140402325Y-79847900D01*
X140402335Y-79847895D01*
X140440443Y-79801410D01*
X140464430Y-79772154D01*
X140464436Y-79772142D01*
X140464443Y-79772134D01*
X140479075Y-79744724D01*
X140510571Y-79685735D01*
X140510572Y-79685723D01*
X140617531Y-79485365D01*
X140632726Y-79456964D01*
X140632771Y-79456816D01*
X140632844Y-79456679D01*
X140642160Y-79425911D01*
X140708198Y-79208537D01*
X140708205Y-79208528D01*
X140727066Y-79146429D01*
X140736670Y-79114816D01*
X140736671Y-79114803D01*
X140736675Y-79114791D01*
X140740177Y-79079363D01*
X140746313Y-79017326D01*
X140746310Y-79017315D01*
X140768166Y-78796185D01*
X140771748Y-78771772D01*
X140771352Y-78763959D01*
X140772121Y-78756176D01*
X140769711Y-78731622D01*
X140763122Y-78601719D01*
X140763869Y-78585010D01*
X140761482Y-78569393D01*
X140760682Y-78553621D01*
X140756594Y-78537409D01*
X140737370Y-78411637D01*
X140734783Y-78387051D01*
X140732479Y-78379634D01*
X140731305Y-78371953D01*
X140722871Y-78348706D01*
X140634746Y-78065019D01*
X140628088Y-78043582D01*
X140628084Y-78043575D01*
X140628081Y-78043565D01*
X140613068Y-78015923D01*
X140474603Y-77760938D01*
X140459491Y-77732855D01*
X140459087Y-77732366D01*
X140458787Y-77731813D01*
X140438585Y-77707526D01*
X140256178Y-77486527D01*
X140236229Y-77462098D01*
X140235557Y-77461543D01*
X140235000Y-77460869D01*
X140210518Y-77440892D01*
X139989646Y-77258715D01*
X139965207Y-77238401D01*
X139964652Y-77238100D01*
X139964166Y-77237699D01*
X139936230Y-77222678D01*
X139679707Y-77083492D01*
X139653400Y-77069216D01*
X139653390Y-77069213D01*
X139653381Y-77069208D01*
X139623202Y-77059846D01*
X139348214Y-76974524D01*
X139324976Y-76966103D01*
X139317300Y-76964932D01*
X139309876Y-76962629D01*
X139285273Y-76960048D01*
X139159520Y-76940872D01*
X139143299Y-76936787D01*
X139127520Y-76935992D01*
X139111907Y-76933611D01*
X139095202Y-76934364D01*
X138981603Y-76928640D01*
X138973410Y-76927010D01*
X138965056Y-76927010D01*
X138956794Y-76925795D01*
X138940968Y-76926592D01*
X138925144Y-76925795D01*
X138916882Y-76927010D01*
X138908526Y-76927010D01*
X138900334Y-76928640D01*
X138786735Y-76934363D01*
X138770029Y-76933610D01*
X138754413Y-76935991D01*
X138738639Y-76936786D01*
X138722423Y-76940869D01*
X138596645Y-76960049D01*
X138572059Y-76962628D01*
X138564641Y-76964930D01*
X138556959Y-76966101D01*
X138533708Y-76974527D01*
X138264885Y-77057934D01*
X138228552Y-77069204D01*
X138228540Y-77069210D01*
X138228535Y-77069212D01*
X138213563Y-77077337D01*
X137945871Y-77222583D01*
X137917765Y-77237695D01*
X137917275Y-77238099D01*
X137916724Y-77238398D01*
X137892417Y-77258602D01*
X137671354Y-77440934D01*
X137646930Y-77460865D01*
X137646376Y-77461536D01*
X137645701Y-77462093D01*
X137625732Y-77486548D01*
X137443388Y-77707470D01*
X137423142Y-77731810D01*
X137422842Y-77732363D01*
X137422438Y-77732852D01*
X137407347Y-77760897D01*
X137268426Y-78016718D01*
X137253847Y-78043562D01*
X137253845Y-78043567D01*
X137253839Y-78043579D01*
X137242940Y-78078674D01*
X137159057Y-78348699D01*
X137150621Y-78371952D01*
X137149447Y-78379635D01*
X137147143Y-78387051D01*
X137144556Y-78411635D01*
X137125332Y-78537408D01*
X137121244Y-78553621D01*
X137120444Y-78569393D01*
X137118057Y-78585010D01*
X137118804Y-78601719D01*
X137112215Y-78731620D01*
X137109805Y-78756175D01*
X130691719Y-78756175D01*
X130727885Y-78720009D01*
X130757573Y-78700173D01*
X130778684Y-78668579D01*
X130836167Y-78582548D01*
X130863766Y-78443800D01*
X130856800Y-78408780D01*
X130856800Y-77899073D01*
X131251200Y-77899073D01*
X131360216Y-77877388D01*
X131452636Y-77815636D01*
X131514388Y-77723216D01*
X131534282Y-77623203D01*
X131558900Y-77633400D01*
X131771100Y-77633400D01*
X131967147Y-77552195D01*
X132117195Y-77402147D01*
X132198400Y-77206100D01*
X132198400Y-76993900D01*
X132117195Y-76797853D01*
X131967147Y-76647805D01*
X131771100Y-76566600D01*
X131558900Y-76566600D01*
X131529063Y-76578959D01*
X131514388Y-76505184D01*
X131452636Y-76412764D01*
X131360216Y-76351012D01*
X131283525Y-76335757D01*
X134618875Y-76335757D01*
X134542184Y-76351012D01*
X134449764Y-76412764D01*
X134388012Y-76505184D01*
X134366327Y-76614200D01*
X134366327Y-77614200D01*
X134388012Y-77723216D01*
X134449764Y-77815636D01*
X134542184Y-77877388D01*
X134651200Y-77899073D01*
X134871884Y-77899073D01*
X134861600Y-77923900D01*
X134861600Y-78136100D01*
X134942805Y-78332147D01*
X135092853Y-78482195D01*
X135288900Y-78563400D01*
X135501100Y-78563400D01*
X135697147Y-78482195D01*
X135847195Y-78332147D01*
X135928400Y-78136100D01*
X135928400Y-77923900D01*
X135918116Y-77899073D01*
X136151200Y-77899073D01*
X136260216Y-77877388D01*
X136352636Y-77815636D01*
X136414388Y-77723216D01*
X136436073Y-77614200D01*
X136436073Y-76614200D01*
X136414388Y-76505184D01*
X136352636Y-76412764D01*
X136260216Y-76351012D01*
X136183525Y-76335757D01*
X138611284Y-76335757D01*
X138901396Y-76350309D01*
X139174327Y-76391728D01*
X139437332Y-76459031D01*
X139689227Y-76550871D01*
X139928768Y-76665920D01*
X140154663Y-76802864D01*
X140365537Y-76960354D01*
X140560008Y-77137026D01*
X140736673Y-77331490D01*
X140894164Y-77542367D01*
X141031106Y-77768260D01*
X141146155Y-78007801D01*
X141237994Y-78259694D01*
X141305297Y-78522700D01*
X141346716Y-78795630D01*
X141361269Y-79085762D01*
X141361269Y-91613000D01*
X137095000Y-91613000D01*
X137046399Y-91622667D01*
X137005197Y-91650197D01*
X136977667Y-91691399D01*
X136968000Y-91740000D01*
X136968000Y-101970000D01*
X136977667Y-102018601D01*
X137005197Y-102059803D01*
X137046399Y-102087333D01*
X137095000Y-102097000D01*
X141361268Y-102097000D01*
X141361268Y-115926417D01*
X141346716Y-116216533D01*
X141305297Y-116489487D01*
X141237993Y-116752516D01*
X141146148Y-117004455D01*
X141031094Y-117244042D01*
X140894148Y-117469980D01*
X140736649Y-117680911D01*
X140559982Y-117875418D01*
X140365505Y-118052140D01*
X140154634Y-118209668D01*
X139928733Y-118346655D01*
X139689193Y-118461739D01*
X139437303Y-118553606D01*
X139174309Y-118620930D01*
X138901380Y-118662362D01*
X138611283Y-118676919D01*
X101770608Y-118676919D01*
X101480508Y-118662362D01*
X101207554Y-118620928D01*
X100944533Y-118553603D01*
X100692605Y-118461734D01*
X100453020Y-118346644D01*
X100227082Y-118209659D01*
X100016157Y-118052124D01*
X99821635Y-117875400D01*
X99644910Y-117680877D01*
X99487370Y-117469948D01*
X99350384Y-117244008D01*
X99235295Y-117004422D01*
X99143423Y-116752487D01*
X99076100Y-116489472D01*
X99040657Y-116255982D01*
X99609769Y-116255982D01*
X99609780Y-116256097D01*
X99609769Y-116256212D01*
X99612940Y-116288298D01*
X99619337Y-116353478D01*
X99619393Y-116353583D01*
X99635580Y-116517353D01*
X99635577Y-116517364D01*
X99640854Y-116570708D01*
X99645215Y-116614829D01*
X99645219Y-116614842D01*
X99645220Y-116614852D01*
X99651557Y-116635710D01*
X99673685Y-116708566D01*
X99673693Y-116708575D01*
X99739796Y-116926166D01*
X99749046Y-116956717D01*
X99749118Y-116956852D01*
X99749164Y-116957003D01*
X99764475Y-116985619D01*
X99871319Y-117185765D01*
X99871320Y-117185776D01*
X99900271Y-117240000D01*
X99917447Y-117272174D01*
X99917455Y-117272184D01*
X99917461Y-117272195D01*
X99935109Y-117293719D01*
X99979555Y-117347935D01*
X99979566Y-117347941D01*
X100083932Y-117475230D01*
X100083978Y-117475380D01*
X100125741Y-117526221D01*
X100145946Y-117550864D01*
X100146062Y-117550959D01*
X100146161Y-117551080D01*
X100171464Y-117571826D01*
X100221644Y-117613048D01*
X100221795Y-117613094D01*
X100349085Y-117717461D01*
X100349090Y-117717470D01*
X100390212Y-117751182D01*
X100424829Y-117779565D01*
X100424843Y-117779573D01*
X100424851Y-117779579D01*
X100449051Y-117792498D01*
X100511247Y-117825706D01*
X100511260Y-117825707D01*
X100712521Y-117933148D01*
X100740021Y-117947862D01*
X100740165Y-117947906D01*
X100740306Y-117947981D01*
X100771898Y-117957546D01*
X100988450Y-118023336D01*
X100988459Y-118023343D01*
X101046494Y-118040970D01*
X101082170Y-118051808D01*
X101082184Y-118051809D01*
X101082196Y-118051813D01*
X101116106Y-118055165D01*
X101179660Y-118061451D01*
X101179671Y-118061448D01*
X101343442Y-118077635D01*
X101343547Y-118077691D01*
X101408599Y-118084075D01*
X101440812Y-118087259D01*
X101440928Y-118087248D01*
X101441043Y-118087259D01*
X101473222Y-118084078D01*
X101538309Y-118077691D01*
X101538414Y-118077635D01*
X101702185Y-118061448D01*
X101702196Y-118061451D01*
X101764131Y-118055325D01*
X101799660Y-118051813D01*
X101799673Y-118051809D01*
X101799684Y-118051808D01*
X101829267Y-118042821D01*
X101893397Y-118023343D01*
X101893407Y-118023335D01*
X102110816Y-117957286D01*
X102141549Y-117947981D01*
X102141686Y-117947908D01*
X102141834Y-117947863D01*
X102169998Y-117932794D01*
X102370597Y-117825707D01*
X102370607Y-117825706D01*
X102424289Y-117797044D01*
X102457005Y-117779579D01*
X102457015Y-117779571D01*
X102457026Y-117779565D01*
X102485325Y-117756362D01*
X102532766Y-117717470D01*
X102532771Y-117717460D01*
X102660061Y-117613094D01*
X102660211Y-117613048D01*
X102710262Y-117571933D01*
X102735695Y-117551080D01*
X102735794Y-117550959D01*
X102735910Y-117550864D01*
X102756010Y-117526349D01*
X102797878Y-117475381D01*
X102797924Y-117475230D01*
X102902291Y-117347941D01*
X102902301Y-117347935D01*
X102936084Y-117306726D01*
X102964395Y-117272196D01*
X102964404Y-117272179D01*
X102964409Y-117272173D01*
X102978461Y-117245851D01*
X103010536Y-117185777D01*
X103010537Y-117185763D01*
X103117360Y-116985659D01*
X103132692Y-116957003D01*
X103132738Y-116956852D01*
X103132810Y-116956717D01*
X103142052Y-116926193D01*
X103208164Y-116708575D01*
X103208171Y-116708566D01*
X103230003Y-116636686D01*
X103236636Y-116614853D01*
X103236637Y-116614842D01*
X103236641Y-116614829D01*
X103240215Y-116578669D01*
X103246279Y-116517364D01*
X103246276Y-116517353D01*
X103262463Y-116353583D01*
X103262519Y-116353478D01*
X103268894Y-116288519D01*
X103272087Y-116256213D01*
X103272076Y-116256097D01*
X103272087Y-116255981D01*
X103268894Y-116223675D01*
X103262519Y-116158716D01*
X103262463Y-116158611D01*
X103246276Y-115994840D01*
X103246279Y-115994829D01*
X103239226Y-115923519D01*
X103236641Y-115897365D01*
X103236637Y-115897353D01*
X103236636Y-115897339D01*
X103225303Y-115860036D01*
X103208171Y-115803628D01*
X103208164Y-115803619D01*
X103142285Y-115586772D01*
X103132809Y-115555476D01*
X103132734Y-115555336D01*
X103132690Y-115555190D01*
X103117779Y-115527321D01*
X103010536Y-115326430D01*
X103010535Y-115326419D01*
X102981575Y-115272179D01*
X102964408Y-115240021D01*
X102964400Y-115240011D01*
X102964394Y-115240000D01*
X102940260Y-115210565D01*
X102902300Y-115164260D01*
X102902290Y-115164254D01*
X102797924Y-115036965D01*
X102797878Y-115036813D01*
X102756616Y-114986584D01*
X102735911Y-114961331D01*
X102735789Y-114961231D01*
X102735694Y-114961115D01*
X102710677Y-114940603D01*
X102660211Y-114899148D01*
X102660061Y-114899102D01*
X102532770Y-114794735D01*
X102532765Y-114794725D01*
X102484097Y-114754827D01*
X102457025Y-114732630D01*
X102457014Y-114732624D01*
X102457004Y-114732616D01*
X102425461Y-114715777D01*
X102370606Y-114686489D01*
X102370595Y-114686488D01*
X102170363Y-114579598D01*
X102141834Y-114564333D01*
X102141683Y-114564287D01*
X102141548Y-114564215D01*
X102111112Y-114555000D01*
X101893407Y-114488861D01*
X101893397Y-114488853D01*
X101829267Y-114469375D01*
X101799684Y-114460388D01*
X101799673Y-114460387D01*
X101799660Y-114460383D01*
X101764131Y-114456871D01*
X101702196Y-114450745D01*
X101702185Y-114450748D01*
X101538414Y-114434561D01*
X101538309Y-114434505D01*
X101489268Y-114429692D01*
X101473370Y-114426530D01*
X101457160Y-114426530D01*
X101441043Y-114424937D01*
X101440928Y-114424948D01*
X101440812Y-114424937D01*
X101424695Y-114426530D01*
X101408486Y-114426530D01*
X101392588Y-114429692D01*
X101343547Y-114434505D01*
X101343442Y-114434561D01*
X101179671Y-114450748D01*
X101179660Y-114450745D01*
X101116106Y-114457031D01*
X101082196Y-114460383D01*
X101082184Y-114460387D01*
X101082170Y-114460388D01*
X101046494Y-114471226D01*
X100988459Y-114488853D01*
X100988450Y-114488860D01*
X100771603Y-114554739D01*
X100740307Y-114564215D01*
X100740167Y-114564290D01*
X100740021Y-114564334D01*
X100712152Y-114579245D01*
X100511261Y-114686488D01*
X100511249Y-114686489D01*
X100453767Y-114717180D01*
X100424852Y-114732616D01*
X100424844Y-114732622D01*
X100424830Y-114732630D01*
X100397758Y-114754827D01*
X100349091Y-114794724D01*
X100349085Y-114794734D01*
X100221796Y-114899102D01*
X100221643Y-114899148D01*
X100170618Y-114941063D01*
X100146162Y-114961115D01*
X100146067Y-114961231D01*
X100145945Y-114961331D01*
X100125085Y-114986772D01*
X100083978Y-115036814D01*
X100083932Y-115036965D01*
X99979565Y-115164256D01*
X99979557Y-115164260D01*
X99946708Y-115204330D01*
X99917461Y-115240001D01*
X99917455Y-115240013D01*
X99917448Y-115240021D01*
X99903425Y-115266290D01*
X99871320Y-115326420D01*
X99871319Y-115326432D01*
X99764464Y-115526597D01*
X99749165Y-115555191D01*
X99749119Y-115555342D01*
X99749047Y-115555477D01*
X99739832Y-115585913D01*
X99673693Y-115803618D01*
X99673685Y-115803628D01*
X99654824Y-115865728D01*
X99645220Y-115897341D01*
X99645219Y-115897352D01*
X99645215Y-115897365D01*
X99641703Y-115932894D01*
X99635577Y-115994829D01*
X99635580Y-115994840D01*
X99619393Y-116158611D01*
X99619337Y-116158716D01*
X99612940Y-116223896D01*
X99609769Y-116255982D01*
X99040657Y-116255982D01*
X99034666Y-116216517D01*
X99020109Y-115926416D01*
X99020109Y-114284000D01*
X104161727Y-114284000D01*
X104161727Y-115684000D01*
X104183412Y-115793016D01*
X104245164Y-115885436D01*
X104337584Y-115947188D01*
X104446600Y-115968873D01*
X106046600Y-115968873D01*
X106155616Y-115947188D01*
X106248036Y-115885436D01*
X106309788Y-115793016D01*
X106331473Y-115684000D01*
X106331473Y-115339600D01*
X111361727Y-115339600D01*
X111361727Y-115684000D01*
X111383412Y-115793016D01*
X111445164Y-115885436D01*
X111537584Y-115947188D01*
X111646600Y-115968873D01*
X113246600Y-115968873D01*
X113355616Y-115947188D01*
X113448036Y-115885436D01*
X113509788Y-115793016D01*
X113531473Y-115684000D01*
X113531473Y-114284000D01*
X113509788Y-114174984D01*
X113448036Y-114082564D01*
X113355616Y-114020812D01*
X113246600Y-113999127D01*
X112924009Y-113999127D01*
X112958400Y-113916100D01*
X112958400Y-113703900D01*
X112877195Y-113507853D01*
X112780600Y-113411258D01*
X112780600Y-104627294D01*
X113982294Y-103425600D01*
X116956505Y-103425600D01*
X116048315Y-104333791D01*
X116018628Y-104353627D01*
X115998792Y-104383314D01*
X115998790Y-104383316D01*
X115940033Y-104471253D01*
X115912434Y-104610000D01*
X115919401Y-104645025D01*
X115919400Y-107682706D01*
X115315506Y-108286600D01*
X115178900Y-108286600D01*
X114982853Y-108367805D01*
X114832805Y-108517853D01*
X114751600Y-108713900D01*
X114751600Y-108848278D01*
X114728627Y-108863628D01*
X114708791Y-108893315D01*
X114708790Y-108893316D01*
X114650033Y-108981253D01*
X114622434Y-109120000D01*
X114629400Y-109155020D01*
X114629401Y-115454975D01*
X114622434Y-115490000D01*
X114650033Y-115628747D01*
X114708790Y-115716684D01*
X114708792Y-115716686D01*
X114728628Y-115746373D01*
X114758315Y-115766209D01*
X117398789Y-118406683D01*
X117418627Y-118436373D01*
X117536252Y-118514967D01*
X117639980Y-118535600D01*
X117639984Y-118535600D01*
X117674999Y-118542565D01*
X117710014Y-118535600D01*
X119349980Y-118535600D01*
X119385000Y-118542566D01*
X119420020Y-118535600D01*
X119523748Y-118514967D01*
X119641373Y-118436373D01*
X119661211Y-118406683D01*
X119842885Y-118225009D01*
X119872572Y-118205173D01*
X119951167Y-118087548D01*
X119971800Y-117983820D01*
X119971800Y-117983819D01*
X119978766Y-117948801D01*
X119971800Y-117913782D01*
X119971800Y-117843293D01*
X119975610Y-117843293D01*
X120084626Y-117821608D01*
X120177046Y-117759856D01*
X120238798Y-117667436D01*
X120260483Y-117558420D01*
X120260483Y-116958980D01*
X120251854Y-116915600D01*
X120916026Y-116915600D01*
X120907397Y-116958980D01*
X120907397Y-117558420D01*
X120929082Y-117667436D01*
X120990834Y-117759856D01*
X121083254Y-117821608D01*
X121192270Y-117843293D01*
X121911090Y-117843293D01*
X122020106Y-117821608D01*
X122112526Y-117759856D01*
X122174278Y-117667436D01*
X122174911Y-117664253D01*
X122202853Y-117692195D01*
X122398900Y-117773400D01*
X122611100Y-117773400D01*
X122807147Y-117692195D01*
X122957195Y-117542147D01*
X123038400Y-117346100D01*
X123038400Y-117133900D01*
X122957195Y-116937853D01*
X122854003Y-116834661D01*
X122881373Y-116816373D01*
X122901211Y-116786683D01*
X123431912Y-116255982D01*
X137109805Y-116255982D01*
X137109816Y-116256097D01*
X137109805Y-116256212D01*
X137112976Y-116288298D01*
X137119373Y-116353478D01*
X137119429Y-116353583D01*
X137135616Y-116517352D01*
X137135613Y-116517363D01*
X137140890Y-116570708D01*
X137145251Y-116614829D01*
X137145255Y-116614842D01*
X137145256Y-116614852D01*
X137151593Y-116635710D01*
X137173721Y-116708566D01*
X137173729Y-116708575D01*
X137239651Y-116925572D01*
X137249082Y-116956719D01*
X137249156Y-116956857D01*
X137249200Y-116957003D01*
X137264176Y-116984994D01*
X137371355Y-117185764D01*
X137371356Y-117185776D01*
X137402851Y-117244764D01*
X137417484Y-117272175D01*
X137417491Y-117272183D01*
X137417497Y-117272195D01*
X137441631Y-117301630D01*
X137479593Y-117347936D01*
X137479601Y-117347941D01*
X137583969Y-117475232D01*
X137584015Y-117475383D01*
X137625114Y-117525414D01*
X137645982Y-117550866D01*
X137646104Y-117550966D01*
X137646199Y-117551082D01*
X137670618Y-117571103D01*
X137721681Y-117613050D01*
X137721834Y-117613096D01*
X137849124Y-117717464D01*
X137849129Y-117717473D01*
X137891796Y-117752452D01*
X137924867Y-117779567D01*
X137924880Y-117779574D01*
X137924890Y-117779582D01*
X137950775Y-117793400D01*
X138011286Y-117825708D01*
X138011298Y-117825709D01*
X138212393Y-117933060D01*
X138240061Y-117947864D01*
X138240207Y-117947908D01*
X138240347Y-117947983D01*
X138271437Y-117957396D01*
X138488492Y-118023337D01*
X138488500Y-118023344D01*
X138544779Y-118040437D01*
X138582211Y-118051809D01*
X138582225Y-118051810D01*
X138582237Y-118051814D01*
X138614437Y-118054997D01*
X138679700Y-118061452D01*
X138679712Y-118061448D01*
X138843485Y-118077635D01*
X138843589Y-118077691D01*
X138908465Y-118084058D01*
X138940853Y-118087259D01*
X138940968Y-118087248D01*
X138941084Y-118087259D01*
X138973599Y-118084045D01*
X139038350Y-118077690D01*
X139038454Y-118077635D01*
X139202225Y-118061447D01*
X139202236Y-118061450D01*
X139263512Y-118055389D01*
X139299700Y-118051812D01*
X139299712Y-118051808D01*
X139299725Y-118051807D01*
X139335031Y-118041081D01*
X139393437Y-118023341D01*
X139393445Y-118023334D01*
X139610676Y-117957338D01*
X139641587Y-117947979D01*
X139641725Y-117947905D01*
X139641874Y-117947860D01*
X139670134Y-117932740D01*
X139870634Y-117825705D01*
X139870645Y-117825704D01*
X139931148Y-117793400D01*
X139957042Y-117779577D01*
X139957050Y-117779571D01*
X139957064Y-117779563D01*
X139990647Y-117752028D01*
X140032803Y-117717468D01*
X140032808Y-117717459D01*
X140160099Y-117613090D01*
X140160247Y-117613045D01*
X140210442Y-117571813D01*
X140235732Y-117551077D01*
X140235829Y-117550959D01*
X140235947Y-117550862D01*
X140256351Y-117525976D01*
X140297915Y-117475378D01*
X140297961Y-117475227D01*
X140402326Y-117347939D01*
X140402336Y-117347933D01*
X140442397Y-117299065D01*
X140464430Y-117272193D01*
X140464436Y-117272182D01*
X140464444Y-117272172D01*
X140481619Y-117240000D01*
X140510571Y-117185774D01*
X140510572Y-117185763D01*
X140617609Y-116985257D01*
X140632727Y-116957002D01*
X140632772Y-116956854D01*
X140632845Y-116956717D01*
X140642177Y-116925895D01*
X140708199Y-116708572D01*
X140708206Y-116708564D01*
X140727066Y-116646467D01*
X140736671Y-116614852D01*
X140736672Y-116614839D01*
X140736676Y-116614827D01*
X140741037Y-116570708D01*
X140746314Y-116517363D01*
X140746310Y-116517351D01*
X140762497Y-116353583D01*
X140762553Y-116353478D01*
X140768930Y-116288494D01*
X140772121Y-116256212D01*
X140772110Y-116256096D01*
X140772121Y-116255981D01*
X140768943Y-116223827D01*
X140762553Y-116158715D01*
X140762497Y-116158610D01*
X140746310Y-115994842D01*
X140746313Y-115994831D01*
X140740177Y-115932794D01*
X140736675Y-115897366D01*
X140736671Y-115897354D01*
X140736670Y-115897341D01*
X140725337Y-115860036D01*
X140708205Y-115803629D01*
X140708198Y-115803620D01*
X140642160Y-115586246D01*
X140632844Y-115555478D01*
X140632771Y-115555341D01*
X140632726Y-115555193D01*
X140617426Y-115526597D01*
X140510572Y-115326434D01*
X140510571Y-115326422D01*
X140478740Y-115266805D01*
X140464443Y-115240023D01*
X140464436Y-115240015D01*
X140464430Y-115240003D01*
X140435182Y-115204330D01*
X140402335Y-115164262D01*
X140402325Y-115164257D01*
X140297960Y-115036968D01*
X140297914Y-115036815D01*
X140256350Y-114986217D01*
X140235948Y-114961334D01*
X140235829Y-114961236D01*
X140235731Y-114961117D01*
X140210641Y-114940546D01*
X140160248Y-114899150D01*
X140160097Y-114899104D01*
X140032809Y-114794740D01*
X140032803Y-114794728D01*
X139978473Y-114750189D01*
X139957061Y-114732633D01*
X139957052Y-114732628D01*
X139957042Y-114732620D01*
X139923382Y-114714651D01*
X139870643Y-114686492D01*
X139870633Y-114686491D01*
X139669806Y-114579281D01*
X139641874Y-114564336D01*
X139641728Y-114564292D01*
X139641588Y-114564217D01*
X139610701Y-114554866D01*
X139393445Y-114488862D01*
X139393437Y-114488855D01*
X139335031Y-114471115D01*
X139299725Y-114460389D01*
X139299712Y-114460388D01*
X139299700Y-114460384D01*
X139263512Y-114456807D01*
X139202236Y-114450746D01*
X139202225Y-114450749D01*
X139038454Y-114434561D01*
X139038350Y-114434506D01*
X138989312Y-114429693D01*
X138973410Y-114426530D01*
X138957200Y-114426530D01*
X138941084Y-114424937D01*
X138940968Y-114424948D01*
X138940853Y-114424937D01*
X138924736Y-114426530D01*
X138908526Y-114426530D01*
X138892627Y-114429692D01*
X138843589Y-114434505D01*
X138843485Y-114434561D01*
X138679712Y-114450748D01*
X138679700Y-114450744D01*
X138614437Y-114457199D01*
X138582237Y-114460382D01*
X138582225Y-114460386D01*
X138582211Y-114460387D01*
X138544779Y-114471759D01*
X138488500Y-114488852D01*
X138488492Y-114488859D01*
X138270783Y-114554999D01*
X138240347Y-114564214D01*
X138240212Y-114564286D01*
X138240061Y-114564332D01*
X138211532Y-114579597D01*
X138011301Y-114686487D01*
X138011287Y-114686488D01*
X137944351Y-114722227D01*
X137924891Y-114732615D01*
X137924885Y-114732620D01*
X137924868Y-114732629D01*
X137890338Y-114760940D01*
X137849129Y-114794723D01*
X137849123Y-114794733D01*
X137721835Y-114899100D01*
X137721682Y-114899146D01*
X137670975Y-114940801D01*
X137646200Y-114961114D01*
X137646103Y-114961233D01*
X137645984Y-114961330D01*
X137625566Y-114986233D01*
X137584016Y-115036813D01*
X137583970Y-115036965D01*
X137479604Y-115164254D01*
X137479594Y-115164259D01*
X137441632Y-115210565D01*
X137417499Y-115239999D01*
X137417493Y-115240010D01*
X137417485Y-115240020D01*
X137402851Y-115267433D01*
X137371358Y-115326418D01*
X137371357Y-115326428D01*
X137264427Y-115526733D01*
X137249201Y-115555190D01*
X137249156Y-115555338D01*
X137249083Y-115555475D01*
X137239770Y-115586235D01*
X137173729Y-115803619D01*
X137173721Y-115803628D01*
X137154860Y-115865728D01*
X137145256Y-115897341D01*
X137145255Y-115897352D01*
X137145251Y-115897365D01*
X137141690Y-115933388D01*
X137135613Y-115994830D01*
X137135616Y-115994841D01*
X137119429Y-116158611D01*
X137119373Y-116158716D01*
X137112976Y-116223896D01*
X137109805Y-116255982D01*
X123431912Y-116255982D01*
X123941688Y-115746207D01*
X123971372Y-115726373D01*
X123991207Y-115696688D01*
X123991210Y-115696685D01*
X124049967Y-115608748D01*
X124077566Y-115470000D01*
X124070600Y-115434980D01*
X124070600Y-114258600D01*
X126437527Y-114258600D01*
X126437527Y-115658600D01*
X126459212Y-115767616D01*
X126520964Y-115860036D01*
X126613384Y-115921788D01*
X126722400Y-115943473D01*
X128322400Y-115943473D01*
X128431416Y-115921788D01*
X128523836Y-115860036D01*
X128585588Y-115767616D01*
X128607273Y-115658600D01*
X128607273Y-115314200D01*
X133637527Y-115314200D01*
X133637527Y-115658600D01*
X133659212Y-115767616D01*
X133720964Y-115860036D01*
X133813384Y-115921788D01*
X133922400Y-115943473D01*
X135522400Y-115943473D01*
X135631416Y-115921788D01*
X135723836Y-115860036D01*
X135785588Y-115767616D01*
X135807273Y-115658600D01*
X135807273Y-114258600D01*
X135785588Y-114149584D01*
X135723836Y-114057164D01*
X135631416Y-113995412D01*
X135522400Y-113973727D01*
X135211393Y-113973727D01*
X135268400Y-113836100D01*
X135268400Y-113623900D01*
X135187195Y-113427853D01*
X135037147Y-113277805D01*
X134841100Y-113196600D01*
X134628900Y-113196600D01*
X134432853Y-113277805D01*
X134282805Y-113427853D01*
X134201600Y-113623900D01*
X134201600Y-113836100D01*
X134258607Y-113973727D01*
X133922400Y-113973727D01*
X133813384Y-113995412D01*
X133720964Y-114057164D01*
X133659212Y-114149584D01*
X133637527Y-114258600D01*
X133637527Y-114603000D01*
X128607273Y-114603000D01*
X128607273Y-114258600D01*
X128585588Y-114149584D01*
X128523836Y-114057164D01*
X128431416Y-113995412D01*
X128322400Y-113973727D01*
X126722400Y-113973727D01*
X126613384Y-113995412D01*
X126520964Y-114057164D01*
X126459212Y-114149584D01*
X126437527Y-114258600D01*
X124070600Y-114258600D01*
X124070600Y-109847294D01*
X124362295Y-109555600D01*
X131487706Y-109555600D01*
X131719400Y-109787295D01*
X131719401Y-110071257D01*
X131622805Y-110167853D01*
X131541600Y-110363900D01*
X131541600Y-110576100D01*
X131622805Y-110772147D01*
X131772853Y-110922195D01*
X131968900Y-111003400D01*
X132105506Y-111003400D01*
X132589401Y-111487296D01*
X132589400Y-112114980D01*
X132582434Y-112150000D01*
X132595483Y-112215600D01*
X132610033Y-112288747D01*
X132688627Y-112406372D01*
X132718315Y-112426209D01*
X133308791Y-113016686D01*
X133328627Y-113046373D01*
X133358314Y-113066209D01*
X133358315Y-113066210D01*
X133446252Y-113124967D01*
X133585000Y-113152566D01*
X133620020Y-113145600D01*
X140039980Y-113145600D01*
X140075000Y-113152566D01*
X140110020Y-113145600D01*
X140213748Y-113124967D01*
X140331373Y-113046373D01*
X140351211Y-113016683D01*
X140829485Y-112538409D01*
X140859173Y-112518573D01*
X140937767Y-112400948D01*
X140958400Y-112297220D01*
X140965366Y-112262200D01*
X140958400Y-112227180D01*
X140958400Y-111365267D01*
X140961816Y-111364588D01*
X141054236Y-111302836D01*
X141115988Y-111210416D01*
X141137673Y-111101400D01*
X141137673Y-110601400D01*
X141115988Y-110492384D01*
X141088604Y-110451400D01*
X141115988Y-110410416D01*
X141137673Y-110301400D01*
X141137673Y-109801400D01*
X141115988Y-109692384D01*
X141088604Y-109651400D01*
X141115988Y-109610416D01*
X141137673Y-109501400D01*
X141137673Y-109001400D01*
X141115988Y-108892384D01*
X141054236Y-108799964D01*
X140961816Y-108738212D01*
X140852800Y-108716527D01*
X140352800Y-108716527D01*
X140243784Y-108738212D01*
X140190014Y-108774140D01*
X140051100Y-108716600D01*
X139838900Y-108716600D01*
X139642853Y-108797805D01*
X139492805Y-108947853D01*
X139411600Y-109143900D01*
X139411600Y-109356100D01*
X139492805Y-109552147D01*
X139642853Y-109702195D01*
X139823917Y-109777194D01*
X139797227Y-109795027D01*
X139777390Y-109824716D01*
X139698315Y-109903791D01*
X139668628Y-109923627D01*
X139648792Y-109953314D01*
X139648790Y-109953316D01*
X139590033Y-110041253D01*
X139562434Y-110180000D01*
X139569401Y-110215025D01*
X139569400Y-111912705D01*
X139437706Y-112044400D01*
X134062294Y-112044400D01*
X133720600Y-111702706D01*
X133720600Y-110878742D01*
X133815442Y-110783900D01*
X136841600Y-110783900D01*
X136841600Y-110996100D01*
X136922805Y-111192147D01*
X137072853Y-111342195D01*
X137268900Y-111423400D01*
X137481100Y-111423400D01*
X137677147Y-111342195D01*
X137729391Y-111289951D01*
X137751364Y-111322836D01*
X137843784Y-111384588D01*
X137952800Y-111406273D01*
X138452800Y-111406273D01*
X138561816Y-111384588D01*
X138654236Y-111322836D01*
X138715988Y-111230416D01*
X138737673Y-111121400D01*
X138737673Y-110621400D01*
X138715988Y-110512384D01*
X138681922Y-110461400D01*
X138715988Y-110410416D01*
X138737673Y-110301400D01*
X138737673Y-109801400D01*
X138715988Y-109692384D01*
X138654236Y-109599964D01*
X138561816Y-109538212D01*
X138452800Y-109516527D01*
X137952800Y-109516527D01*
X137843784Y-109538212D01*
X137772464Y-109585865D01*
X137581100Y-109506600D01*
X137368900Y-109506600D01*
X137172853Y-109587805D01*
X137022805Y-109737853D01*
X136941600Y-109933900D01*
X136941600Y-110146100D01*
X137022805Y-110342147D01*
X137105104Y-110424446D01*
X137072853Y-110437805D01*
X136922805Y-110587853D01*
X136841600Y-110783900D01*
X133815442Y-110783900D01*
X133817195Y-110782147D01*
X133898400Y-110586100D01*
X133898400Y-110373900D01*
X133817195Y-110177853D01*
X133720600Y-110081258D01*
X133720600Y-109745019D01*
X133727566Y-109709999D01*
X133699967Y-109571252D01*
X133641210Y-109483315D01*
X133641207Y-109483312D01*
X133621372Y-109453627D01*
X133591688Y-109433793D01*
X132751210Y-108593316D01*
X132746521Y-108586297D01*
X132761373Y-108576373D01*
X132781211Y-108546683D01*
X132993994Y-108333900D01*
X136931600Y-108333900D01*
X136931600Y-108546100D01*
X137012805Y-108742147D01*
X137162853Y-108892195D01*
X137358900Y-108973400D01*
X137571100Y-108973400D01*
X137749217Y-108899622D01*
X137751364Y-108902836D01*
X137843784Y-108964588D01*
X137952800Y-108986273D01*
X138452800Y-108986273D01*
X138561816Y-108964588D01*
X138654236Y-108902836D01*
X138715988Y-108810416D01*
X138737673Y-108701400D01*
X138737673Y-108201400D01*
X138715988Y-108092384D01*
X138654236Y-107999964D01*
X138561816Y-107938212D01*
X138452800Y-107916527D01*
X137952800Y-107916527D01*
X137843784Y-107938212D01*
X137768114Y-107988772D01*
X137767147Y-107987805D01*
X137571100Y-107906600D01*
X137358900Y-107906600D01*
X137162853Y-107987805D01*
X137012805Y-108137853D01*
X136931600Y-108333900D01*
X132993994Y-108333900D01*
X133781683Y-107546211D01*
X133811373Y-107526373D01*
X133889967Y-107408748D01*
X133910600Y-107305020D01*
X133917566Y-107270001D01*
X133910600Y-107234982D01*
X133910600Y-104737501D01*
X138808500Y-104737501D01*
X138808500Y-104913299D01*
X138875776Y-105075716D01*
X139000084Y-105200024D01*
X139162501Y-105267300D01*
X139338299Y-105267300D01*
X139500716Y-105200024D01*
X139625024Y-105075716D01*
X139692300Y-104913299D01*
X139692300Y-104737501D01*
X139625024Y-104575084D01*
X139500716Y-104450776D01*
X139338299Y-104383500D01*
X139162501Y-104383500D01*
X139000084Y-104450776D01*
X138875776Y-104575084D01*
X138808500Y-104737501D01*
X133910600Y-104737501D01*
X133910600Y-99188742D01*
X134007195Y-99092147D01*
X134088400Y-98896100D01*
X134088400Y-98683900D01*
X134007195Y-98487853D01*
X133857147Y-98337805D01*
X133661100Y-98256600D01*
X133448900Y-98256600D01*
X133252853Y-98337805D01*
X133102805Y-98487853D01*
X133021600Y-98683900D01*
X133021600Y-98896100D01*
X133102805Y-99092147D01*
X133199400Y-99188742D01*
X133199401Y-107122705D01*
X132800600Y-107521506D01*
X132800600Y-99188742D01*
X132897195Y-99092147D01*
X132978400Y-98896100D01*
X132978400Y-98683900D01*
X132897195Y-98487853D01*
X132747147Y-98337805D01*
X132551100Y-98256600D01*
X132338900Y-98256600D01*
X132142853Y-98337805D01*
X131992805Y-98487853D01*
X131911600Y-98683900D01*
X131911600Y-98896100D01*
X131992805Y-99092147D01*
X132089401Y-99188743D01*
X132089400Y-105835019D01*
X132089401Y-105835024D01*
X132089400Y-107452705D01*
X131997706Y-107544400D01*
X123070020Y-107544400D01*
X123035000Y-107537434D01*
X122896252Y-107565033D01*
X122813747Y-107620161D01*
X122778627Y-107643627D01*
X122758791Y-107673314D01*
X121998315Y-108433791D01*
X121968628Y-108453627D01*
X121948792Y-108483314D01*
X121948790Y-108483316D01*
X121890033Y-108571253D01*
X121862434Y-108710000D01*
X121869401Y-108745025D01*
X121869400Y-111442705D01*
X121807706Y-111504400D01*
X119573742Y-111504400D01*
X119477147Y-111407805D01*
X119281100Y-111326600D01*
X119068900Y-111326600D01*
X118872853Y-111407805D01*
X118722805Y-111557853D01*
X118641600Y-111753900D01*
X118641600Y-111936600D01*
X118628900Y-111936600D01*
X118432853Y-112017805D01*
X118282805Y-112167853D01*
X118201600Y-112363900D01*
X118201600Y-112576100D01*
X118282805Y-112772147D01*
X118432853Y-112922195D01*
X118628900Y-113003400D01*
X118841100Y-113003400D01*
X119037147Y-112922195D01*
X119133742Y-112825600D01*
X122269980Y-112825600D01*
X122305000Y-112832566D01*
X122340020Y-112825600D01*
X122443748Y-112804967D01*
X122561373Y-112726373D01*
X122581211Y-112696683D01*
X122939400Y-112338494D01*
X122939400Y-113802705D01*
X122647706Y-114094400D01*
X119000014Y-114094400D01*
X118964999Y-114087435D01*
X118929984Y-114094400D01*
X118929980Y-114094400D01*
X118826252Y-114115033D01*
X118708627Y-114193627D01*
X118688790Y-114223316D01*
X118419235Y-114492871D01*
X118389548Y-114512707D01*
X118369712Y-114542394D01*
X118369710Y-114542396D01*
X118310953Y-114630333D01*
X118283354Y-114769080D01*
X118290321Y-114804105D01*
X118290321Y-115277107D01*
X118286510Y-115277107D01*
X118177494Y-115298792D01*
X118085074Y-115360544D01*
X118023322Y-115452964D01*
X118012752Y-115506100D01*
X116223995Y-115506100D01*
X115660599Y-114942705D01*
X115660599Y-113745013D01*
X115667564Y-113709998D01*
X115660599Y-113674983D01*
X115660599Y-113674979D01*
X115645410Y-113598620D01*
X115645410Y-110282484D01*
X116614494Y-109313400D01*
X116751100Y-109313400D01*
X116947147Y-109232195D01*
X117097195Y-109082147D01*
X117178400Y-108886100D01*
X117178400Y-108673900D01*
X117097195Y-108477853D01*
X117000600Y-108381258D01*
X117000600Y-104977294D01*
X117642294Y-104335600D01*
X125539980Y-104335600D01*
X125575000Y-104342566D01*
X125610020Y-104335600D01*
X125713748Y-104314967D01*
X125831373Y-104236373D01*
X125851211Y-104206683D01*
X126641685Y-103416209D01*
X126671372Y-103396373D01*
X126749967Y-103278748D01*
X126770600Y-103175020D01*
X126770600Y-103175016D01*
X126777565Y-103140001D01*
X126770600Y-103104986D01*
X126770600Y-97808742D01*
X126867195Y-97712147D01*
X126948400Y-97516100D01*
X126948400Y-97303900D01*
X126867195Y-97107853D01*
X126717147Y-96957805D01*
X126521100Y-96876600D01*
X126308900Y-96876600D01*
X126112853Y-96957805D01*
X125962805Y-97107853D01*
X125881600Y-97303900D01*
X125881600Y-97516100D01*
X125962805Y-97712147D01*
X126059401Y-97808743D01*
X126059401Y-98008028D01*
X125911100Y-97946600D01*
X125698900Y-97946600D01*
X125502853Y-98027805D01*
X125352805Y-98177853D01*
X125271600Y-98373900D01*
X125271600Y-98506600D01*
X125098900Y-98506600D01*
X124902853Y-98587805D01*
X124752805Y-98737853D01*
X124671600Y-98933900D01*
X124671600Y-99146100D01*
X124752805Y-99342147D01*
X124839400Y-99428742D01*
X124839401Y-102502704D01*
X124627706Y-102714400D01*
X113870019Y-102714400D01*
X113834999Y-102707434D01*
X113696252Y-102735033D01*
X113578627Y-102813627D01*
X113558790Y-102843316D01*
X112198315Y-104203791D01*
X112168627Y-104223628D01*
X112148791Y-104253315D01*
X112148790Y-104253316D01*
X112090033Y-104341253D01*
X112062434Y-104480000D01*
X112069400Y-104515020D01*
X112069401Y-113411257D01*
X111972805Y-113507853D01*
X111891600Y-113703900D01*
X111891600Y-113916100D01*
X111925991Y-113999127D01*
X111646600Y-113999127D01*
X111537584Y-114020812D01*
X111445164Y-114082564D01*
X111383412Y-114174984D01*
X111361727Y-114284000D01*
X111361727Y-114628400D01*
X106331473Y-114628400D01*
X106331473Y-114284000D01*
X106309788Y-114174984D01*
X106248036Y-114082564D01*
X106155616Y-114020812D01*
X106046600Y-113999127D01*
X104446600Y-113999127D01*
X104337584Y-114020812D01*
X104245164Y-114082564D01*
X104183412Y-114174984D01*
X104161727Y-114284000D01*
X99020109Y-114284000D01*
X99020109Y-87701718D01*
X106622259Y-87701718D01*
X106623853Y-87718190D01*
X106623852Y-107293977D01*
X106622259Y-107310438D01*
X106623852Y-107326334D01*
X106623852Y-107342314D01*
X106627080Y-107358540D01*
X106632414Y-107411767D01*
X106632239Y-107412354D01*
X106638933Y-107476818D01*
X106642121Y-107508632D01*
X106642296Y-107509204D01*
X106642357Y-107509795D01*
X106651764Y-107540227D01*
X106670719Y-107602330D01*
X106671097Y-107602789D01*
X106689111Y-107661043D01*
X106699948Y-107696099D01*
X106699957Y-107696115D01*
X106699961Y-107696129D01*
X106715362Y-107724573D01*
X106746585Y-107782252D01*
X106746597Y-107782261D01*
X106775987Y-107836542D01*
X106791118Y-107864701D01*
X106791452Y-107865106D01*
X106791700Y-107865564D01*
X106811961Y-107889983D01*
X106891975Y-107987041D01*
X106911997Y-108011548D01*
X106912566Y-108012017D01*
X106913035Y-108012586D01*
X106937507Y-108032578D01*
X107034600Y-108112622D01*
X107059019Y-108132883D01*
X107059477Y-108133131D01*
X107059882Y-108133465D01*
X107088041Y-108148596D01*
X107142322Y-108177986D01*
X107142331Y-108177998D01*
X107199260Y-108208815D01*
X107228454Y-108224622D01*
X107228468Y-108224626D01*
X107228484Y-108224635D01*
X107261907Y-108234967D01*
X107321794Y-108253486D01*
X107322253Y-108253864D01*
X107384290Y-108272799D01*
X107414787Y-108282226D01*
X107415379Y-108282287D01*
X107415951Y-108282462D01*
X107447755Y-108285649D01*
X107512229Y-108292344D01*
X107512816Y-108292169D01*
X107566042Y-108297504D01*
X107582268Y-108300731D01*
X107598247Y-108300731D01*
X107614143Y-108302324D01*
X107630605Y-108300731D01*
X110827559Y-108300731D01*
X110844020Y-108302324D01*
X110859916Y-108300731D01*
X110875897Y-108300731D01*
X110892124Y-108297503D01*
X110945349Y-108292169D01*
X110945936Y-108292344D01*
X111010400Y-108285650D01*
X111042214Y-108282462D01*
X111042786Y-108282287D01*
X111043377Y-108282226D01*
X111073809Y-108272819D01*
X111135912Y-108253864D01*
X111136371Y-108253486D01*
X111196257Y-108234967D01*
X111229681Y-108224635D01*
X111229697Y-108224626D01*
X111229711Y-108224622D01*
X111258905Y-108208815D01*
X111315834Y-108177998D01*
X111315843Y-108177986D01*
X111370124Y-108148596D01*
X111398283Y-108133465D01*
X111398688Y-108133131D01*
X111399146Y-108132883D01*
X111423565Y-108112622D01*
X111520623Y-108032608D01*
X111545130Y-108012586D01*
X111545599Y-108012017D01*
X111546168Y-108011548D01*
X111566160Y-107987076D01*
X111646204Y-107889983D01*
X111666465Y-107865564D01*
X111666713Y-107865106D01*
X111667047Y-107864701D01*
X111682178Y-107836542D01*
X111711568Y-107782261D01*
X111711580Y-107782252D01*
X111742803Y-107724573D01*
X111758204Y-107696129D01*
X111758208Y-107696115D01*
X111758217Y-107696099D01*
X111769054Y-107661043D01*
X111787068Y-107602789D01*
X111787446Y-107602330D01*
X111806381Y-107540293D01*
X111815808Y-107509796D01*
X111815869Y-107509204D01*
X111816044Y-107508632D01*
X111819231Y-107476828D01*
X111825926Y-107412354D01*
X111825751Y-107411767D01*
X111831086Y-107358541D01*
X111834313Y-107342315D01*
X111834313Y-107326336D01*
X111835906Y-107310440D01*
X111834313Y-107293978D01*
X111834313Y-95130007D01*
X121836838Y-95130007D01*
X121836838Y-95342207D01*
X121918043Y-95538254D01*
X122068091Y-95688302D01*
X122264138Y-95769507D01*
X122476338Y-95769507D01*
X122672385Y-95688302D01*
X122768187Y-95592500D01*
X127000006Y-95592500D01*
X127950589Y-96543083D01*
X127970427Y-96572773D01*
X128038933Y-96618547D01*
X128088052Y-96651367D01*
X128226800Y-96678966D01*
X128261820Y-96672000D01*
X130571258Y-96672000D01*
X130667853Y-96768595D01*
X130863900Y-96849800D01*
X131076100Y-96849800D01*
X131272147Y-96768595D01*
X131422195Y-96618547D01*
X131503400Y-96422500D01*
X131503400Y-96210300D01*
X131422195Y-96014253D01*
X131272147Y-95864205D01*
X131076100Y-95783000D01*
X130863900Y-95783000D01*
X130667853Y-95864205D01*
X130571258Y-95960800D01*
X128374094Y-95960800D01*
X127423510Y-95010216D01*
X127403673Y-94980527D01*
X127286048Y-94901933D01*
X127182320Y-94881300D01*
X127147300Y-94874334D01*
X127112280Y-94881300D01*
X126179161Y-94881300D01*
X126344547Y-94812795D01*
X126494595Y-94662747D01*
X126575800Y-94466700D01*
X126575800Y-94254500D01*
X126494595Y-94058453D01*
X126344547Y-93908405D01*
X126148500Y-93827200D01*
X125936300Y-93827200D01*
X125740253Y-93908405D01*
X125643658Y-94005000D01*
X125478494Y-94005000D01*
X127840695Y-91642800D01*
X129326658Y-91642800D01*
X129423253Y-91739395D01*
X129619300Y-91820600D01*
X129831500Y-91820600D01*
X130027547Y-91739395D01*
X130177595Y-91589347D01*
X130258800Y-91393300D01*
X130258800Y-91312600D01*
X130364900Y-91312600D01*
X130560947Y-91231395D01*
X130710995Y-91081347D01*
X130792200Y-90885300D01*
X130792200Y-90673100D01*
X130710995Y-90477053D01*
X130560947Y-90327005D01*
X130364900Y-90245800D01*
X130152700Y-90245800D01*
X129956653Y-90327005D01*
X129860058Y-90423600D01*
X129623859Y-90423600D01*
X129674600Y-90301100D01*
X129674600Y-90088900D01*
X129593395Y-89892853D01*
X129443347Y-89742805D01*
X129247300Y-89661600D01*
X129157943Y-89661600D01*
X129166600Y-89640700D01*
X129166600Y-89428500D01*
X129085395Y-89232453D01*
X128935347Y-89082405D01*
X128739300Y-89001200D01*
X128527100Y-89001200D01*
X128331053Y-89082405D01*
X128234458Y-89179000D01*
X127645418Y-89179000D01*
X127610399Y-89172034D01*
X127575380Y-89179000D01*
X127471652Y-89199633D01*
X127354027Y-89278227D01*
X127334189Y-89307917D01*
X124260166Y-92381940D01*
X123215342Y-92381940D01*
X123118747Y-92285345D01*
X122922700Y-92204140D01*
X122710500Y-92204140D01*
X122514453Y-92285345D01*
X122364405Y-92435393D01*
X122283200Y-92631440D01*
X122283200Y-92704195D01*
X122279134Y-92704195D01*
X122083087Y-92785400D01*
X121933039Y-92935448D01*
X121851834Y-93131495D01*
X121851834Y-93343695D01*
X121933039Y-93539742D01*
X122083087Y-93689790D01*
X122194512Y-93735943D01*
X122072493Y-93786485D01*
X121922445Y-93936533D01*
X121841240Y-94132580D01*
X121841240Y-94344780D01*
X121922445Y-94540827D01*
X122072493Y-94690875D01*
X122182598Y-94736482D01*
X122068091Y-94783912D01*
X121918043Y-94933960D01*
X121836838Y-95130007D01*
X111834313Y-95130007D01*
X111834313Y-87718179D01*
X111835906Y-87701717D01*
X111834313Y-87685821D01*
X111834313Y-87669842D01*
X111831086Y-87653616D01*
X111825752Y-87600391D01*
X111825926Y-87599805D01*
X111819235Y-87535363D01*
X111816044Y-87503526D01*
X111815869Y-87502954D01*
X111815808Y-87502363D01*
X111806405Y-87471944D01*
X111787446Y-87409827D01*
X111787068Y-87409368D01*
X111768339Y-87348803D01*
X111758217Y-87316058D01*
X111758208Y-87316042D01*
X111758204Y-87316028D01*
X111742803Y-87287583D01*
X111711581Y-87229906D01*
X111711569Y-87229896D01*
X111682178Y-87175615D01*
X111667047Y-87147456D01*
X111666713Y-87147051D01*
X111666465Y-87146593D01*
X111646204Y-87122174D01*
X111566123Y-87025036D01*
X111546166Y-87000608D01*
X111545601Y-87000142D01*
X111545130Y-86999571D01*
X111520512Y-86979459D01*
X111423667Y-86899620D01*
X111399148Y-86879276D01*
X111398686Y-86879026D01*
X111398281Y-86878692D01*
X111370205Y-86863605D01*
X111315844Y-86834171D01*
X111315834Y-86834159D01*
X111257648Y-86802662D01*
X111229713Y-86787536D01*
X111229699Y-86787532D01*
X111229681Y-86787522D01*
X111191931Y-86775853D01*
X111136372Y-86758672D01*
X111135912Y-86758293D01*
X111073809Y-86739338D01*
X111043377Y-86729931D01*
X111042786Y-86729870D01*
X111042214Y-86729695D01*
X111010400Y-86726507D01*
X110945936Y-86719813D01*
X110945349Y-86719988D01*
X110892124Y-86714654D01*
X110875897Y-86711426D01*
X110859916Y-86711426D01*
X110844020Y-86709833D01*
X110827559Y-86711426D01*
X107630605Y-86711426D01*
X107614143Y-86709833D01*
X107598247Y-86711426D01*
X107582268Y-86711426D01*
X107566042Y-86714653D01*
X107512816Y-86719988D01*
X107512229Y-86719813D01*
X107447755Y-86726508D01*
X107415951Y-86729695D01*
X107415379Y-86729870D01*
X107414787Y-86729931D01*
X107384290Y-86739358D01*
X107322253Y-86758293D01*
X107321794Y-86758671D01*
X107264589Y-86776361D01*
X107228484Y-86787522D01*
X107228466Y-86787532D01*
X107228452Y-86787536D01*
X107200517Y-86802662D01*
X107142331Y-86834159D01*
X107142321Y-86834171D01*
X107087960Y-86863605D01*
X107059884Y-86878692D01*
X107059479Y-86879026D01*
X107059017Y-86879276D01*
X107034473Y-86899640D01*
X106937525Y-86979563D01*
X106913035Y-86999571D01*
X106912566Y-87000139D01*
X106911998Y-87000608D01*
X106891996Y-87025092D01*
X106811961Y-87122174D01*
X106791700Y-87146593D01*
X106791452Y-87147051D01*
X106791118Y-87147456D01*
X106775987Y-87175615D01*
X106746596Y-87229896D01*
X106746584Y-87229906D01*
X106716385Y-87285694D01*
X106699961Y-87316028D01*
X106699956Y-87316044D01*
X106699948Y-87316059D01*
X106690388Y-87346984D01*
X106671097Y-87409369D01*
X106670719Y-87409828D01*
X106651744Y-87471997D01*
X106642357Y-87502364D01*
X106642296Y-87502953D01*
X106642121Y-87503526D01*
X106638929Y-87535377D01*
X106632239Y-87599805D01*
X106632414Y-87600391D01*
X106627079Y-87653626D01*
X106623853Y-87669842D01*
X106623853Y-87685812D01*
X106622259Y-87701718D01*
X99020109Y-87701718D01*
X99020109Y-79085744D01*
X99034666Y-78795646D01*
X99040657Y-78756175D01*
X99609769Y-78756175D01*
X99610538Y-78763959D01*
X99610142Y-78771772D01*
X99613724Y-78796186D01*
X99635580Y-79017317D01*
X99635577Y-79017328D01*
X99641703Y-79079263D01*
X99645215Y-79114792D01*
X99645219Y-79114805D01*
X99645220Y-79114816D01*
X99654207Y-79144399D01*
X99673685Y-79208529D01*
X99673693Y-79208539D01*
X99739832Y-79426244D01*
X99749047Y-79456680D01*
X99749119Y-79456815D01*
X99749165Y-79456966D01*
X99764430Y-79485495D01*
X99871319Y-79685725D01*
X99871320Y-79685737D01*
X99902817Y-79744728D01*
X99917448Y-79772136D01*
X99917455Y-79772144D01*
X99917461Y-79772156D01*
X99941594Y-79801590D01*
X99979557Y-79847897D01*
X99979565Y-79847901D01*
X100083932Y-79975192D01*
X100083978Y-79975343D01*
X100125085Y-80025385D01*
X100145945Y-80050826D01*
X100146067Y-80050926D01*
X100146162Y-80051042D01*
X100170618Y-80071094D01*
X100221643Y-80113009D01*
X100221796Y-80113055D01*
X100349085Y-80217423D01*
X100349091Y-80217433D01*
X100393736Y-80254033D01*
X100424830Y-80279527D01*
X100424844Y-80279535D01*
X100424852Y-80279541D01*
X100450851Y-80293420D01*
X100511249Y-80325668D01*
X100511261Y-80325669D01*
X100712152Y-80432912D01*
X100740021Y-80447823D01*
X100740167Y-80447867D01*
X100740307Y-80447942D01*
X100771603Y-80457418D01*
X100988450Y-80523297D01*
X100988459Y-80523304D01*
X101046494Y-80540931D01*
X101082170Y-80551769D01*
X101082184Y-80551770D01*
X101082196Y-80551774D01*
X101116106Y-80555126D01*
X101179660Y-80561412D01*
X101179671Y-80561409D01*
X101343442Y-80577596D01*
X101343547Y-80577652D01*
X101408599Y-80584036D01*
X101440812Y-80587220D01*
X101440928Y-80587209D01*
X101441043Y-80587220D01*
X101473222Y-80584039D01*
X101538309Y-80577652D01*
X101538414Y-80577596D01*
X101702185Y-80561409D01*
X101702196Y-80561412D01*
X101764131Y-80555286D01*
X101799660Y-80551774D01*
X101799673Y-80551770D01*
X101799684Y-80551769D01*
X101829267Y-80542782D01*
X101893397Y-80523304D01*
X101893407Y-80523296D01*
X102111112Y-80457157D01*
X102141548Y-80447942D01*
X102141683Y-80447870D01*
X102141834Y-80447824D01*
X102170363Y-80432559D01*
X102370595Y-80325669D01*
X102370606Y-80325668D01*
X102425461Y-80296380D01*
X102457004Y-80279541D01*
X102457014Y-80279533D01*
X102457025Y-80279527D01*
X102485324Y-80256324D01*
X102532765Y-80217432D01*
X102532770Y-80217422D01*
X102660061Y-80113055D01*
X102660211Y-80113009D01*
X102710934Y-80071343D01*
X102735694Y-80051042D01*
X102735789Y-80050926D01*
X102735911Y-80050826D01*
X102756616Y-80025573D01*
X102797878Y-79975344D01*
X102797924Y-79975192D01*
X102902290Y-79847903D01*
X102902300Y-79847897D01*
X102909101Y-79839600D01*
X103964727Y-79839600D01*
X103964727Y-80839600D01*
X103986412Y-80948616D01*
X104048164Y-81041036D01*
X104140584Y-81102788D01*
X104249600Y-81124473D01*
X105749600Y-81124473D01*
X105858616Y-81102788D01*
X105951036Y-81041036D01*
X106012788Y-80948616D01*
X106031600Y-80854043D01*
X106031600Y-80946100D01*
X106112805Y-81142147D01*
X106209400Y-81238742D01*
X106209401Y-83374975D01*
X106202434Y-83410000D01*
X106230033Y-83548747D01*
X106288790Y-83636684D01*
X106288792Y-83636686D01*
X106308628Y-83666373D01*
X106338315Y-83686209D01*
X106808791Y-84156685D01*
X106828627Y-84186373D01*
X106858314Y-84206209D01*
X106858315Y-84206210D01*
X106946252Y-84264967D01*
X107084999Y-84292566D01*
X107120019Y-84285600D01*
X129807706Y-84285600D01*
X130049400Y-84527294D01*
X130049401Y-88314975D01*
X130042434Y-88350000D01*
X130070033Y-88488747D01*
X130128790Y-88576684D01*
X130128792Y-88576686D01*
X130148628Y-88606373D01*
X130178315Y-88626209D01*
X130281600Y-88729494D01*
X130281600Y-88866100D01*
X130362805Y-89062147D01*
X130512853Y-89212195D01*
X130708900Y-89293400D01*
X130921100Y-89293400D01*
X130999401Y-89260967D01*
X130999400Y-94531258D01*
X130902805Y-94627853D01*
X130821600Y-94823900D01*
X130821600Y-95036100D01*
X130902805Y-95232147D01*
X131052853Y-95382195D01*
X131248900Y-95463400D01*
X131461100Y-95463400D01*
X131657147Y-95382195D01*
X131807195Y-95232147D01*
X131888400Y-95036100D01*
X131888400Y-94823900D01*
X131884258Y-94813900D01*
X131911600Y-94813900D01*
X131911600Y-95026100D01*
X131992805Y-95222147D01*
X132142853Y-95372195D01*
X132338900Y-95453400D01*
X132551100Y-95453400D01*
X132747147Y-95372195D01*
X132897195Y-95222147D01*
X132978400Y-95026100D01*
X132978400Y-94813900D01*
X133021600Y-94813900D01*
X133021600Y-95026100D01*
X133102805Y-95222147D01*
X133252853Y-95372195D01*
X133448900Y-95453400D01*
X133661100Y-95453400D01*
X133857147Y-95372195D01*
X134007195Y-95222147D01*
X134088400Y-95026100D01*
X134088400Y-94813900D01*
X134007195Y-94617853D01*
X133910600Y-94521258D01*
X133910600Y-90168541D01*
X134018900Y-90213400D01*
X134231100Y-90213400D01*
X134427147Y-90132195D01*
X134577195Y-89982147D01*
X134658400Y-89786100D01*
X134658400Y-89649494D01*
X139561686Y-84746209D01*
X139591373Y-84726373D01*
X139614840Y-84691253D01*
X139669967Y-84608748D01*
X139697566Y-84470000D01*
X139690600Y-84434980D01*
X139690600Y-82998742D01*
X139787195Y-82902147D01*
X139868400Y-82706100D01*
X139868400Y-82493900D01*
X139787195Y-82297853D01*
X139637147Y-82147805D01*
X139441100Y-82066600D01*
X139228900Y-82066600D01*
X139032853Y-82147805D01*
X138882805Y-82297853D01*
X138801600Y-82493900D01*
X138801600Y-82706100D01*
X138882805Y-82902147D01*
X138979400Y-82998742D01*
X138979401Y-84322704D01*
X134155506Y-89146600D01*
X134018900Y-89146600D01*
X133910600Y-89191459D01*
X133910600Y-85387294D01*
X135041685Y-84256209D01*
X135071372Y-84236373D01*
X135149967Y-84118748D01*
X135170600Y-84015020D01*
X135170600Y-84015019D01*
X135177566Y-83980001D01*
X135170600Y-83944981D01*
X135170600Y-82608742D01*
X135267195Y-82512147D01*
X135348400Y-82316100D01*
X135348400Y-82103900D01*
X135267195Y-81907853D01*
X135117147Y-81757805D01*
X134921100Y-81676600D01*
X134708900Y-81676600D01*
X134512853Y-81757805D01*
X134362805Y-81907853D01*
X134281600Y-82103900D01*
X134281600Y-82316100D01*
X134362805Y-82512147D01*
X134459401Y-82608743D01*
X134459400Y-83832706D01*
X133328315Y-84963791D01*
X133298628Y-84983627D01*
X133278792Y-85013314D01*
X133278790Y-85013316D01*
X133220033Y-85101253D01*
X133192434Y-85240000D01*
X133199401Y-85275025D01*
X133199400Y-94521258D01*
X133102805Y-94617853D01*
X133021600Y-94813900D01*
X132978400Y-94813900D01*
X132897195Y-94617853D01*
X132800600Y-94521258D01*
X132800600Y-84977294D01*
X133771688Y-84006207D01*
X133801372Y-83986373D01*
X133821207Y-83956688D01*
X133821210Y-83956685D01*
X133879967Y-83868748D01*
X133907566Y-83730000D01*
X133900600Y-83694980D01*
X133900600Y-82608742D01*
X133997195Y-82512147D01*
X134078400Y-82316100D01*
X134078400Y-82103900D01*
X133997195Y-81907853D01*
X133847147Y-81757805D01*
X133651100Y-81676600D01*
X133438900Y-81676600D01*
X133242853Y-81757805D01*
X133092805Y-81907853D01*
X133011600Y-82103900D01*
X133011600Y-82316100D01*
X133092805Y-82512147D01*
X133189401Y-82608743D01*
X133189400Y-83582705D01*
X132218315Y-84553791D01*
X132188628Y-84573627D01*
X132168792Y-84603314D01*
X132168790Y-84603316D01*
X132110033Y-84691253D01*
X132082434Y-84830000D01*
X132089401Y-84865025D01*
X132089400Y-94521258D01*
X131992805Y-94617853D01*
X131911600Y-94813900D01*
X131884258Y-94813900D01*
X131807195Y-94627853D01*
X131710600Y-94531258D01*
X131710600Y-84597294D01*
X132501685Y-83806209D01*
X132531372Y-83786373D01*
X132609967Y-83668748D01*
X132630600Y-83565020D01*
X132630600Y-83565016D01*
X132637565Y-83530001D01*
X132630600Y-83494986D01*
X132630600Y-82598742D01*
X132727195Y-82502147D01*
X132808400Y-82306100D01*
X132808400Y-82093900D01*
X132727195Y-81897853D01*
X132577147Y-81747805D01*
X132381100Y-81666600D01*
X132168900Y-81666600D01*
X131972853Y-81747805D01*
X131822805Y-81897853D01*
X131741600Y-82093900D01*
X131741600Y-82306100D01*
X131822805Y-82502147D01*
X131919401Y-82598743D01*
X131919400Y-83382706D01*
X131128315Y-84173791D01*
X131098628Y-84193627D01*
X131078792Y-84223314D01*
X131078790Y-84223316D01*
X131020033Y-84311253D01*
X130992434Y-84450000D01*
X130999401Y-84485025D01*
X130999401Y-88259033D01*
X130921100Y-88226600D01*
X130784494Y-88226600D01*
X130760600Y-88202706D01*
X130760600Y-84415019D01*
X130767566Y-84379999D01*
X130739967Y-84241252D01*
X130681209Y-84153315D01*
X130661372Y-84123627D01*
X130631685Y-84103791D01*
X130231211Y-83703317D01*
X130211373Y-83673627D01*
X130093748Y-83595033D01*
X129990020Y-83574400D01*
X129955000Y-83567434D01*
X129919980Y-83574400D01*
X116361824Y-83574400D01*
X116367147Y-83572195D01*
X116517195Y-83422147D01*
X116598400Y-83226100D01*
X116598400Y-83013900D01*
X116517195Y-82817853D01*
X116367147Y-82667805D01*
X116171100Y-82586600D01*
X115958900Y-82586600D01*
X115762853Y-82667805D01*
X115717058Y-82713600D01*
X112113336Y-82713600D01*
X111991400Y-82591665D01*
X111991400Y-81265898D01*
X121726207Y-81265898D01*
X121791122Y-81504253D01*
X122301146Y-81684812D01*
X122841444Y-81656449D01*
X123208878Y-81504253D01*
X123273793Y-81265898D01*
X126726207Y-81265898D01*
X126791122Y-81504253D01*
X127301146Y-81684812D01*
X127841444Y-81656449D01*
X128208878Y-81504253D01*
X128273793Y-81265898D01*
X127500000Y-80492105D01*
X126726207Y-81265898D01*
X123273793Y-81265898D01*
X122500000Y-80492105D01*
X121726207Y-81265898D01*
X111991400Y-81265898D01*
X111991400Y-80060019D01*
X111999360Y-80020000D01*
X111991400Y-79979978D01*
X111991400Y-79979977D01*
X111967820Y-79861431D01*
X111967820Y-79861430D01*
X111900669Y-79760932D01*
X111900666Y-79760929D01*
X111877997Y-79727003D01*
X111844071Y-79704335D01*
X111118400Y-78978664D01*
X111118400Y-78913900D01*
X111037195Y-78717853D01*
X110887147Y-78567805D01*
X110691100Y-78486600D01*
X110478900Y-78486600D01*
X110282853Y-78567805D01*
X110132805Y-78717853D01*
X110051600Y-78913900D01*
X110051600Y-79126100D01*
X110132805Y-79322147D01*
X110282853Y-79472195D01*
X110478900Y-79553400D01*
X110543664Y-79553400D01*
X111178600Y-80188337D01*
X111178601Y-82719977D01*
X111170640Y-82760000D01*
X111178601Y-82800023D01*
X111202181Y-82918569D01*
X111292004Y-83052997D01*
X111325932Y-83075667D01*
X111629332Y-83379068D01*
X111652003Y-83412997D01*
X111786431Y-83502820D01*
X111904977Y-83526400D01*
X111904982Y-83526400D01*
X111945000Y-83534360D01*
X111985018Y-83526400D01*
X115717058Y-83526400D01*
X115762853Y-83572195D01*
X115768176Y-83574400D01*
X107232295Y-83574400D01*
X106920600Y-83262706D01*
X106920600Y-81238742D01*
X107017195Y-81142147D01*
X107098400Y-80946100D01*
X107098400Y-80733900D01*
X107017195Y-80537853D01*
X106867147Y-80387805D01*
X106671100Y-80306600D01*
X106458900Y-80306600D01*
X106262853Y-80387805D01*
X106112805Y-80537853D01*
X106034473Y-80726964D01*
X106034473Y-79839600D01*
X106012788Y-79730584D01*
X105951036Y-79638164D01*
X105858616Y-79576412D01*
X105749600Y-79554727D01*
X104249600Y-79554727D01*
X104140584Y-79576412D01*
X104048164Y-79638164D01*
X103986412Y-79730584D01*
X103964727Y-79839600D01*
X102909101Y-79839600D01*
X102942361Y-79799029D01*
X102964394Y-79772157D01*
X102964400Y-79772146D01*
X102964408Y-79772136D01*
X102981575Y-79739978D01*
X103010535Y-79685738D01*
X103010536Y-79685727D01*
X103117779Y-79484836D01*
X103132690Y-79456967D01*
X103132734Y-79456821D01*
X103132809Y-79456681D01*
X103142285Y-79425385D01*
X103208164Y-79208538D01*
X103208171Y-79208529D01*
X103227099Y-79146209D01*
X103236636Y-79114818D01*
X103236637Y-79114804D01*
X103236641Y-79114792D01*
X103239993Y-79080882D01*
X103246279Y-79017328D01*
X103246276Y-79017317D01*
X103268133Y-78796185D01*
X103271714Y-78771772D01*
X103271318Y-78763959D01*
X103272087Y-78756176D01*
X103269677Y-78731622D01*
X103263088Y-78601718D01*
X103263835Y-78585008D01*
X103261448Y-78569391D01*
X103260648Y-78553620D01*
X103256560Y-78537408D01*
X103237336Y-78411636D01*
X103234749Y-78387051D01*
X103232445Y-78379634D01*
X103231271Y-78371953D01*
X103222836Y-78348703D01*
X103140528Y-78083747D01*
X103128053Y-78043580D01*
X103128047Y-78043568D01*
X103128045Y-78043563D01*
X103118956Y-78026827D01*
X102974457Y-77760733D01*
X102959455Y-77732853D01*
X102959054Y-77732367D01*
X102958752Y-77731811D01*
X102938431Y-77707380D01*
X102756195Y-77486589D01*
X102736193Y-77462094D01*
X102735518Y-77461537D01*
X102734964Y-77460866D01*
X102710598Y-77440983D01*
X102489543Y-77258658D01*
X102465170Y-77238399D01*
X102464616Y-77238098D01*
X102464128Y-77237696D01*
X102436163Y-77222660D01*
X102178094Y-77082635D01*
X102153361Y-77069213D01*
X102153351Y-77069210D01*
X102153342Y-77069205D01*
X102124784Y-77060346D01*
X101848195Y-76974530D01*
X101824937Y-76966101D01*
X101817253Y-76964929D01*
X101809836Y-76962628D01*
X101785253Y-76960050D01*
X101659471Y-76940869D01*
X101643256Y-76936786D01*
X101627483Y-76935991D01*
X101611867Y-76933610D01*
X101595160Y-76934363D01*
X101481563Y-76928640D01*
X101473370Y-76927010D01*
X101465016Y-76927010D01*
X101456754Y-76925795D01*
X101440928Y-76926592D01*
X101425102Y-76925795D01*
X101416840Y-76927010D01*
X101408486Y-76927010D01*
X101400294Y-76928640D01*
X101286697Y-76934363D01*
X101269989Y-76933610D01*
X101254373Y-76935991D01*
X101238599Y-76936786D01*
X101222382Y-76940870D01*
X101096607Y-76960049D01*
X101072019Y-76962628D01*
X101064600Y-76964930D01*
X101056920Y-76966101D01*
X101033673Y-76974526D01*
X100750652Y-77062338D01*
X100728513Y-77069206D01*
X100728507Y-77069209D01*
X100728495Y-77069213D01*
X100699321Y-77085045D01*
X100445842Y-77222580D01*
X100417727Y-77237696D01*
X100417237Y-77238100D01*
X100416686Y-77238399D01*
X100392430Y-77258561D01*
X100171295Y-77440953D01*
X100146891Y-77460867D01*
X100146337Y-77461538D01*
X100145663Y-77462094D01*
X100125693Y-77486550D01*
X99943520Y-77707267D01*
X99923104Y-77731811D01*
X99922800Y-77732370D01*
X99922401Y-77732854D01*
X99907422Y-77760689D01*
X99762900Y-78026827D01*
X99753811Y-78043563D01*
X99753809Y-78043568D01*
X99753803Y-78043580D01*
X99742546Y-78079827D01*
X99659021Y-78348700D01*
X99650585Y-78371953D01*
X99649411Y-78379636D01*
X99647107Y-78387052D01*
X99644520Y-78411635D01*
X99625297Y-78537408D01*
X99621208Y-78553621D01*
X99620408Y-78569393D01*
X99618021Y-78585010D01*
X99618768Y-78601719D01*
X99612179Y-78731620D01*
X99609769Y-78756175D01*
X99040657Y-78756175D01*
X99076098Y-78522717D01*
X99143422Y-78259723D01*
X99235287Y-78007836D01*
X99350376Y-77768286D01*
X99487355Y-77542399D01*
X99644892Y-77331517D01*
X99821611Y-77137044D01*
X100016122Y-76960373D01*
X100227044Y-76802881D01*
X100452979Y-76665934D01*
X100507816Y-76639600D01*
X103964727Y-76639600D01*
X103964727Y-77639600D01*
X103986412Y-77748616D01*
X104048164Y-77841036D01*
X104140584Y-77902788D01*
X104249600Y-77924473D01*
X104486215Y-77924473D01*
X104461600Y-77983900D01*
X104461600Y-78196100D01*
X104542805Y-78392147D01*
X104692853Y-78542195D01*
X104888900Y-78623400D01*
X105101100Y-78623400D01*
X105297147Y-78542195D01*
X105447195Y-78392147D01*
X105528400Y-78196100D01*
X105528400Y-77983900D01*
X105503785Y-77924473D01*
X105749600Y-77924473D01*
X105858616Y-77902788D01*
X105951036Y-77841036D01*
X106012788Y-77748616D01*
X106034473Y-77639600D01*
X106034473Y-76639600D01*
X106012788Y-76530584D01*
X105951036Y-76438164D01*
X105858616Y-76376412D01*
X105749600Y-76354727D01*
X104249600Y-76354727D01*
X104140584Y-76376412D01*
X104048164Y-76438164D01*
X103986412Y-76530584D01*
X103964727Y-76639600D01*
X100507816Y-76639600D01*
X100692574Y-76550876D01*
X100944505Y-76459035D01*
X101207542Y-76391729D01*
X101480494Y-76350310D01*
X101770592Y-76335757D01*
X120686443Y-76335757D01*
X120407610Y-76672553D01*
M02*
