M48
; DRILL file {KiCad 5.1.5-52549c5~84~ubuntu19.04.1} date Tue 18 Feb 2020 11:24:18 PM CET
; FORMAT={-:-/ absolute / inch / decimal}
; #@! TF.CreationDate,2020-02-18T23:24:18+01:00
; #@! TF.GenerationSoftware,Kicad,Pcbnew,5.1.5-52549c5~84~ubuntu19.04.1
; #@! TF.FileFunction,Plated,1,2,PTH
FMAT,2
INCH
T1C0.0100
T2C0.0236
T3C0.0335
%
G90
G05
T1
X4.063Y-3.1693
X4.0856Y-3.1565
X4.0856Y-3.1841
X4.088Y-4.4063
X4.2156Y-3.0335
X4.2441Y-3.19
X4.2441Y-3.2746
X4.2606Y-3.1222
X4.2884Y-3.3898
X4.3376Y-3.19
X4.3386Y-3.0967
X4.339Y-3.127
X4.34Y-3.3669
X4.3728Y-3.0963
X4.3728Y-3.1266
X4.3729Y-3.162
X4.3781Y-3.3669
X4.3951Y-4.4409
X4.3959Y-4.3063
X4.3959Y-4.3453
X4.3959Y-4.3846
X4.4075Y-3.4173
X4.4179Y-3.3661
X4.4262Y-4.4807
X4.4998Y-4.4268
X4.5002Y-4.452
X4.5246Y-3.5492
X4.527Y-4.5425
X4.5313Y-3.0331
X4.5333Y-4.6024
X4.5388Y-4.2843
X4.5586Y-4.474
X4.5848Y-3.4508
X4.5885Y-4.5615
X4.5923Y-4.2827
X4.6061Y-3.3394
X4.6093Y-4.474
X4.6356Y-4.6165
X4.6565Y-3.4813
X4.6693Y-4.252
X4.6746Y-4.428
X4.6919Y-4.4039
X4.7089Y-4.5276
X4.7598Y-3.4813
X4.8144Y-3.9661
X4.8167Y-3.9075
X4.8171Y-3.8677
X4.8177Y-3.7495
X4.8179Y-3.7102
X4.8179Y-3.789
X4.8179Y-3.8283
X4.8181Y-3.6316
X4.8183Y-4.0256
X4.8183Y-3.6708
X4.823Y-4.6157
X4.8333Y-3.8878
X4.8337Y-3.848
X4.8341Y-3.9272
X4.8345Y-3.7693
X4.8349Y-3.7299
X4.8352Y-3.6905
X4.8352Y-3.8083
X4.8353Y-3.6511
X4.878Y-3.5984
X4.8829Y-3.2943
X4.9207Y-4.6457
X4.9293Y-3.8992
X4.953Y-3.8772
X4.9616Y-4.4925
X4.9616Y-4.5772
X4.9623Y-3.715
X4.977Y-3.835
X4.9931Y-3.3071
X4.9961Y-3.5236
X5.0039Y-3.4813
X5.0411Y-3.613
X5.0415Y-4.0142
X5.0443Y-3.3701
X5.0643Y-3.525
X5.0817Y-3.3012
X5.0843Y-3.551
X5.0919Y-4.1823
X5.1033Y-3.9209
X5.1073Y-3.594
X5.1283Y-3.574
X5.1388Y-3.7697
X5.1392Y-4.1831
X5.1417Y-3.3622
X5.1563Y-3.792
X5.1715Y-3.7374
X5.1929Y-3.5837
X5.1929Y-3.7628
X5.1943Y-3.5148
X5.1998Y-4.3492
X5.2077Y-3.2248
X5.2144Y-3.737
X5.2144Y-3.8894
X5.2506Y-4.3496
X5.2577Y-3.2252
X5.2581Y-3.737
X5.2581Y-3.8894
X5.2805Y-3.5307
X5.3012Y-3.7392
X5.3014Y-4.0134
X5.3045Y-4.4776
X5.3077Y-3.2252
X5.3209Y-3.5856
X5.3327Y-3.7392
X5.3443Y-4.0134
X5.362Y-3.0327
X5.362Y-3.748
X5.3624Y-3.878
X5.3876Y-3.6102
X5.3876Y-4.013
X5.4085Y-4.3657
X5.4085Y-4.4008
X5.412Y-4.2693
X5.4124Y-4.3323
X5.4341Y-4.1268
X5.4774Y-3.5138
X5.4821Y-4.0787
X5.4821Y-4.1755
X5.5096Y-4.3012
X5.5215Y-3.5571
X5.5305Y-4.1272
X5.536Y-4.2343
T3
X4.7077Y-3.155
X4.9045Y-3.155
T2
G00X4.6683Y-3.0625
M15
G01X4.6683Y-3.0349
M16
G05
G00X4.9439Y-3.0349
M15
G01X4.9439Y-3.0625
M16
G05
T0
M30
