G04 #@! TF.GenerationSoftware,KiCad,Pcbnew,5.1.5-52549c5~84~ubuntu19.04.1*
G04 #@! TF.CreationDate,2020-02-18T23:24:20+01:00*
G04 #@! TF.ProjectId,badge,62616467-652e-46b6-9963-61645f706362,rev?*
G04 #@! TF.SameCoordinates,Original*
G04 #@! TF.FileFunction,Soldermask,Bot*
G04 #@! TF.FilePolarity,Negative*
%FSLAX46Y46*%
G04 Gerber Fmt 4.6, Leading zero omitted, Abs format (unit mm)*
G04 Created by KiCad (PCBNEW 5.1.5-52549c5~84~ubuntu19.04.1) date 2020-02-18 23:24:20*
%MOMM*%
%LPD*%
G04 APERTURE LIST*
%ADD10C,0.010000*%
%ADD11C,2.950800*%
%ADD12R,1.550800X1.950800*%
%ADD13C,1.500800*%
%ADD14R,0.450800X1.400800*%
%ADD15O,1.250800X1.950800*%
%ADD16R,2.250800X1.950800*%
%ADD17R,0.470800X1.450800*%
%ADD18R,4.050800X2.350800*%
%ADD19R,0.580800X0.330800*%
%ADD20R,0.330800X0.580800*%
%ADD21R,1.600800X0.650800*%
%ADD22R,1.850800X1.250800*%
%ADD23C,1.050800*%
%ADD24R,0.570800X0.350800*%
%ADD25R,0.650800X1.250800*%
%ADD26R,1.250800X1.850800*%
%ADD27R,0.650800X1.600800*%
%ADD28R,1.110800X0.700800*%
%ADD29R,0.572800X0.650800*%
%ADD30C,1.250800*%
%ADD31C,0.350800*%
%ADD32R,0.950800X0.850800*%
%ADD33R,0.850800X0.950800*%
%ADD34R,0.550800X0.650800*%
%ADD35R,0.650800X0.550800*%
%ADD36R,0.650800X0.450800*%
%ADD37R,0.450800X0.650800*%
%ADD38R,0.550800X0.550800*%
%ADD39R,0.850800X0.350800*%
%ADD40R,1.800800X1.600800*%
%ADD41R,1.050800X0.350800*%
%ADD42R,1.350800X1.700800*%
%ADD43C,0.100000*%
%ADD44R,0.500800X0.650800*%
G04 APERTURE END LIST*
D10*
G36*
X105308940Y-112579333D02*
G01*
X105237626Y-112580148D01*
X105198781Y-112585727D01*
X105182541Y-112600775D01*
X105179041Y-112629996D01*
X105179000Y-112641297D01*
X105159837Y-112708432D01*
X105106935Y-112758597D01*
X105027177Y-112786739D01*
X104975062Y-112791000D01*
X104884480Y-112776105D01*
X104824019Y-112733029D01*
X104796005Y-112664182D01*
X104796420Y-112605791D01*
X104782934Y-112589660D01*
X104734568Y-112581180D01*
X104671928Y-112579333D01*
X104544000Y-112579333D01*
X104545342Y-112679875D01*
X104550372Y-112751947D01*
X104561422Y-112813876D01*
X104566647Y-112830261D01*
X104632993Y-112945712D01*
X104726270Y-113028600D01*
X104846010Y-113078631D01*
X104989788Y-113095506D01*
X105131954Y-113078811D01*
X105249081Y-113028842D01*
X105338943Y-112947579D01*
X105399319Y-112837001D01*
X105427412Y-112705801D01*
X105438880Y-112579333D01*
X105308940Y-112579333D01*
G37*
X105308940Y-112579333D02*
X105237626Y-112580148D01*
X105198781Y-112585727D01*
X105182541Y-112600775D01*
X105179041Y-112629996D01*
X105179000Y-112641297D01*
X105159837Y-112708432D01*
X105106935Y-112758597D01*
X105027177Y-112786739D01*
X104975062Y-112791000D01*
X104884480Y-112776105D01*
X104824019Y-112733029D01*
X104796005Y-112664182D01*
X104796420Y-112605791D01*
X104782934Y-112589660D01*
X104734568Y-112581180D01*
X104671928Y-112579333D01*
X104544000Y-112579333D01*
X104545342Y-112679875D01*
X104550372Y-112751947D01*
X104561422Y-112813876D01*
X104566647Y-112830261D01*
X104632993Y-112945712D01*
X104726270Y-113028600D01*
X104846010Y-113078631D01*
X104989788Y-113095506D01*
X105131954Y-113078811D01*
X105249081Y-113028842D01*
X105338943Y-112947579D01*
X105399319Y-112837001D01*
X105427412Y-112705801D01*
X105438880Y-112579333D01*
X105308940Y-112579333D01*
G36*
X104544000Y-113129666D02*
G01*
X104544000Y-113426000D01*
X105433000Y-113426000D01*
X105433000Y-113129666D01*
X104544000Y-113129666D01*
G37*
X104544000Y-113129666D02*
X104544000Y-113426000D01*
X105433000Y-113426000D01*
X105433000Y-113129666D01*
X104544000Y-113129666D01*
G36*
X105428654Y-114552156D02*
G01*
X105422417Y-114410250D01*
X105163224Y-114336166D01*
X105065742Y-114307381D01*
X104984986Y-114281779D01*
X104928628Y-114261921D01*
X104904338Y-114250370D01*
X104903933Y-114249559D01*
X104922186Y-114236734D01*
X104968357Y-114218969D01*
X104993792Y-114211131D01*
X105057604Y-114192525D01*
X105145079Y-114166723D01*
X105239339Y-114138707D01*
X105257714Y-114133219D01*
X105431677Y-114081209D01*
X105431677Y-113468333D01*
X104542146Y-113468333D01*
X104548365Y-113621791D01*
X104554583Y-113775250D01*
X104977917Y-113785833D01*
X105401250Y-113796416D01*
X104971763Y-113953086D01*
X104542275Y-114109756D01*
X104548429Y-114258869D01*
X104554583Y-114407981D01*
X104806215Y-114483199D01*
X105057846Y-114558416D01*
X104800923Y-114639910D01*
X104544000Y-114721403D01*
X104544000Y-114868116D01*
X104547915Y-114961036D01*
X104559710Y-115012809D01*
X104570458Y-115024263D01*
X104597632Y-115034076D01*
X104658208Y-115056022D01*
X104745800Y-115087783D01*
X104854020Y-115127045D01*
X104976479Y-115171490D01*
X105006392Y-115182349D01*
X105129877Y-115227017D01*
X105239357Y-115266315D01*
X105328782Y-115298095D01*
X105392104Y-115320212D01*
X105423273Y-115330519D01*
X105425361Y-115331000D01*
X105429194Y-115311625D01*
X105430480Y-115260539D01*
X105428991Y-115188303D01*
X105428636Y-115179235D01*
X105422417Y-115027469D01*
X105337750Y-115000777D01*
X105278628Y-114982465D01*
X105193896Y-114956624D01*
X105098518Y-114927809D01*
X105062583Y-114917024D01*
X104872083Y-114859962D01*
X104977917Y-114829636D01*
X105049993Y-114808699D01*
X105144267Y-114780936D01*
X105242410Y-114751748D01*
X105259320Y-114746686D01*
X105434890Y-114694063D01*
X105428654Y-114552156D01*
G37*
X105428654Y-114552156D02*
X105422417Y-114410250D01*
X105163224Y-114336166D01*
X105065742Y-114307381D01*
X104984986Y-114281779D01*
X104928628Y-114261921D01*
X104904338Y-114250370D01*
X104903933Y-114249559D01*
X104922186Y-114236734D01*
X104968357Y-114218969D01*
X104993792Y-114211131D01*
X105057604Y-114192525D01*
X105145079Y-114166723D01*
X105239339Y-114138707D01*
X105257714Y-114133219D01*
X105431677Y-114081209D01*
X105431677Y-113468333D01*
X104542146Y-113468333D01*
X104548365Y-113621791D01*
X104554583Y-113775250D01*
X104977917Y-113785833D01*
X105401250Y-113796416D01*
X104971763Y-113953086D01*
X104542275Y-114109756D01*
X104548429Y-114258869D01*
X104554583Y-114407981D01*
X104806215Y-114483199D01*
X105057846Y-114558416D01*
X104800923Y-114639910D01*
X104544000Y-114721403D01*
X104544000Y-114868116D01*
X104547915Y-114961036D01*
X104559710Y-115012809D01*
X104570458Y-115024263D01*
X104597632Y-115034076D01*
X104658208Y-115056022D01*
X104745800Y-115087783D01*
X104854020Y-115127045D01*
X104976479Y-115171490D01*
X105006392Y-115182349D01*
X105129877Y-115227017D01*
X105239357Y-115266315D01*
X105328782Y-115298095D01*
X105392104Y-115320212D01*
X105423273Y-115330519D01*
X105425361Y-115331000D01*
X105429194Y-115311625D01*
X105430480Y-115260539D01*
X105428991Y-115188303D01*
X105428636Y-115179235D01*
X105422417Y-115027469D01*
X105337750Y-115000777D01*
X105278628Y-114982465D01*
X105193896Y-114956624D01*
X105098518Y-114927809D01*
X105062583Y-114917024D01*
X104872083Y-114859962D01*
X104977917Y-114829636D01*
X105049993Y-114808699D01*
X105144267Y-114780936D01*
X105242410Y-114751748D01*
X105259320Y-114746686D01*
X105434890Y-114694063D01*
X105428654Y-114552156D01*
G36*
X104835042Y-115357129D02*
G01*
X104237083Y-115362750D01*
X104230925Y-115501230D01*
X104229900Y-115574378D01*
X104233254Y-115629903D01*
X104239744Y-115654688D01*
X104266320Y-115661341D01*
X104324755Y-115666477D01*
X104404582Y-115669330D01*
X104444975Y-115669666D01*
X104534755Y-115669992D01*
X104588689Y-115672186D01*
X104613269Y-115678074D01*
X104614981Y-115689481D01*
X104600316Y-115708234D01*
X104596620Y-115712328D01*
X104568676Y-115766779D01*
X104551590Y-115847287D01*
X104546781Y-115938639D01*
X104555673Y-116025625D01*
X104564272Y-116058537D01*
X104595657Y-116117573D01*
X104646778Y-116180953D01*
X104675245Y-116208139D01*
X104780497Y-116274294D01*
X104899172Y-116309770D01*
X104978153Y-116313772D01*
X104978153Y-116008333D01*
X104891118Y-115992659D01*
X104825790Y-115951112D01*
X104786449Y-115891906D01*
X104777373Y-115823258D01*
X104802843Y-115753380D01*
X104828788Y-115721621D01*
X104876222Y-115686354D01*
X104935766Y-115671467D01*
X104980882Y-115669666D01*
X105077147Y-115683780D01*
X105141947Y-115725818D01*
X105174756Y-115795323D01*
X105179000Y-115841153D01*
X105161134Y-115920233D01*
X105109799Y-115975674D01*
X105028389Y-116004651D01*
X104978153Y-116008333D01*
X104978153Y-116313772D01*
X105022993Y-116316045D01*
X105143683Y-116294593D01*
X105252965Y-116246890D01*
X105342561Y-116174413D01*
X105404193Y-116078636D01*
X105404403Y-116078135D01*
X105428367Y-115983622D01*
X105430727Y-115879657D01*
X105412143Y-115784407D01*
X105392151Y-115740518D01*
X105366659Y-115696330D01*
X105363470Y-115675580D01*
X105382599Y-115665716D01*
X105392231Y-115663125D01*
X105413778Y-115652198D01*
X105426142Y-115627137D01*
X105431742Y-115578380D01*
X105433000Y-115501985D01*
X105433000Y-115351507D01*
X104835042Y-115357129D01*
G37*
X104835042Y-115357129D02*
X104237083Y-115362750D01*
X104230925Y-115501230D01*
X104229900Y-115574378D01*
X104233254Y-115629903D01*
X104239744Y-115654688D01*
X104266320Y-115661341D01*
X104324755Y-115666477D01*
X104404582Y-115669330D01*
X104444975Y-115669666D01*
X104534755Y-115669992D01*
X104588689Y-115672186D01*
X104613269Y-115678074D01*
X104614981Y-115689481D01*
X104600316Y-115708234D01*
X104596620Y-115712328D01*
X104568676Y-115766779D01*
X104551590Y-115847287D01*
X104546781Y-115938639D01*
X104555673Y-116025625D01*
X104564272Y-116058537D01*
X104595657Y-116117573D01*
X104646778Y-116180953D01*
X104675245Y-116208139D01*
X104780497Y-116274294D01*
X104899172Y-116309770D01*
X104978153Y-116313772D01*
X104978153Y-116008333D01*
X104891118Y-115992659D01*
X104825790Y-115951112D01*
X104786449Y-115891906D01*
X104777373Y-115823258D01*
X104802843Y-115753380D01*
X104828788Y-115721621D01*
X104876222Y-115686354D01*
X104935766Y-115671467D01*
X104980882Y-115669666D01*
X105077147Y-115683780D01*
X105141947Y-115725818D01*
X105174756Y-115795323D01*
X105179000Y-115841153D01*
X105161134Y-115920233D01*
X105109799Y-115975674D01*
X105028389Y-116004651D01*
X104978153Y-116008333D01*
X104978153Y-116313772D01*
X105022993Y-116316045D01*
X105143683Y-116294593D01*
X105252965Y-116246890D01*
X105342561Y-116174413D01*
X105404193Y-116078636D01*
X105404403Y-116078135D01*
X105428367Y-115983622D01*
X105430727Y-115879657D01*
X105412143Y-115784407D01*
X105392151Y-115740518D01*
X105366659Y-115696330D01*
X105363470Y-115675580D01*
X105382599Y-115665716D01*
X105392231Y-115663125D01*
X105413778Y-115652198D01*
X105426142Y-115627137D01*
X105431742Y-115578380D01*
X105433000Y-115501985D01*
X105433000Y-115351507D01*
X104835042Y-115357129D01*
G36*
X99295498Y-93958906D02*
G01*
X99315605Y-93992234D01*
X99363949Y-93984075D01*
X99485016Y-93960201D01*
X99668752Y-93922693D01*
X99905105Y-93873633D01*
X100184023Y-93815102D01*
X100495451Y-93749180D01*
X100695894Y-93706484D01*
X102041622Y-93419167D01*
X102029394Y-93295038D01*
X102019850Y-93237115D01*
X101994295Y-93195907D01*
X101936948Y-93163198D01*
X101832027Y-93130770D01*
X101663751Y-93090406D01*
X101615000Y-93079266D01*
X101212833Y-92987623D01*
X101625583Y-92891260D01*
X101812956Y-92846508D01*
X101932829Y-92812539D01*
X102000267Y-92781391D01*
X102030335Y-92745102D01*
X102038098Y-92695709D01*
X102038333Y-92673115D01*
X102028749Y-92585855D01*
X102006583Y-92550430D01*
X101955955Y-92543975D01*
X101836465Y-92526718D01*
X101662913Y-92500855D01*
X101450102Y-92468583D01*
X101297500Y-92445174D01*
X101013695Y-92401526D01*
X100803016Y-92370479D01*
X100654841Y-92352175D01*
X100558552Y-92346755D01*
X100503528Y-92354362D01*
X100479149Y-92375136D01*
X100474796Y-92409220D01*
X100479771Y-92456084D01*
X100493167Y-92572500D01*
X101043500Y-92637154D01*
X101269780Y-92664714D01*
X101413835Y-92686780D01*
X101477624Y-92706898D01*
X101463105Y-92728615D01*
X101372235Y-92755476D01*
X101206972Y-92791030D01*
X101136329Y-92805298D01*
X100999734Y-92834970D01*
X100927639Y-92863424D01*
X100901377Y-92905301D01*
X100902282Y-92975243D01*
X100903496Y-92987922D01*
X100914400Y-93057037D01*
X100942808Y-93101755D01*
X101007163Y-93133325D01*
X101125912Y-93162999D01*
X101223417Y-93183057D01*
X101371292Y-93216205D01*
X101480118Y-93246946D01*
X101529356Y-93269350D01*
X101530333Y-93271683D01*
X101490622Y-93286965D01*
X101378648Y-93316483D01*
X101205147Y-93357757D01*
X100980858Y-93408312D01*
X100716516Y-93465668D01*
X100422859Y-93527348D01*
X100419083Y-93528128D01*
X99307833Y-93757834D01*
X99294438Y-93874250D01*
X99295498Y-93958906D01*
G37*
X99295498Y-93958906D02*
X99315605Y-93992234D01*
X99363949Y-93984075D01*
X99485016Y-93960201D01*
X99668752Y-93922693D01*
X99905105Y-93873633D01*
X100184023Y-93815102D01*
X100495451Y-93749180D01*
X100695894Y-93706484D01*
X102041622Y-93419167D01*
X102029394Y-93295038D01*
X102019850Y-93237115D01*
X101994295Y-93195907D01*
X101936948Y-93163198D01*
X101832027Y-93130770D01*
X101663751Y-93090406D01*
X101615000Y-93079266D01*
X101212833Y-92987623D01*
X101625583Y-92891260D01*
X101812956Y-92846508D01*
X101932829Y-92812539D01*
X102000267Y-92781391D01*
X102030335Y-92745102D01*
X102038098Y-92695709D01*
X102038333Y-92673115D01*
X102028749Y-92585855D01*
X102006583Y-92550430D01*
X101955955Y-92543975D01*
X101836465Y-92526718D01*
X101662913Y-92500855D01*
X101450102Y-92468583D01*
X101297500Y-92445174D01*
X101013695Y-92401526D01*
X100803016Y-92370479D01*
X100654841Y-92352175D01*
X100558552Y-92346755D01*
X100503528Y-92354362D01*
X100479149Y-92375136D01*
X100474796Y-92409220D01*
X100479771Y-92456084D01*
X100493167Y-92572500D01*
X101043500Y-92637154D01*
X101269780Y-92664714D01*
X101413835Y-92686780D01*
X101477624Y-92706898D01*
X101463105Y-92728615D01*
X101372235Y-92755476D01*
X101206972Y-92791030D01*
X101136329Y-92805298D01*
X100999734Y-92834970D01*
X100927639Y-92863424D01*
X100901377Y-92905301D01*
X100902282Y-92975243D01*
X100903496Y-92987922D01*
X100914400Y-93057037D01*
X100942808Y-93101755D01*
X101007163Y-93133325D01*
X101125912Y-93162999D01*
X101223417Y-93183057D01*
X101371292Y-93216205D01*
X101480118Y-93246946D01*
X101529356Y-93269350D01*
X101530333Y-93271683D01*
X101490622Y-93286965D01*
X101378648Y-93316483D01*
X101205147Y-93357757D01*
X100980858Y-93408312D01*
X100716516Y-93465668D01*
X100422859Y-93527348D01*
X100419083Y-93528128D01*
X99307833Y-93757834D01*
X99294438Y-93874250D01*
X99295498Y-93958906D01*
D11*
X138942020Y-116255640D03*
X101444000Y-116253100D03*
X138929320Y-78755080D03*
X138972500Y-78737300D03*
X101436380Y-78752540D03*
D12*
X123075000Y-77437500D03*
D13*
X119575000Y-80137500D03*
D14*
X121425000Y-80137500D03*
X120775000Y-80137500D03*
X123375000Y-80137500D03*
X122725000Y-80137500D03*
X122075000Y-80137500D03*
D13*
X124575000Y-80137500D03*
D12*
X121075000Y-77437500D03*
D15*
X118575000Y-77437500D03*
X125575000Y-77437500D03*
D16*
X126175000Y-77437500D03*
X117975000Y-77437500D03*
D17*
X136075400Y-88081800D03*
X134805400Y-88081800D03*
X133535400Y-88081800D03*
X132265400Y-88081800D03*
X132265400Y-83011800D03*
X133535400Y-83011800D03*
X134805400Y-83011800D03*
X136075400Y-83011800D03*
D18*
X134170400Y-85546800D03*
D19*
X115204800Y-112883200D03*
D20*
X115784800Y-112848200D03*
X116214800Y-112848200D03*
X116644800Y-112848200D03*
X117074800Y-112848200D03*
D19*
X117654800Y-112883200D03*
X117654800Y-112453200D03*
X117654800Y-112023200D03*
X117654800Y-111593200D03*
X117654800Y-111163200D03*
X117654800Y-110733200D03*
X117654800Y-110303200D03*
X117654800Y-109873200D03*
D20*
X117074800Y-109908200D03*
X116644800Y-109908200D03*
X116214800Y-109908200D03*
X115784800Y-109908200D03*
D19*
X115204800Y-109873200D03*
X115204800Y-110303200D03*
X115204800Y-110733200D03*
X115204800Y-111163200D03*
X115204800Y-111593200D03*
X115204800Y-112023200D03*
X115204800Y-112453200D03*
D21*
X103825000Y-107975000D03*
X103825000Y-108975000D03*
X103825000Y-109975000D03*
X103825000Y-110975000D03*
D22*
X99950000Y-112275000D03*
X99950000Y-106675000D03*
D23*
X115795000Y-78340000D03*
D24*
X114109000Y-87002000D03*
X114109000Y-87652000D03*
X115789000Y-87652000D03*
X115789000Y-87002000D03*
D25*
X130544000Y-103029000D03*
X129344000Y-103029000D03*
D26*
X101865000Y-86145000D03*
X105465000Y-86145000D03*
D27*
X103165000Y-82270000D03*
X104165000Y-82270000D03*
D23*
X134165000Y-111410000D03*
X140241000Y-84226000D03*
X140241000Y-86766000D03*
X127033000Y-86512000D03*
X124493000Y-86512000D03*
X108541800Y-84353000D03*
X121953000Y-86512000D03*
X140241000Y-89306000D03*
X131198600Y-111440578D03*
X138615000Y-90480000D03*
D28*
X113859000Y-83877000D03*
X113859000Y-85777000D03*
X116059000Y-85777000D03*
X116059000Y-84827000D03*
X116059000Y-83877000D03*
D29*
X137176400Y-104825400D03*
X137176400Y-105725400D03*
X137998400Y-105725400D03*
X137998400Y-103925400D03*
D30*
X139250400Y-104825400D03*
D29*
X137176400Y-103925400D03*
D31*
X139250400Y-105487400D03*
X139250400Y-104163400D03*
X138588400Y-104825400D03*
X139912400Y-104825400D03*
D32*
X119556000Y-83337000D03*
X121556000Y-84287000D03*
X121556000Y-82387000D03*
D33*
X127400000Y-105950000D03*
X126450000Y-107950000D03*
X128350000Y-107950000D03*
D34*
X110241000Y-84620000D03*
X110241000Y-83520000D03*
D35*
X112379800Y-111378200D03*
X113479800Y-111378200D03*
X112379800Y-109378200D03*
X113479800Y-109378200D03*
X124281000Y-118008000D03*
X123181000Y-118008000D03*
X115979278Y-116888676D03*
X117079278Y-116888676D03*
X113459800Y-112798200D03*
X112359800Y-112798200D03*
X113479800Y-110378200D03*
X112379800Y-110378200D03*
D34*
X112241000Y-84620000D03*
X112241000Y-83520000D03*
D35*
X111080000Y-81041000D03*
X112180000Y-81041000D03*
D34*
X129344400Y-105516400D03*
X129344400Y-104416400D03*
D35*
X111080000Y-77041000D03*
X112180000Y-77041000D03*
D34*
X117635000Y-84877000D03*
X117635000Y-83777000D03*
X130538200Y-105516400D03*
X130538200Y-104416400D03*
X111241000Y-84620000D03*
X111241000Y-83520000D03*
D36*
X117429800Y-108328200D03*
X117429800Y-107428200D03*
D37*
X118979800Y-109878200D03*
X119879800Y-109878200D03*
X118979800Y-108878200D03*
X119879800Y-108878200D03*
D36*
X140647400Y-109245000D03*
X140647400Y-108345000D03*
X138082000Y-110885000D03*
X138082000Y-111785000D03*
D37*
X116979278Y-118158676D03*
X116079278Y-118158676D03*
D36*
X132087600Y-109720400D03*
X132087600Y-108820400D03*
X133357600Y-109720400D03*
X133357600Y-108820400D03*
D37*
X112405000Y-114560000D03*
X111505000Y-114560000D03*
X126650000Y-109425000D03*
X127550000Y-109425000D03*
X134735000Y-114560000D03*
X133835000Y-114560000D03*
X114400000Y-77050000D03*
X113500000Y-77050000D03*
D36*
X126138920Y-103895340D03*
X126138920Y-104795340D03*
D37*
X109580000Y-77041000D03*
X108680000Y-77041000D03*
X108680000Y-81041000D03*
X109580000Y-81041000D03*
X118979800Y-110878200D03*
X119879800Y-110878200D03*
D38*
X127150000Y-93000000D03*
X127150000Y-94100000D03*
X127150000Y-95200000D03*
X127150000Y-96300000D03*
X127150000Y-97400000D03*
X127150000Y-98500000D03*
X127150000Y-99600000D03*
X127150000Y-100700000D03*
X135750000Y-94250000D03*
X134650000Y-94250000D03*
X133550000Y-94250000D03*
X132450000Y-94250000D03*
X131350000Y-94250000D03*
X129850000Y-95750000D03*
X129850000Y-96850000D03*
X129850000Y-97950000D03*
X131350000Y-99450000D03*
X132450000Y-99450000D03*
X133550000Y-99450000D03*
X134650000Y-99450000D03*
X135750000Y-99450000D03*
X136850000Y-98500000D03*
X136850000Y-95200000D03*
X136850000Y-92450000D03*
X136300000Y-93350000D03*
X135750000Y-92450000D03*
X135200000Y-93350000D03*
X134650000Y-92450000D03*
X134100000Y-93350000D03*
X133550000Y-92450000D03*
X133000000Y-93350000D03*
X132450000Y-92450000D03*
X131900000Y-93350000D03*
X131350000Y-92450000D03*
X130800000Y-93350000D03*
X130250000Y-92450000D03*
X129700000Y-93350000D03*
X129150000Y-92450000D03*
X128050000Y-92450000D03*
X128050000Y-93550000D03*
X128950000Y-94100000D03*
X128050000Y-94650000D03*
X128950000Y-95200000D03*
X128050000Y-95750000D03*
X128950000Y-96300000D03*
X128050000Y-96850000D03*
X128950000Y-97400000D03*
X128050000Y-97950000D03*
X128950000Y-98500000D03*
X128050000Y-99050000D03*
X128950000Y-99600000D03*
X128050000Y-100150000D03*
X128050000Y-101250000D03*
X129150000Y-101250000D03*
X129700000Y-100350000D03*
X130250000Y-101250000D03*
X130800000Y-100350000D03*
X131350000Y-101250000D03*
X131900000Y-100350000D03*
X132450000Y-101250000D03*
X133000000Y-100350000D03*
X133550000Y-101250000D03*
X134100000Y-100350000D03*
X134650000Y-101250000D03*
X135200000Y-100350000D03*
X135750000Y-101250000D03*
X136300000Y-100350000D03*
X136850000Y-101250000D03*
D39*
X112130000Y-78291000D03*
X112130000Y-78791000D03*
X112130000Y-79291000D03*
X112130000Y-79791000D03*
X109130000Y-79791000D03*
X109130000Y-79291000D03*
X109130000Y-78791000D03*
X109130000Y-78291000D03*
D40*
X110630000Y-79041000D03*
D41*
X123743700Y-102739440D03*
X123743700Y-102239440D03*
X123743700Y-101739440D03*
X123743700Y-101239440D03*
X123743700Y-100739440D03*
X123743700Y-100239440D03*
X123743700Y-99739440D03*
X123743700Y-99239440D03*
X123743700Y-98739440D03*
X123743700Y-98239440D03*
X123743700Y-97739440D03*
X123743700Y-97239440D03*
X123743700Y-96739440D03*
X123743700Y-96239440D03*
X123743700Y-95739440D03*
X123743700Y-95239440D03*
X123743700Y-94739440D03*
X123743700Y-94239440D03*
X123743700Y-93739440D03*
X123743700Y-93239440D03*
X123743700Y-92739440D03*
X123743700Y-92239440D03*
D42*
X121843700Y-105014440D03*
X121843700Y-89964440D03*
D43*
G36*
X125398620Y-113387654D02*
G01*
X125423515Y-113391347D01*
X125447928Y-113397462D01*
X125471623Y-113405940D01*
X125494374Y-113416700D01*
X125515960Y-113429639D01*
X125536174Y-113444630D01*
X125554822Y-113461531D01*
X125571723Y-113480179D01*
X125586714Y-113500393D01*
X125599653Y-113521979D01*
X125610413Y-113544730D01*
X125618891Y-113568425D01*
X125625006Y-113592838D01*
X125628699Y-113617733D01*
X125629934Y-113642869D01*
X125629934Y-114580769D01*
X125628699Y-114605905D01*
X125625006Y-114630800D01*
X125618891Y-114655213D01*
X125610413Y-114678908D01*
X125599653Y-114701659D01*
X125586714Y-114723245D01*
X125571723Y-114743459D01*
X125554822Y-114762107D01*
X125536174Y-114779008D01*
X125515960Y-114793999D01*
X125494374Y-114806938D01*
X125471623Y-114817698D01*
X125447928Y-114826176D01*
X125423515Y-114832291D01*
X125398620Y-114835984D01*
X125373484Y-114837219D01*
X124860584Y-114837219D01*
X124835448Y-114835984D01*
X124810553Y-114832291D01*
X124786140Y-114826176D01*
X124762445Y-114817698D01*
X124739694Y-114806938D01*
X124718108Y-114793999D01*
X124697894Y-114779008D01*
X124679246Y-114762107D01*
X124662345Y-114743459D01*
X124647354Y-114723245D01*
X124634415Y-114701659D01*
X124623655Y-114678908D01*
X124615177Y-114655213D01*
X124609062Y-114630800D01*
X124605369Y-114605905D01*
X124604134Y-114580769D01*
X124604134Y-113642869D01*
X124605369Y-113617733D01*
X124609062Y-113592838D01*
X124615177Y-113568425D01*
X124623655Y-113544730D01*
X124634415Y-113521979D01*
X124647354Y-113500393D01*
X124662345Y-113480179D01*
X124679246Y-113461531D01*
X124697894Y-113444630D01*
X124718108Y-113429639D01*
X124739694Y-113416700D01*
X124762445Y-113405940D01*
X124786140Y-113397462D01*
X124810553Y-113391347D01*
X124835448Y-113387654D01*
X124860584Y-113386419D01*
X125373484Y-113386419D01*
X125398620Y-113387654D01*
G37*
G36*
X123523620Y-113387654D02*
G01*
X123548515Y-113391347D01*
X123572928Y-113397462D01*
X123596623Y-113405940D01*
X123619374Y-113416700D01*
X123640960Y-113429639D01*
X123661174Y-113444630D01*
X123679822Y-113461531D01*
X123696723Y-113480179D01*
X123711714Y-113500393D01*
X123724653Y-113521979D01*
X123735413Y-113544730D01*
X123743891Y-113568425D01*
X123750006Y-113592838D01*
X123753699Y-113617733D01*
X123754934Y-113642869D01*
X123754934Y-114580769D01*
X123753699Y-114605905D01*
X123750006Y-114630800D01*
X123743891Y-114655213D01*
X123735413Y-114678908D01*
X123724653Y-114701659D01*
X123711714Y-114723245D01*
X123696723Y-114743459D01*
X123679822Y-114762107D01*
X123661174Y-114779008D01*
X123640960Y-114793999D01*
X123619374Y-114806938D01*
X123596623Y-114817698D01*
X123572928Y-114826176D01*
X123548515Y-114832291D01*
X123523620Y-114835984D01*
X123498484Y-114837219D01*
X122985584Y-114837219D01*
X122960448Y-114835984D01*
X122935553Y-114832291D01*
X122911140Y-114826176D01*
X122887445Y-114817698D01*
X122864694Y-114806938D01*
X122843108Y-114793999D01*
X122822894Y-114779008D01*
X122804246Y-114762107D01*
X122787345Y-114743459D01*
X122772354Y-114723245D01*
X122759415Y-114701659D01*
X122748655Y-114678908D01*
X122740177Y-114655213D01*
X122734062Y-114630800D01*
X122730369Y-114605905D01*
X122729134Y-114580769D01*
X122729134Y-113642869D01*
X122730369Y-113617733D01*
X122734062Y-113592838D01*
X122740177Y-113568425D01*
X122748655Y-113544730D01*
X122759415Y-113521979D01*
X122772354Y-113500393D01*
X122787345Y-113480179D01*
X122804246Y-113461531D01*
X122822894Y-113444630D01*
X122843108Y-113429639D01*
X122864694Y-113416700D01*
X122887445Y-113405940D01*
X122911140Y-113397462D01*
X122935553Y-113391347D01*
X122960448Y-113387654D01*
X122985584Y-113386419D01*
X123498484Y-113386419D01*
X123523620Y-113387654D01*
G37*
G36*
X123523620Y-115546654D02*
G01*
X123548515Y-115550347D01*
X123572928Y-115556462D01*
X123596623Y-115564940D01*
X123619374Y-115575700D01*
X123640960Y-115588639D01*
X123661174Y-115603630D01*
X123679822Y-115620531D01*
X123696723Y-115639179D01*
X123711714Y-115659393D01*
X123724653Y-115680979D01*
X123735413Y-115703730D01*
X123743891Y-115727425D01*
X123750006Y-115751838D01*
X123753699Y-115776733D01*
X123754934Y-115801869D01*
X123754934Y-116739769D01*
X123753699Y-116764905D01*
X123750006Y-116789800D01*
X123743891Y-116814213D01*
X123735413Y-116837908D01*
X123724653Y-116860659D01*
X123711714Y-116882245D01*
X123696723Y-116902459D01*
X123679822Y-116921107D01*
X123661174Y-116938008D01*
X123640960Y-116952999D01*
X123619374Y-116965938D01*
X123596623Y-116976698D01*
X123572928Y-116985176D01*
X123548515Y-116991291D01*
X123523620Y-116994984D01*
X123498484Y-116996219D01*
X122985584Y-116996219D01*
X122960448Y-116994984D01*
X122935553Y-116991291D01*
X122911140Y-116985176D01*
X122887445Y-116976698D01*
X122864694Y-116965938D01*
X122843108Y-116952999D01*
X122822894Y-116938008D01*
X122804246Y-116921107D01*
X122787345Y-116902459D01*
X122772354Y-116882245D01*
X122759415Y-116860659D01*
X122748655Y-116837908D01*
X122740177Y-116814213D01*
X122734062Y-116789800D01*
X122730369Y-116764905D01*
X122729134Y-116739769D01*
X122729134Y-115801869D01*
X122730369Y-115776733D01*
X122734062Y-115751838D01*
X122740177Y-115727425D01*
X122748655Y-115703730D01*
X122759415Y-115680979D01*
X122772354Y-115659393D01*
X122787345Y-115639179D01*
X122804246Y-115620531D01*
X122822894Y-115603630D01*
X122843108Y-115588639D01*
X122864694Y-115575700D01*
X122887445Y-115564940D01*
X122911140Y-115556462D01*
X122935553Y-115550347D01*
X122960448Y-115546654D01*
X122985584Y-115545419D01*
X123498484Y-115545419D01*
X123523620Y-115546654D01*
G37*
G36*
X125398620Y-115546654D02*
G01*
X125423515Y-115550347D01*
X125447928Y-115556462D01*
X125471623Y-115564940D01*
X125494374Y-115575700D01*
X125515960Y-115588639D01*
X125536174Y-115603630D01*
X125554822Y-115620531D01*
X125571723Y-115639179D01*
X125586714Y-115659393D01*
X125599653Y-115680979D01*
X125610413Y-115703730D01*
X125618891Y-115727425D01*
X125625006Y-115751838D01*
X125628699Y-115776733D01*
X125629934Y-115801869D01*
X125629934Y-116739769D01*
X125628699Y-116764905D01*
X125625006Y-116789800D01*
X125618891Y-116814213D01*
X125610413Y-116837908D01*
X125599653Y-116860659D01*
X125586714Y-116882245D01*
X125571723Y-116902459D01*
X125554822Y-116921107D01*
X125536174Y-116938008D01*
X125515960Y-116952999D01*
X125494374Y-116965938D01*
X125471623Y-116976698D01*
X125447928Y-116985176D01*
X125423515Y-116991291D01*
X125398620Y-116994984D01*
X125373484Y-116996219D01*
X124860584Y-116996219D01*
X124835448Y-116994984D01*
X124810553Y-116991291D01*
X124786140Y-116985176D01*
X124762445Y-116976698D01*
X124739694Y-116965938D01*
X124718108Y-116952999D01*
X124697894Y-116938008D01*
X124679246Y-116921107D01*
X124662345Y-116902459D01*
X124647354Y-116882245D01*
X124634415Y-116860659D01*
X124623655Y-116837908D01*
X124615177Y-116814213D01*
X124609062Y-116789800D01*
X124605369Y-116764905D01*
X124604134Y-116739769D01*
X124604134Y-115801869D01*
X124605369Y-115776733D01*
X124609062Y-115751838D01*
X124615177Y-115727425D01*
X124623655Y-115703730D01*
X124634415Y-115680979D01*
X124647354Y-115659393D01*
X124662345Y-115639179D01*
X124679246Y-115620531D01*
X124697894Y-115603630D01*
X124718108Y-115588639D01*
X124739694Y-115575700D01*
X124762445Y-115564940D01*
X124786140Y-115556462D01*
X124810553Y-115550347D01*
X124835448Y-115546654D01*
X124860584Y-115545419D01*
X125373484Y-115545419D01*
X125398620Y-115546654D01*
G37*
D44*
X123604000Y-82300000D03*
X123604000Y-84400000D03*
D36*
X107075000Y-78725000D03*
X107075000Y-77825000D03*
D37*
X135235000Y-77060000D03*
X134335000Y-77060000D03*
D23*
X107775000Y-82150000D03*
D36*
X128000000Y-82975000D03*
X128000000Y-82075000D03*
X128000000Y-83900000D03*
X128000000Y-84800000D03*
M02*
