G04 #@! TF.GenerationSoftware,KiCad,Pcbnew,5.1.5-52549c5~84~ubuntu19.04.1*
G04 #@! TF.CreationDate,2020-01-13T11:43:28+01:00*
G04 #@! TF.ProjectId,badge,62616467-652e-46b6-9963-61645f706362,rev?*
G04 #@! TF.SameCoordinates,Original*
G04 #@! TF.FileFunction,Legend,Bot*
G04 #@! TF.FilePolarity,Positive*
%FSLAX46Y46*%
G04 Gerber Fmt 4.6, Leading zero omitted, Abs format (unit mm)*
G04 Created by KiCad (PCBNEW 5.1.5-52549c5~84~ubuntu19.04.1) date 2020-01-13 11:43:28*
%MOMM*%
%LPD*%
G04 APERTURE LIST*
%ADD10C,0.200000*%
%ADD11C,0.120000*%
%ADD12C,0.203200*%
%ADD13C,0.254000*%
%ADD14C,0.101600*%
%ADD15C,0.100000*%
%ADD16C,0.160000*%
%ADD17C,0.050000*%
%ADD18C,0.127000*%
%ADD19C,0.250000*%
%ADD20C,0.152400*%
G04 APERTURE END LIST*
D10*
X116314000Y-86990000D02*
G75*
G03X116314000Y-86990000I-24000J0D01*
G01*
X115659000Y-87927000D02*
X114259000Y-87927000D01*
X114259000Y-86727000D02*
X115659000Y-86727000D01*
D11*
X128844000Y-104204000D02*
X128844000Y-103004000D01*
X129844000Y-102904000D02*
X130044000Y-102904000D01*
X129844000Y-104304000D02*
X130044000Y-104304000D01*
D10*
X136482203Y-89396800D02*
G75*
G03X136482203Y-89396800I-111803J0D01*
G01*
D12*
X137220400Y-88096800D02*
X137220400Y-82996800D01*
X131120400Y-82996800D02*
X131120400Y-88096800D01*
D13*
X101665000Y-82195000D02*
X102565000Y-82195000D01*
X105665000Y-82195000D02*
X104810000Y-82195000D01*
X104432000Y-86445000D02*
X102943000Y-86445000D01*
X101665000Y-82195000D02*
X101665000Y-84542000D01*
X105665000Y-82195000D02*
X105665000Y-84408000D01*
D12*
X118079500Y-117769240D02*
X118079500Y-115351160D01*
X120916680Y-116758320D02*
X120916680Y-116362080D01*
X122118100Y-117769240D02*
X122118100Y-115351160D01*
X118079500Y-117769240D02*
X122118100Y-117769240D01*
X118079500Y-115351160D02*
X122118100Y-115351160D01*
D14*
X118632740Y-114916820D02*
G75*
G03X118632740Y-114916820I-154460J0D01*
G01*
D12*
X118312994Y-116372752D02*
G75*
G03X118313180Y-116748160I515806J-187448D01*
G01*
X119346552Y-116749281D02*
G75*
G03X119346960Y-116372240I-517752J189081D01*
G01*
X121121065Y-116369698D02*
G75*
G03X121119880Y-116748160I405215J-190502D01*
G01*
X121933128Y-116752648D02*
G75*
G03X121935220Y-116372240I-406848J192448D01*
G01*
D11*
X134865000Y-111410000D02*
G75*
G03X134865000Y-111410000I-700000J0D01*
G01*
X140941000Y-84226000D02*
G75*
G03X140941000Y-84226000I-700000J0D01*
G01*
X140941000Y-86766000D02*
G75*
G03X140941000Y-86766000I-700000J0D01*
G01*
X127733000Y-86512000D02*
G75*
G03X127733000Y-86512000I-700000J0D01*
G01*
X125193000Y-86512000D02*
G75*
G03X125193000Y-86512000I-700000J0D01*
G01*
X109241800Y-84353000D02*
G75*
G03X109241800Y-84353000I-700000J0D01*
G01*
X122653000Y-86512000D02*
G75*
G03X122653000Y-86512000I-700000J0D01*
G01*
X140941000Y-89306000D02*
G75*
G03X140941000Y-89306000I-700000J0D01*
G01*
X119224000Y-78257000D02*
G75*
G03X119224000Y-78257000I-700000J0D01*
G01*
X131898600Y-111440578D02*
G75*
G03X131898600Y-111440578I-700000J0D01*
G01*
X140941000Y-81686000D02*
G75*
G03X140941000Y-81686000I-700000J0D01*
G01*
X114059000Y-83217000D02*
X116509000Y-83217000D01*
X115859000Y-86437000D02*
X114059000Y-86437000D01*
D15*
X136650400Y-106325400D02*
X137050400Y-106325400D01*
X136650400Y-105925400D02*
X136650400Y-106325400D01*
X136650400Y-103325400D02*
X137050400Y-103325400D01*
X136650400Y-103725400D02*
X136650400Y-103325400D01*
X140450400Y-106325400D02*
X140450400Y-105925400D01*
X140050400Y-106325400D02*
X140450400Y-106325400D01*
X140450400Y-103325400D02*
X140450400Y-103725400D01*
X140050400Y-103325400D02*
X140450400Y-103325400D01*
D11*
X119796000Y-84917000D02*
X121256000Y-84917000D01*
X119796000Y-81757000D02*
X121956000Y-81757000D01*
X119796000Y-81757000D02*
X119796000Y-82687000D01*
X119796000Y-84917000D02*
X119796000Y-83987000D01*
X127947940Y-105777780D02*
X126487940Y-105777780D01*
X127947940Y-108937780D02*
X125787940Y-108937780D01*
X127947940Y-108937780D02*
X127947940Y-108007780D01*
X127947940Y-105777780D02*
X127947940Y-106707780D01*
X108325000Y-77450000D02*
X106865000Y-77450000D01*
X108325000Y-80610000D02*
X106165000Y-80610000D01*
X108325000Y-80610000D02*
X108325000Y-79680000D01*
X108325000Y-77450000D02*
X108325000Y-78380000D01*
X110691000Y-83950000D02*
X110691000Y-84450000D01*
X109751000Y-84450000D02*
X109751000Y-83950000D01*
X113179800Y-111848200D02*
X112679800Y-111848200D01*
X112679800Y-110908200D02*
X113179800Y-110908200D01*
X113179800Y-109848200D02*
X112679800Y-109848200D01*
X112679800Y-108908200D02*
X113179800Y-108908200D01*
X123481000Y-117538000D02*
X123981000Y-117538000D01*
X123981000Y-118478000D02*
X123481000Y-118478000D01*
X116779278Y-117358676D02*
X116279278Y-117358676D01*
X116279278Y-116418676D02*
X116779278Y-116418676D01*
X112679800Y-111908200D02*
X113179800Y-111908200D01*
X113179800Y-112848200D02*
X112679800Y-112848200D01*
X112679800Y-109908200D02*
X113179800Y-109908200D01*
X113179800Y-110848200D02*
X112679800Y-110848200D01*
X112691000Y-83950000D02*
X112691000Y-84450000D01*
X111751000Y-84450000D02*
X111751000Y-83950000D01*
X115955000Y-81486000D02*
X115455000Y-81486000D01*
X115455000Y-80546000D02*
X115955000Y-80546000D01*
X129814400Y-105591400D02*
X129814400Y-106091400D01*
X128874400Y-106091400D02*
X128874400Y-105591400D01*
X115955000Y-77486000D02*
X115455000Y-77486000D01*
X115455000Y-76546000D02*
X115955000Y-76546000D01*
X132811600Y-77422800D02*
X132811600Y-77922800D01*
X131871600Y-77922800D02*
X131871600Y-77422800D01*
X118105000Y-84077000D02*
X118105000Y-84577000D01*
X117165000Y-84577000D02*
X117165000Y-84077000D01*
X131008200Y-105591400D02*
X131008200Y-106091400D01*
X130068200Y-106091400D02*
X130068200Y-105591400D01*
X111691000Y-83950000D02*
X111691000Y-84450000D01*
X110751000Y-84450000D02*
X110751000Y-83950000D01*
X117959800Y-107628200D02*
X117959800Y-108128200D01*
X116899800Y-108128200D02*
X116899800Y-107628200D01*
X119679800Y-110408200D02*
X119179800Y-110408200D01*
X119179800Y-109348200D02*
X119679800Y-109348200D01*
X119679800Y-109408200D02*
X119179800Y-109408200D01*
X119179800Y-108348200D02*
X119679800Y-108348200D01*
X141177400Y-108545000D02*
X141177400Y-109045000D01*
X140117400Y-109045000D02*
X140117400Y-108545000D01*
X137552000Y-111585000D02*
X137552000Y-111085000D01*
X138612000Y-111085000D02*
X138612000Y-111585000D01*
X116279278Y-117628676D02*
X116779278Y-117628676D01*
X116779278Y-118688676D02*
X116279278Y-118688676D01*
X132617600Y-109020400D02*
X132617600Y-109520400D01*
X131557600Y-109520400D02*
X131557600Y-109020400D01*
X133887600Y-109020400D02*
X133887600Y-109520400D01*
X132827600Y-109520400D02*
X132827600Y-109020400D01*
X109335000Y-79740000D02*
X109335000Y-79240000D01*
X110395000Y-79240000D02*
X110395000Y-79740000D01*
X111705000Y-114030000D02*
X112205000Y-114030000D01*
X112205000Y-115090000D02*
X111705000Y-115090000D01*
X126395000Y-109220000D02*
X126895000Y-109220000D01*
X126895000Y-110280000D02*
X126395000Y-110280000D01*
X134035000Y-114030000D02*
X134535000Y-114030000D01*
X134535000Y-115090000D02*
X134035000Y-115090000D01*
X119225000Y-80320000D02*
X119725000Y-80320000D01*
X119725000Y-81380000D02*
X119225000Y-81380000D01*
X126668920Y-104095340D02*
X126668920Y-104595340D01*
X125608920Y-104595340D02*
X125608920Y-104095340D01*
X112955000Y-76486000D02*
X113455000Y-76486000D01*
X113455000Y-77546000D02*
X112955000Y-77546000D01*
X113455000Y-81546000D02*
X112955000Y-81546000D01*
X112955000Y-80486000D02*
X113455000Y-80486000D01*
X119679800Y-111408200D02*
X119179800Y-111408200D01*
X119179800Y-110348200D02*
X119679800Y-110348200D01*
D16*
X115234800Y-109373200D02*
G75*
G03X115234800Y-109373200I-80000J0D01*
G01*
D15*
X115354800Y-109628200D02*
X114929800Y-109628200D01*
D17*
X114929800Y-109628200D02*
X114954800Y-109623200D01*
D10*
X136950000Y-102350000D02*
G75*
G03X136950000Y-102350000I-100000J0D01*
G01*
D18*
X136800000Y-101950000D02*
X126500000Y-101950000D01*
X126500000Y-91750000D02*
X136800000Y-91750000D01*
X126500000Y-91750000D02*
X126500000Y-101950000D01*
D19*
X116730000Y-77616000D02*
G75*
G03X116730000Y-77616000I-125000J0D01*
G01*
D11*
X123920956Y-113401819D02*
X124438112Y-113401819D01*
X123920956Y-114821819D02*
X124438112Y-114821819D01*
X123920956Y-115560819D02*
X124438112Y-115560819D01*
X123920956Y-116980819D02*
X124438112Y-116980819D01*
X124454000Y-84850000D02*
X122754000Y-84850000D01*
X122754000Y-84850000D02*
X122754000Y-82300000D01*
X124454000Y-84850000D02*
X124454000Y-82300000D01*
X121100000Y-80612500D02*
X121550000Y-80612500D01*
X121100000Y-78762500D02*
X121100000Y-80612500D01*
X128900000Y-76212500D02*
X128900000Y-76462500D01*
X121100000Y-76212500D02*
X121100000Y-76462500D01*
X128900000Y-78762500D02*
X128900000Y-80612500D01*
X128900000Y-80612500D02*
X128450000Y-80612500D01*
X123300000Y-81162500D02*
X123750000Y-81162500D01*
X123300000Y-81162500D02*
X123300000Y-80712500D01*
D15*
X122743700Y-104989440D02*
X123493700Y-104989440D01*
X123493700Y-104989440D02*
X123493700Y-103489440D01*
X122743700Y-89964440D02*
X123493700Y-89989440D01*
X123493700Y-89989440D02*
X123493700Y-91489440D01*
X120993700Y-104989440D02*
X118943700Y-104989440D01*
X118943700Y-104989440D02*
X118943700Y-89989440D01*
X118943700Y-89989440D02*
X120993700Y-89989440D01*
X124393700Y-102789440D02*
X124393700Y-102789440D01*
X124393700Y-102689440D02*
X124393700Y-102689440D01*
X124393700Y-102689440D02*
G75*
G02X124393700Y-102789440I0J-50000D01*
G01*
X124393700Y-102789440D02*
G75*
G02X124393700Y-102689440I0J50000D01*
G01*
D20*
X118124857Y-87809214D02*
X118124857Y-87047214D01*
X117326571Y-87736642D02*
X117362857Y-87772928D01*
X117471714Y-87809214D01*
X117544285Y-87809214D01*
X117653142Y-87772928D01*
X117725714Y-87700357D01*
X117762000Y-87627785D01*
X117798285Y-87482642D01*
X117798285Y-87373785D01*
X117762000Y-87228642D01*
X117725714Y-87156071D01*
X117653142Y-87083500D01*
X117544285Y-87047214D01*
X117471714Y-87047214D01*
X117362857Y-87083500D01*
X117326571Y-87119785D01*
X117036285Y-87119785D02*
X117000000Y-87083500D01*
X116927428Y-87047214D01*
X116746000Y-87047214D01*
X116673428Y-87083500D01*
X116637142Y-87119785D01*
X116600857Y-87192357D01*
X116600857Y-87264928D01*
X116637142Y-87373785D01*
X117072571Y-87809214D01*
X116600857Y-87809214D01*
X132247257Y-103638857D02*
X132247257Y-104001714D01*
X132501257Y-103239714D02*
X132247257Y-103638857D01*
X131993257Y-103239714D01*
X131340114Y-104001714D02*
X131775542Y-104001714D01*
X131557828Y-104001714D02*
X131557828Y-103239714D01*
X131630400Y-103348571D01*
X131702971Y-103421142D01*
X131775542Y-103457428D01*
X133245571Y-89052714D02*
X133245571Y-89669571D01*
X133209285Y-89742142D01*
X133173000Y-89778428D01*
X133100428Y-89814714D01*
X132955285Y-89814714D01*
X132882714Y-89778428D01*
X132846428Y-89742142D01*
X132810142Y-89669571D01*
X132810142Y-89052714D01*
X132048142Y-89814714D02*
X132483571Y-89814714D01*
X132265857Y-89814714D02*
X132265857Y-89052714D01*
X132338428Y-89161571D01*
X132411000Y-89234142D01*
X132483571Y-89270428D01*
X100247714Y-83091000D02*
X100792000Y-83091000D01*
X100900857Y-83054714D01*
X100973428Y-82982142D01*
X101009714Y-82873285D01*
X101009714Y-82800714D01*
X100320285Y-83417571D02*
X100284000Y-83453857D01*
X100247714Y-83526428D01*
X100247714Y-83707857D01*
X100284000Y-83780428D01*
X100320285Y-83816714D01*
X100392857Y-83853000D01*
X100465428Y-83853000D01*
X100574285Y-83816714D01*
X101009714Y-83381285D01*
X101009714Y-83853000D01*
X135126571Y-112440714D02*
X134691142Y-112440714D01*
X134908857Y-113202714D02*
X134908857Y-112440714D01*
X134437142Y-113202714D02*
X134437142Y-112440714D01*
X134146857Y-112440714D01*
X134074285Y-112477000D01*
X134038000Y-112513285D01*
X134001714Y-112585857D01*
X134001714Y-112694714D01*
X134038000Y-112767285D01*
X134074285Y-112803571D01*
X134146857Y-112839857D01*
X134437142Y-112839857D01*
X133312285Y-112440714D02*
X133675142Y-112440714D01*
X133711428Y-112803571D01*
X133675142Y-112767285D01*
X133602571Y-112731000D01*
X133421142Y-112731000D01*
X133348571Y-112767285D01*
X133312285Y-112803571D01*
X133276000Y-112876142D01*
X133276000Y-113057571D01*
X133312285Y-113130142D01*
X133348571Y-113166428D01*
X133421142Y-113202714D01*
X133602571Y-113202714D01*
X133675142Y-113166428D01*
X133711428Y-113130142D01*
X139678571Y-82792714D02*
X139243142Y-82792714D01*
X139460857Y-83554714D02*
X139460857Y-82792714D01*
X138989142Y-83554714D02*
X138989142Y-82792714D01*
X138698857Y-82792714D01*
X138626285Y-82829000D01*
X138590000Y-82865285D01*
X138553714Y-82937857D01*
X138553714Y-83046714D01*
X138590000Y-83119285D01*
X138626285Y-83155571D01*
X138698857Y-83191857D01*
X138989142Y-83191857D01*
X137828000Y-83554714D02*
X138263428Y-83554714D01*
X138045714Y-83554714D02*
X138045714Y-82792714D01*
X138118285Y-82901571D01*
X138190857Y-82974142D01*
X138263428Y-83010428D01*
X139678571Y-85332714D02*
X139243142Y-85332714D01*
X139460857Y-86094714D02*
X139460857Y-85332714D01*
X138989142Y-86094714D02*
X138989142Y-85332714D01*
X138698857Y-85332714D01*
X138626285Y-85369000D01*
X138590000Y-85405285D01*
X138553714Y-85477857D01*
X138553714Y-85586714D01*
X138590000Y-85659285D01*
X138626285Y-85695571D01*
X138698857Y-85731857D01*
X138989142Y-85731857D01*
X138263428Y-85405285D02*
X138227142Y-85369000D01*
X138154571Y-85332714D01*
X137973142Y-85332714D01*
X137900571Y-85369000D01*
X137864285Y-85405285D01*
X137828000Y-85477857D01*
X137828000Y-85550428D01*
X137864285Y-85659285D01*
X138299714Y-86094714D01*
X137828000Y-86094714D01*
X125632734Y-87176028D02*
X125632734Y-87611457D01*
X126394734Y-87393742D02*
X125632734Y-87393742D01*
X126394734Y-87865457D02*
X125632734Y-87865457D01*
X125632734Y-88155742D01*
X125669020Y-88228314D01*
X125705305Y-88264600D01*
X125777877Y-88300885D01*
X125886734Y-88300885D01*
X125959305Y-88264600D01*
X125995591Y-88228314D01*
X126031877Y-88155742D01*
X126031877Y-87865457D01*
X125632734Y-88554885D02*
X125632734Y-89026600D01*
X125923020Y-88772600D01*
X125923020Y-88881457D01*
X125959305Y-88954028D01*
X125995591Y-88990314D01*
X126068162Y-89026600D01*
X126249591Y-89026600D01*
X126322162Y-88990314D01*
X126358448Y-88954028D01*
X126394734Y-88881457D01*
X126394734Y-88663742D01*
X126358448Y-88591171D01*
X126322162Y-88554885D01*
X122930174Y-87005848D02*
X122930174Y-87441277D01*
X123692174Y-87223562D02*
X122930174Y-87223562D01*
X123692174Y-87695277D02*
X122930174Y-87695277D01*
X122930174Y-87985562D01*
X122966460Y-88058134D01*
X123002745Y-88094420D01*
X123075317Y-88130705D01*
X123184174Y-88130705D01*
X123256745Y-88094420D01*
X123293031Y-88058134D01*
X123329317Y-87985562D01*
X123329317Y-87695277D01*
X123184174Y-88783848D02*
X123692174Y-88783848D01*
X122893888Y-88602420D02*
X123438174Y-88420991D01*
X123438174Y-88892705D01*
X109401771Y-82335514D02*
X108966342Y-82335514D01*
X109184057Y-83097514D02*
X109184057Y-82335514D01*
X108712342Y-83097514D02*
X108712342Y-82335514D01*
X108422057Y-82335514D01*
X108349485Y-82371800D01*
X108313200Y-82408085D01*
X108276914Y-82480657D01*
X108276914Y-82589514D01*
X108313200Y-82662085D01*
X108349485Y-82698371D01*
X108422057Y-82734657D01*
X108712342Y-82734657D01*
X108022914Y-82335514D02*
X107514914Y-82335514D01*
X107841485Y-83097514D01*
X120336834Y-86911868D02*
X120336834Y-87347297D01*
X121098834Y-87129582D02*
X120336834Y-87129582D01*
X121098834Y-87601297D02*
X120336834Y-87601297D01*
X120336834Y-87891582D01*
X120373120Y-87964154D01*
X120409405Y-88000440D01*
X120481977Y-88036725D01*
X120590834Y-88036725D01*
X120663405Y-88000440D01*
X120699691Y-87964154D01*
X120735977Y-87891582D01*
X120735977Y-87601297D01*
X120663405Y-88472154D02*
X120627120Y-88399582D01*
X120590834Y-88363297D01*
X120518262Y-88327011D01*
X120481977Y-88327011D01*
X120409405Y-88363297D01*
X120373120Y-88399582D01*
X120336834Y-88472154D01*
X120336834Y-88617297D01*
X120373120Y-88689868D01*
X120409405Y-88726154D01*
X120481977Y-88762440D01*
X120518262Y-88762440D01*
X120590834Y-88726154D01*
X120627120Y-88689868D01*
X120663405Y-88617297D01*
X120663405Y-88472154D01*
X120699691Y-88399582D01*
X120735977Y-88363297D01*
X120808548Y-88327011D01*
X120953691Y-88327011D01*
X121026262Y-88363297D01*
X121062548Y-88399582D01*
X121098834Y-88472154D01*
X121098834Y-88617297D01*
X121062548Y-88689868D01*
X121026262Y-88726154D01*
X120953691Y-88762440D01*
X120808548Y-88762440D01*
X120735977Y-88726154D01*
X120699691Y-88689868D01*
X120663405Y-88617297D01*
X139678571Y-87618714D02*
X139243142Y-87618714D01*
X139460857Y-88380714D02*
X139460857Y-87618714D01*
X138989142Y-88380714D02*
X138989142Y-87618714D01*
X138698857Y-87618714D01*
X138626285Y-87655000D01*
X138590000Y-87691285D01*
X138553714Y-87763857D01*
X138553714Y-87872714D01*
X138590000Y-87945285D01*
X138626285Y-87981571D01*
X138698857Y-88017857D01*
X138989142Y-88017857D01*
X138190857Y-88380714D02*
X138045714Y-88380714D01*
X137973142Y-88344428D01*
X137936857Y-88308142D01*
X137864285Y-88199285D01*
X137828000Y-88054142D01*
X137828000Y-87763857D01*
X137864285Y-87691285D01*
X137900571Y-87655000D01*
X137973142Y-87618714D01*
X138118285Y-87618714D01*
X138190857Y-87655000D01*
X138227142Y-87691285D01*
X138263428Y-87763857D01*
X138263428Y-87945285D01*
X138227142Y-88017857D01*
X138190857Y-88054142D01*
X138118285Y-88090428D01*
X137973142Y-88090428D01*
X137900571Y-88054142D01*
X137864285Y-88017857D01*
X137828000Y-87945285D01*
X119656114Y-76348371D02*
X119656114Y-76783800D01*
X120418114Y-76566085D02*
X119656114Y-76566085D01*
X120418114Y-77037800D02*
X119656114Y-77037800D01*
X119656114Y-77328085D01*
X119692400Y-77400657D01*
X119728685Y-77436942D01*
X119801257Y-77473228D01*
X119910114Y-77473228D01*
X119982685Y-77436942D01*
X120018971Y-77400657D01*
X120055257Y-77328085D01*
X120055257Y-77037800D01*
X120418114Y-78198942D02*
X120418114Y-77763514D01*
X120418114Y-77981228D02*
X119656114Y-77981228D01*
X119764971Y-77908657D01*
X119837542Y-77836085D01*
X119873828Y-77763514D01*
X119656114Y-78670657D02*
X119656114Y-78743228D01*
X119692400Y-78815800D01*
X119728685Y-78852085D01*
X119801257Y-78888371D01*
X119946400Y-78924657D01*
X120127828Y-78924657D01*
X120272971Y-78888371D01*
X120345542Y-78852085D01*
X120381828Y-78815800D01*
X120418114Y-78743228D01*
X120418114Y-78670657D01*
X120381828Y-78598085D01*
X120345542Y-78561800D01*
X120272971Y-78525514D01*
X120127828Y-78489228D01*
X119946400Y-78489228D01*
X119801257Y-78525514D01*
X119728685Y-78561800D01*
X119692400Y-78598085D01*
X119656114Y-78670657D01*
X132160171Y-112471292D02*
X131724742Y-112471292D01*
X131942457Y-113233292D02*
X131942457Y-112471292D01*
X131470742Y-113233292D02*
X131470742Y-112471292D01*
X131180457Y-112471292D01*
X131107885Y-112507578D01*
X131071600Y-112543863D01*
X131035314Y-112616435D01*
X131035314Y-112725292D01*
X131071600Y-112797863D01*
X131107885Y-112834149D01*
X131180457Y-112870435D01*
X131470742Y-112870435D01*
X130382171Y-112471292D02*
X130527314Y-112471292D01*
X130599885Y-112507578D01*
X130636171Y-112543863D01*
X130708742Y-112652720D01*
X130745028Y-112797863D01*
X130745028Y-113088149D01*
X130708742Y-113160720D01*
X130672457Y-113197006D01*
X130599885Y-113233292D01*
X130454742Y-113233292D01*
X130382171Y-113197006D01*
X130345885Y-113160720D01*
X130309600Y-113088149D01*
X130309600Y-112906720D01*
X130345885Y-112834149D01*
X130382171Y-112797863D01*
X130454742Y-112761578D01*
X130599885Y-112761578D01*
X130672457Y-112797863D01*
X130708742Y-112834149D01*
X130745028Y-112906720D01*
X139533428Y-80506714D02*
X139098000Y-80506714D01*
X139315714Y-81268714D02*
X139315714Y-80506714D01*
X138844000Y-81268714D02*
X138844000Y-80506714D01*
X138553714Y-80506714D01*
X138481142Y-80543000D01*
X138444857Y-80579285D01*
X138408571Y-80651857D01*
X138408571Y-80760714D01*
X138444857Y-80833285D01*
X138481142Y-80869571D01*
X138553714Y-80905857D01*
X138844000Y-80905857D01*
X137682857Y-81268714D02*
X138118285Y-81268714D01*
X137900571Y-81268714D02*
X137900571Y-80506714D01*
X137973142Y-80615571D01*
X138045714Y-80688142D01*
X138118285Y-80724428D01*
X136957142Y-81268714D02*
X137392571Y-81268714D01*
X137174857Y-81268714D02*
X137174857Y-80506714D01*
X137247428Y-80615571D01*
X137320000Y-80688142D01*
X137392571Y-80724428D01*
X115548571Y-82094214D02*
X115548571Y-82711071D01*
X115512285Y-82783642D01*
X115476000Y-82819928D01*
X115403428Y-82856214D01*
X115258285Y-82856214D01*
X115185714Y-82819928D01*
X115149428Y-82783642D01*
X115113142Y-82711071D01*
X115113142Y-82094214D01*
X114786571Y-82166785D02*
X114750285Y-82130500D01*
X114677714Y-82094214D01*
X114496285Y-82094214D01*
X114423714Y-82130500D01*
X114387428Y-82166785D01*
X114351142Y-82239357D01*
X114351142Y-82311928D01*
X114387428Y-82420785D01*
X114822857Y-82856214D01*
X114351142Y-82856214D01*
X135825114Y-103646114D02*
X135063114Y-103646114D01*
X135607400Y-103900114D01*
X135063114Y-104154114D01*
X135825114Y-104154114D01*
X135825114Y-104516971D02*
X135063114Y-104516971D01*
X135752542Y-105315257D02*
X135788828Y-105278971D01*
X135825114Y-105170114D01*
X135825114Y-105097542D01*
X135788828Y-104988685D01*
X135716257Y-104916114D01*
X135643685Y-104879828D01*
X135498542Y-104843542D01*
X135389685Y-104843542D01*
X135244542Y-104879828D01*
X135171971Y-104916114D01*
X135099400Y-104988685D01*
X135063114Y-105097542D01*
X135063114Y-105170114D01*
X135099400Y-105278971D01*
X135135685Y-105315257D01*
X135825114Y-106040971D02*
X135825114Y-105605542D01*
X135825114Y-105823257D02*
X135063114Y-105823257D01*
X135171971Y-105750685D01*
X135244542Y-105678114D01*
X135280828Y-105605542D01*
X120184071Y-86167285D02*
X120256642Y-86131000D01*
X120329214Y-86058428D01*
X120438071Y-85949571D01*
X120510642Y-85913285D01*
X120583214Y-85913285D01*
X120546928Y-86094714D02*
X120619500Y-86058428D01*
X120692071Y-85985857D01*
X120728357Y-85840714D01*
X120728357Y-85586714D01*
X120692071Y-85441571D01*
X120619500Y-85369000D01*
X120546928Y-85332714D01*
X120401785Y-85332714D01*
X120329214Y-85369000D01*
X120256642Y-85441571D01*
X120220357Y-85586714D01*
X120220357Y-85840714D01*
X120256642Y-85985857D01*
X120329214Y-86058428D01*
X120401785Y-86094714D01*
X120546928Y-86094714D01*
X119494642Y-86094714D02*
X119930071Y-86094714D01*
X119712357Y-86094714D02*
X119712357Y-85332714D01*
X119784928Y-85441571D01*
X119857500Y-85514142D01*
X119930071Y-85550428D01*
X124717971Y-108778365D02*
X124790542Y-108742080D01*
X124863114Y-108669508D01*
X124971971Y-108560651D01*
X125044542Y-108524365D01*
X125117114Y-108524365D01*
X125080828Y-108705794D02*
X125153400Y-108669508D01*
X125225971Y-108596937D01*
X125262257Y-108451794D01*
X125262257Y-108197794D01*
X125225971Y-108052651D01*
X125153400Y-107980080D01*
X125080828Y-107943794D01*
X124935685Y-107943794D01*
X124863114Y-107980080D01*
X124790542Y-108052651D01*
X124754257Y-108197794D01*
X124754257Y-108451794D01*
X124790542Y-108596937D01*
X124863114Y-108669508D01*
X124935685Y-108705794D01*
X125080828Y-108705794D01*
X124463971Y-108016365D02*
X124427685Y-107980080D01*
X124355114Y-107943794D01*
X124173685Y-107943794D01*
X124101114Y-107980080D01*
X124064828Y-108016365D01*
X124028542Y-108088937D01*
X124028542Y-108161508D01*
X124064828Y-108270365D01*
X124500257Y-108705794D01*
X124028542Y-108705794D01*
X105682285Y-78907428D02*
X105646000Y-78834857D01*
X105573428Y-78762285D01*
X105464571Y-78653428D01*
X105428285Y-78580857D01*
X105428285Y-78508285D01*
X105609714Y-78544571D02*
X105573428Y-78472000D01*
X105500857Y-78399428D01*
X105355714Y-78363142D01*
X105101714Y-78363142D01*
X104956571Y-78399428D01*
X104884000Y-78472000D01*
X104847714Y-78544571D01*
X104847714Y-78689714D01*
X104884000Y-78762285D01*
X104956571Y-78834857D01*
X105101714Y-78871142D01*
X105355714Y-78871142D01*
X105500857Y-78834857D01*
X105573428Y-78762285D01*
X105609714Y-78689714D01*
X105609714Y-78544571D01*
X104847714Y-79125142D02*
X104847714Y-79596857D01*
X105138000Y-79342857D01*
X105138000Y-79451714D01*
X105174285Y-79524285D01*
X105210571Y-79560571D01*
X105283142Y-79596857D01*
X105464571Y-79596857D01*
X105537142Y-79560571D01*
X105573428Y-79524285D01*
X105609714Y-79451714D01*
X105609714Y-79234000D01*
X105573428Y-79161428D01*
X105537142Y-79125142D01*
X110541142Y-85877000D02*
X110577428Y-85840714D01*
X110613714Y-85731857D01*
X110613714Y-85659285D01*
X110577428Y-85550428D01*
X110504857Y-85477857D01*
X110432285Y-85441571D01*
X110287142Y-85405285D01*
X110178285Y-85405285D01*
X110033142Y-85441571D01*
X109960571Y-85477857D01*
X109888000Y-85550428D01*
X109851714Y-85659285D01*
X109851714Y-85731857D01*
X109888000Y-85840714D01*
X109924285Y-85877000D01*
X110178285Y-86312428D02*
X110142000Y-86239857D01*
X110105714Y-86203571D01*
X110033142Y-86167285D01*
X109996857Y-86167285D01*
X109924285Y-86203571D01*
X109888000Y-86239857D01*
X109851714Y-86312428D01*
X109851714Y-86457571D01*
X109888000Y-86530142D01*
X109924285Y-86566428D01*
X109996857Y-86602714D01*
X110033142Y-86602714D01*
X110105714Y-86566428D01*
X110142000Y-86530142D01*
X110178285Y-86457571D01*
X110178285Y-86312428D01*
X110214571Y-86239857D01*
X110250857Y-86203571D01*
X110323428Y-86167285D01*
X110468571Y-86167285D01*
X110541142Y-86203571D01*
X110577428Y-86239857D01*
X110613714Y-86312428D01*
X110613714Y-86457571D01*
X110577428Y-86530142D01*
X110541142Y-86566428D01*
X110468571Y-86602714D01*
X110323428Y-86602714D01*
X110250857Y-86566428D01*
X110214571Y-86530142D01*
X110178285Y-86457571D01*
X110919657Y-111650342D02*
X110955942Y-111686628D01*
X111064800Y-111722914D01*
X111137371Y-111722914D01*
X111246228Y-111686628D01*
X111318800Y-111614057D01*
X111355085Y-111541485D01*
X111391371Y-111396342D01*
X111391371Y-111287485D01*
X111355085Y-111142342D01*
X111318800Y-111069771D01*
X111246228Y-110997200D01*
X111137371Y-110960914D01*
X111064800Y-110960914D01*
X110955942Y-110997200D01*
X110919657Y-111033485D01*
X110193942Y-111722914D02*
X110629371Y-111722914D01*
X110411657Y-111722914D02*
X110411657Y-110960914D01*
X110484228Y-111069771D01*
X110556800Y-111142342D01*
X110629371Y-111178628D01*
X109540800Y-110960914D02*
X109685942Y-110960914D01*
X109758514Y-110997200D01*
X109794800Y-111033485D01*
X109867371Y-111142342D01*
X109903657Y-111287485D01*
X109903657Y-111577771D01*
X109867371Y-111650342D01*
X109831085Y-111686628D01*
X109758514Y-111722914D01*
X109613371Y-111722914D01*
X109540800Y-111686628D01*
X109504514Y-111650342D01*
X109468228Y-111577771D01*
X109468228Y-111396342D01*
X109504514Y-111323771D01*
X109540800Y-111287485D01*
X109613371Y-111251200D01*
X109758514Y-111251200D01*
X109831085Y-111287485D01*
X109867371Y-111323771D01*
X109903657Y-111396342D01*
X110919657Y-109650342D02*
X110955942Y-109686628D01*
X111064800Y-109722914D01*
X111137371Y-109722914D01*
X111246228Y-109686628D01*
X111318800Y-109614057D01*
X111355085Y-109541485D01*
X111391371Y-109396342D01*
X111391371Y-109287485D01*
X111355085Y-109142342D01*
X111318800Y-109069771D01*
X111246228Y-108997200D01*
X111137371Y-108960914D01*
X111064800Y-108960914D01*
X110955942Y-108997200D01*
X110919657Y-109033485D01*
X110193942Y-109722914D02*
X110629371Y-109722914D01*
X110411657Y-109722914D02*
X110411657Y-108960914D01*
X110484228Y-109069771D01*
X110556800Y-109142342D01*
X110629371Y-109178628D01*
X109504514Y-108960914D02*
X109867371Y-108960914D01*
X109903657Y-109323771D01*
X109867371Y-109287485D01*
X109794800Y-109251200D01*
X109613371Y-109251200D01*
X109540800Y-109287485D01*
X109504514Y-109323771D01*
X109468228Y-109396342D01*
X109468228Y-109577771D01*
X109504514Y-109650342D01*
X109540800Y-109686628D01*
X109613371Y-109722914D01*
X109794800Y-109722914D01*
X109867371Y-109686628D01*
X109903657Y-109650342D01*
X126760857Y-118280142D02*
X126797142Y-118316428D01*
X126906000Y-118352714D01*
X126978571Y-118352714D01*
X127087428Y-118316428D01*
X127160000Y-118243857D01*
X127196285Y-118171285D01*
X127232571Y-118026142D01*
X127232571Y-117917285D01*
X127196285Y-117772142D01*
X127160000Y-117699571D01*
X127087428Y-117627000D01*
X126978571Y-117590714D01*
X126906000Y-117590714D01*
X126797142Y-117627000D01*
X126760857Y-117663285D01*
X126035142Y-118352714D02*
X126470571Y-118352714D01*
X126252857Y-118352714D02*
X126252857Y-117590714D01*
X126325428Y-117699571D01*
X126398000Y-117772142D01*
X126470571Y-117808428D01*
X125382000Y-117844714D02*
X125382000Y-118352714D01*
X125563428Y-117554428D02*
X125744857Y-118098714D01*
X125273142Y-118098714D01*
X114772057Y-117160818D02*
X114808342Y-117197104D01*
X114917200Y-117233390D01*
X114989771Y-117233390D01*
X115098628Y-117197104D01*
X115171200Y-117124533D01*
X115207485Y-117051961D01*
X115243771Y-116906818D01*
X115243771Y-116797961D01*
X115207485Y-116652818D01*
X115171200Y-116580247D01*
X115098628Y-116507676D01*
X114989771Y-116471390D01*
X114917200Y-116471390D01*
X114808342Y-116507676D01*
X114772057Y-116543961D01*
X114046342Y-117233390D02*
X114481771Y-117233390D01*
X114264057Y-117233390D02*
X114264057Y-116471390D01*
X114336628Y-116580247D01*
X114409200Y-116652818D01*
X114481771Y-116689104D01*
X113792342Y-116471390D02*
X113320628Y-116471390D01*
X113574628Y-116761676D01*
X113465771Y-116761676D01*
X113393200Y-116797961D01*
X113356914Y-116834247D01*
X113320628Y-116906818D01*
X113320628Y-117088247D01*
X113356914Y-117160818D01*
X113393200Y-117197104D01*
X113465771Y-117233390D01*
X113683485Y-117233390D01*
X113756057Y-117197104D01*
X113792342Y-117160818D01*
X110919657Y-112650342D02*
X110955942Y-112686628D01*
X111064800Y-112722914D01*
X111137371Y-112722914D01*
X111246228Y-112686628D01*
X111318800Y-112614057D01*
X111355085Y-112541485D01*
X111391371Y-112396342D01*
X111391371Y-112287485D01*
X111355085Y-112142342D01*
X111318800Y-112069771D01*
X111246228Y-111997200D01*
X111137371Y-111960914D01*
X111064800Y-111960914D01*
X110955942Y-111997200D01*
X110919657Y-112033485D01*
X110193942Y-112722914D02*
X110629371Y-112722914D01*
X110411657Y-112722914D02*
X110411657Y-111960914D01*
X110484228Y-112069771D01*
X110556800Y-112142342D01*
X110629371Y-112178628D01*
X109722228Y-111960914D02*
X109649657Y-111960914D01*
X109577085Y-111997200D01*
X109540800Y-112033485D01*
X109504514Y-112106057D01*
X109468228Y-112251200D01*
X109468228Y-112432628D01*
X109504514Y-112577771D01*
X109540800Y-112650342D01*
X109577085Y-112686628D01*
X109649657Y-112722914D01*
X109722228Y-112722914D01*
X109794800Y-112686628D01*
X109831085Y-112650342D01*
X109867371Y-112577771D01*
X109903657Y-112432628D01*
X109903657Y-112251200D01*
X109867371Y-112106057D01*
X109831085Y-112033485D01*
X109794800Y-111997200D01*
X109722228Y-111960914D01*
X110556800Y-110650342D02*
X110593085Y-110686628D01*
X110701942Y-110722914D01*
X110774514Y-110722914D01*
X110883371Y-110686628D01*
X110955942Y-110614057D01*
X110992228Y-110541485D01*
X111028514Y-110396342D01*
X111028514Y-110287485D01*
X110992228Y-110142342D01*
X110955942Y-110069771D01*
X110883371Y-109997200D01*
X110774514Y-109960914D01*
X110701942Y-109960914D01*
X110593085Y-109997200D01*
X110556800Y-110033485D01*
X110193942Y-110722914D02*
X110048800Y-110722914D01*
X109976228Y-110686628D01*
X109939942Y-110650342D01*
X109867371Y-110541485D01*
X109831085Y-110396342D01*
X109831085Y-110106057D01*
X109867371Y-110033485D01*
X109903657Y-109997200D01*
X109976228Y-109960914D01*
X110121371Y-109960914D01*
X110193942Y-109997200D01*
X110230228Y-110033485D01*
X110266514Y-110106057D01*
X110266514Y-110287485D01*
X110230228Y-110360057D01*
X110193942Y-110396342D01*
X110121371Y-110432628D01*
X109976228Y-110432628D01*
X109903657Y-110396342D01*
X109867371Y-110360057D01*
X109831085Y-110287485D01*
X112573142Y-85877000D02*
X112609428Y-85840714D01*
X112645714Y-85731857D01*
X112645714Y-85659285D01*
X112609428Y-85550428D01*
X112536857Y-85477857D01*
X112464285Y-85441571D01*
X112319142Y-85405285D01*
X112210285Y-85405285D01*
X112065142Y-85441571D01*
X111992571Y-85477857D01*
X111920000Y-85550428D01*
X111883714Y-85659285D01*
X111883714Y-85731857D01*
X111920000Y-85840714D01*
X111956285Y-85877000D01*
X111883714Y-86530142D02*
X111883714Y-86385000D01*
X111920000Y-86312428D01*
X111956285Y-86276142D01*
X112065142Y-86203571D01*
X112210285Y-86167285D01*
X112500571Y-86167285D01*
X112573142Y-86203571D01*
X112609428Y-86239857D01*
X112645714Y-86312428D01*
X112645714Y-86457571D01*
X112609428Y-86530142D01*
X112573142Y-86566428D01*
X112500571Y-86602714D01*
X112319142Y-86602714D01*
X112246571Y-86566428D01*
X112210285Y-86530142D01*
X112174000Y-86457571D01*
X112174000Y-86312428D01*
X112210285Y-86239857D01*
X112246571Y-86203571D01*
X112319142Y-86167285D01*
X117698500Y-81259642D02*
X117734785Y-81295928D01*
X117843642Y-81332214D01*
X117916214Y-81332214D01*
X118025071Y-81295928D01*
X118097642Y-81223357D01*
X118133928Y-81150785D01*
X118170214Y-81005642D01*
X118170214Y-80896785D01*
X118133928Y-80751642D01*
X118097642Y-80679071D01*
X118025071Y-80606500D01*
X117916214Y-80570214D01*
X117843642Y-80570214D01*
X117734785Y-80606500D01*
X117698500Y-80642785D01*
X117009071Y-80570214D02*
X117371928Y-80570214D01*
X117408214Y-80933071D01*
X117371928Y-80896785D01*
X117299357Y-80860500D01*
X117117928Y-80860500D01*
X117045357Y-80896785D01*
X117009071Y-80933071D01*
X116972785Y-81005642D01*
X116972785Y-81187071D01*
X117009071Y-81259642D01*
X117045357Y-81295928D01*
X117117928Y-81332214D01*
X117299357Y-81332214D01*
X117371928Y-81295928D01*
X117408214Y-81259642D01*
X129593682Y-107761640D02*
X129629968Y-107725354D01*
X129666254Y-107616497D01*
X129666254Y-107543925D01*
X129629968Y-107435068D01*
X129557397Y-107362497D01*
X129484825Y-107326211D01*
X129339682Y-107289925D01*
X129230825Y-107289925D01*
X129085682Y-107326211D01*
X129013111Y-107362497D01*
X128940540Y-107435068D01*
X128904254Y-107543925D01*
X128904254Y-107616497D01*
X128940540Y-107725354D01*
X128976825Y-107761640D01*
X128976825Y-108051925D02*
X128940540Y-108088211D01*
X128904254Y-108160782D01*
X128904254Y-108342211D01*
X128940540Y-108414782D01*
X128976825Y-108451068D01*
X129049397Y-108487354D01*
X129121968Y-108487354D01*
X129230825Y-108451068D01*
X129666254Y-108015640D01*
X129666254Y-108487354D01*
X117698500Y-77322642D02*
X117734785Y-77358928D01*
X117843642Y-77395214D01*
X117916214Y-77395214D01*
X118025071Y-77358928D01*
X118097642Y-77286357D01*
X118133928Y-77213785D01*
X118170214Y-77068642D01*
X118170214Y-76959785D01*
X118133928Y-76814642D01*
X118097642Y-76742071D01*
X118025071Y-76669500D01*
X117916214Y-76633214D01*
X117843642Y-76633214D01*
X117734785Y-76669500D01*
X117698500Y-76705785D01*
X117444500Y-76633214D02*
X116972785Y-76633214D01*
X117226785Y-76923500D01*
X117117928Y-76923500D01*
X117045357Y-76959785D01*
X117009071Y-76996071D01*
X116972785Y-77068642D01*
X116972785Y-77250071D01*
X117009071Y-77322642D01*
X117045357Y-77358928D01*
X117117928Y-77395214D01*
X117335642Y-77395214D01*
X117408214Y-77358928D01*
X117444500Y-77322642D01*
X133883742Y-77106742D02*
X133920028Y-77070457D01*
X133956314Y-76961600D01*
X133956314Y-76889028D01*
X133920028Y-76780171D01*
X133847457Y-76707600D01*
X133774885Y-76671314D01*
X133629742Y-76635028D01*
X133520885Y-76635028D01*
X133375742Y-76671314D01*
X133303171Y-76707600D01*
X133230600Y-76780171D01*
X133194314Y-76889028D01*
X133194314Y-76961600D01*
X133230600Y-77070457D01*
X133266885Y-77106742D01*
X133956314Y-77832457D02*
X133956314Y-77397028D01*
X133956314Y-77614742D02*
X133194314Y-77614742D01*
X133303171Y-77542171D01*
X133375742Y-77469600D01*
X133412028Y-77397028D01*
X133194314Y-78086457D02*
X133194314Y-78594457D01*
X133956314Y-78267885D01*
X117907142Y-86004000D02*
X117943428Y-85967714D01*
X117979714Y-85858857D01*
X117979714Y-85786285D01*
X117943428Y-85677428D01*
X117870857Y-85604857D01*
X117798285Y-85568571D01*
X117653142Y-85532285D01*
X117544285Y-85532285D01*
X117399142Y-85568571D01*
X117326571Y-85604857D01*
X117254000Y-85677428D01*
X117217714Y-85786285D01*
X117217714Y-85858857D01*
X117254000Y-85967714D01*
X117290285Y-86004000D01*
X117471714Y-86657142D02*
X117979714Y-86657142D01*
X117181428Y-86475714D02*
X117725714Y-86294285D01*
X117725714Y-86766000D01*
X130802722Y-107776880D02*
X130839008Y-107740594D01*
X130875294Y-107631737D01*
X130875294Y-107559165D01*
X130839008Y-107450308D01*
X130766437Y-107377737D01*
X130693865Y-107341451D01*
X130548722Y-107305165D01*
X130439865Y-107305165D01*
X130294722Y-107341451D01*
X130222151Y-107377737D01*
X130149580Y-107450308D01*
X130113294Y-107559165D01*
X130113294Y-107631737D01*
X130149580Y-107740594D01*
X130185865Y-107776880D01*
X130875294Y-108502594D02*
X130875294Y-108067165D01*
X130875294Y-108284880D02*
X130113294Y-108284880D01*
X130222151Y-108212308D01*
X130294722Y-108139737D01*
X130331008Y-108067165D01*
X111557142Y-85877000D02*
X111593428Y-85840714D01*
X111629714Y-85731857D01*
X111629714Y-85659285D01*
X111593428Y-85550428D01*
X111520857Y-85477857D01*
X111448285Y-85441571D01*
X111303142Y-85405285D01*
X111194285Y-85405285D01*
X111049142Y-85441571D01*
X110976571Y-85477857D01*
X110904000Y-85550428D01*
X110867714Y-85659285D01*
X110867714Y-85731857D01*
X110904000Y-85840714D01*
X110940285Y-85877000D01*
X110867714Y-86131000D02*
X110867714Y-86639000D01*
X111629714Y-86312428D01*
X116274514Y-107388342D02*
X115911657Y-107134342D01*
X116274514Y-106952914D02*
X115512514Y-106952914D01*
X115512514Y-107243200D01*
X115548800Y-107315771D01*
X115585085Y-107352057D01*
X115657657Y-107388342D01*
X115766514Y-107388342D01*
X115839085Y-107352057D01*
X115875371Y-107315771D01*
X115911657Y-107243200D01*
X115911657Y-106952914D01*
X116274514Y-108114057D02*
X116274514Y-107678628D01*
X116274514Y-107896342D02*
X115512514Y-107896342D01*
X115621371Y-107823771D01*
X115693942Y-107751200D01*
X115730228Y-107678628D01*
X115585085Y-108404342D02*
X115548800Y-108440628D01*
X115512514Y-108513200D01*
X115512514Y-108694628D01*
X115548800Y-108767200D01*
X115585085Y-108803485D01*
X115657657Y-108839771D01*
X115730228Y-108839771D01*
X115839085Y-108803485D01*
X116274514Y-108368057D01*
X116274514Y-108839771D01*
X122419657Y-110222914D02*
X122673657Y-109860057D01*
X122855085Y-110222914D02*
X122855085Y-109460914D01*
X122564800Y-109460914D01*
X122492228Y-109497200D01*
X122455942Y-109533485D01*
X122419657Y-109606057D01*
X122419657Y-109714914D01*
X122455942Y-109787485D01*
X122492228Y-109823771D01*
X122564800Y-109860057D01*
X122855085Y-109860057D01*
X121693942Y-110222914D02*
X122129371Y-110222914D01*
X121911657Y-110222914D02*
X121911657Y-109460914D01*
X121984228Y-109569771D01*
X122056800Y-109642342D01*
X122129371Y-109678628D01*
X120968228Y-110222914D02*
X121403657Y-110222914D01*
X121185942Y-110222914D02*
X121185942Y-109460914D01*
X121258514Y-109569771D01*
X121331085Y-109642342D01*
X121403657Y-109678628D01*
X122419657Y-109222914D02*
X122673657Y-108860057D01*
X122855085Y-109222914D02*
X122855085Y-108460914D01*
X122564800Y-108460914D01*
X122492228Y-108497200D01*
X122455942Y-108533485D01*
X122419657Y-108606057D01*
X122419657Y-108714914D01*
X122455942Y-108787485D01*
X122492228Y-108823771D01*
X122564800Y-108860057D01*
X122855085Y-108860057D01*
X121693942Y-109222914D02*
X122129371Y-109222914D01*
X121911657Y-109222914D02*
X121911657Y-108460914D01*
X121984228Y-108569771D01*
X122056800Y-108642342D01*
X122129371Y-108678628D01*
X121439942Y-108460914D02*
X120968228Y-108460914D01*
X121222228Y-108751200D01*
X121113371Y-108751200D01*
X121040800Y-108787485D01*
X121004514Y-108823771D01*
X120968228Y-108896342D01*
X120968228Y-109077771D01*
X121004514Y-109150342D01*
X121040800Y-109186628D01*
X121113371Y-109222914D01*
X121331085Y-109222914D01*
X121403657Y-109186628D01*
X121439942Y-109150342D01*
X139759714Y-108250142D02*
X139396857Y-107996142D01*
X139759714Y-107814714D02*
X138997714Y-107814714D01*
X138997714Y-108105000D01*
X139034000Y-108177571D01*
X139070285Y-108213857D01*
X139142857Y-108250142D01*
X139251714Y-108250142D01*
X139324285Y-108213857D01*
X139360571Y-108177571D01*
X139396857Y-108105000D01*
X139396857Y-107814714D01*
X139759714Y-108975857D02*
X139759714Y-108540428D01*
X139759714Y-108758142D02*
X138997714Y-108758142D01*
X139106571Y-108685571D01*
X139179142Y-108613000D01*
X139215428Y-108540428D01*
X138997714Y-109665285D02*
X138997714Y-109302428D01*
X139360571Y-109266142D01*
X139324285Y-109302428D01*
X139288000Y-109375000D01*
X139288000Y-109556428D01*
X139324285Y-109629000D01*
X139360571Y-109665285D01*
X139433142Y-109701571D01*
X139614571Y-109701571D01*
X139687142Y-109665285D01*
X139723428Y-109629000D01*
X139759714Y-109556428D01*
X139759714Y-109375000D01*
X139723428Y-109302428D01*
X139687142Y-109266142D01*
X139719714Y-110970142D02*
X139356857Y-110716142D01*
X139719714Y-110534714D02*
X138957714Y-110534714D01*
X138957714Y-110825000D01*
X138994000Y-110897571D01*
X139030285Y-110933857D01*
X139102857Y-110970142D01*
X139211714Y-110970142D01*
X139284285Y-110933857D01*
X139320571Y-110897571D01*
X139356857Y-110825000D01*
X139356857Y-110534714D01*
X139719714Y-111695857D02*
X139719714Y-111260428D01*
X139719714Y-111478142D02*
X138957714Y-111478142D01*
X139066571Y-111405571D01*
X139139142Y-111333000D01*
X139175428Y-111260428D01*
X138957714Y-112349000D02*
X138957714Y-112203857D01*
X138994000Y-112131285D01*
X139030285Y-112095000D01*
X139139142Y-112022428D01*
X139284285Y-111986142D01*
X139574571Y-111986142D01*
X139647142Y-112022428D01*
X139683428Y-112058714D01*
X139719714Y-112131285D01*
X139719714Y-112276428D01*
X139683428Y-112349000D01*
X139647142Y-112385285D01*
X139574571Y-112421571D01*
X139393142Y-112421571D01*
X139320571Y-112385285D01*
X139284285Y-112349000D01*
X139248000Y-112276428D01*
X139248000Y-112131285D01*
X139284285Y-112058714D01*
X139320571Y-112022428D01*
X139393142Y-111986142D01*
X114733135Y-118503390D02*
X114987135Y-118140533D01*
X115168563Y-118503390D02*
X115168563Y-117741390D01*
X114878278Y-117741390D01*
X114805706Y-117777676D01*
X114769420Y-117813961D01*
X114733135Y-117886533D01*
X114733135Y-117995390D01*
X114769420Y-118067961D01*
X114805706Y-118104247D01*
X114878278Y-118140533D01*
X115168563Y-118140533D01*
X114007420Y-118503390D02*
X114442849Y-118503390D01*
X114225135Y-118503390D02*
X114225135Y-117741390D01*
X114297706Y-117850247D01*
X114370278Y-117922818D01*
X114442849Y-117959104D01*
X113753420Y-117741390D02*
X113245420Y-117741390D01*
X113571992Y-118503390D01*
X132432314Y-106748542D02*
X132069457Y-106494542D01*
X132432314Y-106313114D02*
X131670314Y-106313114D01*
X131670314Y-106603400D01*
X131706600Y-106675971D01*
X131742885Y-106712257D01*
X131815457Y-106748542D01*
X131924314Y-106748542D01*
X131996885Y-106712257D01*
X132033171Y-106675971D01*
X132069457Y-106603400D01*
X132069457Y-106313114D01*
X132432314Y-107474257D02*
X132432314Y-107038828D01*
X132432314Y-107256542D02*
X131670314Y-107256542D01*
X131779171Y-107183971D01*
X131851742Y-107111400D01*
X131888028Y-107038828D01*
X131996885Y-107909685D02*
X131960600Y-107837114D01*
X131924314Y-107800828D01*
X131851742Y-107764542D01*
X131815457Y-107764542D01*
X131742885Y-107800828D01*
X131706600Y-107837114D01*
X131670314Y-107909685D01*
X131670314Y-108054828D01*
X131706600Y-108127400D01*
X131742885Y-108163685D01*
X131815457Y-108199971D01*
X131851742Y-108199971D01*
X131924314Y-108163685D01*
X131960600Y-108127400D01*
X131996885Y-108054828D01*
X131996885Y-107909685D01*
X132033171Y-107837114D01*
X132069457Y-107800828D01*
X132142028Y-107764542D01*
X132287171Y-107764542D01*
X132359742Y-107800828D01*
X132396028Y-107837114D01*
X132432314Y-107909685D01*
X132432314Y-108054828D01*
X132396028Y-108127400D01*
X132359742Y-108163685D01*
X132287171Y-108199971D01*
X132142028Y-108199971D01*
X132069457Y-108163685D01*
X132033171Y-108127400D01*
X131996885Y-108054828D01*
X133702314Y-106748542D02*
X133339457Y-106494542D01*
X133702314Y-106313114D02*
X132940314Y-106313114D01*
X132940314Y-106603400D01*
X132976600Y-106675971D01*
X133012885Y-106712257D01*
X133085457Y-106748542D01*
X133194314Y-106748542D01*
X133266885Y-106712257D01*
X133303171Y-106675971D01*
X133339457Y-106603400D01*
X133339457Y-106313114D01*
X133702314Y-107474257D02*
X133702314Y-107038828D01*
X133702314Y-107256542D02*
X132940314Y-107256542D01*
X133049171Y-107183971D01*
X133121742Y-107111400D01*
X133158028Y-107038828D01*
X133702314Y-107837114D02*
X133702314Y-107982257D01*
X133666028Y-108054828D01*
X133629742Y-108091114D01*
X133520885Y-108163685D01*
X133375742Y-108199971D01*
X133085457Y-108199971D01*
X133012885Y-108163685D01*
X132976600Y-108127400D01*
X132940314Y-108054828D01*
X132940314Y-107909685D01*
X132976600Y-107837114D01*
X133012885Y-107800828D01*
X133085457Y-107764542D01*
X133266885Y-107764542D01*
X133339457Y-107800828D01*
X133375742Y-107837114D01*
X133412028Y-107909685D01*
X133412028Y-108054828D01*
X133375742Y-108127400D01*
X133339457Y-108163685D01*
X133266885Y-108199971D01*
X110158914Y-76942742D02*
X109796057Y-76688742D01*
X110158914Y-76507314D02*
X109396914Y-76507314D01*
X109396914Y-76797600D01*
X109433200Y-76870171D01*
X109469485Y-76906457D01*
X109542057Y-76942742D01*
X109650914Y-76942742D01*
X109723485Y-76906457D01*
X109759771Y-76870171D01*
X109796057Y-76797600D01*
X109796057Y-76507314D01*
X109469485Y-77233028D02*
X109433200Y-77269314D01*
X109396914Y-77341885D01*
X109396914Y-77523314D01*
X109433200Y-77595885D01*
X109469485Y-77632171D01*
X109542057Y-77668457D01*
X109614628Y-77668457D01*
X109723485Y-77632171D01*
X110158914Y-77196742D01*
X110158914Y-77668457D01*
X109396914Y-78140171D02*
X109396914Y-78212742D01*
X109433200Y-78285314D01*
X109469485Y-78321600D01*
X109542057Y-78357885D01*
X109687200Y-78394171D01*
X109868628Y-78394171D01*
X110013771Y-78357885D01*
X110086342Y-78321600D01*
X110122628Y-78285314D01*
X110158914Y-78212742D01*
X110158914Y-78140171D01*
X110122628Y-78067600D01*
X110086342Y-78031314D01*
X110013771Y-77995028D01*
X109868628Y-77958742D01*
X109687200Y-77958742D01*
X109542057Y-77995028D01*
X109469485Y-78031314D01*
X109433200Y-78067600D01*
X109396914Y-78140171D01*
X110329400Y-114955514D02*
X110583400Y-114592657D01*
X110764828Y-114955514D02*
X110764828Y-114193514D01*
X110474542Y-114193514D01*
X110401971Y-114229800D01*
X110365685Y-114266085D01*
X110329400Y-114338657D01*
X110329400Y-114447514D01*
X110365685Y-114520085D01*
X110401971Y-114556371D01*
X110474542Y-114592657D01*
X110764828Y-114592657D01*
X109966542Y-114955514D02*
X109821400Y-114955514D01*
X109748828Y-114919228D01*
X109712542Y-114882942D01*
X109639971Y-114774085D01*
X109603685Y-114628942D01*
X109603685Y-114338657D01*
X109639971Y-114266085D01*
X109676257Y-114229800D01*
X109748828Y-114193514D01*
X109893971Y-114193514D01*
X109966542Y-114229800D01*
X110002828Y-114266085D01*
X110039114Y-114338657D01*
X110039114Y-114520085D01*
X110002828Y-114592657D01*
X109966542Y-114628942D01*
X109893971Y-114665228D01*
X109748828Y-114665228D01*
X109676257Y-114628942D01*
X109639971Y-114592657D01*
X109603685Y-114520085D01*
X126733900Y-111242794D02*
X126987900Y-110879937D01*
X127169328Y-111242794D02*
X127169328Y-110480794D01*
X126879042Y-110480794D01*
X126806471Y-110517080D01*
X126770185Y-110553365D01*
X126733900Y-110625937D01*
X126733900Y-110734794D01*
X126770185Y-110807365D01*
X126806471Y-110843651D01*
X126879042Y-110879937D01*
X127169328Y-110879937D01*
X126298471Y-110807365D02*
X126371042Y-110771080D01*
X126407328Y-110734794D01*
X126443614Y-110662222D01*
X126443614Y-110625937D01*
X126407328Y-110553365D01*
X126371042Y-110517080D01*
X126298471Y-110480794D01*
X126153328Y-110480794D01*
X126080757Y-110517080D01*
X126044471Y-110553365D01*
X126008185Y-110625937D01*
X126008185Y-110662222D01*
X126044471Y-110734794D01*
X126080757Y-110771080D01*
X126153328Y-110807365D01*
X126298471Y-110807365D01*
X126371042Y-110843651D01*
X126407328Y-110879937D01*
X126443614Y-110952508D01*
X126443614Y-111097651D01*
X126407328Y-111170222D01*
X126371042Y-111206508D01*
X126298471Y-111242794D01*
X126153328Y-111242794D01*
X126080757Y-111206508D01*
X126044471Y-111170222D01*
X126008185Y-111097651D01*
X126008185Y-110952508D01*
X126044471Y-110879937D01*
X126080757Y-110843651D01*
X126153328Y-110807365D01*
X132557800Y-114980914D02*
X132811800Y-114618057D01*
X132993228Y-114980914D02*
X132993228Y-114218914D01*
X132702942Y-114218914D01*
X132630371Y-114255200D01*
X132594085Y-114291485D01*
X132557800Y-114364057D01*
X132557800Y-114472914D01*
X132594085Y-114545485D01*
X132630371Y-114581771D01*
X132702942Y-114618057D01*
X132993228Y-114618057D01*
X132303800Y-114218914D02*
X131795800Y-114218914D01*
X132122371Y-114980914D01*
X119514600Y-80100314D02*
X119768600Y-79737457D01*
X119950028Y-80100314D02*
X119950028Y-79338314D01*
X119659742Y-79338314D01*
X119587171Y-79374600D01*
X119550885Y-79410885D01*
X119514600Y-79483457D01*
X119514600Y-79592314D01*
X119550885Y-79664885D01*
X119587171Y-79701171D01*
X119659742Y-79737457D01*
X119950028Y-79737457D01*
X118788885Y-80100314D02*
X119224314Y-80100314D01*
X119006600Y-80100314D02*
X119006600Y-79338314D01*
X119079171Y-79447171D01*
X119151742Y-79519742D01*
X119224314Y-79556028D01*
X127751094Y-104332640D02*
X127388237Y-104078640D01*
X127751094Y-103897211D02*
X126989094Y-103897211D01*
X126989094Y-104187497D01*
X127025380Y-104260068D01*
X127061665Y-104296354D01*
X127134237Y-104332640D01*
X127243094Y-104332640D01*
X127315665Y-104296354D01*
X127351951Y-104260068D01*
X127388237Y-104187497D01*
X127388237Y-103897211D01*
X126989094Y-104985782D02*
X126989094Y-104840640D01*
X127025380Y-104768068D01*
X127061665Y-104731782D01*
X127170522Y-104659211D01*
X127315665Y-104622925D01*
X127605951Y-104622925D01*
X127678522Y-104659211D01*
X127714808Y-104695497D01*
X127751094Y-104768068D01*
X127751094Y-104913211D01*
X127714808Y-104985782D01*
X127678522Y-105022068D01*
X127605951Y-105058354D01*
X127424522Y-105058354D01*
X127351951Y-105022068D01*
X127315665Y-104985782D01*
X127279380Y-104913211D01*
X127279380Y-104768068D01*
X127315665Y-104695497D01*
X127351951Y-104659211D01*
X127424522Y-104622925D01*
X111602500Y-77331714D02*
X111856500Y-76968857D01*
X112037928Y-77331714D02*
X112037928Y-76569714D01*
X111747642Y-76569714D01*
X111675071Y-76606000D01*
X111638785Y-76642285D01*
X111602500Y-76714857D01*
X111602500Y-76823714D01*
X111638785Y-76896285D01*
X111675071Y-76932571D01*
X111747642Y-76968857D01*
X112037928Y-76968857D01*
X110949357Y-76823714D02*
X110949357Y-77331714D01*
X111130785Y-76533428D02*
X111312214Y-77077714D01*
X110840500Y-77077714D01*
X111692000Y-81414714D02*
X111946000Y-81051857D01*
X112127428Y-81414714D02*
X112127428Y-80652714D01*
X111837142Y-80652714D01*
X111764571Y-80689000D01*
X111728285Y-80725285D01*
X111692000Y-80797857D01*
X111692000Y-80906714D01*
X111728285Y-80979285D01*
X111764571Y-81015571D01*
X111837142Y-81051857D01*
X112127428Y-81051857D01*
X111002571Y-80652714D02*
X111365428Y-80652714D01*
X111401714Y-81015571D01*
X111365428Y-80979285D01*
X111292857Y-80943000D01*
X111111428Y-80943000D01*
X111038857Y-80979285D01*
X111002571Y-81015571D01*
X110966285Y-81088142D01*
X110966285Y-81269571D01*
X111002571Y-81342142D01*
X111038857Y-81378428D01*
X111111428Y-81414714D01*
X111292857Y-81414714D01*
X111365428Y-81378428D01*
X111401714Y-81342142D01*
X122419657Y-111222914D02*
X122673657Y-110860057D01*
X122855085Y-111222914D02*
X122855085Y-110460914D01*
X122564800Y-110460914D01*
X122492228Y-110497200D01*
X122455942Y-110533485D01*
X122419657Y-110606057D01*
X122419657Y-110714914D01*
X122455942Y-110787485D01*
X122492228Y-110823771D01*
X122564800Y-110860057D01*
X122855085Y-110860057D01*
X121693942Y-111222914D02*
X122129371Y-111222914D01*
X121911657Y-111222914D02*
X121911657Y-110460914D01*
X121984228Y-110569771D01*
X122056800Y-110642342D01*
X122129371Y-110678628D01*
X121222228Y-110460914D02*
X121149657Y-110460914D01*
X121077085Y-110497200D01*
X121040800Y-110533485D01*
X121004514Y-110606057D01*
X120968228Y-110751200D01*
X120968228Y-110932628D01*
X121004514Y-111077771D01*
X121040800Y-111150342D01*
X121077085Y-111186628D01*
X121149657Y-111222914D01*
X121222228Y-111222914D01*
X121294800Y-111186628D01*
X121331085Y-111150342D01*
X121367371Y-111077771D01*
X121403657Y-110932628D01*
X121403657Y-110751200D01*
X121367371Y-110606057D01*
X121331085Y-110533485D01*
X121294800Y-110497200D01*
X121222228Y-110460914D01*
X117045571Y-113922714D02*
X117045571Y-114539571D01*
X117009285Y-114612142D01*
X116973000Y-114648428D01*
X116900428Y-114684714D01*
X116755285Y-114684714D01*
X116682714Y-114648428D01*
X116646428Y-114612142D01*
X116610142Y-114539571D01*
X116610142Y-113922714D01*
X115884428Y-113922714D02*
X116247285Y-113922714D01*
X116283571Y-114285571D01*
X116247285Y-114249285D01*
X116174714Y-114213000D01*
X115993285Y-114213000D01*
X115920714Y-114249285D01*
X115884428Y-114285571D01*
X115848142Y-114358142D01*
X115848142Y-114539571D01*
X115884428Y-114612142D01*
X115920714Y-114648428D01*
X115993285Y-114684714D01*
X116174714Y-114684714D01*
X116247285Y-114648428D01*
X116283571Y-114612142D01*
X139174886Y-90522849D02*
X139174886Y-91139706D01*
X139138600Y-91212277D01*
X139102315Y-91248563D01*
X139029743Y-91284849D01*
X138884600Y-91284849D01*
X138812029Y-91248563D01*
X138775743Y-91212277D01*
X138739457Y-91139706D01*
X138739457Y-90522849D01*
X138449172Y-90522849D02*
X137977457Y-90522849D01*
X138231457Y-90813135D01*
X138122600Y-90813135D01*
X138050029Y-90849420D01*
X138013743Y-90885706D01*
X137977457Y-90958277D01*
X137977457Y-91139706D01*
X138013743Y-91212277D01*
X138050029Y-91248563D01*
X138122600Y-91284849D01*
X138340315Y-91284849D01*
X138412886Y-91248563D01*
X138449172Y-91212277D01*
X112049714Y-78272142D02*
X111287714Y-78272142D01*
X111977142Y-79070428D02*
X112013428Y-79034142D01*
X112049714Y-78925285D01*
X112049714Y-78852714D01*
X112013428Y-78743857D01*
X111940857Y-78671285D01*
X111868285Y-78635000D01*
X111723142Y-78598714D01*
X111614285Y-78598714D01*
X111469142Y-78635000D01*
X111396571Y-78671285D01*
X111324000Y-78743857D01*
X111287714Y-78852714D01*
X111287714Y-78925285D01*
X111324000Y-79034142D01*
X111360285Y-79070428D01*
X112049714Y-79796142D02*
X112049714Y-79360714D01*
X112049714Y-79578428D02*
X111287714Y-79578428D01*
X111396571Y-79505857D01*
X111469142Y-79433285D01*
X111505428Y-79360714D01*
X127717391Y-114383961D02*
X127753676Y-114420247D01*
X127862534Y-114456533D01*
X127935105Y-114456533D01*
X128043962Y-114420247D01*
X128116534Y-114347676D01*
X128152819Y-114275104D01*
X128189105Y-114129961D01*
X128189105Y-114021104D01*
X128152819Y-113875961D01*
X128116534Y-113803390D01*
X128043962Y-113730819D01*
X127935105Y-113694533D01*
X127862534Y-113694533D01*
X127753676Y-113730819D01*
X127717391Y-113767104D01*
X126991676Y-114456533D02*
X127427105Y-114456533D01*
X127209391Y-114456533D02*
X127209391Y-113694533D01*
X127281962Y-113803390D01*
X127354534Y-113875961D01*
X127427105Y-113912247D01*
X126265962Y-114456533D02*
X126701391Y-114456533D01*
X126483676Y-114456533D02*
X126483676Y-113694533D01*
X126556248Y-113803390D01*
X126628819Y-113875961D01*
X126701391Y-113912247D01*
X127717391Y-116542961D02*
X127753676Y-116579247D01*
X127862534Y-116615533D01*
X127935105Y-116615533D01*
X128043962Y-116579247D01*
X128116534Y-116506676D01*
X128152819Y-116434104D01*
X128189105Y-116288961D01*
X128189105Y-116180104D01*
X128152819Y-116034961D01*
X128116534Y-115962390D01*
X128043962Y-115889819D01*
X127935105Y-115853533D01*
X127862534Y-115853533D01*
X127753676Y-115889819D01*
X127717391Y-115926104D01*
X126991676Y-116615533D02*
X127427105Y-116615533D01*
X127209391Y-116615533D02*
X127209391Y-115853533D01*
X127281962Y-115962390D01*
X127354534Y-116034961D01*
X127427105Y-116071247D01*
X126701391Y-115926104D02*
X126665105Y-115889819D01*
X126592534Y-115853533D01*
X126411105Y-115853533D01*
X126338534Y-115889819D01*
X126302248Y-115926104D01*
X126265962Y-115998676D01*
X126265962Y-116071247D01*
X126302248Y-116180104D01*
X126737676Y-116615533D01*
X126265962Y-116615533D01*
X125599714Y-82850771D02*
X124837714Y-82850771D01*
X124837714Y-83032200D01*
X124874000Y-83141057D01*
X124946571Y-83213628D01*
X125019142Y-83249914D01*
X125164285Y-83286200D01*
X125273142Y-83286200D01*
X125418285Y-83249914D01*
X125490857Y-83213628D01*
X125563428Y-83141057D01*
X125599714Y-83032200D01*
X125599714Y-82850771D01*
X125599714Y-84011914D02*
X125599714Y-83576485D01*
X125599714Y-83794200D02*
X124837714Y-83794200D01*
X124946571Y-83721628D01*
X125019142Y-83649057D01*
X125055428Y-83576485D01*
X130729000Y-76932714D02*
X130729000Y-77477000D01*
X130765285Y-77585857D01*
X130837857Y-77658428D01*
X130946714Y-77694714D01*
X131019285Y-77694714D01*
X129967000Y-77694714D02*
X130402428Y-77694714D01*
X130184714Y-77694714D02*
X130184714Y-76932714D01*
X130257285Y-77041571D01*
X130329857Y-77114142D01*
X130402428Y-77150428D01*
X122110985Y-98686868D02*
X122110985Y-98251440D01*
X121348985Y-98469154D02*
X122110985Y-98469154D01*
X121748128Y-97743440D02*
X121748128Y-97997440D01*
X121348985Y-97997440D02*
X122110985Y-97997440D01*
X122110985Y-97634582D01*
X122110985Y-97453154D02*
X122110985Y-97017725D01*
X121348985Y-97235440D02*
X122110985Y-97235440D01*
X121348985Y-96364582D02*
X121348985Y-96800011D01*
X121348985Y-96582297D02*
X122110985Y-96582297D01*
X122002128Y-96654868D01*
X121929557Y-96727440D01*
X121893271Y-96800011D01*
M02*
