G04 #@! TF.GenerationSoftware,KiCad,Pcbnew,5.1.5-52549c5~84~ubuntu19.04.1*
G04 #@! TF.CreationDate,2020-01-17T15:01:35+01:00*
G04 #@! TF.ProjectId,badge,62616467-652e-46b6-9963-61645f706362,rev?*
G04 #@! TF.SameCoordinates,Original*
G04 #@! TF.FileFunction,Legend,Bot*
G04 #@! TF.FilePolarity,Positive*
%FSLAX46Y46*%
G04 Gerber Fmt 4.6, Leading zero omitted, Abs format (unit mm)*
G04 Created by KiCad (PCBNEW 5.1.5-52549c5~84~ubuntu19.04.1) date 2020-01-17 15:01:35*
%MOMM*%
%LPD*%
G04 APERTURE LIST*
%ADD10C,0.200000*%
%ADD11C,0.100000*%
%ADD12C,0.127000*%
%ADD13C,0.300000*%
%ADD14C,0.010000*%
%ADD15C,0.120000*%
%ADD16C,0.203200*%
%ADD17C,0.254000*%
%ADD18C,0.101600*%
%ADD19C,0.160000*%
%ADD20C,0.050000*%
%ADD21C,0.250000*%
%ADD22C,0.152400*%
G04 APERTURE END LIST*
D10*
X103399285Y-113275714D02*
X103399285Y-114275714D01*
X103399285Y-113894761D02*
X103494523Y-113942380D01*
X103685000Y-113942380D01*
X103780238Y-113894761D01*
X103827857Y-113847142D01*
X103875476Y-113751904D01*
X103875476Y-113466190D01*
X103827857Y-113370952D01*
X103780238Y-113323333D01*
X103685000Y-113275714D01*
X103494523Y-113275714D01*
X103399285Y-113323333D01*
X103018333Y-113275714D02*
X102827857Y-113942380D01*
X102637380Y-113466190D01*
X102446904Y-113942380D01*
X102256428Y-113275714D01*
X101875476Y-113942380D02*
X101875476Y-113275714D01*
X101875476Y-112942380D02*
X101923095Y-112990000D01*
X101875476Y-113037619D01*
X101827857Y-112990000D01*
X101875476Y-112942380D01*
X101875476Y-113037619D01*
X101399285Y-113942380D02*
X101399285Y-113275714D01*
X101399285Y-112942380D02*
X101446904Y-112990000D01*
X101399285Y-113037619D01*
X101351666Y-112990000D01*
X101399285Y-112942380D01*
X101399285Y-113037619D01*
X100494523Y-113894761D02*
X100589761Y-113942380D01*
X100780238Y-113942380D01*
X100875476Y-113894761D01*
X100923095Y-113847142D01*
X100970714Y-113751904D01*
X100970714Y-113466190D01*
X100923095Y-113370952D01*
X100875476Y-113323333D01*
X100780238Y-113275714D01*
X100589761Y-113275714D01*
X100494523Y-113323333D01*
D11*
X100439285Y-96046428D02*
X99689285Y-96046428D01*
X99689285Y-96225000D01*
X99725000Y-96332142D01*
X99796428Y-96403571D01*
X99867857Y-96439285D01*
X100010714Y-96475000D01*
X100117857Y-96475000D01*
X100260714Y-96439285D01*
X100332142Y-96403571D01*
X100403571Y-96332142D01*
X100439285Y-96225000D01*
X100439285Y-96046428D01*
X100403571Y-97082142D02*
X100439285Y-97010714D01*
X100439285Y-96867857D01*
X100403571Y-96796428D01*
X100332142Y-96760714D01*
X100046428Y-96760714D01*
X99975000Y-96796428D01*
X99939285Y-96867857D01*
X99939285Y-97010714D01*
X99975000Y-97082142D01*
X100046428Y-97117857D01*
X100117857Y-97117857D01*
X100189285Y-96760714D01*
X100403571Y-97403571D02*
X100439285Y-97475000D01*
X100439285Y-97617857D01*
X100403571Y-97689285D01*
X100332142Y-97725000D01*
X100296428Y-97725000D01*
X100225000Y-97689285D01*
X100189285Y-97617857D01*
X100189285Y-97510714D01*
X100153571Y-97439285D01*
X100082142Y-97403571D01*
X100046428Y-97403571D01*
X99975000Y-97439285D01*
X99939285Y-97510714D01*
X99939285Y-97617857D01*
X99975000Y-97689285D01*
X100439285Y-98046428D02*
X99939285Y-98046428D01*
X99689285Y-98046428D02*
X99725000Y-98010714D01*
X99760714Y-98046428D01*
X99725000Y-98082142D01*
X99689285Y-98046428D01*
X99760714Y-98046428D01*
X99939285Y-98725000D02*
X100546428Y-98725000D01*
X100617857Y-98689285D01*
X100653571Y-98653571D01*
X100689285Y-98582142D01*
X100689285Y-98475000D01*
X100653571Y-98403571D01*
X100403571Y-98725000D02*
X100439285Y-98653571D01*
X100439285Y-98510714D01*
X100403571Y-98439285D01*
X100367857Y-98403571D01*
X100296428Y-98367857D01*
X100082142Y-98367857D01*
X100010714Y-98403571D01*
X99975000Y-98439285D01*
X99939285Y-98510714D01*
X99939285Y-98653571D01*
X99975000Y-98725000D01*
X99939285Y-99082142D02*
X100439285Y-99082142D01*
X100010714Y-99082142D02*
X99975000Y-99117857D01*
X99939285Y-99189285D01*
X99939285Y-99296428D01*
X99975000Y-99367857D01*
X100046428Y-99403571D01*
X100439285Y-99403571D01*
X100403571Y-100046428D02*
X100439285Y-99975000D01*
X100439285Y-99832142D01*
X100403571Y-99760714D01*
X100332142Y-99725000D01*
X100046428Y-99725000D01*
X99975000Y-99760714D01*
X99939285Y-99832142D01*
X99939285Y-99975000D01*
X99975000Y-100046428D01*
X100046428Y-100082142D01*
X100117857Y-100082142D01*
X100189285Y-99725000D01*
X100439285Y-100725000D02*
X99689285Y-100725000D01*
X100403571Y-100725000D02*
X100439285Y-100653571D01*
X100439285Y-100510714D01*
X100403571Y-100439285D01*
X100367857Y-100403571D01*
X100296428Y-100367857D01*
X100082142Y-100367857D01*
X100010714Y-100403571D01*
X99975000Y-100439285D01*
X99939285Y-100510714D01*
X99939285Y-100653571D01*
X99975000Y-100725000D01*
X100439285Y-101653571D02*
X99689285Y-101653571D01*
X99975000Y-101653571D02*
X99939285Y-101725000D01*
X99939285Y-101867857D01*
X99975000Y-101939285D01*
X100010714Y-101975000D01*
X100082142Y-102010714D01*
X100296428Y-102010714D01*
X100367857Y-101975000D01*
X100403571Y-101939285D01*
X100439285Y-101867857D01*
X100439285Y-101725000D01*
X100403571Y-101653571D01*
X99939285Y-102260714D02*
X100439285Y-102439285D01*
X99939285Y-102617857D02*
X100439285Y-102439285D01*
X100617857Y-102367857D01*
X100653571Y-102332142D01*
X100689285Y-102260714D01*
X100367857Y-102903571D02*
X100403571Y-102939285D01*
X100439285Y-102903571D01*
X100403571Y-102867857D01*
X100367857Y-102903571D01*
X100439285Y-102903571D01*
X99975000Y-102903571D02*
X100010714Y-102939285D01*
X100046428Y-102903571D01*
X100010714Y-102867857D01*
X99975000Y-102903571D01*
X100046428Y-102903571D01*
X101450000Y-96260714D02*
X101450000Y-96617857D01*
X101664285Y-96189285D02*
X100914285Y-96439285D01*
X101664285Y-96689285D01*
X101664285Y-97046428D02*
X101628571Y-96975000D01*
X101557142Y-96939285D01*
X100914285Y-96939285D01*
X101628571Y-97617857D02*
X101664285Y-97546428D01*
X101664285Y-97403571D01*
X101628571Y-97332142D01*
X101557142Y-97296428D01*
X101271428Y-97296428D01*
X101200000Y-97332142D01*
X101164285Y-97403571D01*
X101164285Y-97546428D01*
X101200000Y-97617857D01*
X101271428Y-97653571D01*
X101342857Y-97653571D01*
X101414285Y-97296428D01*
X101664285Y-97903571D02*
X101164285Y-98296428D01*
X101164285Y-97903571D02*
X101664285Y-98296428D01*
X101592857Y-99582142D02*
X101628571Y-99546428D01*
X101664285Y-99439285D01*
X101664285Y-99367857D01*
X101628571Y-99260714D01*
X101557142Y-99189285D01*
X101485714Y-99153571D01*
X101342857Y-99117857D01*
X101235714Y-99117857D01*
X101092857Y-99153571D01*
X101021428Y-99189285D01*
X100950000Y-99260714D01*
X100914285Y-99367857D01*
X100914285Y-99439285D01*
X100950000Y-99546428D01*
X100985714Y-99582142D01*
X101664285Y-100225000D02*
X101271428Y-100225000D01*
X101200000Y-100189285D01*
X101164285Y-100117857D01*
X101164285Y-99975000D01*
X101200000Y-99903571D01*
X101628571Y-100225000D02*
X101664285Y-100153571D01*
X101664285Y-99975000D01*
X101628571Y-99903571D01*
X101557142Y-99867857D01*
X101485714Y-99867857D01*
X101414285Y-99903571D01*
X101378571Y-99975000D01*
X101378571Y-100153571D01*
X101342857Y-100225000D01*
X101664285Y-100582142D02*
X101164285Y-100582142D01*
X101235714Y-100582142D02*
X101200000Y-100617857D01*
X101164285Y-100689285D01*
X101164285Y-100796428D01*
X101200000Y-100867857D01*
X101271428Y-100903571D01*
X101664285Y-100903571D01*
X101271428Y-100903571D02*
X101200000Y-100939285D01*
X101164285Y-101010714D01*
X101164285Y-101117857D01*
X101200000Y-101189285D01*
X101271428Y-101225000D01*
X101664285Y-101225000D01*
X101664285Y-101582142D02*
X101164285Y-101582142D01*
X100914285Y-101582142D02*
X100950000Y-101546428D01*
X100985714Y-101582142D01*
X100950000Y-101617857D01*
X100914285Y-101582142D01*
X100985714Y-101582142D01*
X101664285Y-102046428D02*
X101628571Y-101975000D01*
X101557142Y-101939285D01*
X100914285Y-101939285D01*
X101664285Y-102439285D02*
X101628571Y-102367857D01*
X101592857Y-102332142D01*
X101521428Y-102296428D01*
X101307142Y-102296428D01*
X101235714Y-102332142D01*
X101200000Y-102367857D01*
X101164285Y-102439285D01*
X101164285Y-102546428D01*
X101200000Y-102617857D01*
X101235714Y-102653571D01*
X101307142Y-102689285D01*
X101521428Y-102689285D01*
X101592857Y-102653571D01*
X101628571Y-102617857D01*
X101664285Y-102546428D01*
X101664285Y-102439285D01*
X102889285Y-95242857D02*
X102139285Y-95242857D01*
X102675000Y-95492857D01*
X102139285Y-95742857D01*
X102889285Y-95742857D01*
X102889285Y-96100000D02*
X102389285Y-96100000D01*
X102139285Y-96100000D02*
X102175000Y-96064285D01*
X102210714Y-96100000D01*
X102175000Y-96135714D01*
X102139285Y-96100000D01*
X102210714Y-96100000D01*
X102853571Y-96778571D02*
X102889285Y-96707142D01*
X102889285Y-96564285D01*
X102853571Y-96492857D01*
X102817857Y-96457142D01*
X102746428Y-96421428D01*
X102532142Y-96421428D01*
X102460714Y-96457142D01*
X102425000Y-96492857D01*
X102389285Y-96564285D01*
X102389285Y-96707142D01*
X102425000Y-96778571D01*
X102889285Y-97100000D02*
X102139285Y-97100000D01*
X102889285Y-97421428D02*
X102496428Y-97421428D01*
X102425000Y-97385714D01*
X102389285Y-97314285D01*
X102389285Y-97207142D01*
X102425000Y-97135714D01*
X102460714Y-97100000D01*
X102889285Y-98100000D02*
X102496428Y-98100000D01*
X102425000Y-98064285D01*
X102389285Y-97992857D01*
X102389285Y-97850000D01*
X102425000Y-97778571D01*
X102853571Y-98100000D02*
X102889285Y-98028571D01*
X102889285Y-97850000D01*
X102853571Y-97778571D01*
X102782142Y-97742857D01*
X102710714Y-97742857D01*
X102639285Y-97778571D01*
X102603571Y-97850000D01*
X102603571Y-98028571D01*
X102567857Y-98100000D01*
X102853571Y-98742857D02*
X102889285Y-98671428D01*
X102889285Y-98528571D01*
X102853571Y-98457142D01*
X102782142Y-98421428D01*
X102496428Y-98421428D01*
X102425000Y-98457142D01*
X102389285Y-98528571D01*
X102389285Y-98671428D01*
X102425000Y-98742857D01*
X102496428Y-98778571D01*
X102567857Y-98778571D01*
X102639285Y-98421428D01*
X102889285Y-99207142D02*
X102853571Y-99135714D01*
X102782142Y-99100000D01*
X102139285Y-99100000D01*
X102139285Y-99992857D02*
X102889285Y-100171428D01*
X102353571Y-100314285D01*
X102889285Y-100457142D01*
X102139285Y-100635714D01*
X102853571Y-101207142D02*
X102889285Y-101135714D01*
X102889285Y-100992857D01*
X102853571Y-100921428D01*
X102782142Y-100885714D01*
X102496428Y-100885714D01*
X102425000Y-100921428D01*
X102389285Y-100992857D01*
X102389285Y-101135714D01*
X102425000Y-101207142D01*
X102496428Y-101242857D01*
X102567857Y-101242857D01*
X102639285Y-100885714D01*
X102889285Y-101671428D02*
X102853571Y-101600000D01*
X102782142Y-101564285D01*
X102139285Y-101564285D01*
X102889285Y-102064285D02*
X102853571Y-101992857D01*
X102782142Y-101957142D01*
X102139285Y-101957142D01*
X102889285Y-102350000D02*
X102389285Y-102350000D01*
X102139285Y-102350000D02*
X102175000Y-102314285D01*
X102210714Y-102350000D01*
X102175000Y-102385714D01*
X102139285Y-102350000D01*
X102210714Y-102350000D01*
X102389285Y-102707142D02*
X102889285Y-102707142D01*
X102460714Y-102707142D02*
X102425000Y-102742857D01*
X102389285Y-102814285D01*
X102389285Y-102921428D01*
X102425000Y-102992857D01*
X102496428Y-103028571D01*
X102889285Y-103028571D01*
X102389285Y-103707142D02*
X102996428Y-103707142D01*
X103067857Y-103671428D01*
X103103571Y-103635714D01*
X103139285Y-103564285D01*
X103139285Y-103457142D01*
X103103571Y-103385714D01*
X102853571Y-103707142D02*
X102889285Y-103635714D01*
X102889285Y-103492857D01*
X102853571Y-103421428D01*
X102817857Y-103385714D01*
X102746428Y-103350000D01*
X102532142Y-103350000D01*
X102460714Y-103385714D01*
X102425000Y-103421428D01*
X102389285Y-103492857D01*
X102389285Y-103635714D01*
X102425000Y-103707142D01*
X104756071Y-94795714D02*
X104791785Y-94902857D01*
X104791785Y-95081428D01*
X104756071Y-95152857D01*
X104720357Y-95188571D01*
X104648928Y-95224285D01*
X104577500Y-95224285D01*
X104506071Y-95188571D01*
X104470357Y-95152857D01*
X104434642Y-95081428D01*
X104398928Y-94938571D01*
X104363214Y-94867142D01*
X104327500Y-94831428D01*
X104256071Y-94795714D01*
X104184642Y-94795714D01*
X104113214Y-94831428D01*
X104077500Y-94867142D01*
X104041785Y-94938571D01*
X104041785Y-95117142D01*
X104077500Y-95224285D01*
X104291785Y-95545714D02*
X105041785Y-95545714D01*
X104327500Y-95545714D02*
X104291785Y-95617142D01*
X104291785Y-95760000D01*
X104327500Y-95831428D01*
X104363214Y-95867142D01*
X104434642Y-95902857D01*
X104648928Y-95902857D01*
X104720357Y-95867142D01*
X104756071Y-95831428D01*
X104791785Y-95760000D01*
X104791785Y-95617142D01*
X104756071Y-95545714D01*
X104791785Y-96331428D02*
X104756071Y-96260000D01*
X104720357Y-96224285D01*
X104648928Y-96188571D01*
X104434642Y-96188571D01*
X104363214Y-96224285D01*
X104327500Y-96260000D01*
X104291785Y-96331428D01*
X104291785Y-96438571D01*
X104327500Y-96510000D01*
X104363214Y-96545714D01*
X104434642Y-96581428D01*
X104648928Y-96581428D01*
X104720357Y-96545714D01*
X104756071Y-96510000D01*
X104791785Y-96438571D01*
X104791785Y-96331428D01*
X104291785Y-96902857D02*
X104791785Y-96902857D01*
X104363214Y-96902857D02*
X104327500Y-96938571D01*
X104291785Y-97010000D01*
X104291785Y-97117142D01*
X104327500Y-97188571D01*
X104398928Y-97224285D01*
X104791785Y-97224285D01*
X104756071Y-97545714D02*
X104791785Y-97617142D01*
X104791785Y-97760000D01*
X104756071Y-97831428D01*
X104684642Y-97867142D01*
X104648928Y-97867142D01*
X104577500Y-97831428D01*
X104541785Y-97760000D01*
X104541785Y-97652857D01*
X104506071Y-97581428D01*
X104434642Y-97545714D01*
X104398928Y-97545714D01*
X104327500Y-97581428D01*
X104291785Y-97652857D01*
X104291785Y-97760000D01*
X104327500Y-97831428D01*
X104791785Y-98295714D02*
X104756071Y-98224285D01*
X104720357Y-98188571D01*
X104648928Y-98152857D01*
X104434642Y-98152857D01*
X104363214Y-98188571D01*
X104327500Y-98224285D01*
X104291785Y-98295714D01*
X104291785Y-98402857D01*
X104327500Y-98474285D01*
X104363214Y-98510000D01*
X104434642Y-98545714D01*
X104648928Y-98545714D01*
X104720357Y-98510000D01*
X104756071Y-98474285D01*
X104791785Y-98402857D01*
X104791785Y-98295714D01*
X104791785Y-98867142D02*
X104291785Y-98867142D01*
X104434642Y-98867142D02*
X104363214Y-98902857D01*
X104327500Y-98938571D01*
X104291785Y-99010000D01*
X104291785Y-99081428D01*
X104756071Y-99617142D02*
X104791785Y-99545714D01*
X104791785Y-99402857D01*
X104756071Y-99331428D01*
X104684642Y-99295714D01*
X104398928Y-99295714D01*
X104327500Y-99331428D01*
X104291785Y-99402857D01*
X104291785Y-99545714D01*
X104327500Y-99617142D01*
X104398928Y-99652857D01*
X104470357Y-99652857D01*
X104541785Y-99295714D01*
X104791785Y-100295714D02*
X104041785Y-100295714D01*
X104756071Y-100295714D02*
X104791785Y-100224285D01*
X104791785Y-100081428D01*
X104756071Y-100010000D01*
X104720357Y-99974285D01*
X104648928Y-99938571D01*
X104434642Y-99938571D01*
X104363214Y-99974285D01*
X104327500Y-100010000D01*
X104291785Y-100081428D01*
X104291785Y-100224285D01*
X104327500Y-100295714D01*
X104791785Y-101224285D02*
X104041785Y-101224285D01*
X104327500Y-101224285D02*
X104291785Y-101295714D01*
X104291785Y-101438571D01*
X104327500Y-101510000D01*
X104363214Y-101545714D01*
X104434642Y-101581428D01*
X104648928Y-101581428D01*
X104720357Y-101545714D01*
X104756071Y-101510000D01*
X104791785Y-101438571D01*
X104791785Y-101295714D01*
X104756071Y-101224285D01*
X104291785Y-101831428D02*
X104791785Y-102010000D01*
X104291785Y-102188571D02*
X104791785Y-102010000D01*
X104970357Y-101938571D01*
X105006071Y-101902857D01*
X105041785Y-101831428D01*
X104720357Y-102474285D02*
X104756071Y-102510000D01*
X104791785Y-102474285D01*
X104756071Y-102438571D01*
X104720357Y-102474285D01*
X104791785Y-102474285D01*
X104327500Y-102474285D02*
X104363214Y-102510000D01*
X104398928Y-102474285D01*
X104363214Y-102438571D01*
X104327500Y-102474285D01*
X104398928Y-102474285D01*
X106016785Y-88260000D02*
X105266785Y-88260000D01*
X105266785Y-88438571D01*
X105302500Y-88545714D01*
X105373928Y-88617142D01*
X105445357Y-88652857D01*
X105588214Y-88688571D01*
X105695357Y-88688571D01*
X105838214Y-88652857D01*
X105909642Y-88617142D01*
X105981071Y-88545714D01*
X106016785Y-88438571D01*
X106016785Y-88260000D01*
X106016785Y-89010000D02*
X105516785Y-89010000D01*
X105266785Y-89010000D02*
X105302500Y-88974285D01*
X105338214Y-89010000D01*
X105302500Y-89045714D01*
X105266785Y-89010000D01*
X105338214Y-89010000D01*
X105516785Y-89688571D02*
X106123928Y-89688571D01*
X106195357Y-89652857D01*
X106231071Y-89617142D01*
X106266785Y-89545714D01*
X106266785Y-89438571D01*
X106231071Y-89367142D01*
X105981071Y-89688571D02*
X106016785Y-89617142D01*
X106016785Y-89474285D01*
X105981071Y-89402857D01*
X105945357Y-89367142D01*
X105873928Y-89331428D01*
X105659642Y-89331428D01*
X105588214Y-89367142D01*
X105552500Y-89402857D01*
X105516785Y-89474285D01*
X105516785Y-89617142D01*
X105552500Y-89688571D01*
X106016785Y-90045714D02*
X105516785Y-90045714D01*
X105266785Y-90045714D02*
X105302500Y-90010000D01*
X105338214Y-90045714D01*
X105302500Y-90081428D01*
X105266785Y-90045714D01*
X105338214Y-90045714D01*
X105731071Y-90402857D02*
X105731071Y-90974285D01*
X106016785Y-91331428D02*
X105266785Y-91331428D01*
X106016785Y-91760000D02*
X105588214Y-91438571D01*
X105266785Y-91760000D02*
X105695357Y-91331428D01*
X105981071Y-92367142D02*
X106016785Y-92295714D01*
X106016785Y-92152857D01*
X105981071Y-92081428D01*
X105909642Y-92045714D01*
X105623928Y-92045714D01*
X105552500Y-92081428D01*
X105516785Y-92152857D01*
X105516785Y-92295714D01*
X105552500Y-92367142D01*
X105623928Y-92402857D01*
X105695357Y-92402857D01*
X105766785Y-92045714D01*
X105516785Y-92652857D02*
X106016785Y-92831428D01*
X105516785Y-93010000D02*
X106016785Y-92831428D01*
X106195357Y-92760000D01*
X106231071Y-92724285D01*
X106266785Y-92652857D01*
X105981071Y-93331428D02*
X106016785Y-93331428D01*
X106088214Y-93295714D01*
X106123928Y-93260000D01*
X105981071Y-94188571D02*
X106016785Y-94295714D01*
X106016785Y-94474285D01*
X105981071Y-94545714D01*
X105945357Y-94581428D01*
X105873928Y-94617142D01*
X105802500Y-94617142D01*
X105731071Y-94581428D01*
X105695357Y-94545714D01*
X105659642Y-94474285D01*
X105623928Y-94331428D01*
X105588214Y-94260000D01*
X105552500Y-94224285D01*
X105481071Y-94188571D01*
X105409642Y-94188571D01*
X105338214Y-94224285D01*
X105302500Y-94260000D01*
X105266785Y-94331428D01*
X105266785Y-94510000D01*
X105302500Y-94617142D01*
X105516785Y-94938571D02*
X106266785Y-94938571D01*
X105552500Y-94938571D02*
X105516785Y-95010000D01*
X105516785Y-95152857D01*
X105552500Y-95224285D01*
X105588214Y-95260000D01*
X105659642Y-95295714D01*
X105873928Y-95295714D01*
X105945357Y-95260000D01*
X105981071Y-95224285D01*
X106016785Y-95152857D01*
X106016785Y-95010000D01*
X105981071Y-94938571D01*
X106016785Y-95938571D02*
X105623928Y-95938571D01*
X105552500Y-95902857D01*
X105516785Y-95831428D01*
X105516785Y-95688571D01*
X105552500Y-95617142D01*
X105981071Y-95938571D02*
X106016785Y-95867142D01*
X106016785Y-95688571D01*
X105981071Y-95617142D01*
X105909642Y-95581428D01*
X105838214Y-95581428D01*
X105766785Y-95617142D01*
X105731071Y-95688571D01*
X105731071Y-95867142D01*
X105695357Y-95938571D01*
X106016785Y-96295714D02*
X105516785Y-96295714D01*
X105659642Y-96295714D02*
X105588214Y-96331428D01*
X105552500Y-96367142D01*
X105516785Y-96438571D01*
X105516785Y-96510000D01*
X106016785Y-96760000D02*
X105266785Y-96760000D01*
X105731071Y-96831428D02*
X106016785Y-97045714D01*
X105516785Y-97045714D02*
X105802500Y-96760000D01*
X105516785Y-97260000D02*
X105516785Y-97545714D01*
X106016785Y-97367142D02*
X105373928Y-97367142D01*
X105302500Y-97402857D01*
X105266785Y-97474285D01*
X105266785Y-97545714D01*
X105516785Y-98117142D02*
X106016785Y-98117142D01*
X105516785Y-97795714D02*
X105909642Y-97795714D01*
X105981071Y-97831428D01*
X106016785Y-97902857D01*
X106016785Y-98010000D01*
X105981071Y-98081428D01*
X105945357Y-98117142D01*
X105516785Y-98474285D02*
X106016785Y-98474285D01*
X105588214Y-98474285D02*
X105552500Y-98510000D01*
X105516785Y-98581428D01*
X105516785Y-98688571D01*
X105552500Y-98760000D01*
X105623928Y-98795714D01*
X106016785Y-98795714D01*
X106016785Y-100045714D02*
X105623928Y-100045714D01*
X105552500Y-100010000D01*
X105516785Y-99938571D01*
X105516785Y-99795714D01*
X105552500Y-99724285D01*
X105981071Y-100045714D02*
X106016785Y-99974285D01*
X106016785Y-99795714D01*
X105981071Y-99724285D01*
X105909642Y-99688571D01*
X105838214Y-99688571D01*
X105766785Y-99724285D01*
X105731071Y-99795714D01*
X105731071Y-99974285D01*
X105695357Y-100045714D01*
X105516785Y-100402857D02*
X106016785Y-100402857D01*
X105588214Y-100402857D02*
X105552500Y-100438571D01*
X105516785Y-100510000D01*
X105516785Y-100617142D01*
X105552500Y-100688571D01*
X105623928Y-100724285D01*
X106016785Y-100724285D01*
X106016785Y-101402857D02*
X105266785Y-101402857D01*
X105981071Y-101402857D02*
X106016785Y-101331428D01*
X106016785Y-101188571D01*
X105981071Y-101117142D01*
X105945357Y-101081428D01*
X105873928Y-101045714D01*
X105659642Y-101045714D01*
X105588214Y-101081428D01*
X105552500Y-101117142D01*
X105516785Y-101188571D01*
X105516785Y-101331428D01*
X105552500Y-101402857D01*
X105266785Y-102474285D02*
X105266785Y-102617142D01*
X105302500Y-102688571D01*
X105373928Y-102760000D01*
X105516785Y-102795714D01*
X105766785Y-102795714D01*
X105909642Y-102760000D01*
X105981071Y-102688571D01*
X106016785Y-102617142D01*
X106016785Y-102474285D01*
X105981071Y-102402857D01*
X105909642Y-102331428D01*
X105766785Y-102295714D01*
X105516785Y-102295714D01*
X105373928Y-102331428D01*
X105302500Y-102402857D01*
X105266785Y-102474285D01*
X105981071Y-103081428D02*
X106016785Y-103188571D01*
X106016785Y-103367142D01*
X105981071Y-103438571D01*
X105945357Y-103474285D01*
X105873928Y-103510000D01*
X105802500Y-103510000D01*
X105731071Y-103474285D01*
X105695357Y-103438571D01*
X105659642Y-103367142D01*
X105623928Y-103224285D01*
X105588214Y-103152857D01*
X105552500Y-103117142D01*
X105481071Y-103081428D01*
X105409642Y-103081428D01*
X105338214Y-103117142D01*
X105302500Y-103152857D01*
X105266785Y-103224285D01*
X105266785Y-103402857D01*
X105302500Y-103510000D01*
X106016785Y-103831428D02*
X105266785Y-103831428D01*
X105623928Y-103831428D02*
X105623928Y-104260000D01*
X106016785Y-104260000D02*
X105266785Y-104260000D01*
X106016785Y-104617142D02*
X105266785Y-104617142D01*
X105266785Y-104902857D01*
X105302500Y-104974285D01*
X105338214Y-105010000D01*
X105409642Y-105045714D01*
X105516785Y-105045714D01*
X105588214Y-105010000D01*
X105623928Y-104974285D01*
X105659642Y-104902857D01*
X105659642Y-104617142D01*
X106016785Y-105688571D02*
X105623928Y-105688571D01*
X105552500Y-105652857D01*
X105516785Y-105581428D01*
X105516785Y-105438571D01*
X105552500Y-105367142D01*
X105981071Y-105688571D02*
X106016785Y-105617142D01*
X106016785Y-105438571D01*
X105981071Y-105367142D01*
X105909642Y-105331428D01*
X105838214Y-105331428D01*
X105766785Y-105367142D01*
X105731071Y-105438571D01*
X105731071Y-105617142D01*
X105695357Y-105688571D01*
X106016785Y-106045714D02*
X105516785Y-106045714D01*
X105659642Y-106045714D02*
X105588214Y-106081428D01*
X105552500Y-106117142D01*
X105516785Y-106188571D01*
X105516785Y-106260000D01*
X106016785Y-106510000D02*
X105266785Y-106510000D01*
X105731071Y-106581428D02*
X106016785Y-106795714D01*
X105516785Y-106795714D02*
X105802500Y-106510000D01*
D12*
X99250000Y-111275000D02*
X99250000Y-107675000D01*
X103500000Y-106475000D02*
X101225000Y-106475000D01*
X103500000Y-107275000D02*
X103500000Y-106475000D01*
X103500000Y-112475000D02*
X101225000Y-112475000D01*
X103500000Y-111675000D02*
X103500000Y-112475000D01*
D13*
X104310000Y-111925000D02*
G75*
G03X104310000Y-111925000I-100000J0D01*
G01*
D14*
G36*
X103613012Y-90746539D02*
G01*
X103655297Y-90822350D01*
X103731209Y-90853320D01*
X103805038Y-90828694D01*
X103821196Y-90809249D01*
X103855130Y-90731085D01*
X103824580Y-90672155D01*
X103800532Y-90650787D01*
X103715201Y-90620403D01*
X103641732Y-90652509D01*
X103611705Y-90730977D01*
X103613012Y-90746539D01*
G37*
X103613012Y-90746539D02*
X103655297Y-90822350D01*
X103731209Y-90853320D01*
X103805038Y-90828694D01*
X103821196Y-90809249D01*
X103855130Y-90731085D01*
X103824580Y-90672155D01*
X103800532Y-90650787D01*
X103715201Y-90620403D01*
X103641732Y-90652509D01*
X103611705Y-90730977D01*
X103613012Y-90746539D01*
G36*
X101107000Y-91450667D02*
G01*
X101107000Y-91958667D01*
X100472000Y-91958667D01*
X100472000Y-92212667D01*
X102038333Y-92212667D01*
X102038333Y-91958667D01*
X101318667Y-91958667D01*
X101318667Y-91450667D01*
X102038333Y-91450667D01*
X102038333Y-91196667D01*
X100472000Y-91196667D01*
X100472000Y-91450667D01*
X101107000Y-91450667D01*
G37*
X101107000Y-91450667D02*
X101107000Y-91958667D01*
X100472000Y-91958667D01*
X100472000Y-92212667D01*
X102038333Y-92212667D01*
X102038333Y-91958667D01*
X101318667Y-91958667D01*
X101318667Y-91450667D01*
X102038333Y-91450667D01*
X102038333Y-91196667D01*
X100472000Y-91196667D01*
X100472000Y-91450667D01*
X101107000Y-91450667D01*
G36*
X100445709Y-90614989D02*
G01*
X100476141Y-90724683D01*
X100524869Y-90820095D01*
X100598456Y-90855317D01*
X100645474Y-90858000D01*
X100733071Y-90855209D01*
X100761127Y-90832405D01*
X100738027Y-90767944D01*
X100705094Y-90704089D01*
X100652557Y-90545971D01*
X100650340Y-90390408D01*
X100692567Y-90257388D01*
X100773364Y-90166903D01*
X100871383Y-90138334D01*
X100950674Y-90150601D01*
X101010400Y-90197653D01*
X101061656Y-90294858D01*
X101115542Y-90457590D01*
X101124723Y-90489251D01*
X101211928Y-90711415D01*
X101327252Y-90856388D01*
X101476896Y-90928757D01*
X101667063Y-90933110D01*
X101714341Y-90925511D01*
X101883855Y-90859101D01*
X101997192Y-90732275D01*
X102056556Y-90542019D01*
X102065821Y-90444670D01*
X102064946Y-90281947D01*
X102049982Y-90131065D01*
X102035520Y-90064250D01*
X101992835Y-89967694D01*
X101926640Y-89930667D01*
X101867789Y-89926667D01*
X101783766Y-89928210D01*
X101750808Y-89946913D01*
X101761771Y-90003886D01*
X101805500Y-90110637D01*
X101858757Y-90300901D01*
X101856684Y-90467549D01*
X101803886Y-90596402D01*
X101704967Y-90673282D01*
X101617783Y-90688667D01*
X101518754Y-90674516D01*
X101449790Y-90620999D01*
X101396494Y-90511521D01*
X101360701Y-90392334D01*
X101294130Y-90185280D01*
X101219351Y-90047253D01*
X101125926Y-89962643D01*
X101050890Y-89929106D01*
X100863161Y-89903943D01*
X100698799Y-89950323D01*
X100566337Y-90056432D01*
X100474312Y-90210455D01*
X100431257Y-90400579D01*
X100445709Y-90614989D01*
G37*
X100445709Y-90614989D02*
X100476141Y-90724683D01*
X100524869Y-90820095D01*
X100598456Y-90855317D01*
X100645474Y-90858000D01*
X100733071Y-90855209D01*
X100761127Y-90832405D01*
X100738027Y-90767944D01*
X100705094Y-90704089D01*
X100652557Y-90545971D01*
X100650340Y-90390408D01*
X100692567Y-90257388D01*
X100773364Y-90166903D01*
X100871383Y-90138334D01*
X100950674Y-90150601D01*
X101010400Y-90197653D01*
X101061656Y-90294858D01*
X101115542Y-90457590D01*
X101124723Y-90489251D01*
X101211928Y-90711415D01*
X101327252Y-90856388D01*
X101476896Y-90928757D01*
X101667063Y-90933110D01*
X101714341Y-90925511D01*
X101883855Y-90859101D01*
X101997192Y-90732275D01*
X102056556Y-90542019D01*
X102065821Y-90444670D01*
X102064946Y-90281947D01*
X102049982Y-90131065D01*
X102035520Y-90064250D01*
X101992835Y-89967694D01*
X101926640Y-89930667D01*
X101867789Y-89926667D01*
X101783766Y-89928210D01*
X101750808Y-89946913D01*
X101761771Y-90003886D01*
X101805500Y-90110637D01*
X101858757Y-90300901D01*
X101856684Y-90467549D01*
X101803886Y-90596402D01*
X101704967Y-90673282D01*
X101617783Y-90688667D01*
X101518754Y-90674516D01*
X101449790Y-90620999D01*
X101396494Y-90511521D01*
X101360701Y-90392334D01*
X101294130Y-90185280D01*
X101219351Y-90047253D01*
X101125926Y-89962643D01*
X101050890Y-89929106D01*
X100863161Y-89903943D01*
X100698799Y-89950323D01*
X100566337Y-90056432D01*
X100474312Y-90210455D01*
X100431257Y-90400579D01*
X100445709Y-90614989D01*
G36*
X100441233Y-89183343D02*
G01*
X100491053Y-89372341D01*
X100602243Y-89513475D01*
X100778352Y-89608876D01*
X101022929Y-89660675D01*
X101255167Y-89672195D01*
X101553801Y-89651909D01*
X101781288Y-89589632D01*
X101941176Y-89483232D01*
X102037014Y-89330577D01*
X102069100Y-89183343D01*
X102073878Y-89038789D01*
X102048216Y-88937370D01*
X101993056Y-88852620D01*
X101878905Y-88741905D01*
X101732853Y-88668790D01*
X101538684Y-88628036D01*
X101280181Y-88614409D01*
X101255167Y-88614334D01*
X101135664Y-88619571D01*
X101135664Y-88871073D01*
X101282331Y-88875273D01*
X101486388Y-88885604D01*
X101624417Y-88902021D01*
X101715021Y-88928071D01*
X101776800Y-88967300D01*
X101779990Y-88970145D01*
X101857691Y-89085046D01*
X101855316Y-89203762D01*
X101774157Y-89308496D01*
X101754445Y-89322441D01*
X101671775Y-89361693D01*
X101557312Y-89385177D01*
X101390944Y-89395916D01*
X101255167Y-89397500D01*
X101047198Y-89393059D01*
X100903418Y-89377720D01*
X100803717Y-89348459D01*
X100755888Y-89322441D01*
X100661650Y-89222780D01*
X100647287Y-89108541D01*
X100712741Y-88993061D01*
X100757508Y-88952429D01*
X100820496Y-88909734D01*
X100890645Y-88883983D01*
X100988765Y-88872116D01*
X101135664Y-88871073D01*
X101135664Y-88619571D01*
X100990556Y-88625932D01*
X100791633Y-88664219D01*
X100642182Y-88734431D01*
X100525988Y-88841805D01*
X100517277Y-88852620D01*
X100457290Y-88948178D01*
X100435618Y-89052616D01*
X100441233Y-89183343D01*
G37*
X100441233Y-89183343D02*
X100491053Y-89372341D01*
X100602243Y-89513475D01*
X100778352Y-89608876D01*
X101022929Y-89660675D01*
X101255167Y-89672195D01*
X101553801Y-89651909D01*
X101781288Y-89589632D01*
X101941176Y-89483232D01*
X102037014Y-89330577D01*
X102069100Y-89183343D01*
X102073878Y-89038789D01*
X102048216Y-88937370D01*
X101993056Y-88852620D01*
X101878905Y-88741905D01*
X101732853Y-88668790D01*
X101538684Y-88628036D01*
X101280181Y-88614409D01*
X101255167Y-88614334D01*
X101135664Y-88619571D01*
X101135664Y-88871073D01*
X101282331Y-88875273D01*
X101486388Y-88885604D01*
X101624417Y-88902021D01*
X101715021Y-88928071D01*
X101776800Y-88967300D01*
X101779990Y-88970145D01*
X101857691Y-89085046D01*
X101855316Y-89203762D01*
X101774157Y-89308496D01*
X101754445Y-89322441D01*
X101671775Y-89361693D01*
X101557312Y-89385177D01*
X101390944Y-89395916D01*
X101255167Y-89397500D01*
X101047198Y-89393059D01*
X100903418Y-89377720D01*
X100803717Y-89348459D01*
X100755888Y-89322441D01*
X100661650Y-89222780D01*
X100647287Y-89108541D01*
X100712741Y-88993061D01*
X100757508Y-88952429D01*
X100820496Y-88909734D01*
X100890645Y-88883983D01*
X100988765Y-88872116D01*
X101135664Y-88871073D01*
X101135664Y-88619571D01*
X100990556Y-88625932D01*
X100791633Y-88664219D01*
X100642182Y-88734431D01*
X100525988Y-88841805D01*
X100517277Y-88852620D01*
X100457290Y-88948178D01*
X100435618Y-89052616D01*
X100441233Y-89183343D01*
G36*
X102758000Y-94456334D02*
G01*
X102758000Y-87894667D01*
X99667667Y-87894667D01*
X99667667Y-93313334D01*
X100006333Y-93313334D01*
X100006333Y-88191000D01*
X102461667Y-88191000D01*
X102461667Y-94158843D01*
X99688833Y-94181167D01*
X99675568Y-94318750D01*
X99662302Y-94456334D01*
X102758000Y-94456334D01*
G37*
X102758000Y-94456334D02*
X102758000Y-87894667D01*
X99667667Y-87894667D01*
X99667667Y-93313334D01*
X100006333Y-93313334D01*
X100006333Y-88191000D01*
X102461667Y-88191000D01*
X102461667Y-94158843D01*
X99688833Y-94181167D01*
X99675568Y-94318750D01*
X99662302Y-94456334D01*
X102758000Y-94456334D01*
G36*
X103493896Y-93863667D02*
G01*
X103668964Y-93865608D01*
X103777144Y-93874086D01*
X103836174Y-93893084D01*
X103863794Y-93926588D01*
X103870933Y-93948334D01*
X103917255Y-94017183D01*
X103960537Y-94033000D01*
X104016534Y-93997644D01*
X104028000Y-93948334D01*
X104044574Y-93889979D01*
X104109278Y-93866434D01*
X104176167Y-93863667D01*
X104276366Y-93855760D01*
X104317385Y-93820177D01*
X104324333Y-93757834D01*
X104313263Y-93686263D01*
X104263447Y-93656963D01*
X104176167Y-93652000D01*
X104028000Y-93652000D01*
X104028000Y-93419167D01*
X104024585Y-93285062D01*
X104009134Y-93215200D01*
X103973835Y-93189265D01*
X103938482Y-93186334D01*
X103865337Y-93208074D01*
X103834455Y-93222707D01*
X103834455Y-93398000D01*
X103851467Y-93434849D01*
X103858665Y-93523611D01*
X103858667Y-93525000D01*
X103854042Y-93600181D01*
X103825609Y-93637671D01*
X103751526Y-93650574D01*
X103647000Y-93652000D01*
X103526214Y-93648914D01*
X103449579Y-93641024D01*
X103435333Y-93634856D01*
X103468255Y-93606033D01*
X103549525Y-93552724D01*
X103652902Y-93490504D01*
X103752142Y-93434945D01*
X103821005Y-93401621D01*
X103834455Y-93398000D01*
X103834455Y-93222707D01*
X103742031Y-93266502D01*
X103588909Y-93351427D01*
X103494811Y-93408584D01*
X103328623Y-93516021D01*
X103223203Y-93594455D01*
X103165498Y-93656339D01*
X103142453Y-93714127D01*
X103139829Y-93747250D01*
X103139000Y-93863667D01*
X103493896Y-93863667D01*
G37*
X103493896Y-93863667D02*
X103668964Y-93865608D01*
X103777144Y-93874086D01*
X103836174Y-93893084D01*
X103863794Y-93926588D01*
X103870933Y-93948334D01*
X103917255Y-94017183D01*
X103960537Y-94033000D01*
X104016534Y-93997644D01*
X104028000Y-93948334D01*
X104044574Y-93889979D01*
X104109278Y-93866434D01*
X104176167Y-93863667D01*
X104276366Y-93855760D01*
X104317385Y-93820177D01*
X104324333Y-93757834D01*
X104313263Y-93686263D01*
X104263447Y-93656963D01*
X104176167Y-93652000D01*
X104028000Y-93652000D01*
X104028000Y-93419167D01*
X104024585Y-93285062D01*
X104009134Y-93215200D01*
X103973835Y-93189265D01*
X103938482Y-93186334D01*
X103865337Y-93208074D01*
X103834455Y-93222707D01*
X103834455Y-93398000D01*
X103851467Y-93434849D01*
X103858665Y-93523611D01*
X103858667Y-93525000D01*
X103854042Y-93600181D01*
X103825609Y-93637671D01*
X103751526Y-93650574D01*
X103647000Y-93652000D01*
X103526214Y-93648914D01*
X103449579Y-93641024D01*
X103435333Y-93634856D01*
X103468255Y-93606033D01*
X103549525Y-93552724D01*
X103652902Y-93490504D01*
X103752142Y-93434945D01*
X103821005Y-93401621D01*
X103834455Y-93398000D01*
X103834455Y-93222707D01*
X103742031Y-93266502D01*
X103588909Y-93351427D01*
X103494811Y-93408584D01*
X103328623Y-93516021D01*
X103223203Y-93594455D01*
X103165498Y-93656339D01*
X103142453Y-93714127D01*
X103139829Y-93747250D01*
X103139000Y-93863667D01*
X103493896Y-93863667D01*
G36*
X104155000Y-92805334D02*
G01*
X104155000Y-92911167D01*
X104174843Y-92994157D01*
X104239667Y-93017000D01*
X104281851Y-93009930D01*
X104307133Y-92977364D01*
X104319771Y-92902273D01*
X104324022Y-92767626D01*
X104324333Y-92678334D01*
X104322566Y-92509595D01*
X104314424Y-92408466D01*
X104295651Y-92357916D01*
X104261990Y-92340913D01*
X104239667Y-92339667D01*
X104177693Y-92359625D01*
X104155873Y-92433883D01*
X104155000Y-92466667D01*
X104155000Y-92593667D01*
X103310450Y-92593667D01*
X103335850Y-92466667D01*
X103345088Y-92377096D01*
X103315034Y-92343271D01*
X103276229Y-92339667D01*
X103200289Y-92374035D01*
X103155337Y-92479952D01*
X103139614Y-92661637D01*
X103139578Y-92667750D01*
X103139000Y-92805334D01*
X104155000Y-92805334D01*
G37*
X104155000Y-92805334D02*
X104155000Y-92911167D01*
X104174843Y-92994157D01*
X104239667Y-93017000D01*
X104281851Y-93009930D01*
X104307133Y-92977364D01*
X104319771Y-92902273D01*
X104324022Y-92767626D01*
X104324333Y-92678334D01*
X104322566Y-92509595D01*
X104314424Y-92408466D01*
X104295651Y-92357916D01*
X104261990Y-92340913D01*
X104239667Y-92339667D01*
X104177693Y-92359625D01*
X104155873Y-92433883D01*
X104155000Y-92466667D01*
X104155000Y-92593667D01*
X103310450Y-92593667D01*
X103335850Y-92466667D01*
X103345088Y-92377096D01*
X103315034Y-92343271D01*
X103276229Y-92339667D01*
X103200289Y-92374035D01*
X103155337Y-92479952D01*
X103139614Y-92661637D01*
X103139578Y-92667750D01*
X103139000Y-92805334D01*
X104155000Y-92805334D01*
G36*
X103153551Y-91850365D02*
G01*
X103232143Y-91970170D01*
X103326710Y-92025249D01*
X103446398Y-92038672D01*
X103566222Y-92010954D01*
X103703937Y-91934645D01*
X103877296Y-91802292D01*
X103897088Y-91785845D01*
X104155000Y-91570339D01*
X104155000Y-91806836D01*
X104158561Y-91942675D01*
X104174005Y-92013921D01*
X104208470Y-92040513D01*
X104239667Y-92043334D01*
X104280834Y-92036637D01*
X104305980Y-92005512D01*
X104319000Y-91933402D01*
X104323789Y-91803752D01*
X104324333Y-91683500D01*
X104322896Y-91508812D01*
X104315848Y-91402140D01*
X104299085Y-91346846D01*
X104268503Y-91326294D01*
X104235574Y-91323667D01*
X104164608Y-91351385D01*
X104052780Y-91425733D01*
X103919124Y-91533498D01*
X103869618Y-91577667D01*
X103710159Y-91715222D01*
X103590862Y-91796289D01*
X103497948Y-91829638D01*
X103470636Y-91831667D01*
X103353135Y-91800186D01*
X103292397Y-91712395D01*
X103292512Y-91578271D01*
X103324926Y-91476250D01*
X103390947Y-91318241D01*
X103275557Y-91331537D01*
X103197039Y-91354076D01*
X103151877Y-91414822D01*
X103124229Y-91516088D01*
X103114583Y-91691467D01*
X103153551Y-91850365D01*
G37*
X103153551Y-91850365D02*
X103232143Y-91970170D01*
X103326710Y-92025249D01*
X103446398Y-92038672D01*
X103566222Y-92010954D01*
X103703937Y-91934645D01*
X103877296Y-91802292D01*
X103897088Y-91785845D01*
X104155000Y-91570339D01*
X104155000Y-91806836D01*
X104158561Y-91942675D01*
X104174005Y-92013921D01*
X104208470Y-92040513D01*
X104239667Y-92043334D01*
X104280834Y-92036637D01*
X104305980Y-92005512D01*
X104319000Y-91933402D01*
X104323789Y-91803752D01*
X104324333Y-91683500D01*
X104322896Y-91508812D01*
X104315848Y-91402140D01*
X104299085Y-91346846D01*
X104268503Y-91326294D01*
X104235574Y-91323667D01*
X104164608Y-91351385D01*
X104052780Y-91425733D01*
X103919124Y-91533498D01*
X103869618Y-91577667D01*
X103710159Y-91715222D01*
X103590862Y-91796289D01*
X103497948Y-91829638D01*
X103470636Y-91831667D01*
X103353135Y-91800186D01*
X103292397Y-91712395D01*
X103292512Y-91578271D01*
X103324926Y-91476250D01*
X103390947Y-91318241D01*
X103275557Y-91331537D01*
X103197039Y-91354076D01*
X103151877Y-91414822D01*
X103124229Y-91516088D01*
X103114583Y-91691467D01*
X103153551Y-91850365D01*
G36*
X103164439Y-90935919D02*
G01*
X103257761Y-91028096D01*
X103392239Y-91085467D01*
X103583291Y-91112879D01*
X103740296Y-91116945D01*
X103972930Y-91098579D01*
X104152681Y-91047810D01*
X104268030Y-90968714D01*
X104298036Y-90919604D01*
X104324125Y-90783570D01*
X104313061Y-90640989D01*
X104269222Y-90529548D01*
X104250172Y-90507675D01*
X104100336Y-90419366D01*
X103900776Y-90365070D01*
X103717973Y-90350653D01*
X103717973Y-90561667D01*
X103927396Y-90572312D01*
X104063801Y-90606903D01*
X104136450Y-90669419D01*
X104155000Y-90749515D01*
X104129359Y-90833238D01*
X104040154Y-90889419D01*
X104021683Y-90896192D01*
X103847134Y-90934319D01*
X103661225Y-90938828D01*
X103488620Y-90912918D01*
X103353985Y-90859786D01*
X103291173Y-90801469D01*
X103270937Y-90735474D01*
X103311948Y-90672400D01*
X103344773Y-90643681D01*
X103432012Y-90593642D01*
X103554216Y-90568180D01*
X103717973Y-90561667D01*
X103717973Y-90350653D01*
X103680516Y-90347698D01*
X103468579Y-90370158D01*
X103331180Y-90415540D01*
X103190657Y-90519722D01*
X103114539Y-90657473D01*
X103108985Y-90809574D01*
X103164439Y-90935919D01*
G37*
X103164439Y-90935919D02*
X103257761Y-91028096D01*
X103392239Y-91085467D01*
X103583291Y-91112879D01*
X103740296Y-91116945D01*
X103972930Y-91098579D01*
X104152681Y-91047810D01*
X104268030Y-90968714D01*
X104298036Y-90919604D01*
X104324125Y-90783570D01*
X104313061Y-90640989D01*
X104269222Y-90529548D01*
X104250172Y-90507675D01*
X104100336Y-90419366D01*
X103900776Y-90365070D01*
X103717973Y-90350653D01*
X103717973Y-90561667D01*
X103927396Y-90572312D01*
X104063801Y-90606903D01*
X104136450Y-90669419D01*
X104155000Y-90749515D01*
X104129359Y-90833238D01*
X104040154Y-90889419D01*
X104021683Y-90896192D01*
X103847134Y-90934319D01*
X103661225Y-90938828D01*
X103488620Y-90912918D01*
X103353985Y-90859786D01*
X103291173Y-90801469D01*
X103270937Y-90735474D01*
X103311948Y-90672400D01*
X103344773Y-90643681D01*
X103432012Y-90593642D01*
X103554216Y-90568180D01*
X103717973Y-90561667D01*
X103717973Y-90350653D01*
X103680516Y-90347698D01*
X103468579Y-90370158D01*
X103331180Y-90415540D01*
X103190657Y-90519722D01*
X103114539Y-90657473D01*
X103108985Y-90809574D01*
X103164439Y-90935919D01*
G36*
X103117322Y-89916084D02*
G01*
X103140838Y-90030217D01*
X103177174Y-90082573D01*
X103243377Y-90095932D01*
X103251956Y-90096000D01*
X103327330Y-90084821D01*
X103335669Y-90041064D01*
X103328585Y-90021917D01*
X103283288Y-89860580D01*
X103286355Y-89724870D01*
X103333344Y-89630774D01*
X103419811Y-89594281D01*
X103446959Y-89596015D01*
X103516224Y-89633098D01*
X103577306Y-89731670D01*
X103612518Y-89820834D01*
X103673026Y-89957736D01*
X103743159Y-90069441D01*
X103777780Y-90106584D01*
X103918951Y-90172866D01*
X104072143Y-90165268D01*
X104211327Y-90085544D01*
X104220424Y-90076758D01*
X104284988Y-89994802D01*
X104315065Y-89896946D01*
X104321002Y-89749439D01*
X104320991Y-89748674D01*
X104315255Y-89611440D01*
X104304246Y-89505975D01*
X104296297Y-89471584D01*
X104242342Y-89431318D01*
X104168110Y-89418667D01*
X104093525Y-89429702D01*
X104086224Y-89473236D01*
X104093822Y-89492750D01*
X104136466Y-89635368D01*
X104148488Y-89779990D01*
X104129835Y-89897391D01*
X104094683Y-89950741D01*
X103988975Y-89989919D01*
X103897634Y-89949393D01*
X103828645Y-89833886D01*
X103813212Y-89784231D01*
X103752283Y-89598838D01*
X103680695Y-89485017D01*
X103587055Y-89429673D01*
X103495074Y-89418667D01*
X103308172Y-89448494D01*
X103181774Y-89537314D01*
X103116636Y-89684133D01*
X103113512Y-89887958D01*
X103117322Y-89916084D01*
G37*
X103117322Y-89916084D02*
X103140838Y-90030217D01*
X103177174Y-90082573D01*
X103243377Y-90095932D01*
X103251956Y-90096000D01*
X103327330Y-90084821D01*
X103335669Y-90041064D01*
X103328585Y-90021917D01*
X103283288Y-89860580D01*
X103286355Y-89724870D01*
X103333344Y-89630774D01*
X103419811Y-89594281D01*
X103446959Y-89596015D01*
X103516224Y-89633098D01*
X103577306Y-89731670D01*
X103612518Y-89820834D01*
X103673026Y-89957736D01*
X103743159Y-90069441D01*
X103777780Y-90106584D01*
X103918951Y-90172866D01*
X104072143Y-90165268D01*
X104211327Y-90085544D01*
X104220424Y-90076758D01*
X104284988Y-89994802D01*
X104315065Y-89896946D01*
X104321002Y-89749439D01*
X104320991Y-89748674D01*
X104315255Y-89611440D01*
X104304246Y-89505975D01*
X104296297Y-89471584D01*
X104242342Y-89431318D01*
X104168110Y-89418667D01*
X104093525Y-89429702D01*
X104086224Y-89473236D01*
X104093822Y-89492750D01*
X104136466Y-89635368D01*
X104148488Y-89779990D01*
X104129835Y-89897391D01*
X104094683Y-89950741D01*
X103988975Y-89989919D01*
X103897634Y-89949393D01*
X103828645Y-89833886D01*
X103813212Y-89784231D01*
X103752283Y-89598838D01*
X103680695Y-89485017D01*
X103587055Y-89429673D01*
X103495074Y-89418667D01*
X103308172Y-89448494D01*
X103181774Y-89537314D01*
X103116636Y-89684133D01*
X103113512Y-89887958D01*
X103117322Y-89916084D01*
G36*
X103636417Y-88665907D02*
G01*
X104133833Y-88677834D01*
X104147475Y-88796810D01*
X104149939Y-88893783D01*
X104123254Y-88960951D01*
X104055393Y-89003600D01*
X103934332Y-89027015D01*
X103748044Y-89036482D01*
X103599483Y-89037667D01*
X103397024Y-89038661D01*
X103264509Y-89043449D01*
X103187222Y-89054735D01*
X103150448Y-89075226D01*
X103139471Y-89107627D01*
X103139000Y-89122334D01*
X103143984Y-89158074D01*
X103168290Y-89182042D01*
X103225948Y-89196577D01*
X103330990Y-89204016D01*
X103497444Y-89206699D01*
X103647000Y-89207000D01*
X103866515Y-89205573D01*
X104017972Y-89199713D01*
X104117950Y-89187050D01*
X104183034Y-89165217D01*
X104229804Y-89131844D01*
X104239667Y-89122334D01*
X104304220Y-89005629D01*
X104325981Y-88850316D01*
X104304712Y-88690980D01*
X104243462Y-88566174D01*
X104203544Y-88523723D01*
X104154103Y-88494612D01*
X104078702Y-88475651D01*
X103960900Y-88463650D01*
X103784260Y-88455422D01*
X103650795Y-88451192D01*
X103139000Y-88436082D01*
X103139000Y-88653980D01*
X103636417Y-88665907D01*
G37*
X103636417Y-88665907D02*
X104133833Y-88677834D01*
X104147475Y-88796810D01*
X104149939Y-88893783D01*
X104123254Y-88960951D01*
X104055393Y-89003600D01*
X103934332Y-89027015D01*
X103748044Y-89036482D01*
X103599483Y-89037667D01*
X103397024Y-89038661D01*
X103264509Y-89043449D01*
X103187222Y-89054735D01*
X103150448Y-89075226D01*
X103139471Y-89107627D01*
X103139000Y-89122334D01*
X103143984Y-89158074D01*
X103168290Y-89182042D01*
X103225948Y-89196577D01*
X103330990Y-89204016D01*
X103497444Y-89206699D01*
X103647000Y-89207000D01*
X103866515Y-89205573D01*
X104017972Y-89199713D01*
X104117950Y-89187050D01*
X104183034Y-89165217D01*
X104229804Y-89131844D01*
X104239667Y-89122334D01*
X104304220Y-89005629D01*
X104325981Y-88850316D01*
X104304712Y-88690980D01*
X104243462Y-88566174D01*
X104203544Y-88523723D01*
X104154103Y-88494612D01*
X104078702Y-88475651D01*
X103960900Y-88463650D01*
X103784260Y-88455422D01*
X103650795Y-88451192D01*
X103139000Y-88436082D01*
X103139000Y-88653980D01*
X103636417Y-88665907D01*
D15*
X116495000Y-78340000D02*
G75*
G03X116495000Y-78340000I-700000J0D01*
G01*
D10*
X116314000Y-86990000D02*
G75*
G03X116314000Y-86990000I-24000J0D01*
G01*
X115659000Y-87927000D02*
X114259000Y-87927000D01*
X114259000Y-86727000D02*
X115659000Y-86727000D01*
D15*
X128844000Y-103629000D02*
X128844000Y-102429000D01*
X129844000Y-102329000D02*
X130044000Y-102329000D01*
X129844000Y-103729000D02*
X130044000Y-103729000D01*
D10*
X136482203Y-89396800D02*
G75*
G03X136482203Y-89396800I-111803J0D01*
G01*
D16*
X137220400Y-88096800D02*
X137220400Y-82996800D01*
X131120400Y-82996800D02*
X131120400Y-88096800D01*
D17*
X101665000Y-82595000D02*
X102565000Y-82595000D01*
X105665000Y-82595000D02*
X104810000Y-82595000D01*
X104432000Y-86845000D02*
X102943000Y-86845000D01*
X101665000Y-82595000D02*
X101665000Y-84942000D01*
X105665000Y-82595000D02*
X105665000Y-84808000D01*
D16*
X118079500Y-117769240D02*
X118079500Y-115351160D01*
X120916680Y-116758320D02*
X120916680Y-116362080D01*
X122118100Y-117769240D02*
X122118100Y-115351160D01*
X118079500Y-117769240D02*
X122118100Y-117769240D01*
X118079500Y-115351160D02*
X122118100Y-115351160D01*
D18*
X118632740Y-114916820D02*
G75*
G03X118632740Y-114916820I-154460J0D01*
G01*
D16*
X118312994Y-116372752D02*
G75*
G03X118313180Y-116748160I515806J-187448D01*
G01*
X119346552Y-116749281D02*
G75*
G03X119346960Y-116372240I-517752J189081D01*
G01*
X121121065Y-116369698D02*
G75*
G03X121119880Y-116748160I405215J-190502D01*
G01*
X121933128Y-116752648D02*
G75*
G03X121935220Y-116372240I-406848J192448D01*
G01*
D15*
X134865000Y-111410000D02*
G75*
G03X134865000Y-111410000I-700000J0D01*
G01*
X140941000Y-84226000D02*
G75*
G03X140941000Y-84226000I-700000J0D01*
G01*
X140941000Y-86766000D02*
G75*
G03X140941000Y-86766000I-700000J0D01*
G01*
X127733000Y-86512000D02*
G75*
G03X127733000Y-86512000I-700000J0D01*
G01*
X125193000Y-86512000D02*
G75*
G03X125193000Y-86512000I-700000J0D01*
G01*
X109241800Y-84353000D02*
G75*
G03X109241800Y-84353000I-700000J0D01*
G01*
X122653000Y-86512000D02*
G75*
G03X122653000Y-86512000I-700000J0D01*
G01*
X140941000Y-89306000D02*
G75*
G03X140941000Y-89306000I-700000J0D01*
G01*
X131898600Y-111440578D02*
G75*
G03X131898600Y-111440578I-700000J0D01*
G01*
X139315000Y-90480000D02*
G75*
G03X139315000Y-90480000I-700000J0D01*
G01*
X114059000Y-83217000D02*
X116509000Y-83217000D01*
X115859000Y-86437000D02*
X114059000Y-86437000D01*
D11*
X136650400Y-106325400D02*
X137050400Y-106325400D01*
X136650400Y-105925400D02*
X136650400Y-106325400D01*
X136650400Y-103325400D02*
X137050400Y-103325400D01*
X136650400Y-103725400D02*
X136650400Y-103325400D01*
X140450400Y-106325400D02*
X140450400Y-105925400D01*
X140050400Y-106325400D02*
X140450400Y-106325400D01*
X140450400Y-103325400D02*
X140450400Y-103725400D01*
X140050400Y-103325400D02*
X140450400Y-103325400D01*
D15*
X119796000Y-84917000D02*
X121256000Y-84917000D01*
X119796000Y-81757000D02*
X121956000Y-81757000D01*
X119796000Y-81757000D02*
X119796000Y-82687000D01*
X119796000Y-84917000D02*
X119796000Y-83987000D01*
X125820000Y-106190000D02*
X125820000Y-107650000D01*
X128980000Y-106190000D02*
X128980000Y-108350000D01*
X128980000Y-106190000D02*
X128050000Y-106190000D01*
X125820000Y-106190000D02*
X126750000Y-106190000D01*
X110711000Y-83820000D02*
X110711000Y-84320000D01*
X109771000Y-84320000D02*
X109771000Y-83820000D01*
X113179800Y-111848200D02*
X112679800Y-111848200D01*
X112679800Y-110908200D02*
X113179800Y-110908200D01*
X113179800Y-109848200D02*
X112679800Y-109848200D01*
X112679800Y-108908200D02*
X113179800Y-108908200D01*
X123481000Y-117538000D02*
X123981000Y-117538000D01*
X123981000Y-118478000D02*
X123481000Y-118478000D01*
X116779278Y-117358676D02*
X116279278Y-117358676D01*
X116279278Y-116418676D02*
X116779278Y-116418676D01*
X112659800Y-112328200D02*
X113159800Y-112328200D01*
X113159800Y-113268200D02*
X112659800Y-113268200D01*
X112679800Y-109908200D02*
X113179800Y-109908200D01*
X113179800Y-110848200D02*
X112679800Y-110848200D01*
X112711000Y-83820000D02*
X112711000Y-84320000D01*
X111771000Y-84320000D02*
X111771000Y-83820000D01*
X111880000Y-81511000D02*
X111380000Y-81511000D01*
X111380000Y-80571000D02*
X111880000Y-80571000D01*
X129814400Y-104716400D02*
X129814400Y-105216400D01*
X128874400Y-105216400D02*
X128874400Y-104716400D01*
X111880000Y-77511000D02*
X111380000Y-77511000D01*
X111380000Y-76571000D02*
X111880000Y-76571000D01*
X118105000Y-84077000D02*
X118105000Y-84577000D01*
X117165000Y-84577000D02*
X117165000Y-84077000D01*
X131008200Y-104716400D02*
X131008200Y-105216400D01*
X130068200Y-105216400D02*
X130068200Y-104716400D01*
X111711000Y-83820000D02*
X111711000Y-84320000D01*
X110771000Y-84320000D02*
X110771000Y-83820000D01*
X117959800Y-107628200D02*
X117959800Y-108128200D01*
X116899800Y-108128200D02*
X116899800Y-107628200D01*
X119679800Y-110408200D02*
X119179800Y-110408200D01*
X119179800Y-109348200D02*
X119679800Y-109348200D01*
X119679800Y-109408200D02*
X119179800Y-109408200D01*
X119179800Y-108348200D02*
X119679800Y-108348200D01*
X141177400Y-108545000D02*
X141177400Y-109045000D01*
X140117400Y-109045000D02*
X140117400Y-108545000D01*
X137552000Y-111585000D02*
X137552000Y-111085000D01*
X138612000Y-111085000D02*
X138612000Y-111585000D01*
X116279278Y-117628676D02*
X116779278Y-117628676D01*
X116779278Y-118688676D02*
X116279278Y-118688676D01*
X132617600Y-109020400D02*
X132617600Y-109520400D01*
X131557600Y-109520400D02*
X131557600Y-109020400D01*
X133887600Y-109020400D02*
X133887600Y-109520400D01*
X132827600Y-109520400D02*
X132827600Y-109020400D01*
X111705000Y-114030000D02*
X112205000Y-114030000D01*
X112205000Y-115090000D02*
X111705000Y-115090000D01*
X127350000Y-109955000D02*
X126850000Y-109955000D01*
X126850000Y-108895000D02*
X127350000Y-108895000D01*
X134035000Y-114030000D02*
X134535000Y-114030000D01*
X134535000Y-115090000D02*
X134035000Y-115090000D01*
X113700000Y-76520000D02*
X114200000Y-76520000D01*
X114200000Y-77580000D02*
X113700000Y-77580000D01*
X125608920Y-104595340D02*
X125608920Y-104095340D01*
X126668920Y-104095340D02*
X126668920Y-104595340D01*
X108880000Y-76511000D02*
X109380000Y-76511000D01*
X109380000Y-77571000D02*
X108880000Y-77571000D01*
X109380000Y-81571000D02*
X108880000Y-81571000D01*
X108880000Y-80511000D02*
X109380000Y-80511000D01*
X119679800Y-111408200D02*
X119179800Y-111408200D01*
X119179800Y-110348200D02*
X119679800Y-110348200D01*
D19*
X115234800Y-109373200D02*
G75*
G03X115234800Y-109373200I-80000J0D01*
G01*
D11*
X115354800Y-109628200D02*
X114929800Y-109628200D01*
D20*
X114929800Y-109628200D02*
X114954800Y-109623200D01*
D10*
X136950000Y-102350000D02*
G75*
G03X136950000Y-102350000I-100000J0D01*
G01*
D12*
X136800000Y-101950000D02*
X126500000Y-101950000D01*
X126500000Y-91750000D02*
X136800000Y-91750000D01*
X126500000Y-91750000D02*
X126500000Y-101950000D01*
D21*
X112655000Y-77641000D02*
G75*
G03X112655000Y-77641000I-125000J0D01*
G01*
D11*
X122743700Y-104989440D02*
X123493700Y-104989440D01*
X123493700Y-104989440D02*
X123493700Y-103489440D01*
X122743700Y-89964440D02*
X123493700Y-89989440D01*
X123493700Y-89989440D02*
X123493700Y-91489440D01*
X120993700Y-104989440D02*
X118943700Y-104989440D01*
X118943700Y-104989440D02*
X118943700Y-89989440D01*
X118943700Y-89989440D02*
X120993700Y-89989440D01*
X124393700Y-102789440D02*
X124393700Y-102789440D01*
X124393700Y-102689440D02*
X124393700Y-102689440D01*
X124393700Y-102689440D02*
G75*
G02X124393700Y-102789440I0J-50000D01*
G01*
X124393700Y-102789440D02*
G75*
G02X124393700Y-102689440I0J50000D01*
G01*
D15*
X123920956Y-113401819D02*
X124438112Y-113401819D01*
X123920956Y-114821819D02*
X124438112Y-114821819D01*
X123920956Y-116980819D02*
X124438112Y-116980819D01*
X123920956Y-115560819D02*
X124438112Y-115560819D01*
X124454000Y-84850000D02*
X124454000Y-82300000D01*
X122754000Y-84850000D02*
X122754000Y-82300000D01*
X124454000Y-84850000D02*
X122754000Y-84850000D01*
X120375000Y-80987500D02*
X120375000Y-80537500D01*
X120375000Y-80987500D02*
X120825000Y-80987500D01*
X125975000Y-80437500D02*
X125525000Y-80437500D01*
X125975000Y-78587500D02*
X125975000Y-80437500D01*
X118175000Y-76037500D02*
X118175000Y-76287500D01*
X125975000Y-76037500D02*
X125975000Y-76287500D01*
X118175000Y-78587500D02*
X118175000Y-80437500D01*
X118175000Y-80437500D02*
X118625000Y-80437500D01*
X107605000Y-78025000D02*
X107605000Y-78525000D01*
X106545000Y-78525000D02*
X106545000Y-78025000D01*
X134535000Y-76530000D02*
X135035000Y-76530000D01*
X135035000Y-77590000D02*
X134535000Y-77590000D01*
D22*
X102039000Y-104742714D02*
X102039000Y-105287000D01*
X102075285Y-105395857D01*
X102147857Y-105468428D01*
X102256714Y-105504714D01*
X102329285Y-105504714D01*
X101748714Y-104742714D02*
X101277000Y-104742714D01*
X101531000Y-105033000D01*
X101422142Y-105033000D01*
X101349571Y-105069285D01*
X101313285Y-105105571D01*
X101277000Y-105178142D01*
X101277000Y-105359571D01*
X101313285Y-105432142D01*
X101349571Y-105468428D01*
X101422142Y-105504714D01*
X101639857Y-105504714D01*
X101712428Y-105468428D01*
X101748714Y-105432142D01*
X115987714Y-79275571D02*
X115987714Y-79711000D01*
X116749714Y-79493285D02*
X115987714Y-79493285D01*
X116749714Y-79965000D02*
X115987714Y-79965000D01*
X115987714Y-80255285D01*
X116024000Y-80327857D01*
X116060285Y-80364142D01*
X116132857Y-80400428D01*
X116241714Y-80400428D01*
X116314285Y-80364142D01*
X116350571Y-80327857D01*
X116386857Y-80255285D01*
X116386857Y-79965000D01*
X116749714Y-81126142D02*
X116749714Y-80690714D01*
X116749714Y-80908428D02*
X115987714Y-80908428D01*
X116096571Y-80835857D01*
X116169142Y-80763285D01*
X116205428Y-80690714D01*
X115987714Y-81597857D02*
X115987714Y-81670428D01*
X116024000Y-81743000D01*
X116060285Y-81779285D01*
X116132857Y-81815571D01*
X116278000Y-81851857D01*
X116459428Y-81851857D01*
X116604571Y-81815571D01*
X116677142Y-81779285D01*
X116713428Y-81743000D01*
X116749714Y-81670428D01*
X116749714Y-81597857D01*
X116713428Y-81525285D01*
X116677142Y-81489000D01*
X116604571Y-81452714D01*
X116459428Y-81416428D01*
X116278000Y-81416428D01*
X116132857Y-81452714D01*
X116060285Y-81489000D01*
X116024000Y-81525285D01*
X115987714Y-81597857D01*
X115848857Y-89024714D02*
X115848857Y-88262714D01*
X115050571Y-88952142D02*
X115086857Y-88988428D01*
X115195714Y-89024714D01*
X115268285Y-89024714D01*
X115377142Y-88988428D01*
X115449714Y-88915857D01*
X115486000Y-88843285D01*
X115522285Y-88698142D01*
X115522285Y-88589285D01*
X115486000Y-88444142D01*
X115449714Y-88371571D01*
X115377142Y-88299000D01*
X115268285Y-88262714D01*
X115195714Y-88262714D01*
X115086857Y-88299000D01*
X115050571Y-88335285D01*
X114760285Y-88335285D02*
X114724000Y-88299000D01*
X114651428Y-88262714D01*
X114470000Y-88262714D01*
X114397428Y-88299000D01*
X114361142Y-88335285D01*
X114324857Y-88407857D01*
X114324857Y-88480428D01*
X114361142Y-88589285D01*
X114796571Y-89024714D01*
X114324857Y-89024714D01*
X132247257Y-103063857D02*
X132247257Y-103426714D01*
X132501257Y-102664714D02*
X132247257Y-103063857D01*
X131993257Y-102664714D01*
X131340114Y-103426714D02*
X131775542Y-103426714D01*
X131557828Y-103426714D02*
X131557828Y-102664714D01*
X131630400Y-102773571D01*
X131702971Y-102846142D01*
X131775542Y-102882428D01*
X130555571Y-85352714D02*
X130555571Y-85969571D01*
X130519285Y-86042142D01*
X130483000Y-86078428D01*
X130410428Y-86114714D01*
X130265285Y-86114714D01*
X130192714Y-86078428D01*
X130156428Y-86042142D01*
X130120142Y-85969571D01*
X130120142Y-85352714D01*
X129358142Y-86114714D02*
X129793571Y-86114714D01*
X129575857Y-86114714D02*
X129575857Y-85352714D01*
X129648428Y-85461571D01*
X129721000Y-85534142D01*
X129793571Y-85570428D01*
X100247714Y-83491000D02*
X100792000Y-83491000D01*
X100900857Y-83454714D01*
X100973428Y-83382142D01*
X101009714Y-83273285D01*
X101009714Y-83200714D01*
X100320285Y-83817571D02*
X100284000Y-83853857D01*
X100247714Y-83926428D01*
X100247714Y-84107857D01*
X100284000Y-84180428D01*
X100320285Y-84216714D01*
X100392857Y-84253000D01*
X100465428Y-84253000D01*
X100574285Y-84216714D01*
X101009714Y-83781285D01*
X101009714Y-84253000D01*
X135126571Y-112440714D02*
X134691142Y-112440714D01*
X134908857Y-113202714D02*
X134908857Y-112440714D01*
X134437142Y-113202714D02*
X134437142Y-112440714D01*
X134146857Y-112440714D01*
X134074285Y-112477000D01*
X134038000Y-112513285D01*
X134001714Y-112585857D01*
X134001714Y-112694714D01*
X134038000Y-112767285D01*
X134074285Y-112803571D01*
X134146857Y-112839857D01*
X134437142Y-112839857D01*
X133312285Y-112440714D02*
X133675142Y-112440714D01*
X133711428Y-112803571D01*
X133675142Y-112767285D01*
X133602571Y-112731000D01*
X133421142Y-112731000D01*
X133348571Y-112767285D01*
X133312285Y-112803571D01*
X133276000Y-112876142D01*
X133276000Y-113057571D01*
X133312285Y-113130142D01*
X133348571Y-113166428D01*
X133421142Y-113202714D01*
X133602571Y-113202714D01*
X133675142Y-113166428D01*
X133711428Y-113130142D01*
X139678571Y-82792714D02*
X139243142Y-82792714D01*
X139460857Y-83554714D02*
X139460857Y-82792714D01*
X138989142Y-83554714D02*
X138989142Y-82792714D01*
X138698857Y-82792714D01*
X138626285Y-82829000D01*
X138590000Y-82865285D01*
X138553714Y-82937857D01*
X138553714Y-83046714D01*
X138590000Y-83119285D01*
X138626285Y-83155571D01*
X138698857Y-83191857D01*
X138989142Y-83191857D01*
X137828000Y-83554714D02*
X138263428Y-83554714D01*
X138045714Y-83554714D02*
X138045714Y-82792714D01*
X138118285Y-82901571D01*
X138190857Y-82974142D01*
X138263428Y-83010428D01*
X139678571Y-85332714D02*
X139243142Y-85332714D01*
X139460857Y-86094714D02*
X139460857Y-85332714D01*
X138989142Y-86094714D02*
X138989142Y-85332714D01*
X138698857Y-85332714D01*
X138626285Y-85369000D01*
X138590000Y-85405285D01*
X138553714Y-85477857D01*
X138553714Y-85586714D01*
X138590000Y-85659285D01*
X138626285Y-85695571D01*
X138698857Y-85731857D01*
X138989142Y-85731857D01*
X138263428Y-85405285D02*
X138227142Y-85369000D01*
X138154571Y-85332714D01*
X137973142Y-85332714D01*
X137900571Y-85369000D01*
X137864285Y-85405285D01*
X137828000Y-85477857D01*
X137828000Y-85550428D01*
X137864285Y-85659285D01*
X138299714Y-86094714D01*
X137828000Y-86094714D01*
X125632734Y-87176028D02*
X125632734Y-87611457D01*
X126394734Y-87393742D02*
X125632734Y-87393742D01*
X126394734Y-87865457D02*
X125632734Y-87865457D01*
X125632734Y-88155742D01*
X125669020Y-88228314D01*
X125705305Y-88264600D01*
X125777877Y-88300885D01*
X125886734Y-88300885D01*
X125959305Y-88264600D01*
X125995591Y-88228314D01*
X126031877Y-88155742D01*
X126031877Y-87865457D01*
X125632734Y-88554885D02*
X125632734Y-89026600D01*
X125923020Y-88772600D01*
X125923020Y-88881457D01*
X125959305Y-88954028D01*
X125995591Y-88990314D01*
X126068162Y-89026600D01*
X126249591Y-89026600D01*
X126322162Y-88990314D01*
X126358448Y-88954028D01*
X126394734Y-88881457D01*
X126394734Y-88663742D01*
X126358448Y-88591171D01*
X126322162Y-88554885D01*
X122930174Y-87005848D02*
X122930174Y-87441277D01*
X123692174Y-87223562D02*
X122930174Y-87223562D01*
X123692174Y-87695277D02*
X122930174Y-87695277D01*
X122930174Y-87985562D01*
X122966460Y-88058134D01*
X123002745Y-88094420D01*
X123075317Y-88130705D01*
X123184174Y-88130705D01*
X123256745Y-88094420D01*
X123293031Y-88058134D01*
X123329317Y-87985562D01*
X123329317Y-87695277D01*
X123184174Y-88783848D02*
X123692174Y-88783848D01*
X122893888Y-88602420D02*
X123438174Y-88420991D01*
X123438174Y-88892705D01*
X109286571Y-85532714D02*
X108851142Y-85532714D01*
X109068857Y-86294714D02*
X109068857Y-85532714D01*
X108597142Y-86294714D02*
X108597142Y-85532714D01*
X108306857Y-85532714D01*
X108234285Y-85569000D01*
X108198000Y-85605285D01*
X108161714Y-85677857D01*
X108161714Y-85786714D01*
X108198000Y-85859285D01*
X108234285Y-85895571D01*
X108306857Y-85931857D01*
X108597142Y-85931857D01*
X107907714Y-85532714D02*
X107399714Y-85532714D01*
X107726285Y-86294714D01*
X120336834Y-86911868D02*
X120336834Y-87347297D01*
X121098834Y-87129582D02*
X120336834Y-87129582D01*
X121098834Y-87601297D02*
X120336834Y-87601297D01*
X120336834Y-87891582D01*
X120373120Y-87964154D01*
X120409405Y-88000440D01*
X120481977Y-88036725D01*
X120590834Y-88036725D01*
X120663405Y-88000440D01*
X120699691Y-87964154D01*
X120735977Y-87891582D01*
X120735977Y-87601297D01*
X120663405Y-88472154D02*
X120627120Y-88399582D01*
X120590834Y-88363297D01*
X120518262Y-88327011D01*
X120481977Y-88327011D01*
X120409405Y-88363297D01*
X120373120Y-88399582D01*
X120336834Y-88472154D01*
X120336834Y-88617297D01*
X120373120Y-88689868D01*
X120409405Y-88726154D01*
X120481977Y-88762440D01*
X120518262Y-88762440D01*
X120590834Y-88726154D01*
X120627120Y-88689868D01*
X120663405Y-88617297D01*
X120663405Y-88472154D01*
X120699691Y-88399582D01*
X120735977Y-88363297D01*
X120808548Y-88327011D01*
X120953691Y-88327011D01*
X121026262Y-88363297D01*
X121062548Y-88399582D01*
X121098834Y-88472154D01*
X121098834Y-88617297D01*
X121062548Y-88689868D01*
X121026262Y-88726154D01*
X120953691Y-88762440D01*
X120808548Y-88762440D01*
X120735977Y-88726154D01*
X120699691Y-88689868D01*
X120663405Y-88617297D01*
X139678571Y-87618714D02*
X139243142Y-87618714D01*
X139460857Y-88380714D02*
X139460857Y-87618714D01*
X138989142Y-88380714D02*
X138989142Y-87618714D01*
X138698857Y-87618714D01*
X138626285Y-87655000D01*
X138590000Y-87691285D01*
X138553714Y-87763857D01*
X138553714Y-87872714D01*
X138590000Y-87945285D01*
X138626285Y-87981571D01*
X138698857Y-88017857D01*
X138989142Y-88017857D01*
X138190857Y-88380714D02*
X138045714Y-88380714D01*
X137973142Y-88344428D01*
X137936857Y-88308142D01*
X137864285Y-88199285D01*
X137828000Y-88054142D01*
X137828000Y-87763857D01*
X137864285Y-87691285D01*
X137900571Y-87655000D01*
X137973142Y-87618714D01*
X138118285Y-87618714D01*
X138190857Y-87655000D01*
X138227142Y-87691285D01*
X138263428Y-87763857D01*
X138263428Y-87945285D01*
X138227142Y-88017857D01*
X138190857Y-88054142D01*
X138118285Y-88090428D01*
X137973142Y-88090428D01*
X137900571Y-88054142D01*
X137864285Y-88017857D01*
X137828000Y-87945285D01*
X132160171Y-112471292D02*
X131724742Y-112471292D01*
X131942457Y-113233292D02*
X131942457Y-112471292D01*
X131470742Y-113233292D02*
X131470742Y-112471292D01*
X131180457Y-112471292D01*
X131107885Y-112507578D01*
X131071600Y-112543863D01*
X131035314Y-112616435D01*
X131035314Y-112725292D01*
X131071600Y-112797863D01*
X131107885Y-112834149D01*
X131180457Y-112870435D01*
X131470742Y-112870435D01*
X130382171Y-112471292D02*
X130527314Y-112471292D01*
X130599885Y-112507578D01*
X130636171Y-112543863D01*
X130708742Y-112652720D01*
X130745028Y-112797863D01*
X130745028Y-113088149D01*
X130708742Y-113160720D01*
X130672457Y-113197006D01*
X130599885Y-113233292D01*
X130454742Y-113233292D01*
X130382171Y-113197006D01*
X130345885Y-113160720D01*
X130309600Y-113088149D01*
X130309600Y-112906720D01*
X130345885Y-112834149D01*
X130382171Y-112797863D01*
X130454742Y-112761578D01*
X130599885Y-112761578D01*
X130672457Y-112797863D01*
X130708742Y-112834149D01*
X130745028Y-112906720D01*
X137619428Y-90102714D02*
X137184000Y-90102714D01*
X137401714Y-90864714D02*
X137401714Y-90102714D01*
X136930000Y-90864714D02*
X136930000Y-90102714D01*
X136639714Y-90102714D01*
X136567142Y-90139000D01*
X136530857Y-90175285D01*
X136494571Y-90247857D01*
X136494571Y-90356714D01*
X136530857Y-90429285D01*
X136567142Y-90465571D01*
X136639714Y-90501857D01*
X136930000Y-90501857D01*
X135768857Y-90864714D02*
X136204285Y-90864714D01*
X135986571Y-90864714D02*
X135986571Y-90102714D01*
X136059142Y-90211571D01*
X136131714Y-90284142D01*
X136204285Y-90320428D01*
X135043142Y-90864714D02*
X135478571Y-90864714D01*
X135260857Y-90864714D02*
X135260857Y-90102714D01*
X135333428Y-90211571D01*
X135406000Y-90284142D01*
X135478571Y-90320428D01*
X115548571Y-82094214D02*
X115548571Y-82711071D01*
X115512285Y-82783642D01*
X115476000Y-82819928D01*
X115403428Y-82856214D01*
X115258285Y-82856214D01*
X115185714Y-82819928D01*
X115149428Y-82783642D01*
X115113142Y-82711071D01*
X115113142Y-82094214D01*
X114786571Y-82166785D02*
X114750285Y-82130500D01*
X114677714Y-82094214D01*
X114496285Y-82094214D01*
X114423714Y-82130500D01*
X114387428Y-82166785D01*
X114351142Y-82239357D01*
X114351142Y-82311928D01*
X114387428Y-82420785D01*
X114822857Y-82856214D01*
X114351142Y-82856214D01*
X135825114Y-103646114D02*
X135063114Y-103646114D01*
X135607400Y-103900114D01*
X135063114Y-104154114D01*
X135825114Y-104154114D01*
X135825114Y-104516971D02*
X135063114Y-104516971D01*
X135752542Y-105315257D02*
X135788828Y-105278971D01*
X135825114Y-105170114D01*
X135825114Y-105097542D01*
X135788828Y-104988685D01*
X135716257Y-104916114D01*
X135643685Y-104879828D01*
X135498542Y-104843542D01*
X135389685Y-104843542D01*
X135244542Y-104879828D01*
X135171971Y-104916114D01*
X135099400Y-104988685D01*
X135063114Y-105097542D01*
X135063114Y-105170114D01*
X135099400Y-105278971D01*
X135135685Y-105315257D01*
X135825114Y-106040971D02*
X135825114Y-105605542D01*
X135825114Y-105823257D02*
X135063114Y-105823257D01*
X135171971Y-105750685D01*
X135244542Y-105678114D01*
X135280828Y-105605542D01*
X119752285Y-85767428D02*
X119716000Y-85694857D01*
X119643428Y-85622285D01*
X119534571Y-85513428D01*
X119498285Y-85440857D01*
X119498285Y-85368285D01*
X119679714Y-85404571D02*
X119643428Y-85332000D01*
X119570857Y-85259428D01*
X119425714Y-85223142D01*
X119171714Y-85223142D01*
X119026571Y-85259428D01*
X118954000Y-85332000D01*
X118917714Y-85404571D01*
X118917714Y-85549714D01*
X118954000Y-85622285D01*
X119026571Y-85694857D01*
X119171714Y-85731142D01*
X119425714Y-85731142D01*
X119570857Y-85694857D01*
X119643428Y-85622285D01*
X119679714Y-85549714D01*
X119679714Y-85404571D01*
X119679714Y-86456857D02*
X119679714Y-86021428D01*
X119679714Y-86239142D02*
X118917714Y-86239142D01*
X119026571Y-86166571D01*
X119099142Y-86094000D01*
X119135428Y-86021428D01*
X124842571Y-107547285D02*
X124915142Y-107511000D01*
X124987714Y-107438428D01*
X125096571Y-107329571D01*
X125169142Y-107293285D01*
X125241714Y-107293285D01*
X125205428Y-107474714D02*
X125278000Y-107438428D01*
X125350571Y-107365857D01*
X125386857Y-107220714D01*
X125386857Y-106966714D01*
X125350571Y-106821571D01*
X125278000Y-106749000D01*
X125205428Y-106712714D01*
X125060285Y-106712714D01*
X124987714Y-106749000D01*
X124915142Y-106821571D01*
X124878857Y-106966714D01*
X124878857Y-107220714D01*
X124915142Y-107365857D01*
X124987714Y-107438428D01*
X125060285Y-107474714D01*
X125205428Y-107474714D01*
X124588571Y-106785285D02*
X124552285Y-106749000D01*
X124479714Y-106712714D01*
X124298285Y-106712714D01*
X124225714Y-106749000D01*
X124189428Y-106785285D01*
X124153142Y-106857857D01*
X124153142Y-106930428D01*
X124189428Y-107039285D01*
X124624857Y-107474714D01*
X124153142Y-107474714D01*
X110501142Y-85637000D02*
X110537428Y-85600714D01*
X110573714Y-85491857D01*
X110573714Y-85419285D01*
X110537428Y-85310428D01*
X110464857Y-85237857D01*
X110392285Y-85201571D01*
X110247142Y-85165285D01*
X110138285Y-85165285D01*
X109993142Y-85201571D01*
X109920571Y-85237857D01*
X109848000Y-85310428D01*
X109811714Y-85419285D01*
X109811714Y-85491857D01*
X109848000Y-85600714D01*
X109884285Y-85637000D01*
X110138285Y-86072428D02*
X110102000Y-85999857D01*
X110065714Y-85963571D01*
X109993142Y-85927285D01*
X109956857Y-85927285D01*
X109884285Y-85963571D01*
X109848000Y-85999857D01*
X109811714Y-86072428D01*
X109811714Y-86217571D01*
X109848000Y-86290142D01*
X109884285Y-86326428D01*
X109956857Y-86362714D01*
X109993142Y-86362714D01*
X110065714Y-86326428D01*
X110102000Y-86290142D01*
X110138285Y-86217571D01*
X110138285Y-86072428D01*
X110174571Y-85999857D01*
X110210857Y-85963571D01*
X110283428Y-85927285D01*
X110428571Y-85927285D01*
X110501142Y-85963571D01*
X110537428Y-85999857D01*
X110573714Y-86072428D01*
X110573714Y-86217571D01*
X110537428Y-86290142D01*
X110501142Y-86326428D01*
X110428571Y-86362714D01*
X110283428Y-86362714D01*
X110210857Y-86326428D01*
X110174571Y-86290142D01*
X110138285Y-86217571D01*
X110919657Y-111650342D02*
X110955942Y-111686628D01*
X111064800Y-111722914D01*
X111137371Y-111722914D01*
X111246228Y-111686628D01*
X111318800Y-111614057D01*
X111355085Y-111541485D01*
X111391371Y-111396342D01*
X111391371Y-111287485D01*
X111355085Y-111142342D01*
X111318800Y-111069771D01*
X111246228Y-110997200D01*
X111137371Y-110960914D01*
X111064800Y-110960914D01*
X110955942Y-110997200D01*
X110919657Y-111033485D01*
X110193942Y-111722914D02*
X110629371Y-111722914D01*
X110411657Y-111722914D02*
X110411657Y-110960914D01*
X110484228Y-111069771D01*
X110556800Y-111142342D01*
X110629371Y-111178628D01*
X109540800Y-110960914D02*
X109685942Y-110960914D01*
X109758514Y-110997200D01*
X109794800Y-111033485D01*
X109867371Y-111142342D01*
X109903657Y-111287485D01*
X109903657Y-111577771D01*
X109867371Y-111650342D01*
X109831085Y-111686628D01*
X109758514Y-111722914D01*
X109613371Y-111722914D01*
X109540800Y-111686628D01*
X109504514Y-111650342D01*
X109468228Y-111577771D01*
X109468228Y-111396342D01*
X109504514Y-111323771D01*
X109540800Y-111287485D01*
X109613371Y-111251200D01*
X109758514Y-111251200D01*
X109831085Y-111287485D01*
X109867371Y-111323771D01*
X109903657Y-111396342D01*
X110919657Y-109650342D02*
X110955942Y-109686628D01*
X111064800Y-109722914D01*
X111137371Y-109722914D01*
X111246228Y-109686628D01*
X111318800Y-109614057D01*
X111355085Y-109541485D01*
X111391371Y-109396342D01*
X111391371Y-109287485D01*
X111355085Y-109142342D01*
X111318800Y-109069771D01*
X111246228Y-108997200D01*
X111137371Y-108960914D01*
X111064800Y-108960914D01*
X110955942Y-108997200D01*
X110919657Y-109033485D01*
X110193942Y-109722914D02*
X110629371Y-109722914D01*
X110411657Y-109722914D02*
X110411657Y-108960914D01*
X110484228Y-109069771D01*
X110556800Y-109142342D01*
X110629371Y-109178628D01*
X109504514Y-108960914D02*
X109867371Y-108960914D01*
X109903657Y-109323771D01*
X109867371Y-109287485D01*
X109794800Y-109251200D01*
X109613371Y-109251200D01*
X109540800Y-109287485D01*
X109504514Y-109323771D01*
X109468228Y-109396342D01*
X109468228Y-109577771D01*
X109504514Y-109650342D01*
X109540800Y-109686628D01*
X109613371Y-109722914D01*
X109794800Y-109722914D01*
X109867371Y-109686628D01*
X109903657Y-109650342D01*
X126760857Y-118280142D02*
X126797142Y-118316428D01*
X126906000Y-118352714D01*
X126978571Y-118352714D01*
X127087428Y-118316428D01*
X127160000Y-118243857D01*
X127196285Y-118171285D01*
X127232571Y-118026142D01*
X127232571Y-117917285D01*
X127196285Y-117772142D01*
X127160000Y-117699571D01*
X127087428Y-117627000D01*
X126978571Y-117590714D01*
X126906000Y-117590714D01*
X126797142Y-117627000D01*
X126760857Y-117663285D01*
X126035142Y-118352714D02*
X126470571Y-118352714D01*
X126252857Y-118352714D02*
X126252857Y-117590714D01*
X126325428Y-117699571D01*
X126398000Y-117772142D01*
X126470571Y-117808428D01*
X125382000Y-117844714D02*
X125382000Y-118352714D01*
X125563428Y-117554428D02*
X125744857Y-118098714D01*
X125273142Y-118098714D01*
X114772057Y-117160818D02*
X114808342Y-117197104D01*
X114917200Y-117233390D01*
X114989771Y-117233390D01*
X115098628Y-117197104D01*
X115171200Y-117124533D01*
X115207485Y-117051961D01*
X115243771Y-116906818D01*
X115243771Y-116797961D01*
X115207485Y-116652818D01*
X115171200Y-116580247D01*
X115098628Y-116507676D01*
X114989771Y-116471390D01*
X114917200Y-116471390D01*
X114808342Y-116507676D01*
X114772057Y-116543961D01*
X114046342Y-117233390D02*
X114481771Y-117233390D01*
X114264057Y-117233390D02*
X114264057Y-116471390D01*
X114336628Y-116580247D01*
X114409200Y-116652818D01*
X114481771Y-116689104D01*
X113792342Y-116471390D02*
X113320628Y-116471390D01*
X113574628Y-116761676D01*
X113465771Y-116761676D01*
X113393200Y-116797961D01*
X113356914Y-116834247D01*
X113320628Y-116906818D01*
X113320628Y-117088247D01*
X113356914Y-117160818D01*
X113393200Y-117197104D01*
X113465771Y-117233390D01*
X113683485Y-117233390D01*
X113756057Y-117197104D01*
X113792342Y-117160818D01*
X110899657Y-113070342D02*
X110935942Y-113106628D01*
X111044800Y-113142914D01*
X111117371Y-113142914D01*
X111226228Y-113106628D01*
X111298800Y-113034057D01*
X111335085Y-112961485D01*
X111371371Y-112816342D01*
X111371371Y-112707485D01*
X111335085Y-112562342D01*
X111298800Y-112489771D01*
X111226228Y-112417200D01*
X111117371Y-112380914D01*
X111044800Y-112380914D01*
X110935942Y-112417200D01*
X110899657Y-112453485D01*
X110173942Y-113142914D02*
X110609371Y-113142914D01*
X110391657Y-113142914D02*
X110391657Y-112380914D01*
X110464228Y-112489771D01*
X110536800Y-112562342D01*
X110609371Y-112598628D01*
X109702228Y-112380914D02*
X109629657Y-112380914D01*
X109557085Y-112417200D01*
X109520800Y-112453485D01*
X109484514Y-112526057D01*
X109448228Y-112671200D01*
X109448228Y-112852628D01*
X109484514Y-112997771D01*
X109520800Y-113070342D01*
X109557085Y-113106628D01*
X109629657Y-113142914D01*
X109702228Y-113142914D01*
X109774800Y-113106628D01*
X109811085Y-113070342D01*
X109847371Y-112997771D01*
X109883657Y-112852628D01*
X109883657Y-112671200D01*
X109847371Y-112526057D01*
X109811085Y-112453485D01*
X109774800Y-112417200D01*
X109702228Y-112380914D01*
X110556800Y-110650342D02*
X110593085Y-110686628D01*
X110701942Y-110722914D01*
X110774514Y-110722914D01*
X110883371Y-110686628D01*
X110955942Y-110614057D01*
X110992228Y-110541485D01*
X111028514Y-110396342D01*
X111028514Y-110287485D01*
X110992228Y-110142342D01*
X110955942Y-110069771D01*
X110883371Y-109997200D01*
X110774514Y-109960914D01*
X110701942Y-109960914D01*
X110593085Y-109997200D01*
X110556800Y-110033485D01*
X110193942Y-110722914D02*
X110048800Y-110722914D01*
X109976228Y-110686628D01*
X109939942Y-110650342D01*
X109867371Y-110541485D01*
X109831085Y-110396342D01*
X109831085Y-110106057D01*
X109867371Y-110033485D01*
X109903657Y-109997200D01*
X109976228Y-109960914D01*
X110121371Y-109960914D01*
X110193942Y-109997200D01*
X110230228Y-110033485D01*
X110266514Y-110106057D01*
X110266514Y-110287485D01*
X110230228Y-110360057D01*
X110193942Y-110396342D01*
X110121371Y-110432628D01*
X109976228Y-110432628D01*
X109903657Y-110396342D01*
X109867371Y-110360057D01*
X109831085Y-110287485D01*
X112533142Y-85637000D02*
X112569428Y-85600714D01*
X112605714Y-85491857D01*
X112605714Y-85419285D01*
X112569428Y-85310428D01*
X112496857Y-85237857D01*
X112424285Y-85201571D01*
X112279142Y-85165285D01*
X112170285Y-85165285D01*
X112025142Y-85201571D01*
X111952571Y-85237857D01*
X111880000Y-85310428D01*
X111843714Y-85419285D01*
X111843714Y-85491857D01*
X111880000Y-85600714D01*
X111916285Y-85637000D01*
X111843714Y-86290142D02*
X111843714Y-86145000D01*
X111880000Y-86072428D01*
X111916285Y-86036142D01*
X112025142Y-85963571D01*
X112170285Y-85927285D01*
X112460571Y-85927285D01*
X112533142Y-85963571D01*
X112569428Y-85999857D01*
X112605714Y-86072428D01*
X112605714Y-86217571D01*
X112569428Y-86290142D01*
X112533142Y-86326428D01*
X112460571Y-86362714D01*
X112279142Y-86362714D01*
X112206571Y-86326428D01*
X112170285Y-86290142D01*
X112134000Y-86217571D01*
X112134000Y-86072428D01*
X112170285Y-85999857D01*
X112206571Y-85963571D01*
X112279142Y-85927285D01*
X111742000Y-82482142D02*
X111778285Y-82518428D01*
X111887142Y-82554714D01*
X111959714Y-82554714D01*
X112068571Y-82518428D01*
X112141142Y-82445857D01*
X112177428Y-82373285D01*
X112213714Y-82228142D01*
X112213714Y-82119285D01*
X112177428Y-81974142D01*
X112141142Y-81901571D01*
X112068571Y-81829000D01*
X111959714Y-81792714D01*
X111887142Y-81792714D01*
X111778285Y-81829000D01*
X111742000Y-81865285D01*
X111052571Y-81792714D02*
X111415428Y-81792714D01*
X111451714Y-82155571D01*
X111415428Y-82119285D01*
X111342857Y-82083000D01*
X111161428Y-82083000D01*
X111088857Y-82119285D01*
X111052571Y-82155571D01*
X111016285Y-82228142D01*
X111016285Y-82409571D01*
X111052571Y-82482142D01*
X111088857Y-82518428D01*
X111161428Y-82554714D01*
X111342857Y-82554714D01*
X111415428Y-82518428D01*
X111451714Y-82482142D01*
X129957142Y-107053000D02*
X129993428Y-107016714D01*
X130029714Y-106907857D01*
X130029714Y-106835285D01*
X129993428Y-106726428D01*
X129920857Y-106653857D01*
X129848285Y-106617571D01*
X129703142Y-106581285D01*
X129594285Y-106581285D01*
X129449142Y-106617571D01*
X129376571Y-106653857D01*
X129304000Y-106726428D01*
X129267714Y-106835285D01*
X129267714Y-106907857D01*
X129304000Y-107016714D01*
X129340285Y-107053000D01*
X129340285Y-107343285D02*
X129304000Y-107379571D01*
X129267714Y-107452142D01*
X129267714Y-107633571D01*
X129304000Y-107706142D01*
X129340285Y-107742428D01*
X129412857Y-107778714D01*
X129485428Y-107778714D01*
X129594285Y-107742428D01*
X130029714Y-107307000D01*
X130029714Y-107778714D01*
X114062000Y-78682142D02*
X114098285Y-78718428D01*
X114207142Y-78754714D01*
X114279714Y-78754714D01*
X114388571Y-78718428D01*
X114461142Y-78645857D01*
X114497428Y-78573285D01*
X114533714Y-78428142D01*
X114533714Y-78319285D01*
X114497428Y-78174142D01*
X114461142Y-78101571D01*
X114388571Y-78029000D01*
X114279714Y-77992714D01*
X114207142Y-77992714D01*
X114098285Y-78029000D01*
X114062000Y-78065285D01*
X113808000Y-77992714D02*
X113336285Y-77992714D01*
X113590285Y-78283000D01*
X113481428Y-78283000D01*
X113408857Y-78319285D01*
X113372571Y-78355571D01*
X113336285Y-78428142D01*
X113336285Y-78609571D01*
X113372571Y-78682142D01*
X113408857Y-78718428D01*
X113481428Y-78754714D01*
X113699142Y-78754714D01*
X113771714Y-78718428D01*
X113808000Y-78682142D01*
X117907142Y-86004000D02*
X117943428Y-85967714D01*
X117979714Y-85858857D01*
X117979714Y-85786285D01*
X117943428Y-85677428D01*
X117870857Y-85604857D01*
X117798285Y-85568571D01*
X117653142Y-85532285D01*
X117544285Y-85532285D01*
X117399142Y-85568571D01*
X117326571Y-85604857D01*
X117254000Y-85677428D01*
X117217714Y-85786285D01*
X117217714Y-85858857D01*
X117254000Y-85967714D01*
X117290285Y-86004000D01*
X117471714Y-86657142D02*
X117979714Y-86657142D01*
X117181428Y-86475714D02*
X117725714Y-86294285D01*
X117725714Y-86766000D01*
X131027142Y-107083000D02*
X131063428Y-107046714D01*
X131099714Y-106937857D01*
X131099714Y-106865285D01*
X131063428Y-106756428D01*
X130990857Y-106683857D01*
X130918285Y-106647571D01*
X130773142Y-106611285D01*
X130664285Y-106611285D01*
X130519142Y-106647571D01*
X130446571Y-106683857D01*
X130374000Y-106756428D01*
X130337714Y-106865285D01*
X130337714Y-106937857D01*
X130374000Y-107046714D01*
X130410285Y-107083000D01*
X131099714Y-107808714D02*
X131099714Y-107373285D01*
X131099714Y-107591000D02*
X130337714Y-107591000D01*
X130446571Y-107518428D01*
X130519142Y-107445857D01*
X130555428Y-107373285D01*
X111517142Y-85637000D02*
X111553428Y-85600714D01*
X111589714Y-85491857D01*
X111589714Y-85419285D01*
X111553428Y-85310428D01*
X111480857Y-85237857D01*
X111408285Y-85201571D01*
X111263142Y-85165285D01*
X111154285Y-85165285D01*
X111009142Y-85201571D01*
X110936571Y-85237857D01*
X110864000Y-85310428D01*
X110827714Y-85419285D01*
X110827714Y-85491857D01*
X110864000Y-85600714D01*
X110900285Y-85637000D01*
X110827714Y-85891000D02*
X110827714Y-86399000D01*
X111589714Y-86072428D01*
X116274514Y-107388342D02*
X115911657Y-107134342D01*
X116274514Y-106952914D02*
X115512514Y-106952914D01*
X115512514Y-107243200D01*
X115548800Y-107315771D01*
X115585085Y-107352057D01*
X115657657Y-107388342D01*
X115766514Y-107388342D01*
X115839085Y-107352057D01*
X115875371Y-107315771D01*
X115911657Y-107243200D01*
X115911657Y-106952914D01*
X116274514Y-108114057D02*
X116274514Y-107678628D01*
X116274514Y-107896342D02*
X115512514Y-107896342D01*
X115621371Y-107823771D01*
X115693942Y-107751200D01*
X115730228Y-107678628D01*
X115585085Y-108404342D02*
X115548800Y-108440628D01*
X115512514Y-108513200D01*
X115512514Y-108694628D01*
X115548800Y-108767200D01*
X115585085Y-108803485D01*
X115657657Y-108839771D01*
X115730228Y-108839771D01*
X115839085Y-108803485D01*
X116274514Y-108368057D01*
X116274514Y-108839771D01*
X122419657Y-110222914D02*
X122673657Y-109860057D01*
X122855085Y-110222914D02*
X122855085Y-109460914D01*
X122564800Y-109460914D01*
X122492228Y-109497200D01*
X122455942Y-109533485D01*
X122419657Y-109606057D01*
X122419657Y-109714914D01*
X122455942Y-109787485D01*
X122492228Y-109823771D01*
X122564800Y-109860057D01*
X122855085Y-109860057D01*
X121693942Y-110222914D02*
X122129371Y-110222914D01*
X121911657Y-110222914D02*
X121911657Y-109460914D01*
X121984228Y-109569771D01*
X122056800Y-109642342D01*
X122129371Y-109678628D01*
X120968228Y-110222914D02*
X121403657Y-110222914D01*
X121185942Y-110222914D02*
X121185942Y-109460914D01*
X121258514Y-109569771D01*
X121331085Y-109642342D01*
X121403657Y-109678628D01*
X122419657Y-109222914D02*
X122673657Y-108860057D01*
X122855085Y-109222914D02*
X122855085Y-108460914D01*
X122564800Y-108460914D01*
X122492228Y-108497200D01*
X122455942Y-108533485D01*
X122419657Y-108606057D01*
X122419657Y-108714914D01*
X122455942Y-108787485D01*
X122492228Y-108823771D01*
X122564800Y-108860057D01*
X122855085Y-108860057D01*
X121693942Y-109222914D02*
X122129371Y-109222914D01*
X121911657Y-109222914D02*
X121911657Y-108460914D01*
X121984228Y-108569771D01*
X122056800Y-108642342D01*
X122129371Y-108678628D01*
X121439942Y-108460914D02*
X120968228Y-108460914D01*
X121222228Y-108751200D01*
X121113371Y-108751200D01*
X121040800Y-108787485D01*
X121004514Y-108823771D01*
X120968228Y-108896342D01*
X120968228Y-109077771D01*
X121004514Y-109150342D01*
X121040800Y-109186628D01*
X121113371Y-109222914D01*
X121331085Y-109222914D01*
X121403657Y-109186628D01*
X121439942Y-109150342D01*
X139759714Y-108250142D02*
X139396857Y-107996142D01*
X139759714Y-107814714D02*
X138997714Y-107814714D01*
X138997714Y-108105000D01*
X139034000Y-108177571D01*
X139070285Y-108213857D01*
X139142857Y-108250142D01*
X139251714Y-108250142D01*
X139324285Y-108213857D01*
X139360571Y-108177571D01*
X139396857Y-108105000D01*
X139396857Y-107814714D01*
X139759714Y-108975857D02*
X139759714Y-108540428D01*
X139759714Y-108758142D02*
X138997714Y-108758142D01*
X139106571Y-108685571D01*
X139179142Y-108613000D01*
X139215428Y-108540428D01*
X138997714Y-109665285D02*
X138997714Y-109302428D01*
X139360571Y-109266142D01*
X139324285Y-109302428D01*
X139288000Y-109375000D01*
X139288000Y-109556428D01*
X139324285Y-109629000D01*
X139360571Y-109665285D01*
X139433142Y-109701571D01*
X139614571Y-109701571D01*
X139687142Y-109665285D01*
X139723428Y-109629000D01*
X139759714Y-109556428D01*
X139759714Y-109375000D01*
X139723428Y-109302428D01*
X139687142Y-109266142D01*
X139719714Y-110970142D02*
X139356857Y-110716142D01*
X139719714Y-110534714D02*
X138957714Y-110534714D01*
X138957714Y-110825000D01*
X138994000Y-110897571D01*
X139030285Y-110933857D01*
X139102857Y-110970142D01*
X139211714Y-110970142D01*
X139284285Y-110933857D01*
X139320571Y-110897571D01*
X139356857Y-110825000D01*
X139356857Y-110534714D01*
X139719714Y-111695857D02*
X139719714Y-111260428D01*
X139719714Y-111478142D02*
X138957714Y-111478142D01*
X139066571Y-111405571D01*
X139139142Y-111333000D01*
X139175428Y-111260428D01*
X138957714Y-112349000D02*
X138957714Y-112203857D01*
X138994000Y-112131285D01*
X139030285Y-112095000D01*
X139139142Y-112022428D01*
X139284285Y-111986142D01*
X139574571Y-111986142D01*
X139647142Y-112022428D01*
X139683428Y-112058714D01*
X139719714Y-112131285D01*
X139719714Y-112276428D01*
X139683428Y-112349000D01*
X139647142Y-112385285D01*
X139574571Y-112421571D01*
X139393142Y-112421571D01*
X139320571Y-112385285D01*
X139284285Y-112349000D01*
X139248000Y-112276428D01*
X139248000Y-112131285D01*
X139284285Y-112058714D01*
X139320571Y-112022428D01*
X139393142Y-111986142D01*
X114733135Y-118503390D02*
X114987135Y-118140533D01*
X115168563Y-118503390D02*
X115168563Y-117741390D01*
X114878278Y-117741390D01*
X114805706Y-117777676D01*
X114769420Y-117813961D01*
X114733135Y-117886533D01*
X114733135Y-117995390D01*
X114769420Y-118067961D01*
X114805706Y-118104247D01*
X114878278Y-118140533D01*
X115168563Y-118140533D01*
X114007420Y-118503390D02*
X114442849Y-118503390D01*
X114225135Y-118503390D02*
X114225135Y-117741390D01*
X114297706Y-117850247D01*
X114370278Y-117922818D01*
X114442849Y-117959104D01*
X113753420Y-117741390D02*
X113245420Y-117741390D01*
X113571992Y-118503390D01*
X132432314Y-106748542D02*
X132069457Y-106494542D01*
X132432314Y-106313114D02*
X131670314Y-106313114D01*
X131670314Y-106603400D01*
X131706600Y-106675971D01*
X131742885Y-106712257D01*
X131815457Y-106748542D01*
X131924314Y-106748542D01*
X131996885Y-106712257D01*
X132033171Y-106675971D01*
X132069457Y-106603400D01*
X132069457Y-106313114D01*
X132432314Y-107474257D02*
X132432314Y-107038828D01*
X132432314Y-107256542D02*
X131670314Y-107256542D01*
X131779171Y-107183971D01*
X131851742Y-107111400D01*
X131888028Y-107038828D01*
X131996885Y-107909685D02*
X131960600Y-107837114D01*
X131924314Y-107800828D01*
X131851742Y-107764542D01*
X131815457Y-107764542D01*
X131742885Y-107800828D01*
X131706600Y-107837114D01*
X131670314Y-107909685D01*
X131670314Y-108054828D01*
X131706600Y-108127400D01*
X131742885Y-108163685D01*
X131815457Y-108199971D01*
X131851742Y-108199971D01*
X131924314Y-108163685D01*
X131960600Y-108127400D01*
X131996885Y-108054828D01*
X131996885Y-107909685D01*
X132033171Y-107837114D01*
X132069457Y-107800828D01*
X132142028Y-107764542D01*
X132287171Y-107764542D01*
X132359742Y-107800828D01*
X132396028Y-107837114D01*
X132432314Y-107909685D01*
X132432314Y-108054828D01*
X132396028Y-108127400D01*
X132359742Y-108163685D01*
X132287171Y-108199971D01*
X132142028Y-108199971D01*
X132069457Y-108163685D01*
X132033171Y-108127400D01*
X131996885Y-108054828D01*
X133702314Y-106748542D02*
X133339457Y-106494542D01*
X133702314Y-106313114D02*
X132940314Y-106313114D01*
X132940314Y-106603400D01*
X132976600Y-106675971D01*
X133012885Y-106712257D01*
X133085457Y-106748542D01*
X133194314Y-106748542D01*
X133266885Y-106712257D01*
X133303171Y-106675971D01*
X133339457Y-106603400D01*
X133339457Y-106313114D01*
X133702314Y-107474257D02*
X133702314Y-107038828D01*
X133702314Y-107256542D02*
X132940314Y-107256542D01*
X133049171Y-107183971D01*
X133121742Y-107111400D01*
X133158028Y-107038828D01*
X133702314Y-107837114D02*
X133702314Y-107982257D01*
X133666028Y-108054828D01*
X133629742Y-108091114D01*
X133520885Y-108163685D01*
X133375742Y-108199971D01*
X133085457Y-108199971D01*
X133012885Y-108163685D01*
X132976600Y-108127400D01*
X132940314Y-108054828D01*
X132940314Y-107909685D01*
X132976600Y-107837114D01*
X133012885Y-107800828D01*
X133085457Y-107764542D01*
X133266885Y-107764542D01*
X133339457Y-107800828D01*
X133375742Y-107837114D01*
X133412028Y-107909685D01*
X133412028Y-108054828D01*
X133375742Y-108127400D01*
X133339457Y-108163685D01*
X133266885Y-108199971D01*
X110329400Y-114955514D02*
X110583400Y-114592657D01*
X110764828Y-114955514D02*
X110764828Y-114193514D01*
X110474542Y-114193514D01*
X110401971Y-114229800D01*
X110365685Y-114266085D01*
X110329400Y-114338657D01*
X110329400Y-114447514D01*
X110365685Y-114520085D01*
X110401971Y-114556371D01*
X110474542Y-114592657D01*
X110764828Y-114592657D01*
X109966542Y-114955514D02*
X109821400Y-114955514D01*
X109748828Y-114919228D01*
X109712542Y-114882942D01*
X109639971Y-114774085D01*
X109603685Y-114628942D01*
X109603685Y-114338657D01*
X109639971Y-114266085D01*
X109676257Y-114229800D01*
X109748828Y-114193514D01*
X109893971Y-114193514D01*
X109966542Y-114229800D01*
X110002828Y-114266085D01*
X110039114Y-114338657D01*
X110039114Y-114520085D01*
X110002828Y-114592657D01*
X109966542Y-114628942D01*
X109893971Y-114665228D01*
X109748828Y-114665228D01*
X109676257Y-114628942D01*
X109639971Y-114592657D01*
X109603685Y-114520085D01*
X128867000Y-109839714D02*
X129121000Y-109476857D01*
X129302428Y-109839714D02*
X129302428Y-109077714D01*
X129012142Y-109077714D01*
X128939571Y-109114000D01*
X128903285Y-109150285D01*
X128867000Y-109222857D01*
X128867000Y-109331714D01*
X128903285Y-109404285D01*
X128939571Y-109440571D01*
X129012142Y-109476857D01*
X129302428Y-109476857D01*
X128431571Y-109404285D02*
X128504142Y-109368000D01*
X128540428Y-109331714D01*
X128576714Y-109259142D01*
X128576714Y-109222857D01*
X128540428Y-109150285D01*
X128504142Y-109114000D01*
X128431571Y-109077714D01*
X128286428Y-109077714D01*
X128213857Y-109114000D01*
X128177571Y-109150285D01*
X128141285Y-109222857D01*
X128141285Y-109259142D01*
X128177571Y-109331714D01*
X128213857Y-109368000D01*
X128286428Y-109404285D01*
X128431571Y-109404285D01*
X128504142Y-109440571D01*
X128540428Y-109476857D01*
X128576714Y-109549428D01*
X128576714Y-109694571D01*
X128540428Y-109767142D01*
X128504142Y-109803428D01*
X128431571Y-109839714D01*
X128286428Y-109839714D01*
X128213857Y-109803428D01*
X128177571Y-109767142D01*
X128141285Y-109694571D01*
X128141285Y-109549428D01*
X128177571Y-109476857D01*
X128213857Y-109440571D01*
X128286428Y-109404285D01*
X132557800Y-114980914D02*
X132811800Y-114618057D01*
X132993228Y-114980914D02*
X132993228Y-114218914D01*
X132702942Y-114218914D01*
X132630371Y-114255200D01*
X132594085Y-114291485D01*
X132557800Y-114364057D01*
X132557800Y-114472914D01*
X132594085Y-114545485D01*
X132630371Y-114581771D01*
X132702942Y-114618057D01*
X132993228Y-114618057D01*
X132303800Y-114218914D02*
X131795800Y-114218914D01*
X132122371Y-114980914D01*
X116112000Y-77394714D02*
X116366000Y-77031857D01*
X116547428Y-77394714D02*
X116547428Y-76632714D01*
X116257142Y-76632714D01*
X116184571Y-76669000D01*
X116148285Y-76705285D01*
X116112000Y-76777857D01*
X116112000Y-76886714D01*
X116148285Y-76959285D01*
X116184571Y-76995571D01*
X116257142Y-77031857D01*
X116547428Y-77031857D01*
X115386285Y-77394714D02*
X115821714Y-77394714D01*
X115604000Y-77394714D02*
X115604000Y-76632714D01*
X115676571Y-76741571D01*
X115749142Y-76814142D01*
X115821714Y-76850428D01*
X127639714Y-104263000D02*
X127276857Y-104009000D01*
X127639714Y-103827571D02*
X126877714Y-103827571D01*
X126877714Y-104117857D01*
X126914000Y-104190428D01*
X126950285Y-104226714D01*
X127022857Y-104263000D01*
X127131714Y-104263000D01*
X127204285Y-104226714D01*
X127240571Y-104190428D01*
X127276857Y-104117857D01*
X127276857Y-103827571D01*
X126877714Y-104916142D02*
X126877714Y-104771000D01*
X126914000Y-104698428D01*
X126950285Y-104662142D01*
X127059142Y-104589571D01*
X127204285Y-104553285D01*
X127494571Y-104553285D01*
X127567142Y-104589571D01*
X127603428Y-104625857D01*
X127639714Y-104698428D01*
X127639714Y-104843571D01*
X127603428Y-104916142D01*
X127567142Y-104952428D01*
X127494571Y-104988714D01*
X127313142Y-104988714D01*
X127240571Y-104952428D01*
X127204285Y-104916142D01*
X127168000Y-104843571D01*
X127168000Y-104698428D01*
X127204285Y-104625857D01*
X127240571Y-104589571D01*
X127313142Y-104553285D01*
X107527500Y-77356714D02*
X107781500Y-76993857D01*
X107962928Y-77356714D02*
X107962928Y-76594714D01*
X107672642Y-76594714D01*
X107600071Y-76631000D01*
X107563785Y-76667285D01*
X107527500Y-76739857D01*
X107527500Y-76848714D01*
X107563785Y-76921285D01*
X107600071Y-76957571D01*
X107672642Y-76993857D01*
X107962928Y-76993857D01*
X106874357Y-76848714D02*
X106874357Y-77356714D01*
X107055785Y-76558428D02*
X107237214Y-77102714D01*
X106765500Y-77102714D01*
X109322000Y-82604714D02*
X109576000Y-82241857D01*
X109757428Y-82604714D02*
X109757428Y-81842714D01*
X109467142Y-81842714D01*
X109394571Y-81879000D01*
X109358285Y-81915285D01*
X109322000Y-81987857D01*
X109322000Y-82096714D01*
X109358285Y-82169285D01*
X109394571Y-82205571D01*
X109467142Y-82241857D01*
X109757428Y-82241857D01*
X108632571Y-81842714D02*
X108995428Y-81842714D01*
X109031714Y-82205571D01*
X108995428Y-82169285D01*
X108922857Y-82133000D01*
X108741428Y-82133000D01*
X108668857Y-82169285D01*
X108632571Y-82205571D01*
X108596285Y-82278142D01*
X108596285Y-82459571D01*
X108632571Y-82532142D01*
X108668857Y-82568428D01*
X108741428Y-82604714D01*
X108922857Y-82604714D01*
X108995428Y-82568428D01*
X109031714Y-82532142D01*
X122419657Y-111222914D02*
X122673657Y-110860057D01*
X122855085Y-111222914D02*
X122855085Y-110460914D01*
X122564800Y-110460914D01*
X122492228Y-110497200D01*
X122455942Y-110533485D01*
X122419657Y-110606057D01*
X122419657Y-110714914D01*
X122455942Y-110787485D01*
X122492228Y-110823771D01*
X122564800Y-110860057D01*
X122855085Y-110860057D01*
X121693942Y-111222914D02*
X122129371Y-111222914D01*
X121911657Y-111222914D02*
X121911657Y-110460914D01*
X121984228Y-110569771D01*
X122056800Y-110642342D01*
X122129371Y-110678628D01*
X121222228Y-110460914D02*
X121149657Y-110460914D01*
X121077085Y-110497200D01*
X121040800Y-110533485D01*
X121004514Y-110606057D01*
X120968228Y-110751200D01*
X120968228Y-110932628D01*
X121004514Y-111077771D01*
X121040800Y-111150342D01*
X121077085Y-111186628D01*
X121149657Y-111222914D01*
X121222228Y-111222914D01*
X121294800Y-111186628D01*
X121331085Y-111150342D01*
X121367371Y-111077771D01*
X121403657Y-110932628D01*
X121403657Y-110751200D01*
X121367371Y-110606057D01*
X121331085Y-110533485D01*
X121294800Y-110497200D01*
X121222228Y-110460914D01*
X117015571Y-114102714D02*
X117015571Y-114719571D01*
X116979285Y-114792142D01*
X116943000Y-114828428D01*
X116870428Y-114864714D01*
X116725285Y-114864714D01*
X116652714Y-114828428D01*
X116616428Y-114792142D01*
X116580142Y-114719571D01*
X116580142Y-114102714D01*
X115854428Y-114102714D02*
X116217285Y-114102714D01*
X116253571Y-114465571D01*
X116217285Y-114429285D01*
X116144714Y-114393000D01*
X115963285Y-114393000D01*
X115890714Y-114429285D01*
X115854428Y-114465571D01*
X115818142Y-114538142D01*
X115818142Y-114719571D01*
X115854428Y-114792142D01*
X115890714Y-114828428D01*
X115963285Y-114864714D01*
X116144714Y-114864714D01*
X116217285Y-114828428D01*
X116253571Y-114792142D01*
X127735571Y-90452714D02*
X127735571Y-91069571D01*
X127699285Y-91142142D01*
X127663000Y-91178428D01*
X127590428Y-91214714D01*
X127445285Y-91214714D01*
X127372714Y-91178428D01*
X127336428Y-91142142D01*
X127300142Y-91069571D01*
X127300142Y-90452714D01*
X127009857Y-90452714D02*
X126538142Y-90452714D01*
X126792142Y-90743000D01*
X126683285Y-90743000D01*
X126610714Y-90779285D01*
X126574428Y-90815571D01*
X126538142Y-90888142D01*
X126538142Y-91069571D01*
X126574428Y-91142142D01*
X126610714Y-91178428D01*
X126683285Y-91214714D01*
X126901000Y-91214714D01*
X126973571Y-91178428D01*
X127009857Y-91142142D01*
X114448857Y-80234714D02*
X114448857Y-79472714D01*
X113650571Y-80162142D02*
X113686857Y-80198428D01*
X113795714Y-80234714D01*
X113868285Y-80234714D01*
X113977142Y-80198428D01*
X114049714Y-80125857D01*
X114086000Y-80053285D01*
X114122285Y-79908142D01*
X114122285Y-79799285D01*
X114086000Y-79654142D01*
X114049714Y-79581571D01*
X113977142Y-79509000D01*
X113868285Y-79472714D01*
X113795714Y-79472714D01*
X113686857Y-79509000D01*
X113650571Y-79545285D01*
X112924857Y-80234714D02*
X113360285Y-80234714D01*
X113142571Y-80234714D02*
X113142571Y-79472714D01*
X113215142Y-79581571D01*
X113287714Y-79654142D01*
X113360285Y-79690428D01*
X122110985Y-98686868D02*
X122110985Y-98251440D01*
X121348985Y-98469154D02*
X122110985Y-98469154D01*
X121748128Y-97743440D02*
X121748128Y-97997440D01*
X121348985Y-97997440D02*
X122110985Y-97997440D01*
X122110985Y-97634582D01*
X122110985Y-97453154D02*
X122110985Y-97017725D01*
X121348985Y-97235440D02*
X122110985Y-97235440D01*
X121348985Y-96364582D02*
X121348985Y-96800011D01*
X121348985Y-96582297D02*
X122110985Y-96582297D01*
X122002128Y-96654868D01*
X121929557Y-96727440D01*
X121893271Y-96800011D01*
X127717391Y-114383961D02*
X127753676Y-114420247D01*
X127862534Y-114456533D01*
X127935105Y-114456533D01*
X128043962Y-114420247D01*
X128116534Y-114347676D01*
X128152819Y-114275104D01*
X128189105Y-114129961D01*
X128189105Y-114021104D01*
X128152819Y-113875961D01*
X128116534Y-113803390D01*
X128043962Y-113730819D01*
X127935105Y-113694533D01*
X127862534Y-113694533D01*
X127753676Y-113730819D01*
X127717391Y-113767104D01*
X126991676Y-114456533D02*
X127427105Y-114456533D01*
X127209391Y-114456533D02*
X127209391Y-113694533D01*
X127281962Y-113803390D01*
X127354534Y-113875961D01*
X127427105Y-113912247D01*
X126265962Y-114456533D02*
X126701391Y-114456533D01*
X126483676Y-114456533D02*
X126483676Y-113694533D01*
X126556248Y-113803390D01*
X126628819Y-113875961D01*
X126701391Y-113912247D01*
X127717391Y-116542961D02*
X127753676Y-116579247D01*
X127862534Y-116615533D01*
X127935105Y-116615533D01*
X128043962Y-116579247D01*
X128116534Y-116506676D01*
X128152819Y-116434104D01*
X128189105Y-116288961D01*
X128189105Y-116180104D01*
X128152819Y-116034961D01*
X128116534Y-115962390D01*
X128043962Y-115889819D01*
X127935105Y-115853533D01*
X127862534Y-115853533D01*
X127753676Y-115889819D01*
X127717391Y-115926104D01*
X126991676Y-116615533D02*
X127427105Y-116615533D01*
X127209391Y-116615533D02*
X127209391Y-115853533D01*
X127281962Y-115962390D01*
X127354534Y-116034961D01*
X127427105Y-116071247D01*
X126701391Y-115926104D02*
X126665105Y-115889819D01*
X126592534Y-115853533D01*
X126411105Y-115853533D01*
X126338534Y-115889819D01*
X126302248Y-115926104D01*
X126265962Y-115998676D01*
X126265962Y-116071247D01*
X126302248Y-116180104D01*
X126737676Y-116615533D01*
X126265962Y-116615533D01*
X125599714Y-82850771D02*
X124837714Y-82850771D01*
X124837714Y-83032200D01*
X124874000Y-83141057D01*
X124946571Y-83213628D01*
X125019142Y-83249914D01*
X125164285Y-83286200D01*
X125273142Y-83286200D01*
X125418285Y-83249914D01*
X125490857Y-83213628D01*
X125563428Y-83141057D01*
X125599714Y-83032200D01*
X125599714Y-82850771D01*
X125599714Y-84011914D02*
X125599714Y-83576485D01*
X125599714Y-83794200D02*
X124837714Y-83794200D01*
X124946571Y-83721628D01*
X125019142Y-83649057D01*
X125055428Y-83576485D01*
X127804000Y-76757714D02*
X127804000Y-77302000D01*
X127840285Y-77410857D01*
X127912857Y-77483428D01*
X128021714Y-77519714D01*
X128094285Y-77519714D01*
X127042000Y-77519714D02*
X127477428Y-77519714D01*
X127259714Y-77519714D02*
X127259714Y-76757714D01*
X127332285Y-76866571D01*
X127404857Y-76939142D01*
X127477428Y-76975428D01*
X106269714Y-78233000D02*
X105906857Y-77979000D01*
X106269714Y-77797571D02*
X105507714Y-77797571D01*
X105507714Y-78087857D01*
X105544000Y-78160428D01*
X105580285Y-78196714D01*
X105652857Y-78233000D01*
X105761714Y-78233000D01*
X105834285Y-78196714D01*
X105870571Y-78160428D01*
X105906857Y-78087857D01*
X105906857Y-77797571D01*
X105580285Y-78523285D02*
X105544000Y-78559571D01*
X105507714Y-78632142D01*
X105507714Y-78813571D01*
X105544000Y-78886142D01*
X105580285Y-78922428D01*
X105652857Y-78958714D01*
X105725428Y-78958714D01*
X105834285Y-78922428D01*
X106269714Y-78487000D01*
X106269714Y-78958714D01*
X132952000Y-77424714D02*
X133206000Y-77061857D01*
X133387428Y-77424714D02*
X133387428Y-76662714D01*
X133097142Y-76662714D01*
X133024571Y-76699000D01*
X132988285Y-76735285D01*
X132952000Y-76807857D01*
X132952000Y-76916714D01*
X132988285Y-76989285D01*
X133024571Y-77025571D01*
X133097142Y-77061857D01*
X133387428Y-77061857D01*
X132698000Y-76662714D02*
X132226285Y-76662714D01*
X132480285Y-76953000D01*
X132371428Y-76953000D01*
X132298857Y-76989285D01*
X132262571Y-77025571D01*
X132226285Y-77098142D01*
X132226285Y-77279571D01*
X132262571Y-77352142D01*
X132298857Y-77388428D01*
X132371428Y-77424714D01*
X132589142Y-77424714D01*
X132661714Y-77388428D01*
X132698000Y-77352142D01*
M02*
