G04 #@! TF.GenerationSoftware,KiCad,Pcbnew,5.1.5-52549c5~84~ubuntu19.04.1*
G04 #@! TF.CreationDate,2020-02-18T23:24:20+01:00*
G04 #@! TF.ProjectId,badge,62616467-652e-46b6-9963-61645f706362,rev?*
G04 #@! TF.SameCoordinates,Original*
G04 #@! TF.FileFunction,Paste,Bot*
G04 #@! TF.FilePolarity,Positive*
%FSLAX46Y46*%
G04 Gerber Fmt 4.6, Leading zero omitted, Abs format (unit mm)*
G04 Created by KiCad (PCBNEW 5.1.5-52549c5~84~ubuntu19.04.1) date 2020-02-18 23:24:20*
%MOMM*%
%LPD*%
G04 APERTURE LIST*
%ADD10C,0.010000*%
%ADD11R,1.500000X1.900000*%
%ADD12C,1.450000*%
%ADD13R,0.400000X1.350000*%
%ADD14O,1.200000X1.900000*%
%ADD15R,2.200000X1.900000*%
%ADD16R,0.420000X1.400000*%
%ADD17R,0.530000X0.280000*%
%ADD18R,0.280000X0.530000*%
%ADD19R,1.550000X0.600000*%
%ADD20R,1.800000X1.200000*%
%ADD21R,0.520000X0.300000*%
%ADD22R,0.600000X1.200000*%
%ADD23R,1.200000X1.800000*%
%ADD24R,0.600000X1.550000*%
%ADD25R,1.060000X0.650000*%
%ADD26R,0.522000X0.600000*%
%ADD27C,0.300000*%
%ADD28R,0.900000X0.800000*%
%ADD29R,0.800000X0.900000*%
%ADD30R,0.500000X0.600000*%
%ADD31R,0.600000X0.500000*%
%ADD32R,0.600000X0.400000*%
%ADD33R,0.400000X0.600000*%
%ADD34R,0.500000X0.500000*%
%ADD35R,0.800000X0.300000*%
%ADD36R,1.750000X1.550000*%
%ADD37R,1.000000X0.300000*%
%ADD38R,1.300000X1.650000*%
%ADD39C,0.100000*%
%ADD40R,0.450000X0.600000*%
G04 APERTURE END LIST*
D10*
G36*
X135890400Y-85406800D02*
G01*
X135890400Y-84676800D01*
X134310400Y-84676800D01*
X134310400Y-85406800D01*
X135890400Y-85406800D01*
G37*
X135890400Y-85406800D02*
X135890400Y-84676800D01*
X134310400Y-84676800D01*
X134310400Y-85406800D01*
X135890400Y-85406800D01*
G36*
X134030400Y-86416800D02*
G01*
X134030400Y-85686800D01*
X132450400Y-85686800D01*
X132450400Y-86416800D01*
X134030400Y-86416800D01*
G37*
X134030400Y-86416800D02*
X134030400Y-85686800D01*
X132450400Y-85686800D01*
X132450400Y-86416800D01*
X134030400Y-86416800D01*
G36*
X135890400Y-86416800D02*
G01*
X135890400Y-85686800D01*
X134310400Y-85686800D01*
X134310400Y-86416800D01*
X135890400Y-86416800D01*
G37*
X135890400Y-86416800D02*
X135890400Y-85686800D01*
X134310400Y-85686800D01*
X134310400Y-86416800D01*
X135890400Y-86416800D01*
G36*
X134030400Y-85406800D02*
G01*
X134030400Y-84676800D01*
X132450400Y-84676800D01*
X132450400Y-85406800D01*
X134030400Y-85406800D01*
G37*
X134030400Y-85406800D02*
X134030400Y-84676800D01*
X132450400Y-84676800D01*
X132450400Y-85406800D01*
X134030400Y-85406800D01*
D11*
X123075000Y-77437500D03*
D12*
X119575000Y-80137500D03*
D13*
X121425000Y-80137500D03*
X120775000Y-80137500D03*
X123375000Y-80137500D03*
X122725000Y-80137500D03*
X122075000Y-80137500D03*
D12*
X124575000Y-80137500D03*
D11*
X121075000Y-77437500D03*
D14*
X118575000Y-77437500D03*
X125575000Y-77437500D03*
D15*
X126175000Y-77437500D03*
X117975000Y-77437500D03*
D16*
X136075400Y-88081800D03*
X134805400Y-88081800D03*
X133535400Y-88081800D03*
X132265400Y-88081800D03*
X132265400Y-83011800D03*
X133535400Y-83011800D03*
X134805400Y-83011800D03*
X136075400Y-83011800D03*
D17*
X115204800Y-112883200D03*
D18*
X115784800Y-112848200D03*
X116214800Y-112848200D03*
X116644800Y-112848200D03*
X117074800Y-112848200D03*
D17*
X117654800Y-112883200D03*
X117654800Y-112453200D03*
X117654800Y-112023200D03*
X117654800Y-111593200D03*
X117654800Y-111163200D03*
X117654800Y-110733200D03*
X117654800Y-110303200D03*
X117654800Y-109873200D03*
D18*
X117074800Y-109908200D03*
X116644800Y-109908200D03*
X116214800Y-109908200D03*
X115784800Y-109908200D03*
D17*
X115204800Y-109873200D03*
X115204800Y-110303200D03*
X115204800Y-110733200D03*
X115204800Y-111163200D03*
X115204800Y-111593200D03*
X115204800Y-112023200D03*
X115204800Y-112453200D03*
D19*
X103825000Y-107975000D03*
X103825000Y-108975000D03*
X103825000Y-109975000D03*
X103825000Y-110975000D03*
D20*
X99950000Y-112275000D03*
X99950000Y-106675000D03*
D21*
X114109000Y-87002000D03*
X114109000Y-87652000D03*
X115789000Y-87652000D03*
X115789000Y-87002000D03*
D22*
X130544000Y-103029000D03*
X129344000Y-103029000D03*
D23*
X101865000Y-86145000D03*
X105465000Y-86145000D03*
D24*
X103165000Y-82270000D03*
X104165000Y-82270000D03*
D25*
X113859000Y-83877000D03*
X113859000Y-85777000D03*
X116059000Y-85777000D03*
X116059000Y-84827000D03*
X116059000Y-83877000D03*
D26*
X137176400Y-104825400D03*
X137176400Y-105725400D03*
X137998400Y-105725400D03*
X137998400Y-103925400D03*
X137176400Y-103925400D03*
D27*
X139250400Y-105487400D03*
X139250400Y-104163400D03*
X138588400Y-104825400D03*
X139912400Y-104825400D03*
D28*
X119556000Y-83337000D03*
X121556000Y-84287000D03*
X121556000Y-82387000D03*
D29*
X127400000Y-105950000D03*
X126450000Y-107950000D03*
X128350000Y-107950000D03*
D30*
X110241000Y-84620000D03*
X110241000Y-83520000D03*
D31*
X112379800Y-111378200D03*
X113479800Y-111378200D03*
X112379800Y-109378200D03*
X113479800Y-109378200D03*
X124281000Y-118008000D03*
X123181000Y-118008000D03*
X115979278Y-116888676D03*
X117079278Y-116888676D03*
X113459800Y-112798200D03*
X112359800Y-112798200D03*
X113479800Y-110378200D03*
X112379800Y-110378200D03*
D30*
X112241000Y-84620000D03*
X112241000Y-83520000D03*
D31*
X111080000Y-81041000D03*
X112180000Y-81041000D03*
D30*
X129344400Y-105516400D03*
X129344400Y-104416400D03*
D31*
X111080000Y-77041000D03*
X112180000Y-77041000D03*
D30*
X117635000Y-84877000D03*
X117635000Y-83777000D03*
X130538200Y-105516400D03*
X130538200Y-104416400D03*
X111241000Y-84620000D03*
X111241000Y-83520000D03*
D32*
X117429800Y-108328200D03*
X117429800Y-107428200D03*
D33*
X118979800Y-109878200D03*
X119879800Y-109878200D03*
X118979800Y-108878200D03*
X119879800Y-108878200D03*
D32*
X140647400Y-109245000D03*
X140647400Y-108345000D03*
X138082000Y-110885000D03*
X138082000Y-111785000D03*
D33*
X116979278Y-118158676D03*
X116079278Y-118158676D03*
D32*
X132087600Y-109720400D03*
X132087600Y-108820400D03*
X133357600Y-109720400D03*
X133357600Y-108820400D03*
D33*
X112405000Y-114560000D03*
X111505000Y-114560000D03*
X126650000Y-109425000D03*
X127550000Y-109425000D03*
X134735000Y-114560000D03*
X133835000Y-114560000D03*
X114400000Y-77050000D03*
X113500000Y-77050000D03*
D32*
X126138920Y-103895340D03*
X126138920Y-104795340D03*
D33*
X109580000Y-77041000D03*
X108680000Y-77041000D03*
X108680000Y-81041000D03*
X109580000Y-81041000D03*
X118979800Y-110878200D03*
X119879800Y-110878200D03*
D34*
X127150000Y-93000000D03*
X127150000Y-94100000D03*
X127150000Y-95200000D03*
X127150000Y-96300000D03*
X127150000Y-97400000D03*
X127150000Y-98500000D03*
X127150000Y-99600000D03*
X127150000Y-100700000D03*
X135750000Y-94250000D03*
X134650000Y-94250000D03*
X133550000Y-94250000D03*
X132450000Y-94250000D03*
X131350000Y-94250000D03*
X129850000Y-95750000D03*
X129850000Y-96850000D03*
X129850000Y-97950000D03*
X131350000Y-99450000D03*
X132450000Y-99450000D03*
X133550000Y-99450000D03*
X134650000Y-99450000D03*
X135750000Y-99450000D03*
X136850000Y-98500000D03*
X136850000Y-95200000D03*
X136850000Y-92450000D03*
X136300000Y-93350000D03*
X135750000Y-92450000D03*
X135200000Y-93350000D03*
X134650000Y-92450000D03*
X134100000Y-93350000D03*
X133550000Y-92450000D03*
X133000000Y-93350000D03*
X132450000Y-92450000D03*
X131900000Y-93350000D03*
X131350000Y-92450000D03*
X130800000Y-93350000D03*
X130250000Y-92450000D03*
X129700000Y-93350000D03*
X129150000Y-92450000D03*
X128050000Y-92450000D03*
X128050000Y-93550000D03*
X128950000Y-94100000D03*
X128050000Y-94650000D03*
X128950000Y-95200000D03*
X128050000Y-95750000D03*
X128950000Y-96300000D03*
X128050000Y-96850000D03*
X128950000Y-97400000D03*
X128050000Y-97950000D03*
X128950000Y-98500000D03*
X128050000Y-99050000D03*
X128950000Y-99600000D03*
X128050000Y-100150000D03*
X128050000Y-101250000D03*
X129150000Y-101250000D03*
X129700000Y-100350000D03*
X130250000Y-101250000D03*
X130800000Y-100350000D03*
X131350000Y-101250000D03*
X131900000Y-100350000D03*
X132450000Y-101250000D03*
X133000000Y-100350000D03*
X133550000Y-101250000D03*
X134100000Y-100350000D03*
X134650000Y-101250000D03*
X135200000Y-100350000D03*
X135750000Y-101250000D03*
X136300000Y-100350000D03*
X136850000Y-101250000D03*
D35*
X112130000Y-78291000D03*
X112130000Y-78791000D03*
X112130000Y-79291000D03*
X112130000Y-79791000D03*
X109130000Y-79791000D03*
X109130000Y-79291000D03*
X109130000Y-78791000D03*
X109130000Y-78291000D03*
D36*
X110630000Y-79041000D03*
D37*
X123743700Y-102739440D03*
X123743700Y-102239440D03*
X123743700Y-101739440D03*
X123743700Y-101239440D03*
X123743700Y-100739440D03*
X123743700Y-100239440D03*
X123743700Y-99739440D03*
X123743700Y-99239440D03*
X123743700Y-98739440D03*
X123743700Y-98239440D03*
X123743700Y-97739440D03*
X123743700Y-97239440D03*
X123743700Y-96739440D03*
X123743700Y-96239440D03*
X123743700Y-95739440D03*
X123743700Y-95239440D03*
X123743700Y-94739440D03*
X123743700Y-94239440D03*
X123743700Y-93739440D03*
X123743700Y-93239440D03*
X123743700Y-92739440D03*
X123743700Y-92239440D03*
D38*
X121843700Y-105014440D03*
X121843700Y-89964440D03*
D39*
G36*
X125384676Y-113412993D02*
G01*
X125408337Y-113416503D01*
X125431541Y-113422315D01*
X125454063Y-113430373D01*
X125475687Y-113440601D01*
X125496204Y-113452898D01*
X125515417Y-113467148D01*
X125533141Y-113483212D01*
X125549205Y-113500936D01*
X125563455Y-113520149D01*
X125575752Y-113540666D01*
X125585980Y-113562290D01*
X125594038Y-113584812D01*
X125599850Y-113608016D01*
X125603360Y-113631677D01*
X125604534Y-113655569D01*
X125604534Y-114568069D01*
X125603360Y-114591961D01*
X125599850Y-114615622D01*
X125594038Y-114638826D01*
X125585980Y-114661348D01*
X125575752Y-114682972D01*
X125563455Y-114703489D01*
X125549205Y-114722702D01*
X125533141Y-114740426D01*
X125515417Y-114756490D01*
X125496204Y-114770740D01*
X125475687Y-114783037D01*
X125454063Y-114793265D01*
X125431541Y-114801323D01*
X125408337Y-114807135D01*
X125384676Y-114810645D01*
X125360784Y-114811819D01*
X124873284Y-114811819D01*
X124849392Y-114810645D01*
X124825731Y-114807135D01*
X124802527Y-114801323D01*
X124780005Y-114793265D01*
X124758381Y-114783037D01*
X124737864Y-114770740D01*
X124718651Y-114756490D01*
X124700927Y-114740426D01*
X124684863Y-114722702D01*
X124670613Y-114703489D01*
X124658316Y-114682972D01*
X124648088Y-114661348D01*
X124640030Y-114638826D01*
X124634218Y-114615622D01*
X124630708Y-114591961D01*
X124629534Y-114568069D01*
X124629534Y-113655569D01*
X124630708Y-113631677D01*
X124634218Y-113608016D01*
X124640030Y-113584812D01*
X124648088Y-113562290D01*
X124658316Y-113540666D01*
X124670613Y-113520149D01*
X124684863Y-113500936D01*
X124700927Y-113483212D01*
X124718651Y-113467148D01*
X124737864Y-113452898D01*
X124758381Y-113440601D01*
X124780005Y-113430373D01*
X124802527Y-113422315D01*
X124825731Y-113416503D01*
X124849392Y-113412993D01*
X124873284Y-113411819D01*
X125360784Y-113411819D01*
X125384676Y-113412993D01*
G37*
G36*
X123509676Y-113412993D02*
G01*
X123533337Y-113416503D01*
X123556541Y-113422315D01*
X123579063Y-113430373D01*
X123600687Y-113440601D01*
X123621204Y-113452898D01*
X123640417Y-113467148D01*
X123658141Y-113483212D01*
X123674205Y-113500936D01*
X123688455Y-113520149D01*
X123700752Y-113540666D01*
X123710980Y-113562290D01*
X123719038Y-113584812D01*
X123724850Y-113608016D01*
X123728360Y-113631677D01*
X123729534Y-113655569D01*
X123729534Y-114568069D01*
X123728360Y-114591961D01*
X123724850Y-114615622D01*
X123719038Y-114638826D01*
X123710980Y-114661348D01*
X123700752Y-114682972D01*
X123688455Y-114703489D01*
X123674205Y-114722702D01*
X123658141Y-114740426D01*
X123640417Y-114756490D01*
X123621204Y-114770740D01*
X123600687Y-114783037D01*
X123579063Y-114793265D01*
X123556541Y-114801323D01*
X123533337Y-114807135D01*
X123509676Y-114810645D01*
X123485784Y-114811819D01*
X122998284Y-114811819D01*
X122974392Y-114810645D01*
X122950731Y-114807135D01*
X122927527Y-114801323D01*
X122905005Y-114793265D01*
X122883381Y-114783037D01*
X122862864Y-114770740D01*
X122843651Y-114756490D01*
X122825927Y-114740426D01*
X122809863Y-114722702D01*
X122795613Y-114703489D01*
X122783316Y-114682972D01*
X122773088Y-114661348D01*
X122765030Y-114638826D01*
X122759218Y-114615622D01*
X122755708Y-114591961D01*
X122754534Y-114568069D01*
X122754534Y-113655569D01*
X122755708Y-113631677D01*
X122759218Y-113608016D01*
X122765030Y-113584812D01*
X122773088Y-113562290D01*
X122783316Y-113540666D01*
X122795613Y-113520149D01*
X122809863Y-113500936D01*
X122825927Y-113483212D01*
X122843651Y-113467148D01*
X122862864Y-113452898D01*
X122883381Y-113440601D01*
X122905005Y-113430373D01*
X122927527Y-113422315D01*
X122950731Y-113416503D01*
X122974392Y-113412993D01*
X122998284Y-113411819D01*
X123485784Y-113411819D01*
X123509676Y-113412993D01*
G37*
G36*
X123509676Y-115571993D02*
G01*
X123533337Y-115575503D01*
X123556541Y-115581315D01*
X123579063Y-115589373D01*
X123600687Y-115599601D01*
X123621204Y-115611898D01*
X123640417Y-115626148D01*
X123658141Y-115642212D01*
X123674205Y-115659936D01*
X123688455Y-115679149D01*
X123700752Y-115699666D01*
X123710980Y-115721290D01*
X123719038Y-115743812D01*
X123724850Y-115767016D01*
X123728360Y-115790677D01*
X123729534Y-115814569D01*
X123729534Y-116727069D01*
X123728360Y-116750961D01*
X123724850Y-116774622D01*
X123719038Y-116797826D01*
X123710980Y-116820348D01*
X123700752Y-116841972D01*
X123688455Y-116862489D01*
X123674205Y-116881702D01*
X123658141Y-116899426D01*
X123640417Y-116915490D01*
X123621204Y-116929740D01*
X123600687Y-116942037D01*
X123579063Y-116952265D01*
X123556541Y-116960323D01*
X123533337Y-116966135D01*
X123509676Y-116969645D01*
X123485784Y-116970819D01*
X122998284Y-116970819D01*
X122974392Y-116969645D01*
X122950731Y-116966135D01*
X122927527Y-116960323D01*
X122905005Y-116952265D01*
X122883381Y-116942037D01*
X122862864Y-116929740D01*
X122843651Y-116915490D01*
X122825927Y-116899426D01*
X122809863Y-116881702D01*
X122795613Y-116862489D01*
X122783316Y-116841972D01*
X122773088Y-116820348D01*
X122765030Y-116797826D01*
X122759218Y-116774622D01*
X122755708Y-116750961D01*
X122754534Y-116727069D01*
X122754534Y-115814569D01*
X122755708Y-115790677D01*
X122759218Y-115767016D01*
X122765030Y-115743812D01*
X122773088Y-115721290D01*
X122783316Y-115699666D01*
X122795613Y-115679149D01*
X122809863Y-115659936D01*
X122825927Y-115642212D01*
X122843651Y-115626148D01*
X122862864Y-115611898D01*
X122883381Y-115599601D01*
X122905005Y-115589373D01*
X122927527Y-115581315D01*
X122950731Y-115575503D01*
X122974392Y-115571993D01*
X122998284Y-115570819D01*
X123485784Y-115570819D01*
X123509676Y-115571993D01*
G37*
G36*
X125384676Y-115571993D02*
G01*
X125408337Y-115575503D01*
X125431541Y-115581315D01*
X125454063Y-115589373D01*
X125475687Y-115599601D01*
X125496204Y-115611898D01*
X125515417Y-115626148D01*
X125533141Y-115642212D01*
X125549205Y-115659936D01*
X125563455Y-115679149D01*
X125575752Y-115699666D01*
X125585980Y-115721290D01*
X125594038Y-115743812D01*
X125599850Y-115767016D01*
X125603360Y-115790677D01*
X125604534Y-115814569D01*
X125604534Y-116727069D01*
X125603360Y-116750961D01*
X125599850Y-116774622D01*
X125594038Y-116797826D01*
X125585980Y-116820348D01*
X125575752Y-116841972D01*
X125563455Y-116862489D01*
X125549205Y-116881702D01*
X125533141Y-116899426D01*
X125515417Y-116915490D01*
X125496204Y-116929740D01*
X125475687Y-116942037D01*
X125454063Y-116952265D01*
X125431541Y-116960323D01*
X125408337Y-116966135D01*
X125384676Y-116969645D01*
X125360784Y-116970819D01*
X124873284Y-116970819D01*
X124849392Y-116969645D01*
X124825731Y-116966135D01*
X124802527Y-116960323D01*
X124780005Y-116952265D01*
X124758381Y-116942037D01*
X124737864Y-116929740D01*
X124718651Y-116915490D01*
X124700927Y-116899426D01*
X124684863Y-116881702D01*
X124670613Y-116862489D01*
X124658316Y-116841972D01*
X124648088Y-116820348D01*
X124640030Y-116797826D01*
X124634218Y-116774622D01*
X124630708Y-116750961D01*
X124629534Y-116727069D01*
X124629534Y-115814569D01*
X124630708Y-115790677D01*
X124634218Y-115767016D01*
X124640030Y-115743812D01*
X124648088Y-115721290D01*
X124658316Y-115699666D01*
X124670613Y-115679149D01*
X124684863Y-115659936D01*
X124700927Y-115642212D01*
X124718651Y-115626148D01*
X124737864Y-115611898D01*
X124758381Y-115599601D01*
X124780005Y-115589373D01*
X124802527Y-115581315D01*
X124825731Y-115575503D01*
X124849392Y-115571993D01*
X124873284Y-115570819D01*
X125360784Y-115570819D01*
X125384676Y-115571993D01*
G37*
D40*
X123604000Y-82300000D03*
X123604000Y-84400000D03*
D32*
X107075000Y-78725000D03*
X107075000Y-77825000D03*
D33*
X135235000Y-77060000D03*
X134335000Y-77060000D03*
D32*
X128000000Y-82975000D03*
X128000000Y-82075000D03*
X128000000Y-83900000D03*
X128000000Y-84800000D03*
M02*
