G04 #@! TF.GenerationSoftware,KiCad,Pcbnew,5.1.5-52549c5~84~ubuntu19.04.1*
G04 #@! TF.CreationDate,2020-02-18T23:24:20+01:00*
G04 #@! TF.ProjectId,badge,62616467-652e-46b6-9963-61645f706362,rev?*
G04 #@! TF.SameCoordinates,Original*
G04 #@! TF.FileFunction,Copper,L1,Top*
G04 #@! TF.FilePolarity,Positive*
%FSLAX46Y46*%
G04 Gerber Fmt 4.6, Leading zero omitted, Abs format (unit mm)*
G04 Created by KiCad (PCBNEW 5.1.5-52549c5~84~ubuntu19.04.1) date 2020-02-18 23:24:20*
%MOMM*%
%LPD*%
G04 APERTURE LIST*
%ADD10C,1.450000*%
%ADD11O,1.200000X1.900000*%
%ADD12R,0.718820X0.599440*%
%ADD13C,1.200000*%
%ADD14R,0.500000X0.500000*%
%ADD15R,1.600000X1.400000*%
%ADD16C,0.508000*%
%ADD17C,0.152400*%
%ADD18C,0.254000*%
G04 APERTURE END LIST*
D10*
X119575000Y-80137500D03*
X124575000Y-80137500D03*
D11*
X118575000Y-77437500D03*
X125575000Y-77437500D03*
D12*
X118645920Y-115861700D03*
X119616200Y-115861700D03*
X120581400Y-115861700D03*
X121551680Y-115861700D03*
X121551680Y-117258700D03*
X120581400Y-117258700D03*
X119616200Y-117258700D03*
X118645920Y-117258700D03*
D13*
X139250400Y-104825400D03*
D14*
X140602800Y-108451400D03*
X140602800Y-109251400D03*
X140602800Y-110051400D03*
X140602800Y-110851400D03*
X138202800Y-110871400D03*
X138202800Y-110051400D03*
X138202800Y-109251400D03*
X138202800Y-108451400D03*
D15*
X127522400Y-117958600D03*
X134722400Y-117958600D03*
X127522400Y-114958600D03*
X134722400Y-114958600D03*
X112446600Y-114984000D03*
X105246600Y-114984000D03*
X112446600Y-117984000D03*
X105246600Y-117984000D03*
X105246600Y-80050000D03*
X112446600Y-80050000D03*
X105246600Y-77050000D03*
X112446600Y-77050000D03*
X134722400Y-77050000D03*
X127522400Y-77050000D03*
X134722400Y-80050000D03*
X127522400Y-80050000D03*
D16*
X126825000Y-84000000D03*
X124025000Y-83675000D03*
X110175000Y-81025000D03*
X108925000Y-86100000D03*
X111950000Y-86800000D03*
X114925000Y-90150000D03*
X123900000Y-91400000D03*
X126900000Y-89500000D03*
X129334994Y-106230000D03*
X130535000Y-106250000D03*
X103835000Y-111920000D03*
X115095000Y-77040000D03*
X122285000Y-100740000D03*
X138025000Y-104820000D03*
X140475000Y-104830000D03*
X139245000Y-103600000D03*
X139245000Y-106057400D03*
X137375000Y-111780000D03*
X115145000Y-116900000D03*
X117075000Y-113640000D03*
X115787600Y-113640000D03*
X114305000Y-113080000D03*
X114295000Y-112440000D03*
X111655000Y-109380000D03*
X111655000Y-110370000D03*
X111655000Y-111370000D03*
X111635000Y-112800000D03*
X124985000Y-118000000D03*
X126025000Y-116260000D03*
X126025000Y-114110000D03*
X140615000Y-107550000D03*
X140245000Y-90350000D03*
X122385000Y-102250000D03*
X122785000Y-99750000D03*
X122345000Y-99250000D03*
X122765000Y-98750000D03*
X122355000Y-98240000D03*
X122775000Y-97740000D03*
X122375000Y-97240000D03*
X122815000Y-96730000D03*
X122375000Y-96240000D03*
X122795879Y-95741043D03*
X122379524Y-92242470D03*
X136845000Y-91700000D03*
X136195000Y-95200000D03*
X136205000Y-98500000D03*
X136845000Y-101930000D03*
X135745000Y-101940000D03*
X134655000Y-101940000D03*
X128055000Y-101960000D03*
X129625000Y-99590000D03*
X130525000Y-95750000D03*
X128045000Y-91769800D03*
X116455000Y-87650000D03*
X116995000Y-84820000D03*
X111070000Y-79415000D03*
X110210000Y-79425000D03*
X111070000Y-78645000D03*
X110200000Y-78655000D03*
X108220000Y-79305000D03*
X112215000Y-85500000D03*
X111205000Y-85520000D03*
X110235000Y-85520000D03*
X111070800Y-80314000D03*
X118600000Y-108000000D03*
X103775000Y-80175000D03*
X103775000Y-80875000D03*
X103200000Y-80500000D03*
X128125000Y-85600000D03*
X131935000Y-89275000D03*
X125205000Y-99040000D03*
X112425000Y-113810000D03*
X134735000Y-113730000D03*
X137475000Y-110040000D03*
X137465000Y-108440000D03*
X122505000Y-117240000D03*
X107800000Y-83175000D03*
X107800000Y-81025000D03*
X122370238Y-95236107D03*
X130970000Y-96316400D03*
X122805344Y-94739304D03*
X126042400Y-94360600D03*
X122816600Y-92737540D03*
X128633200Y-89534600D03*
X122385234Y-93237595D03*
X129141200Y-90195000D03*
X122374640Y-94238680D03*
X129725400Y-91287200D03*
X122814589Y-93739377D03*
X130258800Y-90779200D03*
X133545000Y-81920000D03*
X132445000Y-94920000D03*
X132275000Y-81910000D03*
X131355000Y-94930000D03*
X134125000Y-89680000D03*
X139125000Y-89250000D03*
X134815000Y-81920000D03*
X133555000Y-94920000D03*
X132445000Y-98790000D03*
X119175000Y-111860000D03*
X119605000Y-115000000D03*
X118735000Y-112470000D03*
X133555000Y-98790000D03*
X114985000Y-115379100D03*
X125805000Y-98480000D03*
X132075000Y-110470000D03*
X115285000Y-108820000D03*
X116546700Y-115861700D03*
X126415000Y-97410000D03*
X133365000Y-110480000D03*
X116645000Y-108780000D03*
X117745000Y-117260000D03*
X137375000Y-110890000D03*
X139945000Y-109250000D03*
X135450000Y-94975000D03*
X107075000Y-77050000D03*
X118275000Y-88425000D03*
X127100000Y-88425000D03*
X120900000Y-88425000D03*
X136195000Y-77030000D03*
X135150000Y-91075000D03*
X134650000Y-94975000D03*
X131900000Y-95575000D03*
X129075000Y-83850000D03*
X130600000Y-85400000D03*
X131900000Y-91025000D03*
D17*
X126825000Y-84000000D02*
X124350000Y-84000000D01*
X124350000Y-84000000D02*
X124025000Y-83675000D01*
X110175000Y-81025000D02*
X108925000Y-82275000D01*
X108925000Y-82275000D02*
X108925000Y-86100000D01*
X111950000Y-86800000D02*
X111950000Y-88050000D01*
X111950000Y-88050000D02*
X113250000Y-89350000D01*
X114125000Y-89350000D02*
X114925000Y-90150000D01*
X113250000Y-89350000D02*
X114125000Y-89350000D01*
X124975000Y-91400000D02*
X123900000Y-91400000D01*
X126900000Y-89500000D02*
X126875000Y-89500000D01*
X126875000Y-89500000D02*
X124975000Y-91400000D01*
X140602800Y-107562200D02*
X140615000Y-107550000D01*
X140602800Y-108451400D02*
X140602800Y-107562200D01*
X125205000Y-99040000D02*
X125195000Y-99050000D01*
X125195000Y-99050000D02*
X125195000Y-102650000D01*
X125195000Y-102650000D02*
X124775000Y-103070000D01*
X124775000Y-103070000D02*
X113835000Y-103070000D01*
X113835000Y-103070000D02*
X112425000Y-104480000D01*
X112425000Y-104480000D02*
X112425000Y-113810000D01*
X112446600Y-113831600D02*
X112425000Y-113810000D01*
X112446600Y-114984000D02*
X112446600Y-113831600D01*
X105246600Y-114984000D02*
X112446600Y-114984000D01*
X134722400Y-114958600D02*
X133770000Y-114958600D01*
X133770000Y-114958600D02*
X127522400Y-114958600D01*
X134735000Y-113730000D02*
X134735000Y-114946000D01*
X134735000Y-114946000D02*
X134722400Y-114958600D01*
X137486400Y-110051400D02*
X137475000Y-110040000D01*
X138202800Y-110051400D02*
X137486400Y-110051400D01*
X137476400Y-108451400D02*
X137465000Y-108440000D01*
X138202800Y-108451400D02*
X137476400Y-108451400D01*
X122486300Y-117258700D02*
X122505000Y-117240000D01*
X121551680Y-117258700D02*
X122486300Y-117258700D01*
X107800000Y-83175000D02*
X107800000Y-81025000D01*
X122371031Y-95236900D02*
X127147300Y-95236900D01*
X122370238Y-95236107D02*
X122371031Y-95236900D01*
X127147300Y-95236900D02*
X128226800Y-96316400D01*
X128226800Y-96316400D02*
X130970000Y-96316400D01*
X124901696Y-94739304D02*
X125280400Y-94360600D01*
X122805344Y-94739304D02*
X124901696Y-94739304D01*
X125280400Y-94360600D02*
X126042400Y-94360600D01*
X124407460Y-92737540D02*
X127610400Y-89534600D01*
X122816600Y-92737540D02*
X124407460Y-92737540D01*
X127610400Y-89534600D02*
X128273990Y-89534600D01*
X128273990Y-89534600D02*
X128633200Y-89534600D01*
X124587405Y-93237595D02*
X127630000Y-90195000D01*
X122385234Y-93237595D02*
X124587405Y-93237595D01*
X127630000Y-90195000D02*
X129141200Y-90195000D01*
X124741920Y-94238680D02*
X127693400Y-91287200D01*
X122374640Y-94238680D02*
X124741920Y-94238680D01*
X127693400Y-91287200D02*
X129366190Y-91287200D01*
X129366190Y-91287200D02*
X129725400Y-91287200D01*
X124705623Y-93739377D02*
X127665800Y-90779200D01*
X122814589Y-93739377D02*
X124705623Y-93739377D01*
X127665800Y-90779200D02*
X130258800Y-90779200D01*
X132445000Y-84830000D02*
X133545000Y-83730000D01*
X132445000Y-94920000D02*
X132445000Y-84830000D01*
X133545000Y-83730000D02*
X133545000Y-82210000D01*
X133545000Y-82210000D02*
X133545000Y-81920000D01*
X132275000Y-83530000D02*
X132275000Y-82200000D01*
X131355000Y-84450000D02*
X132275000Y-83530000D01*
X131355000Y-94930000D02*
X131355000Y-84450000D01*
X132275000Y-82200000D02*
X132275000Y-81910000D01*
X138948999Y-89426001D02*
X139125000Y-89250000D01*
X134125000Y-89680000D02*
X135030000Y-88775000D01*
X138650000Y-88775000D02*
X139125000Y-89250000D01*
X135030000Y-88775000D02*
X138650000Y-88775000D01*
X134815000Y-83980000D02*
X134815000Y-82210000D01*
X133555000Y-85240000D02*
X134815000Y-83980000D01*
X133555000Y-94920000D02*
X133555000Y-85240000D01*
X134815000Y-82210000D02*
X134815000Y-81920000D01*
X132145000Y-107900000D02*
X132445000Y-107600000D01*
X122225000Y-111590000D02*
X122225000Y-108710000D01*
X123035000Y-107900000D02*
X132145000Y-107900000D01*
X121955000Y-111860000D02*
X122225000Y-111590000D01*
X122225000Y-108710000D02*
X123035000Y-107900000D01*
X132445000Y-107600000D02*
X132445000Y-105800000D01*
X119175000Y-111860000D02*
X121955000Y-111860000D01*
X132445000Y-105800000D02*
X132445000Y-98790000D01*
X119616200Y-115011200D02*
X119605000Y-115000000D01*
X119616200Y-115861700D02*
X119616200Y-115011200D01*
X122745000Y-112030000D02*
X122305000Y-112470000D01*
X122745000Y-108960000D02*
X122745000Y-112030000D01*
X123385000Y-108320000D02*
X122745000Y-108960000D01*
X132505000Y-108320000D02*
X123385000Y-108320000D01*
X119094210Y-112470000D02*
X118735000Y-112470000D01*
X133555000Y-98790000D02*
X133555000Y-107270000D01*
X133555000Y-107270000D02*
X132505000Y-108320000D01*
X122305000Y-112470000D02*
X119094210Y-112470000D01*
X114985000Y-115379100D02*
X114985000Y-115490000D01*
X114985000Y-114385000D02*
X114985000Y-115379100D01*
X123715000Y-109700000D02*
X124215000Y-109200000D01*
X123715000Y-115470000D02*
X123715000Y-109700000D01*
X131635000Y-109200000D02*
X132075000Y-109640000D01*
X122625000Y-116560000D02*
X123715000Y-115470000D01*
X119862780Y-116560000D02*
X122625000Y-116560000D01*
X119616200Y-117258700D02*
X119616200Y-116806580D01*
X119616200Y-116806580D02*
X119862780Y-116560000D01*
X124215000Y-109200000D02*
X131635000Y-109200000D01*
X132075000Y-109640000D02*
X132075000Y-110470000D01*
X140602800Y-112262200D02*
X140075000Y-112790000D01*
X140602800Y-110851400D02*
X140602800Y-112262200D01*
X140075000Y-112790000D02*
X133585000Y-112790000D01*
X133585000Y-112790000D02*
X132945000Y-112150000D01*
X132945000Y-112150000D02*
X132945000Y-111340000D01*
X132945000Y-111340000D02*
X132075000Y-110470000D01*
X125805000Y-103070000D02*
X125805000Y-98839210D01*
X116275000Y-104610000D02*
X117295000Y-103590000D01*
X125285000Y-103590000D02*
X125805000Y-103070000D01*
X117295000Y-103590000D02*
X125285000Y-103590000D01*
X115285000Y-108820000D02*
X116275000Y-107830000D01*
X116275000Y-107830000D02*
X116275000Y-104610000D01*
X125805000Y-98839210D02*
X125805000Y-98480000D01*
X115285000Y-108820000D02*
X114985000Y-109120000D01*
X114985000Y-115490000D02*
X117675000Y-118180000D01*
X117675000Y-118180000D02*
X119385000Y-118180000D01*
X119385000Y-118180000D02*
X119616200Y-117948800D01*
X119616200Y-117948800D02*
X119616200Y-117258700D01*
X114985000Y-109120000D02*
X114985000Y-114385000D01*
X116546700Y-115861700D02*
X115289810Y-114604810D01*
X118645920Y-115861700D02*
X116546700Y-115861700D01*
X115289810Y-114604810D02*
X115289810Y-110135190D01*
X115289810Y-110135190D02*
X116645000Y-108780000D01*
X123295000Y-109450000D02*
X123925000Y-108820000D01*
X123925000Y-108820000D02*
X132475000Y-108820000D01*
X123295000Y-113950000D02*
X123295000Y-109450000D01*
X118645920Y-115861700D02*
X118645920Y-114769080D01*
X122795000Y-114450000D02*
X123295000Y-113950000D01*
X118965000Y-114450000D02*
X122795000Y-114450000D01*
X118645920Y-114769080D02*
X118965000Y-114450000D01*
X132475000Y-108820000D02*
X133365000Y-109710000D01*
X133365000Y-109710000D02*
X133365000Y-110480000D01*
X139925000Y-110180000D02*
X140053600Y-110051400D01*
X139925000Y-112060000D02*
X139925000Y-110180000D01*
X139585000Y-112400000D02*
X139925000Y-112060000D01*
X133915000Y-112400000D02*
X139585000Y-112400000D01*
X133365000Y-110480000D02*
X133365000Y-111850000D01*
X133365000Y-111850000D02*
X133915000Y-112400000D01*
X140053600Y-110051400D02*
X140602800Y-110051400D01*
X116645000Y-104830000D02*
X117495000Y-103980000D01*
X116645000Y-108780000D02*
X116645000Y-104830000D01*
X117495000Y-103980000D02*
X125575000Y-103980000D01*
X125575000Y-103980000D02*
X126415000Y-103140000D01*
X126415000Y-103140000D02*
X126415000Y-97769210D01*
X126415000Y-97769210D02*
X126415000Y-97410000D01*
X117746300Y-117258700D02*
X117745000Y-117260000D01*
X118645920Y-117258700D02*
X117746300Y-117258700D01*
X137393600Y-110871400D02*
X137375000Y-110890000D01*
X138202800Y-110871400D02*
X137393600Y-110871400D01*
X139945000Y-109250000D02*
X140601400Y-109250000D01*
X140601400Y-109250000D02*
X140602800Y-109251400D01*
D18*
X120581400Y-115233600D02*
X120715000Y-115100000D01*
X120581400Y-115861700D02*
X120581400Y-115233600D01*
X120715000Y-115100000D02*
X121415000Y-115100000D01*
X121415000Y-115100000D02*
X121551680Y-115236680D01*
X121551680Y-115236680D02*
X121551680Y-115861700D01*
D17*
X114135000Y-77050000D02*
X114950000Y-77865000D01*
X112446600Y-77050000D02*
X114135000Y-77050000D01*
X114950000Y-77865000D02*
X114950000Y-82500000D01*
X114950000Y-87625000D02*
X115750000Y-88425000D01*
X114950000Y-82500000D02*
X114950000Y-83250000D01*
X114950000Y-82500000D02*
X114950000Y-87625000D01*
X112446600Y-77050000D02*
X112446600Y-77446600D01*
X105246600Y-77050000D02*
X107075000Y-77050000D01*
X107075000Y-77050000D02*
X112446600Y-77050000D01*
X115750000Y-88425000D02*
X117350000Y-88425000D01*
X120900000Y-88425000D02*
X123205000Y-88425000D01*
X123205000Y-88425000D02*
X127100000Y-88425000D01*
X117350000Y-88425000D02*
X118275000Y-88425000D01*
X134722400Y-77050000D02*
X136175000Y-77050000D01*
X136175000Y-77050000D02*
X136195000Y-77030000D01*
X127522400Y-77050000D02*
X134722400Y-77050000D01*
X134650000Y-94975000D02*
X134650000Y-91575000D01*
X134650000Y-91575000D02*
X135150000Y-91075000D01*
X131900000Y-95575000D02*
X131900000Y-91025000D01*
X129075000Y-83850000D02*
X130600000Y-85375000D01*
X130600000Y-85375000D02*
X130600000Y-85400000D01*
G36*
X104221308Y-76305187D02*
G01*
X104216894Y-76350000D01*
X104216894Y-77750000D01*
X104221308Y-77794813D01*
X104234379Y-77837905D01*
X104255606Y-77877618D01*
X104284173Y-77912427D01*
X104318982Y-77940994D01*
X104358695Y-77962221D01*
X104401787Y-77975292D01*
X104446600Y-77979706D01*
X106046600Y-77979706D01*
X106091413Y-77975292D01*
X106134505Y-77962221D01*
X106174218Y-77940994D01*
X106209027Y-77912427D01*
X106237594Y-77877618D01*
X106258821Y-77837905D01*
X106271892Y-77794813D01*
X106276306Y-77750000D01*
X106276306Y-77354800D01*
X106698242Y-77354800D01*
X106700140Y-77357640D01*
X106767360Y-77424860D01*
X106846403Y-77477674D01*
X106934231Y-77514054D01*
X107027468Y-77532600D01*
X107122532Y-77532600D01*
X107215769Y-77514054D01*
X107303597Y-77477674D01*
X107382640Y-77424860D01*
X107449860Y-77357640D01*
X107451758Y-77354800D01*
X111416894Y-77354800D01*
X111416894Y-77750000D01*
X111421308Y-77794813D01*
X111434379Y-77837905D01*
X111455606Y-77877618D01*
X111484173Y-77912427D01*
X111518982Y-77940994D01*
X111558695Y-77962221D01*
X111601787Y-77975292D01*
X111646600Y-77979706D01*
X113246600Y-77979706D01*
X113291413Y-77975292D01*
X113334505Y-77962221D01*
X113374218Y-77940994D01*
X113409027Y-77912427D01*
X113437594Y-77877618D01*
X113458821Y-77837905D01*
X113471892Y-77794813D01*
X113476306Y-77750000D01*
X113476306Y-77354800D01*
X114008749Y-77354800D01*
X114645200Y-77991252D01*
X114645201Y-82485025D01*
X114645200Y-82485035D01*
X114645201Y-87610032D01*
X114643727Y-87625000D01*
X114649611Y-87684751D01*
X114667040Y-87742205D01*
X114669811Y-87747389D01*
X114695343Y-87795157D01*
X114733433Y-87841568D01*
X114745057Y-87851108D01*
X115523892Y-88629944D01*
X115533432Y-88641568D01*
X115579843Y-88679658D01*
X115632794Y-88707960D01*
X115690248Y-88725389D01*
X115695403Y-88725897D01*
X115735034Y-88729800D01*
X115735042Y-88729800D01*
X115750000Y-88731273D01*
X115764958Y-88729800D01*
X117898242Y-88729800D01*
X117900140Y-88732640D01*
X117967360Y-88799860D01*
X118046403Y-88852674D01*
X118134231Y-88889054D01*
X118227468Y-88907600D01*
X118322532Y-88907600D01*
X118415769Y-88889054D01*
X118503597Y-88852674D01*
X118582640Y-88799860D01*
X118649860Y-88732640D01*
X118702674Y-88653597D01*
X118739054Y-88565769D01*
X118757600Y-88472532D01*
X118757600Y-88377468D01*
X120417400Y-88377468D01*
X120417400Y-88472532D01*
X120435946Y-88565769D01*
X120472326Y-88653597D01*
X120525140Y-88732640D01*
X120592360Y-88799860D01*
X120671403Y-88852674D01*
X120759231Y-88889054D01*
X120852468Y-88907600D01*
X120947532Y-88907600D01*
X121040769Y-88889054D01*
X121128597Y-88852674D01*
X121207640Y-88799860D01*
X121274860Y-88732640D01*
X121276758Y-88729800D01*
X126723242Y-88729800D01*
X126725140Y-88732640D01*
X126792360Y-88799860D01*
X126871403Y-88852674D01*
X126959231Y-88889054D01*
X127052468Y-88907600D01*
X127147532Y-88907600D01*
X127240769Y-88889054D01*
X127328597Y-88852674D01*
X127407640Y-88799860D01*
X127474860Y-88732640D01*
X127527674Y-88653597D01*
X127564054Y-88565769D01*
X127582600Y-88472532D01*
X127582600Y-88377468D01*
X127564054Y-88284231D01*
X127527674Y-88196403D01*
X127474860Y-88117360D01*
X127407640Y-88050140D01*
X127328597Y-87997326D01*
X127240769Y-87960946D01*
X127147532Y-87942400D01*
X127052468Y-87942400D01*
X126959231Y-87960946D01*
X126871403Y-87997326D01*
X126792360Y-88050140D01*
X126725140Y-88117360D01*
X126723242Y-88120200D01*
X121276758Y-88120200D01*
X121274860Y-88117360D01*
X121207640Y-88050140D01*
X121128597Y-87997326D01*
X121040769Y-87960946D01*
X120947532Y-87942400D01*
X120852468Y-87942400D01*
X120759231Y-87960946D01*
X120671403Y-87997326D01*
X120592360Y-88050140D01*
X120525140Y-88117360D01*
X120472326Y-88196403D01*
X120435946Y-88284231D01*
X120417400Y-88377468D01*
X118757600Y-88377468D01*
X118739054Y-88284231D01*
X118702674Y-88196403D01*
X118649860Y-88117360D01*
X118582640Y-88050140D01*
X118503597Y-87997326D01*
X118415769Y-87960946D01*
X118322532Y-87942400D01*
X118227468Y-87942400D01*
X118134231Y-87960946D01*
X118046403Y-87997326D01*
X117967360Y-88050140D01*
X117900140Y-88117360D01*
X117898242Y-88120200D01*
X115876252Y-88120200D01*
X115254800Y-87498749D01*
X115254800Y-83627468D01*
X123542400Y-83627468D01*
X123542400Y-83722532D01*
X123560946Y-83815769D01*
X123597326Y-83903597D01*
X123650140Y-83982640D01*
X123717360Y-84049860D01*
X123796403Y-84102674D01*
X123884231Y-84139054D01*
X123977468Y-84157600D01*
X124072532Y-84157600D01*
X124075882Y-84156934D01*
X124123892Y-84204944D01*
X124133432Y-84216568D01*
X124179843Y-84254658D01*
X124232794Y-84282960D01*
X124272819Y-84295102D01*
X124290248Y-84300389D01*
X124295889Y-84300945D01*
X124335034Y-84304800D01*
X124335041Y-84304800D01*
X124349999Y-84306273D01*
X124364957Y-84304800D01*
X126448242Y-84304800D01*
X126450140Y-84307640D01*
X126517360Y-84374860D01*
X126596403Y-84427674D01*
X126684231Y-84464054D01*
X126777468Y-84482600D01*
X126872532Y-84482600D01*
X126965769Y-84464054D01*
X127053597Y-84427674D01*
X127132640Y-84374860D01*
X127199860Y-84307640D01*
X127252674Y-84228597D01*
X127289054Y-84140769D01*
X127307600Y-84047532D01*
X127307600Y-83952468D01*
X127289054Y-83859231D01*
X127265542Y-83802468D01*
X128592400Y-83802468D01*
X128592400Y-83897532D01*
X128610946Y-83990769D01*
X128647326Y-84078597D01*
X128700140Y-84157640D01*
X128767360Y-84224860D01*
X128846403Y-84277674D01*
X128934231Y-84314054D01*
X129027468Y-84332600D01*
X129122532Y-84332600D01*
X129125882Y-84331934D01*
X130122214Y-85328266D01*
X130117400Y-85352468D01*
X130117400Y-85447532D01*
X130135946Y-85540769D01*
X130172326Y-85628597D01*
X130225140Y-85707640D01*
X130292360Y-85774860D01*
X130371403Y-85827674D01*
X130459231Y-85864054D01*
X130552468Y-85882600D01*
X130647532Y-85882600D01*
X130740769Y-85864054D01*
X130828597Y-85827674D01*
X130907640Y-85774860D01*
X130974860Y-85707640D01*
X131027674Y-85628597D01*
X131050201Y-85574213D01*
X131050200Y-94553242D01*
X131047360Y-94555140D01*
X130980140Y-94622360D01*
X130927326Y-94701403D01*
X130890946Y-94789231D01*
X130872400Y-94882468D01*
X130872400Y-94977532D01*
X130890946Y-95070769D01*
X130927326Y-95158597D01*
X130980140Y-95237640D01*
X131047360Y-95304860D01*
X131126403Y-95357674D01*
X131214231Y-95394054D01*
X131307468Y-95412600D01*
X131402532Y-95412600D01*
X131448711Y-95403414D01*
X131435946Y-95434231D01*
X131417400Y-95527468D01*
X131417400Y-95622532D01*
X131435946Y-95715769D01*
X131472326Y-95803597D01*
X131525140Y-95882640D01*
X131592360Y-95949860D01*
X131671403Y-96002674D01*
X131759231Y-96039054D01*
X131852468Y-96057600D01*
X131947532Y-96057600D01*
X132040769Y-96039054D01*
X132128597Y-96002674D01*
X132207640Y-95949860D01*
X132274860Y-95882640D01*
X132327674Y-95803597D01*
X132364054Y-95715769D01*
X132382600Y-95622532D01*
X132382600Y-95527468D01*
X132364054Y-95434231D01*
X132346775Y-95392517D01*
X132397468Y-95402600D01*
X132492532Y-95402600D01*
X132585769Y-95384054D01*
X132673597Y-95347674D01*
X132752640Y-95294860D01*
X132819860Y-95227640D01*
X132872674Y-95148597D01*
X132909054Y-95060769D01*
X132927600Y-94967532D01*
X132927600Y-94872468D01*
X133072400Y-94872468D01*
X133072400Y-94967532D01*
X133090946Y-95060769D01*
X133127326Y-95148597D01*
X133180140Y-95227640D01*
X133247360Y-95294860D01*
X133326403Y-95347674D01*
X133414231Y-95384054D01*
X133507468Y-95402600D01*
X133602532Y-95402600D01*
X133695769Y-95384054D01*
X133783597Y-95347674D01*
X133862640Y-95294860D01*
X133929860Y-95227640D01*
X133982674Y-95148597D01*
X134019054Y-95060769D01*
X134037600Y-94967532D01*
X134037600Y-94927468D01*
X134167400Y-94927468D01*
X134167400Y-95022532D01*
X134185946Y-95115769D01*
X134222326Y-95203597D01*
X134275140Y-95282640D01*
X134342360Y-95349860D01*
X134421403Y-95402674D01*
X134509231Y-95439054D01*
X134602468Y-95457600D01*
X134697532Y-95457600D01*
X134790769Y-95439054D01*
X134878597Y-95402674D01*
X134957640Y-95349860D01*
X135024860Y-95282640D01*
X135050000Y-95245015D01*
X135075140Y-95282640D01*
X135142360Y-95349860D01*
X135221403Y-95402674D01*
X135309231Y-95439054D01*
X135402468Y-95457600D01*
X135497532Y-95457600D01*
X135590769Y-95439054D01*
X135678597Y-95402674D01*
X135757640Y-95349860D01*
X135824860Y-95282640D01*
X135877674Y-95203597D01*
X135914054Y-95115769D01*
X135932600Y-95022532D01*
X135932600Y-94927468D01*
X135914054Y-94834231D01*
X135877674Y-94746403D01*
X135824860Y-94667360D01*
X135757640Y-94600140D01*
X135678597Y-94547326D01*
X135590769Y-94510946D01*
X135497532Y-94492400D01*
X135402468Y-94492400D01*
X135309231Y-94510946D01*
X135221403Y-94547326D01*
X135142360Y-94600140D01*
X135075140Y-94667360D01*
X135050000Y-94704985D01*
X135024860Y-94667360D01*
X134957640Y-94600140D01*
X134954800Y-94598242D01*
X134954800Y-91701251D01*
X135099118Y-91556934D01*
X135102468Y-91557600D01*
X135197532Y-91557600D01*
X135290769Y-91539054D01*
X135378597Y-91502674D01*
X135457640Y-91449860D01*
X135524860Y-91382640D01*
X135577674Y-91303597D01*
X135614054Y-91215769D01*
X135632600Y-91122532D01*
X135632600Y-91027468D01*
X135614054Y-90934231D01*
X135577674Y-90846403D01*
X135524860Y-90767360D01*
X135457640Y-90700140D01*
X135378597Y-90647326D01*
X135290769Y-90610946D01*
X135197532Y-90592400D01*
X135102468Y-90592400D01*
X135009231Y-90610946D01*
X134921403Y-90647326D01*
X134842360Y-90700140D01*
X134775140Y-90767360D01*
X134722326Y-90846403D01*
X134685946Y-90934231D01*
X134667400Y-91027468D01*
X134667400Y-91122532D01*
X134668066Y-91125882D01*
X134445056Y-91348893D01*
X134433433Y-91358432D01*
X134395343Y-91404843D01*
X134382982Y-91427969D01*
X134367040Y-91457795D01*
X134349611Y-91515249D01*
X134343727Y-91575000D01*
X134345201Y-91589968D01*
X134345200Y-94598242D01*
X134342360Y-94600140D01*
X134275140Y-94667360D01*
X134222326Y-94746403D01*
X134185946Y-94834231D01*
X134167400Y-94927468D01*
X134037600Y-94927468D01*
X134037600Y-94872468D01*
X134019054Y-94779231D01*
X133982674Y-94691403D01*
X133929860Y-94612360D01*
X133862640Y-94545140D01*
X133859800Y-94543242D01*
X133859800Y-90083217D01*
X133896403Y-90107674D01*
X133984231Y-90144054D01*
X134077468Y-90162600D01*
X134172532Y-90162600D01*
X134265769Y-90144054D01*
X134353597Y-90107674D01*
X134432640Y-90054860D01*
X134499860Y-89987640D01*
X134552674Y-89908597D01*
X134589054Y-89820769D01*
X134607600Y-89727532D01*
X134607600Y-89632468D01*
X134606934Y-89629118D01*
X135156252Y-89079800D01*
X138523749Y-89079800D01*
X138643066Y-89199118D01*
X138642400Y-89202468D01*
X138642400Y-89297532D01*
X138653115Y-89351400D01*
X138648610Y-89366250D01*
X138642726Y-89426001D01*
X138648610Y-89485752D01*
X138666039Y-89543206D01*
X138694342Y-89596157D01*
X138732431Y-89642569D01*
X138778843Y-89680658D01*
X138831794Y-89708961D01*
X138889248Y-89726390D01*
X138948999Y-89732274D01*
X139008750Y-89726390D01*
X139023600Y-89721885D01*
X139077468Y-89732600D01*
X139172532Y-89732600D01*
X139265769Y-89714054D01*
X139353597Y-89677674D01*
X139432640Y-89624860D01*
X139499860Y-89557640D01*
X139552674Y-89478597D01*
X139589054Y-89390769D01*
X139607600Y-89297532D01*
X139607600Y-89202468D01*
X139589054Y-89109231D01*
X139552674Y-89021403D01*
X139499860Y-88942360D01*
X139432640Y-88875140D01*
X139353597Y-88822326D01*
X139265769Y-88785946D01*
X139172532Y-88767400D01*
X139077468Y-88767400D01*
X139074118Y-88768066D01*
X138876112Y-88570061D01*
X138866568Y-88558432D01*
X138820157Y-88520342D01*
X138767206Y-88492040D01*
X138709751Y-88474611D01*
X138664966Y-88470200D01*
X138664958Y-88470200D01*
X138650000Y-88468727D01*
X138635042Y-88470200D01*
X135044957Y-88470200D01*
X135029999Y-88468727D01*
X135015041Y-88470200D01*
X135015034Y-88470200D01*
X134975889Y-88474055D01*
X134970248Y-88474611D01*
X134956876Y-88478668D01*
X134912794Y-88492040D01*
X134859843Y-88520342D01*
X134813432Y-88558432D01*
X134803892Y-88570056D01*
X134175882Y-89198066D01*
X134172532Y-89197400D01*
X134077468Y-89197400D01*
X133984231Y-89215946D01*
X133896403Y-89252326D01*
X133859800Y-89276783D01*
X133859800Y-85366251D01*
X135019945Y-84206107D01*
X135031568Y-84196568D01*
X135069658Y-84150157D01*
X135097960Y-84097206D01*
X135109322Y-84059750D01*
X135115389Y-84039752D01*
X135117319Y-84020156D01*
X135119800Y-83994966D01*
X135119800Y-83994959D01*
X135121273Y-83980001D01*
X135119800Y-83965043D01*
X135119800Y-82296758D01*
X135122640Y-82294860D01*
X135189860Y-82227640D01*
X135242674Y-82148597D01*
X135279054Y-82060769D01*
X135297600Y-81967532D01*
X135297600Y-81872468D01*
X135279054Y-81779231D01*
X135242674Y-81691403D01*
X135189860Y-81612360D01*
X135122640Y-81545140D01*
X135043597Y-81492326D01*
X134955769Y-81455946D01*
X134862532Y-81437400D01*
X134767468Y-81437400D01*
X134674231Y-81455946D01*
X134586403Y-81492326D01*
X134507360Y-81545140D01*
X134440140Y-81612360D01*
X134387326Y-81691403D01*
X134350946Y-81779231D01*
X134332400Y-81872468D01*
X134332400Y-81967532D01*
X134350946Y-82060769D01*
X134387326Y-82148597D01*
X134440140Y-82227640D01*
X134507360Y-82294860D01*
X134510201Y-82296758D01*
X134510200Y-83853748D01*
X133350057Y-85013892D01*
X133338433Y-85023432D01*
X133300343Y-85069843D01*
X133297795Y-85074611D01*
X133272040Y-85122795D01*
X133254611Y-85180249D01*
X133248727Y-85240000D01*
X133250201Y-85254968D01*
X133250200Y-94543242D01*
X133247360Y-94545140D01*
X133180140Y-94612360D01*
X133127326Y-94691403D01*
X133090946Y-94779231D01*
X133072400Y-94872468D01*
X132927600Y-94872468D01*
X132909054Y-94779231D01*
X132872674Y-94691403D01*
X132819860Y-94612360D01*
X132752640Y-94545140D01*
X132749800Y-94543242D01*
X132749800Y-84956251D01*
X133749945Y-83956107D01*
X133761568Y-83946568D01*
X133799658Y-83900157D01*
X133827960Y-83847206D01*
X133831276Y-83836274D01*
X133845389Y-83789752D01*
X133847981Y-83763432D01*
X133849800Y-83744966D01*
X133849800Y-83744958D01*
X133851273Y-83730000D01*
X133849800Y-83715042D01*
X133849800Y-82296758D01*
X133852640Y-82294860D01*
X133919860Y-82227640D01*
X133972674Y-82148597D01*
X134009054Y-82060769D01*
X134027600Y-81967532D01*
X134027600Y-81872468D01*
X134009054Y-81779231D01*
X133972674Y-81691403D01*
X133919860Y-81612360D01*
X133852640Y-81545140D01*
X133773597Y-81492326D01*
X133685769Y-81455946D01*
X133592532Y-81437400D01*
X133497468Y-81437400D01*
X133404231Y-81455946D01*
X133316403Y-81492326D01*
X133237360Y-81545140D01*
X133170140Y-81612360D01*
X133117326Y-81691403D01*
X133080946Y-81779231D01*
X133062400Y-81872468D01*
X133062400Y-81967532D01*
X133080946Y-82060769D01*
X133117326Y-82148597D01*
X133170140Y-82227640D01*
X133237360Y-82294860D01*
X133240201Y-82296758D01*
X133240200Y-83603748D01*
X132240057Y-84603892D01*
X132228433Y-84613432D01*
X132190343Y-84659843D01*
X132175215Y-84688146D01*
X132162040Y-84712795D01*
X132144611Y-84770249D01*
X132138727Y-84830000D01*
X132140201Y-84844968D01*
X132140200Y-90605079D01*
X132128597Y-90597326D01*
X132040769Y-90560946D01*
X131947532Y-90542400D01*
X131852468Y-90542400D01*
X131759231Y-90560946D01*
X131671403Y-90597326D01*
X131659800Y-90605079D01*
X131659800Y-84576251D01*
X132479945Y-83756107D01*
X132491568Y-83746568D01*
X132529658Y-83700157D01*
X132557960Y-83647206D01*
X132575389Y-83589751D01*
X132579800Y-83544966D01*
X132579800Y-83544959D01*
X132581273Y-83530001D01*
X132579800Y-83515043D01*
X132579800Y-82286758D01*
X132582640Y-82284860D01*
X132649860Y-82217640D01*
X132702674Y-82138597D01*
X132739054Y-82050769D01*
X132757600Y-81957532D01*
X132757600Y-81862468D01*
X132739054Y-81769231D01*
X132702674Y-81681403D01*
X132649860Y-81602360D01*
X132582640Y-81535140D01*
X132503597Y-81482326D01*
X132415769Y-81445946D01*
X132322532Y-81427400D01*
X132227468Y-81427400D01*
X132134231Y-81445946D01*
X132046403Y-81482326D01*
X131967360Y-81535140D01*
X131900140Y-81602360D01*
X131847326Y-81681403D01*
X131810946Y-81769231D01*
X131792400Y-81862468D01*
X131792400Y-81957532D01*
X131810946Y-82050769D01*
X131847326Y-82138597D01*
X131900140Y-82217640D01*
X131967360Y-82284860D01*
X131970201Y-82286758D01*
X131970200Y-83403748D01*
X131150057Y-84223892D01*
X131138433Y-84233432D01*
X131100343Y-84279843D01*
X131098678Y-84282959D01*
X131072040Y-84332795D01*
X131054611Y-84390249D01*
X131048727Y-84450000D01*
X131050201Y-84464968D01*
X131050201Y-85225787D01*
X131027674Y-85171403D01*
X130974860Y-85092360D01*
X130907640Y-85025140D01*
X130828597Y-84972326D01*
X130740769Y-84935946D01*
X130647532Y-84917400D01*
X130573452Y-84917400D01*
X129556934Y-83900882D01*
X129557600Y-83897532D01*
X129557600Y-83802468D01*
X129539054Y-83709231D01*
X129502674Y-83621403D01*
X129449860Y-83542360D01*
X129382640Y-83475140D01*
X129303597Y-83422326D01*
X129215769Y-83385946D01*
X129122532Y-83367400D01*
X129027468Y-83367400D01*
X128934231Y-83385946D01*
X128846403Y-83422326D01*
X128767360Y-83475140D01*
X128700140Y-83542360D01*
X128647326Y-83621403D01*
X128610946Y-83709231D01*
X128592400Y-83802468D01*
X127265542Y-83802468D01*
X127252674Y-83771403D01*
X127199860Y-83692360D01*
X127132640Y-83625140D01*
X127053597Y-83572326D01*
X126965769Y-83535946D01*
X126872532Y-83517400D01*
X126777468Y-83517400D01*
X126684231Y-83535946D01*
X126596403Y-83572326D01*
X126517360Y-83625140D01*
X126450140Y-83692360D01*
X126448242Y-83695200D01*
X124507600Y-83695200D01*
X124507600Y-83627468D01*
X124489054Y-83534231D01*
X124452674Y-83446403D01*
X124399860Y-83367360D01*
X124332640Y-83300140D01*
X124253597Y-83247326D01*
X124165769Y-83210946D01*
X124072532Y-83192400D01*
X123977468Y-83192400D01*
X123884231Y-83210946D01*
X123796403Y-83247326D01*
X123717360Y-83300140D01*
X123650140Y-83367360D01*
X123597326Y-83446403D01*
X123560946Y-83534231D01*
X123542400Y-83627468D01*
X115254800Y-83627468D01*
X115254800Y-80809556D01*
X118974786Y-80809556D01*
X119053666Y-80941480D01*
X119220532Y-81027739D01*
X119401020Y-81079787D01*
X119588194Y-81095623D01*
X119774862Y-81074639D01*
X119953848Y-81017641D01*
X120096334Y-80941480D01*
X120175214Y-80809556D01*
X123974786Y-80809556D01*
X124053666Y-80941480D01*
X124220532Y-81027739D01*
X124401020Y-81079787D01*
X124588194Y-81095623D01*
X124774862Y-81074639D01*
X124953848Y-81017641D01*
X125096334Y-80941480D01*
X125175214Y-80809556D01*
X125115658Y-80750000D01*
X126492694Y-80750000D01*
X126497108Y-80794813D01*
X126510179Y-80837905D01*
X126531406Y-80877618D01*
X126559973Y-80912427D01*
X126594782Y-80940994D01*
X126634495Y-80962221D01*
X126677587Y-80975292D01*
X126722400Y-80979706D01*
X127414450Y-80978600D01*
X127471600Y-80921450D01*
X127471600Y-80100800D01*
X127573200Y-80100800D01*
X127573200Y-80921450D01*
X127630350Y-80978600D01*
X128322400Y-80979706D01*
X128367213Y-80975292D01*
X128410305Y-80962221D01*
X128450018Y-80940994D01*
X128484827Y-80912427D01*
X128513394Y-80877618D01*
X128534621Y-80837905D01*
X128547692Y-80794813D01*
X128552106Y-80750000D01*
X133692694Y-80750000D01*
X133697108Y-80794813D01*
X133710179Y-80837905D01*
X133731406Y-80877618D01*
X133759973Y-80912427D01*
X133794782Y-80940994D01*
X133834495Y-80962221D01*
X133877587Y-80975292D01*
X133922400Y-80979706D01*
X134614450Y-80978600D01*
X134671600Y-80921450D01*
X134671600Y-80100800D01*
X134773200Y-80100800D01*
X134773200Y-80921450D01*
X134830350Y-80978600D01*
X135522400Y-80979706D01*
X135567213Y-80975292D01*
X135610305Y-80962221D01*
X135650018Y-80940994D01*
X135684827Y-80912427D01*
X135713394Y-80877618D01*
X135734621Y-80837905D01*
X135747692Y-80794813D01*
X135752106Y-80750000D01*
X135751000Y-80157950D01*
X135693850Y-80100800D01*
X134773200Y-80100800D01*
X134671600Y-80100800D01*
X133750950Y-80100800D01*
X133693800Y-80157950D01*
X133692694Y-80750000D01*
X128552106Y-80750000D01*
X128551000Y-80157950D01*
X128493850Y-80100800D01*
X127573200Y-80100800D01*
X127471600Y-80100800D01*
X126550950Y-80100800D01*
X126493800Y-80157950D01*
X126492694Y-80750000D01*
X125115658Y-80750000D01*
X124575000Y-80209342D01*
X123974786Y-80809556D01*
X120175214Y-80809556D01*
X119575000Y-80209342D01*
X118974786Y-80809556D01*
X115254800Y-80809556D01*
X115254800Y-80150694D01*
X118616877Y-80150694D01*
X118637861Y-80337362D01*
X118694859Y-80516348D01*
X118771020Y-80658834D01*
X118902944Y-80737714D01*
X119503158Y-80137500D01*
X119646842Y-80137500D01*
X120247056Y-80737714D01*
X120378980Y-80658834D01*
X120465239Y-80491968D01*
X120517287Y-80311480D01*
X120530890Y-80150694D01*
X123616877Y-80150694D01*
X123637861Y-80337362D01*
X123694859Y-80516348D01*
X123771020Y-80658834D01*
X123902944Y-80737714D01*
X124503158Y-80137500D01*
X124646842Y-80137500D01*
X125247056Y-80737714D01*
X125378980Y-80658834D01*
X125465239Y-80491968D01*
X125517287Y-80311480D01*
X125533123Y-80124306D01*
X125512139Y-79937638D01*
X125455141Y-79758652D01*
X125378980Y-79616166D01*
X125247056Y-79537286D01*
X124646842Y-80137500D01*
X124503158Y-80137500D01*
X123902944Y-79537286D01*
X123771020Y-79616166D01*
X123684761Y-79783032D01*
X123632713Y-79963520D01*
X123616877Y-80150694D01*
X120530890Y-80150694D01*
X120533123Y-80124306D01*
X120512139Y-79937638D01*
X120455141Y-79758652D01*
X120378980Y-79616166D01*
X120247056Y-79537286D01*
X119646842Y-80137500D01*
X119503158Y-80137500D01*
X118902944Y-79537286D01*
X118771020Y-79616166D01*
X118684761Y-79783032D01*
X118632713Y-79963520D01*
X118616877Y-80150694D01*
X115254800Y-80150694D01*
X115254800Y-79465444D01*
X118974786Y-79465444D01*
X119575000Y-80065658D01*
X120175214Y-79465444D01*
X123974786Y-79465444D01*
X124575000Y-80065658D01*
X125175214Y-79465444D01*
X125106188Y-79350000D01*
X126492694Y-79350000D01*
X126493800Y-79942050D01*
X126550950Y-79999200D01*
X127471600Y-79999200D01*
X127471600Y-79178550D01*
X127573200Y-79178550D01*
X127573200Y-79999200D01*
X128493850Y-79999200D01*
X128551000Y-79942050D01*
X128552106Y-79350000D01*
X133692694Y-79350000D01*
X133693800Y-79942050D01*
X133750950Y-79999200D01*
X134671600Y-79999200D01*
X134671600Y-79178550D01*
X134773200Y-79178550D01*
X134773200Y-79999200D01*
X135693850Y-79999200D01*
X135751000Y-79942050D01*
X135752106Y-79350000D01*
X135747692Y-79305187D01*
X135734621Y-79262095D01*
X135713394Y-79222382D01*
X135684827Y-79187573D01*
X135650018Y-79159006D01*
X135610305Y-79137779D01*
X135567213Y-79124708D01*
X135522400Y-79120294D01*
X134830350Y-79121400D01*
X134773200Y-79178550D01*
X134671600Y-79178550D01*
X134614450Y-79121400D01*
X133922400Y-79120294D01*
X133877587Y-79124708D01*
X133834495Y-79137779D01*
X133794782Y-79159006D01*
X133759973Y-79187573D01*
X133731406Y-79222382D01*
X133710179Y-79262095D01*
X133697108Y-79305187D01*
X133692694Y-79350000D01*
X128552106Y-79350000D01*
X128547692Y-79305187D01*
X128534621Y-79262095D01*
X128513394Y-79222382D01*
X128484827Y-79187573D01*
X128450018Y-79159006D01*
X128410305Y-79137779D01*
X128367213Y-79124708D01*
X128322400Y-79120294D01*
X127630350Y-79121400D01*
X127573200Y-79178550D01*
X127471600Y-79178550D01*
X127414450Y-79121400D01*
X126722400Y-79120294D01*
X126677587Y-79124708D01*
X126634495Y-79137779D01*
X126594782Y-79159006D01*
X126559973Y-79187573D01*
X126531406Y-79222382D01*
X126510179Y-79262095D01*
X126497108Y-79305187D01*
X126492694Y-79350000D01*
X125106188Y-79350000D01*
X125096334Y-79333520D01*
X124929468Y-79247261D01*
X124748980Y-79195213D01*
X124561806Y-79179377D01*
X124375138Y-79200361D01*
X124196152Y-79257359D01*
X124053666Y-79333520D01*
X123974786Y-79465444D01*
X120175214Y-79465444D01*
X120096334Y-79333520D01*
X119929468Y-79247261D01*
X119748980Y-79195213D01*
X119561806Y-79179377D01*
X119375138Y-79200361D01*
X119196152Y-79257359D01*
X119053666Y-79333520D01*
X118974786Y-79465444D01*
X115254800Y-79465444D01*
X115254800Y-77879957D01*
X115256273Y-77864999D01*
X115254800Y-77850041D01*
X115254800Y-77850034D01*
X115250389Y-77805249D01*
X115246134Y-77791220D01*
X115232960Y-77747794D01*
X115225808Y-77734413D01*
X115204658Y-77694843D01*
X115166568Y-77648432D01*
X115154945Y-77638893D01*
X115004352Y-77488300D01*
X117746400Y-77488300D01*
X117746400Y-77838300D01*
X117772232Y-77998976D01*
X117828914Y-78151525D01*
X117914268Y-78290085D01*
X118025013Y-78409330D01*
X118156894Y-78504679D01*
X118304842Y-78572467D01*
X118395448Y-78596412D01*
X118524200Y-78557276D01*
X118524200Y-77488300D01*
X118625800Y-77488300D01*
X118625800Y-78557276D01*
X118754552Y-78596412D01*
X118845158Y-78572467D01*
X118993106Y-78504679D01*
X119124987Y-78409330D01*
X119235732Y-78290085D01*
X119321086Y-78151525D01*
X119377768Y-77998976D01*
X119403600Y-77838300D01*
X119403600Y-77488300D01*
X124746400Y-77488300D01*
X124746400Y-77838300D01*
X124772232Y-77998976D01*
X124828914Y-78151525D01*
X124914268Y-78290085D01*
X125025013Y-78409330D01*
X125156894Y-78504679D01*
X125304842Y-78572467D01*
X125395448Y-78596412D01*
X125524200Y-78557276D01*
X125524200Y-77488300D01*
X125625800Y-77488300D01*
X125625800Y-78557276D01*
X125754552Y-78596412D01*
X125845158Y-78572467D01*
X125903647Y-78545668D01*
X136803120Y-78545668D01*
X136803120Y-78964492D01*
X136884828Y-79375270D01*
X137045106Y-79762213D01*
X137277792Y-80110454D01*
X137573946Y-80406608D01*
X137922187Y-80639294D01*
X138309130Y-80799572D01*
X138719908Y-80881280D01*
X139138732Y-80881280D01*
X139549510Y-80799572D01*
X139592198Y-80781890D01*
X139592690Y-80781792D01*
X139979633Y-80621514D01*
X140327874Y-80388828D01*
X140624028Y-80092674D01*
X140856714Y-79744433D01*
X141016992Y-79357490D01*
X141098700Y-78946712D01*
X141098700Y-78527888D01*
X141016992Y-78117110D01*
X140856714Y-77730167D01*
X140624028Y-77381926D01*
X140327874Y-77085772D01*
X139979633Y-76853086D01*
X139592690Y-76692808D01*
X139181912Y-76611100D01*
X138763088Y-76611100D01*
X138352310Y-76692808D01*
X138309622Y-76710490D01*
X138309130Y-76710588D01*
X137922187Y-76870866D01*
X137573946Y-77103552D01*
X137277792Y-77399706D01*
X137045106Y-77747947D01*
X136884828Y-78134890D01*
X136803120Y-78545668D01*
X125903647Y-78545668D01*
X125993106Y-78504679D01*
X126124987Y-78409330D01*
X126235732Y-78290085D01*
X126321086Y-78151525D01*
X126377768Y-77998976D01*
X126403600Y-77838300D01*
X126403600Y-77488300D01*
X125625800Y-77488300D01*
X125524200Y-77488300D01*
X124746400Y-77488300D01*
X119403600Y-77488300D01*
X118625800Y-77488300D01*
X118524200Y-77488300D01*
X117746400Y-77488300D01*
X115004352Y-77488300D01*
X114361112Y-76845061D01*
X114351568Y-76833432D01*
X114305157Y-76795342D01*
X114252206Y-76767040D01*
X114194751Y-76749611D01*
X114149966Y-76745200D01*
X114149958Y-76745200D01*
X114135000Y-76743727D01*
X114120042Y-76745200D01*
X113476306Y-76745200D01*
X113476306Y-76350000D01*
X113471892Y-76305187D01*
X113465756Y-76284957D01*
X118371348Y-76284957D01*
X118304842Y-76302533D01*
X118156894Y-76370321D01*
X118025013Y-76465670D01*
X117914268Y-76584915D01*
X117828914Y-76723475D01*
X117772232Y-76876024D01*
X117746400Y-77036700D01*
X117746400Y-77386700D01*
X118524200Y-77386700D01*
X118524200Y-77366700D01*
X118625800Y-77366700D01*
X118625800Y-77386700D01*
X119403600Y-77386700D01*
X119403600Y-77036700D01*
X119377768Y-76876024D01*
X119321086Y-76723475D01*
X119235732Y-76584915D01*
X119124987Y-76465670D01*
X118993106Y-76370321D01*
X118845158Y-76302533D01*
X118778652Y-76284957D01*
X125371348Y-76284957D01*
X125304842Y-76302533D01*
X125156894Y-76370321D01*
X125025013Y-76465670D01*
X124914268Y-76584915D01*
X124828914Y-76723475D01*
X124772232Y-76876024D01*
X124746400Y-77036700D01*
X124746400Y-77386700D01*
X125524200Y-77386700D01*
X125524200Y-77366700D01*
X125625800Y-77366700D01*
X125625800Y-77386700D01*
X126403600Y-77386700D01*
X126403600Y-77036700D01*
X126377768Y-76876024D01*
X126321086Y-76723475D01*
X126235732Y-76584915D01*
X126124987Y-76465670D01*
X125993106Y-76370321D01*
X125845158Y-76302533D01*
X125778652Y-76284957D01*
X126503244Y-76284957D01*
X126497108Y-76305187D01*
X126492694Y-76350000D01*
X126492694Y-77750000D01*
X126497108Y-77794813D01*
X126510179Y-77837905D01*
X126531406Y-77877618D01*
X126559973Y-77912427D01*
X126594782Y-77940994D01*
X126634495Y-77962221D01*
X126677587Y-77975292D01*
X126722400Y-77979706D01*
X128322400Y-77979706D01*
X128367213Y-77975292D01*
X128410305Y-77962221D01*
X128450018Y-77940994D01*
X128484827Y-77912427D01*
X128513394Y-77877618D01*
X128534621Y-77837905D01*
X128547692Y-77794813D01*
X128552106Y-77750000D01*
X128552106Y-77354800D01*
X133692694Y-77354800D01*
X133692694Y-77750000D01*
X133697108Y-77794813D01*
X133710179Y-77837905D01*
X133731406Y-77877618D01*
X133759973Y-77912427D01*
X133794782Y-77940994D01*
X133834495Y-77962221D01*
X133877587Y-77975292D01*
X133922400Y-77979706D01*
X135522400Y-77979706D01*
X135567213Y-77975292D01*
X135610305Y-77962221D01*
X135650018Y-77940994D01*
X135684827Y-77912427D01*
X135713394Y-77877618D01*
X135734621Y-77837905D01*
X135747692Y-77794813D01*
X135752106Y-77750000D01*
X135752106Y-77354800D01*
X135837300Y-77354800D01*
X135887360Y-77404860D01*
X135966403Y-77457674D01*
X136054231Y-77494054D01*
X136147468Y-77512600D01*
X136242532Y-77512600D01*
X136335769Y-77494054D01*
X136423597Y-77457674D01*
X136502640Y-77404860D01*
X136569860Y-77337640D01*
X136622674Y-77258597D01*
X136659054Y-77170769D01*
X136677600Y-77077532D01*
X136677600Y-76982468D01*
X136659054Y-76889231D01*
X136622674Y-76801403D01*
X136569860Y-76722360D01*
X136502640Y-76655140D01*
X136423597Y-76602326D01*
X136335769Y-76565946D01*
X136242532Y-76547400D01*
X136147468Y-76547400D01*
X136054231Y-76565946D01*
X135966403Y-76602326D01*
X135887360Y-76655140D01*
X135820140Y-76722360D01*
X135804879Y-76745200D01*
X135752106Y-76745200D01*
X135752106Y-76350000D01*
X135747692Y-76305187D01*
X135741556Y-76284957D01*
X138612565Y-76284957D01*
X138906489Y-76299701D01*
X139184461Y-76341884D01*
X139452368Y-76410442D01*
X139708970Y-76503998D01*
X139952998Y-76621202D01*
X140183090Y-76760691D01*
X140397890Y-76921112D01*
X140595975Y-77101068D01*
X140775921Y-77299144D01*
X140936337Y-77513941D01*
X141075825Y-77744031D01*
X141193026Y-77988055D01*
X141286587Y-78244669D01*
X141355141Y-78512564D01*
X141397325Y-78790537D01*
X141412069Y-79084482D01*
X141412069Y-91663800D01*
X137095000Y-91663800D01*
X137080134Y-91665264D01*
X137065840Y-91669600D01*
X137052666Y-91676642D01*
X137041118Y-91686118D01*
X137031642Y-91697666D01*
X137024600Y-91710840D01*
X137020264Y-91725134D01*
X137018800Y-91740000D01*
X137018800Y-101970000D01*
X137020264Y-101984866D01*
X137024600Y-101999160D01*
X137031642Y-102012334D01*
X137041118Y-102023882D01*
X137052666Y-102033358D01*
X137065840Y-102040400D01*
X137080134Y-102044736D01*
X137095000Y-102046200D01*
X141412068Y-102046200D01*
X141412068Y-115927697D01*
X141397325Y-116221623D01*
X141355139Y-116499625D01*
X141286581Y-116767555D01*
X141193023Y-117024193D01*
X141075812Y-117268271D01*
X140936319Y-117498411D01*
X140775902Y-117713248D01*
X140595948Y-117911376D01*
X140397866Y-118091374D01*
X140183069Y-118251836D01*
X139952964Y-118391372D01*
X139708938Y-118508611D01*
X139452345Y-118602193D01*
X139184449Y-118670772D01*
X138906480Y-118712970D01*
X138612571Y-118727719D01*
X135740319Y-118727719D01*
X135747692Y-118703413D01*
X135752106Y-118658600D01*
X135751000Y-118066550D01*
X135693850Y-118009400D01*
X134773200Y-118009400D01*
X134773200Y-118029400D01*
X134671600Y-118029400D01*
X134671600Y-118009400D01*
X133750950Y-118009400D01*
X133693800Y-118066550D01*
X133692694Y-118658600D01*
X133697108Y-118703413D01*
X133704481Y-118727719D01*
X128540319Y-118727719D01*
X128547692Y-118703413D01*
X128552106Y-118658600D01*
X128551000Y-118066550D01*
X128493850Y-118009400D01*
X127573200Y-118009400D01*
X127573200Y-118029400D01*
X127471600Y-118029400D01*
X127471600Y-118009400D01*
X126550950Y-118009400D01*
X126493800Y-118066550D01*
X126492694Y-118658600D01*
X126497108Y-118703413D01*
X126504481Y-118727719D01*
X113472000Y-118727719D01*
X113476306Y-118684000D01*
X113475200Y-118091950D01*
X113418050Y-118034800D01*
X112497400Y-118034800D01*
X112497400Y-118054800D01*
X112395800Y-118054800D01*
X112395800Y-118034800D01*
X111475150Y-118034800D01*
X111418000Y-118091950D01*
X111416894Y-118684000D01*
X111421200Y-118727719D01*
X106272000Y-118727719D01*
X106276306Y-118684000D01*
X106275200Y-118091950D01*
X106218050Y-118034800D01*
X105297400Y-118034800D01*
X105297400Y-118054800D01*
X105195800Y-118054800D01*
X105195800Y-118034800D01*
X104275150Y-118034800D01*
X104218000Y-118091950D01*
X104216894Y-118684000D01*
X104221200Y-118727719D01*
X101769321Y-118727719D01*
X101475410Y-118712970D01*
X101197421Y-118670772D01*
X100929497Y-118602193D01*
X100672863Y-118508607D01*
X100428798Y-118391366D01*
X100198649Y-118251828D01*
X99983803Y-118091364D01*
X99785674Y-117911363D01*
X99605671Y-117713232D01*
X99445204Y-117498385D01*
X99305666Y-117268237D01*
X99188424Y-117024170D01*
X99094836Y-116767530D01*
X99026256Y-116499606D01*
X98984058Y-116221615D01*
X98975130Y-116043688D01*
X99317800Y-116043688D01*
X99317800Y-116462512D01*
X99399508Y-116873290D01*
X99559786Y-117260233D01*
X99792472Y-117608474D01*
X100088626Y-117904628D01*
X100436867Y-118137314D01*
X100823810Y-118297592D01*
X101234588Y-118379300D01*
X101653412Y-118379300D01*
X102064190Y-118297592D01*
X102451133Y-118137314D01*
X102799374Y-117904628D01*
X103095528Y-117608474D01*
X103312333Y-117284000D01*
X104216894Y-117284000D01*
X104218000Y-117876050D01*
X104275150Y-117933200D01*
X105195800Y-117933200D01*
X105195800Y-117112550D01*
X105297400Y-117112550D01*
X105297400Y-117933200D01*
X106218050Y-117933200D01*
X106275200Y-117876050D01*
X106276306Y-117284000D01*
X111416894Y-117284000D01*
X111418000Y-117876050D01*
X111475150Y-117933200D01*
X112395800Y-117933200D01*
X112395800Y-117112550D01*
X112497400Y-117112550D01*
X112497400Y-117933200D01*
X113418050Y-117933200D01*
X113475200Y-117876050D01*
X113476306Y-117284000D01*
X113471892Y-117239187D01*
X113458821Y-117196095D01*
X113437594Y-117156382D01*
X113409027Y-117121573D01*
X113374218Y-117093006D01*
X113334505Y-117071779D01*
X113291413Y-117058708D01*
X113246600Y-117054294D01*
X112554550Y-117055400D01*
X112497400Y-117112550D01*
X112395800Y-117112550D01*
X112338650Y-117055400D01*
X111646600Y-117054294D01*
X111601787Y-117058708D01*
X111558695Y-117071779D01*
X111518982Y-117093006D01*
X111484173Y-117121573D01*
X111455606Y-117156382D01*
X111434379Y-117196095D01*
X111421308Y-117239187D01*
X111416894Y-117284000D01*
X106276306Y-117284000D01*
X106271892Y-117239187D01*
X106258821Y-117196095D01*
X106237594Y-117156382D01*
X106209027Y-117121573D01*
X106174218Y-117093006D01*
X106134505Y-117071779D01*
X106091413Y-117058708D01*
X106046600Y-117054294D01*
X105354550Y-117055400D01*
X105297400Y-117112550D01*
X105195800Y-117112550D01*
X105138650Y-117055400D01*
X104446600Y-117054294D01*
X104401787Y-117058708D01*
X104358695Y-117071779D01*
X104318982Y-117093006D01*
X104284173Y-117121573D01*
X104255606Y-117156382D01*
X104234379Y-117196095D01*
X104221308Y-117239187D01*
X104216894Y-117284000D01*
X103312333Y-117284000D01*
X103328214Y-117260233D01*
X103488492Y-116873290D01*
X103570200Y-116462512D01*
X103570200Y-116043688D01*
X103488492Y-115632910D01*
X103328214Y-115245967D01*
X103095528Y-114897726D01*
X102799374Y-114601572D01*
X102451133Y-114368886D01*
X102246202Y-114284000D01*
X104216894Y-114284000D01*
X104216894Y-115684000D01*
X104221308Y-115728813D01*
X104234379Y-115771905D01*
X104255606Y-115811618D01*
X104284173Y-115846427D01*
X104318982Y-115874994D01*
X104358695Y-115896221D01*
X104401787Y-115909292D01*
X104446600Y-115913706D01*
X106046600Y-115913706D01*
X106091413Y-115909292D01*
X106134505Y-115896221D01*
X106174218Y-115874994D01*
X106209027Y-115846427D01*
X106237594Y-115811618D01*
X106258821Y-115771905D01*
X106271892Y-115728813D01*
X106276306Y-115684000D01*
X106276306Y-115288800D01*
X111416894Y-115288800D01*
X111416894Y-115684000D01*
X111421308Y-115728813D01*
X111434379Y-115771905D01*
X111455606Y-115811618D01*
X111484173Y-115846427D01*
X111518982Y-115874994D01*
X111558695Y-115896221D01*
X111601787Y-115909292D01*
X111646600Y-115913706D01*
X113246600Y-115913706D01*
X113291413Y-115909292D01*
X113334505Y-115896221D01*
X113374218Y-115874994D01*
X113409027Y-115846427D01*
X113437594Y-115811618D01*
X113458821Y-115771905D01*
X113471892Y-115728813D01*
X113476306Y-115684000D01*
X113476306Y-114284000D01*
X113471892Y-114239187D01*
X113458821Y-114196095D01*
X113437594Y-114156382D01*
X113409027Y-114121573D01*
X113374218Y-114093006D01*
X113334505Y-114071779D01*
X113291413Y-114058708D01*
X113246600Y-114054294D01*
X112842186Y-114054294D01*
X112852674Y-114038597D01*
X112889054Y-113950769D01*
X112907600Y-113857532D01*
X112907600Y-113762468D01*
X112889054Y-113669231D01*
X112852674Y-113581403D01*
X112799860Y-113502360D01*
X112732640Y-113435140D01*
X112729800Y-113433242D01*
X112729800Y-104606251D01*
X113961252Y-103374800D01*
X117077309Y-103374800D01*
X117068892Y-103385056D01*
X116070057Y-104383892D01*
X116058433Y-104393432D01*
X116020343Y-104439843D01*
X116006879Y-104465034D01*
X115992040Y-104492795D01*
X115974611Y-104550249D01*
X115968727Y-104610000D01*
X115970201Y-104624968D01*
X115970200Y-107703748D01*
X115335882Y-108338066D01*
X115332532Y-108337400D01*
X115237468Y-108337400D01*
X115144231Y-108355946D01*
X115056403Y-108392326D01*
X114977360Y-108445140D01*
X114910140Y-108512360D01*
X114857326Y-108591403D01*
X114820946Y-108679231D01*
X114802400Y-108772468D01*
X114802400Y-108867532D01*
X114803066Y-108870882D01*
X114780061Y-108893888D01*
X114768432Y-108903432D01*
X114730342Y-108949844D01*
X114702040Y-109002795D01*
X114684611Y-109060250D01*
X114680200Y-109105035D01*
X114680200Y-109105042D01*
X114678727Y-109120000D01*
X114680200Y-109134958D01*
X114680201Y-114370025D01*
X114680200Y-114370035D01*
X114680201Y-115002342D01*
X114677360Y-115004240D01*
X114610140Y-115071460D01*
X114557326Y-115150503D01*
X114520946Y-115238331D01*
X114502400Y-115331568D01*
X114502400Y-115426632D01*
X114520946Y-115519869D01*
X114557326Y-115607697D01*
X114610140Y-115686740D01*
X114677360Y-115753960D01*
X114756403Y-115806774D01*
X114844231Y-115843154D01*
X114922714Y-115858765D01*
X117448892Y-118384944D01*
X117458432Y-118396568D01*
X117504843Y-118434658D01*
X117557794Y-118462960D01*
X117597819Y-118475102D01*
X117615248Y-118480389D01*
X117620889Y-118480945D01*
X117660034Y-118484800D01*
X117660041Y-118484800D01*
X117674999Y-118486273D01*
X117689957Y-118484800D01*
X119370042Y-118484800D01*
X119385000Y-118486273D01*
X119399958Y-118484800D01*
X119399966Y-118484800D01*
X119444751Y-118480389D01*
X119502206Y-118462960D01*
X119555157Y-118434658D01*
X119601568Y-118396568D01*
X119611112Y-118384939D01*
X119821145Y-118174907D01*
X119832768Y-118165368D01*
X119870858Y-118118957D01*
X119899160Y-118066006D01*
X119916197Y-118009843D01*
X119916589Y-118008552D01*
X119917917Y-117995066D01*
X119921000Y-117963766D01*
X119921000Y-117963759D01*
X119922473Y-117948801D01*
X119921000Y-117933843D01*
X119921000Y-117788126D01*
X119975610Y-117788126D01*
X120020423Y-117783712D01*
X120063515Y-117770641D01*
X120098800Y-117751781D01*
X120134085Y-117770641D01*
X120177177Y-117783712D01*
X120221990Y-117788126D01*
X120473450Y-117787020D01*
X120530600Y-117729870D01*
X120530600Y-117309500D01*
X120510600Y-117309500D01*
X120510600Y-117207900D01*
X120530600Y-117207900D01*
X120530600Y-117187900D01*
X120632200Y-117187900D01*
X120632200Y-117207900D01*
X120652200Y-117207900D01*
X120652200Y-117309500D01*
X120632200Y-117309500D01*
X120632200Y-117729870D01*
X120689350Y-117787020D01*
X120940810Y-117788126D01*
X120985623Y-117783712D01*
X121028715Y-117770641D01*
X121066540Y-117750423D01*
X121104365Y-117770641D01*
X121147457Y-117783712D01*
X121192270Y-117788126D01*
X121911090Y-117788126D01*
X121955903Y-117783712D01*
X121998995Y-117770641D01*
X122038708Y-117749414D01*
X122073517Y-117720847D01*
X122102084Y-117686038D01*
X122123311Y-117646325D01*
X122136382Y-117603233D01*
X122140296Y-117563500D01*
X122146000Y-117563500D01*
X122197360Y-117614860D01*
X122276403Y-117667674D01*
X122364231Y-117704054D01*
X122457468Y-117722600D01*
X122552532Y-117722600D01*
X122645769Y-117704054D01*
X122733597Y-117667674D01*
X122812640Y-117614860D01*
X122879860Y-117547640D01*
X122932674Y-117468597D01*
X122969054Y-117380769D01*
X122987600Y-117287532D01*
X122987600Y-117258600D01*
X126492694Y-117258600D01*
X126493800Y-117850650D01*
X126550950Y-117907800D01*
X127471600Y-117907800D01*
X127471600Y-117087150D01*
X127573200Y-117087150D01*
X127573200Y-117907800D01*
X128493850Y-117907800D01*
X128551000Y-117850650D01*
X128552106Y-117258600D01*
X133692694Y-117258600D01*
X133693800Y-117850650D01*
X133750950Y-117907800D01*
X134671600Y-117907800D01*
X134671600Y-117087150D01*
X134773200Y-117087150D01*
X134773200Y-117907800D01*
X135693850Y-117907800D01*
X135751000Y-117850650D01*
X135752106Y-117258600D01*
X135747692Y-117213787D01*
X135734621Y-117170695D01*
X135713394Y-117130982D01*
X135684827Y-117096173D01*
X135650018Y-117067606D01*
X135610305Y-117046379D01*
X135567213Y-117033308D01*
X135522400Y-117028894D01*
X134830350Y-117030000D01*
X134773200Y-117087150D01*
X134671600Y-117087150D01*
X134614450Y-117030000D01*
X133922400Y-117028894D01*
X133877587Y-117033308D01*
X133834495Y-117046379D01*
X133794782Y-117067606D01*
X133759973Y-117096173D01*
X133731406Y-117130982D01*
X133710179Y-117170695D01*
X133697108Y-117213787D01*
X133692694Y-117258600D01*
X128552106Y-117258600D01*
X128547692Y-117213787D01*
X128534621Y-117170695D01*
X128513394Y-117130982D01*
X128484827Y-117096173D01*
X128450018Y-117067606D01*
X128410305Y-117046379D01*
X128367213Y-117033308D01*
X128322400Y-117028894D01*
X127630350Y-117030000D01*
X127573200Y-117087150D01*
X127471600Y-117087150D01*
X127414450Y-117030000D01*
X126722400Y-117028894D01*
X126677587Y-117033308D01*
X126634495Y-117046379D01*
X126594782Y-117067606D01*
X126559973Y-117096173D01*
X126531406Y-117130982D01*
X126510179Y-117170695D01*
X126497108Y-117213787D01*
X126492694Y-117258600D01*
X122987600Y-117258600D01*
X122987600Y-117192468D01*
X122969054Y-117099231D01*
X122932674Y-117011403D01*
X122879860Y-116932360D01*
X122812640Y-116865140D01*
X122762895Y-116831902D01*
X122795157Y-116814658D01*
X122841568Y-116776568D01*
X122851112Y-116764939D01*
X123569823Y-116046228D01*
X136815820Y-116046228D01*
X136815820Y-116465052D01*
X136897528Y-116875830D01*
X137057806Y-117262773D01*
X137290492Y-117611014D01*
X137586646Y-117907168D01*
X137934887Y-118139854D01*
X138321830Y-118300132D01*
X138732608Y-118381840D01*
X139151432Y-118381840D01*
X139562210Y-118300132D01*
X139949153Y-118139854D01*
X140297394Y-117907168D01*
X140593548Y-117611014D01*
X140826234Y-117262773D01*
X140986512Y-116875830D01*
X141068220Y-116465052D01*
X141068220Y-116046228D01*
X140986512Y-115635450D01*
X140826234Y-115248507D01*
X140593548Y-114900266D01*
X140297394Y-114604112D01*
X139949153Y-114371426D01*
X139562210Y-114211148D01*
X139151432Y-114129440D01*
X138732608Y-114129440D01*
X138321830Y-114211148D01*
X137934887Y-114371426D01*
X137586646Y-114604112D01*
X137290492Y-114900266D01*
X137057806Y-115248507D01*
X136897528Y-115635450D01*
X136815820Y-116046228D01*
X123569823Y-116046228D01*
X123919945Y-115696107D01*
X123931568Y-115686568D01*
X123969658Y-115640157D01*
X123997960Y-115587206D01*
X124004150Y-115566800D01*
X124015389Y-115529752D01*
X124016628Y-115517167D01*
X124019800Y-115484966D01*
X124019800Y-115484958D01*
X124021273Y-115470000D01*
X124019800Y-115455042D01*
X124019800Y-114258600D01*
X126492694Y-114258600D01*
X126492694Y-115658600D01*
X126497108Y-115703413D01*
X126510179Y-115746505D01*
X126531406Y-115786218D01*
X126559973Y-115821027D01*
X126594782Y-115849594D01*
X126634495Y-115870821D01*
X126677587Y-115883892D01*
X126722400Y-115888306D01*
X128322400Y-115888306D01*
X128367213Y-115883892D01*
X128410305Y-115870821D01*
X128450018Y-115849594D01*
X128484827Y-115821027D01*
X128513394Y-115786218D01*
X128534621Y-115746505D01*
X128547692Y-115703413D01*
X128552106Y-115658600D01*
X128552106Y-115263400D01*
X133692694Y-115263400D01*
X133692694Y-115658600D01*
X133697108Y-115703413D01*
X133710179Y-115746505D01*
X133731406Y-115786218D01*
X133759973Y-115821027D01*
X133794782Y-115849594D01*
X133834495Y-115870821D01*
X133877587Y-115883892D01*
X133922400Y-115888306D01*
X135522400Y-115888306D01*
X135567213Y-115883892D01*
X135610305Y-115870821D01*
X135650018Y-115849594D01*
X135684827Y-115821027D01*
X135713394Y-115786218D01*
X135734621Y-115746505D01*
X135747692Y-115703413D01*
X135752106Y-115658600D01*
X135752106Y-114258600D01*
X135747692Y-114213787D01*
X135734621Y-114170695D01*
X135713394Y-114130982D01*
X135684827Y-114096173D01*
X135650018Y-114067606D01*
X135610305Y-114046379D01*
X135567213Y-114033308D01*
X135522400Y-114028894D01*
X135115704Y-114028894D01*
X135162674Y-113958597D01*
X135199054Y-113870769D01*
X135217600Y-113777532D01*
X135217600Y-113682468D01*
X135199054Y-113589231D01*
X135162674Y-113501403D01*
X135109860Y-113422360D01*
X135042640Y-113355140D01*
X134963597Y-113302326D01*
X134875769Y-113265946D01*
X134782532Y-113247400D01*
X134687468Y-113247400D01*
X134594231Y-113265946D01*
X134506403Y-113302326D01*
X134427360Y-113355140D01*
X134360140Y-113422360D01*
X134307326Y-113501403D01*
X134270946Y-113589231D01*
X134252400Y-113682468D01*
X134252400Y-113777532D01*
X134270946Y-113870769D01*
X134307326Y-113958597D01*
X134354296Y-114028894D01*
X133922400Y-114028894D01*
X133877587Y-114033308D01*
X133834495Y-114046379D01*
X133794782Y-114067606D01*
X133759973Y-114096173D01*
X133731406Y-114130982D01*
X133710179Y-114170695D01*
X133697108Y-114213787D01*
X133692694Y-114258600D01*
X133692694Y-114653800D01*
X128552106Y-114653800D01*
X128552106Y-114258600D01*
X128547692Y-114213787D01*
X128534621Y-114170695D01*
X128513394Y-114130982D01*
X128484827Y-114096173D01*
X128450018Y-114067606D01*
X128410305Y-114046379D01*
X128367213Y-114033308D01*
X128322400Y-114028894D01*
X126722400Y-114028894D01*
X126677587Y-114033308D01*
X126634495Y-114046379D01*
X126594782Y-114067606D01*
X126559973Y-114096173D01*
X126531406Y-114130982D01*
X126510179Y-114170695D01*
X126497108Y-114213787D01*
X126492694Y-114258600D01*
X124019800Y-114258600D01*
X124019800Y-109826251D01*
X124341252Y-109504800D01*
X131508749Y-109504800D01*
X131770200Y-109766252D01*
X131770201Y-110093242D01*
X131767360Y-110095140D01*
X131700140Y-110162360D01*
X131647326Y-110241403D01*
X131610946Y-110329231D01*
X131592400Y-110422468D01*
X131592400Y-110517532D01*
X131610946Y-110610769D01*
X131647326Y-110698597D01*
X131700140Y-110777640D01*
X131767360Y-110844860D01*
X131846403Y-110897674D01*
X131934231Y-110934054D01*
X132027468Y-110952600D01*
X132122532Y-110952600D01*
X132125882Y-110951934D01*
X132640201Y-111466253D01*
X132640200Y-112135042D01*
X132638727Y-112150000D01*
X132640200Y-112164958D01*
X132640200Y-112164965D01*
X132643164Y-112195056D01*
X132644611Y-112209751D01*
X132654213Y-112241403D01*
X132662040Y-112267205D01*
X132690342Y-112320156D01*
X132728432Y-112366568D01*
X132740061Y-112376112D01*
X133358892Y-112994944D01*
X133368432Y-113006568D01*
X133414843Y-113044658D01*
X133467794Y-113072960D01*
X133525248Y-113090389D01*
X133530403Y-113090897D01*
X133570034Y-113094800D01*
X133570042Y-113094800D01*
X133585000Y-113096273D01*
X133599958Y-113094800D01*
X140060042Y-113094800D01*
X140075000Y-113096273D01*
X140089958Y-113094800D01*
X140089966Y-113094800D01*
X140134751Y-113090389D01*
X140192206Y-113072960D01*
X140245157Y-113044658D01*
X140291568Y-113006568D01*
X140301112Y-112994939D01*
X140807744Y-112488308D01*
X140819368Y-112478768D01*
X140857458Y-112432357D01*
X140885760Y-112379406D01*
X140893181Y-112354943D01*
X140903189Y-112321952D01*
X140903907Y-112314658D01*
X140907600Y-112277166D01*
X140907600Y-112277158D01*
X140909073Y-112262200D01*
X140907600Y-112247242D01*
X140907600Y-111323663D01*
X140940705Y-111313621D01*
X140980418Y-111292394D01*
X141015227Y-111263827D01*
X141043794Y-111229018D01*
X141065021Y-111189305D01*
X141078092Y-111146213D01*
X141082506Y-111101400D01*
X141082506Y-110601400D01*
X141078092Y-110556587D01*
X141065021Y-110513495D01*
X141043794Y-110473782D01*
X141025426Y-110451400D01*
X141043794Y-110429018D01*
X141065021Y-110389305D01*
X141078092Y-110346213D01*
X141082506Y-110301400D01*
X141082506Y-109801400D01*
X141078092Y-109756587D01*
X141065021Y-109713495D01*
X141043794Y-109673782D01*
X141025426Y-109651400D01*
X141043794Y-109629018D01*
X141065021Y-109589305D01*
X141078092Y-109546213D01*
X141082506Y-109501400D01*
X141082506Y-109001400D01*
X141078092Y-108956587D01*
X141065021Y-108913495D01*
X141043794Y-108873782D01*
X141025426Y-108851400D01*
X141043794Y-108829018D01*
X141065021Y-108789305D01*
X141078092Y-108746213D01*
X141082506Y-108701400D01*
X141081400Y-108559350D01*
X141024250Y-108502200D01*
X140653600Y-108502200D01*
X140653600Y-108522200D01*
X140552000Y-108522200D01*
X140552000Y-108502200D01*
X140181350Y-108502200D01*
X140124200Y-108559350D01*
X140123094Y-108701400D01*
X140127508Y-108746213D01*
X140140579Y-108789305D01*
X140153859Y-108814150D01*
X140085769Y-108785946D01*
X139992532Y-108767400D01*
X139897468Y-108767400D01*
X139804231Y-108785946D01*
X139716403Y-108822326D01*
X139637360Y-108875140D01*
X139570140Y-108942360D01*
X139517326Y-109021403D01*
X139480946Y-109109231D01*
X139462400Y-109202468D01*
X139462400Y-109297532D01*
X139480946Y-109390769D01*
X139517326Y-109478597D01*
X139570140Y-109557640D01*
X139637360Y-109624860D01*
X139716403Y-109677674D01*
X139804231Y-109714054D01*
X139897468Y-109732600D01*
X139992532Y-109732600D01*
X140085769Y-109714054D01*
X140155781Y-109685054D01*
X140140579Y-109713495D01*
X140130537Y-109746600D01*
X140068558Y-109746600D01*
X140053600Y-109745127D01*
X140038642Y-109746600D01*
X140038634Y-109746600D01*
X140000164Y-109750389D01*
X139993848Y-109751011D01*
X139973974Y-109757040D01*
X139936394Y-109768440D01*
X139883443Y-109796742D01*
X139837032Y-109834832D01*
X139827488Y-109846461D01*
X139720057Y-109953892D01*
X139708433Y-109963432D01*
X139670343Y-110009843D01*
X139655215Y-110038146D01*
X139642040Y-110062795D01*
X139624611Y-110120249D01*
X139618727Y-110180000D01*
X139620201Y-110194968D01*
X139620200Y-111933748D01*
X139458749Y-112095200D01*
X134041252Y-112095200D01*
X133669800Y-111723749D01*
X133669800Y-110856758D01*
X133672640Y-110854860D01*
X133685032Y-110842468D01*
X136892400Y-110842468D01*
X136892400Y-110937532D01*
X136910946Y-111030769D01*
X136947326Y-111118597D01*
X137000140Y-111197640D01*
X137067360Y-111264860D01*
X137146403Y-111317674D01*
X137234231Y-111354054D01*
X137327468Y-111372600D01*
X137422532Y-111372600D01*
X137515769Y-111354054D01*
X137603597Y-111317674D01*
X137682640Y-111264860D01*
X137740024Y-111207476D01*
X137740579Y-111209305D01*
X137761806Y-111249018D01*
X137790373Y-111283827D01*
X137825182Y-111312394D01*
X137864895Y-111333621D01*
X137907987Y-111346692D01*
X137952800Y-111351106D01*
X138452800Y-111351106D01*
X138497613Y-111346692D01*
X138540705Y-111333621D01*
X138580418Y-111312394D01*
X138615227Y-111283827D01*
X138643794Y-111249018D01*
X138665021Y-111209305D01*
X138678092Y-111166213D01*
X138682506Y-111121400D01*
X138682506Y-110621400D01*
X138678092Y-110576587D01*
X138665021Y-110533495D01*
X138643794Y-110493782D01*
X138617219Y-110461400D01*
X138643794Y-110429018D01*
X138665021Y-110389305D01*
X138678092Y-110346213D01*
X138682506Y-110301400D01*
X138682506Y-109801400D01*
X138678092Y-109756587D01*
X138665021Y-109713495D01*
X138643794Y-109673782D01*
X138625426Y-109651400D01*
X138643794Y-109629018D01*
X138665021Y-109589305D01*
X138678092Y-109546213D01*
X138682506Y-109501400D01*
X138681400Y-109359350D01*
X138624250Y-109302200D01*
X138253600Y-109302200D01*
X138253600Y-109322200D01*
X138152000Y-109322200D01*
X138152000Y-109302200D01*
X137781350Y-109302200D01*
X137724200Y-109359350D01*
X137723094Y-109501400D01*
X137727508Y-109546213D01*
X137740579Y-109589305D01*
X137761806Y-109629018D01*
X137780174Y-109651400D01*
X137773765Y-109659210D01*
X137703597Y-109612326D01*
X137615769Y-109575946D01*
X137522532Y-109557400D01*
X137427468Y-109557400D01*
X137334231Y-109575946D01*
X137246403Y-109612326D01*
X137167360Y-109665140D01*
X137100140Y-109732360D01*
X137047326Y-109811403D01*
X137010946Y-109899231D01*
X136992400Y-109992468D01*
X136992400Y-110087532D01*
X137010946Y-110180769D01*
X137047326Y-110268597D01*
X137100140Y-110347640D01*
X137167360Y-110414860D01*
X137203193Y-110438802D01*
X137146403Y-110462326D01*
X137067360Y-110515140D01*
X137000140Y-110582360D01*
X136947326Y-110661403D01*
X136910946Y-110749231D01*
X136892400Y-110842468D01*
X133685032Y-110842468D01*
X133739860Y-110787640D01*
X133792674Y-110708597D01*
X133829054Y-110620769D01*
X133847600Y-110527532D01*
X133847600Y-110432468D01*
X133829054Y-110339231D01*
X133792674Y-110251403D01*
X133739860Y-110172360D01*
X133672640Y-110105140D01*
X133669800Y-110103242D01*
X133669800Y-109724957D01*
X133671273Y-109709999D01*
X133669800Y-109695041D01*
X133669800Y-109695034D01*
X133665389Y-109650249D01*
X133662356Y-109640249D01*
X133647960Y-109592794D01*
X133646028Y-109589179D01*
X133619658Y-109539843D01*
X133592721Y-109507022D01*
X133591108Y-109505056D01*
X133581568Y-109493432D01*
X133569945Y-109483893D01*
X132701112Y-108615061D01*
X132691568Y-108603432D01*
X132663863Y-108580694D01*
X132675157Y-108574658D01*
X132721568Y-108536568D01*
X132731112Y-108524939D01*
X132863583Y-108392468D01*
X136982400Y-108392468D01*
X136982400Y-108487532D01*
X137000946Y-108580769D01*
X137037326Y-108668597D01*
X137090140Y-108747640D01*
X137157360Y-108814860D01*
X137236403Y-108867674D01*
X137324231Y-108904054D01*
X137417468Y-108922600D01*
X137512532Y-108922600D01*
X137605769Y-108904054D01*
X137693597Y-108867674D01*
X137759081Y-108823920D01*
X137761806Y-108829018D01*
X137780174Y-108851400D01*
X137761806Y-108873782D01*
X137740579Y-108913495D01*
X137727508Y-108956587D01*
X137723094Y-109001400D01*
X137724200Y-109143450D01*
X137781350Y-109200600D01*
X138152000Y-109200600D01*
X138152000Y-109180600D01*
X138253600Y-109180600D01*
X138253600Y-109200600D01*
X138624250Y-109200600D01*
X138681400Y-109143450D01*
X138682506Y-109001400D01*
X138678092Y-108956587D01*
X138665021Y-108913495D01*
X138643794Y-108873782D01*
X138625426Y-108851400D01*
X138643794Y-108829018D01*
X138665021Y-108789305D01*
X138678092Y-108746213D01*
X138682506Y-108701400D01*
X138682506Y-108201400D01*
X140123094Y-108201400D01*
X140124200Y-108343450D01*
X140181350Y-108400600D01*
X140552000Y-108400600D01*
X140552000Y-108029950D01*
X140653600Y-108029950D01*
X140653600Y-108400600D01*
X141024250Y-108400600D01*
X141081400Y-108343450D01*
X141082506Y-108201400D01*
X141078092Y-108156587D01*
X141065021Y-108113495D01*
X141043794Y-108073782D01*
X141015227Y-108038973D01*
X140980418Y-108010406D01*
X140940705Y-107989179D01*
X140897613Y-107976108D01*
X140852800Y-107971694D01*
X140710750Y-107972800D01*
X140653600Y-108029950D01*
X140552000Y-108029950D01*
X140494850Y-107972800D01*
X140352800Y-107971694D01*
X140307987Y-107976108D01*
X140264895Y-107989179D01*
X140225182Y-108010406D01*
X140190373Y-108038973D01*
X140161806Y-108073782D01*
X140140579Y-108113495D01*
X140127508Y-108156587D01*
X140123094Y-108201400D01*
X138682506Y-108201400D01*
X138678092Y-108156587D01*
X138665021Y-108113495D01*
X138643794Y-108073782D01*
X138615227Y-108038973D01*
X138580418Y-108010406D01*
X138540705Y-107989179D01*
X138497613Y-107976108D01*
X138452800Y-107971694D01*
X137952800Y-107971694D01*
X137907987Y-107976108D01*
X137864895Y-107989179D01*
X137825182Y-108010406D01*
X137790373Y-108038973D01*
X137770223Y-108063525D01*
X137693597Y-108012326D01*
X137605769Y-107975946D01*
X137512532Y-107957400D01*
X137417468Y-107957400D01*
X137324231Y-107975946D01*
X137236403Y-108012326D01*
X137157360Y-108065140D01*
X137090140Y-108132360D01*
X137037326Y-108211403D01*
X137000946Y-108299231D01*
X136982400Y-108392468D01*
X132863583Y-108392468D01*
X133759944Y-107496108D01*
X133771568Y-107486568D01*
X133809658Y-107440157D01*
X133837960Y-107387206D01*
X133855389Y-107329751D01*
X133859800Y-107284966D01*
X133859800Y-107284959D01*
X133861273Y-107270001D01*
X133859800Y-107255043D01*
X133859800Y-104743790D01*
X138421800Y-104743790D01*
X138421800Y-104907010D01*
X138453643Y-105067094D01*
X138516104Y-105217889D01*
X138606785Y-105353602D01*
X138722198Y-105469015D01*
X138857911Y-105559696D01*
X139008706Y-105622157D01*
X139168790Y-105654000D01*
X139332010Y-105654000D01*
X139492094Y-105622157D01*
X139642889Y-105559696D01*
X139778602Y-105469015D01*
X139894015Y-105353602D01*
X139984696Y-105217889D01*
X140047157Y-105067094D01*
X140079000Y-104907010D01*
X140079000Y-104743790D01*
X140047157Y-104583706D01*
X139984696Y-104432911D01*
X139894015Y-104297198D01*
X139778602Y-104181785D01*
X139642889Y-104091104D01*
X139492094Y-104028643D01*
X139332010Y-103996800D01*
X139168790Y-103996800D01*
X139008706Y-104028643D01*
X138857911Y-104091104D01*
X138722198Y-104181785D01*
X138606785Y-104297198D01*
X138516104Y-104432911D01*
X138453643Y-104583706D01*
X138421800Y-104743790D01*
X133859800Y-104743790D01*
X133859800Y-99166758D01*
X133862640Y-99164860D01*
X133929860Y-99097640D01*
X133982674Y-99018597D01*
X134019054Y-98930769D01*
X134037600Y-98837532D01*
X134037600Y-98742468D01*
X134019054Y-98649231D01*
X133982674Y-98561403D01*
X133929860Y-98482360D01*
X133862640Y-98415140D01*
X133783597Y-98362326D01*
X133695769Y-98325946D01*
X133602532Y-98307400D01*
X133507468Y-98307400D01*
X133414231Y-98325946D01*
X133326403Y-98362326D01*
X133247360Y-98415140D01*
X133180140Y-98482360D01*
X133127326Y-98561403D01*
X133090946Y-98649231D01*
X133072400Y-98742468D01*
X133072400Y-98837532D01*
X133090946Y-98930769D01*
X133127326Y-99018597D01*
X133180140Y-99097640D01*
X133247360Y-99164860D01*
X133250200Y-99166758D01*
X133250201Y-107143747D01*
X132746612Y-107647337D01*
X132749159Y-107621472D01*
X132749800Y-107614966D01*
X132749800Y-107614959D01*
X132751273Y-107600001D01*
X132749800Y-107585043D01*
X132749800Y-99166758D01*
X132752640Y-99164860D01*
X132819860Y-99097640D01*
X132872674Y-99018597D01*
X132909054Y-98930769D01*
X132927600Y-98837532D01*
X132927600Y-98742468D01*
X132909054Y-98649231D01*
X132872674Y-98561403D01*
X132819860Y-98482360D01*
X132752640Y-98415140D01*
X132673597Y-98362326D01*
X132585769Y-98325946D01*
X132492532Y-98307400D01*
X132397468Y-98307400D01*
X132304231Y-98325946D01*
X132216403Y-98362326D01*
X132137360Y-98415140D01*
X132070140Y-98482360D01*
X132017326Y-98561403D01*
X131980946Y-98649231D01*
X131962400Y-98742468D01*
X131962400Y-98837532D01*
X131980946Y-98930769D01*
X132017326Y-99018597D01*
X132070140Y-99097640D01*
X132137360Y-99164860D01*
X132140201Y-99166758D01*
X132140200Y-105814965D01*
X132140201Y-105814975D01*
X132140200Y-107473748D01*
X132018749Y-107595200D01*
X123049958Y-107595200D01*
X123035000Y-107593727D01*
X123020042Y-107595200D01*
X123020034Y-107595200D01*
X122980403Y-107599103D01*
X122975248Y-107599611D01*
X122950383Y-107607154D01*
X122917794Y-107617040D01*
X122864843Y-107645342D01*
X122818432Y-107683432D01*
X122808892Y-107695056D01*
X122020057Y-108483892D01*
X122008433Y-108493432D01*
X121970343Y-108539843D01*
X121962834Y-108553892D01*
X121942040Y-108592795D01*
X121924611Y-108650249D01*
X121918727Y-108710000D01*
X121920201Y-108724968D01*
X121920200Y-111463748D01*
X121828749Y-111555200D01*
X119551758Y-111555200D01*
X119549860Y-111552360D01*
X119482640Y-111485140D01*
X119403597Y-111432326D01*
X119315769Y-111395946D01*
X119222532Y-111377400D01*
X119127468Y-111377400D01*
X119034231Y-111395946D01*
X118946403Y-111432326D01*
X118867360Y-111485140D01*
X118800140Y-111552360D01*
X118747326Y-111631403D01*
X118710946Y-111719231D01*
X118692400Y-111812468D01*
X118692400Y-111907532D01*
X118708287Y-111987400D01*
X118687468Y-111987400D01*
X118594231Y-112005946D01*
X118506403Y-112042326D01*
X118427360Y-112095140D01*
X118360140Y-112162360D01*
X118307326Y-112241403D01*
X118270946Y-112329231D01*
X118252400Y-112422468D01*
X118252400Y-112517532D01*
X118270946Y-112610769D01*
X118307326Y-112698597D01*
X118360140Y-112777640D01*
X118427360Y-112844860D01*
X118506403Y-112897674D01*
X118594231Y-112934054D01*
X118687468Y-112952600D01*
X118782532Y-112952600D01*
X118875769Y-112934054D01*
X118963597Y-112897674D01*
X119042640Y-112844860D01*
X119109860Y-112777640D01*
X119111758Y-112774800D01*
X122290042Y-112774800D01*
X122305000Y-112776273D01*
X122319958Y-112774800D01*
X122319966Y-112774800D01*
X122364751Y-112770389D01*
X122422206Y-112752960D01*
X122475157Y-112724658D01*
X122521568Y-112686568D01*
X122531112Y-112674939D01*
X122949944Y-112256108D01*
X122961568Y-112246568D01*
X122990200Y-112211681D01*
X122990200Y-113823748D01*
X122668749Y-114145200D01*
X118979957Y-114145200D01*
X118964999Y-114143727D01*
X118950041Y-114145200D01*
X118950034Y-114145200D01*
X118910889Y-114149055D01*
X118905248Y-114149611D01*
X118891876Y-114153668D01*
X118847794Y-114167040D01*
X118794843Y-114195342D01*
X118748432Y-114233432D01*
X118738892Y-114245056D01*
X118440976Y-114542973D01*
X118429353Y-114552512D01*
X118419813Y-114564136D01*
X118419812Y-114564137D01*
X118416217Y-114568518D01*
X118391263Y-114598923D01*
X118381141Y-114617860D01*
X118362960Y-114651875D01*
X118345531Y-114709329D01*
X118339647Y-114769080D01*
X118341121Y-114784048D01*
X118341120Y-115332274D01*
X118286510Y-115332274D01*
X118241697Y-115336688D01*
X118198605Y-115349759D01*
X118158892Y-115370986D01*
X118124083Y-115399553D01*
X118095516Y-115434362D01*
X118074289Y-115474075D01*
X118061218Y-115517167D01*
X118057304Y-115556900D01*
X116923458Y-115556900D01*
X116921560Y-115554060D01*
X116854340Y-115486840D01*
X116775297Y-115434026D01*
X116687469Y-115397646D01*
X116594232Y-115379100D01*
X116499168Y-115379100D01*
X116495818Y-115379766D01*
X115594610Y-114478559D01*
X115594610Y-110261441D01*
X116594118Y-109261934D01*
X116597468Y-109262600D01*
X116692532Y-109262600D01*
X116785769Y-109244054D01*
X116873597Y-109207674D01*
X116952640Y-109154860D01*
X117019860Y-109087640D01*
X117072674Y-109008597D01*
X117109054Y-108920769D01*
X117127600Y-108827532D01*
X117127600Y-108732468D01*
X117109054Y-108639231D01*
X117072674Y-108551403D01*
X117019860Y-108472360D01*
X116952640Y-108405140D01*
X116949800Y-108403242D01*
X116949800Y-104956251D01*
X117621253Y-104284800D01*
X125560042Y-104284800D01*
X125575000Y-104286273D01*
X125589958Y-104284800D01*
X125589966Y-104284800D01*
X125634751Y-104280389D01*
X125692206Y-104262960D01*
X125745157Y-104234658D01*
X125791568Y-104196568D01*
X125801112Y-104184939D01*
X126619945Y-103366107D01*
X126631568Y-103356568D01*
X126669658Y-103310157D01*
X126697960Y-103257206D01*
X126715389Y-103199751D01*
X126719800Y-103154966D01*
X126719800Y-103154959D01*
X126721273Y-103140001D01*
X126719800Y-103125043D01*
X126719800Y-97786758D01*
X126722640Y-97784860D01*
X126789860Y-97717640D01*
X126842674Y-97638597D01*
X126879054Y-97550769D01*
X126897600Y-97457532D01*
X126897600Y-97362468D01*
X126879054Y-97269231D01*
X126842674Y-97181403D01*
X126789860Y-97102360D01*
X126722640Y-97035140D01*
X126643597Y-96982326D01*
X126555769Y-96945946D01*
X126462532Y-96927400D01*
X126367468Y-96927400D01*
X126274231Y-96945946D01*
X126186403Y-96982326D01*
X126107360Y-97035140D01*
X126040140Y-97102360D01*
X125987326Y-97181403D01*
X125950946Y-97269231D01*
X125932400Y-97362468D01*
X125932400Y-97457532D01*
X125950946Y-97550769D01*
X125987326Y-97638597D01*
X126040140Y-97717640D01*
X126107360Y-97784860D01*
X126110201Y-97786758D01*
X126110201Y-98103510D01*
X126033597Y-98052326D01*
X125945769Y-98015946D01*
X125852532Y-97997400D01*
X125757468Y-97997400D01*
X125664231Y-98015946D01*
X125576403Y-98052326D01*
X125497360Y-98105140D01*
X125430140Y-98172360D01*
X125377326Y-98251403D01*
X125340946Y-98339231D01*
X125322400Y-98432468D01*
X125322400Y-98527532D01*
X125331464Y-98573101D01*
X125252532Y-98557400D01*
X125157468Y-98557400D01*
X125064231Y-98575946D01*
X124976403Y-98612326D01*
X124897360Y-98665140D01*
X124830140Y-98732360D01*
X124777326Y-98811403D01*
X124740946Y-98899231D01*
X124722400Y-98992468D01*
X124722400Y-99087532D01*
X124740946Y-99180769D01*
X124777326Y-99268597D01*
X124830140Y-99347640D01*
X124890200Y-99407700D01*
X124890201Y-102523747D01*
X124648749Y-102765200D01*
X113849957Y-102765200D01*
X113834999Y-102763727D01*
X113820041Y-102765200D01*
X113820034Y-102765200D01*
X113780889Y-102769055D01*
X113775248Y-102769611D01*
X113717794Y-102787040D01*
X113664843Y-102815342D01*
X113618432Y-102853432D01*
X113608892Y-102865056D01*
X112220061Y-104253888D01*
X112208432Y-104263432D01*
X112170342Y-104309844D01*
X112142040Y-104362795D01*
X112124611Y-104420250D01*
X112120200Y-104465035D01*
X112120200Y-104465042D01*
X112118727Y-104480000D01*
X112120200Y-104494958D01*
X112120201Y-113433242D01*
X112117360Y-113435140D01*
X112050140Y-113502360D01*
X111997326Y-113581403D01*
X111960946Y-113669231D01*
X111942400Y-113762468D01*
X111942400Y-113857532D01*
X111960946Y-113950769D01*
X111997326Y-114038597D01*
X112007814Y-114054294D01*
X111646600Y-114054294D01*
X111601787Y-114058708D01*
X111558695Y-114071779D01*
X111518982Y-114093006D01*
X111484173Y-114121573D01*
X111455606Y-114156382D01*
X111434379Y-114196095D01*
X111421308Y-114239187D01*
X111416894Y-114284000D01*
X111416894Y-114679200D01*
X106276306Y-114679200D01*
X106276306Y-114284000D01*
X106271892Y-114239187D01*
X106258821Y-114196095D01*
X106237594Y-114156382D01*
X106209027Y-114121573D01*
X106174218Y-114093006D01*
X106134505Y-114071779D01*
X106091413Y-114058708D01*
X106046600Y-114054294D01*
X104446600Y-114054294D01*
X104401787Y-114058708D01*
X104358695Y-114071779D01*
X104318982Y-114093006D01*
X104284173Y-114121573D01*
X104255606Y-114156382D01*
X104234379Y-114196095D01*
X104221308Y-114239187D01*
X104216894Y-114284000D01*
X102246202Y-114284000D01*
X102064190Y-114208608D01*
X101653412Y-114126900D01*
X101234588Y-114126900D01*
X100823810Y-114208608D01*
X100436867Y-114368886D01*
X100088626Y-114601572D01*
X99792472Y-114897726D01*
X99559786Y-115245967D01*
X99399508Y-115632910D01*
X99317800Y-116043688D01*
X98975130Y-116043688D01*
X98969309Y-115927703D01*
X98969309Y-87729247D01*
X106674606Y-87729247D01*
X106674653Y-87729485D01*
X106674652Y-107282676D01*
X106674606Y-107282909D01*
X106674652Y-107309934D01*
X106674652Y-107323559D01*
X106674676Y-107323799D01*
X106674676Y-107324034D01*
X106675998Y-107337227D01*
X106678683Y-107364487D01*
X106678753Y-107364719D01*
X106688118Y-107458162D01*
X106688193Y-107472417D01*
X106693592Y-107498826D01*
X106698890Y-107525227D01*
X106704367Y-107538385D01*
X106734864Y-107637042D01*
X106737621Y-107650524D01*
X106746256Y-107671058D01*
X106758882Y-107701089D01*
X106766590Y-107712494D01*
X106814201Y-107800428D01*
X106819321Y-107812713D01*
X106827231Y-107824494D01*
X106827442Y-107824884D01*
X106834916Y-107835940D01*
X106842246Y-107846858D01*
X106842524Y-107847195D01*
X106850474Y-107858956D01*
X106859939Y-107868319D01*
X106922495Y-107944200D01*
X106929767Y-107955136D01*
X106939908Y-107965322D01*
X106940302Y-107965800D01*
X106949563Y-107975020D01*
X106958783Y-107984281D01*
X106959261Y-107984675D01*
X106969447Y-107994816D01*
X106980383Y-108002088D01*
X107056264Y-108064644D01*
X107065627Y-108074109D01*
X107077388Y-108082059D01*
X107077725Y-108082337D01*
X107088643Y-108089667D01*
X107099699Y-108097141D01*
X107100089Y-108097352D01*
X107111870Y-108105262D01*
X107124156Y-108110383D01*
X107212086Y-108157991D01*
X107223493Y-108165701D01*
X107252588Y-108177933D01*
X107274058Y-108186962D01*
X107287543Y-108189720D01*
X107386199Y-108220217D01*
X107399356Y-108225693D01*
X107425702Y-108230980D01*
X107452165Y-108236390D01*
X107466420Y-108236465D01*
X107559863Y-108245830D01*
X107560095Y-108245900D01*
X107587307Y-108248580D01*
X107600547Y-108249907D01*
X107600783Y-108249907D01*
X107601023Y-108249931D01*
X107614647Y-108249931D01*
X107641673Y-108249977D01*
X107641906Y-108249931D01*
X110816258Y-108249931D01*
X110816491Y-108249977D01*
X110843516Y-108249931D01*
X110857142Y-108249931D01*
X110857382Y-108249907D01*
X110857616Y-108249907D01*
X110870752Y-108248591D01*
X110898070Y-108245900D01*
X110898302Y-108245830D01*
X110991744Y-108236465D01*
X111005999Y-108236390D01*
X111032408Y-108230991D01*
X111058809Y-108225693D01*
X111071967Y-108220216D01*
X111170624Y-108189719D01*
X111184106Y-108186962D01*
X111204640Y-108178327D01*
X111234671Y-108165701D01*
X111246076Y-108157993D01*
X111334010Y-108110382D01*
X111346295Y-108105262D01*
X111358076Y-108097352D01*
X111358466Y-108097141D01*
X111369522Y-108089667D01*
X111380440Y-108082337D01*
X111380777Y-108082059D01*
X111392538Y-108074109D01*
X111401901Y-108064644D01*
X111477782Y-108002088D01*
X111488718Y-107994816D01*
X111498904Y-107984675D01*
X111499382Y-107984281D01*
X111508602Y-107975020D01*
X111517863Y-107965800D01*
X111518257Y-107965322D01*
X111528398Y-107955136D01*
X111535670Y-107944200D01*
X111598226Y-107868319D01*
X111607691Y-107858956D01*
X111615641Y-107847195D01*
X111615919Y-107846858D01*
X111623249Y-107835940D01*
X111630723Y-107824884D01*
X111630934Y-107824494D01*
X111638844Y-107812713D01*
X111643965Y-107800427D01*
X111691573Y-107712497D01*
X111699283Y-107701090D01*
X111711545Y-107671925D01*
X111720544Y-107650525D01*
X111723302Y-107637040D01*
X111753799Y-107538384D01*
X111759275Y-107525227D01*
X111764562Y-107498881D01*
X111769972Y-107472418D01*
X111770047Y-107458163D01*
X111779412Y-107364720D01*
X111779482Y-107364488D01*
X111782162Y-107337276D01*
X111783489Y-107324036D01*
X111783489Y-107323800D01*
X111783513Y-107323560D01*
X111783513Y-107309936D01*
X111783559Y-107282910D01*
X111783513Y-107282677D01*
X111783513Y-95188575D01*
X121887638Y-95188575D01*
X121887638Y-95283639D01*
X121906184Y-95376876D01*
X121942564Y-95464704D01*
X121995378Y-95543747D01*
X122062598Y-95610967D01*
X122141641Y-95663781D01*
X122229469Y-95700161D01*
X122322706Y-95718707D01*
X122417770Y-95718707D01*
X122511007Y-95700161D01*
X122598835Y-95663781D01*
X122677878Y-95610967D01*
X122745098Y-95543747D01*
X122746466Y-95541700D01*
X127021049Y-95541700D01*
X128000697Y-96521350D01*
X128010232Y-96532968D01*
X128021850Y-96542503D01*
X128021856Y-96542509D01*
X128039755Y-96557198D01*
X128056643Y-96571058D01*
X128109594Y-96599360D01*
X128167049Y-96616789D01*
X128211834Y-96621200D01*
X128211842Y-96621200D01*
X128226800Y-96622673D01*
X128241758Y-96621200D01*
X130593242Y-96621200D01*
X130595140Y-96624040D01*
X130662360Y-96691260D01*
X130741403Y-96744074D01*
X130829231Y-96780454D01*
X130922468Y-96799000D01*
X131017532Y-96799000D01*
X131110769Y-96780454D01*
X131198597Y-96744074D01*
X131277640Y-96691260D01*
X131344860Y-96624040D01*
X131397674Y-96544997D01*
X131434054Y-96457169D01*
X131452600Y-96363932D01*
X131452600Y-96268868D01*
X131434054Y-96175631D01*
X131397674Y-96087803D01*
X131344860Y-96008760D01*
X131277640Y-95941540D01*
X131198597Y-95888726D01*
X131110769Y-95852346D01*
X131017532Y-95833800D01*
X130922468Y-95833800D01*
X130829231Y-95852346D01*
X130741403Y-95888726D01*
X130662360Y-95941540D01*
X130595140Y-96008760D01*
X130593242Y-96011600D01*
X128353053Y-96011600D01*
X127373412Y-95031961D01*
X127363868Y-95020332D01*
X127317457Y-94982242D01*
X127264506Y-94953940D01*
X127207051Y-94936511D01*
X127162266Y-94932100D01*
X127162258Y-94932100D01*
X127147300Y-94930627D01*
X127132342Y-94932100D01*
X125139951Y-94932100D01*
X125406652Y-94665400D01*
X125665642Y-94665400D01*
X125667540Y-94668240D01*
X125734760Y-94735460D01*
X125813803Y-94788274D01*
X125901631Y-94824654D01*
X125994868Y-94843200D01*
X126089932Y-94843200D01*
X126183169Y-94824654D01*
X126270997Y-94788274D01*
X126350040Y-94735460D01*
X126417260Y-94668240D01*
X126470074Y-94589197D01*
X126506454Y-94501369D01*
X126525000Y-94408132D01*
X126525000Y-94313068D01*
X126506454Y-94219831D01*
X126470074Y-94132003D01*
X126417260Y-94052960D01*
X126350040Y-93985740D01*
X126270997Y-93932926D01*
X126183169Y-93896546D01*
X126089932Y-93878000D01*
X125994868Y-93878000D01*
X125901631Y-93896546D01*
X125813803Y-93932926D01*
X125734760Y-93985740D01*
X125667540Y-94052960D01*
X125665642Y-94055800D01*
X125355851Y-94055800D01*
X127819652Y-91592000D01*
X129348642Y-91592000D01*
X129350540Y-91594840D01*
X129417760Y-91662060D01*
X129496803Y-91714874D01*
X129584631Y-91751254D01*
X129677868Y-91769800D01*
X129772932Y-91769800D01*
X129866169Y-91751254D01*
X129953997Y-91714874D01*
X130033040Y-91662060D01*
X130100260Y-91594840D01*
X130153074Y-91515797D01*
X130189454Y-91427969D01*
X130208000Y-91334732D01*
X130208000Y-91261150D01*
X130211268Y-91261800D01*
X130306332Y-91261800D01*
X130399569Y-91243254D01*
X130487397Y-91206874D01*
X130566440Y-91154060D01*
X130633660Y-91086840D01*
X130686474Y-91007797D01*
X130722854Y-90919969D01*
X130741400Y-90826732D01*
X130741400Y-90731668D01*
X130722854Y-90638431D01*
X130686474Y-90550603D01*
X130633660Y-90471560D01*
X130566440Y-90404340D01*
X130487397Y-90351526D01*
X130399569Y-90315146D01*
X130306332Y-90296600D01*
X130211268Y-90296600D01*
X130118031Y-90315146D01*
X130030203Y-90351526D01*
X129951160Y-90404340D01*
X129883940Y-90471560D01*
X129882042Y-90474400D01*
X129534929Y-90474400D01*
X129568874Y-90423597D01*
X129605254Y-90335769D01*
X129623800Y-90242532D01*
X129623800Y-90147468D01*
X129605254Y-90054231D01*
X129568874Y-89966403D01*
X129516060Y-89887360D01*
X129448840Y-89820140D01*
X129369797Y-89767326D01*
X129281969Y-89730946D01*
X129188732Y-89712400D01*
X129093668Y-89712400D01*
X129080860Y-89714948D01*
X129097254Y-89675369D01*
X129115800Y-89582132D01*
X129115800Y-89487068D01*
X129097254Y-89393831D01*
X129060874Y-89306003D01*
X129008060Y-89226960D01*
X128940840Y-89159740D01*
X128861797Y-89106926D01*
X128773969Y-89070546D01*
X128680732Y-89052000D01*
X128585668Y-89052000D01*
X128492431Y-89070546D01*
X128404603Y-89106926D01*
X128325560Y-89159740D01*
X128258340Y-89226960D01*
X128256442Y-89229800D01*
X127625357Y-89229800D01*
X127610399Y-89228327D01*
X127595441Y-89229800D01*
X127595434Y-89229800D01*
X127556289Y-89233655D01*
X127550648Y-89234211D01*
X127537276Y-89238268D01*
X127493194Y-89251640D01*
X127440243Y-89279942D01*
X127393832Y-89318032D01*
X127384292Y-89329656D01*
X127361319Y-89352629D01*
X127327674Y-89271403D01*
X127274860Y-89192360D01*
X127207640Y-89125140D01*
X127128597Y-89072326D01*
X127040769Y-89035946D01*
X126947532Y-89017400D01*
X126852468Y-89017400D01*
X126759231Y-89035946D01*
X126671403Y-89072326D01*
X126592360Y-89125140D01*
X126525140Y-89192360D01*
X126472326Y-89271403D01*
X126435946Y-89359231D01*
X126417400Y-89452468D01*
X126417400Y-89526548D01*
X124848749Y-91095200D01*
X124276758Y-91095200D01*
X124274860Y-91092360D01*
X124207640Y-91025140D01*
X124128597Y-90972326D01*
X124040769Y-90935946D01*
X123947532Y-90917400D01*
X123852468Y-90917400D01*
X123759231Y-90935946D01*
X123671403Y-90972326D01*
X123592360Y-91025140D01*
X123525140Y-91092360D01*
X123472326Y-91171403D01*
X123435946Y-91259231D01*
X123417400Y-91352468D01*
X123417400Y-91447532D01*
X123435946Y-91540769D01*
X123472326Y-91628597D01*
X123525140Y-91707640D01*
X123592360Y-91774860D01*
X123671403Y-91827674D01*
X123759231Y-91864054D01*
X123852468Y-91882600D01*
X123947532Y-91882600D01*
X124040769Y-91864054D01*
X124128597Y-91827674D01*
X124207640Y-91774860D01*
X124274860Y-91707640D01*
X124276758Y-91704800D01*
X124960042Y-91704800D01*
X124975000Y-91706273D01*
X124989958Y-91704800D01*
X124989966Y-91704800D01*
X125011245Y-91702704D01*
X124281209Y-92432740D01*
X123193358Y-92432740D01*
X123191460Y-92429900D01*
X123124240Y-92362680D01*
X123045197Y-92309866D01*
X122957369Y-92273486D01*
X122864132Y-92254940D01*
X122769068Y-92254940D01*
X122675831Y-92273486D01*
X122588003Y-92309866D01*
X122508960Y-92362680D01*
X122441740Y-92429900D01*
X122388926Y-92508943D01*
X122352546Y-92596771D01*
X122334000Y-92690008D01*
X122334000Y-92755731D01*
X122244465Y-92773541D01*
X122156637Y-92809921D01*
X122077594Y-92862735D01*
X122010374Y-92929955D01*
X121957560Y-93008998D01*
X121921180Y-93096826D01*
X121902634Y-93190063D01*
X121902634Y-93285127D01*
X121921180Y-93378364D01*
X121957560Y-93466192D01*
X122010374Y-93545235D01*
X122077594Y-93612455D01*
X122156637Y-93665269D01*
X122244465Y-93701649D01*
X122331989Y-93719059D01*
X122331989Y-93756080D01*
X122327108Y-93756080D01*
X122233871Y-93774626D01*
X122146043Y-93811006D01*
X122067000Y-93863820D01*
X121999780Y-93931040D01*
X121946966Y-94010083D01*
X121910586Y-94097911D01*
X121892040Y-94191148D01*
X121892040Y-94286212D01*
X121910586Y-94379449D01*
X121946966Y-94467277D01*
X121999780Y-94546320D01*
X122067000Y-94613540D01*
X122146043Y-94666354D01*
X122233871Y-94702734D01*
X122322744Y-94720412D01*
X122322744Y-94753507D01*
X122322706Y-94753507D01*
X122229469Y-94772053D01*
X122141641Y-94808433D01*
X122062598Y-94861247D01*
X121995378Y-94928467D01*
X121942564Y-95007510D01*
X121906184Y-95095338D01*
X121887638Y-95188575D01*
X111783513Y-95188575D01*
X111783513Y-88314564D01*
X113023891Y-89554943D01*
X113033432Y-89566568D01*
X113079843Y-89604658D01*
X113132794Y-89632960D01*
X113190249Y-89650389D01*
X113235034Y-89654800D01*
X113235042Y-89654800D01*
X113250000Y-89656273D01*
X113264958Y-89654800D01*
X113998749Y-89654800D01*
X114443066Y-90099118D01*
X114442400Y-90102468D01*
X114442400Y-90197532D01*
X114460946Y-90290769D01*
X114497326Y-90378597D01*
X114550140Y-90457640D01*
X114617360Y-90524860D01*
X114696403Y-90577674D01*
X114784231Y-90614054D01*
X114877468Y-90632600D01*
X114972532Y-90632600D01*
X115065769Y-90614054D01*
X115153597Y-90577674D01*
X115232640Y-90524860D01*
X115299860Y-90457640D01*
X115352674Y-90378597D01*
X115389054Y-90290769D01*
X115407600Y-90197532D01*
X115407600Y-90102468D01*
X115389054Y-90009231D01*
X115352674Y-89921403D01*
X115299860Y-89842360D01*
X115232640Y-89775140D01*
X115153597Y-89722326D01*
X115065769Y-89685946D01*
X114972532Y-89667400D01*
X114877468Y-89667400D01*
X114874118Y-89668066D01*
X114351112Y-89145061D01*
X114341568Y-89133432D01*
X114295157Y-89095342D01*
X114242206Y-89067040D01*
X114184751Y-89049611D01*
X114139966Y-89045200D01*
X114139958Y-89045200D01*
X114125000Y-89043727D01*
X114110042Y-89045200D01*
X113376252Y-89045200D01*
X112254800Y-87923749D01*
X112254800Y-87176758D01*
X112257640Y-87174860D01*
X112324860Y-87107640D01*
X112377674Y-87028597D01*
X112414054Y-86940769D01*
X112432600Y-86847532D01*
X112432600Y-86752468D01*
X112414054Y-86659231D01*
X112377674Y-86571403D01*
X112324860Y-86492360D01*
X112257640Y-86425140D01*
X112178597Y-86372326D01*
X112090769Y-86335946D01*
X111997532Y-86317400D01*
X111902468Y-86317400D01*
X111809231Y-86335946D01*
X111721403Y-86372326D01*
X111642360Y-86425140D01*
X111575140Y-86492360D01*
X111522326Y-86571403D01*
X111485946Y-86659231D01*
X111467400Y-86752468D01*
X111467400Y-86847532D01*
X111485946Y-86940769D01*
X111522326Y-87028597D01*
X111575140Y-87107640D01*
X111642360Y-87174860D01*
X111645200Y-87176758D01*
X111645200Y-87214012D01*
X111643965Y-87211730D01*
X111638844Y-87199444D01*
X111630934Y-87187663D01*
X111630723Y-87187273D01*
X111623249Y-87176217D01*
X111615919Y-87165299D01*
X111615641Y-87164962D01*
X111607691Y-87153201D01*
X111598226Y-87143838D01*
X111535669Y-87067955D01*
X111528397Y-87057020D01*
X111518257Y-87046835D01*
X111517863Y-87046357D01*
X111508602Y-87037136D01*
X111499381Y-87027875D01*
X111498903Y-87027481D01*
X111488718Y-87017341D01*
X111477782Y-87010069D01*
X111401903Y-86947516D01*
X111392539Y-86938050D01*
X111380775Y-86930098D01*
X111380438Y-86929820D01*
X111369479Y-86922462D01*
X111358467Y-86915018D01*
X111358081Y-86914809D01*
X111346294Y-86906895D01*
X111334004Y-86901772D01*
X111246077Y-86854165D01*
X111234671Y-86846456D01*
X111207208Y-86834910D01*
X111184108Y-86825195D01*
X111170622Y-86822437D01*
X111071967Y-86791941D01*
X111058809Y-86786464D01*
X111032408Y-86781166D01*
X111005999Y-86775767D01*
X110991744Y-86775692D01*
X110898302Y-86766327D01*
X110898070Y-86766257D01*
X110870752Y-86763566D01*
X110857616Y-86762250D01*
X110857382Y-86762250D01*
X110857142Y-86762226D01*
X110843516Y-86762226D01*
X110816491Y-86762180D01*
X110816258Y-86762226D01*
X107641906Y-86762226D01*
X107641673Y-86762180D01*
X107614647Y-86762226D01*
X107601023Y-86762226D01*
X107600783Y-86762250D01*
X107600547Y-86762250D01*
X107587307Y-86763577D01*
X107560095Y-86766257D01*
X107559863Y-86766327D01*
X107466420Y-86775692D01*
X107452165Y-86775767D01*
X107425702Y-86781177D01*
X107399356Y-86786464D01*
X107386199Y-86791940D01*
X107287545Y-86822437D01*
X107274056Y-86825195D01*
X107250608Y-86835056D01*
X107223493Y-86846456D01*
X107212085Y-86854166D01*
X107124152Y-86901777D01*
X107111871Y-86906896D01*
X107100092Y-86914804D01*
X107099697Y-86915018D01*
X107088616Y-86922509D01*
X107077726Y-86929820D01*
X107077386Y-86930100D01*
X107065626Y-86938050D01*
X107056265Y-86947512D01*
X106980383Y-87010069D01*
X106969447Y-87017341D01*
X106959262Y-87027481D01*
X106958784Y-87027875D01*
X106949563Y-87037136D01*
X106940302Y-87046357D01*
X106939908Y-87046835D01*
X106929768Y-87057020D01*
X106922496Y-87067955D01*
X106859939Y-87143838D01*
X106850474Y-87153201D01*
X106842524Y-87164962D01*
X106842246Y-87165299D01*
X106834916Y-87176217D01*
X106827442Y-87187273D01*
X106827231Y-87187663D01*
X106819321Y-87199444D01*
X106814201Y-87211729D01*
X106766589Y-87299665D01*
X106758882Y-87311068D01*
X106749976Y-87332252D01*
X106737621Y-87361633D01*
X106734863Y-87375119D01*
X106704368Y-87473769D01*
X106698890Y-87486931D01*
X106693581Y-87513386D01*
X106688193Y-87539742D01*
X106688118Y-87553995D01*
X106678753Y-87647442D01*
X106678684Y-87647669D01*
X106676055Y-87674360D01*
X106674676Y-87688122D01*
X106674676Y-87688368D01*
X106674653Y-87688597D01*
X106674653Y-87701635D01*
X106674606Y-87729247D01*
X98969309Y-87729247D01*
X98969309Y-86052468D01*
X108442400Y-86052468D01*
X108442400Y-86147532D01*
X108460946Y-86240769D01*
X108497326Y-86328597D01*
X108550140Y-86407640D01*
X108617360Y-86474860D01*
X108696403Y-86527674D01*
X108784231Y-86564054D01*
X108877468Y-86582600D01*
X108972532Y-86582600D01*
X109065769Y-86564054D01*
X109153597Y-86527674D01*
X109232640Y-86474860D01*
X109299860Y-86407640D01*
X109352674Y-86328597D01*
X109389054Y-86240769D01*
X109407600Y-86147532D01*
X109407600Y-86052468D01*
X109389054Y-85959231D01*
X109352674Y-85871403D01*
X109299860Y-85792360D01*
X109232640Y-85725140D01*
X109229800Y-85723242D01*
X109229800Y-82401251D01*
X110124118Y-81506934D01*
X110127468Y-81507600D01*
X110222532Y-81507600D01*
X110315769Y-81489054D01*
X110403597Y-81452674D01*
X110482640Y-81399860D01*
X110549860Y-81332640D01*
X110602674Y-81253597D01*
X110639054Y-81165769D01*
X110657600Y-81072532D01*
X110657600Y-80977468D01*
X110639054Y-80884231D01*
X110602674Y-80796403D01*
X110571670Y-80750000D01*
X111416894Y-80750000D01*
X111421308Y-80794813D01*
X111434379Y-80837905D01*
X111455606Y-80877618D01*
X111484173Y-80912427D01*
X111518982Y-80940994D01*
X111558695Y-80962221D01*
X111601787Y-80975292D01*
X111646600Y-80979706D01*
X112338650Y-80978600D01*
X112395800Y-80921450D01*
X112395800Y-80100800D01*
X112497400Y-80100800D01*
X112497400Y-80921450D01*
X112554550Y-80978600D01*
X113246600Y-80979706D01*
X113291413Y-80975292D01*
X113334505Y-80962221D01*
X113374218Y-80940994D01*
X113409027Y-80912427D01*
X113437594Y-80877618D01*
X113458821Y-80837905D01*
X113471892Y-80794813D01*
X113476306Y-80750000D01*
X113475200Y-80157950D01*
X113418050Y-80100800D01*
X112497400Y-80100800D01*
X112395800Y-80100800D01*
X111475150Y-80100800D01*
X111418000Y-80157950D01*
X111416894Y-80750000D01*
X110571670Y-80750000D01*
X110549860Y-80717360D01*
X110482640Y-80650140D01*
X110403597Y-80597326D01*
X110315769Y-80560946D01*
X110222532Y-80542400D01*
X110127468Y-80542400D01*
X110034231Y-80560946D01*
X109946403Y-80597326D01*
X109867360Y-80650140D01*
X109800140Y-80717360D01*
X109747326Y-80796403D01*
X109710946Y-80884231D01*
X109692400Y-80977468D01*
X109692400Y-81072532D01*
X109693066Y-81075882D01*
X108720061Y-82048888D01*
X108708432Y-82058432D01*
X108670342Y-82104844D01*
X108646956Y-82148597D01*
X108642040Y-82157795D01*
X108630744Y-82195034D01*
X108624611Y-82215250D01*
X108620200Y-82260035D01*
X108620200Y-82260042D01*
X108618727Y-82275000D01*
X108620200Y-82289958D01*
X108620201Y-85723242D01*
X108617360Y-85725140D01*
X108550140Y-85792360D01*
X108497326Y-85871403D01*
X108460946Y-85959231D01*
X108442400Y-86052468D01*
X98969309Y-86052468D01*
X98969309Y-79084456D01*
X98984058Y-78790546D01*
X99021618Y-78543128D01*
X99310180Y-78543128D01*
X99310180Y-78961952D01*
X99391888Y-79372730D01*
X99552166Y-79759673D01*
X99784852Y-80107914D01*
X100081006Y-80404068D01*
X100429247Y-80636754D01*
X100816190Y-80797032D01*
X101226968Y-80878740D01*
X101645792Y-80878740D01*
X102056570Y-80797032D01*
X102170114Y-80750000D01*
X104216894Y-80750000D01*
X104221308Y-80794813D01*
X104234379Y-80837905D01*
X104255606Y-80877618D01*
X104284173Y-80912427D01*
X104318982Y-80940994D01*
X104358695Y-80962221D01*
X104401787Y-80975292D01*
X104446600Y-80979706D01*
X105138650Y-80978600D01*
X105195800Y-80921450D01*
X105195800Y-80100800D01*
X105297400Y-80100800D01*
X105297400Y-80921450D01*
X105354550Y-80978600D01*
X106046600Y-80979706D01*
X106069321Y-80977468D01*
X107317400Y-80977468D01*
X107317400Y-81072532D01*
X107335946Y-81165769D01*
X107372326Y-81253597D01*
X107425140Y-81332640D01*
X107492360Y-81399860D01*
X107495201Y-81401758D01*
X107495200Y-82798242D01*
X107492360Y-82800140D01*
X107425140Y-82867360D01*
X107372326Y-82946403D01*
X107335946Y-83034231D01*
X107317400Y-83127468D01*
X107317400Y-83222532D01*
X107335946Y-83315769D01*
X107372326Y-83403597D01*
X107425140Y-83482640D01*
X107492360Y-83549860D01*
X107571403Y-83602674D01*
X107659231Y-83639054D01*
X107752468Y-83657600D01*
X107847532Y-83657600D01*
X107940769Y-83639054D01*
X108028597Y-83602674D01*
X108107640Y-83549860D01*
X108174860Y-83482640D01*
X108227674Y-83403597D01*
X108264054Y-83315769D01*
X108282600Y-83222532D01*
X108282600Y-83127468D01*
X108264054Y-83034231D01*
X108227674Y-82946403D01*
X108174860Y-82867360D01*
X108107640Y-82800140D01*
X108104800Y-82798242D01*
X108104800Y-81401758D01*
X108107640Y-81399860D01*
X108174860Y-81332640D01*
X108227674Y-81253597D01*
X108264054Y-81165769D01*
X108282600Y-81072532D01*
X108282600Y-80977468D01*
X108264054Y-80884231D01*
X108227674Y-80796403D01*
X108174860Y-80717360D01*
X108107640Y-80650140D01*
X108028597Y-80597326D01*
X107940769Y-80560946D01*
X107847532Y-80542400D01*
X107752468Y-80542400D01*
X107659231Y-80560946D01*
X107571403Y-80597326D01*
X107492360Y-80650140D01*
X107425140Y-80717360D01*
X107372326Y-80796403D01*
X107335946Y-80884231D01*
X107317400Y-80977468D01*
X106069321Y-80977468D01*
X106091413Y-80975292D01*
X106134505Y-80962221D01*
X106174218Y-80940994D01*
X106209027Y-80912427D01*
X106237594Y-80877618D01*
X106258821Y-80837905D01*
X106271892Y-80794813D01*
X106276306Y-80750000D01*
X106275200Y-80157950D01*
X106218050Y-80100800D01*
X105297400Y-80100800D01*
X105195800Y-80100800D01*
X104275150Y-80100800D01*
X104218000Y-80157950D01*
X104216894Y-80750000D01*
X102170114Y-80750000D01*
X102443513Y-80636754D01*
X102791754Y-80404068D01*
X103087908Y-80107914D01*
X103320594Y-79759673D01*
X103480872Y-79372730D01*
X103485393Y-79350000D01*
X104216894Y-79350000D01*
X104218000Y-79942050D01*
X104275150Y-79999200D01*
X105195800Y-79999200D01*
X105195800Y-79178550D01*
X105297400Y-79178550D01*
X105297400Y-79999200D01*
X106218050Y-79999200D01*
X106275200Y-79942050D01*
X106276306Y-79350000D01*
X111416894Y-79350000D01*
X111418000Y-79942050D01*
X111475150Y-79999200D01*
X112395800Y-79999200D01*
X112395800Y-79178550D01*
X112497400Y-79178550D01*
X112497400Y-79999200D01*
X113418050Y-79999200D01*
X113475200Y-79942050D01*
X113476306Y-79350000D01*
X113471892Y-79305187D01*
X113458821Y-79262095D01*
X113437594Y-79222382D01*
X113409027Y-79187573D01*
X113374218Y-79159006D01*
X113334505Y-79137779D01*
X113291413Y-79124708D01*
X113246600Y-79120294D01*
X112554550Y-79121400D01*
X112497400Y-79178550D01*
X112395800Y-79178550D01*
X112338650Y-79121400D01*
X111646600Y-79120294D01*
X111601787Y-79124708D01*
X111558695Y-79137779D01*
X111518982Y-79159006D01*
X111484173Y-79187573D01*
X111455606Y-79222382D01*
X111434379Y-79262095D01*
X111421308Y-79305187D01*
X111416894Y-79350000D01*
X106276306Y-79350000D01*
X106271892Y-79305187D01*
X106258821Y-79262095D01*
X106237594Y-79222382D01*
X106209027Y-79187573D01*
X106174218Y-79159006D01*
X106134505Y-79137779D01*
X106091413Y-79124708D01*
X106046600Y-79120294D01*
X105354550Y-79121400D01*
X105297400Y-79178550D01*
X105195800Y-79178550D01*
X105138650Y-79121400D01*
X104446600Y-79120294D01*
X104401787Y-79124708D01*
X104358695Y-79137779D01*
X104318982Y-79159006D01*
X104284173Y-79187573D01*
X104255606Y-79222382D01*
X104234379Y-79262095D01*
X104221308Y-79305187D01*
X104216894Y-79350000D01*
X103485393Y-79350000D01*
X103562580Y-78961952D01*
X103562580Y-78543128D01*
X103480872Y-78132350D01*
X103320594Y-77745407D01*
X103087908Y-77397166D01*
X102791754Y-77101012D01*
X102443513Y-76868326D01*
X102056570Y-76708048D01*
X101645792Y-76626340D01*
X101226968Y-76626340D01*
X100816190Y-76708048D01*
X100429247Y-76868326D01*
X100081006Y-77101012D01*
X99784852Y-77397166D01*
X99552166Y-77745407D01*
X99391888Y-78132350D01*
X99310180Y-78543128D01*
X99021618Y-78543128D01*
X99026256Y-78512577D01*
X99094835Y-78244681D01*
X99188419Y-77988083D01*
X99305653Y-77744066D01*
X99445193Y-77513956D01*
X99605652Y-77299161D01*
X99785651Y-77101079D01*
X99983779Y-76921125D01*
X100198620Y-76760705D01*
X100428768Y-76621207D01*
X100672835Y-76504002D01*
X100929474Y-76410444D01*
X101197403Y-76341887D01*
X101475402Y-76299701D01*
X101769329Y-76284957D01*
X104227444Y-76284957D01*
X104221308Y-76305187D01*
G37*
X104221308Y-76305187D02*
X104216894Y-76350000D01*
X104216894Y-77750000D01*
X104221308Y-77794813D01*
X104234379Y-77837905D01*
X104255606Y-77877618D01*
X104284173Y-77912427D01*
X104318982Y-77940994D01*
X104358695Y-77962221D01*
X104401787Y-77975292D01*
X104446600Y-77979706D01*
X106046600Y-77979706D01*
X106091413Y-77975292D01*
X106134505Y-77962221D01*
X106174218Y-77940994D01*
X106209027Y-77912427D01*
X106237594Y-77877618D01*
X106258821Y-77837905D01*
X106271892Y-77794813D01*
X106276306Y-77750000D01*
X106276306Y-77354800D01*
X106698242Y-77354800D01*
X106700140Y-77357640D01*
X106767360Y-77424860D01*
X106846403Y-77477674D01*
X106934231Y-77514054D01*
X107027468Y-77532600D01*
X107122532Y-77532600D01*
X107215769Y-77514054D01*
X107303597Y-77477674D01*
X107382640Y-77424860D01*
X107449860Y-77357640D01*
X107451758Y-77354800D01*
X111416894Y-77354800D01*
X111416894Y-77750000D01*
X111421308Y-77794813D01*
X111434379Y-77837905D01*
X111455606Y-77877618D01*
X111484173Y-77912427D01*
X111518982Y-77940994D01*
X111558695Y-77962221D01*
X111601787Y-77975292D01*
X111646600Y-77979706D01*
X113246600Y-77979706D01*
X113291413Y-77975292D01*
X113334505Y-77962221D01*
X113374218Y-77940994D01*
X113409027Y-77912427D01*
X113437594Y-77877618D01*
X113458821Y-77837905D01*
X113471892Y-77794813D01*
X113476306Y-77750000D01*
X113476306Y-77354800D01*
X114008749Y-77354800D01*
X114645200Y-77991252D01*
X114645201Y-82485025D01*
X114645200Y-82485035D01*
X114645201Y-87610032D01*
X114643727Y-87625000D01*
X114649611Y-87684751D01*
X114667040Y-87742205D01*
X114669811Y-87747389D01*
X114695343Y-87795157D01*
X114733433Y-87841568D01*
X114745057Y-87851108D01*
X115523892Y-88629944D01*
X115533432Y-88641568D01*
X115579843Y-88679658D01*
X115632794Y-88707960D01*
X115690248Y-88725389D01*
X115695403Y-88725897D01*
X115735034Y-88729800D01*
X115735042Y-88729800D01*
X115750000Y-88731273D01*
X115764958Y-88729800D01*
X117898242Y-88729800D01*
X117900140Y-88732640D01*
X117967360Y-88799860D01*
X118046403Y-88852674D01*
X118134231Y-88889054D01*
X118227468Y-88907600D01*
X118322532Y-88907600D01*
X118415769Y-88889054D01*
X118503597Y-88852674D01*
X118582640Y-88799860D01*
X118649860Y-88732640D01*
X118702674Y-88653597D01*
X118739054Y-88565769D01*
X118757600Y-88472532D01*
X118757600Y-88377468D01*
X120417400Y-88377468D01*
X120417400Y-88472532D01*
X120435946Y-88565769D01*
X120472326Y-88653597D01*
X120525140Y-88732640D01*
X120592360Y-88799860D01*
X120671403Y-88852674D01*
X120759231Y-88889054D01*
X120852468Y-88907600D01*
X120947532Y-88907600D01*
X121040769Y-88889054D01*
X121128597Y-88852674D01*
X121207640Y-88799860D01*
X121274860Y-88732640D01*
X121276758Y-88729800D01*
X126723242Y-88729800D01*
X126725140Y-88732640D01*
X126792360Y-88799860D01*
X126871403Y-88852674D01*
X126959231Y-88889054D01*
X127052468Y-88907600D01*
X127147532Y-88907600D01*
X127240769Y-88889054D01*
X127328597Y-88852674D01*
X127407640Y-88799860D01*
X127474860Y-88732640D01*
X127527674Y-88653597D01*
X127564054Y-88565769D01*
X127582600Y-88472532D01*
X127582600Y-88377468D01*
X127564054Y-88284231D01*
X127527674Y-88196403D01*
X127474860Y-88117360D01*
X127407640Y-88050140D01*
X127328597Y-87997326D01*
X127240769Y-87960946D01*
X127147532Y-87942400D01*
X127052468Y-87942400D01*
X126959231Y-87960946D01*
X126871403Y-87997326D01*
X126792360Y-88050140D01*
X126725140Y-88117360D01*
X126723242Y-88120200D01*
X121276758Y-88120200D01*
X121274860Y-88117360D01*
X121207640Y-88050140D01*
X121128597Y-87997326D01*
X121040769Y-87960946D01*
X120947532Y-87942400D01*
X120852468Y-87942400D01*
X120759231Y-87960946D01*
X120671403Y-87997326D01*
X120592360Y-88050140D01*
X120525140Y-88117360D01*
X120472326Y-88196403D01*
X120435946Y-88284231D01*
X120417400Y-88377468D01*
X118757600Y-88377468D01*
X118739054Y-88284231D01*
X118702674Y-88196403D01*
X118649860Y-88117360D01*
X118582640Y-88050140D01*
X118503597Y-87997326D01*
X118415769Y-87960946D01*
X118322532Y-87942400D01*
X118227468Y-87942400D01*
X118134231Y-87960946D01*
X118046403Y-87997326D01*
X117967360Y-88050140D01*
X117900140Y-88117360D01*
X117898242Y-88120200D01*
X115876252Y-88120200D01*
X115254800Y-87498749D01*
X115254800Y-83627468D01*
X123542400Y-83627468D01*
X123542400Y-83722532D01*
X123560946Y-83815769D01*
X123597326Y-83903597D01*
X123650140Y-83982640D01*
X123717360Y-84049860D01*
X123796403Y-84102674D01*
X123884231Y-84139054D01*
X123977468Y-84157600D01*
X124072532Y-84157600D01*
X124075882Y-84156934D01*
X124123892Y-84204944D01*
X124133432Y-84216568D01*
X124179843Y-84254658D01*
X124232794Y-84282960D01*
X124272819Y-84295102D01*
X124290248Y-84300389D01*
X124295889Y-84300945D01*
X124335034Y-84304800D01*
X124335041Y-84304800D01*
X124349999Y-84306273D01*
X124364957Y-84304800D01*
X126448242Y-84304800D01*
X126450140Y-84307640D01*
X126517360Y-84374860D01*
X126596403Y-84427674D01*
X126684231Y-84464054D01*
X126777468Y-84482600D01*
X126872532Y-84482600D01*
X126965769Y-84464054D01*
X127053597Y-84427674D01*
X127132640Y-84374860D01*
X127199860Y-84307640D01*
X127252674Y-84228597D01*
X127289054Y-84140769D01*
X127307600Y-84047532D01*
X127307600Y-83952468D01*
X127289054Y-83859231D01*
X127265542Y-83802468D01*
X128592400Y-83802468D01*
X128592400Y-83897532D01*
X128610946Y-83990769D01*
X128647326Y-84078597D01*
X128700140Y-84157640D01*
X128767360Y-84224860D01*
X128846403Y-84277674D01*
X128934231Y-84314054D01*
X129027468Y-84332600D01*
X129122532Y-84332600D01*
X129125882Y-84331934D01*
X130122214Y-85328266D01*
X130117400Y-85352468D01*
X130117400Y-85447532D01*
X130135946Y-85540769D01*
X130172326Y-85628597D01*
X130225140Y-85707640D01*
X130292360Y-85774860D01*
X130371403Y-85827674D01*
X130459231Y-85864054D01*
X130552468Y-85882600D01*
X130647532Y-85882600D01*
X130740769Y-85864054D01*
X130828597Y-85827674D01*
X130907640Y-85774860D01*
X130974860Y-85707640D01*
X131027674Y-85628597D01*
X131050201Y-85574213D01*
X131050200Y-94553242D01*
X131047360Y-94555140D01*
X130980140Y-94622360D01*
X130927326Y-94701403D01*
X130890946Y-94789231D01*
X130872400Y-94882468D01*
X130872400Y-94977532D01*
X130890946Y-95070769D01*
X130927326Y-95158597D01*
X130980140Y-95237640D01*
X131047360Y-95304860D01*
X131126403Y-95357674D01*
X131214231Y-95394054D01*
X131307468Y-95412600D01*
X131402532Y-95412600D01*
X131448711Y-95403414D01*
X131435946Y-95434231D01*
X131417400Y-95527468D01*
X131417400Y-95622532D01*
X131435946Y-95715769D01*
X131472326Y-95803597D01*
X131525140Y-95882640D01*
X131592360Y-95949860D01*
X131671403Y-96002674D01*
X131759231Y-96039054D01*
X131852468Y-96057600D01*
X131947532Y-96057600D01*
X132040769Y-96039054D01*
X132128597Y-96002674D01*
X132207640Y-95949860D01*
X132274860Y-95882640D01*
X132327674Y-95803597D01*
X132364054Y-95715769D01*
X132382600Y-95622532D01*
X132382600Y-95527468D01*
X132364054Y-95434231D01*
X132346775Y-95392517D01*
X132397468Y-95402600D01*
X132492532Y-95402600D01*
X132585769Y-95384054D01*
X132673597Y-95347674D01*
X132752640Y-95294860D01*
X132819860Y-95227640D01*
X132872674Y-95148597D01*
X132909054Y-95060769D01*
X132927600Y-94967532D01*
X132927600Y-94872468D01*
X133072400Y-94872468D01*
X133072400Y-94967532D01*
X133090946Y-95060769D01*
X133127326Y-95148597D01*
X133180140Y-95227640D01*
X133247360Y-95294860D01*
X133326403Y-95347674D01*
X133414231Y-95384054D01*
X133507468Y-95402600D01*
X133602532Y-95402600D01*
X133695769Y-95384054D01*
X133783597Y-95347674D01*
X133862640Y-95294860D01*
X133929860Y-95227640D01*
X133982674Y-95148597D01*
X134019054Y-95060769D01*
X134037600Y-94967532D01*
X134037600Y-94927468D01*
X134167400Y-94927468D01*
X134167400Y-95022532D01*
X134185946Y-95115769D01*
X134222326Y-95203597D01*
X134275140Y-95282640D01*
X134342360Y-95349860D01*
X134421403Y-95402674D01*
X134509231Y-95439054D01*
X134602468Y-95457600D01*
X134697532Y-95457600D01*
X134790769Y-95439054D01*
X134878597Y-95402674D01*
X134957640Y-95349860D01*
X135024860Y-95282640D01*
X135050000Y-95245015D01*
X135075140Y-95282640D01*
X135142360Y-95349860D01*
X135221403Y-95402674D01*
X135309231Y-95439054D01*
X135402468Y-95457600D01*
X135497532Y-95457600D01*
X135590769Y-95439054D01*
X135678597Y-95402674D01*
X135757640Y-95349860D01*
X135824860Y-95282640D01*
X135877674Y-95203597D01*
X135914054Y-95115769D01*
X135932600Y-95022532D01*
X135932600Y-94927468D01*
X135914054Y-94834231D01*
X135877674Y-94746403D01*
X135824860Y-94667360D01*
X135757640Y-94600140D01*
X135678597Y-94547326D01*
X135590769Y-94510946D01*
X135497532Y-94492400D01*
X135402468Y-94492400D01*
X135309231Y-94510946D01*
X135221403Y-94547326D01*
X135142360Y-94600140D01*
X135075140Y-94667360D01*
X135050000Y-94704985D01*
X135024860Y-94667360D01*
X134957640Y-94600140D01*
X134954800Y-94598242D01*
X134954800Y-91701251D01*
X135099118Y-91556934D01*
X135102468Y-91557600D01*
X135197532Y-91557600D01*
X135290769Y-91539054D01*
X135378597Y-91502674D01*
X135457640Y-91449860D01*
X135524860Y-91382640D01*
X135577674Y-91303597D01*
X135614054Y-91215769D01*
X135632600Y-91122532D01*
X135632600Y-91027468D01*
X135614054Y-90934231D01*
X135577674Y-90846403D01*
X135524860Y-90767360D01*
X135457640Y-90700140D01*
X135378597Y-90647326D01*
X135290769Y-90610946D01*
X135197532Y-90592400D01*
X135102468Y-90592400D01*
X135009231Y-90610946D01*
X134921403Y-90647326D01*
X134842360Y-90700140D01*
X134775140Y-90767360D01*
X134722326Y-90846403D01*
X134685946Y-90934231D01*
X134667400Y-91027468D01*
X134667400Y-91122532D01*
X134668066Y-91125882D01*
X134445056Y-91348893D01*
X134433433Y-91358432D01*
X134395343Y-91404843D01*
X134382982Y-91427969D01*
X134367040Y-91457795D01*
X134349611Y-91515249D01*
X134343727Y-91575000D01*
X134345201Y-91589968D01*
X134345200Y-94598242D01*
X134342360Y-94600140D01*
X134275140Y-94667360D01*
X134222326Y-94746403D01*
X134185946Y-94834231D01*
X134167400Y-94927468D01*
X134037600Y-94927468D01*
X134037600Y-94872468D01*
X134019054Y-94779231D01*
X133982674Y-94691403D01*
X133929860Y-94612360D01*
X133862640Y-94545140D01*
X133859800Y-94543242D01*
X133859800Y-90083217D01*
X133896403Y-90107674D01*
X133984231Y-90144054D01*
X134077468Y-90162600D01*
X134172532Y-90162600D01*
X134265769Y-90144054D01*
X134353597Y-90107674D01*
X134432640Y-90054860D01*
X134499860Y-89987640D01*
X134552674Y-89908597D01*
X134589054Y-89820769D01*
X134607600Y-89727532D01*
X134607600Y-89632468D01*
X134606934Y-89629118D01*
X135156252Y-89079800D01*
X138523749Y-89079800D01*
X138643066Y-89199118D01*
X138642400Y-89202468D01*
X138642400Y-89297532D01*
X138653115Y-89351400D01*
X138648610Y-89366250D01*
X138642726Y-89426001D01*
X138648610Y-89485752D01*
X138666039Y-89543206D01*
X138694342Y-89596157D01*
X138732431Y-89642569D01*
X138778843Y-89680658D01*
X138831794Y-89708961D01*
X138889248Y-89726390D01*
X138948999Y-89732274D01*
X139008750Y-89726390D01*
X139023600Y-89721885D01*
X139077468Y-89732600D01*
X139172532Y-89732600D01*
X139265769Y-89714054D01*
X139353597Y-89677674D01*
X139432640Y-89624860D01*
X139499860Y-89557640D01*
X139552674Y-89478597D01*
X139589054Y-89390769D01*
X139607600Y-89297532D01*
X139607600Y-89202468D01*
X139589054Y-89109231D01*
X139552674Y-89021403D01*
X139499860Y-88942360D01*
X139432640Y-88875140D01*
X139353597Y-88822326D01*
X139265769Y-88785946D01*
X139172532Y-88767400D01*
X139077468Y-88767400D01*
X139074118Y-88768066D01*
X138876112Y-88570061D01*
X138866568Y-88558432D01*
X138820157Y-88520342D01*
X138767206Y-88492040D01*
X138709751Y-88474611D01*
X138664966Y-88470200D01*
X138664958Y-88470200D01*
X138650000Y-88468727D01*
X138635042Y-88470200D01*
X135044957Y-88470200D01*
X135029999Y-88468727D01*
X135015041Y-88470200D01*
X135015034Y-88470200D01*
X134975889Y-88474055D01*
X134970248Y-88474611D01*
X134956876Y-88478668D01*
X134912794Y-88492040D01*
X134859843Y-88520342D01*
X134813432Y-88558432D01*
X134803892Y-88570056D01*
X134175882Y-89198066D01*
X134172532Y-89197400D01*
X134077468Y-89197400D01*
X133984231Y-89215946D01*
X133896403Y-89252326D01*
X133859800Y-89276783D01*
X133859800Y-85366251D01*
X135019945Y-84206107D01*
X135031568Y-84196568D01*
X135069658Y-84150157D01*
X135097960Y-84097206D01*
X135109322Y-84059750D01*
X135115389Y-84039752D01*
X135117319Y-84020156D01*
X135119800Y-83994966D01*
X135119800Y-83994959D01*
X135121273Y-83980001D01*
X135119800Y-83965043D01*
X135119800Y-82296758D01*
X135122640Y-82294860D01*
X135189860Y-82227640D01*
X135242674Y-82148597D01*
X135279054Y-82060769D01*
X135297600Y-81967532D01*
X135297600Y-81872468D01*
X135279054Y-81779231D01*
X135242674Y-81691403D01*
X135189860Y-81612360D01*
X135122640Y-81545140D01*
X135043597Y-81492326D01*
X134955769Y-81455946D01*
X134862532Y-81437400D01*
X134767468Y-81437400D01*
X134674231Y-81455946D01*
X134586403Y-81492326D01*
X134507360Y-81545140D01*
X134440140Y-81612360D01*
X134387326Y-81691403D01*
X134350946Y-81779231D01*
X134332400Y-81872468D01*
X134332400Y-81967532D01*
X134350946Y-82060769D01*
X134387326Y-82148597D01*
X134440140Y-82227640D01*
X134507360Y-82294860D01*
X134510201Y-82296758D01*
X134510200Y-83853748D01*
X133350057Y-85013892D01*
X133338433Y-85023432D01*
X133300343Y-85069843D01*
X133297795Y-85074611D01*
X133272040Y-85122795D01*
X133254611Y-85180249D01*
X133248727Y-85240000D01*
X133250201Y-85254968D01*
X133250200Y-94543242D01*
X133247360Y-94545140D01*
X133180140Y-94612360D01*
X133127326Y-94691403D01*
X133090946Y-94779231D01*
X133072400Y-94872468D01*
X132927600Y-94872468D01*
X132909054Y-94779231D01*
X132872674Y-94691403D01*
X132819860Y-94612360D01*
X132752640Y-94545140D01*
X132749800Y-94543242D01*
X132749800Y-84956251D01*
X133749945Y-83956107D01*
X133761568Y-83946568D01*
X133799658Y-83900157D01*
X133827960Y-83847206D01*
X133831276Y-83836274D01*
X133845389Y-83789752D01*
X133847981Y-83763432D01*
X133849800Y-83744966D01*
X133849800Y-83744958D01*
X133851273Y-83730000D01*
X133849800Y-83715042D01*
X133849800Y-82296758D01*
X133852640Y-82294860D01*
X133919860Y-82227640D01*
X133972674Y-82148597D01*
X134009054Y-82060769D01*
X134027600Y-81967532D01*
X134027600Y-81872468D01*
X134009054Y-81779231D01*
X133972674Y-81691403D01*
X133919860Y-81612360D01*
X133852640Y-81545140D01*
X133773597Y-81492326D01*
X133685769Y-81455946D01*
X133592532Y-81437400D01*
X133497468Y-81437400D01*
X133404231Y-81455946D01*
X133316403Y-81492326D01*
X133237360Y-81545140D01*
X133170140Y-81612360D01*
X133117326Y-81691403D01*
X133080946Y-81779231D01*
X133062400Y-81872468D01*
X133062400Y-81967532D01*
X133080946Y-82060769D01*
X133117326Y-82148597D01*
X133170140Y-82227640D01*
X133237360Y-82294860D01*
X133240201Y-82296758D01*
X133240200Y-83603748D01*
X132240057Y-84603892D01*
X132228433Y-84613432D01*
X132190343Y-84659843D01*
X132175215Y-84688146D01*
X132162040Y-84712795D01*
X132144611Y-84770249D01*
X132138727Y-84830000D01*
X132140201Y-84844968D01*
X132140200Y-90605079D01*
X132128597Y-90597326D01*
X132040769Y-90560946D01*
X131947532Y-90542400D01*
X131852468Y-90542400D01*
X131759231Y-90560946D01*
X131671403Y-90597326D01*
X131659800Y-90605079D01*
X131659800Y-84576251D01*
X132479945Y-83756107D01*
X132491568Y-83746568D01*
X132529658Y-83700157D01*
X132557960Y-83647206D01*
X132575389Y-83589751D01*
X132579800Y-83544966D01*
X132579800Y-83544959D01*
X132581273Y-83530001D01*
X132579800Y-83515043D01*
X132579800Y-82286758D01*
X132582640Y-82284860D01*
X132649860Y-82217640D01*
X132702674Y-82138597D01*
X132739054Y-82050769D01*
X132757600Y-81957532D01*
X132757600Y-81862468D01*
X132739054Y-81769231D01*
X132702674Y-81681403D01*
X132649860Y-81602360D01*
X132582640Y-81535140D01*
X132503597Y-81482326D01*
X132415769Y-81445946D01*
X132322532Y-81427400D01*
X132227468Y-81427400D01*
X132134231Y-81445946D01*
X132046403Y-81482326D01*
X131967360Y-81535140D01*
X131900140Y-81602360D01*
X131847326Y-81681403D01*
X131810946Y-81769231D01*
X131792400Y-81862468D01*
X131792400Y-81957532D01*
X131810946Y-82050769D01*
X131847326Y-82138597D01*
X131900140Y-82217640D01*
X131967360Y-82284860D01*
X131970201Y-82286758D01*
X131970200Y-83403748D01*
X131150057Y-84223892D01*
X131138433Y-84233432D01*
X131100343Y-84279843D01*
X131098678Y-84282959D01*
X131072040Y-84332795D01*
X131054611Y-84390249D01*
X131048727Y-84450000D01*
X131050201Y-84464968D01*
X131050201Y-85225787D01*
X131027674Y-85171403D01*
X130974860Y-85092360D01*
X130907640Y-85025140D01*
X130828597Y-84972326D01*
X130740769Y-84935946D01*
X130647532Y-84917400D01*
X130573452Y-84917400D01*
X129556934Y-83900882D01*
X129557600Y-83897532D01*
X129557600Y-83802468D01*
X129539054Y-83709231D01*
X129502674Y-83621403D01*
X129449860Y-83542360D01*
X129382640Y-83475140D01*
X129303597Y-83422326D01*
X129215769Y-83385946D01*
X129122532Y-83367400D01*
X129027468Y-83367400D01*
X128934231Y-83385946D01*
X128846403Y-83422326D01*
X128767360Y-83475140D01*
X128700140Y-83542360D01*
X128647326Y-83621403D01*
X128610946Y-83709231D01*
X128592400Y-83802468D01*
X127265542Y-83802468D01*
X127252674Y-83771403D01*
X127199860Y-83692360D01*
X127132640Y-83625140D01*
X127053597Y-83572326D01*
X126965769Y-83535946D01*
X126872532Y-83517400D01*
X126777468Y-83517400D01*
X126684231Y-83535946D01*
X126596403Y-83572326D01*
X126517360Y-83625140D01*
X126450140Y-83692360D01*
X126448242Y-83695200D01*
X124507600Y-83695200D01*
X124507600Y-83627468D01*
X124489054Y-83534231D01*
X124452674Y-83446403D01*
X124399860Y-83367360D01*
X124332640Y-83300140D01*
X124253597Y-83247326D01*
X124165769Y-83210946D01*
X124072532Y-83192400D01*
X123977468Y-83192400D01*
X123884231Y-83210946D01*
X123796403Y-83247326D01*
X123717360Y-83300140D01*
X123650140Y-83367360D01*
X123597326Y-83446403D01*
X123560946Y-83534231D01*
X123542400Y-83627468D01*
X115254800Y-83627468D01*
X115254800Y-80809556D01*
X118974786Y-80809556D01*
X119053666Y-80941480D01*
X119220532Y-81027739D01*
X119401020Y-81079787D01*
X119588194Y-81095623D01*
X119774862Y-81074639D01*
X119953848Y-81017641D01*
X120096334Y-80941480D01*
X120175214Y-80809556D01*
X123974786Y-80809556D01*
X124053666Y-80941480D01*
X124220532Y-81027739D01*
X124401020Y-81079787D01*
X124588194Y-81095623D01*
X124774862Y-81074639D01*
X124953848Y-81017641D01*
X125096334Y-80941480D01*
X125175214Y-80809556D01*
X125115658Y-80750000D01*
X126492694Y-80750000D01*
X126497108Y-80794813D01*
X126510179Y-80837905D01*
X126531406Y-80877618D01*
X126559973Y-80912427D01*
X126594782Y-80940994D01*
X126634495Y-80962221D01*
X126677587Y-80975292D01*
X126722400Y-80979706D01*
X127414450Y-80978600D01*
X127471600Y-80921450D01*
X127471600Y-80100800D01*
X127573200Y-80100800D01*
X127573200Y-80921450D01*
X127630350Y-80978600D01*
X128322400Y-80979706D01*
X128367213Y-80975292D01*
X128410305Y-80962221D01*
X128450018Y-80940994D01*
X128484827Y-80912427D01*
X128513394Y-80877618D01*
X128534621Y-80837905D01*
X128547692Y-80794813D01*
X128552106Y-80750000D01*
X133692694Y-80750000D01*
X133697108Y-80794813D01*
X133710179Y-80837905D01*
X133731406Y-80877618D01*
X133759973Y-80912427D01*
X133794782Y-80940994D01*
X133834495Y-80962221D01*
X133877587Y-80975292D01*
X133922400Y-80979706D01*
X134614450Y-80978600D01*
X134671600Y-80921450D01*
X134671600Y-80100800D01*
X134773200Y-80100800D01*
X134773200Y-80921450D01*
X134830350Y-80978600D01*
X135522400Y-80979706D01*
X135567213Y-80975292D01*
X135610305Y-80962221D01*
X135650018Y-80940994D01*
X135684827Y-80912427D01*
X135713394Y-80877618D01*
X135734621Y-80837905D01*
X135747692Y-80794813D01*
X135752106Y-80750000D01*
X135751000Y-80157950D01*
X135693850Y-80100800D01*
X134773200Y-80100800D01*
X134671600Y-80100800D01*
X133750950Y-80100800D01*
X133693800Y-80157950D01*
X133692694Y-80750000D01*
X128552106Y-80750000D01*
X128551000Y-80157950D01*
X128493850Y-80100800D01*
X127573200Y-80100800D01*
X127471600Y-80100800D01*
X126550950Y-80100800D01*
X126493800Y-80157950D01*
X126492694Y-80750000D01*
X125115658Y-80750000D01*
X124575000Y-80209342D01*
X123974786Y-80809556D01*
X120175214Y-80809556D01*
X119575000Y-80209342D01*
X118974786Y-80809556D01*
X115254800Y-80809556D01*
X115254800Y-80150694D01*
X118616877Y-80150694D01*
X118637861Y-80337362D01*
X118694859Y-80516348D01*
X118771020Y-80658834D01*
X118902944Y-80737714D01*
X119503158Y-80137500D01*
X119646842Y-80137500D01*
X120247056Y-80737714D01*
X120378980Y-80658834D01*
X120465239Y-80491968D01*
X120517287Y-80311480D01*
X120530890Y-80150694D01*
X123616877Y-80150694D01*
X123637861Y-80337362D01*
X123694859Y-80516348D01*
X123771020Y-80658834D01*
X123902944Y-80737714D01*
X124503158Y-80137500D01*
X124646842Y-80137500D01*
X125247056Y-80737714D01*
X125378980Y-80658834D01*
X125465239Y-80491968D01*
X125517287Y-80311480D01*
X125533123Y-80124306D01*
X125512139Y-79937638D01*
X125455141Y-79758652D01*
X125378980Y-79616166D01*
X125247056Y-79537286D01*
X124646842Y-80137500D01*
X124503158Y-80137500D01*
X123902944Y-79537286D01*
X123771020Y-79616166D01*
X123684761Y-79783032D01*
X123632713Y-79963520D01*
X123616877Y-80150694D01*
X120530890Y-80150694D01*
X120533123Y-80124306D01*
X120512139Y-79937638D01*
X120455141Y-79758652D01*
X120378980Y-79616166D01*
X120247056Y-79537286D01*
X119646842Y-80137500D01*
X119503158Y-80137500D01*
X118902944Y-79537286D01*
X118771020Y-79616166D01*
X118684761Y-79783032D01*
X118632713Y-79963520D01*
X118616877Y-80150694D01*
X115254800Y-80150694D01*
X115254800Y-79465444D01*
X118974786Y-79465444D01*
X119575000Y-80065658D01*
X120175214Y-79465444D01*
X123974786Y-79465444D01*
X124575000Y-80065658D01*
X125175214Y-79465444D01*
X125106188Y-79350000D01*
X126492694Y-79350000D01*
X126493800Y-79942050D01*
X126550950Y-79999200D01*
X127471600Y-79999200D01*
X127471600Y-79178550D01*
X127573200Y-79178550D01*
X127573200Y-79999200D01*
X128493850Y-79999200D01*
X128551000Y-79942050D01*
X128552106Y-79350000D01*
X133692694Y-79350000D01*
X133693800Y-79942050D01*
X133750950Y-79999200D01*
X134671600Y-79999200D01*
X134671600Y-79178550D01*
X134773200Y-79178550D01*
X134773200Y-79999200D01*
X135693850Y-79999200D01*
X135751000Y-79942050D01*
X135752106Y-79350000D01*
X135747692Y-79305187D01*
X135734621Y-79262095D01*
X135713394Y-79222382D01*
X135684827Y-79187573D01*
X135650018Y-79159006D01*
X135610305Y-79137779D01*
X135567213Y-79124708D01*
X135522400Y-79120294D01*
X134830350Y-79121400D01*
X134773200Y-79178550D01*
X134671600Y-79178550D01*
X134614450Y-79121400D01*
X133922400Y-79120294D01*
X133877587Y-79124708D01*
X133834495Y-79137779D01*
X133794782Y-79159006D01*
X133759973Y-79187573D01*
X133731406Y-79222382D01*
X133710179Y-79262095D01*
X133697108Y-79305187D01*
X133692694Y-79350000D01*
X128552106Y-79350000D01*
X128547692Y-79305187D01*
X128534621Y-79262095D01*
X128513394Y-79222382D01*
X128484827Y-79187573D01*
X128450018Y-79159006D01*
X128410305Y-79137779D01*
X128367213Y-79124708D01*
X128322400Y-79120294D01*
X127630350Y-79121400D01*
X127573200Y-79178550D01*
X127471600Y-79178550D01*
X127414450Y-79121400D01*
X126722400Y-79120294D01*
X126677587Y-79124708D01*
X126634495Y-79137779D01*
X126594782Y-79159006D01*
X126559973Y-79187573D01*
X126531406Y-79222382D01*
X126510179Y-79262095D01*
X126497108Y-79305187D01*
X126492694Y-79350000D01*
X125106188Y-79350000D01*
X125096334Y-79333520D01*
X124929468Y-79247261D01*
X124748980Y-79195213D01*
X124561806Y-79179377D01*
X124375138Y-79200361D01*
X124196152Y-79257359D01*
X124053666Y-79333520D01*
X123974786Y-79465444D01*
X120175214Y-79465444D01*
X120096334Y-79333520D01*
X119929468Y-79247261D01*
X119748980Y-79195213D01*
X119561806Y-79179377D01*
X119375138Y-79200361D01*
X119196152Y-79257359D01*
X119053666Y-79333520D01*
X118974786Y-79465444D01*
X115254800Y-79465444D01*
X115254800Y-77879957D01*
X115256273Y-77864999D01*
X115254800Y-77850041D01*
X115254800Y-77850034D01*
X115250389Y-77805249D01*
X115246134Y-77791220D01*
X115232960Y-77747794D01*
X115225808Y-77734413D01*
X115204658Y-77694843D01*
X115166568Y-77648432D01*
X115154945Y-77638893D01*
X115004352Y-77488300D01*
X117746400Y-77488300D01*
X117746400Y-77838300D01*
X117772232Y-77998976D01*
X117828914Y-78151525D01*
X117914268Y-78290085D01*
X118025013Y-78409330D01*
X118156894Y-78504679D01*
X118304842Y-78572467D01*
X118395448Y-78596412D01*
X118524200Y-78557276D01*
X118524200Y-77488300D01*
X118625800Y-77488300D01*
X118625800Y-78557276D01*
X118754552Y-78596412D01*
X118845158Y-78572467D01*
X118993106Y-78504679D01*
X119124987Y-78409330D01*
X119235732Y-78290085D01*
X119321086Y-78151525D01*
X119377768Y-77998976D01*
X119403600Y-77838300D01*
X119403600Y-77488300D01*
X124746400Y-77488300D01*
X124746400Y-77838300D01*
X124772232Y-77998976D01*
X124828914Y-78151525D01*
X124914268Y-78290085D01*
X125025013Y-78409330D01*
X125156894Y-78504679D01*
X125304842Y-78572467D01*
X125395448Y-78596412D01*
X125524200Y-78557276D01*
X125524200Y-77488300D01*
X125625800Y-77488300D01*
X125625800Y-78557276D01*
X125754552Y-78596412D01*
X125845158Y-78572467D01*
X125903647Y-78545668D01*
X136803120Y-78545668D01*
X136803120Y-78964492D01*
X136884828Y-79375270D01*
X137045106Y-79762213D01*
X137277792Y-80110454D01*
X137573946Y-80406608D01*
X137922187Y-80639294D01*
X138309130Y-80799572D01*
X138719908Y-80881280D01*
X139138732Y-80881280D01*
X139549510Y-80799572D01*
X139592198Y-80781890D01*
X139592690Y-80781792D01*
X139979633Y-80621514D01*
X140327874Y-80388828D01*
X140624028Y-80092674D01*
X140856714Y-79744433D01*
X141016992Y-79357490D01*
X141098700Y-78946712D01*
X141098700Y-78527888D01*
X141016992Y-78117110D01*
X140856714Y-77730167D01*
X140624028Y-77381926D01*
X140327874Y-77085772D01*
X139979633Y-76853086D01*
X139592690Y-76692808D01*
X139181912Y-76611100D01*
X138763088Y-76611100D01*
X138352310Y-76692808D01*
X138309622Y-76710490D01*
X138309130Y-76710588D01*
X137922187Y-76870866D01*
X137573946Y-77103552D01*
X137277792Y-77399706D01*
X137045106Y-77747947D01*
X136884828Y-78134890D01*
X136803120Y-78545668D01*
X125903647Y-78545668D01*
X125993106Y-78504679D01*
X126124987Y-78409330D01*
X126235732Y-78290085D01*
X126321086Y-78151525D01*
X126377768Y-77998976D01*
X126403600Y-77838300D01*
X126403600Y-77488300D01*
X125625800Y-77488300D01*
X125524200Y-77488300D01*
X124746400Y-77488300D01*
X119403600Y-77488300D01*
X118625800Y-77488300D01*
X118524200Y-77488300D01*
X117746400Y-77488300D01*
X115004352Y-77488300D01*
X114361112Y-76845061D01*
X114351568Y-76833432D01*
X114305157Y-76795342D01*
X114252206Y-76767040D01*
X114194751Y-76749611D01*
X114149966Y-76745200D01*
X114149958Y-76745200D01*
X114135000Y-76743727D01*
X114120042Y-76745200D01*
X113476306Y-76745200D01*
X113476306Y-76350000D01*
X113471892Y-76305187D01*
X113465756Y-76284957D01*
X118371348Y-76284957D01*
X118304842Y-76302533D01*
X118156894Y-76370321D01*
X118025013Y-76465670D01*
X117914268Y-76584915D01*
X117828914Y-76723475D01*
X117772232Y-76876024D01*
X117746400Y-77036700D01*
X117746400Y-77386700D01*
X118524200Y-77386700D01*
X118524200Y-77366700D01*
X118625800Y-77366700D01*
X118625800Y-77386700D01*
X119403600Y-77386700D01*
X119403600Y-77036700D01*
X119377768Y-76876024D01*
X119321086Y-76723475D01*
X119235732Y-76584915D01*
X119124987Y-76465670D01*
X118993106Y-76370321D01*
X118845158Y-76302533D01*
X118778652Y-76284957D01*
X125371348Y-76284957D01*
X125304842Y-76302533D01*
X125156894Y-76370321D01*
X125025013Y-76465670D01*
X124914268Y-76584915D01*
X124828914Y-76723475D01*
X124772232Y-76876024D01*
X124746400Y-77036700D01*
X124746400Y-77386700D01*
X125524200Y-77386700D01*
X125524200Y-77366700D01*
X125625800Y-77366700D01*
X125625800Y-77386700D01*
X126403600Y-77386700D01*
X126403600Y-77036700D01*
X126377768Y-76876024D01*
X126321086Y-76723475D01*
X126235732Y-76584915D01*
X126124987Y-76465670D01*
X125993106Y-76370321D01*
X125845158Y-76302533D01*
X125778652Y-76284957D01*
X126503244Y-76284957D01*
X126497108Y-76305187D01*
X126492694Y-76350000D01*
X126492694Y-77750000D01*
X126497108Y-77794813D01*
X126510179Y-77837905D01*
X126531406Y-77877618D01*
X126559973Y-77912427D01*
X126594782Y-77940994D01*
X126634495Y-77962221D01*
X126677587Y-77975292D01*
X126722400Y-77979706D01*
X128322400Y-77979706D01*
X128367213Y-77975292D01*
X128410305Y-77962221D01*
X128450018Y-77940994D01*
X128484827Y-77912427D01*
X128513394Y-77877618D01*
X128534621Y-77837905D01*
X128547692Y-77794813D01*
X128552106Y-77750000D01*
X128552106Y-77354800D01*
X133692694Y-77354800D01*
X133692694Y-77750000D01*
X133697108Y-77794813D01*
X133710179Y-77837905D01*
X133731406Y-77877618D01*
X133759973Y-77912427D01*
X133794782Y-77940994D01*
X133834495Y-77962221D01*
X133877587Y-77975292D01*
X133922400Y-77979706D01*
X135522400Y-77979706D01*
X135567213Y-77975292D01*
X135610305Y-77962221D01*
X135650018Y-77940994D01*
X135684827Y-77912427D01*
X135713394Y-77877618D01*
X135734621Y-77837905D01*
X135747692Y-77794813D01*
X135752106Y-77750000D01*
X135752106Y-77354800D01*
X135837300Y-77354800D01*
X135887360Y-77404860D01*
X135966403Y-77457674D01*
X136054231Y-77494054D01*
X136147468Y-77512600D01*
X136242532Y-77512600D01*
X136335769Y-77494054D01*
X136423597Y-77457674D01*
X136502640Y-77404860D01*
X136569860Y-77337640D01*
X136622674Y-77258597D01*
X136659054Y-77170769D01*
X136677600Y-77077532D01*
X136677600Y-76982468D01*
X136659054Y-76889231D01*
X136622674Y-76801403D01*
X136569860Y-76722360D01*
X136502640Y-76655140D01*
X136423597Y-76602326D01*
X136335769Y-76565946D01*
X136242532Y-76547400D01*
X136147468Y-76547400D01*
X136054231Y-76565946D01*
X135966403Y-76602326D01*
X135887360Y-76655140D01*
X135820140Y-76722360D01*
X135804879Y-76745200D01*
X135752106Y-76745200D01*
X135752106Y-76350000D01*
X135747692Y-76305187D01*
X135741556Y-76284957D01*
X138612565Y-76284957D01*
X138906489Y-76299701D01*
X139184461Y-76341884D01*
X139452368Y-76410442D01*
X139708970Y-76503998D01*
X139952998Y-76621202D01*
X140183090Y-76760691D01*
X140397890Y-76921112D01*
X140595975Y-77101068D01*
X140775921Y-77299144D01*
X140936337Y-77513941D01*
X141075825Y-77744031D01*
X141193026Y-77988055D01*
X141286587Y-78244669D01*
X141355141Y-78512564D01*
X141397325Y-78790537D01*
X141412069Y-79084482D01*
X141412069Y-91663800D01*
X137095000Y-91663800D01*
X137080134Y-91665264D01*
X137065840Y-91669600D01*
X137052666Y-91676642D01*
X137041118Y-91686118D01*
X137031642Y-91697666D01*
X137024600Y-91710840D01*
X137020264Y-91725134D01*
X137018800Y-91740000D01*
X137018800Y-101970000D01*
X137020264Y-101984866D01*
X137024600Y-101999160D01*
X137031642Y-102012334D01*
X137041118Y-102023882D01*
X137052666Y-102033358D01*
X137065840Y-102040400D01*
X137080134Y-102044736D01*
X137095000Y-102046200D01*
X141412068Y-102046200D01*
X141412068Y-115927697D01*
X141397325Y-116221623D01*
X141355139Y-116499625D01*
X141286581Y-116767555D01*
X141193023Y-117024193D01*
X141075812Y-117268271D01*
X140936319Y-117498411D01*
X140775902Y-117713248D01*
X140595948Y-117911376D01*
X140397866Y-118091374D01*
X140183069Y-118251836D01*
X139952964Y-118391372D01*
X139708938Y-118508611D01*
X139452345Y-118602193D01*
X139184449Y-118670772D01*
X138906480Y-118712970D01*
X138612571Y-118727719D01*
X135740319Y-118727719D01*
X135747692Y-118703413D01*
X135752106Y-118658600D01*
X135751000Y-118066550D01*
X135693850Y-118009400D01*
X134773200Y-118009400D01*
X134773200Y-118029400D01*
X134671600Y-118029400D01*
X134671600Y-118009400D01*
X133750950Y-118009400D01*
X133693800Y-118066550D01*
X133692694Y-118658600D01*
X133697108Y-118703413D01*
X133704481Y-118727719D01*
X128540319Y-118727719D01*
X128547692Y-118703413D01*
X128552106Y-118658600D01*
X128551000Y-118066550D01*
X128493850Y-118009400D01*
X127573200Y-118009400D01*
X127573200Y-118029400D01*
X127471600Y-118029400D01*
X127471600Y-118009400D01*
X126550950Y-118009400D01*
X126493800Y-118066550D01*
X126492694Y-118658600D01*
X126497108Y-118703413D01*
X126504481Y-118727719D01*
X113472000Y-118727719D01*
X113476306Y-118684000D01*
X113475200Y-118091950D01*
X113418050Y-118034800D01*
X112497400Y-118034800D01*
X112497400Y-118054800D01*
X112395800Y-118054800D01*
X112395800Y-118034800D01*
X111475150Y-118034800D01*
X111418000Y-118091950D01*
X111416894Y-118684000D01*
X111421200Y-118727719D01*
X106272000Y-118727719D01*
X106276306Y-118684000D01*
X106275200Y-118091950D01*
X106218050Y-118034800D01*
X105297400Y-118034800D01*
X105297400Y-118054800D01*
X105195800Y-118054800D01*
X105195800Y-118034800D01*
X104275150Y-118034800D01*
X104218000Y-118091950D01*
X104216894Y-118684000D01*
X104221200Y-118727719D01*
X101769321Y-118727719D01*
X101475410Y-118712970D01*
X101197421Y-118670772D01*
X100929497Y-118602193D01*
X100672863Y-118508607D01*
X100428798Y-118391366D01*
X100198649Y-118251828D01*
X99983803Y-118091364D01*
X99785674Y-117911363D01*
X99605671Y-117713232D01*
X99445204Y-117498385D01*
X99305666Y-117268237D01*
X99188424Y-117024170D01*
X99094836Y-116767530D01*
X99026256Y-116499606D01*
X98984058Y-116221615D01*
X98975130Y-116043688D01*
X99317800Y-116043688D01*
X99317800Y-116462512D01*
X99399508Y-116873290D01*
X99559786Y-117260233D01*
X99792472Y-117608474D01*
X100088626Y-117904628D01*
X100436867Y-118137314D01*
X100823810Y-118297592D01*
X101234588Y-118379300D01*
X101653412Y-118379300D01*
X102064190Y-118297592D01*
X102451133Y-118137314D01*
X102799374Y-117904628D01*
X103095528Y-117608474D01*
X103312333Y-117284000D01*
X104216894Y-117284000D01*
X104218000Y-117876050D01*
X104275150Y-117933200D01*
X105195800Y-117933200D01*
X105195800Y-117112550D01*
X105297400Y-117112550D01*
X105297400Y-117933200D01*
X106218050Y-117933200D01*
X106275200Y-117876050D01*
X106276306Y-117284000D01*
X111416894Y-117284000D01*
X111418000Y-117876050D01*
X111475150Y-117933200D01*
X112395800Y-117933200D01*
X112395800Y-117112550D01*
X112497400Y-117112550D01*
X112497400Y-117933200D01*
X113418050Y-117933200D01*
X113475200Y-117876050D01*
X113476306Y-117284000D01*
X113471892Y-117239187D01*
X113458821Y-117196095D01*
X113437594Y-117156382D01*
X113409027Y-117121573D01*
X113374218Y-117093006D01*
X113334505Y-117071779D01*
X113291413Y-117058708D01*
X113246600Y-117054294D01*
X112554550Y-117055400D01*
X112497400Y-117112550D01*
X112395800Y-117112550D01*
X112338650Y-117055400D01*
X111646600Y-117054294D01*
X111601787Y-117058708D01*
X111558695Y-117071779D01*
X111518982Y-117093006D01*
X111484173Y-117121573D01*
X111455606Y-117156382D01*
X111434379Y-117196095D01*
X111421308Y-117239187D01*
X111416894Y-117284000D01*
X106276306Y-117284000D01*
X106271892Y-117239187D01*
X106258821Y-117196095D01*
X106237594Y-117156382D01*
X106209027Y-117121573D01*
X106174218Y-117093006D01*
X106134505Y-117071779D01*
X106091413Y-117058708D01*
X106046600Y-117054294D01*
X105354550Y-117055400D01*
X105297400Y-117112550D01*
X105195800Y-117112550D01*
X105138650Y-117055400D01*
X104446600Y-117054294D01*
X104401787Y-117058708D01*
X104358695Y-117071779D01*
X104318982Y-117093006D01*
X104284173Y-117121573D01*
X104255606Y-117156382D01*
X104234379Y-117196095D01*
X104221308Y-117239187D01*
X104216894Y-117284000D01*
X103312333Y-117284000D01*
X103328214Y-117260233D01*
X103488492Y-116873290D01*
X103570200Y-116462512D01*
X103570200Y-116043688D01*
X103488492Y-115632910D01*
X103328214Y-115245967D01*
X103095528Y-114897726D01*
X102799374Y-114601572D01*
X102451133Y-114368886D01*
X102246202Y-114284000D01*
X104216894Y-114284000D01*
X104216894Y-115684000D01*
X104221308Y-115728813D01*
X104234379Y-115771905D01*
X104255606Y-115811618D01*
X104284173Y-115846427D01*
X104318982Y-115874994D01*
X104358695Y-115896221D01*
X104401787Y-115909292D01*
X104446600Y-115913706D01*
X106046600Y-115913706D01*
X106091413Y-115909292D01*
X106134505Y-115896221D01*
X106174218Y-115874994D01*
X106209027Y-115846427D01*
X106237594Y-115811618D01*
X106258821Y-115771905D01*
X106271892Y-115728813D01*
X106276306Y-115684000D01*
X106276306Y-115288800D01*
X111416894Y-115288800D01*
X111416894Y-115684000D01*
X111421308Y-115728813D01*
X111434379Y-115771905D01*
X111455606Y-115811618D01*
X111484173Y-115846427D01*
X111518982Y-115874994D01*
X111558695Y-115896221D01*
X111601787Y-115909292D01*
X111646600Y-115913706D01*
X113246600Y-115913706D01*
X113291413Y-115909292D01*
X113334505Y-115896221D01*
X113374218Y-115874994D01*
X113409027Y-115846427D01*
X113437594Y-115811618D01*
X113458821Y-115771905D01*
X113471892Y-115728813D01*
X113476306Y-115684000D01*
X113476306Y-114284000D01*
X113471892Y-114239187D01*
X113458821Y-114196095D01*
X113437594Y-114156382D01*
X113409027Y-114121573D01*
X113374218Y-114093006D01*
X113334505Y-114071779D01*
X113291413Y-114058708D01*
X113246600Y-114054294D01*
X112842186Y-114054294D01*
X112852674Y-114038597D01*
X112889054Y-113950769D01*
X112907600Y-113857532D01*
X112907600Y-113762468D01*
X112889054Y-113669231D01*
X112852674Y-113581403D01*
X112799860Y-113502360D01*
X112732640Y-113435140D01*
X112729800Y-113433242D01*
X112729800Y-104606251D01*
X113961252Y-103374800D01*
X117077309Y-103374800D01*
X117068892Y-103385056D01*
X116070057Y-104383892D01*
X116058433Y-104393432D01*
X116020343Y-104439843D01*
X116006879Y-104465034D01*
X115992040Y-104492795D01*
X115974611Y-104550249D01*
X115968727Y-104610000D01*
X115970201Y-104624968D01*
X115970200Y-107703748D01*
X115335882Y-108338066D01*
X115332532Y-108337400D01*
X115237468Y-108337400D01*
X115144231Y-108355946D01*
X115056403Y-108392326D01*
X114977360Y-108445140D01*
X114910140Y-108512360D01*
X114857326Y-108591403D01*
X114820946Y-108679231D01*
X114802400Y-108772468D01*
X114802400Y-108867532D01*
X114803066Y-108870882D01*
X114780061Y-108893888D01*
X114768432Y-108903432D01*
X114730342Y-108949844D01*
X114702040Y-109002795D01*
X114684611Y-109060250D01*
X114680200Y-109105035D01*
X114680200Y-109105042D01*
X114678727Y-109120000D01*
X114680200Y-109134958D01*
X114680201Y-114370025D01*
X114680200Y-114370035D01*
X114680201Y-115002342D01*
X114677360Y-115004240D01*
X114610140Y-115071460D01*
X114557326Y-115150503D01*
X114520946Y-115238331D01*
X114502400Y-115331568D01*
X114502400Y-115426632D01*
X114520946Y-115519869D01*
X114557326Y-115607697D01*
X114610140Y-115686740D01*
X114677360Y-115753960D01*
X114756403Y-115806774D01*
X114844231Y-115843154D01*
X114922714Y-115858765D01*
X117448892Y-118384944D01*
X117458432Y-118396568D01*
X117504843Y-118434658D01*
X117557794Y-118462960D01*
X117597819Y-118475102D01*
X117615248Y-118480389D01*
X117620889Y-118480945D01*
X117660034Y-118484800D01*
X117660041Y-118484800D01*
X117674999Y-118486273D01*
X117689957Y-118484800D01*
X119370042Y-118484800D01*
X119385000Y-118486273D01*
X119399958Y-118484800D01*
X119399966Y-118484800D01*
X119444751Y-118480389D01*
X119502206Y-118462960D01*
X119555157Y-118434658D01*
X119601568Y-118396568D01*
X119611112Y-118384939D01*
X119821145Y-118174907D01*
X119832768Y-118165368D01*
X119870858Y-118118957D01*
X119899160Y-118066006D01*
X119916197Y-118009843D01*
X119916589Y-118008552D01*
X119917917Y-117995066D01*
X119921000Y-117963766D01*
X119921000Y-117963759D01*
X119922473Y-117948801D01*
X119921000Y-117933843D01*
X119921000Y-117788126D01*
X119975610Y-117788126D01*
X120020423Y-117783712D01*
X120063515Y-117770641D01*
X120098800Y-117751781D01*
X120134085Y-117770641D01*
X120177177Y-117783712D01*
X120221990Y-117788126D01*
X120473450Y-117787020D01*
X120530600Y-117729870D01*
X120530600Y-117309500D01*
X120510600Y-117309500D01*
X120510600Y-117207900D01*
X120530600Y-117207900D01*
X120530600Y-117187900D01*
X120632200Y-117187900D01*
X120632200Y-117207900D01*
X120652200Y-117207900D01*
X120652200Y-117309500D01*
X120632200Y-117309500D01*
X120632200Y-117729870D01*
X120689350Y-117787020D01*
X120940810Y-117788126D01*
X120985623Y-117783712D01*
X121028715Y-117770641D01*
X121066540Y-117750423D01*
X121104365Y-117770641D01*
X121147457Y-117783712D01*
X121192270Y-117788126D01*
X121911090Y-117788126D01*
X121955903Y-117783712D01*
X121998995Y-117770641D01*
X122038708Y-117749414D01*
X122073517Y-117720847D01*
X122102084Y-117686038D01*
X122123311Y-117646325D01*
X122136382Y-117603233D01*
X122140296Y-117563500D01*
X122146000Y-117563500D01*
X122197360Y-117614860D01*
X122276403Y-117667674D01*
X122364231Y-117704054D01*
X122457468Y-117722600D01*
X122552532Y-117722600D01*
X122645769Y-117704054D01*
X122733597Y-117667674D01*
X122812640Y-117614860D01*
X122879860Y-117547640D01*
X122932674Y-117468597D01*
X122969054Y-117380769D01*
X122987600Y-117287532D01*
X122987600Y-117258600D01*
X126492694Y-117258600D01*
X126493800Y-117850650D01*
X126550950Y-117907800D01*
X127471600Y-117907800D01*
X127471600Y-117087150D01*
X127573200Y-117087150D01*
X127573200Y-117907800D01*
X128493850Y-117907800D01*
X128551000Y-117850650D01*
X128552106Y-117258600D01*
X133692694Y-117258600D01*
X133693800Y-117850650D01*
X133750950Y-117907800D01*
X134671600Y-117907800D01*
X134671600Y-117087150D01*
X134773200Y-117087150D01*
X134773200Y-117907800D01*
X135693850Y-117907800D01*
X135751000Y-117850650D01*
X135752106Y-117258600D01*
X135747692Y-117213787D01*
X135734621Y-117170695D01*
X135713394Y-117130982D01*
X135684827Y-117096173D01*
X135650018Y-117067606D01*
X135610305Y-117046379D01*
X135567213Y-117033308D01*
X135522400Y-117028894D01*
X134830350Y-117030000D01*
X134773200Y-117087150D01*
X134671600Y-117087150D01*
X134614450Y-117030000D01*
X133922400Y-117028894D01*
X133877587Y-117033308D01*
X133834495Y-117046379D01*
X133794782Y-117067606D01*
X133759973Y-117096173D01*
X133731406Y-117130982D01*
X133710179Y-117170695D01*
X133697108Y-117213787D01*
X133692694Y-117258600D01*
X128552106Y-117258600D01*
X128547692Y-117213787D01*
X128534621Y-117170695D01*
X128513394Y-117130982D01*
X128484827Y-117096173D01*
X128450018Y-117067606D01*
X128410305Y-117046379D01*
X128367213Y-117033308D01*
X128322400Y-117028894D01*
X127630350Y-117030000D01*
X127573200Y-117087150D01*
X127471600Y-117087150D01*
X127414450Y-117030000D01*
X126722400Y-117028894D01*
X126677587Y-117033308D01*
X126634495Y-117046379D01*
X126594782Y-117067606D01*
X126559973Y-117096173D01*
X126531406Y-117130982D01*
X126510179Y-117170695D01*
X126497108Y-117213787D01*
X126492694Y-117258600D01*
X122987600Y-117258600D01*
X122987600Y-117192468D01*
X122969054Y-117099231D01*
X122932674Y-117011403D01*
X122879860Y-116932360D01*
X122812640Y-116865140D01*
X122762895Y-116831902D01*
X122795157Y-116814658D01*
X122841568Y-116776568D01*
X122851112Y-116764939D01*
X123569823Y-116046228D01*
X136815820Y-116046228D01*
X136815820Y-116465052D01*
X136897528Y-116875830D01*
X137057806Y-117262773D01*
X137290492Y-117611014D01*
X137586646Y-117907168D01*
X137934887Y-118139854D01*
X138321830Y-118300132D01*
X138732608Y-118381840D01*
X139151432Y-118381840D01*
X139562210Y-118300132D01*
X139949153Y-118139854D01*
X140297394Y-117907168D01*
X140593548Y-117611014D01*
X140826234Y-117262773D01*
X140986512Y-116875830D01*
X141068220Y-116465052D01*
X141068220Y-116046228D01*
X140986512Y-115635450D01*
X140826234Y-115248507D01*
X140593548Y-114900266D01*
X140297394Y-114604112D01*
X139949153Y-114371426D01*
X139562210Y-114211148D01*
X139151432Y-114129440D01*
X138732608Y-114129440D01*
X138321830Y-114211148D01*
X137934887Y-114371426D01*
X137586646Y-114604112D01*
X137290492Y-114900266D01*
X137057806Y-115248507D01*
X136897528Y-115635450D01*
X136815820Y-116046228D01*
X123569823Y-116046228D01*
X123919945Y-115696107D01*
X123931568Y-115686568D01*
X123969658Y-115640157D01*
X123997960Y-115587206D01*
X124004150Y-115566800D01*
X124015389Y-115529752D01*
X124016628Y-115517167D01*
X124019800Y-115484966D01*
X124019800Y-115484958D01*
X124021273Y-115470000D01*
X124019800Y-115455042D01*
X124019800Y-114258600D01*
X126492694Y-114258600D01*
X126492694Y-115658600D01*
X126497108Y-115703413D01*
X126510179Y-115746505D01*
X126531406Y-115786218D01*
X126559973Y-115821027D01*
X126594782Y-115849594D01*
X126634495Y-115870821D01*
X126677587Y-115883892D01*
X126722400Y-115888306D01*
X128322400Y-115888306D01*
X128367213Y-115883892D01*
X128410305Y-115870821D01*
X128450018Y-115849594D01*
X128484827Y-115821027D01*
X128513394Y-115786218D01*
X128534621Y-115746505D01*
X128547692Y-115703413D01*
X128552106Y-115658600D01*
X128552106Y-115263400D01*
X133692694Y-115263400D01*
X133692694Y-115658600D01*
X133697108Y-115703413D01*
X133710179Y-115746505D01*
X133731406Y-115786218D01*
X133759973Y-115821027D01*
X133794782Y-115849594D01*
X133834495Y-115870821D01*
X133877587Y-115883892D01*
X133922400Y-115888306D01*
X135522400Y-115888306D01*
X135567213Y-115883892D01*
X135610305Y-115870821D01*
X135650018Y-115849594D01*
X135684827Y-115821027D01*
X135713394Y-115786218D01*
X135734621Y-115746505D01*
X135747692Y-115703413D01*
X135752106Y-115658600D01*
X135752106Y-114258600D01*
X135747692Y-114213787D01*
X135734621Y-114170695D01*
X135713394Y-114130982D01*
X135684827Y-114096173D01*
X135650018Y-114067606D01*
X135610305Y-114046379D01*
X135567213Y-114033308D01*
X135522400Y-114028894D01*
X135115704Y-114028894D01*
X135162674Y-113958597D01*
X135199054Y-113870769D01*
X135217600Y-113777532D01*
X135217600Y-113682468D01*
X135199054Y-113589231D01*
X135162674Y-113501403D01*
X135109860Y-113422360D01*
X135042640Y-113355140D01*
X134963597Y-113302326D01*
X134875769Y-113265946D01*
X134782532Y-113247400D01*
X134687468Y-113247400D01*
X134594231Y-113265946D01*
X134506403Y-113302326D01*
X134427360Y-113355140D01*
X134360140Y-113422360D01*
X134307326Y-113501403D01*
X134270946Y-113589231D01*
X134252400Y-113682468D01*
X134252400Y-113777532D01*
X134270946Y-113870769D01*
X134307326Y-113958597D01*
X134354296Y-114028894D01*
X133922400Y-114028894D01*
X133877587Y-114033308D01*
X133834495Y-114046379D01*
X133794782Y-114067606D01*
X133759973Y-114096173D01*
X133731406Y-114130982D01*
X133710179Y-114170695D01*
X133697108Y-114213787D01*
X133692694Y-114258600D01*
X133692694Y-114653800D01*
X128552106Y-114653800D01*
X128552106Y-114258600D01*
X128547692Y-114213787D01*
X128534621Y-114170695D01*
X128513394Y-114130982D01*
X128484827Y-114096173D01*
X128450018Y-114067606D01*
X128410305Y-114046379D01*
X128367213Y-114033308D01*
X128322400Y-114028894D01*
X126722400Y-114028894D01*
X126677587Y-114033308D01*
X126634495Y-114046379D01*
X126594782Y-114067606D01*
X126559973Y-114096173D01*
X126531406Y-114130982D01*
X126510179Y-114170695D01*
X126497108Y-114213787D01*
X126492694Y-114258600D01*
X124019800Y-114258600D01*
X124019800Y-109826251D01*
X124341252Y-109504800D01*
X131508749Y-109504800D01*
X131770200Y-109766252D01*
X131770201Y-110093242D01*
X131767360Y-110095140D01*
X131700140Y-110162360D01*
X131647326Y-110241403D01*
X131610946Y-110329231D01*
X131592400Y-110422468D01*
X131592400Y-110517532D01*
X131610946Y-110610769D01*
X131647326Y-110698597D01*
X131700140Y-110777640D01*
X131767360Y-110844860D01*
X131846403Y-110897674D01*
X131934231Y-110934054D01*
X132027468Y-110952600D01*
X132122532Y-110952600D01*
X132125882Y-110951934D01*
X132640201Y-111466253D01*
X132640200Y-112135042D01*
X132638727Y-112150000D01*
X132640200Y-112164958D01*
X132640200Y-112164965D01*
X132643164Y-112195056D01*
X132644611Y-112209751D01*
X132654213Y-112241403D01*
X132662040Y-112267205D01*
X132690342Y-112320156D01*
X132728432Y-112366568D01*
X132740061Y-112376112D01*
X133358892Y-112994944D01*
X133368432Y-113006568D01*
X133414843Y-113044658D01*
X133467794Y-113072960D01*
X133525248Y-113090389D01*
X133530403Y-113090897D01*
X133570034Y-113094800D01*
X133570042Y-113094800D01*
X133585000Y-113096273D01*
X133599958Y-113094800D01*
X140060042Y-113094800D01*
X140075000Y-113096273D01*
X140089958Y-113094800D01*
X140089966Y-113094800D01*
X140134751Y-113090389D01*
X140192206Y-113072960D01*
X140245157Y-113044658D01*
X140291568Y-113006568D01*
X140301112Y-112994939D01*
X140807744Y-112488308D01*
X140819368Y-112478768D01*
X140857458Y-112432357D01*
X140885760Y-112379406D01*
X140893181Y-112354943D01*
X140903189Y-112321952D01*
X140903907Y-112314658D01*
X140907600Y-112277166D01*
X140907600Y-112277158D01*
X140909073Y-112262200D01*
X140907600Y-112247242D01*
X140907600Y-111323663D01*
X140940705Y-111313621D01*
X140980418Y-111292394D01*
X141015227Y-111263827D01*
X141043794Y-111229018D01*
X141065021Y-111189305D01*
X141078092Y-111146213D01*
X141082506Y-111101400D01*
X141082506Y-110601400D01*
X141078092Y-110556587D01*
X141065021Y-110513495D01*
X141043794Y-110473782D01*
X141025426Y-110451400D01*
X141043794Y-110429018D01*
X141065021Y-110389305D01*
X141078092Y-110346213D01*
X141082506Y-110301400D01*
X141082506Y-109801400D01*
X141078092Y-109756587D01*
X141065021Y-109713495D01*
X141043794Y-109673782D01*
X141025426Y-109651400D01*
X141043794Y-109629018D01*
X141065021Y-109589305D01*
X141078092Y-109546213D01*
X141082506Y-109501400D01*
X141082506Y-109001400D01*
X141078092Y-108956587D01*
X141065021Y-108913495D01*
X141043794Y-108873782D01*
X141025426Y-108851400D01*
X141043794Y-108829018D01*
X141065021Y-108789305D01*
X141078092Y-108746213D01*
X141082506Y-108701400D01*
X141081400Y-108559350D01*
X141024250Y-108502200D01*
X140653600Y-108502200D01*
X140653600Y-108522200D01*
X140552000Y-108522200D01*
X140552000Y-108502200D01*
X140181350Y-108502200D01*
X140124200Y-108559350D01*
X140123094Y-108701400D01*
X140127508Y-108746213D01*
X140140579Y-108789305D01*
X140153859Y-108814150D01*
X140085769Y-108785946D01*
X139992532Y-108767400D01*
X139897468Y-108767400D01*
X139804231Y-108785946D01*
X139716403Y-108822326D01*
X139637360Y-108875140D01*
X139570140Y-108942360D01*
X139517326Y-109021403D01*
X139480946Y-109109231D01*
X139462400Y-109202468D01*
X139462400Y-109297532D01*
X139480946Y-109390769D01*
X139517326Y-109478597D01*
X139570140Y-109557640D01*
X139637360Y-109624860D01*
X139716403Y-109677674D01*
X139804231Y-109714054D01*
X139897468Y-109732600D01*
X139992532Y-109732600D01*
X140085769Y-109714054D01*
X140155781Y-109685054D01*
X140140579Y-109713495D01*
X140130537Y-109746600D01*
X140068558Y-109746600D01*
X140053600Y-109745127D01*
X140038642Y-109746600D01*
X140038634Y-109746600D01*
X140000164Y-109750389D01*
X139993848Y-109751011D01*
X139973974Y-109757040D01*
X139936394Y-109768440D01*
X139883443Y-109796742D01*
X139837032Y-109834832D01*
X139827488Y-109846461D01*
X139720057Y-109953892D01*
X139708433Y-109963432D01*
X139670343Y-110009843D01*
X139655215Y-110038146D01*
X139642040Y-110062795D01*
X139624611Y-110120249D01*
X139618727Y-110180000D01*
X139620201Y-110194968D01*
X139620200Y-111933748D01*
X139458749Y-112095200D01*
X134041252Y-112095200D01*
X133669800Y-111723749D01*
X133669800Y-110856758D01*
X133672640Y-110854860D01*
X133685032Y-110842468D01*
X136892400Y-110842468D01*
X136892400Y-110937532D01*
X136910946Y-111030769D01*
X136947326Y-111118597D01*
X137000140Y-111197640D01*
X137067360Y-111264860D01*
X137146403Y-111317674D01*
X137234231Y-111354054D01*
X137327468Y-111372600D01*
X137422532Y-111372600D01*
X137515769Y-111354054D01*
X137603597Y-111317674D01*
X137682640Y-111264860D01*
X137740024Y-111207476D01*
X137740579Y-111209305D01*
X137761806Y-111249018D01*
X137790373Y-111283827D01*
X137825182Y-111312394D01*
X137864895Y-111333621D01*
X137907987Y-111346692D01*
X137952800Y-111351106D01*
X138452800Y-111351106D01*
X138497613Y-111346692D01*
X138540705Y-111333621D01*
X138580418Y-111312394D01*
X138615227Y-111283827D01*
X138643794Y-111249018D01*
X138665021Y-111209305D01*
X138678092Y-111166213D01*
X138682506Y-111121400D01*
X138682506Y-110621400D01*
X138678092Y-110576587D01*
X138665021Y-110533495D01*
X138643794Y-110493782D01*
X138617219Y-110461400D01*
X138643794Y-110429018D01*
X138665021Y-110389305D01*
X138678092Y-110346213D01*
X138682506Y-110301400D01*
X138682506Y-109801400D01*
X138678092Y-109756587D01*
X138665021Y-109713495D01*
X138643794Y-109673782D01*
X138625426Y-109651400D01*
X138643794Y-109629018D01*
X138665021Y-109589305D01*
X138678092Y-109546213D01*
X138682506Y-109501400D01*
X138681400Y-109359350D01*
X138624250Y-109302200D01*
X138253600Y-109302200D01*
X138253600Y-109322200D01*
X138152000Y-109322200D01*
X138152000Y-109302200D01*
X137781350Y-109302200D01*
X137724200Y-109359350D01*
X137723094Y-109501400D01*
X137727508Y-109546213D01*
X137740579Y-109589305D01*
X137761806Y-109629018D01*
X137780174Y-109651400D01*
X137773765Y-109659210D01*
X137703597Y-109612326D01*
X137615769Y-109575946D01*
X137522532Y-109557400D01*
X137427468Y-109557400D01*
X137334231Y-109575946D01*
X137246403Y-109612326D01*
X137167360Y-109665140D01*
X137100140Y-109732360D01*
X137047326Y-109811403D01*
X137010946Y-109899231D01*
X136992400Y-109992468D01*
X136992400Y-110087532D01*
X137010946Y-110180769D01*
X137047326Y-110268597D01*
X137100140Y-110347640D01*
X137167360Y-110414860D01*
X137203193Y-110438802D01*
X137146403Y-110462326D01*
X137067360Y-110515140D01*
X137000140Y-110582360D01*
X136947326Y-110661403D01*
X136910946Y-110749231D01*
X136892400Y-110842468D01*
X133685032Y-110842468D01*
X133739860Y-110787640D01*
X133792674Y-110708597D01*
X133829054Y-110620769D01*
X133847600Y-110527532D01*
X133847600Y-110432468D01*
X133829054Y-110339231D01*
X133792674Y-110251403D01*
X133739860Y-110172360D01*
X133672640Y-110105140D01*
X133669800Y-110103242D01*
X133669800Y-109724957D01*
X133671273Y-109709999D01*
X133669800Y-109695041D01*
X133669800Y-109695034D01*
X133665389Y-109650249D01*
X133662356Y-109640249D01*
X133647960Y-109592794D01*
X133646028Y-109589179D01*
X133619658Y-109539843D01*
X133592721Y-109507022D01*
X133591108Y-109505056D01*
X133581568Y-109493432D01*
X133569945Y-109483893D01*
X132701112Y-108615061D01*
X132691568Y-108603432D01*
X132663863Y-108580694D01*
X132675157Y-108574658D01*
X132721568Y-108536568D01*
X132731112Y-108524939D01*
X132863583Y-108392468D01*
X136982400Y-108392468D01*
X136982400Y-108487532D01*
X137000946Y-108580769D01*
X137037326Y-108668597D01*
X137090140Y-108747640D01*
X137157360Y-108814860D01*
X137236403Y-108867674D01*
X137324231Y-108904054D01*
X137417468Y-108922600D01*
X137512532Y-108922600D01*
X137605769Y-108904054D01*
X137693597Y-108867674D01*
X137759081Y-108823920D01*
X137761806Y-108829018D01*
X137780174Y-108851400D01*
X137761806Y-108873782D01*
X137740579Y-108913495D01*
X137727508Y-108956587D01*
X137723094Y-109001400D01*
X137724200Y-109143450D01*
X137781350Y-109200600D01*
X138152000Y-109200600D01*
X138152000Y-109180600D01*
X138253600Y-109180600D01*
X138253600Y-109200600D01*
X138624250Y-109200600D01*
X138681400Y-109143450D01*
X138682506Y-109001400D01*
X138678092Y-108956587D01*
X138665021Y-108913495D01*
X138643794Y-108873782D01*
X138625426Y-108851400D01*
X138643794Y-108829018D01*
X138665021Y-108789305D01*
X138678092Y-108746213D01*
X138682506Y-108701400D01*
X138682506Y-108201400D01*
X140123094Y-108201400D01*
X140124200Y-108343450D01*
X140181350Y-108400600D01*
X140552000Y-108400600D01*
X140552000Y-108029950D01*
X140653600Y-108029950D01*
X140653600Y-108400600D01*
X141024250Y-108400600D01*
X141081400Y-108343450D01*
X141082506Y-108201400D01*
X141078092Y-108156587D01*
X141065021Y-108113495D01*
X141043794Y-108073782D01*
X141015227Y-108038973D01*
X140980418Y-108010406D01*
X140940705Y-107989179D01*
X140897613Y-107976108D01*
X140852800Y-107971694D01*
X140710750Y-107972800D01*
X140653600Y-108029950D01*
X140552000Y-108029950D01*
X140494850Y-107972800D01*
X140352800Y-107971694D01*
X140307987Y-107976108D01*
X140264895Y-107989179D01*
X140225182Y-108010406D01*
X140190373Y-108038973D01*
X140161806Y-108073782D01*
X140140579Y-108113495D01*
X140127508Y-108156587D01*
X140123094Y-108201400D01*
X138682506Y-108201400D01*
X138678092Y-108156587D01*
X138665021Y-108113495D01*
X138643794Y-108073782D01*
X138615227Y-108038973D01*
X138580418Y-108010406D01*
X138540705Y-107989179D01*
X138497613Y-107976108D01*
X138452800Y-107971694D01*
X137952800Y-107971694D01*
X137907987Y-107976108D01*
X137864895Y-107989179D01*
X137825182Y-108010406D01*
X137790373Y-108038973D01*
X137770223Y-108063525D01*
X137693597Y-108012326D01*
X137605769Y-107975946D01*
X137512532Y-107957400D01*
X137417468Y-107957400D01*
X137324231Y-107975946D01*
X137236403Y-108012326D01*
X137157360Y-108065140D01*
X137090140Y-108132360D01*
X137037326Y-108211403D01*
X137000946Y-108299231D01*
X136982400Y-108392468D01*
X132863583Y-108392468D01*
X133759944Y-107496108D01*
X133771568Y-107486568D01*
X133809658Y-107440157D01*
X133837960Y-107387206D01*
X133855389Y-107329751D01*
X133859800Y-107284966D01*
X133859800Y-107284959D01*
X133861273Y-107270001D01*
X133859800Y-107255043D01*
X133859800Y-104743790D01*
X138421800Y-104743790D01*
X138421800Y-104907010D01*
X138453643Y-105067094D01*
X138516104Y-105217889D01*
X138606785Y-105353602D01*
X138722198Y-105469015D01*
X138857911Y-105559696D01*
X139008706Y-105622157D01*
X139168790Y-105654000D01*
X139332010Y-105654000D01*
X139492094Y-105622157D01*
X139642889Y-105559696D01*
X139778602Y-105469015D01*
X139894015Y-105353602D01*
X139984696Y-105217889D01*
X140047157Y-105067094D01*
X140079000Y-104907010D01*
X140079000Y-104743790D01*
X140047157Y-104583706D01*
X139984696Y-104432911D01*
X139894015Y-104297198D01*
X139778602Y-104181785D01*
X139642889Y-104091104D01*
X139492094Y-104028643D01*
X139332010Y-103996800D01*
X139168790Y-103996800D01*
X139008706Y-104028643D01*
X138857911Y-104091104D01*
X138722198Y-104181785D01*
X138606785Y-104297198D01*
X138516104Y-104432911D01*
X138453643Y-104583706D01*
X138421800Y-104743790D01*
X133859800Y-104743790D01*
X133859800Y-99166758D01*
X133862640Y-99164860D01*
X133929860Y-99097640D01*
X133982674Y-99018597D01*
X134019054Y-98930769D01*
X134037600Y-98837532D01*
X134037600Y-98742468D01*
X134019054Y-98649231D01*
X133982674Y-98561403D01*
X133929860Y-98482360D01*
X133862640Y-98415140D01*
X133783597Y-98362326D01*
X133695769Y-98325946D01*
X133602532Y-98307400D01*
X133507468Y-98307400D01*
X133414231Y-98325946D01*
X133326403Y-98362326D01*
X133247360Y-98415140D01*
X133180140Y-98482360D01*
X133127326Y-98561403D01*
X133090946Y-98649231D01*
X133072400Y-98742468D01*
X133072400Y-98837532D01*
X133090946Y-98930769D01*
X133127326Y-99018597D01*
X133180140Y-99097640D01*
X133247360Y-99164860D01*
X133250200Y-99166758D01*
X133250201Y-107143747D01*
X132746612Y-107647337D01*
X132749159Y-107621472D01*
X132749800Y-107614966D01*
X132749800Y-107614959D01*
X132751273Y-107600001D01*
X132749800Y-107585043D01*
X132749800Y-99166758D01*
X132752640Y-99164860D01*
X132819860Y-99097640D01*
X132872674Y-99018597D01*
X132909054Y-98930769D01*
X132927600Y-98837532D01*
X132927600Y-98742468D01*
X132909054Y-98649231D01*
X132872674Y-98561403D01*
X132819860Y-98482360D01*
X132752640Y-98415140D01*
X132673597Y-98362326D01*
X132585769Y-98325946D01*
X132492532Y-98307400D01*
X132397468Y-98307400D01*
X132304231Y-98325946D01*
X132216403Y-98362326D01*
X132137360Y-98415140D01*
X132070140Y-98482360D01*
X132017326Y-98561403D01*
X131980946Y-98649231D01*
X131962400Y-98742468D01*
X131962400Y-98837532D01*
X131980946Y-98930769D01*
X132017326Y-99018597D01*
X132070140Y-99097640D01*
X132137360Y-99164860D01*
X132140201Y-99166758D01*
X132140200Y-105814965D01*
X132140201Y-105814975D01*
X132140200Y-107473748D01*
X132018749Y-107595200D01*
X123049958Y-107595200D01*
X123035000Y-107593727D01*
X123020042Y-107595200D01*
X123020034Y-107595200D01*
X122980403Y-107599103D01*
X122975248Y-107599611D01*
X122950383Y-107607154D01*
X122917794Y-107617040D01*
X122864843Y-107645342D01*
X122818432Y-107683432D01*
X122808892Y-107695056D01*
X122020057Y-108483892D01*
X122008433Y-108493432D01*
X121970343Y-108539843D01*
X121962834Y-108553892D01*
X121942040Y-108592795D01*
X121924611Y-108650249D01*
X121918727Y-108710000D01*
X121920201Y-108724968D01*
X121920200Y-111463748D01*
X121828749Y-111555200D01*
X119551758Y-111555200D01*
X119549860Y-111552360D01*
X119482640Y-111485140D01*
X119403597Y-111432326D01*
X119315769Y-111395946D01*
X119222532Y-111377400D01*
X119127468Y-111377400D01*
X119034231Y-111395946D01*
X118946403Y-111432326D01*
X118867360Y-111485140D01*
X118800140Y-111552360D01*
X118747326Y-111631403D01*
X118710946Y-111719231D01*
X118692400Y-111812468D01*
X118692400Y-111907532D01*
X118708287Y-111987400D01*
X118687468Y-111987400D01*
X118594231Y-112005946D01*
X118506403Y-112042326D01*
X118427360Y-112095140D01*
X118360140Y-112162360D01*
X118307326Y-112241403D01*
X118270946Y-112329231D01*
X118252400Y-112422468D01*
X118252400Y-112517532D01*
X118270946Y-112610769D01*
X118307326Y-112698597D01*
X118360140Y-112777640D01*
X118427360Y-112844860D01*
X118506403Y-112897674D01*
X118594231Y-112934054D01*
X118687468Y-112952600D01*
X118782532Y-112952600D01*
X118875769Y-112934054D01*
X118963597Y-112897674D01*
X119042640Y-112844860D01*
X119109860Y-112777640D01*
X119111758Y-112774800D01*
X122290042Y-112774800D01*
X122305000Y-112776273D01*
X122319958Y-112774800D01*
X122319966Y-112774800D01*
X122364751Y-112770389D01*
X122422206Y-112752960D01*
X122475157Y-112724658D01*
X122521568Y-112686568D01*
X122531112Y-112674939D01*
X122949944Y-112256108D01*
X122961568Y-112246568D01*
X122990200Y-112211681D01*
X122990200Y-113823748D01*
X122668749Y-114145200D01*
X118979957Y-114145200D01*
X118964999Y-114143727D01*
X118950041Y-114145200D01*
X118950034Y-114145200D01*
X118910889Y-114149055D01*
X118905248Y-114149611D01*
X118891876Y-114153668D01*
X118847794Y-114167040D01*
X118794843Y-114195342D01*
X118748432Y-114233432D01*
X118738892Y-114245056D01*
X118440976Y-114542973D01*
X118429353Y-114552512D01*
X118419813Y-114564136D01*
X118419812Y-114564137D01*
X118416217Y-114568518D01*
X118391263Y-114598923D01*
X118381141Y-114617860D01*
X118362960Y-114651875D01*
X118345531Y-114709329D01*
X118339647Y-114769080D01*
X118341121Y-114784048D01*
X118341120Y-115332274D01*
X118286510Y-115332274D01*
X118241697Y-115336688D01*
X118198605Y-115349759D01*
X118158892Y-115370986D01*
X118124083Y-115399553D01*
X118095516Y-115434362D01*
X118074289Y-115474075D01*
X118061218Y-115517167D01*
X118057304Y-115556900D01*
X116923458Y-115556900D01*
X116921560Y-115554060D01*
X116854340Y-115486840D01*
X116775297Y-115434026D01*
X116687469Y-115397646D01*
X116594232Y-115379100D01*
X116499168Y-115379100D01*
X116495818Y-115379766D01*
X115594610Y-114478559D01*
X115594610Y-110261441D01*
X116594118Y-109261934D01*
X116597468Y-109262600D01*
X116692532Y-109262600D01*
X116785769Y-109244054D01*
X116873597Y-109207674D01*
X116952640Y-109154860D01*
X117019860Y-109087640D01*
X117072674Y-109008597D01*
X117109054Y-108920769D01*
X117127600Y-108827532D01*
X117127600Y-108732468D01*
X117109054Y-108639231D01*
X117072674Y-108551403D01*
X117019860Y-108472360D01*
X116952640Y-108405140D01*
X116949800Y-108403242D01*
X116949800Y-104956251D01*
X117621253Y-104284800D01*
X125560042Y-104284800D01*
X125575000Y-104286273D01*
X125589958Y-104284800D01*
X125589966Y-104284800D01*
X125634751Y-104280389D01*
X125692206Y-104262960D01*
X125745157Y-104234658D01*
X125791568Y-104196568D01*
X125801112Y-104184939D01*
X126619945Y-103366107D01*
X126631568Y-103356568D01*
X126669658Y-103310157D01*
X126697960Y-103257206D01*
X126715389Y-103199751D01*
X126719800Y-103154966D01*
X126719800Y-103154959D01*
X126721273Y-103140001D01*
X126719800Y-103125043D01*
X126719800Y-97786758D01*
X126722640Y-97784860D01*
X126789860Y-97717640D01*
X126842674Y-97638597D01*
X126879054Y-97550769D01*
X126897600Y-97457532D01*
X126897600Y-97362468D01*
X126879054Y-97269231D01*
X126842674Y-97181403D01*
X126789860Y-97102360D01*
X126722640Y-97035140D01*
X126643597Y-96982326D01*
X126555769Y-96945946D01*
X126462532Y-96927400D01*
X126367468Y-96927400D01*
X126274231Y-96945946D01*
X126186403Y-96982326D01*
X126107360Y-97035140D01*
X126040140Y-97102360D01*
X125987326Y-97181403D01*
X125950946Y-97269231D01*
X125932400Y-97362468D01*
X125932400Y-97457532D01*
X125950946Y-97550769D01*
X125987326Y-97638597D01*
X126040140Y-97717640D01*
X126107360Y-97784860D01*
X126110201Y-97786758D01*
X126110201Y-98103510D01*
X126033597Y-98052326D01*
X125945769Y-98015946D01*
X125852532Y-97997400D01*
X125757468Y-97997400D01*
X125664231Y-98015946D01*
X125576403Y-98052326D01*
X125497360Y-98105140D01*
X125430140Y-98172360D01*
X125377326Y-98251403D01*
X125340946Y-98339231D01*
X125322400Y-98432468D01*
X125322400Y-98527532D01*
X125331464Y-98573101D01*
X125252532Y-98557400D01*
X125157468Y-98557400D01*
X125064231Y-98575946D01*
X124976403Y-98612326D01*
X124897360Y-98665140D01*
X124830140Y-98732360D01*
X124777326Y-98811403D01*
X124740946Y-98899231D01*
X124722400Y-98992468D01*
X124722400Y-99087532D01*
X124740946Y-99180769D01*
X124777326Y-99268597D01*
X124830140Y-99347640D01*
X124890200Y-99407700D01*
X124890201Y-102523747D01*
X124648749Y-102765200D01*
X113849957Y-102765200D01*
X113834999Y-102763727D01*
X113820041Y-102765200D01*
X113820034Y-102765200D01*
X113780889Y-102769055D01*
X113775248Y-102769611D01*
X113717794Y-102787040D01*
X113664843Y-102815342D01*
X113618432Y-102853432D01*
X113608892Y-102865056D01*
X112220061Y-104253888D01*
X112208432Y-104263432D01*
X112170342Y-104309844D01*
X112142040Y-104362795D01*
X112124611Y-104420250D01*
X112120200Y-104465035D01*
X112120200Y-104465042D01*
X112118727Y-104480000D01*
X112120200Y-104494958D01*
X112120201Y-113433242D01*
X112117360Y-113435140D01*
X112050140Y-113502360D01*
X111997326Y-113581403D01*
X111960946Y-113669231D01*
X111942400Y-113762468D01*
X111942400Y-113857532D01*
X111960946Y-113950769D01*
X111997326Y-114038597D01*
X112007814Y-114054294D01*
X111646600Y-114054294D01*
X111601787Y-114058708D01*
X111558695Y-114071779D01*
X111518982Y-114093006D01*
X111484173Y-114121573D01*
X111455606Y-114156382D01*
X111434379Y-114196095D01*
X111421308Y-114239187D01*
X111416894Y-114284000D01*
X111416894Y-114679200D01*
X106276306Y-114679200D01*
X106276306Y-114284000D01*
X106271892Y-114239187D01*
X106258821Y-114196095D01*
X106237594Y-114156382D01*
X106209027Y-114121573D01*
X106174218Y-114093006D01*
X106134505Y-114071779D01*
X106091413Y-114058708D01*
X106046600Y-114054294D01*
X104446600Y-114054294D01*
X104401787Y-114058708D01*
X104358695Y-114071779D01*
X104318982Y-114093006D01*
X104284173Y-114121573D01*
X104255606Y-114156382D01*
X104234379Y-114196095D01*
X104221308Y-114239187D01*
X104216894Y-114284000D01*
X102246202Y-114284000D01*
X102064190Y-114208608D01*
X101653412Y-114126900D01*
X101234588Y-114126900D01*
X100823810Y-114208608D01*
X100436867Y-114368886D01*
X100088626Y-114601572D01*
X99792472Y-114897726D01*
X99559786Y-115245967D01*
X99399508Y-115632910D01*
X99317800Y-116043688D01*
X98975130Y-116043688D01*
X98969309Y-115927703D01*
X98969309Y-87729247D01*
X106674606Y-87729247D01*
X106674653Y-87729485D01*
X106674652Y-107282676D01*
X106674606Y-107282909D01*
X106674652Y-107309934D01*
X106674652Y-107323559D01*
X106674676Y-107323799D01*
X106674676Y-107324034D01*
X106675998Y-107337227D01*
X106678683Y-107364487D01*
X106678753Y-107364719D01*
X106688118Y-107458162D01*
X106688193Y-107472417D01*
X106693592Y-107498826D01*
X106698890Y-107525227D01*
X106704367Y-107538385D01*
X106734864Y-107637042D01*
X106737621Y-107650524D01*
X106746256Y-107671058D01*
X106758882Y-107701089D01*
X106766590Y-107712494D01*
X106814201Y-107800428D01*
X106819321Y-107812713D01*
X106827231Y-107824494D01*
X106827442Y-107824884D01*
X106834916Y-107835940D01*
X106842246Y-107846858D01*
X106842524Y-107847195D01*
X106850474Y-107858956D01*
X106859939Y-107868319D01*
X106922495Y-107944200D01*
X106929767Y-107955136D01*
X106939908Y-107965322D01*
X106940302Y-107965800D01*
X106949563Y-107975020D01*
X106958783Y-107984281D01*
X106959261Y-107984675D01*
X106969447Y-107994816D01*
X106980383Y-108002088D01*
X107056264Y-108064644D01*
X107065627Y-108074109D01*
X107077388Y-108082059D01*
X107077725Y-108082337D01*
X107088643Y-108089667D01*
X107099699Y-108097141D01*
X107100089Y-108097352D01*
X107111870Y-108105262D01*
X107124156Y-108110383D01*
X107212086Y-108157991D01*
X107223493Y-108165701D01*
X107252588Y-108177933D01*
X107274058Y-108186962D01*
X107287543Y-108189720D01*
X107386199Y-108220217D01*
X107399356Y-108225693D01*
X107425702Y-108230980D01*
X107452165Y-108236390D01*
X107466420Y-108236465D01*
X107559863Y-108245830D01*
X107560095Y-108245900D01*
X107587307Y-108248580D01*
X107600547Y-108249907D01*
X107600783Y-108249907D01*
X107601023Y-108249931D01*
X107614647Y-108249931D01*
X107641673Y-108249977D01*
X107641906Y-108249931D01*
X110816258Y-108249931D01*
X110816491Y-108249977D01*
X110843516Y-108249931D01*
X110857142Y-108249931D01*
X110857382Y-108249907D01*
X110857616Y-108249907D01*
X110870752Y-108248591D01*
X110898070Y-108245900D01*
X110898302Y-108245830D01*
X110991744Y-108236465D01*
X111005999Y-108236390D01*
X111032408Y-108230991D01*
X111058809Y-108225693D01*
X111071967Y-108220216D01*
X111170624Y-108189719D01*
X111184106Y-108186962D01*
X111204640Y-108178327D01*
X111234671Y-108165701D01*
X111246076Y-108157993D01*
X111334010Y-108110382D01*
X111346295Y-108105262D01*
X111358076Y-108097352D01*
X111358466Y-108097141D01*
X111369522Y-108089667D01*
X111380440Y-108082337D01*
X111380777Y-108082059D01*
X111392538Y-108074109D01*
X111401901Y-108064644D01*
X111477782Y-108002088D01*
X111488718Y-107994816D01*
X111498904Y-107984675D01*
X111499382Y-107984281D01*
X111508602Y-107975020D01*
X111517863Y-107965800D01*
X111518257Y-107965322D01*
X111528398Y-107955136D01*
X111535670Y-107944200D01*
X111598226Y-107868319D01*
X111607691Y-107858956D01*
X111615641Y-107847195D01*
X111615919Y-107846858D01*
X111623249Y-107835940D01*
X111630723Y-107824884D01*
X111630934Y-107824494D01*
X111638844Y-107812713D01*
X111643965Y-107800427D01*
X111691573Y-107712497D01*
X111699283Y-107701090D01*
X111711545Y-107671925D01*
X111720544Y-107650525D01*
X111723302Y-107637040D01*
X111753799Y-107538384D01*
X111759275Y-107525227D01*
X111764562Y-107498881D01*
X111769972Y-107472418D01*
X111770047Y-107458163D01*
X111779412Y-107364720D01*
X111779482Y-107364488D01*
X111782162Y-107337276D01*
X111783489Y-107324036D01*
X111783489Y-107323800D01*
X111783513Y-107323560D01*
X111783513Y-107309936D01*
X111783559Y-107282910D01*
X111783513Y-107282677D01*
X111783513Y-95188575D01*
X121887638Y-95188575D01*
X121887638Y-95283639D01*
X121906184Y-95376876D01*
X121942564Y-95464704D01*
X121995378Y-95543747D01*
X122062598Y-95610967D01*
X122141641Y-95663781D01*
X122229469Y-95700161D01*
X122322706Y-95718707D01*
X122417770Y-95718707D01*
X122511007Y-95700161D01*
X122598835Y-95663781D01*
X122677878Y-95610967D01*
X122745098Y-95543747D01*
X122746466Y-95541700D01*
X127021049Y-95541700D01*
X128000697Y-96521350D01*
X128010232Y-96532968D01*
X128021850Y-96542503D01*
X128021856Y-96542509D01*
X128039755Y-96557198D01*
X128056643Y-96571058D01*
X128109594Y-96599360D01*
X128167049Y-96616789D01*
X128211834Y-96621200D01*
X128211842Y-96621200D01*
X128226800Y-96622673D01*
X128241758Y-96621200D01*
X130593242Y-96621200D01*
X130595140Y-96624040D01*
X130662360Y-96691260D01*
X130741403Y-96744074D01*
X130829231Y-96780454D01*
X130922468Y-96799000D01*
X131017532Y-96799000D01*
X131110769Y-96780454D01*
X131198597Y-96744074D01*
X131277640Y-96691260D01*
X131344860Y-96624040D01*
X131397674Y-96544997D01*
X131434054Y-96457169D01*
X131452600Y-96363932D01*
X131452600Y-96268868D01*
X131434054Y-96175631D01*
X131397674Y-96087803D01*
X131344860Y-96008760D01*
X131277640Y-95941540D01*
X131198597Y-95888726D01*
X131110769Y-95852346D01*
X131017532Y-95833800D01*
X130922468Y-95833800D01*
X130829231Y-95852346D01*
X130741403Y-95888726D01*
X130662360Y-95941540D01*
X130595140Y-96008760D01*
X130593242Y-96011600D01*
X128353053Y-96011600D01*
X127373412Y-95031961D01*
X127363868Y-95020332D01*
X127317457Y-94982242D01*
X127264506Y-94953940D01*
X127207051Y-94936511D01*
X127162266Y-94932100D01*
X127162258Y-94932100D01*
X127147300Y-94930627D01*
X127132342Y-94932100D01*
X125139951Y-94932100D01*
X125406652Y-94665400D01*
X125665642Y-94665400D01*
X125667540Y-94668240D01*
X125734760Y-94735460D01*
X125813803Y-94788274D01*
X125901631Y-94824654D01*
X125994868Y-94843200D01*
X126089932Y-94843200D01*
X126183169Y-94824654D01*
X126270997Y-94788274D01*
X126350040Y-94735460D01*
X126417260Y-94668240D01*
X126470074Y-94589197D01*
X126506454Y-94501369D01*
X126525000Y-94408132D01*
X126525000Y-94313068D01*
X126506454Y-94219831D01*
X126470074Y-94132003D01*
X126417260Y-94052960D01*
X126350040Y-93985740D01*
X126270997Y-93932926D01*
X126183169Y-93896546D01*
X126089932Y-93878000D01*
X125994868Y-93878000D01*
X125901631Y-93896546D01*
X125813803Y-93932926D01*
X125734760Y-93985740D01*
X125667540Y-94052960D01*
X125665642Y-94055800D01*
X125355851Y-94055800D01*
X127819652Y-91592000D01*
X129348642Y-91592000D01*
X129350540Y-91594840D01*
X129417760Y-91662060D01*
X129496803Y-91714874D01*
X129584631Y-91751254D01*
X129677868Y-91769800D01*
X129772932Y-91769800D01*
X129866169Y-91751254D01*
X129953997Y-91714874D01*
X130033040Y-91662060D01*
X130100260Y-91594840D01*
X130153074Y-91515797D01*
X130189454Y-91427969D01*
X130208000Y-91334732D01*
X130208000Y-91261150D01*
X130211268Y-91261800D01*
X130306332Y-91261800D01*
X130399569Y-91243254D01*
X130487397Y-91206874D01*
X130566440Y-91154060D01*
X130633660Y-91086840D01*
X130686474Y-91007797D01*
X130722854Y-90919969D01*
X130741400Y-90826732D01*
X130741400Y-90731668D01*
X130722854Y-90638431D01*
X130686474Y-90550603D01*
X130633660Y-90471560D01*
X130566440Y-90404340D01*
X130487397Y-90351526D01*
X130399569Y-90315146D01*
X130306332Y-90296600D01*
X130211268Y-90296600D01*
X130118031Y-90315146D01*
X130030203Y-90351526D01*
X129951160Y-90404340D01*
X129883940Y-90471560D01*
X129882042Y-90474400D01*
X129534929Y-90474400D01*
X129568874Y-90423597D01*
X129605254Y-90335769D01*
X129623800Y-90242532D01*
X129623800Y-90147468D01*
X129605254Y-90054231D01*
X129568874Y-89966403D01*
X129516060Y-89887360D01*
X129448840Y-89820140D01*
X129369797Y-89767326D01*
X129281969Y-89730946D01*
X129188732Y-89712400D01*
X129093668Y-89712400D01*
X129080860Y-89714948D01*
X129097254Y-89675369D01*
X129115800Y-89582132D01*
X129115800Y-89487068D01*
X129097254Y-89393831D01*
X129060874Y-89306003D01*
X129008060Y-89226960D01*
X128940840Y-89159740D01*
X128861797Y-89106926D01*
X128773969Y-89070546D01*
X128680732Y-89052000D01*
X128585668Y-89052000D01*
X128492431Y-89070546D01*
X128404603Y-89106926D01*
X128325560Y-89159740D01*
X128258340Y-89226960D01*
X128256442Y-89229800D01*
X127625357Y-89229800D01*
X127610399Y-89228327D01*
X127595441Y-89229800D01*
X127595434Y-89229800D01*
X127556289Y-89233655D01*
X127550648Y-89234211D01*
X127537276Y-89238268D01*
X127493194Y-89251640D01*
X127440243Y-89279942D01*
X127393832Y-89318032D01*
X127384292Y-89329656D01*
X127361319Y-89352629D01*
X127327674Y-89271403D01*
X127274860Y-89192360D01*
X127207640Y-89125140D01*
X127128597Y-89072326D01*
X127040769Y-89035946D01*
X126947532Y-89017400D01*
X126852468Y-89017400D01*
X126759231Y-89035946D01*
X126671403Y-89072326D01*
X126592360Y-89125140D01*
X126525140Y-89192360D01*
X126472326Y-89271403D01*
X126435946Y-89359231D01*
X126417400Y-89452468D01*
X126417400Y-89526548D01*
X124848749Y-91095200D01*
X124276758Y-91095200D01*
X124274860Y-91092360D01*
X124207640Y-91025140D01*
X124128597Y-90972326D01*
X124040769Y-90935946D01*
X123947532Y-90917400D01*
X123852468Y-90917400D01*
X123759231Y-90935946D01*
X123671403Y-90972326D01*
X123592360Y-91025140D01*
X123525140Y-91092360D01*
X123472326Y-91171403D01*
X123435946Y-91259231D01*
X123417400Y-91352468D01*
X123417400Y-91447532D01*
X123435946Y-91540769D01*
X123472326Y-91628597D01*
X123525140Y-91707640D01*
X123592360Y-91774860D01*
X123671403Y-91827674D01*
X123759231Y-91864054D01*
X123852468Y-91882600D01*
X123947532Y-91882600D01*
X124040769Y-91864054D01*
X124128597Y-91827674D01*
X124207640Y-91774860D01*
X124274860Y-91707640D01*
X124276758Y-91704800D01*
X124960042Y-91704800D01*
X124975000Y-91706273D01*
X124989958Y-91704800D01*
X124989966Y-91704800D01*
X125011245Y-91702704D01*
X124281209Y-92432740D01*
X123193358Y-92432740D01*
X123191460Y-92429900D01*
X123124240Y-92362680D01*
X123045197Y-92309866D01*
X122957369Y-92273486D01*
X122864132Y-92254940D01*
X122769068Y-92254940D01*
X122675831Y-92273486D01*
X122588003Y-92309866D01*
X122508960Y-92362680D01*
X122441740Y-92429900D01*
X122388926Y-92508943D01*
X122352546Y-92596771D01*
X122334000Y-92690008D01*
X122334000Y-92755731D01*
X122244465Y-92773541D01*
X122156637Y-92809921D01*
X122077594Y-92862735D01*
X122010374Y-92929955D01*
X121957560Y-93008998D01*
X121921180Y-93096826D01*
X121902634Y-93190063D01*
X121902634Y-93285127D01*
X121921180Y-93378364D01*
X121957560Y-93466192D01*
X122010374Y-93545235D01*
X122077594Y-93612455D01*
X122156637Y-93665269D01*
X122244465Y-93701649D01*
X122331989Y-93719059D01*
X122331989Y-93756080D01*
X122327108Y-93756080D01*
X122233871Y-93774626D01*
X122146043Y-93811006D01*
X122067000Y-93863820D01*
X121999780Y-93931040D01*
X121946966Y-94010083D01*
X121910586Y-94097911D01*
X121892040Y-94191148D01*
X121892040Y-94286212D01*
X121910586Y-94379449D01*
X121946966Y-94467277D01*
X121999780Y-94546320D01*
X122067000Y-94613540D01*
X122146043Y-94666354D01*
X122233871Y-94702734D01*
X122322744Y-94720412D01*
X122322744Y-94753507D01*
X122322706Y-94753507D01*
X122229469Y-94772053D01*
X122141641Y-94808433D01*
X122062598Y-94861247D01*
X121995378Y-94928467D01*
X121942564Y-95007510D01*
X121906184Y-95095338D01*
X121887638Y-95188575D01*
X111783513Y-95188575D01*
X111783513Y-88314564D01*
X113023891Y-89554943D01*
X113033432Y-89566568D01*
X113079843Y-89604658D01*
X113132794Y-89632960D01*
X113190249Y-89650389D01*
X113235034Y-89654800D01*
X113235042Y-89654800D01*
X113250000Y-89656273D01*
X113264958Y-89654800D01*
X113998749Y-89654800D01*
X114443066Y-90099118D01*
X114442400Y-90102468D01*
X114442400Y-90197532D01*
X114460946Y-90290769D01*
X114497326Y-90378597D01*
X114550140Y-90457640D01*
X114617360Y-90524860D01*
X114696403Y-90577674D01*
X114784231Y-90614054D01*
X114877468Y-90632600D01*
X114972532Y-90632600D01*
X115065769Y-90614054D01*
X115153597Y-90577674D01*
X115232640Y-90524860D01*
X115299860Y-90457640D01*
X115352674Y-90378597D01*
X115389054Y-90290769D01*
X115407600Y-90197532D01*
X115407600Y-90102468D01*
X115389054Y-90009231D01*
X115352674Y-89921403D01*
X115299860Y-89842360D01*
X115232640Y-89775140D01*
X115153597Y-89722326D01*
X115065769Y-89685946D01*
X114972532Y-89667400D01*
X114877468Y-89667400D01*
X114874118Y-89668066D01*
X114351112Y-89145061D01*
X114341568Y-89133432D01*
X114295157Y-89095342D01*
X114242206Y-89067040D01*
X114184751Y-89049611D01*
X114139966Y-89045200D01*
X114139958Y-89045200D01*
X114125000Y-89043727D01*
X114110042Y-89045200D01*
X113376252Y-89045200D01*
X112254800Y-87923749D01*
X112254800Y-87176758D01*
X112257640Y-87174860D01*
X112324860Y-87107640D01*
X112377674Y-87028597D01*
X112414054Y-86940769D01*
X112432600Y-86847532D01*
X112432600Y-86752468D01*
X112414054Y-86659231D01*
X112377674Y-86571403D01*
X112324860Y-86492360D01*
X112257640Y-86425140D01*
X112178597Y-86372326D01*
X112090769Y-86335946D01*
X111997532Y-86317400D01*
X111902468Y-86317400D01*
X111809231Y-86335946D01*
X111721403Y-86372326D01*
X111642360Y-86425140D01*
X111575140Y-86492360D01*
X111522326Y-86571403D01*
X111485946Y-86659231D01*
X111467400Y-86752468D01*
X111467400Y-86847532D01*
X111485946Y-86940769D01*
X111522326Y-87028597D01*
X111575140Y-87107640D01*
X111642360Y-87174860D01*
X111645200Y-87176758D01*
X111645200Y-87214012D01*
X111643965Y-87211730D01*
X111638844Y-87199444D01*
X111630934Y-87187663D01*
X111630723Y-87187273D01*
X111623249Y-87176217D01*
X111615919Y-87165299D01*
X111615641Y-87164962D01*
X111607691Y-87153201D01*
X111598226Y-87143838D01*
X111535669Y-87067955D01*
X111528397Y-87057020D01*
X111518257Y-87046835D01*
X111517863Y-87046357D01*
X111508602Y-87037136D01*
X111499381Y-87027875D01*
X111498903Y-87027481D01*
X111488718Y-87017341D01*
X111477782Y-87010069D01*
X111401903Y-86947516D01*
X111392539Y-86938050D01*
X111380775Y-86930098D01*
X111380438Y-86929820D01*
X111369479Y-86922462D01*
X111358467Y-86915018D01*
X111358081Y-86914809D01*
X111346294Y-86906895D01*
X111334004Y-86901772D01*
X111246077Y-86854165D01*
X111234671Y-86846456D01*
X111207208Y-86834910D01*
X111184108Y-86825195D01*
X111170622Y-86822437D01*
X111071967Y-86791941D01*
X111058809Y-86786464D01*
X111032408Y-86781166D01*
X111005999Y-86775767D01*
X110991744Y-86775692D01*
X110898302Y-86766327D01*
X110898070Y-86766257D01*
X110870752Y-86763566D01*
X110857616Y-86762250D01*
X110857382Y-86762250D01*
X110857142Y-86762226D01*
X110843516Y-86762226D01*
X110816491Y-86762180D01*
X110816258Y-86762226D01*
X107641906Y-86762226D01*
X107641673Y-86762180D01*
X107614647Y-86762226D01*
X107601023Y-86762226D01*
X107600783Y-86762250D01*
X107600547Y-86762250D01*
X107587307Y-86763577D01*
X107560095Y-86766257D01*
X107559863Y-86766327D01*
X107466420Y-86775692D01*
X107452165Y-86775767D01*
X107425702Y-86781177D01*
X107399356Y-86786464D01*
X107386199Y-86791940D01*
X107287545Y-86822437D01*
X107274056Y-86825195D01*
X107250608Y-86835056D01*
X107223493Y-86846456D01*
X107212085Y-86854166D01*
X107124152Y-86901777D01*
X107111871Y-86906896D01*
X107100092Y-86914804D01*
X107099697Y-86915018D01*
X107088616Y-86922509D01*
X107077726Y-86929820D01*
X107077386Y-86930100D01*
X107065626Y-86938050D01*
X107056265Y-86947512D01*
X106980383Y-87010069D01*
X106969447Y-87017341D01*
X106959262Y-87027481D01*
X106958784Y-87027875D01*
X106949563Y-87037136D01*
X106940302Y-87046357D01*
X106939908Y-87046835D01*
X106929768Y-87057020D01*
X106922496Y-87067955D01*
X106859939Y-87143838D01*
X106850474Y-87153201D01*
X106842524Y-87164962D01*
X106842246Y-87165299D01*
X106834916Y-87176217D01*
X106827442Y-87187273D01*
X106827231Y-87187663D01*
X106819321Y-87199444D01*
X106814201Y-87211729D01*
X106766589Y-87299665D01*
X106758882Y-87311068D01*
X106749976Y-87332252D01*
X106737621Y-87361633D01*
X106734863Y-87375119D01*
X106704368Y-87473769D01*
X106698890Y-87486931D01*
X106693581Y-87513386D01*
X106688193Y-87539742D01*
X106688118Y-87553995D01*
X106678753Y-87647442D01*
X106678684Y-87647669D01*
X106676055Y-87674360D01*
X106674676Y-87688122D01*
X106674676Y-87688368D01*
X106674653Y-87688597D01*
X106674653Y-87701635D01*
X106674606Y-87729247D01*
X98969309Y-87729247D01*
X98969309Y-86052468D01*
X108442400Y-86052468D01*
X108442400Y-86147532D01*
X108460946Y-86240769D01*
X108497326Y-86328597D01*
X108550140Y-86407640D01*
X108617360Y-86474860D01*
X108696403Y-86527674D01*
X108784231Y-86564054D01*
X108877468Y-86582600D01*
X108972532Y-86582600D01*
X109065769Y-86564054D01*
X109153597Y-86527674D01*
X109232640Y-86474860D01*
X109299860Y-86407640D01*
X109352674Y-86328597D01*
X109389054Y-86240769D01*
X109407600Y-86147532D01*
X109407600Y-86052468D01*
X109389054Y-85959231D01*
X109352674Y-85871403D01*
X109299860Y-85792360D01*
X109232640Y-85725140D01*
X109229800Y-85723242D01*
X109229800Y-82401251D01*
X110124118Y-81506934D01*
X110127468Y-81507600D01*
X110222532Y-81507600D01*
X110315769Y-81489054D01*
X110403597Y-81452674D01*
X110482640Y-81399860D01*
X110549860Y-81332640D01*
X110602674Y-81253597D01*
X110639054Y-81165769D01*
X110657600Y-81072532D01*
X110657600Y-80977468D01*
X110639054Y-80884231D01*
X110602674Y-80796403D01*
X110571670Y-80750000D01*
X111416894Y-80750000D01*
X111421308Y-80794813D01*
X111434379Y-80837905D01*
X111455606Y-80877618D01*
X111484173Y-80912427D01*
X111518982Y-80940994D01*
X111558695Y-80962221D01*
X111601787Y-80975292D01*
X111646600Y-80979706D01*
X112338650Y-80978600D01*
X112395800Y-80921450D01*
X112395800Y-80100800D01*
X112497400Y-80100800D01*
X112497400Y-80921450D01*
X112554550Y-80978600D01*
X113246600Y-80979706D01*
X113291413Y-80975292D01*
X113334505Y-80962221D01*
X113374218Y-80940994D01*
X113409027Y-80912427D01*
X113437594Y-80877618D01*
X113458821Y-80837905D01*
X113471892Y-80794813D01*
X113476306Y-80750000D01*
X113475200Y-80157950D01*
X113418050Y-80100800D01*
X112497400Y-80100800D01*
X112395800Y-80100800D01*
X111475150Y-80100800D01*
X111418000Y-80157950D01*
X111416894Y-80750000D01*
X110571670Y-80750000D01*
X110549860Y-80717360D01*
X110482640Y-80650140D01*
X110403597Y-80597326D01*
X110315769Y-80560946D01*
X110222532Y-80542400D01*
X110127468Y-80542400D01*
X110034231Y-80560946D01*
X109946403Y-80597326D01*
X109867360Y-80650140D01*
X109800140Y-80717360D01*
X109747326Y-80796403D01*
X109710946Y-80884231D01*
X109692400Y-80977468D01*
X109692400Y-81072532D01*
X109693066Y-81075882D01*
X108720061Y-82048888D01*
X108708432Y-82058432D01*
X108670342Y-82104844D01*
X108646956Y-82148597D01*
X108642040Y-82157795D01*
X108630744Y-82195034D01*
X108624611Y-82215250D01*
X108620200Y-82260035D01*
X108620200Y-82260042D01*
X108618727Y-82275000D01*
X108620200Y-82289958D01*
X108620201Y-85723242D01*
X108617360Y-85725140D01*
X108550140Y-85792360D01*
X108497326Y-85871403D01*
X108460946Y-85959231D01*
X108442400Y-86052468D01*
X98969309Y-86052468D01*
X98969309Y-79084456D01*
X98984058Y-78790546D01*
X99021618Y-78543128D01*
X99310180Y-78543128D01*
X99310180Y-78961952D01*
X99391888Y-79372730D01*
X99552166Y-79759673D01*
X99784852Y-80107914D01*
X100081006Y-80404068D01*
X100429247Y-80636754D01*
X100816190Y-80797032D01*
X101226968Y-80878740D01*
X101645792Y-80878740D01*
X102056570Y-80797032D01*
X102170114Y-80750000D01*
X104216894Y-80750000D01*
X104221308Y-80794813D01*
X104234379Y-80837905D01*
X104255606Y-80877618D01*
X104284173Y-80912427D01*
X104318982Y-80940994D01*
X104358695Y-80962221D01*
X104401787Y-80975292D01*
X104446600Y-80979706D01*
X105138650Y-80978600D01*
X105195800Y-80921450D01*
X105195800Y-80100800D01*
X105297400Y-80100800D01*
X105297400Y-80921450D01*
X105354550Y-80978600D01*
X106046600Y-80979706D01*
X106069321Y-80977468D01*
X107317400Y-80977468D01*
X107317400Y-81072532D01*
X107335946Y-81165769D01*
X107372326Y-81253597D01*
X107425140Y-81332640D01*
X107492360Y-81399860D01*
X107495201Y-81401758D01*
X107495200Y-82798242D01*
X107492360Y-82800140D01*
X107425140Y-82867360D01*
X107372326Y-82946403D01*
X107335946Y-83034231D01*
X107317400Y-83127468D01*
X107317400Y-83222532D01*
X107335946Y-83315769D01*
X107372326Y-83403597D01*
X107425140Y-83482640D01*
X107492360Y-83549860D01*
X107571403Y-83602674D01*
X107659231Y-83639054D01*
X107752468Y-83657600D01*
X107847532Y-83657600D01*
X107940769Y-83639054D01*
X108028597Y-83602674D01*
X108107640Y-83549860D01*
X108174860Y-83482640D01*
X108227674Y-83403597D01*
X108264054Y-83315769D01*
X108282600Y-83222532D01*
X108282600Y-83127468D01*
X108264054Y-83034231D01*
X108227674Y-82946403D01*
X108174860Y-82867360D01*
X108107640Y-82800140D01*
X108104800Y-82798242D01*
X108104800Y-81401758D01*
X108107640Y-81399860D01*
X108174860Y-81332640D01*
X108227674Y-81253597D01*
X108264054Y-81165769D01*
X108282600Y-81072532D01*
X108282600Y-80977468D01*
X108264054Y-80884231D01*
X108227674Y-80796403D01*
X108174860Y-80717360D01*
X108107640Y-80650140D01*
X108028597Y-80597326D01*
X107940769Y-80560946D01*
X107847532Y-80542400D01*
X107752468Y-80542400D01*
X107659231Y-80560946D01*
X107571403Y-80597326D01*
X107492360Y-80650140D01*
X107425140Y-80717360D01*
X107372326Y-80796403D01*
X107335946Y-80884231D01*
X107317400Y-80977468D01*
X106069321Y-80977468D01*
X106091413Y-80975292D01*
X106134505Y-80962221D01*
X106174218Y-80940994D01*
X106209027Y-80912427D01*
X106237594Y-80877618D01*
X106258821Y-80837905D01*
X106271892Y-80794813D01*
X106276306Y-80750000D01*
X106275200Y-80157950D01*
X106218050Y-80100800D01*
X105297400Y-80100800D01*
X105195800Y-80100800D01*
X104275150Y-80100800D01*
X104218000Y-80157950D01*
X104216894Y-80750000D01*
X102170114Y-80750000D01*
X102443513Y-80636754D01*
X102791754Y-80404068D01*
X103087908Y-80107914D01*
X103320594Y-79759673D01*
X103480872Y-79372730D01*
X103485393Y-79350000D01*
X104216894Y-79350000D01*
X104218000Y-79942050D01*
X104275150Y-79999200D01*
X105195800Y-79999200D01*
X105195800Y-79178550D01*
X105297400Y-79178550D01*
X105297400Y-79999200D01*
X106218050Y-79999200D01*
X106275200Y-79942050D01*
X106276306Y-79350000D01*
X111416894Y-79350000D01*
X111418000Y-79942050D01*
X111475150Y-79999200D01*
X112395800Y-79999200D01*
X112395800Y-79178550D01*
X112497400Y-79178550D01*
X112497400Y-79999200D01*
X113418050Y-79999200D01*
X113475200Y-79942050D01*
X113476306Y-79350000D01*
X113471892Y-79305187D01*
X113458821Y-79262095D01*
X113437594Y-79222382D01*
X113409027Y-79187573D01*
X113374218Y-79159006D01*
X113334505Y-79137779D01*
X113291413Y-79124708D01*
X113246600Y-79120294D01*
X112554550Y-79121400D01*
X112497400Y-79178550D01*
X112395800Y-79178550D01*
X112338650Y-79121400D01*
X111646600Y-79120294D01*
X111601787Y-79124708D01*
X111558695Y-79137779D01*
X111518982Y-79159006D01*
X111484173Y-79187573D01*
X111455606Y-79222382D01*
X111434379Y-79262095D01*
X111421308Y-79305187D01*
X111416894Y-79350000D01*
X106276306Y-79350000D01*
X106271892Y-79305187D01*
X106258821Y-79262095D01*
X106237594Y-79222382D01*
X106209027Y-79187573D01*
X106174218Y-79159006D01*
X106134505Y-79137779D01*
X106091413Y-79124708D01*
X106046600Y-79120294D01*
X105354550Y-79121400D01*
X105297400Y-79178550D01*
X105195800Y-79178550D01*
X105138650Y-79121400D01*
X104446600Y-79120294D01*
X104401787Y-79124708D01*
X104358695Y-79137779D01*
X104318982Y-79159006D01*
X104284173Y-79187573D01*
X104255606Y-79222382D01*
X104234379Y-79262095D01*
X104221308Y-79305187D01*
X104216894Y-79350000D01*
X103485393Y-79350000D01*
X103562580Y-78961952D01*
X103562580Y-78543128D01*
X103480872Y-78132350D01*
X103320594Y-77745407D01*
X103087908Y-77397166D01*
X102791754Y-77101012D01*
X102443513Y-76868326D01*
X102056570Y-76708048D01*
X101645792Y-76626340D01*
X101226968Y-76626340D01*
X100816190Y-76708048D01*
X100429247Y-76868326D01*
X100081006Y-77101012D01*
X99784852Y-77397166D01*
X99552166Y-77745407D01*
X99391888Y-78132350D01*
X99310180Y-78543128D01*
X99021618Y-78543128D01*
X99026256Y-78512577D01*
X99094835Y-78244681D01*
X99188419Y-77988083D01*
X99305653Y-77744066D01*
X99445193Y-77513956D01*
X99605652Y-77299161D01*
X99785651Y-77101079D01*
X99983779Y-76921125D01*
X100198620Y-76760705D01*
X100428768Y-76621207D01*
X100672835Y-76504002D01*
X100929474Y-76410444D01*
X101197403Y-76341887D01*
X101475402Y-76299701D01*
X101769329Y-76284957D01*
X104227444Y-76284957D01*
X104221308Y-76305187D01*
M02*
