G04 #@! TF.GenerationSoftware,KiCad,Pcbnew,5.1.5-52549c5~84~ubuntu19.04.1*
G04 #@! TF.CreationDate,2020-02-18T23:24:20+01:00*
G04 #@! TF.ProjectId,badge,62616467-652e-46b6-9963-61645f706362,rev?*
G04 #@! TF.SameCoordinates,Original*
G04 #@! TF.FileFunction,Soldermask,Top*
G04 #@! TF.FilePolarity,Negative*
%FSLAX46Y46*%
G04 Gerber Fmt 4.6, Leading zero omitted, Abs format (unit mm)*
G04 Created by KiCad (PCBNEW 5.1.5-52549c5~84~ubuntu19.04.1) date 2020-02-18 23:24:20*
%MOMM*%
%LPD*%
G04 APERTURE LIST*
%ADD10C,2.950800*%
%ADD11C,1.500800*%
%ADD12O,1.250800X1.950800*%
%ADD13R,0.769620X0.650240*%
%ADD14C,1.250800*%
%ADD15R,0.550800X0.550800*%
%ADD16R,1.650800X1.450800*%
G04 APERTURE END LIST*
D10*
X138942020Y-116255640D03*
X101444000Y-116253100D03*
X138929320Y-78755080D03*
X138972500Y-78737300D03*
X101436380Y-78752540D03*
D11*
X119575000Y-80137500D03*
X124575000Y-80137500D03*
D12*
X118575000Y-77437500D03*
X125575000Y-77437500D03*
D13*
X118645920Y-115861700D03*
X119616200Y-115861700D03*
X120581400Y-115861700D03*
X121551680Y-115861700D03*
X121551680Y-117258700D03*
X120581400Y-117258700D03*
X119616200Y-117258700D03*
X118645920Y-117258700D03*
D14*
X139250400Y-104825400D03*
D15*
X140602800Y-108451400D03*
X140602800Y-109251400D03*
X140602800Y-110051400D03*
X140602800Y-110851400D03*
X138202800Y-110871400D03*
X138202800Y-110051400D03*
X138202800Y-109251400D03*
X138202800Y-108451400D03*
D16*
X127522400Y-117958600D03*
X134722400Y-117958600D03*
X127522400Y-114958600D03*
X134722400Y-114958600D03*
X112446600Y-114984000D03*
X105246600Y-114984000D03*
X112446600Y-117984000D03*
X105246600Y-117984000D03*
X105246600Y-80050000D03*
X112446600Y-80050000D03*
X105246600Y-77050000D03*
X112446600Y-77050000D03*
X134722400Y-77050000D03*
X127522400Y-77050000D03*
X134722400Y-80050000D03*
X127522400Y-80050000D03*
M02*
