G04 #@! TF.GenerationSoftware,KiCad,Pcbnew,5.1.5-52549c5~84~ubuntu19.04.1*
G04 #@! TF.CreationDate,2020-01-13T11:43:28+01:00*
G04 #@! TF.ProjectId,badge,62616467-652e-46b6-9963-61645f706362,rev?*
G04 #@! TF.SameCoordinates,Original*
G04 #@! TF.FileFunction,Soldermask,Bot*
G04 #@! TF.FilePolarity,Negative*
%FSLAX46Y46*%
G04 Gerber Fmt 4.6, Leading zero omitted, Abs format (unit mm)*
G04 Created by KiCad (PCBNEW 5.1.5-52549c5~84~ubuntu19.04.1) date 2020-01-13 11:43:28*
%MOMM*%
%LPD*%
G04 APERTURE LIST*
%ADD10C,0.010000*%
%ADD11R,0.570800X0.350800*%
%ADD12R,0.650800X1.250800*%
%ADD13R,4.050800X2.350800*%
%ADD14R,0.470800X1.110800*%
%ADD15R,1.250800X1.850800*%
%ADD16R,0.650800X1.600800*%
%ADD17C,1.050800*%
%ADD18R,1.110800X0.700800*%
%ADD19R,0.572800X0.650800*%
%ADD20C,0.375800*%
%ADD21C,0.350800*%
%ADD22R,0.950800X0.850800*%
%ADD23R,0.550800X0.650800*%
%ADD24R,0.650800X0.550800*%
%ADD25R,0.650800X0.450800*%
%ADD26R,0.450800X0.650800*%
%ADD27R,0.550800X0.550800*%
%ADD28R,0.850800X0.350800*%
%ADD29R,1.800800X1.600800*%
%ADD30C,0.100000*%
%ADD31R,0.500800X0.650800*%
%ADD32R,1.550800X1.950800*%
%ADD33C,1.500800*%
%ADD34R,0.450800X1.400800*%
%ADD35O,1.250800X1.950800*%
%ADD36R,1.250800X1.950800*%
%ADD37R,1.050800X0.350800*%
%ADD38R,1.350800X1.700800*%
G04 APERTURE END LIST*
D10*
G36*
X114899800Y-109684650D02*
G01*
X114899800Y-110058200D01*
X115507867Y-110058200D01*
X115507867Y-109684650D01*
X114899800Y-109684650D01*
G37*
X114899800Y-109684650D02*
X114899800Y-110058200D01*
X115507867Y-110058200D01*
X115507867Y-109684650D01*
X114899800Y-109684650D01*
G36*
X115479800Y-109714820D02*
G01*
X115479800Y-110088200D01*
X116089107Y-110088200D01*
X116089107Y-109714820D01*
X115479800Y-109714820D01*
G37*
X115479800Y-109714820D02*
X115479800Y-110088200D01*
X116089107Y-110088200D01*
X116089107Y-109714820D01*
X115479800Y-109714820D01*
G36*
X117349800Y-109683030D02*
G01*
X117349800Y-110058200D01*
X117964480Y-110058200D01*
X117964480Y-109683030D01*
X117349800Y-109683030D01*
G37*
X117349800Y-109683030D02*
X117349800Y-110058200D01*
X117964480Y-110058200D01*
X117964480Y-109683030D01*
X117349800Y-109683030D01*
G36*
X115479800Y-112660870D02*
G01*
X115479800Y-113028200D01*
X116089091Y-113028200D01*
X116089091Y-112660870D01*
X115479800Y-112660870D01*
G37*
X115479800Y-112660870D02*
X115479800Y-113028200D01*
X116089091Y-113028200D01*
X116089091Y-112660870D01*
X115479800Y-112660870D01*
G36*
X114899800Y-110115870D02*
G01*
X114899800Y-110488200D01*
X115508094Y-110488200D01*
X115508094Y-110115870D01*
X114899800Y-110115870D01*
G37*
X114899800Y-110115870D02*
X114899800Y-110488200D01*
X115508094Y-110488200D01*
X115508094Y-110115870D01*
X114899800Y-110115870D01*
G36*
X114899800Y-110546070D02*
G01*
X114899800Y-110918200D01*
X115507440Y-110918200D01*
X115507440Y-110546070D01*
X114899800Y-110546070D01*
G37*
X114899800Y-110546070D02*
X114899800Y-110918200D01*
X115507440Y-110918200D01*
X115507440Y-110546070D01*
X114899800Y-110546070D01*
G36*
X114899800Y-110976986D02*
G01*
X114899800Y-111348200D01*
X115507010Y-111348200D01*
X115507010Y-110976986D01*
X114899800Y-110976986D01*
G37*
X114899800Y-110976986D02*
X114899800Y-111348200D01*
X115507010Y-111348200D01*
X115507010Y-110976986D01*
X114899800Y-110976986D01*
G36*
X114899800Y-111839737D02*
G01*
X114899800Y-112208200D01*
X115506725Y-112208200D01*
X115506725Y-111839737D01*
X114899800Y-111839737D01*
G37*
X114899800Y-111839737D02*
X114899800Y-112208200D01*
X115506725Y-112208200D01*
X115506725Y-111839737D01*
X114899800Y-111839737D01*
G36*
X114899800Y-111408297D02*
G01*
X114899800Y-111778200D01*
X115506841Y-111778200D01*
X115506841Y-111408297D01*
X114899800Y-111408297D01*
G37*
X114899800Y-111408297D02*
X114899800Y-111778200D01*
X115506841Y-111778200D01*
X115506841Y-111408297D01*
X114899800Y-111408297D01*
G36*
X114899800Y-112701190D02*
G01*
X114899800Y-113068200D01*
X115507721Y-113068200D01*
X115507721Y-112701190D01*
X114899800Y-112701190D01*
G37*
X114899800Y-112701190D02*
X114899800Y-113068200D01*
X115507721Y-113068200D01*
X115507721Y-112701190D01*
X114899800Y-112701190D01*
G36*
X114899800Y-112270417D02*
G01*
X114899800Y-112638200D01*
X115507508Y-112638200D01*
X115507508Y-112270417D01*
X114899800Y-112270417D01*
G37*
X114899800Y-112270417D02*
X114899800Y-112638200D01*
X115507508Y-112638200D01*
X115507508Y-112270417D01*
X114899800Y-112270417D01*
G36*
X115909800Y-112661330D02*
G01*
X115909800Y-113028200D01*
X116520020Y-113028200D01*
X116520020Y-112661330D01*
X115909800Y-112661330D01*
G37*
X115909800Y-112661330D02*
X115909800Y-113028200D01*
X116520020Y-113028200D01*
X116520020Y-112661330D01*
X115909800Y-112661330D01*
G36*
X116339800Y-112660120D02*
G01*
X116339800Y-113028200D01*
X116950579Y-113028200D01*
X116950579Y-112660120D01*
X116339800Y-112660120D01*
G37*
X116339800Y-112660120D02*
X116339800Y-113028200D01*
X116950579Y-113028200D01*
X116950579Y-112660120D01*
X116339800Y-112660120D01*
G36*
X116769800Y-112662040D02*
G01*
X116769800Y-113028200D01*
X117382654Y-113028200D01*
X117382654Y-112662040D01*
X116769800Y-112662040D01*
G37*
X116769800Y-112662040D02*
X116769800Y-113028200D01*
X117382654Y-113028200D01*
X117382654Y-112662040D01*
X116769800Y-112662040D01*
G36*
X115909800Y-109714490D02*
G01*
X115909800Y-110088200D01*
X116520001Y-110088200D01*
X116520001Y-109714490D01*
X115909800Y-109714490D01*
G37*
X115909800Y-109714490D02*
X115909800Y-110088200D01*
X116520001Y-110088200D01*
X116520001Y-109714490D01*
X115909800Y-109714490D01*
G36*
X116339800Y-109716360D02*
G01*
X116339800Y-110088200D01*
X116950375Y-110088200D01*
X116950375Y-109716360D01*
X116339800Y-109716360D01*
G37*
X116339800Y-109716360D02*
X116339800Y-110088200D01*
X116950375Y-110088200D01*
X116950375Y-109716360D01*
X116339800Y-109716360D01*
G36*
X116769800Y-109714010D02*
G01*
X116769800Y-110088200D01*
X117382197Y-110088200D01*
X117382197Y-109714010D01*
X116769800Y-109714010D01*
G37*
X116769800Y-109714010D02*
X116769800Y-110088200D01*
X117382197Y-110088200D01*
X117382197Y-109714010D01*
X116769800Y-109714010D01*
G36*
X117349800Y-110116760D02*
G01*
X117349800Y-110488200D01*
X117961550Y-110488200D01*
X117961550Y-110116760D01*
X117349800Y-110116760D01*
G37*
X117349800Y-110116760D02*
X117349800Y-110488200D01*
X117961550Y-110488200D01*
X117961550Y-110116760D01*
X117349800Y-110116760D01*
G36*
X117349800Y-110547198D02*
G01*
X117349800Y-110918200D01*
X117961650Y-110918200D01*
X117961650Y-110547198D01*
X117349800Y-110547198D01*
G37*
X117349800Y-110547198D02*
X117349800Y-110918200D01*
X117961650Y-110918200D01*
X117961650Y-110547198D01*
X117349800Y-110547198D01*
G36*
X117349800Y-110977643D02*
G01*
X117349800Y-111348200D01*
X117961930Y-111348200D01*
X117961930Y-110977643D01*
X117349800Y-110977643D01*
G37*
X117349800Y-110977643D02*
X117349800Y-111348200D01*
X117961930Y-111348200D01*
X117961930Y-110977643D01*
X117349800Y-110977643D01*
G36*
X117349800Y-111838927D02*
G01*
X117349800Y-112208200D01*
X117962220Y-112208200D01*
X117962220Y-111838927D01*
X117349800Y-111838927D01*
G37*
X117349800Y-111838927D02*
X117349800Y-112208200D01*
X117962220Y-112208200D01*
X117962220Y-111838927D01*
X117349800Y-111838927D01*
G36*
X117349800Y-111408224D02*
G01*
X117349800Y-111778200D01*
X117961000Y-111778200D01*
X117961000Y-111408224D01*
X117349800Y-111408224D01*
G37*
X117349800Y-111408224D02*
X117349800Y-111778200D01*
X117961000Y-111778200D01*
X117961000Y-111408224D01*
X117349800Y-111408224D01*
G36*
X117349800Y-112699410D02*
G01*
X117349800Y-113068200D01*
X117961210Y-113068200D01*
X117961210Y-112699410D01*
X117349800Y-112699410D01*
G37*
X117349800Y-112699410D02*
X117349800Y-113068200D01*
X117961210Y-113068200D01*
X117961210Y-112699410D01*
X117349800Y-112699410D01*
G36*
X117349800Y-112269513D02*
G01*
X117349800Y-112638200D01*
X117962060Y-112638200D01*
X117962060Y-112269513D01*
X117349800Y-112269513D01*
G37*
X117349800Y-112269513D02*
X117349800Y-112638200D01*
X117962060Y-112638200D01*
X117962060Y-112269513D01*
X117349800Y-112269513D01*
D11*
X114109000Y-87002000D03*
X114109000Y-87652000D03*
X115789000Y-87652000D03*
X115789000Y-87002000D03*
D12*
X130544000Y-103604000D03*
X129344000Y-103604000D03*
D13*
X134170400Y-85546800D03*
D14*
X136075400Y-83211800D03*
X134805400Y-83211800D03*
X133535400Y-83211800D03*
X132265400Y-83211800D03*
X132265400Y-87881800D03*
X133535400Y-87881800D03*
X134805400Y-87881800D03*
X136075400Y-87881800D03*
D15*
X101865000Y-85745000D03*
X105465000Y-85745000D03*
D16*
X103165000Y-81870000D03*
X104165000Y-81870000D03*
D17*
X134165000Y-111410000D03*
X140241000Y-84226000D03*
X140241000Y-86766000D03*
X127033000Y-86512000D03*
X124493000Y-86512000D03*
X108541800Y-84353000D03*
X121953000Y-86512000D03*
X140241000Y-89306000D03*
X118524000Y-78257000D03*
X131198600Y-111440578D03*
X140241000Y-81686000D03*
D18*
X113859000Y-83877000D03*
X113859000Y-85777000D03*
X116059000Y-85777000D03*
X116059000Y-84827000D03*
X116059000Y-83877000D03*
D19*
X137176400Y-104825400D03*
X137176400Y-105725400D03*
X137998400Y-105725400D03*
X137998400Y-103925400D03*
D20*
X139250400Y-104825400D03*
D19*
X137176400Y-103925400D03*
D21*
X139250400Y-105487400D03*
X139250400Y-104163400D03*
X138588400Y-104825400D03*
X139912400Y-104825400D03*
D22*
X119556000Y-83337000D03*
X121556000Y-84287000D03*
X121556000Y-82387000D03*
X128187940Y-107357780D03*
X126187940Y-106407780D03*
X126187940Y-108307780D03*
X108565000Y-79030000D03*
X106565000Y-78080000D03*
X106565000Y-79980000D03*
D23*
X110221000Y-84750000D03*
X110221000Y-83650000D03*
D24*
X112379800Y-111378200D03*
X113479800Y-111378200D03*
X112379800Y-109378200D03*
X113479800Y-109378200D03*
X124281000Y-118008000D03*
X123181000Y-118008000D03*
X115979278Y-116888676D03*
X117079278Y-116888676D03*
X113479800Y-112378200D03*
X112379800Y-112378200D03*
X113479800Y-110378200D03*
X112379800Y-110378200D03*
D23*
X112221000Y-84750000D03*
X112221000Y-83650000D03*
D24*
X115155000Y-81016000D03*
X116255000Y-81016000D03*
D23*
X129344400Y-106391400D03*
X129344400Y-105291400D03*
D24*
X115155000Y-77016000D03*
X116255000Y-77016000D03*
D23*
X132341600Y-78222800D03*
X132341600Y-77122800D03*
X117635000Y-84877000D03*
X117635000Y-83777000D03*
X130538200Y-106391400D03*
X130538200Y-105291400D03*
X111221000Y-84750000D03*
X111221000Y-83650000D03*
D25*
X117429800Y-108328200D03*
X117429800Y-107428200D03*
D26*
X118979800Y-109878200D03*
X119879800Y-109878200D03*
X118979800Y-108878200D03*
X119879800Y-108878200D03*
D25*
X140647400Y-109245000D03*
X140647400Y-108345000D03*
X138082000Y-110885000D03*
X138082000Y-111785000D03*
D26*
X116979278Y-118158676D03*
X116079278Y-118158676D03*
D25*
X132087600Y-109720400D03*
X132087600Y-108820400D03*
X133357600Y-109720400D03*
X133357600Y-108820400D03*
X109865000Y-79040000D03*
X109865000Y-79940000D03*
D26*
X112405000Y-114560000D03*
X111505000Y-114560000D03*
X127095000Y-109750000D03*
X126195000Y-109750000D03*
X134735000Y-114560000D03*
X133835000Y-114560000D03*
X119925000Y-80850000D03*
X119025000Y-80850000D03*
D25*
X126138920Y-104795340D03*
X126138920Y-103895340D03*
D26*
X113655000Y-77016000D03*
X112755000Y-77016000D03*
X112755000Y-81016000D03*
X113655000Y-81016000D03*
X118979800Y-110878200D03*
X119879800Y-110878200D03*
D27*
X127150000Y-93000000D03*
X127150000Y-94100000D03*
X127150000Y-95200000D03*
X127150000Y-96300000D03*
X127150000Y-97400000D03*
X127150000Y-98500000D03*
X127150000Y-99600000D03*
X127150000Y-100700000D03*
X135750000Y-94250000D03*
X134650000Y-94250000D03*
X133550000Y-94250000D03*
X132450000Y-94250000D03*
X131350000Y-94250000D03*
X129850000Y-95750000D03*
X129850000Y-96850000D03*
X129850000Y-97950000D03*
X131350000Y-99450000D03*
X132450000Y-99450000D03*
X133550000Y-99450000D03*
X134650000Y-99450000D03*
X135750000Y-99450000D03*
X136850000Y-98500000D03*
X136850000Y-95200000D03*
X136850000Y-92450000D03*
X136300000Y-93350000D03*
X135750000Y-92450000D03*
X135200000Y-93350000D03*
X134650000Y-92450000D03*
X134100000Y-93350000D03*
X133550000Y-92450000D03*
X133000000Y-93350000D03*
X132450000Y-92450000D03*
X131900000Y-93350000D03*
X131350000Y-92450000D03*
X130800000Y-93350000D03*
X130250000Y-92450000D03*
X129700000Y-93350000D03*
X129150000Y-92450000D03*
X128050000Y-92450000D03*
X128050000Y-93550000D03*
X128950000Y-94100000D03*
X128050000Y-94650000D03*
X128950000Y-95200000D03*
X128050000Y-95750000D03*
X128950000Y-96300000D03*
X128050000Y-96850000D03*
X128950000Y-97400000D03*
X128050000Y-97950000D03*
X128950000Y-98500000D03*
X128050000Y-99050000D03*
X128950000Y-99600000D03*
X128050000Y-100150000D03*
X128050000Y-101250000D03*
X129150000Y-101250000D03*
X129700000Y-100350000D03*
X130250000Y-101250000D03*
X130800000Y-100350000D03*
X131350000Y-101250000D03*
X131900000Y-100350000D03*
X132450000Y-101250000D03*
X133000000Y-100350000D03*
X133550000Y-101250000D03*
X134100000Y-100350000D03*
X134650000Y-101250000D03*
X135200000Y-100350000D03*
X135750000Y-101250000D03*
X136300000Y-100350000D03*
X136850000Y-101250000D03*
D28*
X116205000Y-78266000D03*
X116205000Y-78766000D03*
X116205000Y-79266000D03*
X116205000Y-79766000D03*
X113205000Y-79766000D03*
X113205000Y-79266000D03*
X113205000Y-78766000D03*
X113205000Y-78266000D03*
D29*
X114705000Y-79016000D03*
D30*
G36*
X125398620Y-113387654D02*
G01*
X125423515Y-113391347D01*
X125447928Y-113397462D01*
X125471623Y-113405940D01*
X125494374Y-113416700D01*
X125515960Y-113429639D01*
X125536174Y-113444630D01*
X125554822Y-113461531D01*
X125571723Y-113480179D01*
X125586714Y-113500393D01*
X125599653Y-113521979D01*
X125610413Y-113544730D01*
X125618891Y-113568425D01*
X125625006Y-113592838D01*
X125628699Y-113617733D01*
X125629934Y-113642869D01*
X125629934Y-114580769D01*
X125628699Y-114605905D01*
X125625006Y-114630800D01*
X125618891Y-114655213D01*
X125610413Y-114678908D01*
X125599653Y-114701659D01*
X125586714Y-114723245D01*
X125571723Y-114743459D01*
X125554822Y-114762107D01*
X125536174Y-114779008D01*
X125515960Y-114793999D01*
X125494374Y-114806938D01*
X125471623Y-114817698D01*
X125447928Y-114826176D01*
X125423515Y-114832291D01*
X125398620Y-114835984D01*
X125373484Y-114837219D01*
X124860584Y-114837219D01*
X124835448Y-114835984D01*
X124810553Y-114832291D01*
X124786140Y-114826176D01*
X124762445Y-114817698D01*
X124739694Y-114806938D01*
X124718108Y-114793999D01*
X124697894Y-114779008D01*
X124679246Y-114762107D01*
X124662345Y-114743459D01*
X124647354Y-114723245D01*
X124634415Y-114701659D01*
X124623655Y-114678908D01*
X124615177Y-114655213D01*
X124609062Y-114630800D01*
X124605369Y-114605905D01*
X124604134Y-114580769D01*
X124604134Y-113642869D01*
X124605369Y-113617733D01*
X124609062Y-113592838D01*
X124615177Y-113568425D01*
X124623655Y-113544730D01*
X124634415Y-113521979D01*
X124647354Y-113500393D01*
X124662345Y-113480179D01*
X124679246Y-113461531D01*
X124697894Y-113444630D01*
X124718108Y-113429639D01*
X124739694Y-113416700D01*
X124762445Y-113405940D01*
X124786140Y-113397462D01*
X124810553Y-113391347D01*
X124835448Y-113387654D01*
X124860584Y-113386419D01*
X125373484Y-113386419D01*
X125398620Y-113387654D01*
G37*
G36*
X123523620Y-113387654D02*
G01*
X123548515Y-113391347D01*
X123572928Y-113397462D01*
X123596623Y-113405940D01*
X123619374Y-113416700D01*
X123640960Y-113429639D01*
X123661174Y-113444630D01*
X123679822Y-113461531D01*
X123696723Y-113480179D01*
X123711714Y-113500393D01*
X123724653Y-113521979D01*
X123735413Y-113544730D01*
X123743891Y-113568425D01*
X123750006Y-113592838D01*
X123753699Y-113617733D01*
X123754934Y-113642869D01*
X123754934Y-114580769D01*
X123753699Y-114605905D01*
X123750006Y-114630800D01*
X123743891Y-114655213D01*
X123735413Y-114678908D01*
X123724653Y-114701659D01*
X123711714Y-114723245D01*
X123696723Y-114743459D01*
X123679822Y-114762107D01*
X123661174Y-114779008D01*
X123640960Y-114793999D01*
X123619374Y-114806938D01*
X123596623Y-114817698D01*
X123572928Y-114826176D01*
X123548515Y-114832291D01*
X123523620Y-114835984D01*
X123498484Y-114837219D01*
X122985584Y-114837219D01*
X122960448Y-114835984D01*
X122935553Y-114832291D01*
X122911140Y-114826176D01*
X122887445Y-114817698D01*
X122864694Y-114806938D01*
X122843108Y-114793999D01*
X122822894Y-114779008D01*
X122804246Y-114762107D01*
X122787345Y-114743459D01*
X122772354Y-114723245D01*
X122759415Y-114701659D01*
X122748655Y-114678908D01*
X122740177Y-114655213D01*
X122734062Y-114630800D01*
X122730369Y-114605905D01*
X122729134Y-114580769D01*
X122729134Y-113642869D01*
X122730369Y-113617733D01*
X122734062Y-113592838D01*
X122740177Y-113568425D01*
X122748655Y-113544730D01*
X122759415Y-113521979D01*
X122772354Y-113500393D01*
X122787345Y-113480179D01*
X122804246Y-113461531D01*
X122822894Y-113444630D01*
X122843108Y-113429639D01*
X122864694Y-113416700D01*
X122887445Y-113405940D01*
X122911140Y-113397462D01*
X122935553Y-113391347D01*
X122960448Y-113387654D01*
X122985584Y-113386419D01*
X123498484Y-113386419D01*
X123523620Y-113387654D01*
G37*
G36*
X125398620Y-115546654D02*
G01*
X125423515Y-115550347D01*
X125447928Y-115556462D01*
X125471623Y-115564940D01*
X125494374Y-115575700D01*
X125515960Y-115588639D01*
X125536174Y-115603630D01*
X125554822Y-115620531D01*
X125571723Y-115639179D01*
X125586714Y-115659393D01*
X125599653Y-115680979D01*
X125610413Y-115703730D01*
X125618891Y-115727425D01*
X125625006Y-115751838D01*
X125628699Y-115776733D01*
X125629934Y-115801869D01*
X125629934Y-116739769D01*
X125628699Y-116764905D01*
X125625006Y-116789800D01*
X125618891Y-116814213D01*
X125610413Y-116837908D01*
X125599653Y-116860659D01*
X125586714Y-116882245D01*
X125571723Y-116902459D01*
X125554822Y-116921107D01*
X125536174Y-116938008D01*
X125515960Y-116952999D01*
X125494374Y-116965938D01*
X125471623Y-116976698D01*
X125447928Y-116985176D01*
X125423515Y-116991291D01*
X125398620Y-116994984D01*
X125373484Y-116996219D01*
X124860584Y-116996219D01*
X124835448Y-116994984D01*
X124810553Y-116991291D01*
X124786140Y-116985176D01*
X124762445Y-116976698D01*
X124739694Y-116965938D01*
X124718108Y-116952999D01*
X124697894Y-116938008D01*
X124679246Y-116921107D01*
X124662345Y-116902459D01*
X124647354Y-116882245D01*
X124634415Y-116860659D01*
X124623655Y-116837908D01*
X124615177Y-116814213D01*
X124609062Y-116789800D01*
X124605369Y-116764905D01*
X124604134Y-116739769D01*
X124604134Y-115801869D01*
X124605369Y-115776733D01*
X124609062Y-115751838D01*
X124615177Y-115727425D01*
X124623655Y-115703730D01*
X124634415Y-115680979D01*
X124647354Y-115659393D01*
X124662345Y-115639179D01*
X124679246Y-115620531D01*
X124697894Y-115603630D01*
X124718108Y-115588639D01*
X124739694Y-115575700D01*
X124762445Y-115564940D01*
X124786140Y-115556462D01*
X124810553Y-115550347D01*
X124835448Y-115546654D01*
X124860584Y-115545419D01*
X125373484Y-115545419D01*
X125398620Y-115546654D01*
G37*
G36*
X123523620Y-115546654D02*
G01*
X123548515Y-115550347D01*
X123572928Y-115556462D01*
X123596623Y-115564940D01*
X123619374Y-115575700D01*
X123640960Y-115588639D01*
X123661174Y-115603630D01*
X123679822Y-115620531D01*
X123696723Y-115639179D01*
X123711714Y-115659393D01*
X123724653Y-115680979D01*
X123735413Y-115703730D01*
X123743891Y-115727425D01*
X123750006Y-115751838D01*
X123753699Y-115776733D01*
X123754934Y-115801869D01*
X123754934Y-116739769D01*
X123753699Y-116764905D01*
X123750006Y-116789800D01*
X123743891Y-116814213D01*
X123735413Y-116837908D01*
X123724653Y-116860659D01*
X123711714Y-116882245D01*
X123696723Y-116902459D01*
X123679822Y-116921107D01*
X123661174Y-116938008D01*
X123640960Y-116952999D01*
X123619374Y-116965938D01*
X123596623Y-116976698D01*
X123572928Y-116985176D01*
X123548515Y-116991291D01*
X123523620Y-116994984D01*
X123498484Y-116996219D01*
X122985584Y-116996219D01*
X122960448Y-116994984D01*
X122935553Y-116991291D01*
X122911140Y-116985176D01*
X122887445Y-116976698D01*
X122864694Y-116965938D01*
X122843108Y-116952999D01*
X122822894Y-116938008D01*
X122804246Y-116921107D01*
X122787345Y-116902459D01*
X122772354Y-116882245D01*
X122759415Y-116860659D01*
X122748655Y-116837908D01*
X122740177Y-116814213D01*
X122734062Y-116789800D01*
X122730369Y-116764905D01*
X122729134Y-116739769D01*
X122729134Y-115801869D01*
X122730369Y-115776733D01*
X122734062Y-115751838D01*
X122740177Y-115727425D01*
X122748655Y-115703730D01*
X122759415Y-115680979D01*
X122772354Y-115659393D01*
X122787345Y-115639179D01*
X122804246Y-115620531D01*
X122822894Y-115603630D01*
X122843108Y-115588639D01*
X122864694Y-115575700D01*
X122887445Y-115564940D01*
X122911140Y-115556462D01*
X122935553Y-115550347D01*
X122960448Y-115546654D01*
X122985584Y-115545419D01*
X123498484Y-115545419D01*
X123523620Y-115546654D01*
G37*
D31*
X123604000Y-84400000D03*
X123604000Y-82300000D03*
D32*
X126000000Y-77612500D03*
D33*
X122500000Y-80312500D03*
D34*
X124350000Y-80312500D03*
X123700000Y-80312500D03*
X126300000Y-80312500D03*
X125650000Y-80312500D03*
X125000000Y-80312500D03*
D33*
X127500000Y-80312500D03*
D32*
X124000000Y-77612500D03*
D35*
X121500000Y-77612500D03*
X128500000Y-77612500D03*
D36*
X127900000Y-77612500D03*
X122100000Y-77612500D03*
D37*
X123743700Y-102739440D03*
X123743700Y-102239440D03*
X123743700Y-101739440D03*
X123743700Y-101239440D03*
X123743700Y-100739440D03*
X123743700Y-100239440D03*
X123743700Y-99739440D03*
X123743700Y-99239440D03*
X123743700Y-98739440D03*
X123743700Y-98239440D03*
X123743700Y-97739440D03*
X123743700Y-97239440D03*
X123743700Y-96739440D03*
X123743700Y-96239440D03*
X123743700Y-95739440D03*
X123743700Y-95239440D03*
X123743700Y-94739440D03*
X123743700Y-94239440D03*
X123743700Y-93739440D03*
X123743700Y-93239440D03*
X123743700Y-92739440D03*
X123743700Y-92239440D03*
D38*
X121843700Y-105014440D03*
X121843700Y-89964440D03*
M02*
