  0
SECTION
  2
HEADER
  9
$ACADVER
  1
AC1014
  9
$HANDSEED
  5
FFFF
  9
$MEASUREMENT
 70
     1
  0
ENDSEC
  0
SECTION
  2
TABLES
  0
TABLE
  2
VPORT
  5
8
330
0
100
AcDbSymbolTable
 70
     4
  0
VPORT
  5
2E
330
8
100
AcDbSymbolTableRecord
100
AcDbViewportTableRecord
  2
*ACTIVE
 70
     0
 10
0.0
 20
0.0
 11
1.0
 21
1.0
 12
210.0
 22
148.5
 13
0.0
 23
0.0
 14
10.0
 24
10.0
 15
10.0
 25
10.0
 16
0.0
 26
0.0
 36
1.0
 17
0.0
 27
0.0
 37
0.0
 40
341.0
 41
1.24
 42
50.0
 43
0.0
 44
0.0
 50
0.0
 51
0.0
 71
     0
 72
   100
 73
     1
 74
     3
 75
     0
 76
     0
 77
     0
 78
     0
  0
ENDTAB
  0
TABLE
  2
LTYPE
  5
5
330
0
100
AcDbSymbolTable
 70
     1
  0
LTYPE
  5
14
330
5
100
AcDbSymbolTableRecord
100
AcDbLinetypeTableRecord
  2
BYBLOCK
 70
     0
  3

 72
    65
 73
     0
 40
0.0
  0
LTYPE
  5
15
330
5
100
AcDbSymbolTableRecord
100
AcDbLinetypeTableRecord
  2
BYLAYER
 70
     0
  3

 72
    65
 73
     0
 40
0.0
  0
LTYPE
  5
16
330
5
100
AcDbSymbolTableRecord
100
AcDbLinetypeTableRecord
  2
CONTINUOUS
 70
     0
  3
Solid line
 72
    65
 73
     0
 40
0.0
  0
ENDTAB
  0
TABLE
  2
LAYER
  5
2
100
AcDbSymbolTable
 70
24
  0
LAYER
  5
50
100
AcDbSymbolTableRecord
100
AcDbLayerTableRecord
  2
0
 70
0
  6
CONTINUOUS
  0
LAYER
  5
51
100
AcDbSymbolTableRecord
100
AcDbLayerTableRecord
  2
DKE_Vector_K_NoOutline
 70
0
  6
CONTINUOUS
  0
LAYER
  5
52
100
AcDbSymbolTableRecord
100
AcDbLayerTableRecord
  2
[fixed]_BG
 70
0
  6
CONTINUOUS
  0
LAYER
  5
53
100
AcDbSymbolTableRecord
100
AcDbLayerTableRecord
  2
F.Cu
 70
0
  6
CONTINUOUS
  0
LAYER
  5
54
100
AcDbSymbolTableRecord
100
AcDbLayerTableRecord
  2
B.Cu-disabled
 70
0
  6
CONTINUOUS
  0
LAYER
  5
55
100
AcDbSymbolTableRecord
100
AcDbLayerTableRecord
  2
B.Adhes-disabled
 70
0
  6
CONTINUOUS
  0
LAYER
  5
56
100
AcDbSymbolTableRecord
100
AcDbLayerTableRecord
  2
F.Adhes-disabled
 70
0
  6
CONTINUOUS
  0
LAYER
  5
57
100
AcDbSymbolTableRecord
100
AcDbLayerTableRecord
  2
B.Paste-disabled
 70
0
  6
CONTINUOUS
  0
LAYER
  5
58
100
AcDbSymbolTableRecord
100
AcDbLayerTableRecord
  2
F.Paste-disabled
 70
0
  6
CONTINUOUS
  0
LAYER
  5
59
100
AcDbSymbolTableRecord
100
AcDbLayerTableRecord
  2
B.SilkS-disabled
 70
0
  6
CONTINUOUS
  0
LAYER
  5
5a
100
AcDbSymbolTableRecord
100
AcDbLayerTableRecord
  2
F.SilkS-disabled
 70
0
  6
CONTINUOUS
  0
LAYER
  5
5b
100
AcDbSymbolTableRecord
100
AcDbLayerTableRecord
  2
B.Mask-disabled
 70
0
  6
CONTINUOUS
  0
LAYER
  5
5c
100
AcDbSymbolTableRecord
100
AcDbLayerTableRecord
  2
F.Mask-disabled
 70
0
  6
CONTINUOUS
  0
LAYER
  5
5d
100
AcDbSymbolTableRecord
100
AcDbLayerTableRecord
  2
Dwgs.User-disabled
 70
0
  6
CONTINUOUS
  0
LAYER
  5
5e
100
AcDbSymbolTableRecord
100
AcDbLayerTableRecord
  2
Cmts.User-disabled
 70
0
  6
CONTINUOUS
  0
LAYER
  5
5f
100
AcDbSymbolTableRecord
100
AcDbLayerTableRecord
  2
Eco1.User-disabled
 70
0
  6
CONTINUOUS
  0
LAYER
  5
60
100
AcDbSymbolTableRecord
100
AcDbLayerTableRecord
  2
Eco2.User-disabled
 70
0
  6
CONTINUOUS
  0
LAYER
  5
61
100
AcDbSymbolTableRecord
100
AcDbLayerTableRecord
  2
Edge.Cuts
 70
0
  6
CONTINUOUS
  0
LAYER
  5
62
100
AcDbSymbolTableRecord
100
AcDbLayerTableRecord
  2
Margin-disabled
 70
0
  6
CONTINUOUS
  0
LAYER
  5
63
100
AcDbSymbolTableRecord
100
AcDbLayerTableRecord
  2
B.CrtYd-disabled
 70
0
  6
CONTINUOUS
  0
LAYER
  5
64
100
AcDbSymbolTableRecord
100
AcDbLayerTableRecord
  2
F.CrtYd-disabled
 70
0
  6
CONTINUOUS
  0
LAYER
  5
65
100
AcDbSymbolTableRecord
100
AcDbLayerTableRecord
  2
B.Fab-disabled
 70
0
  6
CONTINUOUS
  0
LAYER
  5
66
100
AcDbSymbolTableRecord
100
AcDbLayerTableRecord
  2
F.Fab-disabled
 70
0
  6
CONTINUOUS
  0
LAYER
  5
67
100
AcDbSymbolTableRecord
100
AcDbLayerTableRecord
  2
Drill
 70
0
  6
CONTINUOUS
  0
ENDTAB
  0
TABLE
  2
STYLE
  5
3
330
0
100
AcDbSymbolTable
 70
     1
  0
STYLE
  5
11
330
3
100
AcDbSymbolTableRecord
100
AcDbTextStyleTableRecord
  2
STANDARD
 70
     0
 40
0.0
 41
1.0
 50
0.0
 71
     0
 42
2.5
  3
txt
  4

  0
ENDTAB
  0
TABLE
  2
VIEW
  5
6
330
0
100
AcDbSymbolTable
 70
     0
  0
ENDTAB
  0
TABLE
  2
UCS
  5
7
330
0
100
AcDbSymbolTable
 70
     0
  0
ENDTAB
  0
TABLE
  2
APPID
  5
9
330
0
100
AcDbSymbolTable
 70
     2
  0
APPID
  5
12
330
9
100
AcDbSymbolTableRecord
100
AcDbRegAppTableRecord
  2
ACAD
 70
     0
  0
ENDTAB
  0
TABLE
  2
DIMSTYLE
  5
A
330
0
100
AcDbSymbolTable
 70
     1
  0
DIMSTYLE
105
27
330
A
100
AcDbSymbolTableRecord
100
AcDbDimStyleTableRecord
  2
ISO-25
 70
     0
  3

  4

  5

  6

  7

 40
1.0
 41
2.5
 42
0.625
 43
3.75
 44
1.25
 45
0.0
 46
0.0
 47
0.0
 48
0.0
140
2.5
141
2.5
142
0.0
143
0.03937007874016
144
1.0
145
0.0
146
1.0
147
0.625
 71
     0
 72
     0
 73
     0
 74
     0
 75
     0
 76
     0
 77
     1
 78
     8
170
     0
171
     3
172
     1
173
     0
174
     0
175
     0
176
     0
177
     0
178
     0
270
     2
271
     2
272
     2
273
     2
274
     3
340
11
275
     0
280
     0
281
     0
282
     0
283
     0
284
     8
285
     0
286
     0
287
     3
288
     0
  0
ENDTAB
  0
TABLE
  2
BLOCK_RECORD
  5
1
330
0
100
AcDbSymbolTable
 70
     1
  0
BLOCK_RECORD
  5
1F
330
1
100
AcDbSymbolTableRecord
100
AcDbBlockTableRecord
  2
*MODEL_SPACE
  0
BLOCK_RECORD
  5
1B
330
1
100
AcDbSymbolTableRecord
100
AcDbBlockTableRecord
  2
*PAPER_SPACE
  0
ENDTAB
  0
ENDSEC
  0
SECTION
  2
BLOCKS
  0
BLOCK
  5
20
330
1F
100
AcDbEntity
  8
0
100
AcDbBlockBegin
  2
*MODEL_SPACE
 70
     0
 10
0.0
 20
0.0
 30
0.0
  3
*MODEL_SPACE
  1

  0
ENDBLK
  5
21
330
1F
100
AcDbEntity
  8
0
100
AcDbBlockEnd
  0
BLOCK
  5
1C
330
1B
100
AcDbEntity
 67
     1
  8
0
100
AcDbBlockBegin
  2
*PAPER_SPACE
  1

  0
ENDBLK
  5
1D
330
1B
100
AcDbEntity
 67
     1
  8
0
100
AcDbBlockEnd
  0
ENDSEC
  0
SECTION
  2
ENTITIES
  0
SPLINE
  5
100
100
AcDbEntity
  8
F.SilkS-disabled
 62
7
100
AcDbSpline
 70
8
 71
3
 72
8
 73
4
 74
0
 40
0
 40
0
 40
0
 40
0
 40
1
 40
1
 40
1
 40
1
 10
167.346546
 20
134.882350
 30
0.0
 10
167.493744
 20
135.560998
 30
0.0
 10
167.611975
 20
136.372657
 30
0.0
 10
166.756571
 20
136.372657
 30
0.0
  0
SPLINE
  5
101
100
AcDbEntity
  8
F.SilkS-disabled
 62
7
100
AcDbSpline
 70
8
 71
3
 72
8
 73
4
 74
0
 40
0
 40
0
 40
0
 40
0
 40
1
 40
1
 40
1
 40
1
 10
166.756571
 20
136.372657
 30
0.0
 10
165.928952
 20
136.372657
 30
0.0
 10
165.649335
 20
135.560998
 30
0.0
 10
165.500954
 20
134.882350
 30
0.0
  0
LWPOLYLINE
  5
102
100
AcDbEntity
  8
[fixed]_BG
 62
7
100
AcDbPolyline
 90
4
 70
1
 10
0.000000
 20
283.464567
 30
0.0
 10
283.464567
 20
283.464567
 30
0.0
 10
283.464567
 20
0.000000
 30
0.0
 10
0.000000
 20
0.000000
 30
0.0
  0
SPLINE
  5
103
100
AcDbEntity
  8
F.SilkS-disabled
 62
7
100
AcDbSpline
 70
8
 71
3
 72
8
 73
4
 74
0
 40
0
 40
0
 40
0
 40
0
 40
1
 40
1
 40
1
 40
1
 10
164.541507
 20
130.335763
 30
0.0
 10
164.393126
 20
129.702042
 30
0.0
 10
164.306226
 20
128.757965
 30
0.0
 10
165.145669
 20
128.757965
 30
0.0
  0
SPLINE
  5
104
100
AcDbEntity
  8
F.SilkS-disabled
 62
7
100
AcDbSpline
 70
8
 71
3
 72
8
 73
4
 74
0
 40
0
 40
0
 40
0
 40
0
 40
1
 40
1
 40
1
 40
1
 10
165.145669
 20
128.757965
 30
0.0
 10
165.988067
 20
128.757965
 30
0.0
 10
166.239309
 20
129.702042
 30
0.0
 10
166.385916
 20
130.335763
 30
0.0
  0
LWPOLYLINE
  5
105
100
AcDbEntity
  8
F.SilkS-disabled
 62
7
100
AcDbPolyline
 90
2
 70
0
 10
165.500954
 20
134.882350
 30
0.0
 10
164.541507
 20
130.335763
 30
0.0
  0
SPLINE
  5
106
100
AcDbEntity
  8
F.SilkS-disabled
 62
7
100
AcDbSpline
 70
8
 71
3
 72
8
 73
4
 74
0
 40
0
 40
0
 40
0
 40
0
 40
1
 40
1
 40
1
 40
1
 10
169.028387
 20
130.557446
 30
0.0
 10
168.496937
 20
128.063947
 30
0.0
 10
167.346546
 20
126.764584
 30
0.0
 10
164.719445
 20
126.764584
 30
0.0
  0
SPLINE
  5
107
100
AcDbEntity
  8
F.SilkS-disabled
 62
7
100
AcDbSpline
 70
8
 71
3
 72
8
 73
4
 74
0
 40
0
 40
0
 40
0
 40
0
 40
1
 40
1
 40
1
 40
1
 10
164.719445
 20
126.764584
 30
0.0
 10
162.091161
 20
126.764584
 30
0.0
 10
161.458032
 20
128.063947
 30
0.0
 10
161.988891
 20
130.557446
 30
0.0
  0
LWPOLYLINE
  5
108
100
AcDbEntity
  8
F.SilkS-disabled
 62
7
100
AcDbPolyline
 90
2
 70
0
 10
166.385916
 20
130.335763
 30
0.0
 10
167.346546
 20
134.882350
 30
0.0
  0
SPLINE
  5
109
100
AcDbEntity
  8
F.SilkS-disabled
 62
7
100
AcDbSpline
 70
8
 71
3
 72
8
 73
4
 74
0
 40
0
 40
0
 40
0
 40
0
 40
1
 40
1
 40
1
 40
1
 10
162.948339
 20
135.059697
 30
0.0
 10
163.391115
 20
137.185497
 30
0.0
 10
164.910980
 20
138.364855
 30
0.0
 10
167.183978
 20
138.364855
 30
0.0
  0
SPLINE
  5
10a
100
AcDbEntity
  8
F.SilkS-disabled
 62
7
100
AcDbSpline
 70
8
 71
3
 72
8
 73
4
 74
0
 40
0
 40
0
 40
0
 40
0
 40
1
 40
1
 40
1
 40
1
 10
167.183978
 20
138.364855
 30
0.0
 10
169.456385
 20
138.364855
 30
0.0
 10
170.431203
 20
137.185497
 30
0.0
 10
169.988426
 20
135.059697
 30
0.0
  0
LWPOLYLINE
  5
10b
100
AcDbEntity
  8
F.SilkS-disabled
 62
7
100
AcDbPolyline
 90
2
 70
0
 10
161.988891
 20
130.557446
 30
0.0
 10
162.948339
 20
135.059697
 30
0.0
  0
LWPOLYLINE
  5
10c
100
AcDbEntity
  8
F.SilkS-disabled
 62
7
100
AcDbPolyline
 90
2
 70
0
 10
169.988426
 20
135.059697
 30
0.0
 10
169.028387
 20
130.557446
 30
0.0
  0
SPLINE
  5
10d
100
AcDbEntity
  8
F.SilkS-disabled
 62
7
100
AcDbSpline
 70
8
 71
3
 72
8
 73
4
 74
0
 40
0
 40
0
 40
0
 40
0
 40
1
 40
1
 40
1
 40
1
 10
194.948134
 20
129.951747
 30
0.0
 10
194.815123
 20
129.317436
 30
0.0
 10
194.903797
 20
128.757610
 30
0.0
 10
195.730825
 20
128.757610
 30
0.0
  0
SPLINE
  5
10e
100
AcDbEntity
  8
F.SilkS-disabled
 62
7
100
AcDbSpline
 70
8
 71
3
 72
8
 73
4
 74
0
 40
0
 40
0
 40
0
 40
0
 40
1
 40
1
 40
1
 40
1
 10
195.730825
 20
128.757610
 30
0.0
 10
196.336170
 20
128.757610
 30
0.0
 10
196.718648
 20
129.302657
 30
0.0
 10
196.836880
 20
129.863665
 30
0.0
  0
SPLINE
  5
10f
100
AcDbEntity
  8
F.SilkS-disabled
 62
7
100
AcDbSpline
 70
8
 71
3
 72
8
 73
4
 74
0
 40
0
 40
0
 40
0
 40
0
 40
1
 40
1
 40
1
 40
1
 10
196.836880
 20
129.863665
 30
0.0
 10
197.029597
 20
130.794146
 30
0.0
 10
196.336170
 20
131.147066
 30
0.0
 10
195.746195
 20
131.560876
 30
0.0
  0
SPLINE
  5
110
100
AcDbEntity
  8
F.SilkS-disabled
 62
7
100
AcDbSpline
 70
8
 71
3
 72
8
 73
4
 74
0
 40
0
 40
0
 40
0
 40
0
 40
1
 40
1
 40
1
 40
1
 10
195.746195
 20
131.560876
 30
0.0
 10
195.051586
 20
132.018432
 30
0.0
 10
194.461611
 20
132.447020
 30
0.0
 10
194.092138
 20
133.007437
 30
0.0
  0
SPLINE
  5
111
100
AcDbEntity
  8
F.SilkS-disabled
 62
7
100
AcDbSpline
 70
8
 71
3
 72
8
 73
4
 74
0
 40
0
 40
0
 40
0
 40
0
 40
1
 40
1
 40
1
 40
1
 10
194.092138
 20
133.007437
 30
0.0
 10
193.738035
 20
133.568445
 30
0.0
 10
193.605025
 20
134.247093
 30
0.0
 10
193.811339
 20
135.221319
 30
0.0
  0
SPLINE
  5
112
100
AcDbEntity
  8
F.SilkS-disabled
 62
7
100
AcDbSpline
 70
8
 71
3
 72
8
 73
4
 74
0
 40
0
 40
0
 40
0
 40
0
 40
1
 40
1
 40
1
 40
1
 10
193.811339
 20
135.221319
 30
0.0
 10
194.255298
 20
137.302192
 30
0.0
 10
195.730825
 20
138.364501
 30
0.0
 10
197.737803
 20
138.364501
 30
0.0
  0
SPLINE
  5
113
100
AcDbEntity
  8
F.SilkS-disabled
 62
7
100
AcDbSpline
 70
8
 71
3
 72
8
 73
4
 74
0
 40
0
 40
0
 40
0
 40
0
 40
1
 40
1
 40
1
 40
1
 10
197.737803
 20
138.364501
 30
0.0
 10
199.996613
 20
138.364501
 30
0.0
 10
200.837238
 20
136.859415
 30
0.0
 10
200.276231
 20
134.778543
 30
0.0
  0
LWPOLYLINE
  5
114
100
AcDbEntity
  8
F.SilkS-disabled
 62
7
100
AcDbPolyline
 90
2
 70
0
 10
195.110702
 20
130.735030
 30
0.0
 10
194.948134
 20
129.951747
 30
0.0
  0
SPLINE
  5
115
100
AcDbEntity
  8
F.SilkS-disabled
 62
7
100
AcDbSpline
 70
8
 71
3
 72
8
 73
4
 74
0
 40
0
 40
0
 40
0
 40
0
 40
1
 40
1
 40
1
 40
1
 10
197.885001
 20
134.778543
 30
0.0
 10
197.989045
 20
135.428224
 30
0.0
 10
198.209546
 20
136.314369
 30
0.0
 10
197.368921
 20
136.372893
 30
0.0
  0
SPLINE
  5
116
100
AcDbEntity
  8
F.SilkS-disabled
 62
7
100
AcDbSpline
 70
8
 71
3
 72
8
 73
4
 74
0
 40
0
 40
0
 40
0
 40
0
 40
1
 40
1
 40
1
 40
1
 10
197.368921
 20
136.372893
 30
0.0
 10
196.836880
 20
136.416639
 30
0.0
 10
196.469180
 20
136.122243
 30
0.0
 10
196.306021
 20
135.635129
 30
0.0
  0
SPLINE
  5
117
100
AcDbEntity
  8
F.SilkS-disabled
 62
7
100
AcDbSpline
 70
8
 71
3
 72
8
 73
4
 74
0
 40
0
 40
0
 40
0
 40
0
 40
1
 40
1
 40
1
 40
1
 10
196.306021
 20
135.635129
 30
0.0
 10
196.083746
 20
134.970078
 30
0.0
 10
196.350949
 20
134.631345
 30
0.0
 10
196.793725
 20
134.276651
 30
0.0
  0
SPLINE
  5
118
100
AcDbEntity
  8
F.SilkS-disabled
 62
7
100
AcDbSpline
 70
8
 71
3
 72
8
 73
4
 74
0
 40
0
 40
0
 40
0
 40
0
 40
1
 40
1
 40
1
 40
1
 10
196.793725
 20
134.276651
 30
0.0
 10
197.634350
 20
133.657710
 30
0.0
 10
198.402854
 20
133.272866
 30
0.0
 10
198.890559
 20
132.712450
 30
0.0
  0
SPLINE
  5
119
100
AcDbEntity
  8
F.SilkS-disabled
 62
7
100
AcDbSpline
 70
8
 71
3
 72
8
 73
4
 74
0
 40
0
 40
0
 40
0
 40
0
 40
1
 40
1
 40
1
 40
1
 10
198.890559
 20
132.712450
 30
0.0
 10
199.376490
 20
132.152033
 30
0.0
 10
199.569207
 20
131.413678
 30
0.0
 10
199.287816
 20
130.069978
 30
0.0
  0
SPLINE
  5
11a
100
AcDbEntity
  8
F.SilkS-disabled
 62
7
100
AcDbSpline
 70
8
 71
3
 72
8
 73
4
 74
0
 40
0
 40
0
 40
0
 40
0
 40
1
 40
1
 40
1
 40
1
 10
199.287816
 20
130.069978
 30
0.0
 10
198.829670
 20
127.944178
 30
0.0
 10
197.399070
 20
126.764229
 30
0.0
 10
195.243712
 20
126.764229
 30
0.0
  0
SPLINE
  5
11b
100
AcDbEntity
  8
F.SilkS-disabled
 62
7
100
AcDbSpline
 70
8
 71
3
 72
8
 73
4
 74
0
 40
0
 40
0
 40
0
 40
0
 40
1
 40
1
 40
1
 40
1
 10
195.243712
 20
126.764229
 30
0.0
 10
192.867852
 20
126.764229
 30
0.0
 10
192.142503
 20
128.092559
 30
0.0
 10
192.454043
 20
129.553899
 30
0.0
  0
LWPOLYLINE
  5
11c
100
AcDbEntity
  8
F.SilkS-disabled
 62
7
100
AcDbPolyline
 90
2
 70
0
 10
200.276231
 20
134.778543
 30
0.0
 10
197.885001
 20
134.778543
 30
0.0
  0
LWPOLYLINE
  5
11d
100
AcDbEntity
  8
F.SilkS-disabled
 62
7
100
AcDbPolyline
 90
3
 70
0
 10
192.454043
 20
129.553899
 30
0.0
 10
192.705284
 20
130.735030
 30
0.0
 10
195.110702
 20
130.735030
 30
0.0
  0
SPLINE
  5
11e
100
AcDbEntity
  8
F.SilkS-disabled
 62
7
100
AcDbSpline
 70
8
 71
3
 72
8
 73
4
 74
0
 40
0
 40
0
 40
0
 40
0
 40
1
 40
1
 40
1
 40
1
 10
189.430039
 20
134.941111
 30
0.0
 10
189.636944
 20
135.885780
 30
0.0
 10
189.401072
 20
136.372893
 30
0.0
 10
188.913959
 20
136.372893
 30
0.0
  0
SPLINE
  5
11f
100
AcDbEntity
  8
F.SilkS-disabled
 62
7
100
AcDbSpline
 70
8
 71
3
 72
8
 73
4
 74
0
 40
0
 40
0
 40
0
 40
0
 40
1
 40
1
 40
1
 40
1
 10
188.913959
 20
136.372893
 30
0.0
 10
188.102300
 20
136.387672
 30
0.0
 10
187.806722
 20
135.944896
 30
0.0
 10
187.658342
 20
135.221319
 30
0.0
  0
LWPOLYLINE
  5
120
100
AcDbEntity
  8
F.SilkS-disabled
 62
7
100
AcDbPolyline
 90
2
 70
0
 10
189.283432
 20
134.231723
 30
0.0
 10
189.430039
 20
134.941111
 30
0.0
  0
SPLINE
  5
121
100
AcDbEntity
  8
F.SilkS-disabled
 62
7
100
AcDbSpline
 70
8
 71
3
 72
8
 73
4
 74
0
 40
0
 40
0
 40
0
 40
0
 40
1
 40
1
 40
1
 40
1
 10
186.478392
 20
129.745433
 30
0.0
 10
186.345382
 20
129.125310
 30
0.0
 10
186.522729
 20
128.757610
 30
0.0
 10
187.201377
 20
128.757610
 30
0.0
  0
SPLINE
  5
122
100
AcDbEntity
  8
F.SilkS-disabled
 62
7
100
AcDbSpline
 70
8
 71
3
 72
8
 73
4
 74
0
 40
0
 40
0
 40
0
 40
0
 40
1
 40
1
 40
1
 40
1
 10
187.201377
 20
128.757610
 30
0.0
 10
188.088113
 20
128.757610
 30
0.0
 10
188.352951
 20
129.671539
 30
0.0
 10
188.500149
 20
130.351369
 30
0.0
  0
LWPOLYLINE
  5
123
100
AcDbEntity
  8
F.SilkS-disabled
 62
7
100
AcDbPolyline
 90
2
 70
0
 10
187.658342
 20
135.221319
 30
0.0
 10
186.478392
 20
129.745433
 30
0.0
  0
SPLINE
  5
124
100
AcDbEntity
  8
F.SilkS-disabled
 62
7
100
AcDbSpline
 70
8
 71
3
 72
8
 73
4
 74
0
 40
0
 40
0
 40
0
 40
0
 40
1
 40
1
 40
1
 40
1
 10
191.023798
 20
129.996675
 30
0.0
 10
190.611170
 20
128.092559
 30
0.0
 10
189.238504
 20
126.764229
 30
0.0
 10
186.581254
 20
126.764229
 30
0.0
  0
SPLINE
  5
125
100
AcDbEntity
  8
F.SilkS-disabled
 62
7
100
AcDbSpline
 70
8
 71
3
 72
8
 73
4
 74
0
 40
0
 40
0
 40
0
 40
0
 40
1
 40
1
 40
1
 40
1
 10
186.581254
 20
126.764229
 30
0.0
 10
184.191207
 20
126.764229
 30
0.0
 10
183.526746
 20
128.034034
 30
0.0
 10
184.013859
 20
130.292253
 30
0.0
  0
LWPOLYLINE
  5
126
100
AcDbEntity
  8
F.SilkS-disabled
 62
7
100
AcDbPolyline
 90
4
 70
0
 10
188.500149
 20
130.351369
 30
0.0
 10
188.707645
 20
131.353971
 30
0.0
 10
191.305188
 20
131.353971
 30
0.0
 10
191.023798
 20
129.996675
 30
0.0
  0
SPLINE
  5
127
100
AcDbEntity
  8
F.SilkS-disabled
 62
7
100
AcDbSpline
 70
8
 71
3
 72
8
 73
4
 74
0
 40
0
 40
0
 40
0
 40
0
 40
1
 40
1
 40
1
 40
1
 10
184.972716
 20
134.837068
 30
0.0
 10
185.489387
 20
137.244258
 30
0.0
 10
186.833087
 20
138.364501
 30
0.0
 10
189.209537
 20
138.364501
 30
0.0
  0
SPLINE
  5
128
100
AcDbEntity
  8
F.SilkS-disabled
 62
7
100
AcDbSpline
 70
8
 71
3
 72
8
 73
4
 74
0
 40
0
 40
0
 40
0
 40
0
 40
1
 40
1
 40
1
 40
1
 10
189.209537
 20
138.364501
 30
0.0
 10
191.423420
 20
138.364501
 30
0.0
 10
192.558441
 20
137.420423
 30
0.0
 10
192.072510
 20
135.162204
 30
0.0
  0
LWPOLYLINE
  5
129
100
AcDbEntity
  8
F.SilkS-disabled
 62
7
100
AcDbPolyline
 90
2
 70
0
 10
184.013859
 20
130.292253
 30
0.0
 10
184.972716
 20
134.837068
 30
0.0
  0
LWPOLYLINE
  5
12a
100
AcDbEntity
  8
F.SilkS-disabled
 62
7
100
AcDbPolyline
 90
3
 70
0
 10
192.072510
 20
135.162204
 30
0.0
 10
191.880975
 20
134.231723
 30
0.0
 10
189.283432
 20
134.231723
 30
0.0
  0
LWPOLYLINE
  5
12b
100
AcDbEntity
  8
F.SilkS-disabled
 62
7
100
AcDbPolyline
 90
4
 70
1
 10
178.930679
 20
127.029895
 30
0.0
 10
181.277572
 20
138.099899
 30
0.0
 10
183.873933
 20
138.099899
 30
0.0
 10
181.528222
 20
127.029895
 30
0.0
  0
LWPOLYLINE
  5
12c
100
AcDbEntity
  8
F.SilkS-disabled
 62
7
100
AcDbPolyline
 90
12
 70
1
 10
173.654131
 20
133.229535
 30
0.0
 10
173.625164
 20
133.199386
 30
0.0
 10
172.548076
 20
127.030072
 30
0.0
 10
170.082361
 20
127.030072
 30
0.0
 10
172.428663
 20
138.099485
 30
0.0
 10
175.100692
 20
138.099485
 30
0.0
 10
175.794710
 20
131.915393
 30
0.0
 10
175.837864
 20
131.915393
 30
0.0
 10
176.901947
 20
138.099485
 30
0.0
 10
179.366480
 20
138.099485
 30
0.0
 10
177.019587
 20
127.030072
 30
0.0
 10
174.362337
 20
127.030072
 30
0.0
  0
SPLINE
  5
12d
100
AcDbEntity
  8
F.SilkS-disabled
 62
7
100
AcDbSpline
 70
8
 71
3
 72
8
 73
4
 74
0
 40
0
 40
0
 40
0
 40
0
 40
1
 40
1
 40
1
 40
1
 10
157.438816
 20
133.392339
 30
0.0
 10
158.191358
 20
133.392339
 30
0.0
 10
158.517086
 20
134.084584
 30
0.0
 10
158.648914
 20
134.763823
 30
0.0
  0
SPLINE
  5
12e
100
AcDbEntity
  8
F.SilkS-disabled
 62
7
100
AcDbSpline
 70
8
 71
3
 72
8
 73
4
 74
0
 40
0
 40
0
 40
0
 40
0
 40
1
 40
1
 40
1
 40
1
 10
158.648914
 20
134.763823
 30
0.0
 10
158.930305
 20
136.077965
 30
0.0
 10
158.398855
 20
136.137081
 30
0.0
 10
157.130232
 20
136.108114
 30
0.0
  0
LWPOLYLINE
  5
12f
100
AcDbEntity
  8
F.SilkS-disabled
 62
7
100
AcDbPolyline
 90
2
 70
0
 10
156.553263
 20
133.392339
 30
0.0
 10
157.438816
 20
133.392339
 30
0.0
  0
LWPOLYLINE
  5
130
100
AcDbEntity
  8
F.SilkS-disabled
 62
7
100
AcDbPolyline
 90
2
 70
0
 10
157.130232
 20
136.108114
 30
0.0
 10
156.553263
 20
133.392339
 30
0.0
  0
SPLINE
  5
131
100
AcDbEntity
  8
F.SilkS-disabled
 62
7
100
AcDbSpline
 70
8
 71
3
 72
8
 73
4
 74
0
 40
0
 40
0
 40
0
 40
0
 40
1
 40
1
 40
1
 40
1
 10
158.738770
 20
138.099721
 30
0.0
 10
160.863388
 20
138.099721
 30
0.0
 10
161.748941
 20
137.244317
 30
0.0
 10
161.277197
 20
135.044032
 30
0.0
  0
SPLINE
  5
132
100
AcDbEntity
  8
F.SilkS-disabled
 62
7
100
AcDbSpline
 70
8
 71
3
 72
8
 73
4
 74
0
 40
0
 40
0
 40
0
 40
0
 40
1
 40
1
 40
1
 40
1
 10
161.277197
 20
135.044032
 30
0.0
 10
161.025956
 20
133.864082
 30
0.0
 10
160.567809
 20
133.021684
 30
0.0
 10
159.372490
 20
132.519792
 30
0.0
  0
LWPOLYLINE
  5
133
100
AcDbEntity
  8
F.SilkS-disabled
 62
7
100
AcDbPolyline
 90
4
 70
0
 10
155.195967
 20
127.029718
 30
0.0
 10
152.597832
 20
127.029718
 30
0.0
 10
154.944725
 20
138.099721
 30
0.0
 10
158.738770
 20
138.099721
 30
0.0
  0
SPLINE
  5
134
100
AcDbEntity
  8
F.SilkS-disabled
 62
7
100
AcDbSpline
 70
8
 71
3
 72
8
 73
4
 74
0
 40
0
 40
0
 40
0
 40
0
 40
1
 40
1
 40
1
 40
1
 10
159.372490
 20
132.491416
 30
0.0
 10
160.051729
 20
132.328257
 30
0.0
 10
160.465539
 20
131.826956
 30
0.0
 10
160.347308
 20
131.059634
 30
0.0
  0
SPLINE
  5
135
100
AcDbEntity
  8
F.SilkS-disabled
 62
7
100
AcDbSpline
 70
8
 71
3
 72
8
 73
4
 74
0
 40
0
 40
0
 40
0
 40
0
 40
1
 40
1
 40
1
 40
1
 10
160.347308
 20
131.059634
 30
0.0
 10
160.229076
 20
130.174081
 30
0.0
 10
159.845415
 20
128.269965
 30
0.0
 10
159.845415
 20
127.561168
 30
0.0
  0
SPLINE
  5
136
100
AcDbEntity
  8
F.SilkS-disabled
 62
7
100
AcDbSpline
 70
8
 71
3
 72
8
 73
4
 74
0
 40
0
 40
0
 40
0
 40
0
 40
1
 40
1
 40
1
 40
1
 10
159.845415
 20
127.561168
 30
0.0
 10
159.875564
 20
127.413970
 30
0.0
 10
159.918719
 20
127.280959
 30
0.0
 10
160.008575
 20
127.176916
 30
0.0
  0
LWPOLYLINE
  5
137
100
AcDbEntity
  8
F.SilkS-disabled
 62
7
100
AcDbPolyline
 90
2
 70
0
 10
159.372490
 20
132.519792
 30
0.0
 10
159.372490
 20
132.491416
 30
0.0
  0
SPLINE
  5
138
100
AcDbEntity
  8
F.SilkS-disabled
 62
7
100
AcDbSpline
 70
8
 71
3
 72
8
 73
4
 74
0
 40
0
 40
0
 40
0
 40
0
 40
1
 40
1
 40
1
 40
1
 10
157.144420
 20
127.029718
 30
0.0
 10
157.113680
 20
127.236031
 30
0.0
 10
157.099492
 20
127.443528
 30
0.0
 10
157.130232
 20
127.664620
 30
0.0
  0
SPLINE
  5
139
100
AcDbEntity
  8
F.SilkS-disabled
 62
7
100
AcDbSpline
 70
8
 71
3
 72
8
 73
4
 74
0
 40
0
 40
0
 40
0
 40
0
 40
1
 40
1
 40
1
 40
1
 10
157.130232
 20
127.664620
 30
0.0
 10
157.292800
 20
128.638256
 30
0.0
 10
157.542268
 20
129.553958
 30
0.0
 10
157.617345
 20
130.232606
 30
0.0
  0
SPLINE
  5
13a
100
AcDbEntity
  8
F.SilkS-disabled
 62
7
100
AcDbSpline
 70
8
 71
3
 72
8
 73
4
 74
0
 40
0
 40
0
 40
0
 40
0
 40
1
 40
1
 40
1
 40
1
 10
157.617345
 20
130.232606
 30
0.0
 10
157.689466
 20
130.912436
 30
0.0
 10
157.573008
 20
131.354030
 30
0.0
 10
156.981852
 20
131.399549
 30
0.0
  0
LWPOLYLINE
  5
13b
100
AcDbEntity
  8
F.SilkS-disabled
 62
7
100
AcDbPolyline
 90
3
 70
0
 10
160.008575
 20
127.176916
 30
0.0
 10
159.977835
 20
127.029718
 30
0.0
 10
157.144420
 20
127.029718
 30
0.0
  0
LWPOLYLINE
  5
13c
100
AcDbEntity
  8
F.SilkS-disabled
 62
7
100
AcDbPolyline
 90
3
 70
0
 10
156.981852
 20
131.399549
 30
0.0
 10
156.125856
 20
131.399549
 30
0.0
 10
155.195967
 20
127.029718
 30
0.0
  0
LWPOLYLINE
  5
13d
100
AcDbEntity
  8
F.SilkS-disabled
 62
7
100
AcDbPolyline
 90
8
 70
1
 10
146.514591
 20
138.099662
 30
0.0
 10
153.246686
 20
138.099662
 30
0.0
 10
152.787948
 20
135.885780
 30
0.0
 10
150.692297
 20
135.885780
 30
0.0
 10
148.803551
 20
127.029659
 30
0.0
 10
146.204825
 20
127.029659
 30
0.0
 10
148.094163
 20
135.885780
 30
0.0
 10
146.057627
 20
135.885780
 30
0.0
  0
SPLINE
  5
13e
100
AcDbEntity
  8
F.SilkS-disabled
 62
7
100
AcDbSpline
 70
8
 71
3
 72
8
 73
4
 74
0
 40
0
 40
0
 40
0
 40
0
 40
1
 40
1
 40
1
 40
1
 10
142.036755
 20
134.941111
 30
0.0
 10
142.243069
 20
135.885780
 30
0.0
 10
142.007789
 20
136.372893
 30
0.0
 10
141.520084
 20
136.372893
 30
0.0
  0
SPLINE
  5
13f
100
AcDbEntity
  8
F.SilkS-disabled
 62
7
100
AcDbSpline
 70
8
 71
3
 72
8
 73
4
 74
0
 40
0
 40
0
 40
0
 40
0
 40
1
 40
1
 40
1
 40
1
 10
141.520084
 20
136.372893
 30
0.0
 10
140.708426
 20
136.387672
 30
0.0
 10
140.412847
 20
135.944896
 30
0.0
 10
140.265058
 20
135.221319
 30
0.0
  0
LWPOLYLINE
  5
140
100
AcDbEntity
  8
F.SilkS-disabled
 62
7
100
AcDbPolyline
 90
2
 70
0
 10
141.889557
 20
134.231723
 30
0.0
 10
142.036755
 20
134.941111
 30
0.0
  0
SPLINE
  5
141
100
AcDbEntity
  8
F.SilkS-disabled
 62
7
100
AcDbSpline
 70
8
 71
3
 72
8
 73
4
 74
0
 40
0
 40
0
 40
0
 40
0
 40
1
 40
1
 40
1
 40
1
 10
139.085109
 20
129.745433
 30
0.0
 10
138.952690
 20
129.125310
 30
0.0
 10
139.129446
 20
128.757610
 30
0.0
 10
139.808094
 20
128.757610
 30
0.0
  0
SPLINE
  5
142
100
AcDbEntity
  8
F.SilkS-disabled
 62
7
100
AcDbSpline
 70
8
 71
3
 72
8
 73
4
 74
0
 40
0
 40
0
 40
0
 40
0
 40
1
 40
1
 40
1
 40
1
 10
139.808094
 20
128.757610
 30
0.0
 10
140.694238
 20
128.757610
 30
0.0
 10
140.959668
 20
129.671539
 30
0.0
 10
141.107457
 20
130.351369
 30
0.0
  0
LWPOLYLINE
  5
143
100
AcDbEntity
  8
F.SilkS-disabled
 62
7
100
AcDbPolyline
 90
2
 70
0
 10
140.265058
 20
135.221319
 30
0.0
 10
139.085109
 20
129.745433
 30
0.0
  0
SPLINE
  5
144
100
AcDbEntity
  8
F.SilkS-disabled
 62
7
100
AcDbSpline
 70
8
 71
3
 72
8
 73
4
 74
0
 40
0
 40
0
 40
0
 40
0
 40
1
 40
1
 40
1
 40
1
 10
143.631697
 20
129.996675
 30
0.0
 10
143.217887
 20
128.092559
 30
0.0
 10
141.844629
 20
126.764229
 30
0.0
 10
139.187970
 20
126.764229
 30
0.0
  0
SPLINE
  5
145
100
AcDbEntity
  8
F.SilkS-disabled
 62
7
100
AcDbSpline
 70
8
 71
3
 72
8
 73
4
 74
0
 40
0
 40
0
 40
0
 40
0
 40
1
 40
1
 40
1
 40
1
 10
139.187970
 20
126.764229
 30
0.0
 10
136.796741
 20
126.764229
 30
0.0
 10
136.132872
 20
128.034034
 30
0.0
 10
136.619985
 20
130.292253
 30
0.0
  0
LWPOLYLINE
  5
146
100
AcDbEntity
  8
F.SilkS-disabled
 62
7
100
AcDbPolyline
 90
4
 70
0
 10
141.107457
 20
130.351369
 30
0.0
 10
141.313770
 20
131.353971
 30
0.0
 10
143.912496
 20
131.353971
 30
0.0
 10
143.631697
 20
129.996675
 30
0.0
  0
SPLINE
  5
147
100
AcDbEntity
  8
F.SilkS-disabled
 62
7
100
AcDbSpline
 70
8
 71
3
 72
8
 73
4
 74
0
 40
0
 40
0
 40
0
 40
0
 40
1
 40
1
 40
1
 40
1
 10
137.579432
 20
134.837068
 30
0.0
 10
138.096104
 20
137.244258
 30
0.0
 10
139.439212
 20
138.364501
 30
0.0
 10
141.815663
 20
138.364501
 30
0.0
  0
SPLINE
  5
148
100
AcDbEntity
  8
F.SilkS-disabled
 62
7
100
AcDbSpline
 70
8
 71
3
 72
8
 73
4
 74
0
 40
0
 40
0
 40
0
 40
0
 40
1
 40
1
 40
1
 40
1
 10
141.815663
 20
138.364501
 30
0.0
 10
144.029545
 20
138.364501
 30
0.0
 10
145.165749
 20
137.420423
 30
0.0
 10
144.679818
 20
135.162204
 30
0.0
  0
LWPOLYLINE
  5
149
100
AcDbEntity
  8
F.SilkS-disabled
 62
7
100
AcDbPolyline
 90
2
 70
0
 10
136.619985
 20
130.292253
 30
0.0
 10
137.579432
 20
134.837068
 30
0.0
  0
LWPOLYLINE
  5
14a
100
AcDbEntity
  8
F.SilkS-disabled
 62
7
100
AcDbPolyline
 90
3
 70
0
 10
144.679818
 20
135.162204
 30
0.0
 10
144.487692
 20
134.231723
 30
0.0
 10
141.889557
 20
134.231723
 30
0.0
  0
LWPOLYLINE
  5
14b
100
AcDbEntity
  8
F.SilkS-disabled
 62
7
100
AcDbPolyline
 90
12
 70
1
 10
127.973133
 20
127.029895
 30
0.0
 10
130.320026
 20
138.099899
 30
0.0
 10
136.268247
 20
138.099899
 30
0.0
 10
135.810100
 20
135.885425
 30
0.0
 10
132.460014
 20
135.885425
 30
0.0
 10
132.016055
 20
133.849481
 30
0.0
 10
135.263871
 20
133.849481
 30
0.0
 10
134.791537
 20
131.634416
 30
0.0
 10
131.544903
 20
131.634416
 30
0.0
 10
131.042420
 20
129.243778
 30
0.0
 10
134.570444
 20
129.243778
 30
0.0
 10
134.098110
 20
127.029895
 30
0.0
  0
LWPOLYLINE
  5
14c
100
AcDbEntity
  8
F.SilkS-disabled
 62
7
100
AcDbPolyline
 90
6
 70
1
 10
120.463017
 20
127.029895
 30
0.0
 10
122.809319
 20
138.099899
 30
0.0
 10
125.407453
 20
138.099899
 30
0.0
 10
123.532895
 20
129.243778
 30
0.0
 10
126.706816
 20
129.243778
 30
0.0
 10
126.233891
 20
127.029895
 30
0.0
  0
LWPOLYLINE
  5
14d
100
AcDbEntity
  8
F.SilkS-disabled
 62
7
100
AcDbPolyline
 90
12
 70
1
 10
112.391184
 20
127.029895
 30
0.0
 10
114.738077
 20
138.099899
 30
0.0
 10
120.686297
 20
138.099899
 30
0.0
 10
120.228150
 20
135.885425
 30
0.0
 10
116.878064
 20
135.885425
 30
0.0
 10
116.435288
 20
133.849481
 30
0.0
 10
119.681922
 20
133.849481
 30
0.0
 10
119.209587
 20
131.634416
 30
0.0
 10
115.962954
 20
131.634416
 30
0.0
 10
115.460470
 20
129.243778
 30
0.0
 10
118.988495
 20
129.243778
 30
0.0
 10
118.516160
 20
127.029895
 30
0.0
  0
SPLINE
  5
14e
100
AcDbEntity
  8
F.SilkS-disabled
 62
7
100
AcDbSpline
 70
8
 71
3
 72
8
 73
4
 74
0
 40
0
 40
0
 40
0
 40
0
 40
1
 40
1
 40
1
 40
1
 10
249.882864
 20
177.285383
 30
0.0
 10
250.238741
 20
177.285383
 30
0.0
 10
250.617672
 20
177.203803
 30
0.0
 10
250.617672
 20
176.772259
 30
0.0
  0
SPLINE
  5
14f
100
AcDbEntity
  8
F.SilkS-disabled
 62
7
100
AcDbSpline
 70
8
 71
3
 72
8
 73
4
 74
0
 40
0
 40
0
 40
0
 40
0
 40
1
 40
1
 40
1
 40
1
 10
250.617672
 20
176.772259
 30
0.0
 10
250.617672
 20
176.236670
 30
0.0
 10
250.230465
 20
176.204157
 30
0.0
 10
249.797147
 20
176.204157
 30
0.0
  0
LWPOLYLINE
  5
150
100
AcDbEntity
  8
F.SilkS-disabled
 62
7
100
AcDbPolyline
 90
3
 70
0
 10
249.188255
 20
176.204157
 30
0.0
 10
249.188255
 20
177.285383
 30
0.0
 10
249.882864
 20
177.285383
 30
0.0
  0
LWPOLYLINE
  5
151
100
AcDbEntity
  8
F.SilkS-disabled
 62
7
100
AcDbPolyline
 90
2
 70
0
 10
249.797147
 20
176.204157
 30
0.0
 10
249.188255
 20
176.204157
 30
0.0
  0
SPLINE
  5
152
100
AcDbEntity
  8
F.SilkS-disabled
 62
7
100
AcDbSpline
 70
8
 71
3
 72
8
 73
4
 74
0
 40
0
 40
0
 40
0
 40
0
 40
1
 40
1
 40
1
 40
1
 10
250.277757
 20
175.780889
 30
0.0
 10
250.773147
 20
175.844733
 30
0.0
 10
251.152078
 20
176.116074
 30
0.0
 10
251.152078
 20
176.740927
 30
0.0
  0
SPLINE
  5
153
100
AcDbEntity
  8
F.SilkS-disabled
 62
7
100
AcDbSpline
 70
8
 71
3
 72
8
 73
4
 74
0
 40
0
 40
0
 40
0
 40
0
 40
1
 40
1
 40
1
 40
1
 10
251.152078
 20
176.740927
 30
0.0
 10
251.152078
 20
177.427260
 30
0.0
 10
250.757185
 20
177.732297
 30
0.0
 10
249.960306
 20
177.732297
 30
0.0
  0
LWPOLYLINE
  5
154
100
AcDbEntity
  8
F.SilkS-disabled
 62
7
100
AcDbPolyline
 90
5
 70
0
 10
249.188255
 20
175.757833
 30
0.0
 10
249.774092
 20
175.757833
 30
0.0
 10
250.664374
 20
174.245063
 30
0.0
 10
251.235431
 20
174.245063
 30
0.0
 10
250.277757
 20
175.780889
 30
0.0
  0
SPLINE
  5
155
100
AcDbEntity
  8
F.SilkS-disabled
 62
7
100
AcDbSpline
 70
8
 71
3
 72
8
 73
4
 74
0
 40
0
 40
0
 40
0
 40
0
 40
1
 40
1
 40
1
 40
1
 10
249.807196
 20
172.966391
 30
0.0
 10
251.397999
 20
172.966391
 30
0.0
 10
252.760025
 20
174.245063
 30
0.0
 10
252.760025
 20
175.996661
 30
0.0
  0
SPLINE
  5
156
100
AcDbEntity
  8
F.SilkS-disabled
 62
7
100
AcDbSpline
 70
8
 71
3
 72
8
 73
4
 74
0
 40
0
 40
0
 40
0
 40
0
 40
1
 40
1
 40
1
 40
1
 10
252.760025
 20
175.996661
 30
0.0
 10
252.760025
 20
177.732297
 30
0.0
 10
251.397999
 20
179.012152
 30
0.0
 10
249.807196
 20
179.012152
 30
0.0
  0
SPLINE
  5
157
100
AcDbEntity
  8
F.SilkS-disabled
 62
7
100
AcDbSpline
 70
8
 71
3
 72
8
 73
4
 74
0
 40
0
 40
0
 40
0
 40
0
 40
1
 40
1
 40
1
 40
1
 10
249.807196
 20
179.012152
 30
0.0
 10
248.196294
 20
179.012152
 30
0.0
 10
246.836042
 20
177.732297
 30
0.0
 10
246.836042
 20
175.996661
 30
0.0
  0
SPLINE
  5
158
100
AcDbEntity
  8
F.SilkS-disabled
 62
7
100
AcDbSpline
 70
8
 71
3
 72
8
 73
4
 74
0
 40
0
 40
0
 40
0
 40
0
 40
1
 40
1
 40
1
 40
1
 10
246.836042
 20
175.996661
 30
0.0
 10
246.836042
 20
174.245063
 30
0.0
 10
248.196294
 20
172.966391
 30
0.0
 10
249.807196
 20
172.966391
 30
0.0
  0
SPLINE
  5
159
100
AcDbEntity
  8
F.SilkS-disabled
 62
7
100
AcDbSpline
 70
8
 71
3
 72
8
 73
4
 74
0
 40
0
 40
0
 40
0
 40
0
 40
1
 40
1
 40
1
 40
1
 10
247.426016
 20
175.996661
 30
0.0
 10
247.426016
 20
177.427260
 30
0.0
 10
248.468817
 20
178.507895
 30
0.0
 10
249.807196
 20
178.507895
 30
0.0
  0
SPLINE
  5
15a
100
AcDbEntity
  8
F.SilkS-disabled
 62
7
100
AcDbSpline
 70
8
 71
3
 72
8
 73
4
 74
0
 40
0
 40
0
 40
0
 40
0
 40
1
 40
1
 40
1
 40
1
 10
249.807196
 20
178.507895
 30
0.0
 10
251.127841
 20
178.507895
 30
0.0
 10
252.172415
 20
177.427260
 30
0.0
 10
252.172415
 20
175.996661
 30
0.0
  0
SPLINE
  5
15b
100
AcDbEntity
  8
F.SilkS-disabled
 62
7
100
AcDbSpline
 70
8
 71
3
 72
8
 73
4
 74
0
 40
0
 40
0
 40
0
 40
0
 40
1
 40
1
 40
1
 40
1
 10
252.172415
 20
175.996661
 30
0.0
 10
252.172415
 20
174.541824
 30
0.0
 10
251.127841
 20
173.470647
 30
0.0
 10
249.807196
 20
173.470647
 30
0.0
  0
SPLINE
  5
15c
100
AcDbEntity
  8
F.SilkS-disabled
 62
7
100
AcDbSpline
 70
8
 71
3
 72
8
 73
4
 74
0
 40
0
 40
0
 40
0
 40
0
 40
1
 40
1
 40
1
 40
1
 10
249.807196
 20
173.470647
 30
0.0
 10
248.468817
 20
173.470647
 30
0.0
 10
247.426016
 20
174.541824
 30
0.0
 10
247.426016
 20
175.996661
 30
0.0
  0
LWPOLYLINE
  5
15d
100
AcDbEntity
  8
F.SilkS-disabled
 62
7
100
AcDbPolyline
 90
5
 70
0
 10
249.960306
 20
177.732297
 30
0.0
 10
248.676904
 20
177.732297
 30
0.0
 10
248.676904
 20
174.245063
 30
0.0
 10
249.188255
 20
174.245063
 30
0.0
 10
249.188255
 20
175.757833
 30
0.0
  0
LWPOLYLINE
  5
15e
100
AcDbEntity
  8
F.SilkS-disabled
 62
7
100
AcDbPolyline
 90
4
 70
1
 10
54.658094
 20
151.055456
 30
0.0
 10
47.873977
 20
151.055456
 30
0.0
 10
53.985948
 20
181.375893
 30
0.0
 10
60.770065
 20
181.375893
 30
0.0
  0
SPLINE
  5
15f
100
AcDbEntity
  8
F.SilkS-disabled
 62
7
100
AcDbSpline
 70
8
 71
3
 72
8
 73
4
 74
0
 40
0
 40
0
 40
0
 40
0
 40
1
 40
1
 40
1
 40
1
 10
58.907920
 20
143.999999
 30
0.0
 10
61.496005
 20
143.999999
 30
0.0
 10
64.124880
 20
146.220976
 30
0.0
 10
64.656330
 20
148.845712
 30
0.0
  0
LWPOLYLINE
  5
160
100
AcDbEntity
  8
F.SilkS-disabled
 62
7
100
AcDbPolyline
 90
4
 70
0
 10
68.150067
 20
188.430759
 30
0.0
 10
44.969032
 20
188.430759
 30
0.0
 10
36.000000
 20
143.999999
 30
0.0
 10
58.907920
 20
143.999999
 30
0.0
  0
SPLINE
  5
161
100
AcDbEntity
  8
F.SilkS-disabled
 62
7
100
AcDbSpline
 70
8
 71
3
 72
8
 73
4
 74
0
 40
0
 40
0
 40
0
 40
0
 40
1
 40
1
 40
1
 40
1
 10
71.740754
 20
183.966342
 30
0.0
 10
71.804599
 20
184.279064
 30
0.0
 10
71.838295
 20
184.591786
 30
0.0
 10
71.838295
 20
184.891503
 30
0.0
  0
SPLINE
  5
162
100
AcDbEntity
  8
F.SilkS-disabled
 62
7
100
AcDbSpline
 70
8
 71
3
 72
8
 73
4
 74
0
 40
0
 40
0
 40
0
 40
0
 40
1
 40
1
 40
1
 40
1
 10
71.838295
 20
184.891503
 30
0.0
 10
71.838295
 20
185.755183
 30
0.0
 10
71.576412
 20
186.539648
 30
0.0
 10
71.066835
 20
187.163910
 30
0.0
  0
SPLINE
  5
163
100
AcDbEntity
  8
F.SilkS-disabled
 62
7
100
AcDbSpline
 70
8
 71
3
 72
8
 73
4
 74
0
 40
0
 40
0
 40
0
 40
0
 40
1
 40
1
 40
1
 40
1
 10
71.066835
 20
187.163910
 30
0.0
 10
70.397645
 20
187.980297
 30
0.0
 10
69.357209
 20
188.430759
 30
0.0
 10
68.150067
 20
188.430759
 30
0.0
  0
LWPOLYLINE
  5
164
100
AcDbEntity
  8
F.SilkS-disabled
 62
7
100
AcDbPolyline
 90
2
 70
0
 10
64.656330
 20
148.845712
 30
0.0
 10
71.740754
 20
183.966342
 30
0.0
  0
LWPOLYLINE
  5
165
100
AcDbEntity
  8
F.SilkS-disabled
 62
7
100
AcDbPolyline
 90
11
 70
1
 10
184.546078
 20
188.430818
 30
0.0
 10
172.287849
 20
188.430818
 30
0.0
 10
159.329690
 20
172.888713
 30
0.0
 10
162.466369
 20
188.430818
 30
0.0
 10
152.024173
 20
188.430818
 30
0.0
 10
143.055141
 20
144.000058
 30
0.0
 10
153.497928
 20
144.000058
 30
0.0
 10
156.991665
 20
161.306767
 30
0.0
 10
162.891410
 20
144.000058
 30
0.0
 10
173.957276
 20
144.000058
 30
0.0
 10
165.826504
 20
166.540870
 30
0.0
  0
LWPOLYLINE
  5
166
100
AcDbEntity
  8
F.SilkS-disabled
 62
7
100
AcDbPolyline
 90
4
 70
1
 10
197.191869
 20
161.957217
 30
0.0
 10
190.407753
 20
161.957217
 30
0.0
 10
192.453747
 20
172.106789
 30
0.0
 10
199.238455
 20
172.106789
 30
0.0
  0
SPLINE
  5
167
100
AcDbEntity
  8
F.SilkS-disabled
 62
7
100
AcDbSpline
 70
8
 71
3
 72
8
 73
4
 74
0
 40
0
 40
0
 40
0
 40
0
 40
1
 40
1
 40
1
 40
1
 10
188.182639
 20
179.015640
 30
0.0
 10
185.592189
 20
179.015640
 30
0.0
 10
182.949127
 20
176.781658
 30
0.0
 10
182.417086
 20
174.127364
 30
0.0
  0
LWPOLYLINE
  5
168
100
AcDbEntity
  8
F.SilkS-disabled
 62
7
100
AcDbPolyline
 90
2
 70
0
 10
206.583579
 20
179.015640
 30
0.0
 10
188.182639
 20
179.015640
 30
0.0
  0
SPLINE
  5
169
100
AcDbEntity
  8
F.SilkS-disabled
 62
7
100
AcDbSpline
 70
8
 71
3
 72
8
 73
4
 74
0
 40
0
 40
0
 40
0
 40
0
 40
1
 40
1
 40
1
 40
1
 10
177.246236
 20
148.523177
 30
0.0
 10
176.996177
 20
147.282339
 30
0.0
 10
177.239143
 20
146.131356
 30
0.0
 10
177.938481
 20
145.275952
 30
0.0
  0
SPLINE
  5
16a
100
AcDbEntity
  8
F.SilkS-disabled
 62
7
100
AcDbSpline
 70
8
 71
3
 72
8
 73
4
 74
0
 40
0
 40
0
 40
0
 40
0
 40
1
 40
1
 40
1
 40
1
 10
177.938481
 20
145.275952
 30
0.0
 10
178.611218
 20
144.458382
 30
0.0
 10
179.642195
 20
144.000236
 30
0.0
 10
180.839288
 20
144.000236
 30
0.0
  0
LWPOLYLINE
  5
16b
100
AcDbEntity
  8
F.SilkS-disabled
 62
7
100
AcDbPolyline
 90
2
 70
0
 10
182.417086
 20
174.127364
 30
0.0
 10
177.246236
 20
148.523177
 30
0.0
  0
SPLINE
  5
16c
100
AcDbEntity
  8
F.SilkS-disabled
 62
7
100
AcDbSpline
 70
8
 71
3
 72
8
 73
4
 74
0
 40
0
 40
0
 40
0
 40
0
 40
1
 40
1
 40
1
 40
1
 10
199.227814
 20
144.000236
 30
0.0
 10
201.865556
 20
144.000236
 30
0.0
 10
204.444182
 20
146.152638
 30
0.0
 10
204.974450
 20
148.793336
 30
0.0
  0
LWPOLYLINE
  5
16d
100
AcDbEntity
  8
F.SilkS-disabled
 62
7
100
AcDbPolyline
 90
2
 70
0
 10
180.839288
 20
144.000236
 30
0.0
 10
199.227814
 20
144.000236
 30
0.0
  0
SPLINE
  5
16e
100
AcDbEntity
  8
F.SilkS-disabled
 62
7
100
AcDbSpline
 70
8
 71
3
 72
8
 73
4
 74
0
 40
0
 40
0
 40
0
 40
0
 40
1
 40
1
 40
1
 40
1
 10
206.232432
 20
155.046593
 30
0.0
 10
206.857876
 20
158.173813
 30
0.0
 10
210.144117
 20
174.402843
 30
0.0
 10
210.144117
 20
174.402843
 30
0.0
  0
SPLINE
  5
16f
100
AcDbEntity
  8
F.SilkS-disabled
 62
7
100
AcDbSpline
 70
8
 71
3
 72
8
 73
4
 74
0
 40
0
 40
0
 40
0
 40
0
 40
1
 40
1
 40
1
 40
1
 10
210.144117
 20
174.402843
 30
0.0
 10
210.207962
 20
174.719112
 30
0.0
 10
210.241066
 20
175.028287
 30
0.0
 10
210.241066
 20
175.334506
 30
0.0
  0
SPLINE
  5
170
100
AcDbEntity
  8
F.SilkS-disabled
 62
7
100
AcDbSpline
 70
8
 71
3
 72
8
 73
4
 74
0
 40
0
 40
0
 40
0
 40
0
 40
1
 40
1
 40
1
 40
1
 10
210.241066
 20
175.334506
 30
0.0
 10
210.241066
 20
176.247843
 30
0.0
 10
209.959676
 20
177.093789
 30
0.0
 10
209.427635
 20
177.745244
 30
0.0
  0
SPLINE
  5
171
100
AcDbEntity
  8
F.SilkS-disabled
 62
7
100
AcDbSpline
 70
8
 71
3
 72
8
 73
4
 74
0
 40
0
 40
0
 40
0
 40
0
 40
1
 40
1
 40
1
 40
1
 10
209.427635
 20
177.745244
 30
0.0
 10
208.758445
 20
178.565178
 30
0.0
 10
207.746976
 20
179.015640
 30
0.0
 10
206.583579
 20
179.015640
 30
0.0
  0
LWPOLYLINE
  5
172
100
AcDbEntity
  8
F.SilkS-disabled
 62
7
100
AcDbPolyline
 90
5
 70
0
 10
204.974450
 20
148.793336
 30
0.0
 10
205.432596
 20
151.056284
 30
0.0
 10
188.210423
 20
151.055693
 30
0.0
 10
189.014988
 20
155.047775
 30
0.0
 10
206.232432
 20
155.046593
 30
0.0
  0
LWPOLYLINE
  5
173
100
AcDbEntity
  8
F.SilkS-disabled
 62
7
100
AcDbPolyline
 90
4
 70
1
 10
76.710728
 20
188.430818
 30
0.0
 10
75.614723
 20
183.001633
 30
0.0
 10
86.057509
 20
183.001633
 30
0.0
 10
87.153514
 20
188.430818
 30
0.0
  0
LWPOLYLINE
  5
174
100
AcDbEntity
  8
F.SilkS-disabled
 62
7
100
AcDbPolyline
 90
4
 70
1
 10
122.974843
 20
188.430818
 30
0.0
 10
121.878838
 20
183.001633
 30
0.0
 10
132.321624
 20
183.001633
 30
0.0
 10
133.417629
 20
188.430818
 30
0.0
  0
SPLINE
  5
175
100
AcDbEntity
  8
F.SilkS-disabled
 62
7
100
AcDbSpline
 70
8
 71
3
 72
8
 73
4
 74
0
 40
0
 40
0
 40
0
 40
0
 40
1
 40
1
 40
1
 40
1
 10
94.105046
 20
179.011856
 30
0.0
 10
91.470260
 20
179.011856
 30
0.0
 10
88.896363
 20
176.864184
 30
0.0
 10
88.361366
 20
174.219939
 30
0.0
  0
LWPOLYLINE
  5
176
100
AcDbEntity
  8
F.SilkS-disabled
 62
7
100
AcDbPolyline
 90
4
 70
1
 10
100.918720
 20
151.055456
 30
0.0
 10
94.134013
 20
151.055456
 30
0.0
 10
98.377928
 20
172.107144
 30
0.0
 10
105.162636
 20
172.107144
 30
0.0
  0
SPLINE
  5
177
100
AcDbEntity
  8
F.SilkS-disabled
 62
7
100
AcDbSpline
 70
8
 71
3
 72
8
 73
4
 74
0
 40
0
 40
0
 40
0
 40
0
 40
1
 40
1
 40
1
 40
1
 10
83.179876
 20
148.541857
 30
0.0
 10
83.117213
 20
148.225589
 30
0.0
 10
83.082335
 20
147.915822
 30
0.0
 10
83.082335
 20
147.609603
 30
0.0
  0
SPLINE
  5
178
100
AcDbEntity
  8
F.SilkS-disabled
 62
7
100
AcDbSpline
 70
8
 71
3
 72
8
 73
4
 74
0
 40
0
 40
0
 40
0
 40
0
 40
1
 40
1
 40
1
 40
1
 10
83.082335
 20
147.609603
 30
0.0
 10
83.082335
 20
146.732917
 30
0.0
 10
83.351903
 20
145.930718
 30
0.0
 10
83.866209
 20
145.295224
 30
0.0
  0
SPLINE
  5
179
100
AcDbEntity
  8
F.SilkS-disabled
 62
7
100
AcDbSpline
 70
8
 71
3
 72
8
 73
4
 74
0
 40
0
 40
0
 40
0
 40
0
 40
1
 40
1
 40
1
 40
1
 10
83.866209
 20
145.295224
 30
0.0
 10
84.542493
 20
144.477063
 30
0.0
 10
85.577017
 20
143.998817
 30
0.0
 10
86.767607
 20
143.998817
 30
0.0
  0
LWPOLYLINE
  5
17a
100
AcDbEntity
  8
F.SilkS-disabled
 62
7
100
AcDbPolyline
 90
2
 70
0
 10
88.361366
 20
174.219939
 30
0.0
 10
83.179876
 20
148.541857
 30
0.0
  0
SPLINE
  5
17b
100
AcDbEntity
  8
F.SilkS-disabled
 62
7
100
AcDbSpline
 70
8
 71
3
 72
8
 73
4
 74
0
 40
0
 40
0
 40
0
 40
0
 40
1
 40
1
 40
1
 40
1
 10
81.456654
 20
140.010281
 30
0.0
 10
80.942347
 20
137.466533
 30
0.0
 10
79.748210
 20
131.551418
 30
0.0
 10
79.748210
 20
131.551418
 30
0.0
  0
SPLINE
  5
17c
100
AcDbEntity
  8
F.SilkS-disabled
 62
7
100
AcDbSpline
 70
8
 71
3
 72
8
 73
4
 74
0
 40
0
 40
0
 40
0
 40
0
 40
1
 40
1
 40
1
 40
1
 10
79.748210
 20
131.551418
 30
0.0
 10
79.680818
 20
131.231011
 30
0.0
 10
79.653625
 20
130.921244
 30
0.0
 10
79.653625
 20
130.618572
 30
0.0
  0
SPLINE
  5
17d
100
AcDbEntity
  8
F.SilkS-disabled
 62
7
100
AcDbSpline
 70
8
 71
3
 72
8
 73
4
 74
0
 40
0
 40
0
 40
0
 40
0
 40
1
 40
1
 40
1
 40
1
 10
79.653625
 20
130.618572
 30
0.0
 10
79.653625
 20
129.740704
 30
0.0
 10
79.919646
 20
128.942642
 30
0.0
 10
80.438090
 20
128.307740
 30
0.0
  0
SPLINE
  5
17e
100
AcDbEntity
  8
F.SilkS-disabled
 62
7
100
AcDbSpline
 70
8
 71
3
 72
8
 73
4
 74
0
 40
0
 40
0
 40
0
 40
0
 40
1
 40
1
 40
1
 40
1
 10
80.438090
 20
128.307740
 30
0.0
 10
81.114374
 20
127.482485
 30
0.0
 10
82.140622
 20
127.030841
 30
0.0
 10
83.338306
 20
127.030841
 30
0.0
  0
LWPOLYLINE
  5
17f
100
AcDbEntity
  8
F.SilkS-disabled
 62
7
100
AcDbPolyline
 90
6
 70
0
 10
86.767607
 20
143.998817
 30
0.0
 10
99.496397
 20
143.999999
 30
0.0
 10
97.014720
 20
131.689748
 30
0.0
 10
90.230604
 20
131.689748
 30
0.0
 10
91.907716
 20
140.010281
 30
0.0
 10
81.456654
 20
140.010281
 30
0.0
  0
SPLINE
  5
180
100
AcDbEntity
  8
F.SilkS-disabled
 62
7
100
AcDbSpline
 70
8
 71
3
 72
8
 73
4
 74
0
 40
0
 40
0
 40
0
 40
0
 40
1
 40
1
 40
1
 40
1
 10
101.729197
 20
127.030841
 30
0.0
 10
104.362800
 20
127.030841
 30
0.0
 10
106.941427
 20
129.178514
 30
0.0
 10
107.472286
 20
131.816847
 30
0.0
  0
LWPOLYLINE
  5
181
100
AcDbEntity
  8
F.SilkS-disabled
 62
7
100
AcDbPolyline
 90
2
 70
0
 10
83.338306
 20
127.030841
 30
0.0
 10
101.729197
 20
127.030841
 30
0.0
  0
LWPOLYLINE
  5
182
100
AcDbEntity
  8
F.SilkS-disabled
 62
7
100
AcDbPolyline
 90
3
 70
0
 10
107.472286
 20
131.816847
 30
0.0
 10
117.001734
 20
179.011856
 30
0.0
 10
94.105046
 20
179.011856
 30
0.0
  0
SPLINE
  5
183
100
AcDbEntity
  8
F.SilkS-disabled
 62
7
100
AcDbSpline
 70
8
 71
3
 72
8
 73
4
 74
0
 40
0
 40
0
 40
0
 40
0
 40
1
 40
1
 40
1
 40
1
 10
208.994139
 20
148.541857
 30
0.0
 10
208.932659
 20
148.225589
 30
0.0
 10
208.897189
 20
147.915822
 30
0.0
 10
208.897189
 20
147.609603
 30
0.0
  0
SPLINE
  5
184
100
AcDbEntity
  8
F.SilkS-disabled
 62
7
100
AcDbSpline
 70
8
 71
3
 72
8
 73
4
 74
0
 40
0
 40
0
 40
0
 40
0
 40
1
 40
1
 40
1
 40
1
 10
208.897189
 20
147.609603
 30
0.0
 10
208.897189
 20
146.732326
 30
0.0
 10
209.166757
 20
145.930718
 30
0.0
 10
209.681064
 20
145.295224
 30
0.0
  0
SPLINE
  5
185
100
AcDbEntity
  8
F.SilkS-disabled
 62
7
100
AcDbSpline
 70
8
 71
3
 72
8
 73
4
 74
0
 40
0
 40
0
 40
0
 40
0
 40
1
 40
1
 40
1
 40
1
 10
209.681064
 20
145.295224
 30
0.0
 10
210.357347
 20
144.477063
 30
0.0
 10
211.392463
 20
143.998817
 30
0.0
 10
212.581870
 20
143.998817
 30
0.0
  0
LWPOLYLINE
  5
186
100
AcDbEntity
  8
F.SilkS-disabled
 62
7
100
AcDbPolyline
 90
6
 70
0
 10
232.373211
 20
179.011856
 30
0.0
 10
226.737713
 20
151.055456
 30
0.0
 10
219.953005
 20
151.055456
 30
0.0
 10
225.588504
 20
179.011856
 30
0.0
 10
215.145718
 20
179.011856
 30
0.0
 10
208.994139
 20
148.541857
 30
0.0
  0
SPLINE
  5
187
100
AcDbEntity
  8
F.SilkS-disabled
 62
7
100
AcDbSpline
 70
8
 71
3
 72
8
 73
4
 74
0
 40
0
 40
0
 40
0
 40
0
 40
1
 40
1
 40
1
 40
1
 10
205.565429
 20
131.551418
 30
0.0
 10
205.498037
 20
131.231011
 30
0.0
 10
205.470844
 20
130.921244
 30
0.0
 10
205.470844
 20
130.618572
 30
0.0
  0
SPLINE
  5
188
100
AcDbEntity
  8
F.SilkS-disabled
 62
7
100
AcDbSpline
 70
8
 71
3
 72
8
 73
4
 74
0
 40
0
 40
0
 40
0
 40
0
 40
1
 40
1
 40
1
 40
1
 10
205.470844
 20
130.618572
 30
0.0
 10
205.470844
 20
129.740704
 30
0.0
 10
205.736865
 20
128.942642
 30
0.0
 10
206.255309
 20
128.307740
 30
0.0
  0
SPLINE
  5
189
100
AcDbEntity
  8
F.SilkS-disabled
 62
7
100
AcDbSpline
 70
8
 71
3
 72
8
 73
4
 74
0
 40
0
 40
0
 40
0
 40
0
 40
1
 40
1
 40
1
 40
1
 10
206.255309
 20
128.307740
 30
0.0
 10
206.931593
 20
127.482485
 30
0.0
 10
207.957841
 20
127.030841
 30
0.0
 10
209.155525
 20
127.030841
 30
0.0
  0
LWPOLYLINE
  5
18a
100
AcDbEntity
  8
F.SilkS-disabled
 62
7
100
AcDbPolyline
 90
7
 70
0
 10
212.581870
 20
143.998817
 30
0.0
 10
225.315389
 20
143.999408
 30
0.0
 10
222.833713
 20
131.691522
 30
0.0
 10
216.050188
 20
131.691522
 30
0.0
 10
217.726709
 20
140.010281
 30
0.0
 10
207.274464
 20
140.010281
 30
0.0
 10
205.565429
 20
131.551418
 30
0.0
  0
SPLINE
  5
18b
100
AcDbEntity
  8
F.SilkS-disabled
 62
7
100
AcDbSpline
 70
8
 71
3
 72
8
 73
4
 74
0
 40
0
 40
0
 40
0
 40
0
 40
1
 40
1
 40
1
 40
1
 10
227.552327
 20
127.030841
 30
0.0
 10
230.185931
 20
127.030841
 30
0.0
 10
232.763966
 20
129.178514
 30
0.0
 10
233.295416
 20
131.816847
 30
0.0
  0
LWPOLYLINE
  5
18c
100
AcDbEntity
  8
F.SilkS-disabled
 62
7
100
AcDbPolyline
 90
2
 70
0
 10
209.155525
 20
127.030841
 30
0.0
 10
227.552327
 20
127.030841
 30
0.0
  0
LWPOLYLINE
  5
18d
100
AcDbEntity
  8
F.SilkS-disabled
 62
7
100
AcDbPolyline
 90
3
 70
0
 10
233.295416
 20
131.816847
 30
0.0
 10
242.821318
 20
179.011856
 30
0.0
 10
232.373211
 20
179.011856
 30
0.0
  0
LWPOLYLINE
  5
18e
100
AcDbEntity
  8
F.SilkS-disabled
 62
7
100
AcDbPolyline
 90
4
 70
1
 10
133.079073
 20
166.540397
 30
0.0
 10
130.759374
 20
155.048899
 30
0.0
 10
141.205707
 20
155.048899
 30
0.0
 10
143.525998
 20
166.540397
 30
0.0
  0
LWPOLYLINE
  5
18f
100
AcDbEntity
  8
F.SilkS-disabled
 62
7
100
AcDbPolyline
 90
4
 70
1
 10
74.809390
 20
179.011561
 30
0.0
 10
67.742110
 20
144.000295
 30
0.0
 10
78.184305
 20
144.000295
 30
0.0
 10
85.252176
 20
179.011561
 30
0.0
  0
SPLINE
  5
190
100
AcDbEntity
  8
F.SilkS-disabled
 62
7
100
AcDbSpline
 70
8
 71
3
 72
8
 73
4
 74
0
 40
0
 40
0
 40
0
 40
0
 40
1
 40
1
 40
1
 40
1
 10
142.690575
 20
229.024379
 30
0.0
 10
66.293007
 20
229.024379
 30
0.0
 10
4.360456
 20
198.057808
 30
0.0
 10
4.360456
 20
159.859024
 30
0.0
  0
SPLINE
  5
191
100
AcDbEntity
  8
F.SilkS-disabled
 62
7
100
AcDbSpline
 70
8
 71
3
 72
8
 73
4
 74
0
 40
0
 40
0
 40
0
 40
0
 40
1
 40
1
 40
1
 40
1
 10
4.360456
 20
159.859024
 30
0.0
 10
4.360456
 20
121.659649
 30
0.0
 10
66.293007
 20
90.693669
 30
0.0
 10
142.690575
 20
90.693669
 30
0.0
  0
SPLINE
  5
192
100
AcDbEntity
  8
F.SilkS-disabled
 62
7
100
AcDbSpline
 70
8
 71
3
 72
8
 73
4
 74
0
 40
0
 40
0
 40
0
 40
0
 40
1
 40
1
 40
1
 40
1
 10
142.690575
 20
90.693669
 30
0.0
 10
219.089325
 20
90.693669
 30
0.0
 10
281.021876
 20
121.659649
 30
0.0
 10
281.021876
 20
159.859024
 30
0.0
  0
SPLINE
  5
193
100
AcDbEntity
  8
F.SilkS-disabled
 62
7
100
AcDbSpline
 70
8
 71
3
 72
8
 73
4
 74
0
 40
0
 40
0
 40
0
 40
0
 40
1
 40
1
 40
1
 40
1
 10
281.021876
 20
159.859024
 30
0.0
 10
281.021876
 20
198.057808
 30
0.0
 10
219.089325
 20
229.024379
 30
0.0
 10
142.690575
 20
229.024379
 30
0.0
  0
SPLINE
  5
194
100
AcDbEntity
  8
F.SilkS-disabled
 62
7
100
AcDbSpline
 70
8
 71
3
 72
8
 73
4
 74
0
 40
0
 40
0
 40
0
 40
0
 40
1
 40
1
 40
1
 40
1
 10
142.690575
 20
218.974712
 30
0.0
 10
160.667656
 20
218.974712
 30
0.0
 10
178.084320
 20
217.218976
 30
0.0
 10
194.455818
 20
213.756570
 30
0.0
  0
SPLINE
  5
195
100
AcDbEntity
  8
F.SilkS-disabled
 62
7
100
AcDbSpline
 70
8
 71
3
 72
8
 73
4
 74
0
 40
0
 40
0
 40
0
 40
0
 40
1
 40
1
 40
1
 40
1
 10
194.455818
 20
213.756570
 30
0.0
 10
210.091918
 20
210.450230
 30
0.0
 10
224.072778
 20
205.746985
 30
0.0
 10
236.011191
 20
199.777483
 30
0.0
  0
SPLINE
  5
196
100
AcDbEntity
  8
F.SilkS-disabled
 62
7
100
AcDbSpline
 70
8
 71
3
 72
8
 73
4
 74
0
 40
0
 40
0
 40
0
 40
0
 40
1
 40
1
 40
1
 40
1
 10
236.011191
 20
199.777483
 30
0.0
 10
247.328889
 20
194.118930
 30
0.0
 10
256.481180
 20
187.380332
 30
0.0
 10
262.478467
 20
180.290588
 30
0.0
  0
SPLINE
  5
197
100
AcDbEntity
  8
F.SilkS-disabled
 62
7
100
AcDbSpline
 70
8
 71
3
 72
8
 73
4
 74
0
 40
0
 40
0
 40
0
 40
0
 40
1
 40
1
 40
1
 40
1
 10
262.478467
 20
180.290588
 30
0.0
 10
268.114556
 20
173.628250
 30
0.0
 10
270.972209
 20
166.754869
 30
0.0
 10
270.972209
 20
159.859024
 30
0.0
  0
SPLINE
  5
198
100
AcDbEntity
  8
F.SilkS-disabled
 62
7
100
AcDbSpline
 70
8
 71
3
 72
8
 73
4
 74
0
 40
0
 40
0
 40
0
 40
0
 40
1
 40
1
 40
1
 40
1
 10
270.972209
 20
159.859024
 30
0.0
 10
270.972209
 20
152.963770
 30
0.0
 10
268.114556
 20
146.089798
 30
0.0
 10
262.478467
 20
139.427460
 30
0.0
  0
SPLINE
  5
199
100
AcDbEntity
  8
F.SilkS-disabled
 62
7
100
AcDbSpline
 70
8
 71
3
 72
8
 73
4
 74
0
 40
0
 40
0
 40
0
 40
0
 40
1
 40
1
 40
1
 40
1
 10
262.478467
 20
139.427460
 30
0.0
 10
256.481180
 20
132.337715
 30
0.0
 10
247.328889
 20
125.599118
 30
0.0
 10
236.011191
 20
119.940564
 30
0.0
  0
SPLINE
  5
19a
100
AcDbEntity
  8
F.SilkS-disabled
 62
7
100
AcDbSpline
 70
8
 71
3
 72
8
 73
4
 74
0
 40
0
 40
0
 40
0
 40
0
 40
1
 40
1
 40
1
 40
1
 10
236.011191
 20
119.940564
 30
0.0
 10
224.072778
 20
113.971062
 30
0.0
 10
210.091918
 20
109.267227
 30
0.0
 10
194.455818
 20
105.961478
 30
0.0
  0
SPLINE
  5
19b
100
AcDbEntity
  8
F.SilkS-disabled
 62
7
100
AcDbSpline
 70
8
 71
3
 72
8
 73
4
 74
0
 40
0
 40
0
 40
0
 40
0
 40
1
 40
1
 40
1
 40
1
 10
194.455818
 20
105.961478
 30
0.0
 10
178.084320
 20
102.498481
 30
0.0
 10
160.667656
 20
100.743336
 30
0.0
 10
142.690575
 20
100.743336
 30
0.0
  0
SPLINE
  5
19c
100
AcDbEntity
  8
F.SilkS-disabled
 62
7
100
AcDbSpline
 70
8
 71
3
 72
8
 73
4
 74
0
 40
0
 40
0
 40
0
 40
0
 40
1
 40
1
 40
1
 40
1
 10
142.690575
 20
100.743336
 30
0.0
 10
124.713494
 20
100.743336
 30
0.0
 10
107.296830
 20
102.498481
 30
0.0
 10
90.925332
 20
105.961478
 30
0.0
  0
SPLINE
  5
19d
100
AcDbEntity
  8
F.SilkS-disabled
 62
7
100
AcDbSpline
 70
8
 71
3
 72
8
 73
4
 74
0
 40
0
 40
0
 40
0
 40
0
 40
1
 40
1
 40
1
 40
1
 10
90.925332
 20
105.961478
 30
0.0
 10
75.290414
 20
109.267227
 30
0.0
 10
61.308963
 20
113.971062
 30
0.0
 10
49.370550
 20
119.940564
 30
0.0
  0
SPLINE
  5
19e
100
AcDbEntity
  8
F.SilkS-disabled
 62
7
100
AcDbSpline
 70
8
 71
3
 72
8
 73
4
 74
0
 40
0
 40
0
 40
0
 40
0
 40
1
 40
1
 40
1
 40
1
 10
49.370550
 20
119.940564
 30
0.0
 10
38.052852
 20
125.599118
 30
0.0
 10
28.901152
 20
132.337715
 30
0.0
 10
22.903865
 20
139.427460
 30
0.0
  0
SPLINE
  5
19f
100
AcDbEntity
  8
F.SilkS-disabled
 62
7
100
AcDbSpline
 70
8
 71
3
 72
8
 73
4
 74
0
 40
0
 40
0
 40
0
 40
0
 40
1
 40
1
 40
1
 40
1
 10
22.903865
 20
139.427460
 30
0.0
 10
17.267776
 20
146.089798
 30
0.0
 10
14.410123
 20
152.963770
 30
0.0
 10
14.410123
 20
159.859024
 30
0.0
  0
SPLINE
  5
1a0
100
AcDbEntity
  8
F.SilkS-disabled
 62
7
100
AcDbSpline
 70
8
 71
3
 72
8
 73
4
 74
0
 40
0
 40
0
 40
0
 40
0
 40
1
 40
1
 40
1
 40
1
 10
14.410123
 20
159.859024
 30
0.0
 10
14.410123
 20
166.754869
 30
0.0
 10
17.267776
 20
173.628250
 30
0.0
 10
22.903865
 20
180.290588
 30
0.0
  0
SPLINE
  5
1a1
100
AcDbEntity
  8
F.SilkS-disabled
 62
7
100
AcDbSpline
 70
8
 71
3
 72
8
 73
4
 74
0
 40
0
 40
0
 40
0
 40
0
 40
1
 40
1
 40
1
 40
1
 10
22.903865
 20
180.290588
 30
0.0
 10
28.901152
 20
187.380332
 30
0.0
 10
38.052852
 20
194.118930
 30
0.0
 10
49.370550
 20
199.777483
 30
0.0
  0
SPLINE
  5
1a2
100
AcDbEntity
  8
F.SilkS-disabled
 62
7
100
AcDbSpline
 70
8
 71
3
 72
8
 73
4
 74
0
 40
0
 40
0
 40
0
 40
0
 40
1
 40
1
 40
1
 40
1
 10
49.370550
 20
199.777483
 30
0.0
 10
61.308963
 20
205.746985
 30
0.0
 10
75.290414
 20
210.450230
 30
0.0
 10
90.925332
 20
213.756570
 30
0.0
  0
SPLINE
  5
1a3
100
AcDbEntity
  8
F.SilkS-disabled
 62
7
100
AcDbSpline
 70
8
 71
3
 72
8
 73
4
 74
0
 40
0
 40
0
 40
0
 40
0
 40
1
 40
1
 40
1
 40
1
 10
90.925332
 20
213.756570
 30
0.0
 10
107.297421
 20
217.218976
 30
0.0
 10
124.713494
 20
218.974712
 30
0.0
 10
142.690575
 20
218.974712
 30
0.0
  0
LWPOLYLINE
  5
1a4
100
AcDbEntity
  8
F.SilkS-disabled
 62
7
100
AcDbPolyline
 90
4
 70
1
 10
121.073209
 20
179.011561
 30
0.0
 10
114.005929
 20
144.000295
 30
0.0
 10
124.448715
 20
144.000295
 30
0.0
 10
131.515995
 20
179.011561
 30
0.0
  0
ENDSEC
  0
SECTION
  2
OBJECTS
  0
DICTIONARY
  5
C
330
0
100
AcDbDictionary
  3
ACAD_GROUP
350
D
  3
ACAD_MLINESTYLE
350
17
  0
DICTIONARY
  5
D
330
C
100
AcDbDictionary
  0
DICTIONARY
  5
1A
330
C
100
AcDbDictionary
  0
DICTIONARY
  5
17
330
C
100
AcDbDictionary
  3
STANDARD
350
18
  0
DICTIONARY
  5
19
330
C
100
AcDbDictionary
  0
ENDSEC
  0
EOF
