<?xml version="1.0" encoding="UTF-8" standalone="no"?>
<!-- Generator: Adobe Illustrator 23.0.2, SVG Export Plug-In . SVG Version: 6.00 Build 0)  -->

<svg
   xmlns:dc="http://purl.org/dc/elements/1.1/"
   xmlns:cc="http://creativecommons.org/ns#"
   xmlns:rdf="http://www.w3.org/1999/02/22-rdf-syntax-ns#"
   xmlns:svg="http://www.w3.org/2000/svg"
   xmlns="http://www.w3.org/2000/svg"
   xmlns:sodipodi="http://sodipodi.sourceforge.net/DTD/sodipodi-0.dtd"
   xmlns:inkscape="http://www.inkscape.org/namespaces/inkscape"
   version="1.0"
   id="Layer_1"
   x="0px"
   y="0px"
   viewBox="0 0 623.5144653 267.3630066"
   style="enable-background:new 0 0 623.5144653 267.3630066;"
   xml:space="preserve"
   sodipodi:docname="Qwiic lozenge curves.svg"
   inkscape:version="0.92.4 (5da689c313, 2019-01-14)"><metadata
   id="metadata29"><rdf:RDF><cc:Work
       rdf:about=""><dc:format>image/svg+xml</dc:format><dc:type
         rdf:resource="http://purl.org/dc/dcmitype/StillImage" /><dc:title></dc:title></cc:Work></rdf:RDF></metadata><defs
   id="defs27" /><sodipodi:namedview
   pagecolor="#ffffff"
   bordercolor="#666666"
   borderopacity="1"
   objecttolerance="10"
   gridtolerance="10"
   guidetolerance="10"
   inkscape:pageopacity="0"
   inkscape:pageshadow="2"
   inkscape:window-width="1920"
   inkscape:window-height="1137"
   id="namedview25"
   showgrid="false"
   inkscape:zoom="0.11507351"
   inkscape:cx="3118.6596"
   inkscape:cy="-2253.6854"
   inkscape:window-x="-8"
   inkscape:window-y="-8"
   inkscape:window-maximized="1"
   inkscape:current-layer="Layer_1" />
<g
   id="g6">
	<path
   d="M487.9956665,52.2611618H131.2755127c-47.2550583,0-85.5628052,38.3078003-85.5628052,85.5627975v0.0001831   c0,47.2550049,38.3077431,85.5628052,85.5628052,85.5628052h26.4606323v-48.1395874   c-6.7479858,9.1173706-16.7774048,14.0413208-29.177124,14.0413208c-27.7159958,0-45.950737-20.4226685-45.950737-51.0571289   c0-30.0872116,18.0514526-49.9626999,45.2211304-49.9626999c12.7664108,0,22.9772263,5.1054688,29.9067307,14.0404053V89.3632736   h32.456604v134.0236816h297.8029175c47.2550659,0,85.5628052-38.3078003,85.5628052-85.5628052v-0.0001831   C573.5584717,90.5689621,535.2507324,52.2611618,487.9956665,52.2611618z M333.1504517,188.0118866h-32.093689   l-18.7810059-60.9031906l-18.9643555,60.9031906h-32.0918579l-35.9232178-98.648613h33.0047607l19.6921387,66.7382126   l19.3291626-66.7382126h30.9992676l19.5106201,66.7382126l19.6939697-66.7382126h31.7270508L333.1504517,188.0118866z    M405.1727905,188.0118866H372.897644v-98.648613h32.2751465V188.0118866z M444.0089111,188.0118866h-32.2751465v-98.648613   h32.2751465V188.0118866z M507.2094727,115.6074753c-1.6011353-0.3277588-3.2672729-0.5336914-5.0334473-0.5336914   c-11.670105,0-19.6939697,9.6646118-19.6939697,23.8873825c0,14.4052124,8.0238647,23.8873901,19.6939697,23.8873901   c1.7650146,0,3.4312134-0.1856079,5.0334473-0.4858398v26.4213257c-2.1670532,0.2016602-4.3855591,0.3222046-6.6741333,0.3222046   c-30.4530029,0-50.6932373-19.8763428-50.6932373-49.9626465c0-30.6344528,20.423584-50.8747482,51.0562134-50.8747482   c2.1577759,0,4.2559204,0.1199341,6.3111572,0.3189087V115.6074753z"
   id="path2" />
	<path
   d="M136.5829468,114.5266037c-12.7645187,0-21.3347092,10.0293579-21.3347092,24.6169968   c0,14.5875854,8.5701904,24.6160889,21.3347092,24.6160889c12.5830078,0,21.1531982-10.0285034,21.1531982-24.6160889   C157.736145,124.3735886,149.1659546,114.5266037,136.5829468,114.5266037z"
   id="path4" />
</g>

<g
   id="g12">
</g>
<g
   id="g14">
</g>
<g
   id="g16">
</g>
<g
   id="g18">
</g>
<g
   id="g20">
</g>
<g
   id="g22">
</g>
</svg>